<svg width="461" height="470" viewBox="0 0 461 470" fill="none" xmlns="http://www.w3.org/2000/svg">
<rect x="0.240234" y="0.0144501" width="459.933" height="469.581" rx="6" fill="url(#paint0_linear)"/>
<path d="M134.636 88.7539V46.0977H149.959C155.447 46.0977 159.617 47.1036 162.469 49.1153C165.34 51.127 166.775 54.0469 166.775 57.875C166.775 60.0821 166.267 61.9668 165.252 63.5293C164.236 65.0918 162.742 66.2442 160.769 66.9864C162.996 67.5723 164.705 68.6661 165.896 70.2676C167.088 71.8692 167.683 73.8223 167.683 76.127C167.683 80.3067 166.355 83.4512 163.699 85.5606C161.062 87.6504 157.146 88.7149 151.951 88.7539H134.636ZM144.92 70.6192V80.8438H151.658C153.513 80.8438 154.939 80.4239 155.935 79.584C156.931 78.7246 157.429 77.5235 157.429 75.9805C157.429 72.4258 155.662 70.6387 152.127 70.6192H144.92ZM144.92 63.8809H150.281C152.527 63.8614 154.129 63.4512 155.086 62.6504C156.043 61.8496 156.521 60.668 156.521 59.1055C156.521 57.3086 156.004 56.0196 154.969 55.2383C153.933 54.4375 152.263 54.0371 149.959 54.0371H144.92V63.8809ZM189.217 73.6954H183.65V88.7539H173.367V46.0977H190.154C195.213 46.0977 199.168 47.2207 202.019 49.4668C204.871 51.7129 206.297 54.8868 206.297 58.9883C206.297 61.9571 205.691 64.418 204.48 66.3711C203.289 68.3243 201.414 69.9063 198.855 71.1172L207.761 88.3145V88.7539H196.746L189.217 73.6954ZM183.65 65.7559H190.154C192.107 65.7559 193.572 65.2481 194.549 64.2325C195.545 63.1973 196.043 61.7618 196.043 59.9258C196.043 58.0899 195.545 56.6543 194.549 55.6192C193.552 54.5645 192.088 54.0371 190.154 54.0371H183.65V65.7559ZM245.965 46.0977V74.0176C245.965 77.1817 245.291 79.9258 243.943 82.25C242.595 84.5547 240.662 86.3125 238.142 87.5235C235.623 88.7344 232.644 89.3399 229.207 89.3399C224.011 89.3399 219.92 87.9922 216.931 85.2969C213.943 82.6016 212.42 78.9102 212.361 74.2227V46.0977H222.703V74.4278C222.82 79.0957 224.988 81.4297 229.207 81.4297C231.336 81.4297 232.947 80.8438 234.041 79.6719C235.135 78.5 235.681 76.5957 235.681 73.959V46.0977H245.965ZM274.412 77.4161C274.412 75.9121 273.875 74.7403 272.801 73.9004C271.746 73.0606 269.881 72.1914 267.205 71.293C264.529 70.3946 262.342 69.5254 260.642 68.6856C255.115 65.9707 252.351 62.2403 252.351 57.4942C252.351 55.1309 253.035 53.0508 254.402 51.2539C255.789 49.4375 257.742 48.0313 260.261 47.0352C262.781 46.0196 265.613 45.5118 268.758 45.5118C271.824 45.5118 274.568 46.0586 276.99 47.1524C279.431 48.2461 281.326 49.8086 282.674 51.8399C284.021 53.8516 284.695 56.1563 284.695 58.7539H274.441C274.441 57.0157 273.904 55.668 272.83 54.711C271.775 53.7539 270.34 53.2754 268.523 53.2754C266.687 53.2754 265.232 53.6856 264.158 54.5059C263.103 55.3067 262.576 56.3321 262.576 57.5821C262.576 58.6758 263.162 59.6719 264.334 60.5704C265.506 61.4493 267.566 62.3672 270.515 63.3243C273.465 64.2618 275.886 65.2774 277.781 66.3711C282.39 69.0274 284.695 72.6895 284.695 77.3575C284.695 81.0879 283.289 84.0176 280.476 86.1465C277.664 88.2754 273.806 89.3399 268.904 89.3399C265.447 89.3399 262.312 88.7246 259.5 87.4942C256.707 86.2442 254.597 84.545 253.172 82.3965C251.765 80.2286 251.062 77.7383 251.062 74.9258H261.375C261.375 77.211 261.961 78.9004 263.133 79.9942C264.324 81.0684 266.248 81.6055 268.904 81.6055C270.603 81.6055 271.941 81.2442 272.918 80.5215C273.914 79.7793 274.412 78.7442 274.412 77.4161ZM325.623 88.7539H315.398V70.9414H300.252V88.7539H289.969V46.0977H300.252V63.0313H315.398V46.0977H325.623V88.7539Z" fill="black"/>
<path d="M250.264 160.951C249.101 162.209 247.673 163.159 245.977 163.801C244.296 164.43 242.45 164.745 240.44 164.745C237.009 164.745 234.343 163.685 232.442 161.566C230.542 159.433 229.564 156.336 229.51 152.276V146.903C229.51 142.788 230.405 139.623 232.196 137.408C234.001 135.179 236.626 134.065 240.071 134.065C243.311 134.065 245.752 134.865 247.392 136.464C249.047 138.064 250.004 140.573 250.264 143.991H244.398C244.234 142.09 243.838 140.798 243.209 140.115C242.58 139.418 241.596 139.069 240.256 139.069C238.629 139.069 237.446 139.664 236.708 140.853C235.97 142.043 235.587 143.936 235.559 146.534V151.948C235.559 154.668 235.963 156.651 236.769 157.895C237.59 159.126 238.93 159.741 240.789 159.741C241.978 159.741 242.942 159.501 243.681 159.023L244.214 158.654V153.178H239.989V148.626H250.264V160.951ZM267.522 158.223H259.298L257.699 164.335H251.321L260.652 134.475H266.169L275.561 164.335H269.122L267.522 158.223ZM260.611 153.199H266.189L263.4 142.555L260.611 153.199ZM286.155 153.424H283.161V164.335H277.131V134.475H286.749C289.771 134.475 292.102 135.261 293.743 136.834C295.397 138.392 296.224 140.614 296.224 143.499C296.224 147.463 294.782 150.239 291.897 151.825L297.126 164.047V164.335H290.646L286.155 153.424ZM283.161 148.4H286.585C287.788 148.4 288.691 148.003 289.292 147.21C289.894 146.404 290.195 145.331 290.195 143.991C290.195 140.997 289.026 139.5 286.688 139.5H283.161V148.4ZM319.409 160.951C318.247 162.209 316.819 163.159 315.123 163.801C313.442 164.43 311.596 164.745 309.586 164.745C306.154 164.745 303.488 163.685 301.588 161.566C299.688 159.433 298.71 156.336 298.655 152.276V146.903C298.655 142.788 299.551 139.623 301.342 137.408C303.147 135.179 305.772 134.065 309.217 134.065C312.457 134.065 314.898 134.865 316.538 136.464C318.193 138.064 319.15 140.573 319.409 143.991H313.544C313.38 142.09 312.984 140.798 312.355 140.115C311.726 139.418 310.741 139.069 309.402 139.069C307.775 139.069 306.592 139.664 305.854 140.853C305.115 142.043 304.733 143.936 304.705 146.534V151.948C304.705 154.668 305.109 156.651 305.915 157.895C306.736 159.126 308.075 159.741 309.935 159.741C311.124 159.741 312.088 159.501 312.826 159.023L313.36 158.654V153.178H309.135V148.626H319.409V160.951ZM343.435 152.091C343.435 156.097 342.485 159.208 340.585 161.422C338.698 163.637 336.073 164.745 332.71 164.745C329.36 164.745 326.728 163.651 324.814 161.463C322.9 159.262 321.93 156.186 321.902 152.235V147.128C321.902 143.027 322.852 139.828 324.753 137.531C326.653 135.22 329.292 134.065 332.669 134.065C335.991 134.065 338.609 135.2 340.523 137.469C342.437 139.725 343.408 142.897 343.435 146.985V152.091ZM337.386 147.087C337.386 144.394 337.003 142.391 336.237 141.079C335.472 139.766 334.282 139.11 332.669 139.11C331.069 139.11 329.887 139.746 329.121 141.017C328.355 142.275 327.959 144.196 327.932 146.78V152.091C327.932 154.703 328.321 156.63 329.101 157.875C329.88 159.105 331.083 159.72 332.71 159.72C334.282 159.72 335.451 159.119 336.217 157.916C336.982 156.699 337.372 154.819 337.386 152.276V147.087ZM354.603 147.887L359.094 134.475H365.657L357.659 153.506V164.335H351.548V153.506L343.529 134.475H350.091L354.603 147.887ZM373.174 159.331H383.756V164.335H367.145V134.475H373.174V159.331ZM401.404 151.415H392.012V159.331H403.127V164.335H385.983V134.475H403.086V139.5H392.012V146.554H401.404V151.415Z" fill="black"/>
<path d="M78.9128 186.484H53.8728V182.392L66.6389 165.473C68.5666 162.869 69.8996 160.736 70.6379 159.075C71.3967 157.393 71.7761 155.619 71.7761 153.753C71.7761 151.374 71.2224 149.446 70.115 147.97C69.0075 146.493 67.5515 145.755 65.7468 145.755C63.4704 145.755 61.7068 146.545 60.4558 148.124C59.2253 149.682 58.6101 151.938 58.6101 154.891H53.1653C53.1653 150.769 54.2932 147.437 56.549 144.894C58.8049 142.351 61.8708 141.079 65.7468 141.079C69.3152 141.079 72.1247 142.176 74.1755 144.371C76.2263 146.545 77.2517 149.446 77.2517 153.076C77.2517 157.506 74.9446 162.746 70.3303 168.796L60.3635 181.839H78.9128V186.484Z" fill="black"/>
<path d="M243.199 191.208H245.85V194.065H243.199V198.811H239.64V194.065H230.426L230.323 191.897L239.522 177.483H243.199V191.208ZM234.058 191.208H239.64V182.302L239.376 182.771L234.058 191.208ZM260.143 199.321L263.353 189.781L255.613 184.591H265.093L268.483 174.361L271.933 184.591H281.353L273.613 189.781L276.883 199.321L268.483 193.231L260.143 199.321ZM296.065 186.521H298.233C299.327 186.511 300.191 186.228 300.826 185.671C301.471 185.114 301.793 184.309 301.793 183.254C301.793 182.238 301.524 181.452 300.987 180.896C300.46 180.329 299.649 180.046 298.556 180.046C297.599 180.046 296.812 180.324 296.197 180.881C295.582 181.428 295.274 182.146 295.274 183.034H291.715C291.715 181.941 292.003 180.945 292.579 180.046C293.165 179.148 293.975 178.449 295.011 177.951C296.056 177.444 297.223 177.19 298.512 177.19C300.641 177.19 302.31 177.727 303.521 178.801C304.742 179.865 305.352 181.35 305.352 183.254C305.352 184.211 305.045 185.114 304.43 185.964C303.824 186.804 303.038 187.439 302.071 187.868C303.243 188.269 304.132 188.899 304.737 189.758C305.352 190.617 305.66 191.643 305.66 192.834C305.66 194.748 305.001 196.272 303.682 197.405C302.374 198.537 300.65 199.104 298.512 199.104C296.461 199.104 294.781 198.557 293.473 197.463C292.164 196.369 291.51 194.914 291.51 193.098H295.069C295.069 194.035 295.382 194.797 296.007 195.383C296.641 195.969 297.491 196.262 298.556 196.262C299.659 196.262 300.528 195.969 301.163 195.383C301.798 194.797 302.115 193.947 302.115 192.834C302.115 191.711 301.783 190.847 301.119 190.241C300.455 189.636 299.469 189.333 298.16 189.333H296.065V186.521Z" fill="black"/>
<path d="M145.065 199.393H133.334C133.334 197.548 133.998 193.86 136.654 193.86C139.974 193.86 140.196 195.852 142.298 194.966C143.98 194.258 143.442 192.237 142.962 191.314C139.753 189.839 133.334 186.6 133.334 185.449C133.334 184.01 132.56 178.145 139.2 178.698C144.512 179.141 147.684 182.646 148.606 184.342L149.381 193.86L145.84 194.966L145.065 199.393Z" fill="black"/>
<path d="M172.464 199.393H184.195C184.195 197.548 183.531 193.86 180.875 193.86C177.555 193.86 177.334 195.852 175.231 194.966C173.549 194.258 174.088 192.237 174.567 191.314C177.776 189.839 184.195 186.6 184.195 185.449C184.195 184.01 184.97 178.145 178.33 178.698C173.018 179.141 169.845 182.646 168.923 184.342L168.148 193.86L171.69 194.966L172.464 199.393Z" fill="black"/>
<path d="M156.685 200.61H147.5V196.848L151.594 195.741L152.701 182.35L149.381 178.698L144.29 174.161L145.065 168.296L148.606 162.209C148.606 164.681 148.761 169.801 149.381 170.509C150.156 171.395 151.926 173.165 152.701 173.497C153.32 173.763 154.213 175.305 154.582 176.043V178.698L162.329 179.252V174.825L166.866 172.612V162.209L168.923 163.759C169.639 165.972 171.195 170.576 171.69 171.284C172.185 171.992 170.052 175.711 168.923 177.481L164.653 184.342V195.741L166.866 196.848L168.923 200.61H159.783L158.898 188.437H157.57L156.685 200.61Z" fill="black"/>
<path d="M153.443 167.954L151.531 165.965L154.17 164.818L153.443 162.027L150.805 161.033L150.346 152.964L153.864 158.968H160.747L164.188 154.723L164.653 161.033L161.244 161.568V165.048L163.768 165.736L161.512 167.954L160.173 174.161H155.852L153.443 167.954Z" fill="black"/>
<path d="M143.042 162.209C143.012 161.897 139.486 159.153 137.727 157.821C137.829 155.819 137.972 150.853 137.727 146.999C137.422 142.181 140.901 136.904 145.069 135.986C148.403 135.252 150.766 140.473 151.531 143.175C151.659 141.556 151.837 137.715 151.531 135.298C151.15 132.277 146.942 130.901 143.425 130.671C139.907 130.442 136.847 133.96 136.007 135.795C135.334 137.263 125.682 142.5 120.94 144.934C117.167 146.247 109.728 152.757 110.157 168.296C110.585 183.835 118.671 190.246 122.661 191.509C120.43 187.366 115.969 178.232 115.969 174.837C115.969 170.592 116.046 165.354 120.29 164.818C123.686 164.39 124.917 170.426 125.108 173.497C126.459 170.094 129.567 163.281 131.188 163.25C132.81 163.22 135.076 164.64 136.007 165.354C136.198 166.705 136.588 169.537 136.618 170.057C136.649 170.577 139.818 172.313 141.398 173.116C141.946 171.013 143.119 166.753 143.425 166.539C143.807 166.271 143.081 162.6 143.042 162.209Z" fill="black"/>
<path d="M173.23 165.965L175.231 172.247L179.605 172.612C180.028 170.014 181.74 164.818 185.199 164.818C188.658 164.818 190.197 170.604 190.533 173.497C191.401 170.783 193.539 165.354 195.152 165.354C197.168 165.354 197.754 165.048 201.137 172.247C203.843 178.006 199.055 187.942 196.323 192.191C198.491 189.943 203.205 184.829 204.714 182.35C206.601 179.252 205.95 174.825 206.211 167.211C206.471 159.597 200.746 148.932 196.973 145.939C193.2 142.947 187.02 139.694 182.987 139.239C178.954 138.784 176.354 130.262 172.254 130.067C168.974 129.911 168.667 132.127 168.923 133.254C168.104 133.623 166.191 134.685 165.098 135.986C164.005 137.287 165.821 141.321 166.866 143.175C167.187 141.364 168.312 137.639 170.237 137.222C172.644 136.702 172.895 141.776 174.401 143.175C175.906 144.574 178.553 152.223 178.67 154.723C178.764 156.724 177.165 159.763 176.354 161.033C175.436 161.731 173.458 163.129 172.895 163.129C172.332 163.129 173.397 164.829 173.23 165.965Z" fill="black"/>
<path d="M250.202 258.078C250.052 261.482 249.095 264.06 247.331 265.81C245.567 267.56 243.079 268.435 239.866 268.435C236.489 268.435 233.898 267.327 232.094 265.112C230.303 262.884 229.407 259.712 229.407 255.597V250.572C229.407 246.471 230.337 243.313 232.196 241.098C234.056 238.869 236.64 237.755 239.948 237.755C243.202 237.755 245.67 238.664 247.351 240.482C249.047 242.301 250.011 244.912 250.243 248.316H244.193C244.139 246.211 243.81 244.762 243.209 243.969C242.621 243.162 241.534 242.759 239.948 242.759C238.335 242.759 237.193 243.326 236.523 244.461C235.853 245.582 235.498 247.435 235.457 250.019V255.658C235.457 258.625 235.785 260.662 236.441 261.77C237.111 262.877 238.253 263.431 239.866 263.431C241.452 263.431 242.546 263.048 243.147 262.282C243.749 261.503 244.091 260.102 244.173 258.078H250.202ZM261.657 251.577L266.148 238.165H272.711L264.713 257.196V268.024H258.601V257.196L250.583 238.165H257.145L261.657 251.577ZM293.825 258.078C293.674 261.482 292.717 264.06 290.954 265.81C289.19 267.56 286.702 268.435 283.489 268.435C280.112 268.435 277.521 267.327 275.716 265.112C273.925 262.884 273.03 259.712 273.03 255.597V250.572C273.03 246.471 273.959 243.313 275.819 241.098C277.678 238.869 280.262 237.755 283.571 237.755C286.825 237.755 289.292 238.664 290.974 240.482C292.669 242.301 293.633 244.912 293.866 248.316H287.816C287.761 246.211 287.433 244.762 286.831 243.969C286.244 243.162 285.157 242.759 283.571 242.759C281.957 242.759 280.816 243.326 280.146 244.461C279.476 245.582 279.121 247.435 279.079 250.019V255.658C279.079 258.625 279.408 260.662 280.064 261.77C280.734 262.877 281.875 263.431 283.489 263.431C285.075 263.431 286.168 263.048 286.77 262.282C287.371 261.503 287.713 260.102 287.795 258.078H293.825ZM302.306 263.021H312.888V268.024H296.277V238.165H302.306V263.021ZM334.822 255.781C334.822 259.787 333.872 262.898 331.972 265.112C330.085 267.327 327.46 268.435 324.097 268.435C320.747 268.435 318.115 267.341 316.201 265.153C314.287 262.952 313.316 259.876 313.289 255.925V250.818C313.289 246.717 314.239 243.518 316.14 241.221C318.04 238.91 320.679 237.755 324.056 237.755C327.378 237.755 329.996 238.89 331.91 241.159C333.824 243.415 334.795 246.587 334.822 250.675V255.781ZM328.772 250.777C328.772 248.084 328.39 246.081 327.624 244.769C326.858 243.456 325.669 242.8 324.056 242.8C322.456 242.8 321.273 243.436 320.508 244.707C319.742 245.965 319.346 247.886 319.318 250.47V255.781C319.318 258.393 319.708 260.32 320.487 261.564C321.267 262.795 322.47 263.41 324.097 263.41C325.669 263.41 326.838 262.809 327.603 261.606C328.369 260.389 328.759 258.509 328.772 255.966V250.777ZM343.919 257.524V268.024H337.889V238.165H348.061C351.014 238.165 353.366 239.081 355.116 240.913C356.88 242.745 357.761 245.124 357.761 248.05C357.761 250.976 356.893 253.286 355.157 254.981C353.421 256.677 351.014 257.524 347.938 257.524H343.919ZM343.919 252.5H348.061C349.21 252.5 350.098 252.124 350.727 251.372C351.356 250.62 351.671 249.526 351.671 248.091C351.671 246.601 351.349 245.418 350.707 244.543C350.064 243.654 349.203 243.203 348.123 243.189H343.919V252.5ZM373.154 260.19C373.154 258.974 372.839 258.058 372.21 257.442C371.595 256.814 370.467 256.164 368.827 255.494C365.832 254.359 363.679 253.033 362.367 251.516C361.054 249.984 360.398 248.18 360.398 246.102C360.398 243.586 361.287 241.569 363.064 240.052C364.855 238.521 367.124 237.755 369.872 237.755C371.705 237.755 373.338 238.145 374.774 238.924C376.209 239.689 377.31 240.776 378.076 242.185C378.855 243.593 379.245 245.192 379.245 246.983H373.236C373.236 245.589 372.935 244.529 372.333 243.805C371.746 243.066 370.891 242.697 369.77 242.697C368.717 242.697 367.897 243.012 367.309 243.641C366.721 244.256 366.427 245.09 366.427 246.143C366.427 246.963 366.755 247.708 367.412 248.378C368.068 249.034 369.23 249.718 370.898 250.429C373.81 251.481 375.922 252.773 377.235 254.305C378.561 255.836 379.224 257.784 379.224 260.149C379.224 262.747 378.397 264.777 376.743 266.24C375.088 267.703 372.839 268.435 369.996 268.435C368.068 268.435 366.311 268.038 364.725 267.245C363.139 266.452 361.895 265.317 360.993 263.841C360.104 262.364 359.66 260.621 359.66 258.611H365.709C365.709 260.334 366.044 261.585 366.714 262.364C367.384 263.144 368.478 263.533 369.996 263.533C372.101 263.533 373.154 262.419 373.154 260.19Z" fill="black"/>
<path d="M78.9128 290.174H53.8728V286.082L66.6389 269.163C68.5666 266.559 69.8996 264.426 70.6379 262.765C71.3967 261.083 71.7761 259.309 71.7761 257.443C71.7761 255.064 71.2224 253.136 70.115 251.66C69.0075 250.183 67.5515 249.445 65.7468 249.445C63.4704 249.445 61.7068 250.235 60.4558 251.814C59.2253 253.372 58.6101 255.628 58.6101 258.581H53.1653C53.1653 254.459 54.2932 251.127 56.549 248.584C58.8049 246.041 61.8708 244.769 65.7468 244.769C69.3152 244.769 72.1247 245.866 74.1755 248.061C76.2263 250.235 77.2517 253.136 77.2517 256.766C77.2517 261.196 74.9446 266.436 70.3303 272.486L60.3635 285.528H78.9128V290.174Z" fill="black"/>
<path d="M241.251 293.58C240.059 294.84 238.668 295.469 237.076 295.469C235.201 295.469 233.707 294.815 232.594 293.507C231.48 292.188 230.924 290.46 230.924 288.321C230.924 286.915 231.207 285.64 231.773 284.498C232.34 283.355 233.145 282.467 234.19 281.832C235.235 281.197 236.446 280.88 237.823 280.88C239.972 280.88 241.676 281.68 242.935 283.282C244.195 284.884 244.825 287.027 244.825 289.713V290.709C244.825 294.556 243.956 297.491 242.218 299.512C240.479 301.534 237.887 302.559 234.439 302.589H234.015V299.644H234.527C236.627 299.615 238.238 299.112 239.361 298.135C240.484 297.149 241.114 295.631 241.251 293.58ZM237.823 292.686C238.536 292.686 239.205 292.481 239.83 292.071C240.455 291.661 240.938 291.094 241.28 290.372V288.98C241.28 287.408 240.958 286.143 240.313 285.186C239.669 284.229 238.834 283.751 237.808 283.751C236.783 283.751 235.963 284.176 235.348 285.025C234.742 285.865 234.439 286.929 234.439 288.218C234.439 289.556 234.747 290.635 235.362 291.456C235.977 292.276 236.798 292.686 237.823 292.686ZM272.306 290.987C272.306 292.706 271.842 294.112 270.914 295.206C269.986 296.29 268.829 296.832 267.442 296.832C266.72 296.832 266.051 296.695 265.435 296.422C264.83 296.148 264.151 295.679 263.399 295.015C262.647 294.342 262.105 293.926 261.773 293.77C261.451 293.604 261.104 293.521 260.733 293.521C260.079 293.521 259.561 293.775 259.181 294.283C258.809 294.791 258.624 295.455 258.624 296.275H255.797C255.797 294.605 256.241 293.238 257.13 292.174C258.018 291.099 259.185 290.562 260.631 290.562C261.353 290.562 262.037 290.709 262.682 291.002C263.336 291.285 264.015 291.749 264.718 292.393C265.431 293.038 265.948 293.443 266.27 293.609C266.602 293.775 266.959 293.858 267.34 293.858C267.994 293.858 268.526 293.585 268.936 293.038C269.347 292.491 269.552 291.807 269.552 290.987H272.306ZM297.442 302.501H283.101V300.054L290.206 292.305C291.231 291.163 291.959 290.211 292.389 289.449C292.828 288.677 293.048 287.906 293.048 287.135C293.048 286.119 292.76 285.299 292.183 284.674C291.617 284.049 290.85 283.736 289.884 283.736C288.731 283.736 287.838 284.088 287.203 284.791C286.568 285.494 286.251 286.456 286.251 287.676H282.691C282.691 286.378 282.984 285.211 283.57 284.176C284.166 283.131 285.011 282.32 286.104 281.744C287.208 281.168 288.477 280.88 289.913 280.88C291.983 280.88 293.614 281.402 294.806 282.447C296.007 283.482 296.607 284.918 296.607 286.754C296.607 287.818 296.305 288.936 295.699 290.108C295.103 291.27 294.122 292.593 292.755 294.078L287.54 299.659H297.442V302.501Z" fill="black"/>
<path fill-rule="evenodd" clip-rule="evenodd" d="M117.152 291.47C114.363 286.828 114.692 282.115 115.205 280.34L122.381 289.282L125.662 290.804V283.86L121.561 278.532C120.98 278.374 119.448 278.056 117.972 278.056C117.15 278.056 116.776 277.792 116.396 277.525C115.923 277.191 115.441 276.852 114.076 277.01C112.618 277.179 112.888 276.146 113.115 275.275C113.272 274.677 113.408 274.156 112.948 274.156C112.481 274.156 112.489 273.715 112.498 273.193C112.511 272.453 112.527 271.548 111.205 271.492C108.949 271.397 109.565 268.829 110.59 266.831C111.411 265.233 112.504 264.262 112.948 263.977L110.59 259.601L114.076 256.556L117.152 261.123C117.482 261.818 118.493 263.977 119.617 265.546C120.741 267.114 118.409 262.235 117.819 261.296C117.229 260.358 123.745 251.136 124.124 250.278C124.862 248.603 126.739 247.787 128.038 247.977C129.576 248.389 132.496 250.394 132.626 250.017C132.903 249.208 129.254 248.215 128.338 247.328C127.422 246.442 130.481 243.234 130.481 242.572C130.481 240.384 138.273 236.198 141.247 235.437C143.625 234.828 147.638 232.963 149.346 232.107C149.757 230.395 152.648 226.97 160.932 226.97C169.217 226.97 170.468 232.614 170.058 235.437C171.835 236.642 175.697 239.28 176.927 240.193C178.158 241.107 177.44 245.331 176.927 247.328C177.269 247.614 178.506 248.394 180.721 249.231C182.935 250.068 182.327 253.195 181.746 254.654C182.327 254.4 183.94 253.893 185.745 253.893C187.549 253.893 189.573 255.668 190.359 256.556C190.7 256.208 191.671 255.186 192.819 253.893C193.968 252.599 195.007 252.719 195.383 252.941V244.094H190.769L191.999 239.718L187.693 237.91L187.283 235.437H189.949C190.188 233.439 190.687 229.348 190.769 228.968C190.806 228.796 191.417 228.674 192.183 228.521C193.54 228.25 195.383 227.882 195.383 226.97C195.383 225.828 196.681 224.782 197.331 224.401L198.561 227.731L203.072 228.397C203.38 229.602 203.995 232.316 203.995 233.534C203.995 234.752 205.431 234.041 206.148 233.534V237.91H203.995L204.713 242.572L199.996 244.76V254.654C201.329 255.288 203.995 256.823 203.995 257.888V260.267C204.474 260.679 205.451 261.808 205.533 263.025C205.615 264.243 203.927 264.738 203.072 264.833C203.38 265.499 203.811 267.059 203.072 267.972C202.334 268.886 200.236 268.353 199.279 267.972V274.156H195.383V268.829C194.802 269.209 193.312 269.742 191.999 268.829C190.687 267.915 189.47 267.116 189.026 266.831C188.376 266.64 186.565 266.602 184.514 267.972C181.951 269.685 178.055 267.116 176.004 263.977C174.364 261.465 170.81 257.983 169.237 256.556C169.237 257.92 168.786 261.313 166.982 263.977C165.177 266.64 164.794 265.657 164.829 264.833C164.589 265.721 164.111 267.991 164.111 269.97C164.111 271.584 166.292 273.561 168.293 275.375C169.359 276.342 170.374 277.263 170.98 278.056C172.723 280.34 174.877 283.194 174.774 289.282C174.707 293.291 172.328 295.114 170.71 296.353C169.871 296.996 169.237 297.482 169.237 298.034C169.237 299.652 170.775 302.601 172.313 303.362C172.568 303.488 172.854 303.606 173.155 303.731C174.673 304.359 176.585 305.15 176.927 307.928C177.255 310.592 174.535 310.18 173.134 309.641C172.347 309.894 170.468 310.383 169.237 310.307C168.007 310.231 167.221 309.831 166.982 309.641C166.469 310.497 165.177 312.343 164.111 312.875C162.989 313.436 160.85 311.233 159.223 309.558C158.917 309.242 158.629 308.946 158.369 308.689C157.057 307.396 157.822 304.599 158.369 303.362C156.831 303.521 153.489 303.476 152.422 302.03C151.41 300.657 153.534 299.009 154.883 297.962C155.309 297.632 155.658 297.361 155.806 297.178C156.421 296.417 158.369 292.422 159.087 290.804C159.805 289.187 159.087 287.57 158.369 286.238C157.795 285.172 158.608 281.862 159.087 280.34C158.096 280.815 155.478 281.691 152.935 281.386C150.687 281.117 149.716 279.192 149.427 277.939C149.881 280.457 150.856 285.021 151.705 286.238C152.319 287.119 151.747 288.424 151.198 289.675C150.739 290.72 150.297 291.729 150.577 292.422C150.803 292.982 151.113 293.375 151.414 293.756C151.931 294.412 152.422 295.034 152.422 296.417C152.422 298.605 151.192 299.366 150.577 299.747C150.136 300.02 149.536 302.005 149.119 303.387C148.955 303.932 148.818 304.383 148.731 304.599C148.424 305.36 150.064 306.311 152.935 306.026C155.752 305.746 155.41 309.222 155.202 311.329L155.191 311.448C155.058 312.804 150.019 312.283 145.594 311.826C143.19 311.578 140.966 311.348 139.811 311.448C136.53 311.734 130.481 308.88 129.763 307.928C129.272 307.277 130.703 306.135 131.983 305.114C132.573 304.643 133.131 304.198 133.454 303.838C134.275 302.924 134.411 299.018 134.377 297.178C135.676 297.02 138.745 295.656 140.631 291.47C142.518 287.284 139.025 284.208 137.043 283.194C136.838 280.53 136.325 274.993 135.915 274.156C135.505 273.319 135.061 262.074 134.89 256.556C134.035 257.064 132.142 258.25 131.404 258.935C130.737 259.553 129.266 262.707 128.038 265.342C127.567 266.352 127.131 267.287 126.79 267.972C125.806 269.951 127.2 272.919 128.02 274.156L124.842 275.202L129.763 282.528C130.857 282.242 133.618 282.356 135.915 285.096C138.786 288.521 137.658 292.992 135.915 294.229C134.521 295.219 131.711 295.085 130.481 294.895L124.124 301.174C122.962 299.874 119.941 296.113 117.152 291.47ZM160.932 236.467C165.113 236.335 166.161 234.297 166.161 234.198C166.161 234.12 161.705 233.565 162.015 233.804C162.325 234.043 161.842 235.438 160.822 235.438C159.801 235.438 159.404 234.421 159.56 233.804C159.716 233.187 154.519 234.198 154.519 234.198C154.519 234.198 156.752 236.598 160.932 236.467ZM165.753 240.633C163.915 239.978 159.523 241.007 158.239 241.109C156.956 241.211 155.516 241.759 155.516 241.759C155.516 241.759 163.774 241.109 165.011 241.759C166.248 242.409 166.161 243.238 166.161 243.238C166.161 243.238 167.59 241.288 165.753 240.633ZM146.625 257.099H157.809L158.593 255.237L159.087 257.099L167.751 257.366L166.161 256.556C164.285 256.745 160.457 257.009 160.151 256.556C159.845 256.104 158.749 252.182 158.239 250.278L156.806 256.124L146.625 257.099ZM156.445 267.972L150.399 267.562L155.969 267.086L156.806 265.998L158.021 267.086L162.858 267.562L157.361 267.972L157.141 267.086L156.445 267.972Z" fill="black"/>
<path d="M250.264 368.331C249.101 369.588 247.673 370.539 245.977 371.181C244.296 371.81 242.45 372.125 240.44 372.125C237.009 372.125 234.343 371.065 232.442 368.946C230.542 366.813 229.564 363.716 229.51 359.656V354.283C229.51 350.168 230.405 347.003 232.196 344.788C234.001 342.559 236.626 341.445 240.071 341.445C243.311 341.445 245.752 342.245 247.392 343.844C249.047 345.444 250.004 347.953 250.264 351.371H244.398C244.234 349.47 243.838 348.178 243.209 347.495C242.58 346.797 241.596 346.449 240.256 346.449C238.629 346.449 237.446 347.044 236.708 348.233C235.97 349.422 235.587 351.316 235.559 353.914V359.328C235.559 362.048 235.963 364.031 236.769 365.275C237.59 366.505 238.93 367.121 240.789 367.121C241.978 367.121 242.942 366.881 243.681 366.403L244.214 366.034V360.558H239.989V356.005H250.264V368.331ZM274.29 359.471C274.29 363.477 273.339 366.587 271.439 368.802C269.552 371.017 266.927 372.125 263.564 372.125C260.214 372.125 257.583 371.031 255.669 368.843C253.755 366.642 252.784 363.566 252.756 359.615V354.508C252.756 350.407 253.707 347.208 255.607 344.911C257.507 342.6 260.146 341.445 263.523 341.445C266.845 341.445 269.464 342.58 271.378 344.849C273.292 347.105 274.262 350.277 274.29 354.365V359.471ZM268.24 354.467C268.24 351.774 267.857 349.771 267.091 348.459C266.326 347.146 265.136 346.49 263.523 346.49C261.923 346.49 260.741 347.126 259.975 348.397C259.21 349.655 258.813 351.576 258.786 354.16V359.471C258.786 362.083 259.175 364.01 259.955 365.254C260.734 366.485 261.937 367.1 263.564 367.1C265.136 367.1 266.305 366.499 267.071 365.295C267.837 364.079 268.226 362.199 268.24 359.656V354.467ZM286.401 360.804H283.407V371.714H277.377V341.855H286.996C290.017 341.855 292.348 342.641 293.989 344.213C295.643 345.772 296.47 347.994 296.47 350.878C296.47 354.843 295.028 357.619 292.143 359.205L297.372 371.427V371.714H290.892L286.401 360.804ZM283.407 355.78H286.831C288.035 355.78 288.937 355.383 289.538 354.59C290.14 353.784 290.441 352.711 290.441 351.371C290.441 348.377 289.272 346.879 286.934 346.879H283.407V355.78ZM319.655 368.331C318.493 369.588 317.065 370.539 315.369 371.181C313.688 371.81 311.842 372.125 309.832 372.125C306.401 372.125 303.735 371.065 301.834 368.946C299.934 366.813 298.956 363.716 298.902 359.656V354.283C298.902 350.168 299.797 347.003 301.588 344.788C303.393 342.559 306.018 341.445 309.463 341.445C312.703 341.445 315.144 342.245 316.784 343.844C318.439 345.444 319.396 347.953 319.655 351.371H313.79C313.626 349.47 313.23 348.178 312.601 347.495C311.972 346.797 310.987 346.449 309.648 346.449C308.021 346.449 306.838 347.044 306.1 348.233C305.361 349.422 304.979 351.316 304.951 353.914V359.328C304.951 362.048 305.355 364.031 306.161 365.275C306.982 366.505 308.321 367.121 310.181 367.121C311.37 367.121 312.334 366.881 313.072 366.403L313.606 366.034V360.558H309.381V356.005H319.655V368.331ZM343.682 359.471C343.682 363.477 342.731 366.587 340.831 368.802C338.944 371.017 336.319 372.125 332.956 372.125C329.606 372.125 326.975 371.031 325.06 368.843C323.146 366.642 322.176 363.566 322.148 359.615V354.508C322.148 350.407 323.099 347.208 324.999 344.911C326.899 342.6 329.538 341.445 332.915 341.445C336.237 341.445 338.855 342.58 340.769 344.849C342.684 347.105 343.654 350.277 343.682 354.365V359.471ZM337.632 354.467C337.632 351.774 337.249 349.771 336.483 348.459C335.718 347.146 334.528 346.49 332.915 346.49C331.315 346.49 330.133 347.126 329.367 348.397C328.601 349.655 328.205 351.576 328.178 354.16V359.471C328.178 362.083 328.567 364.01 329.347 365.254C330.126 366.485 331.329 367.1 332.956 367.1C334.528 367.1 335.697 366.499 336.463 365.295C337.228 364.079 337.618 362.199 337.632 359.656V354.467ZM367.626 371.714H361.596L352.778 352.129V371.714H346.749V341.855H352.778L361.617 361.461V341.855H367.626V371.714Z" fill="black"/>
<path d="M242.232 384.76V387.704H241.793C239.801 387.734 238.209 388.281 237.017 389.345C235.826 390.409 235.118 391.918 234.893 393.871C236.036 392.67 237.496 392.07 239.273 392.07C241.158 392.07 242.642 392.734 243.726 394.062C244.82 395.39 245.367 397.104 245.367 399.203C245.367 401.371 244.727 403.129 243.448 404.477C242.179 405.815 240.509 406.484 238.438 406.484C236.309 406.484 234.581 405.698 233.253 404.125C231.934 402.553 231.275 400.492 231.275 397.944V396.728C231.275 392.988 232.183 390.058 234 387.939C235.826 385.82 238.448 384.76 241.866 384.76H242.232ZM238.409 394.941C237.628 394.941 236.91 395.16 236.256 395.6C235.611 396.039 235.138 396.625 234.835 397.358V398.442C234.835 400.024 235.167 401.283 235.831 402.221C236.495 403.149 237.354 403.613 238.409 403.613C239.464 403.613 240.299 403.217 240.914 402.426C241.529 401.635 241.837 400.595 241.837 399.306C241.837 398.017 241.524 396.967 240.899 396.156C240.274 395.346 239.444 394.941 238.409 394.941ZM256.213 410.391C256.013 410.391 255.913 410.291 255.913 410.091C255.913 409.991 255.933 409.931 255.973 409.911L266.383 398.571L255.793 395.451C255.673 395.411 255.613 395.321 255.613 395.181C255.613 395.041 255.653 394.961 255.733 394.941L279.403 380.481C279.443 380.461 279.493 380.451 279.553 380.451C279.613 380.451 279.673 380.471 279.733 380.511C279.813 380.551 279.853 380.621 279.853 380.721C279.853 380.801 279.823 380.871 279.763 380.931L269.383 392.241L280.003 394.911C280.143 394.951 280.213 395.021 280.213 395.121C280.213 395.261 280.163 395.361 280.063 395.421L256.363 410.331C256.323 410.371 256.273 410.391 256.213 410.391ZM295.27 406.701L298.48 397.161L290.74 391.971H300.22L303.61 381.741L307.06 391.971H316.48L308.74 397.161L312.01 406.701L303.61 400.611L295.27 406.701ZM331.192 393.901H333.36C334.454 393.891 335.318 393.608 335.953 393.051C336.598 392.494 336.92 391.689 336.92 390.634C336.92 389.618 336.651 388.832 336.114 388.276C335.587 387.709 334.776 387.426 333.682 387.426C332.725 387.426 331.939 387.704 331.324 388.261C330.709 388.808 330.401 389.526 330.401 390.414H326.842C326.842 389.321 327.13 388.324 327.706 387.426C328.292 386.528 329.102 385.829 330.138 385.331C331.182 384.823 332.349 384.57 333.639 384.57C335.767 384.57 337.437 385.107 338.648 386.181C339.869 387.245 340.479 388.73 340.479 390.634C340.479 391.591 340.172 392.494 339.557 393.344C338.951 394.184 338.165 394.819 337.198 395.248C338.37 395.649 339.259 396.279 339.864 397.138C340.479 397.997 340.787 399.023 340.787 400.214C340.787 402.128 340.128 403.652 338.809 404.784C337.501 405.917 335.777 406.484 333.639 406.484C331.588 406.484 329.908 405.937 328.599 404.843C327.291 403.749 326.637 402.294 326.637 400.478H330.196C330.196 401.415 330.509 402.177 331.134 402.763C331.768 403.349 332.618 403.642 333.682 403.642C334.786 403.642 335.655 403.349 336.29 402.763C336.925 402.177 337.242 401.327 337.242 400.214C337.242 399.091 336.91 398.227 336.246 397.621C335.582 397.016 334.596 396.713 333.287 396.713H331.192V393.901Z" fill="black"/>
<path d="M143.926 403.276H135.151L136.269 394.701L139.969 391.332L145.302 390.964L139.969 396.094L142.722 398.659L143.926 403.276Z" fill="black"/>
<path d="M164.336 354.541C163.926 355.22 163.468 360.704 163.559 361.293L170.954 362.039L177.866 363.091C177.866 363.091 176.259 358.737 177.866 355.914C179.474 353.091 184.468 351.805 184.468 351.805H188.069L191.944 358.474L190.986 349.912L187.249 347.33L179.286 345.475V351.307L171.945 347.552C171.112 348.072 168.529 348.722 166.881 350.266C165.222 351.82 164.501 354.268 164.336 354.541Z" fill="black"/>
<path d="M186.793 398.929L181.141 395.44L181.825 398.659L180.549 399.835L180.184 403.276H188.115L186.793 398.929Z" fill="black"/>
<path fill-rule="evenodd" clip-rule="evenodd" d="M110.804 363.813L118.806 351.805L135.151 343.768L146.851 340.348H165.776L174.895 341.716L178.336 345.307V350.266L171.798 346.675L165.776 348.727L162.507 354.541V361.894L170.594 363.091C172.945 363.034 178.439 363.33 181.605 364.972C184.771 366.614 188.889 370.558 190.552 372.325L194.165 379.165L194.925 382.243C194.925 382.243 195.638 383.782 199.5 383.782C203.362 383.782 207.069 379.165 207.069 379.165C207.069 379.165 206.142 384.207 203.362 385.157C200.581 386.107 190.986 386.86 190.986 386.86L191.693 389.915L192.832 387.605L194.925 386.86L196.058 397.633H188.315L181.605 389.425V383.782L175.755 386.86V390.964H178.336L179.196 398.659L171.798 403.96L170.594 398.659L174.895 396.094L173.347 394.042L165.776 392.674V388.57H139.969L130.162 396.094L128.269 402.25H121.215V396.094L128.269 391.819L130.162 384.808L135.151 382.243V377.284L128.269 380.875L120.355 386.86H112.784C111.523 384.751 109.206 380.396 110.032 379.849C111.064 379.165 112.784 374.377 112.784 373.351C112.784 372.53 116.111 369.589 117.774 368.221H134.119L122.075 375.061L117.774 372.325L114.849 377.284L113.817 382.243H120.355L130.162 375.061L137.732 369.76H149.948L148.743 366.34L139.969 367.195L143.926 361.894L141.861 357.79L135.151 358.474L128.269 363.091L135.151 354.541L130.162 351.805L121.215 356.422L110.804 363.813ZM150.329 382.892C150.11 382.892 146.166 381.08 144.221 380.174C144.859 381.533 146.218 384.305 146.546 384.523C146.956 384.794 151.377 385.157 152.152 385.157C152.772 385.157 159.855 382.499 163.319 381.17C161.268 381.638 157.056 382.638 156.619 382.892C156.16 383.158 152.235 382.977 150.822 382.912C150.551 382.9 150.373 382.892 150.329 382.892Z" fill="black"/>
<defs>
<linearGradient id="paint0_linear" x1="230.207" y1="0.0144501" x2="230.207" y2="469.595" gradientUnits="userSpaceOnUse">
<stop stop-color="#B8C049"/>
<stop offset="1" stop-color="#5B8639"/>
</linearGradient>
</defs>
</svg>
