<svg width="463" height="470" viewBox="0 0 463 470" fill="none" xmlns="http://www.w3.org/2000/svg">
<rect x="0.802002" y="0.175537" width="461.629" height="469.581" rx="6" fill="url(#paint0_linear)"/>
<path d="M74.0842 88.915V46.2588H87.8245C91.594 46.2588 94.9827 47.1182 97.9905 48.8369C100.998 50.5361 103.342 52.9482 105.022 56.0732C106.721 59.1787 107.58 62.665 107.6 66.5322V68.4951C107.6 72.4014 106.77 75.9072 105.11 79.0127C103.469 82.0986 101.145 84.5205 98.137 86.2783C95.1487 88.0166 91.8088 88.8955 88.1174 88.915H74.0842ZM84.3674 54.1982V81.0049H87.9417C90.8909 81.0049 93.1565 79.96 94.7385 77.8701C96.3206 75.7607 97.1116 72.6357 97.1116 68.4951V66.6494C97.1116 62.5283 96.3206 59.4229 94.7385 57.333C93.1565 55.2432 90.8518 54.1982 87.8245 54.1982H84.3674ZM139.328 70.8389H123.156V81.0049H142.258V88.915H112.873V46.2588H142.317V54.1982H123.156V63.1924H139.328V70.8389ZM159.953 46.2588L169.475 75.9365L178.967 46.2588H192.502V88.915H182.19V78.9541L183.186 58.5635L172.873 88.915H166.076L155.735 58.5342L156.731 78.9541V88.915H146.448V46.2588H159.953ZM210.022 88.915H199.768V46.2588H210.022V88.915ZM227.453 81.0049H245.354V88.915H217.17V46.2588H227.453V81.0049ZM283.938 68.4658C283.938 72.626 283.166 76.3076 281.623 79.5107C280.08 82.7139 277.883 85.1846 275.031 86.9229C272.199 88.6416 268.967 89.501 265.334 89.501C261.701 89.501 258.479 88.6709 255.666 87.0107C252.854 85.3311 250.656 82.9385 249.074 79.833C247.512 76.7275 246.692 73.1631 246.614 69.1396V66.7373C246.614 62.5576 247.375 58.876 248.899 55.6924C250.442 52.4893 252.639 50.0186 255.49 48.2803C258.362 46.542 261.623 45.6729 265.276 45.6729C268.889 45.6729 272.112 46.5322 274.944 48.251C277.776 49.9697 279.973 52.4209 281.535 55.6045C283.117 58.7686 283.918 62.4014 283.938 66.5029V68.4658ZM273.479 66.6787C273.479 62.4404 272.766 59.2275 271.34 57.04C269.934 54.833 267.912 53.7295 265.276 53.7295C260.119 53.7295 257.395 57.5967 257.102 65.3311L257.073 68.4658C257.073 72.6455 257.766 75.8584 259.153 78.1045C260.539 80.3506 262.6 81.4736 265.334 81.4736C267.932 81.4736 269.934 80.3701 271.34 78.1631C272.746 75.9561 273.459 72.7822 273.479 68.6416V66.6787ZM305.09 73.8564H299.524V88.915H289.24V46.2588H306.028C311.086 46.2588 315.041 47.3818 317.893 49.6279C320.744 51.874 322.17 55.0479 322.17 59.1494C322.17 62.1182 321.565 64.5791 320.354 66.5322C319.162 68.4854 317.287 70.0674 314.729 71.2783L323.635 88.4756V88.915H312.619L305.09 73.8564ZM299.524 65.917H306.028C307.981 65.917 309.446 65.4092 310.422 64.3936C311.418 63.3584 311.916 61.9229 311.916 60.0869C311.916 58.251 311.418 56.8154 310.422 55.7803C309.426 54.7256 307.961 54.1982 306.028 54.1982H299.524V65.917ZM328.381 88.915V46.2588H342.121C345.891 46.2588 349.28 47.1182 352.287 48.8369C355.295 50.5361 357.639 52.9482 359.319 56.0732C361.018 59.1787 361.877 62.665 361.897 66.5322V68.4951C361.897 72.4014 361.067 75.9072 359.406 79.0127C357.766 82.0986 355.442 84.5205 352.434 86.2783C349.446 88.0166 346.106 88.8955 342.414 88.915H328.381ZM338.664 54.1982V81.0049H342.239C345.188 81.0049 347.453 79.96 349.035 77.8701C350.617 75.7607 351.408 72.6357 351.408 68.4951V66.6494C351.408 62.5283 350.617 59.4229 349.035 57.333C347.453 55.2432 345.149 54.1982 342.121 54.1982H338.664ZM389.172 77.5771C389.172 76.0732 388.635 74.9014 387.561 74.0615C386.506 73.2217 384.641 72.3525 381.965 71.4541C379.289 70.5557 377.102 69.6865 375.403 68.8467C369.875 66.1318 367.112 62.4014 367.112 57.6553C367.112 55.292 367.795 53.2119 369.162 51.415C370.549 49.5986 372.502 48.1924 375.022 47.1963C377.541 46.1807 380.373 45.6729 383.518 45.6729C386.584 45.6729 389.328 46.2197 391.75 47.3135C394.192 48.4072 396.086 49.9697 397.434 52.001C398.781 54.0127 399.455 56.3174 399.455 58.915H389.201C389.201 57.1768 388.664 55.8291 387.59 54.8721C386.535 53.915 385.1 53.4365 383.283 53.4365C381.448 53.4365 379.992 53.8467 378.918 54.667C377.864 55.4678 377.336 56.4932 377.336 57.7432C377.336 58.8369 377.922 59.833 379.094 60.7314C380.266 61.6104 382.326 62.5283 385.276 63.4854C388.225 64.4229 390.647 65.4385 392.541 66.5322C397.151 69.1885 399.455 72.8506 399.455 77.5186C399.455 81.249 398.049 84.1787 395.237 86.3076C392.424 88.4365 388.567 89.501 383.664 89.501C380.207 89.501 377.073 88.8857 374.26 87.6553C371.467 86.4053 369.358 84.7061 367.932 82.5576C366.526 80.3896 365.823 77.8994 365.823 75.0869H376.135C376.135 77.3721 376.721 79.0615 377.893 80.1553C379.084 81.2295 381.008 81.7666 383.664 81.7666C385.364 81.7666 386.701 81.4053 387.678 80.6826C388.674 79.9404 389.172 78.9053 389.172 77.5771Z" fill="black"/>
<path d="M256.274 168.802C255.112 170.06 253.683 171.01 251.988 171.653C250.306 172.282 248.46 172.596 246.451 172.596C243.019 172.596 240.353 171.536 238.453 169.417C236.552 167.285 235.575 164.188 235.52 160.127V154.754C235.52 150.639 236.415 147.474 238.206 145.259C240.011 143.031 242.636 141.916 246.081 141.916C249.322 141.916 251.762 142.716 253.403 144.316C255.057 145.915 256.014 148.424 256.274 151.842H250.409C250.245 149.942 249.848 148.65 249.219 147.966C248.59 147.269 247.606 146.92 246.266 146.92C244.639 146.92 243.456 147.515 242.718 148.704C241.98 149.894 241.597 151.787 241.57 154.385V159.799C241.57 162.52 241.973 164.502 242.78 165.746C243.6 166.977 244.94 167.592 246.799 167.592C247.989 167.592 248.953 167.353 249.691 166.874L250.224 166.505V161.03H245.999V156.477H256.274V168.802ZM273.532 166.075H265.309L263.709 172.186H257.331L266.662 142.327H272.179L281.571 172.186H275.132L273.532 166.075ZM266.621 161.05H272.199L269.41 150.407L266.621 161.05ZM302.173 142.327V162.998C302.145 166.102 301.291 168.481 299.609 170.135C297.928 171.776 295.515 172.596 292.37 172.596C289.171 172.596 286.724 171.762 285.028 170.094C283.347 168.426 282.506 166.013 282.506 162.855V142.327H288.576V162.875C288.576 164.571 288.85 165.781 289.396 166.505C289.943 167.23 290.934 167.592 292.37 167.592C293.806 167.592 294.79 167.237 295.323 166.526C295.856 165.801 296.13 164.619 296.143 162.978V142.327H302.173ZM314.53 161.276H311.536V172.186H305.507V142.327H315.125C318.146 142.327 320.477 143.113 322.118 144.685C323.772 146.244 324.599 148.465 324.599 151.35C324.599 155.315 323.157 158.09 320.272 159.676L325.502 171.899V172.186H319.021L314.53 161.276ZM311.536 156.251H314.961C316.164 156.251 317.066 155.855 317.668 155.062C318.269 154.255 318.57 153.182 318.57 151.842C318.57 148.848 317.401 147.351 315.063 147.351H311.536V156.251ZM327.482 172.186V142.327H335.377C338.864 142.327 341.639 143.434 343.704 145.649C345.782 147.864 346.841 150.899 346.882 154.754V159.594C346.882 163.518 345.843 166.601 343.765 168.843C341.701 171.072 338.85 172.186 335.213 172.186H327.482ZM333.511 147.351V167.182H335.316C337.326 167.182 338.741 166.656 339.561 165.603C340.381 164.536 340.812 162.704 340.853 160.107V154.918C340.853 152.129 340.463 150.188 339.684 149.094C338.905 147.987 337.579 147.406 335.705 147.351H333.511ZM356.266 172.186H350.236V142.327H356.266V172.186ZM374.693 166.075H366.47L364.87 172.186H358.492L367.823 142.327H373.34L382.732 172.186H376.293L374.693 166.075ZM367.782 161.05H373.36L370.571 150.407L367.782 161.05ZM405.159 172.186H399.13L390.311 152.601V172.186H384.282V142.327H390.311L399.15 161.932V142.327H405.159V172.186Z" fill="black"/>
<path d="M246.807 206.662H243.262V189.538L238.033 191.325V188.322L246.353 185.261H246.807V206.662ZM268.56 206.662H254.219V204.216L261.324 196.467C262.349 195.324 263.077 194.372 263.506 193.61C263.946 192.839 264.165 192.067 264.165 191.296C264.165 190.28 263.877 189.46 263.301 188.835C262.735 188.21 261.968 187.897 261.001 187.897C259.849 187.897 258.955 188.249 258.321 188.952C257.686 189.655 257.369 190.617 257.369 191.838H253.809C253.809 190.539 254.102 189.372 254.688 188.337C255.284 187.292 256.128 186.481 257.222 185.905C258.326 185.329 259.595 185.041 261.031 185.041C263.101 185.041 264.732 185.563 265.923 186.608C267.124 187.644 267.725 189.079 267.725 190.915C267.725 191.979 267.422 193.098 266.817 194.27C266.221 195.432 265.24 196.755 263.872 198.239L258.658 203.82H268.56V206.662ZM283.204 207.172L286.414 197.632L278.674 192.442H288.154L291.544 182.212L294.994 192.442H304.414L296.674 197.632L299.944 207.172L291.544 201.082L283.204 207.172ZM329.351 206.662H315.01V204.216L322.115 196.467C323.14 195.324 323.868 194.372 324.297 193.61C324.737 192.839 324.956 192.067 324.956 191.296C324.956 190.28 324.668 189.46 324.092 188.835C323.526 188.21 322.759 187.897 321.792 187.897C320.64 187.897 319.746 188.249 319.112 188.952C318.477 189.655 318.16 190.617 318.16 191.838H314.6C314.6 190.539 314.893 189.372 315.479 188.337C316.075 187.292 316.919 186.481 318.013 185.905C319.117 185.329 320.386 185.041 321.822 185.041C323.892 185.041 325.523 185.563 326.714 186.608C327.915 187.644 328.516 189.079 328.516 190.915C328.516 191.979 328.213 193.098 327.608 194.27C327.012 195.432 326.031 196.755 324.663 198.239L319.449 203.82H329.351V206.662Z" fill="black"/>
<path fill-rule="evenodd" clip-rule="evenodd" d="M170.981 152.06C172.893 152.839 173.76 153.192 176.48 151.428C179.32 149.586 181.129 147.373 182.572 145.608C183.816 144.086 184.787 142.898 185.912 142.567C187.46 142.112 189.358 142.237 191.64 142.388C192.938 142.473 194.361 142.567 195.915 142.567C200.203 142.567 202.203 143.568 201.918 144.425C201.689 145.111 200.774 147.093 200.346 147.998C201.965 148.141 205.49 148.598 206.634 149.284C208.063 150.141 209.778 154.286 210.349 155.715C210.921 157.144 211.492 161.574 211.35 162.86C211.235 163.889 209.873 165.862 209.206 166.719C210.111 167.481 211.978 169.206 212.207 170.006C212.4 170.682 212.332 172.205 212.268 173.651C212.237 174.346 212.207 175.023 212.207 175.579C212.207 175.775 212.209 175.961 212.211 176.142V176.143V176.144C212.225 177.546 212.235 178.606 211.35 181.01C211.028 181.882 210.781 182.858 210.536 183.823C210.018 185.862 209.512 187.854 208.348 188.727C206.977 189.756 203.49 191.728 201.918 192.586C202.489 190.442 202.975 186.412 200.346 187.441C198.3 188.241 197.749 190.536 197.211 192.775L197.211 192.775C196.885 194.134 196.563 195.472 195.915 196.444C194.201 199.016 190.771 202.017 189.913 200.446C189.056 198.874 185.912 199.016 185.912 199.731C185.912 200.303 183.244 201.97 181.91 202.732C181.958 200.636 181.767 196.444 180.624 196.444C179.787 196.444 178.165 197.817 176.822 198.955C175.872 199.759 175.061 200.446 174.765 200.446C174.05 200.446 169.906 201.875 168.191 202.732C167.972 202.841 167.733 202.969 167.476 203.106C165.72 204.044 163.165 205.408 161.046 204.161C160.145 203.631 159.068 203.22 158.032 202.824L158.032 202.824C156.274 202.151 154.636 201.525 154.186 200.446C153.614 199.074 152.138 197.206 151.471 196.444C151.518 196.778 150.413 197.673 145.611 198.588C141.537 199.364 140.887 197.045 140.308 194.984C140.035 194.009 139.777 193.091 139.18 192.586C137.322 191.014 134.893 191.871 135.893 194.158C136.894 196.444 136.179 197.73 133.607 197.444C132.107 197.278 131.287 196.382 130.241 195.24C129.493 194.423 128.63 193.479 127.319 192.586C124.175 190.442 124.175 187.727 124.318 185.154C124.379 184.046 123.486 183.76 122.483 183.439C121.158 183.015 119.643 182.531 119.887 180.01C120.316 175.579 122.889 172.864 124.318 171.435C125.746 170.006 123.317 167.148 119.887 170.006C116.457 172.864 116.029 170.578 116.029 165.719C116.029 161.832 118.601 157.43 119.887 155.715C119.744 155.429 119.316 154.171 118.744 151.428C118.512 150.312 118.083 149.575 117.762 149.023C117.097 147.879 116.898 147.537 119.887 146.283C121.421 145.64 122.372 144.997 123.209 144.431C124.791 143.362 125.966 142.567 129.891 142.567C135.893 142.567 137.036 143.282 140.323 146.283C141.614 147.462 141.913 148.112 142.112 148.544C142.419 149.212 142.488 149.361 145.611 150.141C147.493 150.612 148.4 150.91 148.975 151.1C149.286 151.202 149.5 151.272 149.719 151.321C150.201 151.428 150.707 151.428 152.327 151.428C155.3 151.428 158.902 150.57 160.331 150.141C166.439 150.211 169.176 151.325 170.981 152.06ZM152.979 169.188C153.259 168.805 153.813 168.299 154.668 167.794C154.003 168.307 153.43 168.784 152.979 169.188ZM154.668 167.794C156.423 166.758 159.448 165.728 163.99 165.781C170.746 165.86 174.574 166.571 175.644 166.917C174.739 165.303 171.684 162.117 166.707 162.275C162.626 162.404 157.692 165.463 154.668 167.794ZM157.226 160.527C156.468 161.202 154.283 162.443 151.596 161.219C148.386 159.49 147.547 154.454 147.547 154.454C148.502 155.244 150.757 157.15 152.139 158.453C153.522 159.757 156.106 160.379 157.226 160.527ZM173.324 159.559C175.496 159.065 177.274 155.444 177.817 153.781C176.895 154.357 174.538 155.747 172.484 156.695C170.43 157.643 167.447 158.044 166.213 158.127C166.213 158.127 171.151 160.053 173.324 159.559Z" fill="black"/>
<path d="M255.371 340.355L258.202 321.59H264.169L258.858 351.45H252.808L249.322 333.854L245.876 351.45H239.806L234.474 321.59H240.483L243.292 340.334L246.799 321.59H251.865L255.371 340.355ZM279.521 345.338H271.297L269.697 351.45H263.319L272.651 321.59H278.167L287.56 351.45H281.12L279.521 345.338ZM272.61 340.314H278.188L275.399 329.67L272.61 340.314ZM298.153 340.539H295.159V351.45H289.13V321.59H298.748C301.769 321.59 304.1 322.376 305.741 323.949C307.395 325.507 308.223 327.729 308.223 330.614C308.223 334.578 306.78 337.354 303.895 338.94L309.125 351.162V351.45H302.644L298.153 340.539ZM295.159 335.515H298.584C299.787 335.515 300.689 335.119 301.291 334.326C301.892 333.519 302.193 332.446 302.193 331.106C302.193 328.112 301.024 326.615 298.686 326.615H295.159V335.515ZM317.134 346.446H327.716V351.45H311.105V321.59H317.134V346.446ZM349.651 339.206C349.651 343.212 348.701 346.323 346.8 348.537C344.913 350.752 342.288 351.86 338.925 351.86C335.576 351.86 332.944 350.766 331.03 348.578C329.116 346.377 328.145 343.301 328.118 339.35V334.244C328.118 330.142 329.068 326.943 330.968 324.646C332.869 322.335 335.507 321.18 338.884 321.18C342.206 321.18 344.825 322.315 346.739 324.584C348.653 326.84 349.623 330.012 349.651 334.1V339.206ZM343.601 334.203C343.601 331.509 343.218 329.506 342.453 328.194C341.687 326.881 340.497 326.225 338.884 326.225C337.285 326.225 336.102 326.861 335.336 328.132C334.571 329.39 334.174 331.311 334.147 333.895V339.206C334.147 341.818 334.537 343.745 335.316 344.99C336.095 346.22 337.298 346.835 338.925 346.835C340.497 346.835 341.666 346.234 342.432 345.031C343.198 343.814 343.587 341.934 343.601 339.391V334.203ZM372.959 341.503C372.809 344.908 371.852 347.485 370.088 349.235C368.324 350.985 365.836 351.86 362.623 351.86C359.246 351.86 356.655 350.752 354.851 348.537C353.06 346.309 352.164 343.137 352.164 339.022V333.997C352.164 329.896 353.094 326.738 354.953 324.523C356.813 322.294 359.397 321.18 362.705 321.18C365.959 321.18 368.427 322.089 370.109 323.908C371.804 325.726 372.768 328.337 373 331.742H366.95C366.896 329.636 366.568 328.187 365.966 327.394C365.378 326.587 364.291 326.184 362.705 326.184C361.092 326.184 359.95 326.751 359.28 327.886C358.611 329.007 358.255 330.86 358.214 333.444V339.083C358.214 342.05 358.542 344.087 359.198 345.195C359.868 346.302 361.01 346.856 362.623 346.856C364.209 346.856 365.303 346.473 365.904 345.707C366.506 344.928 366.848 343.527 366.93 341.503H372.959ZM383.819 339.924L381.44 342.918V351.45H375.411V321.59H381.44V334.613L383.348 331.393L388.905 321.59H396.288L387.736 334.715L396.432 351.45H389.274L383.819 339.924Z" fill="black"/>
<path d="M238.12 375.35L239.278 364.598H250.733V367.674H242.237L241.651 372.771C242.637 372.205 243.75 371.922 244.991 371.922C247.022 371.922 248.599 372.571 249.722 373.87C250.855 375.169 251.421 376.917 251.421 379.114C251.421 381.282 250.796 383.011 249.546 384.3C248.296 385.579 246.582 386.219 244.405 386.219C242.452 386.219 240.83 385.667 239.541 384.563C238.262 383.45 237.569 381.985 237.461 380.169H240.904C241.04 381.204 241.411 382 242.017 382.557C242.622 383.104 243.413 383.377 244.39 383.377C245.484 383.377 246.333 382.986 246.939 382.205C247.554 381.424 247.862 380.359 247.862 379.012C247.862 377.713 247.525 376.688 246.851 375.936C246.177 375.174 245.249 374.793 244.068 374.793C243.423 374.793 242.876 374.881 242.427 375.057C241.978 375.223 241.49 375.555 240.962 376.053L238.12 375.35ZM262.223 390.126C262.023 390.126 261.923 390.026 261.923 389.826C261.923 389.726 261.943 389.666 261.983 389.646L272.393 378.306L261.803 375.186C261.683 375.146 261.623 375.056 261.623 374.916C261.623 374.776 261.663 374.696 261.743 374.676L285.413 360.216C285.453 360.196 285.503 360.186 285.563 360.186C285.623 360.186 285.683 360.206 285.743 360.246C285.823 360.286 285.863 360.356 285.863 360.456C285.863 360.536 285.833 360.606 285.773 360.666L275.393 371.976L286.013 374.646C286.153 374.686 286.223 374.756 286.223 374.856C286.223 374.996 286.173 375.096 286.073 375.156L262.373 390.066C262.333 390.106 262.283 390.126 262.223 390.126ZM308.858 378.323H311.509V381.18H308.858V385.926H305.298V381.18H296.084L295.982 379.012L305.181 364.598H308.858V378.323ZM299.717 378.323H305.298V369.417L305.035 369.886L299.717 378.323Z" fill="black"/>
<path fill-rule="evenodd" clip-rule="evenodd" d="M142.955 327.308L141.326 327.227C141.339 327.026 141.345 326.824 141.345 326.621C141.345 326.418 141.339 326.216 141.326 326.016L142.955 325.935C142.969 326.162 142.976 326.391 142.976 326.621C142.976 326.851 142.969 327.08 142.955 327.308ZM142.786 324.571L141.177 324.814C141.102 324.414 141.002 324.021 140.879 323.638L142.447 323.233C142.587 323.669 142.7 324.116 142.786 324.571ZM141.942 321.938L140.435 322.499C140.263 322.126 140.068 321.763 139.851 321.412L141.278 320.702C141.524 321.101 141.746 321.513 141.942 321.938ZM140.464 319.541L139.135 320.389C138.874 320.06 138.594 319.745 138.295 319.445L139.511 318.468C139.85 318.809 140.169 319.167 140.464 319.541ZM138.43 317.498L137.343 318.59C137.008 318.322 136.657 318.07 136.291 317.836L137.236 316.642C137.652 316.907 138.051 317.193 138.43 317.498ZM135.943 315.911L135.153 317.192C134.762 316.998 134.358 316.823 133.942 316.668L134.567 315.315C135.039 315.491 135.499 315.69 135.943 315.911ZM133.125 314.862L132.674 316.269C132.246 316.159 131.809 316.069 131.363 316.002L131.635 314.557C132.141 314.634 132.639 314.736 133.125 314.862ZM130.116 314.405L130.025 315.868C129.802 315.857 129.578 315.851 129.351 315.851C129.125 315.851 128.9 315.857 128.677 315.868L128.587 314.405C128.84 314.393 129.095 314.386 129.351 314.386C129.608 314.386 129.862 314.393 130.116 314.405ZM127.068 314.557L127.339 316.002C126.893 316.069 126.456 316.159 126.029 316.269L125.578 314.862C126.064 314.736 126.561 314.634 127.068 314.557ZM124.136 315.315L124.76 316.668C124.345 316.823 123.941 316.998 123.55 317.192L122.759 315.911C123.203 315.69 123.663 315.491 124.136 315.315ZM121.466 316.642L122.411 317.836C122.045 318.07 121.694 318.322 121.359 318.59L120.272 317.498C120.651 317.193 121.05 316.907 121.466 316.642ZM119.191 318.468L120.408 319.445C120.109 319.745 119.828 320.06 119.568 320.389L118.238 319.541C118.534 319.167 118.852 318.809 119.191 318.468ZM117.424 320.702L118.851 321.412C118.634 321.763 118.439 322.126 118.267 322.499L116.76 321.938C116.956 321.513 117.178 321.101 117.424 320.702ZM116.255 323.233L117.823 323.638C117.7 324.021 117.6 324.414 117.525 324.814L115.916 324.571C116.002 324.116 116.115 323.669 116.255 323.233ZM115.747 325.935C115.733 326.162 115.726 326.391 115.726 326.621C115.726 326.851 115.733 327.08 115.747 327.308L117.376 327.227C117.364 327.026 117.357 326.824 117.357 326.621C117.357 326.418 117.364 326.216 117.376 326.016L115.747 325.935ZM115.916 328.672L117.525 328.428C117.6 328.828 117.7 329.221 117.823 329.605L116.255 330.01C116.115 329.573 116.002 329.127 115.916 328.672ZM116.76 331.304L118.267 330.743C118.439 331.117 118.634 331.48 118.851 331.831L117.424 332.54C117.178 332.142 116.956 331.729 116.76 331.304ZM118.238 333.702L119.568 332.853C119.828 333.182 120.109 333.497 120.408 333.797L119.191 334.774C118.852 334.433 118.534 334.075 118.238 333.702ZM120.272 335.744L121.359 334.652C121.694 334.921 122.045 335.172 122.411 335.406L121.466 336.6C121.05 336.335 120.651 336.049 120.272 335.744ZM122.759 337.331L123.55 336.05C123.941 336.244 124.345 336.42 124.76 336.574L124.136 337.928C123.663 337.752 123.203 337.552 122.759 337.331ZM125.578 338.381L126.029 336.973C126.456 337.083 126.893 337.173 127.339 337.24L127.068 338.685C126.561 338.608 126.064 338.506 125.578 338.381ZM128.587 338.837L128.677 337.374C128.9 337.385 129.125 337.391 129.351 337.391C129.578 337.391 129.802 337.385 130.025 337.374L130.116 338.837C129.862 338.85 129.608 338.856 129.351 338.856C129.095 338.856 128.84 338.85 128.587 338.837ZM137.236 336.6L136.291 335.406C136.657 335.172 137.008 334.921 137.343 334.652L138.43 335.744C138.051 336.049 137.652 336.335 137.236 336.6ZM139.511 334.774L138.295 333.797C138.594 333.497 138.874 333.182 139.135 332.853L140.464 333.702C140.169 334.075 139.85 334.433 139.511 334.774ZM141.278 332.54L139.851 331.831C140.068 331.48 140.263 331.117 140.435 330.743L141.942 331.304C141.746 331.729 141.524 332.142 141.278 332.54ZM142.447 330.01L140.879 329.605C141.002 329.221 141.102 328.828 141.177 328.428L142.786 328.672C142.7 329.127 142.587 329.573 142.447 330.01ZM160.897 332.642V324.999C160.897 324.033 158.707 320.394 157.612 318.696L162.092 319.769L167.02 324.999L170.306 327.681L164.183 328.351L168.066 330.229V333.581C168.613 333.581 170.127 333.393 171.799 332.642C172.551 332.304 173.169 331.862 173.678 331.498C174.584 330.848 175.15 330.443 175.533 331.301C176.01 332.374 177.822 333.983 178.669 334.654L186.136 332.642L189.276 330.977C190.071 330.059 193.816 327.95 196.028 326.704C196.723 326.313 197.266 326.006 197.519 325.849C197.967 325.571 198.142 325.206 198.333 324.807C198.509 324.44 198.699 324.043 199.128 323.658C199.756 323.094 200.936 323.232 201.462 323.918C202.059 326.064 200.522 327.244 199.503 327.458C199.128 326.879 198.427 326.922 197.83 327.458C197.611 327.655 197.124 327.933 196.552 328.26L196.552 328.26C195.562 328.825 194.317 329.537 193.752 330.229C192.86 331.32 190.914 333.581 190.914 333.581C190.218 338.453 188.555 348.922 187.48 351.819C186.681 353.969 185.462 351.152 184.196 348.229C183.33 346.231 182.444 344.183 181.655 343.639C180.102 342.566 176.926 340.867 175.533 340.152V347.393V351.819L162.092 353.294H175.533V355.976C175.533 356.158 175.518 356.258 175.494 356.3C175.695 356.875 175.994 357.79 176.429 359.194C178.669 366.436 180.461 370.056 181.655 371.8C182.372 372.845 182.766 375.435 183.096 377.6C183.316 379.045 183.507 380.301 183.746 380.784L183.797 380.888C184.481 382.264 186.973 387.277 184.792 389.367C182.551 391.512 175.533 390.708 174.189 390.439C172.844 390.171 164.332 389.367 162.092 389.367C160.3 389.367 157.562 390.082 156.417 390.439C154.426 389.724 150.175 388.508 149.1 389.367C148.024 390.225 144.769 390.439 143.275 390.439L145.366 386.014L139.99 390.439L134.763 389.367C134.116 388.249 133.21 386.014 134.763 386.014C136.412 386.014 140.86 383.403 142.622 382.369C142.935 382.186 143.163 382.052 143.275 381.991C143.52 381.859 143.781 381.871 144.094 381.886C144.738 381.916 145.603 381.956 147.009 380.784C148.278 379.726 149.382 378.075 150.321 376.671L150.321 376.671L150.321 376.671C150.929 375.762 151.468 374.956 151.937 374.482C152.649 373.763 153.149 371.425 153.594 369.341C153.897 367.927 154.174 366.63 154.476 366.033C155.073 364.853 156.019 358.837 156.417 355.976H163.287C160.599 355.216 155.461 353.508 156.417 352.757C157.373 352.006 156.815 349.405 156.417 348.198C156.119 349.271 155.163 351.685 153.729 352.757C151.937 354.098 151.937 356.646 151.937 359.194C151.937 361.232 143.972 352.713 139.99 348.198C139.044 347.93 136.914 347.393 135.958 347.393C135.002 347.393 133.668 346.41 133.12 345.918C132.822 345.65 132.404 345.033 133.12 344.711C133.837 344.389 134.514 340.912 134.763 339.213C135.709 339.481 137.839 340.259 138.795 341.225C139.751 342.19 139.193 343.236 138.795 343.639C141.633 344.13 147.666 344.819 149.1 343.639C149.541 343.275 150 342.88 150.453 342.489L150.453 342.489L150.453 342.489L150.453 342.489C151.84 341.295 153.166 340.152 153.729 340.152C154.476 340.152 156.417 337.872 156.417 337.202C156.417 336.665 155.919 335.28 155.67 334.654H164.183L160.897 332.642ZM140.587 351.416C140.587 352.489 145.665 368.402 148.203 376.225L147.009 377.834L137.75 348.868C138.695 349.271 140.587 350.343 140.587 351.416ZM132.512 338.856C131.841 336.369 130.437 331.313 130.19 330.979C129.958 330.666 129.118 330.302 128.473 330.022L128.472 330.022C128.256 329.928 128.062 329.844 127.919 329.774C127.352 329.496 126.216 328.708 126.165 327.874C126.131 327.331 126.141 326.769 126.152 326.149C126.158 325.816 126.165 325.466 126.165 325.094C126.165 324.241 126.474 321.31 126.629 319.951L127.919 321.434C128.126 321.665 128.476 322.24 128.229 322.685C128.015 323.068 128.857 323.672 129.518 324.146L129.518 324.146C129.816 324.36 130.078 324.548 130.19 324.677C130.551 325.094 131.222 327.689 130.706 327.874C130.293 328.023 131.084 329.203 131.531 329.774L133.389 337.883L132.512 338.856ZM211.466 327.227L213.095 327.308C213.109 327.08 213.116 326.851 213.116 326.621C213.116 326.391 213.109 326.162 213.095 325.935L211.466 326.016C211.479 326.216 211.485 326.418 211.485 326.621C211.485 326.824 211.479 327.026 211.466 327.227ZM211.317 324.814L212.926 324.571C212.84 324.116 212.727 323.669 212.587 323.233L211.019 323.638C211.142 324.021 211.242 324.414 211.317 324.814ZM210.576 322.499L212.083 321.938C211.886 321.513 211.665 321.101 211.419 320.702L209.991 321.412C210.208 321.763 210.403 322.126 210.576 322.499ZM209.275 320.389L210.604 319.541C210.309 319.167 209.99 318.809 209.651 318.468L208.435 319.445C208.734 319.745 209.014 320.06 209.275 320.389ZM207.483 318.59L208.57 317.498C208.191 317.193 207.792 316.907 207.376 316.642L206.431 317.836C206.797 318.07 207.149 318.322 207.483 318.59ZM205.293 317.192L206.083 315.911C205.639 315.69 205.18 315.491 204.707 315.315L204.082 316.668C204.498 316.823 204.902 316.998 205.293 317.192ZM202.814 316.269L203.265 314.862C202.779 314.736 202.281 314.634 201.775 314.557L201.503 316.002C201.949 316.069 202.386 316.159 202.814 316.269ZM200.166 315.868L200.256 314.405C200.003 314.393 199.748 314.386 199.491 314.386C199.235 314.386 198.98 314.393 198.727 314.405L198.817 315.868C199.04 315.857 199.265 315.851 199.491 315.851C199.718 315.851 199.942 315.857 200.166 315.868ZM197.479 316.002L197.208 314.557C196.701 314.634 196.204 314.736 195.718 314.862L196.169 316.269C196.596 316.159 197.033 316.069 197.479 316.002ZM194.901 316.668L194.276 315.315C193.803 315.491 193.343 315.69 192.899 315.911L193.69 317.192C194.081 316.998 194.485 316.823 194.901 316.668ZM192.551 317.836L191.606 316.642C191.19 316.907 190.792 317.193 190.412 317.498L191.5 318.59C191.834 318.322 192.185 318.07 192.551 317.836ZM190.548 319.445L189.332 318.468C188.992 318.809 188.674 319.167 188.378 319.541L189.708 320.389C189.968 320.06 190.249 319.745 190.548 319.445ZM188.991 321.412L187.564 320.702C187.318 321.101 187.096 321.513 186.9 321.938L188.407 322.499C188.579 322.126 188.774 321.763 188.991 321.412ZM187.963 323.638L186.395 323.233C186.255 323.669 186.142 324.116 186.056 324.571L187.665 324.814C187.74 324.414 187.84 324.021 187.963 323.638ZM185.866 326.621C185.866 326.391 185.873 326.162 185.887 325.935L187.516 326.016C187.504 326.216 187.497 326.418 187.497 326.621C187.497 326.824 187.504 327.026 187.516 327.227L185.887 327.308C185.873 327.08 185.866 326.851 185.866 326.621ZM187.665 328.428L186.056 328.672C186.142 329.127 186.255 329.573 186.395 330.01L187.963 329.605C187.84 329.221 187.74 328.828 187.665 328.428ZM193.69 336.05L192.899 337.331C193.343 337.552 193.803 337.752 194.276 337.928L194.901 336.574C194.485 336.42 194.081 336.244 193.69 336.05ZM196.169 336.973L195.718 338.381C196.204 338.506 196.701 338.608 197.208 338.685L197.479 337.24C197.033 337.173 196.596 337.083 196.169 336.973ZM198.817 337.374L198.727 338.837C198.98 338.85 199.235 338.856 199.491 338.856C199.748 338.856 200.003 338.85 200.256 338.837L200.166 337.374C199.942 337.385 199.718 337.391 199.491 337.391C199.265 337.391 199.04 337.385 198.817 337.374ZM201.503 337.24L201.775 338.685C202.281 338.608 202.779 338.506 203.265 338.381L202.814 336.973C202.386 337.083 201.949 337.173 201.503 337.24ZM204.082 336.574L204.707 337.928C205.18 337.752 205.639 337.552 206.083 337.331L205.293 336.05C204.902 336.244 204.498 336.42 204.082 336.574ZM206.431 335.406L207.376 336.6C207.792 336.335 208.191 336.049 208.57 335.744L207.483 334.652C207.149 334.921 206.797 335.172 206.431 335.406ZM208.435 333.797L209.651 334.774C209.99 334.433 210.309 334.075 210.604 333.702L209.275 332.853C209.014 333.182 208.734 333.497 208.435 333.797ZM209.991 331.831L211.419 332.54C211.665 332.142 211.886 331.729 212.083 331.304L210.576 330.743C210.403 331.117 210.208 331.48 209.991 331.831ZM211.019 329.605L212.587 330.01C212.727 329.573 212.84 329.127 212.926 328.672L211.317 328.428C211.242 328.828 211.142 329.221 211.019 329.605Z" fill="black"/>
<path d="M126.126 250.416H127.789C128.627 250.408 129.29 250.191 129.776 249.764C130.27 249.338 130.518 248.72 130.518 247.911C130.518 247.133 130.312 246.53 129.9 246.103C129.496 245.669 128.874 245.452 128.036 245.452C127.302 245.452 126.699 245.665 126.228 246.092C125.756 246.511 125.52 247.062 125.52 247.743H122.791C122.791 246.904 123.012 246.141 123.454 245.452C123.903 244.763 124.524 244.228 125.318 243.846C126.119 243.457 127.014 243.262 128.002 243.262C129.634 243.262 130.914 243.674 131.843 244.497C132.779 245.313 133.247 246.451 133.247 247.911C133.247 248.645 133.011 249.338 132.539 249.989C132.075 250.633 131.472 251.12 130.731 251.449C131.629 251.756 132.311 252.239 132.775 252.898C133.247 253.557 133.482 254.343 133.482 255.256C133.482 256.724 132.977 257.892 131.966 258.76C130.963 259.628 129.642 260.063 128.002 260.063C126.43 260.063 125.142 259.643 124.139 258.805C123.135 257.966 122.634 256.851 122.634 255.458H125.363C125.363 256.177 125.602 256.761 126.082 257.21C126.568 257.659 127.22 257.884 128.036 257.884C128.882 257.884 129.548 257.659 130.035 257.21C130.521 256.761 130.765 256.11 130.765 255.256C130.765 254.395 130.51 253.733 130.001 253.268C129.492 252.804 128.736 252.572 127.732 252.572H126.126V250.416ZM141.434 253.65C141.434 252.46 141.669 251.389 142.141 250.438C142.613 249.48 143.275 248.746 144.129 248.237C144.982 247.72 145.963 247.462 147.071 247.462C148.711 247.462 150.04 247.99 151.058 249.046C152.084 250.101 152.638 251.501 152.72 253.246L152.731 253.886C152.731 255.084 152.499 256.155 152.035 257.098C151.578 258.041 150.92 258.771 150.059 259.288C149.205 259.804 148.217 260.063 147.094 260.063C145.379 260.063 144.005 259.494 142.972 258.356C141.946 257.21 141.434 255.687 141.434 253.785V253.65ZM144.163 253.886C144.163 255.136 144.421 256.117 144.937 256.828C145.454 257.532 146.173 257.884 147.094 257.884C148.015 257.884 148.73 257.525 149.239 256.806C149.755 256.087 150.014 255.035 150.014 253.65C150.014 252.422 149.748 251.449 149.216 250.73C148.692 250.011 147.977 249.652 147.071 249.652C146.18 249.652 145.473 250.008 144.949 250.719C144.425 251.423 144.163 252.478 144.163 253.886ZM155.999 259.838V249.708H154.146V247.687H155.999V246.575C155.999 245.227 156.374 244.187 157.123 243.453C157.871 242.719 158.919 242.352 160.267 242.352C160.746 242.352 161.255 242.42 161.794 242.554L161.727 244.688C161.428 244.628 161.079 244.598 160.683 244.598C159.38 244.598 158.728 245.268 158.728 246.609V247.687H161.199V249.708H158.728V259.838H155.999ZM176.181 259.838C176.061 259.606 175.956 259.228 175.866 258.704C174.998 259.61 173.935 260.063 172.677 260.063C171.456 260.063 170.461 259.715 169.689 259.018C168.918 258.322 168.533 257.461 168.533 256.435C168.533 255.14 169.012 254.148 169.97 253.459C170.936 252.763 172.314 252.415 174.103 252.415H175.776V251.617C175.776 250.989 175.6 250.487 175.249 250.113C174.897 249.731 174.361 249.54 173.643 249.54C173.021 249.54 172.512 249.697 172.115 250.011C171.718 250.318 171.52 250.712 171.52 251.191H168.791C168.791 250.524 169.012 249.903 169.454 249.326C169.895 248.742 170.494 248.286 171.25 247.956C172.014 247.627 172.864 247.462 173.8 247.462C175.222 247.462 176.357 247.822 177.203 248.54C178.049 249.252 178.483 250.255 178.505 251.55V257.031C178.505 258.124 178.659 258.996 178.966 259.647V259.838H176.181ZM173.182 257.873C173.721 257.873 174.227 257.742 174.698 257.48C175.177 257.218 175.537 256.866 175.776 256.424V254.133H174.305C173.294 254.133 172.534 254.309 172.025 254.661C171.516 255.013 171.262 255.511 171.262 256.155C171.262 256.679 171.434 257.098 171.778 257.412C172.13 257.719 172.598 257.873 173.182 257.873ZM191.039 254.627L189.826 255.874V259.838H187.097V242.588H189.826V252.538L190.679 251.471L194.037 247.687H197.316L192.802 252.752L197.799 259.838H194.644L191.039 254.627ZM202.011 259.838H199.282V247.687H202.011V259.838ZM199.113 244.531C199.113 244.112 199.244 243.764 199.506 243.487C199.776 243.21 200.158 243.071 200.652 243.071C201.146 243.071 201.528 243.21 201.797 243.487C202.067 243.764 202.202 244.112 202.202 244.531C202.202 244.943 202.067 245.287 201.797 245.564C201.528 245.834 201.146 245.969 200.652 245.969C200.158 245.969 199.776 245.834 199.506 245.564C199.244 245.287 199.113 244.943 199.113 244.531ZM207.525 247.687L207.603 249.091C208.502 248.005 209.681 247.462 211.141 247.462C213.672 247.462 214.959 248.911 215.004 251.808V259.838H212.275V251.966C212.275 251.194 212.107 250.625 211.77 250.259C211.441 249.884 210.898 249.697 210.142 249.697C209.041 249.697 208.221 250.195 207.682 251.191V259.838H204.953V247.687H207.525ZM217.284 253.673C217.284 251.801 217.718 250.3 218.587 249.169C219.455 248.031 220.62 247.462 222.08 247.462C223.367 247.462 224.408 247.911 225.202 248.81V242.588H227.931V259.838H225.46L225.325 258.58C224.509 259.569 223.42 260.063 222.057 260.063C220.635 260.063 219.482 259.49 218.598 258.344C217.722 257.199 217.284 255.642 217.284 253.673ZM220.013 253.908C220.013 255.144 220.249 256.11 220.721 256.806C221.2 257.495 221.877 257.839 222.753 257.839C223.869 257.839 224.685 257.341 225.202 256.345V251.157C224.7 250.184 223.891 249.697 222.776 249.697C221.892 249.697 221.211 250.049 220.732 250.753C220.253 251.449 220.013 252.501 220.013 253.908ZM249.819 252.089C249.819 253.691 249.542 255.099 248.988 256.312C248.434 257.517 247.64 258.446 246.607 259.097C245.581 259.741 244.398 260.063 243.058 260.063C241.733 260.063 240.55 259.741 239.509 259.097C238.476 258.446 237.675 257.521 237.106 256.323C236.544 255.125 236.26 253.744 236.252 252.179V251.258C236.252 249.663 236.533 248.256 237.095 247.035C237.664 245.815 238.461 244.883 239.487 244.239C240.52 243.588 241.703 243.262 243.036 243.262C244.368 243.262 245.547 243.584 246.573 244.228C247.606 244.864 248.404 245.785 248.965 246.99C249.527 248.188 249.811 249.585 249.819 251.179V252.089ZM246.978 251.236C246.978 249.424 246.633 248.035 245.944 247.069C245.263 246.103 244.293 245.62 243.036 245.62C241.808 245.62 240.846 246.103 240.149 247.069C239.461 248.027 239.109 249.386 239.094 251.146V252.089C239.094 253.886 239.442 255.275 240.138 256.256C240.842 257.236 241.815 257.727 243.058 257.727C244.316 257.727 245.282 257.248 245.956 256.289C246.637 255.331 246.978 253.931 246.978 252.089V251.236ZM258.657 253.538H255.49V259.838H252.649V243.487H258.399C260.286 243.487 261.742 243.91 262.768 244.756C263.793 245.602 264.306 246.826 264.306 248.428C264.306 249.521 264.04 250.438 263.509 251.179C262.985 251.913 262.251 252.478 261.308 252.875L264.98 259.692V259.838H261.936L258.657 253.538ZM255.49 251.258H258.41C259.368 251.258 260.117 251.018 260.656 250.539C261.195 250.053 261.465 249.39 261.465 248.552C261.465 247.676 261.214 246.998 260.712 246.519C260.218 246.04 259.477 245.793 258.489 245.778H255.49V251.258ZM271.988 253.673C271.988 251.786 272.429 250.281 273.313 249.158C274.204 248.027 275.383 247.462 276.851 247.462C278.236 247.462 279.325 247.945 280.119 248.911L280.242 247.687H282.702V259.468C282.702 261.062 282.204 262.32 281.208 263.241C280.22 264.162 278.883 264.622 277.199 264.622C276.308 264.622 275.436 264.435 274.582 264.061C273.736 263.694 273.092 263.211 272.65 262.612L273.942 260.972C274.78 261.968 275.814 262.466 277.041 262.466C277.947 262.466 278.662 262.219 279.186 261.725C279.711 261.238 279.973 260.519 279.973 259.569V258.749C279.186 259.625 278.138 260.063 276.828 260.063C275.406 260.063 274.241 259.497 273.335 258.367C272.437 257.236 271.988 255.672 271.988 253.673ZM274.706 253.908C274.706 255.129 274.953 256.091 275.447 256.795C275.948 257.491 276.641 257.839 277.524 257.839C278.625 257.839 279.441 257.367 279.973 256.424V251.078C279.456 250.157 278.647 249.697 277.547 249.697C276.648 249.697 275.948 250.053 275.447 250.764C274.953 251.475 274.706 252.523 274.706 253.908ZM292.876 258.648C292.075 259.591 290.937 260.063 289.462 260.063C288.145 260.063 287.145 259.677 286.464 258.906C285.79 258.135 285.453 257.019 285.453 255.559V247.687H288.182V255.526C288.182 257.068 288.822 257.839 290.103 257.839C291.428 257.839 292.322 257.364 292.787 256.413V247.687H295.516V259.838H292.944L292.876 258.648ZM305.556 259.838C305.436 259.606 305.331 259.228 305.241 258.704C304.373 259.61 303.31 260.063 302.052 260.063C300.831 260.063 299.836 259.715 299.064 259.018C298.293 258.322 297.908 257.461 297.908 256.435C297.908 255.14 298.387 254.148 299.345 253.459C300.311 252.763 301.689 252.415 303.478 252.415H305.151V251.617C305.151 250.989 304.975 250.487 304.624 250.113C304.272 249.731 303.736 249.54 303.018 249.54C302.396 249.54 301.887 249.697 301.49 250.011C301.093 250.318 300.895 250.712 300.895 251.191H298.166C298.166 250.524 298.387 249.903 298.829 249.326C299.27 248.742 299.869 248.286 300.625 247.956C301.389 247.627 302.239 247.462 303.175 247.462C304.597 247.462 305.732 247.822 306.578 248.54C307.424 249.252 307.858 250.255 307.88 251.55V257.031C307.88 258.124 308.034 258.996 308.341 259.647V259.838H305.556ZM302.557 257.873C303.096 257.873 303.602 257.742 304.073 257.48C304.552 257.218 304.912 256.866 305.151 256.424V254.133H303.68C302.669 254.133 301.909 254.309 301.4 254.661C300.891 255.013 300.637 255.511 300.637 256.155C300.637 256.679 300.809 257.098 301.153 257.412C301.505 257.719 301.973 257.873 302.557 257.873ZM317.101 250.18C316.741 250.12 316.371 250.09 315.989 250.09C314.738 250.09 313.896 250.569 313.462 251.528V259.838H310.733V247.687H313.338L313.406 249.046C314.065 247.99 314.978 247.462 316.146 247.462C316.535 247.462 316.857 247.515 317.112 247.619L317.101 250.18ZM318.089 253.673C318.089 251.801 318.523 250.3 319.392 249.169C320.26 248.031 321.424 247.462 322.884 247.462C324.172 247.462 325.213 247.911 326.006 248.81V242.588H328.735V259.838H326.265L326.13 258.58C325.314 259.569 324.224 260.063 322.862 260.063C321.439 260.063 320.286 259.49 319.403 258.344C318.527 257.199 318.089 255.642 318.089 253.673ZM320.818 253.908C320.818 255.144 321.054 256.11 321.525 256.806C322.005 257.495 322.682 257.839 323.558 257.839C324.674 257.839 325.49 257.341 326.006 256.345V251.157C325.505 250.184 324.696 249.697 323.581 249.697C322.697 249.697 322.016 250.049 321.537 250.753C321.057 251.449 320.818 252.501 320.818 253.908ZM334.485 259.838H331.756V247.687H334.485V259.838ZM331.588 244.531C331.588 244.112 331.719 243.764 331.981 243.487C332.25 243.21 332.632 243.071 333.126 243.071C333.621 243.071 334.002 243.21 334.272 243.487C334.541 243.764 334.676 244.112 334.676 244.531C334.676 244.943 334.541 245.287 334.272 245.564C334.002 245.834 333.621 245.969 333.126 245.969C332.632 245.969 332.25 245.834 331.981 245.564C331.719 245.287 331.588 244.943 331.588 244.531ZM344.728 259.838C344.608 259.606 344.503 259.228 344.413 258.704C343.545 259.61 342.481 260.063 341.224 260.063C340.003 260.063 339.007 259.715 338.236 259.018C337.465 258.322 337.08 257.461 337.08 256.435C337.08 255.14 337.559 254.148 338.517 253.459C339.483 252.763 340.86 252.415 342.65 252.415H344.323V251.617C344.323 250.989 344.147 250.487 343.795 250.113C343.443 249.731 342.908 249.54 342.189 249.54C341.568 249.54 341.059 249.697 340.662 250.011C340.265 250.318 340.067 250.712 340.067 251.191H337.338C337.338 250.524 337.559 249.903 338 249.326C338.442 248.742 339.041 248.286 339.797 247.956C340.561 247.627 341.411 247.462 342.347 247.462C343.769 247.462 344.903 247.822 345.749 248.54C346.596 249.252 347.03 250.255 347.052 251.55V257.031C347.052 258.124 347.206 258.996 347.513 259.647V259.838H344.728ZM341.729 257.873C342.268 257.873 342.773 257.742 343.245 257.48C343.724 257.218 344.084 256.866 344.323 256.424V254.133H342.852C341.841 254.133 341.081 254.309 340.572 254.661C340.063 255.013 339.809 255.511 339.809 256.155C339.809 256.679 339.981 257.098 340.325 257.412C340.677 257.719 341.145 257.873 341.729 257.873ZM352.443 247.687L352.521 249.091C353.42 248.005 354.599 247.462 356.059 247.462C358.59 247.462 359.877 248.911 359.922 251.808V259.838H357.193V251.966C357.193 251.194 357.025 250.625 356.688 250.259C356.359 249.884 355.816 249.697 355.06 249.697C353.959 249.697 353.139 250.195 352.6 251.191V259.838H349.871V247.687H352.443Z" fill="black"/>
<path d="M138.693 416.225C138.334 416.165 137.963 416.135 137.582 416.135C136.331 416.135 135.489 416.614 135.055 417.573V425.883H132.326V413.732H134.931L134.999 415.091C135.657 414.035 136.571 413.507 137.739 413.507C138.128 413.507 138.45 413.56 138.705 413.665L138.693 416.225ZM145.544 426.108C143.814 426.108 142.411 425.565 141.332 424.479C140.262 423.386 139.727 421.934 139.727 420.122V419.785C139.727 418.572 139.959 417.49 140.423 416.54C140.895 415.581 141.553 414.836 142.399 414.305C143.245 413.773 144.189 413.507 145.229 413.507C146.884 413.507 148.161 414.035 149.059 415.091C149.965 416.146 150.418 417.64 150.418 419.572V420.672H142.478C142.56 421.676 142.894 422.469 143.478 423.053C144.069 423.637 144.81 423.929 145.701 423.929C146.951 423.929 147.97 423.424 148.756 422.413L150.227 423.817C149.74 424.543 149.089 425.108 148.273 425.513C147.464 425.91 146.555 426.108 145.544 426.108ZM145.218 415.697C144.47 415.697 143.863 415.959 143.399 416.483C142.942 417.007 142.65 417.737 142.523 418.673H147.723V418.471C147.663 417.558 147.419 416.869 146.993 416.405C146.566 415.933 145.974 415.697 145.218 415.697ZM152.035 419.707C152.035 417.805 152.469 416.296 153.338 415.181C154.206 414.065 155.382 413.507 156.864 413.507C158.219 413.507 159.294 413.983 160.087 414.934L160.245 413.732H162.67V430.555H159.941V424.85C159.148 425.689 158.115 426.108 156.842 426.108C155.389 426.108 154.225 425.543 153.349 424.412C152.473 423.274 152.035 421.706 152.035 419.707ZM154.764 419.942C154.764 421.185 155.007 422.162 155.494 422.874C155.988 423.577 156.67 423.929 157.538 423.929C158.616 423.929 159.417 423.469 159.941 422.548V417.022C159.417 416.139 158.624 415.697 157.561 415.697C156.692 415.697 156.007 416.045 155.505 416.742C155.011 417.438 154.764 418.505 154.764 419.942ZM172.98 424.693C172.179 425.636 171.041 426.108 169.566 426.108C168.248 426.108 167.249 425.722 166.567 424.951C165.894 424.18 165.557 423.064 165.557 421.604V413.732H168.286V421.571C168.286 423.113 168.926 423.884 170.206 423.884C171.531 423.884 172.426 423.409 172.89 422.458V413.732H175.619V425.883H173.047L172.98 424.693ZM181.302 425.883H178.573V413.732H181.302V425.883ZM178.404 410.576C178.404 410.157 178.535 409.809 178.797 409.532C179.067 409.255 179.449 409.116 179.943 409.116C180.437 409.116 180.819 409.255 181.088 409.532C181.358 409.809 181.493 410.157 181.493 410.576C181.493 410.988 181.358 411.332 181.088 411.609C180.819 411.879 180.437 412.014 179.943 412.014C179.449 412.014 179.067 411.879 178.797 411.609C178.535 411.332 178.404 410.988 178.404 410.576ZM190.645 416.225C190.286 416.165 189.915 416.135 189.534 416.135C188.283 416.135 187.441 416.614 187.007 417.573V425.883H184.278V413.732H186.883L186.951 415.091C187.61 414.035 188.523 413.507 189.691 413.507C190.08 413.507 190.402 413.56 190.657 413.665L190.645 416.225ZM197.496 426.108C195.767 426.108 194.363 425.565 193.285 424.479C192.214 423.386 191.679 421.934 191.679 420.122V419.785C191.679 418.572 191.911 417.49 192.375 416.54C192.847 415.581 193.506 414.836 194.352 414.305C195.198 413.773 196.141 413.507 197.182 413.507C198.836 413.507 200.113 414.035 201.011 415.091C201.917 416.146 202.37 417.64 202.37 419.572V420.672H194.43C194.513 421.676 194.846 422.469 195.43 423.053C196.021 423.637 196.762 423.929 197.653 423.929C198.904 423.929 199.922 423.424 200.708 422.413L202.179 423.817C201.693 424.543 201.041 425.108 200.225 425.513C199.416 425.91 198.507 426.108 197.496 426.108ZM197.17 415.697C196.422 415.697 195.815 415.959 195.351 416.483C194.894 417.007 194.602 417.737 194.475 418.673H199.675V418.471C199.615 417.558 199.372 416.869 198.945 416.405C198.518 415.933 197.927 415.697 197.17 415.697ZM211.31 422.582C211.31 422.095 211.107 421.724 210.703 421.47C210.306 421.215 209.644 420.991 208.715 420.796C207.787 420.601 207.012 420.354 206.391 420.055C205.028 419.396 204.347 418.441 204.347 417.191C204.347 416.143 204.788 415.267 205.672 414.563C206.555 413.859 207.678 413.507 209.041 413.507C210.493 413.507 211.665 413.867 212.556 414.585C213.455 415.304 213.904 416.236 213.904 417.382H211.175C211.175 416.858 210.98 416.424 210.591 416.079C210.201 415.727 209.685 415.551 209.041 415.551C208.442 415.551 207.952 415.69 207.57 415.967C207.195 416.244 207.008 416.614 207.008 417.079C207.008 417.498 207.184 417.824 207.536 418.056C207.888 418.288 208.599 418.524 209.67 418.763C210.741 418.995 211.579 419.276 212.186 419.605C212.799 419.927 213.252 420.317 213.544 420.773C213.844 421.23 213.994 421.784 213.994 422.436C213.994 423.529 213.541 424.416 212.635 425.097C211.729 425.771 210.542 426.108 209.075 426.108C208.079 426.108 207.192 425.928 206.413 425.569C205.634 425.209 205.028 424.715 204.594 424.086C204.159 423.458 203.942 422.78 203.942 422.054H206.593C206.63 422.698 206.874 423.195 207.323 423.547C207.772 423.892 208.367 424.064 209.108 424.064C209.827 424.064 210.374 423.929 210.748 423.66C211.122 423.383 211.31 423.023 211.31 422.582ZM233.512 411.823H228.414V425.883H225.595V411.823H220.541V409.532H233.512V411.823ZM238.667 425.883H235.837V409.532H238.667V425.883ZM253.637 411.823H248.539V425.883H245.72V411.823H240.666V409.532H253.637V411.823ZM263.599 422.076H257.265L255.939 425.883H252.986L259.163 409.532H261.712L267.9 425.883H264.935L263.599 422.076ZM258.062 419.785H262.801L260.432 413.002L258.062 419.785ZM282.735 425.883H279.894L272.605 414.282V425.883H269.764V409.532H272.605L279.916 421.178V409.532H282.735V425.883ZM297.919 416.225C297.56 416.165 297.189 416.135 296.807 416.135C295.557 416.135 294.714 416.614 294.28 417.573V425.883H291.551V413.732H294.157L294.224 415.091C294.883 414.035 295.796 413.507 296.964 413.507C297.354 413.507 297.676 413.56 297.93 413.665L297.919 416.225ZM304.77 426.108C303.04 426.108 301.636 425.565 300.558 424.479C299.487 423.386 298.952 421.934 298.952 420.122V419.785C298.952 418.572 299.184 417.49 299.648 416.54C300.12 415.581 300.779 414.836 301.625 414.305C302.471 413.773 303.414 413.507 304.455 413.507C306.11 413.507 307.386 414.035 308.285 415.091C309.191 416.146 309.644 417.64 309.644 419.572V420.672H301.704C301.786 421.676 302.119 422.469 302.703 423.053C303.295 423.637 304.036 423.929 304.927 423.929C306.177 423.929 307.195 423.424 307.981 422.413L309.453 423.817C308.966 424.543 308.315 425.108 307.499 425.513C306.69 425.91 305.78 426.108 304.77 426.108ZM304.444 415.697C303.695 415.697 303.089 415.959 302.624 416.483C302.168 417.007 301.876 417.737 301.749 418.673H306.948V418.471C306.888 417.558 306.645 416.869 306.218 416.405C305.791 415.933 305.2 415.697 304.444 415.697ZM315.899 422.424L318.471 413.732H321.29L317.078 425.883H314.708L310.463 413.732H313.293L315.899 422.424ZM328.196 426.108C326.467 426.108 325.063 425.565 323.985 424.479C322.914 423.386 322.379 421.934 322.379 420.122V419.785C322.379 418.572 322.611 417.49 323.075 416.54C323.547 415.581 324.206 414.836 325.052 414.305C325.898 413.773 326.841 413.507 327.882 413.507C329.536 413.507 330.813 414.035 331.711 415.091C332.617 416.146 333.07 417.64 333.07 419.572V420.672H325.13C325.213 421.676 325.546 422.469 326.13 423.053C326.721 423.637 327.463 423.929 328.353 423.929C329.604 423.929 330.622 423.424 331.408 422.413L332.879 423.817C332.393 424.543 331.741 425.108 330.925 425.513C330.117 425.91 329.207 426.108 328.196 426.108ZM327.871 415.697C327.122 415.697 326.515 415.959 326.051 416.483C325.595 417.007 325.303 417.737 325.175 418.673H330.375V418.471C330.315 417.558 330.072 416.869 329.645 416.405C329.218 415.933 328.627 415.697 327.871 415.697ZM342.459 425.883C342.339 425.651 342.234 425.273 342.145 424.749C341.276 425.655 340.213 426.108 338.955 426.108C337.735 426.108 336.739 425.76 335.968 425.063C335.197 424.367 334.811 423.506 334.811 422.48C334.811 421.185 335.29 420.193 336.249 419.504C337.214 418.808 338.592 418.46 340.381 418.46H342.055V417.663C342.055 417.034 341.879 416.532 341.527 416.158C341.175 415.776 340.64 415.585 339.921 415.585C339.299 415.585 338.79 415.742 338.394 416.057C337.997 416.364 337.798 416.757 337.798 417.236H335.069C335.069 416.569 335.29 415.948 335.732 415.372C336.174 414.788 336.773 414.331 337.529 414.001C338.292 413.672 339.142 413.507 340.078 413.507C341.501 413.507 342.635 413.867 343.481 414.585C344.327 415.297 344.761 416.3 344.784 417.595V423.076C344.784 424.169 344.937 425.041 345.244 425.692V425.883H342.459ZM339.46 423.918C339.999 423.918 340.505 423.787 340.977 423.525C341.456 423.263 341.815 422.911 342.055 422.469V420.178H340.583C339.573 420.178 338.813 420.354 338.304 420.706C337.795 421.058 337.54 421.556 337.54 422.2C337.54 422.724 337.712 423.143 338.057 423.458C338.408 423.764 338.876 423.918 339.46 423.918ZM350.545 425.883H347.816V408.633H350.545V425.883Z" fill="black"/>
<defs>
<linearGradient id="paint0_linear" x1="231.617" y1="0.175537" x2="231.617" y2="469.756" gradientUnits="userSpaceOnUse">
<stop stop-color="#F1F1F1"/>
<stop offset="1" stop-color="#BEBEBE"/>
</linearGradient>
</defs>
</svg>
