<svg width="461" height="471" viewBox="0 0 461 471" fill="none" xmlns="http://www.w3.org/2000/svg">
<rect x="0.42749" y="0.508789" width="459.933" height="469.581" rx="6" fill="url(#paint0_linear)"/>
<path d="M124.072 89.2483V46.592H137.812C141.582 46.592 144.97 47.4514 147.978 49.1702C150.986 50.8694 153.33 53.2815 155.009 56.4065C156.708 59.512 157.568 62.9983 157.587 66.8655V68.8284C157.587 72.7346 156.757 76.2405 155.097 79.3459C153.457 82.4319 151.132 84.8538 148.125 86.6116C145.136 88.3499 141.796 89.2288 138.105 89.2483H124.072ZM134.355 54.5315V81.3381H137.929C140.878 81.3381 143.144 80.2932 144.726 78.2034C146.308 76.094 147.099 72.969 147.099 68.8284V66.9827C147.099 62.8616 146.308 59.7561 144.726 57.6663C143.144 55.5764 140.839 54.5315 137.812 54.5315H134.355ZM189.316 71.1721H173.144V81.3381H192.246V89.2483H162.861V46.592H192.304V54.5315H173.144V63.5256H189.316V71.1721ZM218.437 77.9104C218.437 76.4065 217.9 75.2346 216.826 74.3948C215.771 73.5549 213.906 72.6858 211.23 71.7874C208.554 70.8889 206.367 70.0198 204.667 69.1799C199.14 66.4651 196.376 62.7346 196.376 57.9885C196.376 55.6252 197.06 53.5452 198.427 51.7483C199.814 49.9319 201.767 48.5256 204.287 47.5295C206.806 46.5139 209.638 46.0061 212.783 46.0061C215.849 46.0061 218.593 46.553 221.015 47.6467C223.457 48.7405 225.351 50.303 226.699 52.3342C228.046 54.3459 228.72 56.6506 228.72 59.2483H218.466C218.466 57.51 217.929 56.1624 216.855 55.2053C215.8 54.2483 214.365 53.7698 212.548 53.7698C210.712 53.7698 209.257 54.1799 208.183 55.0002C207.128 55.801 206.601 56.8264 206.601 58.0764C206.601 59.1702 207.187 60.1663 208.359 61.0647C209.531 61.9436 211.591 62.8616 214.541 63.8186C217.49 64.7561 219.912 65.7717 221.806 66.8655C226.416 69.5217 228.72 73.1838 228.72 77.8518C228.72 81.5823 227.314 84.512 224.501 86.6409C221.689 88.7698 217.832 89.8342 212.929 89.8342C209.472 89.8342 206.337 89.219 203.525 87.9885C200.732 86.7385 198.623 85.0393 197.197 82.8909C195.791 80.7229 195.087 78.2327 195.087 75.4202H205.4C205.4 77.7053 205.986 79.3948 207.158 80.4885C208.349 81.5627 210.273 82.0999 212.929 82.0999C214.628 82.0999 215.966 81.7385 216.943 81.0159C217.939 80.2737 218.437 79.2385 218.437 77.9104ZM260.449 71.1721H244.277V81.3381H263.378V89.2483H233.994V46.592H263.437V54.5315H244.277V63.5256H260.449V71.1721ZM283.417 74.1897H277.851V89.2483H267.568V46.592H284.355C289.414 46.592 293.369 47.7151 296.22 49.9612C299.072 52.2073 300.498 55.3811 300.498 59.4827C300.498 62.4514 299.892 64.9124 298.681 66.8655C297.49 68.8186 295.615 70.4006 293.056 71.6116L301.962 88.8088V89.2483H290.947L283.417 74.1897ZM277.851 66.2502H284.355C286.308 66.2502 287.773 65.7424 288.75 64.7268C289.746 63.6917 290.244 62.2561 290.244 60.4202C290.244 58.5842 289.746 57.1487 288.75 56.1135C287.753 55.0588 286.289 54.5315 284.355 54.5315H277.851V66.2502ZM338.73 54.5315H325.927V89.2483H315.644V54.5315H303.076V46.592H338.73V54.5315Z" fill="black"/>
<path d="M236.177 159.825H246.759V164.829H230.148V134.969H236.177V159.825ZM255.282 164.829H249.252V134.969H255.282V164.829ZM280.108 152.586C280.108 156.592 279.157 159.702 277.257 161.917C275.37 164.132 272.745 165.239 269.382 165.239C266.032 165.239 263.401 164.145 261.486 161.958C259.572 159.757 258.602 156.68 258.574 152.729V147.623C258.574 143.521 259.525 140.322 261.425 138.025C263.325 135.715 265.964 134.559 269.341 134.559C272.663 134.559 275.281 135.694 277.195 137.964C279.11 140.219 280.08 143.391 280.108 147.479V152.586ZM274.058 147.582C274.058 144.888 273.675 142.885 272.909 141.573C272.144 140.26 270.954 139.604 269.341 139.604C267.741 139.604 266.559 140.24 265.793 141.511C265.027 142.769 264.631 144.69 264.604 147.274V152.586C264.604 155.197 264.993 157.125 265.773 158.369C266.552 159.599 267.755 160.215 269.382 160.215C270.954 160.215 272.123 159.613 272.889 158.41C273.654 157.193 274.044 155.313 274.058 152.77V147.582ZM304.052 164.829H298.022L289.204 145.244V164.829H283.175V134.969H289.204L298.043 154.575V134.969H304.052V164.829Z" fill="black"/>
<path d="M61.0122 161.815H64.4883C66.7236 161.815 68.4463 161.128 69.6562 159.754C70.8662 158.38 71.4712 156.503 71.4712 154.124C71.4712 148.874 69.4409 146.249 65.3803 146.249C63.4321 146.249 61.9043 146.957 60.7968 148.372C59.6894 149.787 59.1357 151.643 59.1357 153.94H53.7217C53.7217 150.351 54.8086 147.398 56.9824 145.08C59.1767 142.743 61.976 141.574 65.3803 141.574C68.9077 141.574 71.707 142.681 73.7783 144.896C75.8496 147.09 76.8852 150.207 76.8852 154.247C76.8852 156.319 76.3418 158.257 75.2549 160.061C74.1884 161.846 72.7939 163.158 71.0713 163.999C75.2959 165.557 77.4082 169.054 77.4082 174.489C77.4082 178.488 76.2905 181.677 74.0551 184.056C71.8403 186.414 68.9384 187.593 65.3496 187.593C61.8017 187.593 58.9306 186.475 56.7363 184.24C54.5625 181.984 53.4756 178.959 53.4756 175.165H58.9204C58.9204 177.544 59.4946 179.441 60.643 180.856C61.7915 182.251 63.3603 182.948 65.3496 182.948C67.3799 182.948 68.9897 182.261 70.1792 180.887C71.3891 179.513 71.9941 177.421 71.9941 174.612C71.9941 169.177 69.4204 166.46 64.2729 166.46H61.0122V161.815Z" fill="black"/>
<path d="M232.297 188.729L233.455 177.977H244.91V181.053H236.414L235.828 186.151C236.814 185.584 237.927 185.301 239.168 185.301C241.199 185.301 242.776 185.951 243.899 187.25C245.032 188.548 245.598 190.296 245.598 192.494C245.598 194.662 244.973 196.39 243.723 197.679C242.473 198.958 240.759 199.598 238.582 199.598C236.629 199.598 235.007 199.046 233.718 197.943C232.439 196.83 231.746 195.365 231.638 193.548H235.081C235.217 194.583 235.589 195.379 236.194 195.936C236.799 196.483 237.59 196.756 238.567 196.756C239.661 196.756 240.51 196.366 241.116 195.584C241.731 194.803 242.039 193.739 242.039 192.391C242.039 191.092 241.702 190.067 241.028 189.315C240.354 188.553 239.426 188.172 238.245 188.172C237.6 188.172 237.053 188.26 236.604 188.436C236.155 188.602 235.667 188.934 235.139 189.432L232.297 188.729ZM272.493 187.792C272.493 189.51 272.029 190.917 271.101 192.01C270.173 193.094 269.016 193.636 267.63 193.636C266.907 193.636 266.238 193.5 265.623 193.226C265.017 192.953 264.339 192.484 263.587 191.82C262.835 191.146 262.293 190.731 261.961 190.575C261.638 190.409 261.292 190.326 260.921 190.326C260.266 190.326 259.749 190.58 259.368 191.087C258.997 191.595 258.811 192.259 258.811 193.08H255.984C255.984 191.41 256.428 190.042 257.317 188.978C258.206 187.904 259.373 187.367 260.818 187.367C261.541 187.367 262.224 187.513 262.869 187.806C263.523 188.089 264.202 188.553 264.905 189.198C265.618 189.842 266.135 190.248 266.458 190.414C266.79 190.58 267.146 190.663 267.527 190.663C268.181 190.663 268.714 190.389 269.124 189.842C269.534 189.295 269.739 188.612 269.739 187.792H272.493ZM287.405 187.015H289.573C290.667 187.005 291.531 186.722 292.166 186.166C292.81 185.609 293.132 184.803 293.132 183.749C293.132 182.733 292.864 181.947 292.327 181.39C291.799 180.824 290.989 180.541 289.895 180.541C288.938 180.541 288.152 180.819 287.537 181.375C286.922 181.922 286.614 182.64 286.614 183.529H283.054C283.054 182.435 283.342 181.439 283.919 180.541C284.505 179.642 285.315 178.944 286.35 178.446C287.395 177.938 288.562 177.684 289.851 177.684C291.98 177.684 293.65 178.221 294.861 179.295C296.082 180.36 296.692 181.844 296.692 183.749C296.692 184.706 296.384 185.609 295.769 186.458C295.164 187.298 294.378 187.933 293.411 188.363C294.583 188.763 295.471 189.393 296.077 190.252C296.692 191.112 297 192.137 297 193.329C297 195.243 296.34 196.766 295.022 197.899C293.714 199.032 291.99 199.598 289.851 199.598C287.8 199.598 286.121 199.051 284.812 197.958C283.504 196.864 282.849 195.409 282.849 193.592H286.409C286.409 194.53 286.721 195.292 287.346 195.877C287.981 196.463 288.831 196.756 289.895 196.756C290.999 196.756 291.868 196.463 292.503 195.877C293.137 195.292 293.455 194.442 293.455 193.329C293.455 192.206 293.123 191.341 292.459 190.736C291.795 190.13 290.808 189.828 289.5 189.828H287.405V187.015Z" fill="black"/>
<path fill-rule="evenodd" clip-rule="evenodd" d="M113.675 143.485C111.152 145.151 110.21 148.416 110.054 149.84C112.37 150.35 117.502 151.148 119.507 150.266C121.512 149.383 122.735 146.628 123.096 145.36C123.874 144.053 126.443 141.712 130.495 142.806C135.559 144.173 134.112 146.666 132.72 147.537C132.463 147.698 132.001 147.993 131.399 148.377L131.399 148.377C128.733 150.08 123.328 153.533 120.93 154.765C117.991 156.274 110.44 162.921 109.914 163.647C109.388 164.373 109.605 166.579 110.44 168.553C111.276 170.526 115.732 174.184 119.785 174.329C122.946 174.442 127.007 172.057 129.752 170.444L129.753 170.444C130.528 169.989 131.198 169.595 131.713 169.337C134.054 168.163 135.669 169.753 136.718 171.116C137.767 172.479 136.234 177.59 135.669 178.196C135.405 178.478 134.528 178.728 133.564 179.002C132.46 179.316 131.243 179.662 130.704 180.127C130.101 180.647 129.902 182.505 129.744 183.973C129.638 184.963 129.551 185.775 129.372 185.881C128.928 186.146 127.919 187.812 127.718 189.44C127.613 190.282 127.207 190.931 126.799 191.582C126.419 192.19 126.038 192.799 125.901 193.567C125.675 194.839 126.845 196.797 127.458 197.618H136.234C136.583 197.706 137.307 197.58 137.404 196.368C137.497 195.209 136.076 194.582 134.861 194.047L134.861 194.047C134.489 193.882 134.136 193.727 133.852 193.567C133.091 193.138 133.399 191.782 133.782 190.091C134.009 189.092 134.262 187.976 134.337 186.866C134.507 184.342 138.039 183.355 140.957 182.539L140.958 182.539C141.498 182.388 142.017 182.243 142.489 182.095C144.911 181.338 148.476 175.823 149.956 173.16L164.082 171.495C166.302 172.643 170.959 175.061 171.831 175.546C172.703 176.03 177.495 177.312 179.782 177.893C180.064 178.65 180.88 180.157 181.88 180.127C183.132 180.089 191.567 177.969 191.446 174.94C191.325 171.911 184.706 171.722 182.365 171.798C180.024 171.873 175.948 168.693 175.827 167.065C175.73 165.763 180.306 165.311 182.607 165.248C183.064 166.724 184.213 169.693 185.15 169.753C186.32 169.829 199.074 170.51 200.332 170.207C201.59 169.905 206.177 164.907 206.661 162.631C207.146 160.355 203.392 159.554 202.181 159.554C201.399 159.554 199.943 160.92 198.901 161.896C198.331 162.431 197.885 162.849 197.742 162.863C197.419 162.893 192.939 162.721 190.739 162.631C190.677 161.944 190.56 160.367 190.585 159.554C190.616 158.538 191.915 155.462 193.339 155.229C194.047 155.114 194.878 155.652 195.774 156.233C196.679 156.82 197.651 157.45 198.63 157.493C200.579 157.58 201.446 155.403 201.105 154.997C200.833 154.672 200.476 153.217 200.332 152.53C199.837 152.781 198.525 153.354 197.237 153.633C195.628 153.981 195.721 152.181 196.681 150.004C197.448 148.263 199.434 148.853 200.332 149.366L201.662 151.717C201.729 151.311 202.096 150.563 203.03 150.826C204.198 151.155 205.833 148.854 205.833 146.225C205.833 144.121 198.669 138.555 195.087 136.035L193.102 134.61C193.102 134.61 190.415 133.296 189.714 133.296C189.154 133.296 188.157 132.93 187.729 132.748L179.903 132.09L178.151 133.296H173.829C172.614 133.296 172.466 134.172 172.544 134.61L170.792 136.035L167.288 136.692C166.237 137.897 163.994 140.461 163.434 141.075C162.873 141.688 161.175 141.915 160.397 141.951V147.539C157.321 150.607 150.562 157.028 148.132 158.167C145.703 159.307 141.202 159.3 139.255 159.154C138.321 160.176 134.653 163.361 127.458 167.919C119.879 172.72 118.438 171.453 115.166 168.574C114.556 168.037 113.881 167.444 113.091 166.823C109.871 164.294 119.856 158.026 128.021 152.901C132.591 150.033 136.59 147.522 137.386 146.225C139.473 142.824 134.95 141.943 131.198 141.213C130.96 141.166 130.725 141.121 130.495 141.075C127.411 140.461 123.058 142.061 121.267 142.938C119.788 142.426 116.198 141.82 113.675 143.485ZM158.675 197.996H148.391C147.84 197.996 146.689 197.837 146.496 197.201C146.302 196.563 147.121 193.436 147.535 191.855L147.535 191.855L147.535 191.855C147.637 191.467 147.714 191.172 147.746 191.03C147.907 190.311 147.141 188.191 145.73 188.191C144.6 188.191 143.727 185.843 143.431 184.67C144.641 183.572 147.278 181.156 148.149 180.278C149.02 179.4 150.583 176.404 151.255 175.016L156.981 174.221C157.546 174.915 158.675 176.787 158.675 178.726C158.675 181.149 156.497 183.155 155.489 183.723L155.458 183.741C154.431 184.319 151.973 185.703 151.255 186.828C150.623 187.817 151.274 189.264 151.773 190.372C151.847 190.537 151.918 190.694 151.981 190.841C152.465 191.977 155.005 194.021 157.264 194.324C159.07 194.566 158.957 196.873 158.675 197.996ZM193.004 140.377H196.572L194.308 142.954L193.004 140.377Z" fill="black"/>
<path d="M250.451 265.135C249.289 266.393 247.86 267.343 246.165 267.986C244.483 268.615 242.637 268.929 240.628 268.929C237.196 268.929 234.53 267.869 232.63 265.75C230.729 263.617 229.752 260.521 229.697 256.46V251.087C229.697 246.972 230.592 243.807 232.383 241.592C234.188 239.364 236.813 238.249 240.258 238.249C243.499 238.249 245.939 239.049 247.58 240.649C249.234 242.248 250.191 244.757 250.451 248.175H244.586C244.422 246.275 244.025 244.983 243.396 244.299C242.767 243.602 241.783 243.253 240.443 243.253C238.816 243.253 237.633 243.848 236.895 245.037C236.157 246.227 235.774 248.12 235.747 250.718V256.132C235.747 258.853 236.15 260.835 236.957 262.079C237.777 263.31 239.117 263.925 240.976 263.925C242.166 263.925 243.13 263.686 243.868 263.207L244.401 262.838V257.363H240.176V252.81H250.451V265.135ZM262.5 257.609H259.506V268.519H253.477V238.659H263.095C266.117 238.659 268.448 239.446 270.088 241.018C271.743 242.576 272.57 244.798 272.57 247.683C272.57 251.648 271.127 254.423 268.243 256.009L273.472 268.232V268.519H266.992L262.5 257.609ZM259.506 252.584H262.931C264.134 252.584 265.037 252.188 265.638 251.395C266.24 250.588 266.54 249.515 266.54 248.175C266.54 245.181 265.371 243.684 263.034 243.684H259.506V252.584ZM281.748 268.519H275.719V238.659H281.748V268.519ZM300.955 256.337H291.583V268.519H285.554V238.659H302.083V243.684H291.583V251.333H300.955V256.337ZM319.67 256.337H310.298V268.519H304.268V238.659H320.798V243.684H310.298V251.333H319.67V256.337ZM344.003 256.276C344.003 260.281 343.053 263.392 341.153 265.607C339.266 267.822 336.641 268.929 333.278 268.929C329.928 268.929 327.296 267.835 325.382 265.648C323.468 263.447 322.497 260.37 322.47 256.419V251.313C322.47 247.211 323.42 244.012 325.321 241.715C327.221 239.405 329.86 238.249 333.237 238.249C336.559 238.249 339.177 239.384 341.091 241.654C343.005 243.909 343.976 247.081 344.003 251.169V256.276ZM337.954 251.272C337.954 248.578 337.571 246.575 336.805 245.263C336.039 243.95 334.85 243.294 333.237 243.294C331.637 243.294 330.455 243.93 329.689 245.201C328.923 246.459 328.527 248.38 328.499 250.964V256.276C328.499 258.887 328.889 260.815 329.668 262.059C330.448 263.289 331.651 263.905 333.278 263.905C334.85 263.905 336.019 263.303 336.785 262.1C337.55 260.883 337.94 259.003 337.954 256.46V251.272ZM367.947 268.519H361.918L353.1 248.934V268.519H347.07V238.659H353.1L361.939 258.265V238.659H367.947V268.519Z" fill="black"/>
<path d="M79.1001 290.668H54.06V286.577L66.8261 269.658C68.7539 267.053 70.0869 264.92 70.8252 263.259C71.584 261.578 71.9634 259.804 71.9634 257.937C71.9634 255.558 71.4096 253.631 70.3022 252.154C69.1948 250.678 67.7387 249.939 65.9341 249.939C63.6577 249.939 61.894 250.729 60.643 252.308C59.4126 253.867 58.7973 256.122 58.7973 259.076H53.3525C53.3525 254.953 54.4804 251.621 56.7363 249.078C58.9922 246.535 62.0581 245.264 65.9341 245.264C69.5024 245.264 72.312 246.361 74.3628 248.555C76.4135 250.729 77.4389 253.631 77.4389 257.261C77.4389 261.69 75.1318 266.93 70.5176 272.98L60.5508 286.023H79.1001V290.668Z" fill="black"/>
<path d="M232.297 292.419L233.455 281.667H244.91V284.743H236.414L235.828 289.841C236.814 289.274 237.927 288.991 239.168 288.991C241.199 288.991 242.776 289.641 243.899 290.939C245.032 292.238 245.598 293.986 245.598 296.184C245.598 298.352 244.973 300.08 243.723 301.369C242.473 302.648 240.759 303.288 238.582 303.288C236.629 303.288 235.007 302.736 233.718 301.633C232.439 300.52 231.746 299.055 231.638 297.238H235.081C235.217 298.273 235.589 299.069 236.194 299.626C236.799 300.173 237.59 300.446 238.567 300.446C239.661 300.446 240.51 300.056 241.116 299.274C241.731 298.493 242.039 297.429 242.039 296.081C242.039 294.782 241.702 293.757 241.028 293.005C240.354 292.243 239.426 291.862 238.245 291.862C237.6 291.862 237.053 291.95 236.604 292.126C236.155 292.292 235.667 292.624 235.139 293.122L232.297 292.419ZM260.33 303.505L263.54 293.965L255.8 288.775H265.28L268.67 278.545L272.12 288.775H281.54L273.8 293.965L277.07 303.505L268.67 297.415L260.33 303.505ZM304.177 295.393H306.829V298.249H304.177V302.995H300.618V298.249H291.404L291.301 296.081L300.501 281.667H304.177V295.393ZM295.037 295.393H300.618V286.486L300.354 286.955L295.037 295.393Z" fill="black"/>
<path fill-rule="evenodd" clip-rule="evenodd" d="M136.403 245.221L130.745 247.412H120.239L119.546 250.699C118.16 250.261 115.389 249.932 115.389 252.124V257.383C115.813 256.178 116.867 253.701 117.699 253.438C118.53 253.176 119.738 255.52 120.239 256.726H128.552L124.972 258.04C124.626 259.72 123.933 263.322 123.933 264.286C123.933 265.25 124.626 269.289 124.972 271.188C126.166 271.773 128.552 273.205 128.552 274.256C128.552 275.308 129.475 277.616 129.937 278.639C130.976 279.187 133.17 280.326 133.632 280.502C134.094 280.677 134.594 285.615 134.786 288.062L128.552 286.309L123.933 290.253L123.241 293.431L126.127 290.253H127.974V292.664L126.704 297.704L128.552 299.676V296.937L129.937 292.664L133.632 293.431L132.939 296.389L135.595 295.403L137.211 291.787L134.209 290.253L137.211 288.062V285.323L141.829 283.46C142.561 281.086 144.023 276.47 144.023 276.996V283.46L158.34 284.227C159.033 286.747 160.534 291.787 160.996 291.787C161.457 291.787 165.806 292.883 167.923 293.431C168.924 293.979 171.017 295.337 171.387 296.389C171.849 297.704 172.31 299.895 172.541 301.1C172.726 302.065 171.849 303.694 171.387 304.387V307.346H181.547V300.443C181.547 300.095 180.952 300.131 180.281 300.171C179.474 300.219 178.556 300.274 178.43 299.676C178.334 299.221 178.417 298.633 178.506 298.007L178.506 298.007C178.631 297.127 178.767 296.171 178.43 295.403C177.968 294.351 177.622 293.139 177.506 292.664L172.541 290.253L171.387 280.502C175.389 284.264 185.565 291.787 194.248 291.787C203.782 291.787 203.604 288.405 203.42 284.909C203.394 284.425 203.369 283.939 203.369 283.46C203.369 280.055 198.549 277.221 196.861 276.228C196.594 276.071 196.405 275.96 196.326 275.9C195.864 275.549 191.13 274.658 188.821 274.256V269.655C188.821 270.268 185.665 272.102 184.087 272.942C184.01 271.846 183.695 269.655 183.048 269.655C182.402 269.655 179.7 268.851 178.43 268.449C178.122 269.362 177.691 271.188 178.43 271.188C179.169 271.188 179.507 273.234 179.584 274.256C180.008 274.439 180.993 275.023 181.547 275.9C182.101 276.776 183.471 276.996 184.087 276.996L186.05 275.9L186.627 276.996H195.056C197.096 278.128 201.152 281.159 201.06 284.227C201.054 284.419 201.049 284.604 201.045 284.782C200.96 288.158 200.938 289.053 194.248 289.158C188.896 289.241 184.944 285.718 181.531 282.675C180.452 281.713 179.428 280.8 178.43 280.063C175.105 277.609 170.963 275.169 169.309 274.256H166.307C164.844 274.183 161.734 273.818 160.996 272.942C160.694 272.584 160.022 272.109 159.347 271.631C157.957 270.648 156.552 269.655 158.34 269.655C160.151 269.655 161.694 269.094 162.675 268.737L162.675 268.737C163.132 268.571 163.467 268.449 163.651 268.449C164.113 268.449 165.614 266.477 166.307 265.491L175.543 264.286L171.387 262.533L172.541 261.108L188.821 260.67C184.434 259.793 175.843 258.04 176.582 258.04C177.321 258.04 188.205 257.164 193.555 256.726C189.052 255.63 180.346 253.438 181.547 253.438C182.748 253.438 193.978 251.612 199.443 250.699C194.055 250.188 183.556 248.99 184.665 248.289C185.773 247.588 197.596 245.951 203.369 245.221C197.019 245.075 185.08 244.651 188.128 244.125C191.938 243.468 195.864 241.824 201.06 238.976C205.216 236.697 206.409 233.424 206.486 232.073C205.216 233.096 202.353 235.36 201.06 236.236C199.632 237.204 197.483 237.83 194.693 238.643C194.324 238.75 193.945 238.861 193.555 238.976C191.117 239.694 188.372 239.366 186.436 239.135C185.714 239.048 185.104 238.976 184.665 238.976C183.371 238.976 183.048 237.149 183.048 236.236C179.469 236.054 171.71 236.017 169.309 237.332C166.907 238.647 162.766 238.976 160.996 238.976C159.302 237.697 154.899 235.36 150.835 236.236C145.755 237.332 142.984 238.647 142.984 242.263C142.984 245.155 147.371 246.901 149.565 247.412C149.835 247.084 150.212 247.281 149.565 250.699C149.268 252.269 149.906 253.468 150.488 254.565C151.492 256.454 152.332 258.035 147.949 260.67C143.138 263.561 141.112 264.128 140.051 264.424C139.585 264.555 139.305 264.633 139.058 264.834C138.412 265.359 135.941 265.491 134.786 265.491L138.366 262.533V257.383V253.438L134.209 252.124L132.939 248.837L136.403 245.221ZM121.655 249.607H128.659L122.053 251.552L121.655 249.607ZM152.744 285.727H157.412C157.93 286.472 158.226 288.067 158.289 288.491C158.369 289.021 159.446 292.012 159.686 292.315C159.823 292.488 160.689 292.735 161.517 292.972C162.139 293.149 162.741 293.321 162.997 293.451C163.301 293.604 164.765 294.099 166.17 294.574C167.534 295.035 168.844 295.478 168.981 295.571C169.261 295.76 168.941 298.751 168.702 299.281C168.511 299.705 169.287 300.417 169.699 300.72L169.5 304.127H161.042C160.856 303.597 160.492 302.499 160.524 302.348C160.563 302.158 163.197 300.568 163.915 300.19C164.633 299.811 165.112 297.956 165.231 297.426C165.327 297.002 163.383 295.255 162.399 294.435C161.016 294.22 158.146 293.723 157.731 293.451C157.504 293.301 156.948 293.072 156.367 292.833L156.367 292.833C155.623 292.527 154.838 292.204 154.659 292.012C154.404 291.739 153.276 287.709 152.744 285.727ZM132.437 284.932C132.437 283.993 132.225 281.512 132.158 280.957L128.847 280.124L127.57 277.398C126.839 278.509 125.32 280.776 125.097 280.957C124.874 281.139 122.131 281.033 120.788 280.957C121.107 279.884 121.746 277.633 121.746 277.209C121.746 276.679 121.147 274.521 120.429 273.688C120.324 273.566 120.215 273.437 120.104 273.307C119.461 272.551 118.757 271.724 118.315 271.53C117.9 271.348 116.493 271.177 115.841 271.114C116.413 271.669 117.597 272.794 117.756 272.855C117.956 272.931 118.953 273.385 119.113 273.991C119.24 274.475 119.166 275.884 119.113 276.527L114.764 273.385C113.993 273.284 112.378 273.143 112.091 273.385C111.804 273.627 111.307 274.193 111.094 274.445L112.53 274.824C112.929 274.874 113.83 275.021 114.245 275.202C114.562 275.341 115.22 275.804 115.704 276.144C116.012 276.361 116.249 276.527 116.28 276.527C116.36 276.527 116.719 277.587 116.679 277.777C116.647 277.928 113.155 278.067 111.413 278.118L109.977 279.632L109.657 281.298L111.094 280.616C111.067 280.288 111.317 279.632 112.53 279.632H115.841C116.453 280.44 117.74 282.153 117.995 282.547C118.251 282.941 118.847 284.73 119.113 285.576C118.315 285.765 116.631 286.129 116.28 286.068C115.929 286.007 114.937 284.882 114.485 284.327C114.338 284.831 114.046 285.886 114.046 286.068C114.046 286.295 115.402 287.81 115.841 287.885C116.16 287.94 117.894 287.915 119.122 287.898C119.583 287.891 119.972 287.885 120.19 287.885C120.988 287.885 122.903 286.825 122.663 286.068C122.472 285.462 121.573 283.872 121.147 283.153H126.214L132.437 284.932Z" fill="black"/>
<path d="M251.087 372.209H245.078V359.432H236.177V372.209H230.148V342.349H236.177V354.428H245.078V342.349H251.087V372.209ZM263.116 355.761L267.607 342.349H274.169L266.171 361.381V372.209H260.06V361.381L252.041 342.349H258.604L263.116 355.761ZM275.657 372.209V342.349H283.553C287.039 342.349 289.815 343.457 291.879 345.672C293.957 347.886 295.017 350.922 295.058 354.777V359.617C295.058 363.541 294.019 366.624 291.941 368.866C289.876 371.094 287.026 372.209 283.389 372.209H275.657ZM281.687 347.374V367.205H283.491C285.501 367.205 286.916 366.678 287.736 365.626C288.557 364.559 288.987 362.727 289.028 360.13V354.941C289.028 352.152 288.639 350.211 287.86 349.117C287.08 348.01 285.754 347.428 283.881 347.374H281.687ZM307.189 361.299H304.195V372.209H298.166V342.349H307.784C310.806 342.349 313.137 343.135 314.777 344.708C316.432 346.266 317.259 348.488 317.259 351.373C317.259 355.338 315.816 358.113 312.932 359.699L318.161 371.922V372.209H311.681L307.189 361.299ZM304.195 356.274H307.62C308.823 356.274 309.725 355.878 310.327 355.085C310.929 354.278 311.229 353.205 311.229 351.865C311.229 348.871 310.06 347.374 307.723 347.374H304.195V356.274ZM334.394 366.097H326.171L324.571 372.209H318.193L327.524 342.349H333.041L342.433 372.209H335.994L334.394 366.097ZM327.483 361.073H333.061L330.272 350.429L327.483 361.073Z" fill="black"/>
<path d="M240.984 406.685H237.439V389.561L232.21 391.348V388.345L240.53 385.284H240.984V406.685ZM262.297 397.706C262.297 400.772 261.721 403.086 260.569 404.649C259.426 406.202 257.683 406.978 255.339 406.978C253.035 406.978 251.297 406.221 250.125 404.708C248.963 403.184 248.367 400.933 248.338 397.955V394.263C248.338 391.197 248.909 388.897 250.051 387.364C251.204 385.831 252.957 385.064 255.31 385.064C257.644 385.064 259.382 385.811 260.525 387.305C261.677 388.799 262.268 391.036 262.297 394.014V397.706ZM258.738 393.721C258.738 391.719 258.464 390.254 257.918 389.327C257.371 388.389 256.502 387.92 255.31 387.92C254.148 387.92 253.294 388.365 252.747 389.253C252.2 390.132 251.912 391.509 251.882 393.384V398.218C251.882 400.21 252.161 401.695 252.717 402.671C253.274 403.648 254.148 404.136 255.339 404.136C256.482 404.136 257.327 403.687 257.874 402.789C258.421 401.88 258.709 400.464 258.738 398.541V393.721ZM273.451 410.885C273.251 410.885 273.151 410.785 273.151 410.585C273.151 410.485 273.171 410.425 273.211 410.405L283.621 399.065L273.031 395.945C272.911 395.905 272.851 395.815 272.851 395.675C272.851 395.535 272.891 395.455 272.971 395.435L296.641 380.975C296.681 380.955 296.731 380.945 296.791 380.945C296.851 380.945 296.911 380.965 296.971 381.005C297.051 381.045 297.091 381.115 297.091 381.215C297.091 381.295 297.061 381.365 297.001 381.425L286.621 392.735L297.241 395.405C297.381 395.445 297.451 395.515 297.451 395.615C297.451 395.755 297.401 395.855 297.301 395.915L273.601 410.825C273.561 410.865 273.511 410.885 273.451 410.885ZM312.161 394.395H314.329C315.422 394.385 316.287 394.102 316.922 393.545C317.566 392.989 317.888 392.183 317.888 391.128C317.888 390.113 317.62 389.327 317.083 388.77C316.555 388.204 315.745 387.92 314.651 387.92C313.694 387.92 312.908 388.199 312.293 388.755C311.677 389.302 311.37 390.02 311.37 390.909H307.81C307.81 389.815 308.098 388.819 308.674 387.92C309.26 387.022 310.071 386.324 311.106 385.826C312.151 385.318 313.318 385.064 314.607 385.064C316.736 385.064 318.406 385.601 319.617 386.675C320.838 387.74 321.448 389.224 321.448 391.128C321.448 392.085 321.14 392.989 320.525 393.838C319.92 394.678 319.133 395.313 318.167 395.743C319.339 396.143 320.227 396.773 320.833 397.632C321.448 398.492 321.755 399.517 321.755 400.708C321.755 402.623 321.096 404.146 319.778 405.279C318.469 406.412 316.746 406.978 314.607 406.978C312.556 406.978 310.877 406.431 309.568 405.337C308.259 404.244 307.605 402.789 307.605 400.972H311.165C311.165 401.91 311.477 402.671 312.102 403.257C312.737 403.843 313.587 404.136 314.651 404.136C315.755 404.136 316.624 403.843 317.258 403.257C317.893 402.671 318.211 401.822 318.211 400.708C318.211 399.585 317.879 398.721 317.214 398.116C316.55 397.51 315.564 397.208 314.255 397.208H312.161V394.395Z" fill="black"/>
<path fill-rule="evenodd" clip-rule="evenodd" d="M137.454 377.802C137.338 377.603 137.245 377.443 136.911 377.257C136.635 377.104 136.305 376.929 135.955 376.743L135.955 376.743C134.832 376.148 133.503 375.444 133.111 375.002C132.817 374.672 132.273 374.321 131.752 373.985C131.358 373.731 130.977 373.485 130.728 373.264C130.264 372.851 129.289 371.417 128.86 370.752C128.516 370.73 127.688 370.945 127.121 371.975C126.554 373.006 125.726 374.079 125.382 374.487C125.06 374.681 124.274 375.286 123.708 376.162C122.999 377.257 120.23 378.03 119.908 378.094C119.586 378.158 117.847 378.03 117.46 377.643C117.351 377.534 117.221 377.461 117.088 377.386C116.751 377.195 116.393 376.994 116.301 376.162C116.198 375.234 116.258 374.101 116.301 373.65C115.764 373.5 114.626 373.38 114.369 374.101C114.233 374.48 114.087 375.03 113.943 375.569C113.745 376.311 113.552 377.033 113.403 377.257C113.33 377.366 113.103 377.424 112.805 377.5C112.048 377.693 110.828 378.003 110.504 379.575C110.054 381.765 109.538 384.341 109.86 384.857C110.118 385.269 111.814 385.415 112.63 385.436L115.335 387.24C115.314 386.317 115.374 384.38 115.786 384.019C116.301 383.569 117.847 382.216 118.877 382.216C119.223 382.216 119.584 382.347 119.941 382.476C120.65 382.733 121.348 382.986 121.904 382.216C122.742 381.057 123.708 380.091 124.094 380.477C124.403 380.786 128.903 382.538 131.115 383.375H125.382C125.232 384.32 124.88 386.312 124.674 386.725C124.468 387.137 123.085 388.442 122.42 389.043C121.797 389.022 120.488 388.914 120.23 388.657C119.972 388.399 119.221 387.605 118.877 387.24C118.405 387.669 117.538 388.631 117.847 389.043C118.044 389.306 118.492 389.635 118.926 389.955L118.926 389.955C119.344 390.263 119.75 390.561 119.908 390.782C120.23 391.233 120.874 391.233 121.904 391.233C122.261 391.233 122.942 391.326 123.714 391.431L123.714 391.431L123.714 391.431C125.174 391.629 126.96 391.872 127.508 391.619C127.922 391.428 128.698 390.481 129.494 389.51C130.308 388.518 131.141 387.5 131.63 387.24C132.596 386.725 133.691 385.694 134.27 384.857C134.85 384.019 135.494 383.375 136.009 383.375C136.525 383.375 141.098 383.955 142.257 384.406C143.416 384.857 146.572 384.535 147.023 383.375C147.384 382.448 147.774 381.787 147.925 381.572C149.191 381.787 151.802 382.216 152.111 382.216C152.497 382.216 153.85 384.148 153.528 385.436C153.27 386.467 152.261 388.27 151.789 389.043C150.801 389.172 148.646 389.352 147.925 389.043C147.854 389.013 147.772 388.977 147.683 388.938C146.634 388.482 144.404 387.513 143.159 387.691C141.806 387.884 138.586 390.009 138.715 391.619C138.818 392.908 139.015 394.432 139.101 395.033C139.616 394.153 140.647 392.47 140.647 392.779C140.647 393.088 141.72 395.097 142.257 396.063C142.751 395.334 143.738 393.99 143.738 394.453C143.738 394.545 143.729 394.699 143.717 394.889V394.89V394.89C143.653 395.906 143.525 397.962 144.447 397.094C145.323 396.27 146.529 394.26 147.023 393.358C150.136 393.874 156.491 394.75 157.006 394.131C157.65 393.358 158.423 391.491 158.423 390.782C158.423 390.423 158.87 390.13 159.369 389.803C159.855 389.484 160.39 389.133 160.613 388.657C160.902 388.037 161.217 387.788 161.644 387.452C161.883 387.264 162.157 387.048 162.48 386.725C163.382 385.823 163.704 385.436 163.575 384.406C163.472 383.581 165.851 382.603 167.053 382.216C166.903 380.799 166.615 377.746 166.667 376.87C166.731 375.775 166.989 374.809 167.569 373.65C167.738 373.312 167.83 372.979 167.916 372.67L167.916 372.67C168.125 371.918 168.296 371.302 169.436 371.074C171.047 370.752 172.399 370.43 173.172 370.236C173.686 370.108 174.569 370.15 175.464 370.193C175.915 370.215 176.368 370.236 176.779 370.236C177.758 370.236 179.419 370.58 180.128 370.752L180.965 373.264C179.205 372.834 175.581 371.975 175.169 371.975C174.756 371.975 172.378 372.405 171.24 372.619C170.853 373.027 170.016 374.075 169.758 375.002C169.608 375.543 169.472 375.719 169.35 375.878C169.21 376.059 169.089 376.217 168.986 376.87C168.94 377.158 168.873 377.431 168.808 377.7C168.595 378.573 168.394 379.393 168.986 380.477C169.478 381.379 169.735 382.047 169.94 382.578C170.057 382.882 170.157 383.141 170.274 383.375C170.383 383.594 170.403 383.873 170.425 384.175C170.468 384.763 170.517 385.441 171.24 385.952C172.116 386.57 172.893 387.068 173.172 387.24L174.718 388.657C173.344 388.399 170.364 387.91 169.436 388.013C169.258 388.032 169.062 388.052 168.858 388.073H168.858L168.858 388.073C167.734 388.187 166.33 388.33 165.894 388.657C165.71 388.795 165.418 388.909 165.098 389.033C164.526 389.256 163.865 389.513 163.575 390.009C163.419 390.277 163.239 390.491 163.071 390.691C162.755 391.068 162.48 391.395 162.48 391.941C162.48 392.398 162.269 392.932 162.078 393.417C161.918 393.821 161.772 394.19 161.772 394.453C161.772 394.917 162.974 396.106 163.575 396.643C164.112 395.698 165.198 393.874 165.25 394.131C165.301 394.389 165.701 395.527 165.894 396.063L168.084 393.745C168.127 394.604 168.367 396.27 168.986 396.063C169.604 395.857 170.746 394.904 171.24 394.453C171.283 394.26 171.626 393.99 172.657 394.453C173.249 394.72 173.895 394.809 174.483 394.891C175.175 394.987 175.787 395.071 176.135 395.419C176.385 395.67 176.47 395.764 176.541 395.843C176.652 395.967 176.728 396.052 177.358 396.643C177.683 396.947 177.809 397.213 177.915 397.434C178.144 397.917 178.274 398.189 180.128 398.189C181.119 398.189 181.972 398.241 182.74 398.287C184.069 398.368 185.145 398.434 186.246 398.189C187.985 397.802 188.629 395.613 188.629 395.033C188.629 394.594 187.963 393.747 187.529 393.195L187.529 393.195C187.39 393.019 187.275 392.872 187.213 392.779C187.171 392.717 187.118 392.643 187.059 392.56L187.058 392.56C186.746 392.125 186.246 391.431 186.246 390.782C186.246 390.406 186.033 390.046 185.829 389.7C185.613 389.335 185.407 388.988 185.474 388.657C185.517 388.442 185.574 388.242 185.631 388.041C185.746 387.64 185.86 387.24 185.86 386.725C185.86 386.106 186.118 384.663 186.246 384.019C186.311 384.492 186.517 385.694 186.826 386.725C186.984 387.252 187.035 387.952 187.083 388.626C187.153 389.598 187.219 390.516 187.599 390.782C187.844 390.953 188.116 391.088 188.378 391.216C188.805 391.426 189.203 391.622 189.402 391.941C189.462 392.038 189.527 392.129 189.593 392.223C189.881 392.632 190.199 393.083 190.304 394.131C190.322 394.306 190.396 394.578 190.489 394.921L190.489 394.921C191.085 397.113 192.467 402.193 184.894 403.084C180.177 403.639 177.011 401.896 174.147 400.321C171.693 398.971 169.461 397.743 166.667 398.189C162.481 398.857 160.758 400.264 159.199 401.537C158.504 402.105 157.841 402.646 157.006 403.084C155.466 403.89 154.49 403.319 153.352 402.654C152.491 402.151 151.538 401.593 150.179 401.538C147.654 401.435 146.508 404.629 146.25 406.24C146.722 404.909 148.079 402.414 149.728 403.084C150.402 403.358 150.821 403.859 151.24 404.36C152.102 405.391 152.963 406.42 156.04 405.467C157.897 404.891 159.361 404.008 160.678 403.213C162.604 402.051 164.215 401.079 166.28 401.538C167.354 401.777 168.594 402.746 170.104 403.927L170.104 403.927L170.104 403.927C173.484 406.57 178.217 410.271 185.474 409.202C195.972 407.657 196.101 407.528 198.87 402.504C200.658 399.26 200.916 396.151 201.065 394.354C201.146 393.369 201.195 392.779 201.446 392.779C202.155 392.779 205.504 392.457 205.826 391.233C206.148 390.009 206.985 386.467 206.212 384.019C206.084 383.612 205.976 383.27 205.884 382.975C205.42 381.499 205.322 381.186 204.731 379.575C204.578 379.157 204.442 378.828 204.327 378.549L204.326 378.548L204.326 378.548C203.91 377.54 203.757 377.168 203.958 375.453C204.023 374.904 204.1 374.44 204.167 374.032L204.167 374.031L204.167 374.031C204.369 372.811 204.489 372.087 203.958 371.074C203.72 370.619 203.664 370.244 203.613 369.908C203.514 369.244 203.437 368.731 202.026 368.047C201.767 367.921 201.52 367.803 201.285 367.69C199.594 366.882 198.518 366.367 197.84 365.406C197.371 364.742 196.832 363.109 196.393 361.781L196.393 361.781L196.393 361.781C196.109 360.918 195.866 360.185 195.714 359.931C195.328 359.287 195.07 358.965 193.718 358.772C193.413 358.729 193.158 358.698 192.925 358.67C192.126 358.575 191.602 358.513 190.304 358.064C189.982 357.952 189.698 357.864 189.446 357.787C188.391 357.461 187.911 357.313 187.599 356.325C187.406 355.713 187.406 355.326 187.406 354.875C187.406 354.425 187.406 353.909 187.213 353.04C187.096 352.513 187.12 352.017 187.142 351.581C187.192 350.579 187.225 349.903 185.474 349.948C184.526 349.973 183.771 350.116 183.153 350.233C182.133 350.427 181.487 350.55 180.965 349.948C180.295 349.175 180.128 348.467 180.128 348.209C180.858 346.599 182.047 343.598 180.965 344.474C180.33 344.988 179.724 345.558 179.092 346.153L179.092 346.153L179.092 346.153C178.378 346.825 177.633 347.526 176.779 348.209C175.169 349.497 173.687 350.464 173.172 350.464C172.76 350.464 174.331 346.9 175.169 345.118C174.009 345.397 171.6 346.264 171.24 347.501C170.789 349.047 170.08 350.592 169.758 351.108C169.501 351.52 168.835 352.138 168.535 352.396C167.912 352.224 166.667 351.803 166.667 351.494C166.667 351.185 166.925 348.703 167.053 347.501C166.238 348.338 164.451 350.489 163.833 352.396C163.215 354.302 162.201 356.41 161.772 357.226L160.162 356.325C160.14 354.993 160.02 352.473 159.711 353.04C159.325 353.748 158.423 356.389 158.165 357.226C157.908 358.064 154.43 358.064 153.979 358.064C153.831 358.064 153.676 357.987 153.519 357.91C153.197 357.751 152.865 357.588 152.562 358.064L152.434 358.263C151.948 359.024 151.106 360.342 150.694 361.284C150.63 361.43 150.557 361.607 150.475 361.806L150.475 361.807C149.977 363.015 149.141 365.046 147.925 365.986C147.256 366.502 147.046 366.833 146.869 367.112C146.671 367.424 146.513 367.673 145.799 368.047L145.678 368.11L145.552 368.176C144.395 368.785 144.003 368.992 143.159 368.691C142.257 368.369 140.647 367.789 140.647 367.467C140.647 367.374 140.528 367.222 140.384 367.035C140.027 366.576 139.509 365.91 140.196 365.406C140.336 365.303 140.461 365.206 140.578 365.115C141.268 364.579 141.671 364.265 143.159 364.375C143.754 364.419 144.236 364.599 144.666 364.76C145.494 365.069 146.133 365.307 147.023 364.375C148.375 362.958 148.698 362.121 149.084 360.704C149.207 360.252 149.239 359.78 149.271 359.302C149.338 358.285 149.408 357.245 150.372 356.325C150.57 356.136 150.747 355.97 150.905 355.822C151.882 354.91 152.174 354.636 152.562 353.362C153.013 351.881 151.66 344.731 150.372 343.572C149.084 342.413 146.314 340.867 145.026 340.287C143.996 339.824 142.965 338.119 142.579 337.325C142.085 337.861 141.007 339.038 140.647 339.45C140.482 339.639 140.014 339.638 139.438 339.636C138.44 339.633 137.114 339.63 136.46 340.609C135.897 341.454 135.603 342.26 135.4 342.817C135.231 343.28 135.125 343.572 134.979 343.572C134.657 343.572 131.501 342.477 131.115 342.22C131.06 342.183 130.995 342.142 130.92 342.096C130.467 341.811 129.699 341.329 129.311 340.609C129.057 340.137 129.233 339.338 129.354 338.788L129.354 338.788L129.354 338.788C129.447 338.362 129.508 338.086 129.311 338.226C129.096 338.38 128.646 338.945 128.164 339.549C127.637 340.211 127.072 340.92 126.735 341.189C126.22 341.601 124.287 342.048 123.386 342.22C122.806 342.37 121.608 342.851 121.454 343.572C121.348 344.063 120.995 344.535 120.695 344.936C120.444 345.271 120.23 345.557 120.23 345.762V346.857C120.23 347.501 126.993 348.918 129.311 348.209C131.63 347.501 133.948 347.501 134.979 347.501C135.803 347.501 130.342 349.133 127.508 349.948C126.456 349.905 124.557 349.948 125.382 350.464C125.986 350.841 126.435 351.218 126.807 351.531C127.07 351.752 127.294 351.94 127.508 352.074C127.802 352.257 128.513 352.043 129.239 351.825C129.785 351.661 130.34 351.494 130.728 351.494C131.449 351.494 133.863 350.464 134.979 349.948C134.743 350.27 134.618 351.03 136.009 351.494C137.161 351.878 138.115 351.753 139.095 351.626C139.595 351.56 140.103 351.494 140.647 351.494C141.935 351.494 144.404 350.464 145.477 349.948C145.627 350.442 145.838 351.623 145.477 352.396C145.117 353.169 143.781 354.822 143.159 355.552C143.073 356.174 142.837 357.484 142.579 357.742C142.257 358.064 141.291 358.772 140.196 358.772C139.101 358.772 138.135 358.386 137.684 358.064C137.514 357.942 137.089 357.794 136.624 357.631L136.624 357.631C135.855 357.363 134.979 357.057 134.979 356.775C134.979 356.415 133.733 354.135 133.111 353.04C132.789 352.739 132.042 352.318 131.63 353.04C131.218 353.761 129.912 354.586 129.311 354.908C129.096 354.35 128.551 353.349 128.087 353.813C127.857 354.044 127.871 354.489 127.886 354.97C127.909 355.696 127.935 356.504 127.121 356.775C125.769 357.226 122.935 357.742 122.42 357.742C121.904 357.742 120.487 357.226 119.908 356.775C119.712 356.623 119.488 356.552 119.276 356.485C118.859 356.352 118.491 356.235 118.491 355.552C118.491 354.727 118.749 352.89 118.877 352.074C118.512 352.396 117.486 353.194 116.301 353.813C114.82 354.586 114.369 356.389 114.369 357.226C114.369 357.545 114.043 357.696 113.642 357.881C112.989 358.182 112.139 358.575 112.179 359.931C112.203 360.735 111.975 361.427 111.785 362.002C111.458 362.993 111.244 363.639 112.63 363.925C113.271 364.057 113.857 364.244 114.418 364.423C115.775 364.856 116.988 365.244 118.491 364.697C119.664 364.271 120.64 363.766 121.497 363.324L121.497 363.324C122.192 362.964 122.808 362.645 123.386 362.443C123.881 362.27 124.243 362.078 124.537 361.921C125.009 361.671 125.308 361.512 125.704 361.67C125.886 361.743 126.093 361.872 126.314 362.009C126.877 362.36 127.532 362.767 128.087 362.443C128.705 362.083 130.363 361.52 131.115 361.284C131.222 362.164 131.294 363.925 130.728 363.925H127.508C126.72 363.925 126.51 363.507 126.335 363.16C126.11 362.712 125.944 362.382 124.674 363.216C123.646 363.892 123.02 364.406 122.582 364.766C122.059 365.196 121.804 365.406 121.454 365.406C120.976 365.406 119.294 365.902 118.246 366.211C117.881 366.318 117.593 366.403 117.46 366.436C117.255 366.488 116.876 366.416 116.495 366.345C115.918 366.236 115.335 366.126 115.335 366.436C115.335 366.952 117.074 368.691 118.491 368.691C119.908 368.691 122.741 368.497 123.708 367.467C123.896 367.266 124.077 367.065 124.251 366.872C124.97 366.074 125.572 365.406 126.091 365.406C126.231 365.406 126.314 365.397 126.371 365.39H126.371C126.412 365.386 126.44 365.383 126.468 365.386C126.523 365.392 126.576 365.425 126.735 365.524L126.735 365.524C126.879 365.614 127.109 365.758 127.508 365.986C128.86 366.758 132.788 366.565 133.111 365.986C133.245 365.745 133.245 365.971 133.246 366.433C133.248 367.083 133.25 368.2 133.626 369.142C133.821 369.628 133.869 370.161 133.915 370.68C134.022 371.877 134.122 372.994 136.009 373.264C137.277 373.445 138.403 373.725 139.394 373.971L139.394 373.971C140.518 374.251 141.47 374.487 142.257 374.487C143.738 374.487 145.735 374.616 144.447 377.257C143.416 379.369 142.579 381.057 139.745 379.575C137.932 378.628 137.658 378.155 137.454 377.802ZM127.83 376.484H130.857L130.277 378.545L127.83 376.484ZM131.308 356.454L128.925 357.935L131.694 358.45L131.308 356.454ZM138.586 343.508C139.41 343.147 140.647 342.241 141.162 341.833L141.677 344.925L138.586 343.508Z" fill="black"/>
<defs>
<linearGradient id="paint0_linear" x1="230.394" y1="0.508789" x2="230.394" y2="470.089" gradientUnits="userSpaceOnUse">
<stop stop-color="#E88A4A"/>
<stop offset="1" stop-color="#C16036"/>
</linearGradient>
</defs>
</svg>
