<svg width="461" height="470" viewBox="0 0 461 470" fill="none" xmlns="http://www.w3.org/2000/svg">
<rect x="0.655518" y="0.261627" width="459.933" height="469.581" rx="6" fill="url(#paint0_linear)"/>
<path d="M188.021 89.0011H177.796V71.1886H162.649V89.0011H152.366V46.3449H162.649V63.2785H177.796V46.3449H188.021V89.0011ZM205.511 89.0011H195.257V46.3449H205.511V89.0011ZM222.942 81.091H240.843V89.0011H212.659V46.3449H222.942V81.091ZM255.462 81.091H273.362V89.0011H245.179V46.3449H255.462V81.091ZM299.7 77.6632C299.7 76.1593 299.163 74.9875 298.089 74.1476C297.034 73.3078 295.169 72.4386 292.493 71.5402C289.817 70.6418 287.63 69.7726 285.931 68.9328C280.403 66.2179 277.64 62.4875 277.64 57.7414C277.64 55.3781 278.323 53.298 279.69 51.5011C281.077 49.6847 283.03 48.2785 285.55 47.2824C288.069 46.2668 290.901 45.7589 294.046 45.7589C297.112 45.7589 299.856 46.3058 302.278 47.3996C304.72 48.4933 306.614 50.0558 307.962 52.0871C309.31 54.0988 309.983 56.4035 309.983 59.0011H299.729C299.729 57.2628 299.192 55.9152 298.118 54.9582C297.063 54.0011 295.628 53.5226 293.812 53.5226C291.976 53.5226 290.521 53.9328 289.446 54.7531C288.392 55.5539 287.864 56.5793 287.864 57.8293C287.864 58.923 288.45 59.9191 289.622 60.8175C290.794 61.6964 292.854 62.6144 295.804 63.5714C298.753 64.5089 301.175 65.5246 303.069 66.6183C307.679 69.2746 309.983 72.9367 309.983 77.6046C309.983 81.3351 308.577 84.2648 305.765 86.3937C302.952 88.5226 299.095 89.5871 294.192 89.5871C290.735 89.5871 287.601 88.9718 284.788 87.7414C281.995 86.4914 279.886 84.7921 278.46 82.6437C277.054 80.4757 276.351 77.9855 276.351 75.173H286.663C286.663 77.4582 287.249 79.1476 288.421 80.2414C289.612 81.3156 291.536 81.8527 294.192 81.8527C295.892 81.8527 297.229 81.4914 298.206 80.7687C299.202 80.0265 299.7 78.9914 299.7 77.6632Z" fill="black"/>
<path d="M251.397 152.339C251.397 156.344 250.446 159.455 248.546 161.67C246.659 163.884 244.034 164.992 240.671 164.992C237.321 164.992 234.69 163.898 232.776 161.711C230.861 159.509 229.891 156.433 229.863 152.482V147.376C229.863 143.274 230.814 140.075 232.714 137.778C234.614 135.467 237.253 134.312 240.63 134.312C243.952 134.312 246.57 135.447 248.484 137.716C250.399 139.972 251.369 143.144 251.397 147.232V152.339ZM245.347 147.335C245.347 144.641 244.964 142.638 244.198 141.326C243.433 140.013 242.243 139.357 240.63 139.357C239.03 139.357 237.848 139.993 237.082 141.264C236.317 142.522 235.92 144.443 235.893 147.027V152.339C235.893 154.95 236.282 156.878 237.062 158.122C237.841 159.352 239.044 159.967 240.671 159.967C242.243 159.967 243.412 159.366 244.178 158.163C244.943 156.946 245.333 155.066 245.347 152.523V147.335ZM274.766 161.198C273.604 162.456 272.176 163.406 270.48 164.048C268.799 164.677 266.953 164.992 264.943 164.992C261.512 164.992 258.846 163.932 256.945 161.813C255.045 159.68 254.067 156.584 254.013 152.523V147.15C254.013 143.035 254.908 139.87 256.699 137.655C258.504 135.426 261.129 134.312 264.574 134.312C267.814 134.312 270.255 135.112 271.895 136.712C273.55 138.311 274.507 140.82 274.766 144.238H268.901C268.737 142.338 268.341 141.046 267.712 140.362C267.083 139.665 266.099 139.316 264.759 139.316C263.132 139.316 261.949 139.911 261.211 141.1C260.473 142.29 260.09 144.183 260.062 146.781V152.195C260.062 154.916 260.466 156.898 261.272 158.142C262.093 159.373 263.433 159.988 265.292 159.988C266.481 159.988 267.445 159.749 268.183 159.27L268.717 158.901V153.425H264.492V148.873H274.766V161.198ZM286.816 153.672H283.822V164.582H277.793V134.722H287.411C290.432 134.722 292.763 135.508 294.404 137.081C296.058 138.639 296.885 140.861 296.885 143.746C296.885 147.711 295.443 150.486 292.558 152.072L297.788 164.295V164.582H291.307L286.816 153.672ZM283.822 148.647H287.247C288.45 148.647 289.352 148.251 289.954 147.458C290.555 146.651 290.856 145.578 290.856 144.238C290.856 141.244 289.687 139.747 287.349 139.747H283.822V148.647ZM315.19 151.662H305.797V159.578H316.913V164.582H299.768V134.722H316.871V139.747H305.797V146.801H315.19V151.662Z" fill="black"/>
<path d="M61.2402 161.568H64.7163C66.9516 161.568 68.6743 160.881 69.8843 159.507C71.0942 158.133 71.6992 156.256 71.6992 153.877C71.6992 148.627 69.6689 146.002 65.6084 146.002C63.6601 146.002 62.1323 146.71 61.0249 148.125C59.9175 149.54 59.3637 151.396 59.3637 153.693H53.9497C53.9497 150.104 55.0366 147.151 57.2104 144.833C59.4048 142.495 62.2041 141.326 65.6084 141.326C69.1357 141.326 71.935 142.434 74.0063 144.649C76.0776 146.843 77.1133 149.96 77.1133 154C77.1133 156.072 76.5698 158.01 75.4829 159.814C74.4165 161.598 73.0219 162.911 71.2993 163.752C75.5239 165.31 77.6362 168.807 77.6362 174.241C77.6362 178.24 76.5185 181.429 74.2832 183.808C72.0683 186.167 69.1665 187.346 65.5776 187.346C62.0298 187.346 59.1587 186.228 56.9643 183.993C54.7905 181.737 53.7036 178.712 53.7036 174.918H59.1484C59.1484 177.297 59.7226 179.194 60.8711 180.609C62.0195 182.004 63.5884 182.701 65.5776 182.701C67.6079 182.701 69.2177 182.014 70.4072 180.64C71.6172 179.266 72.2221 177.174 72.2221 174.365C72.2221 168.93 69.6484 166.213 64.5009 166.213H61.2402V161.568Z" fill="black"/>
<path d="M242.648 177.627V180.572H242.208C240.216 180.601 238.624 181.148 237.433 182.212C236.241 183.277 235.533 184.785 235.309 186.739C236.451 185.537 237.911 184.937 239.689 184.937C241.573 184.937 243.058 185.601 244.142 186.929C245.235 188.257 245.782 189.971 245.782 192.071C245.782 194.239 245.143 195.996 243.863 197.344C242.594 198.682 240.924 199.351 238.854 199.351C236.725 199.351 234.996 198.565 233.668 196.992C232.35 195.42 231.691 193.36 231.691 190.811V189.595C231.691 185.855 232.599 182.925 234.415 180.806C236.241 178.687 238.863 177.627 242.281 177.627H242.648ZM238.824 187.808C238.043 187.808 237.325 188.028 236.671 188.467C236.026 188.907 235.553 189.492 235.25 190.225V191.309C235.25 192.891 235.582 194.151 236.246 195.088C236.91 196.016 237.77 196.48 238.824 196.48C239.879 196.48 240.714 196.084 241.329 195.293C241.944 194.502 242.252 193.462 242.252 192.173C242.252 190.884 241.94 189.834 241.315 189.024C240.69 188.213 239.859 187.808 238.824 187.808ZM272.721 187.544C272.721 189.263 272.257 190.669 271.329 191.763C270.401 192.847 269.244 193.389 267.858 193.389C267.135 193.389 266.466 193.252 265.851 192.979C265.245 192.705 264.567 192.237 263.815 191.573C263.063 190.899 262.521 190.484 262.189 190.327C261.866 190.161 261.52 190.078 261.149 190.078C260.494 190.078 259.977 190.332 259.596 190.84C259.225 191.348 259.039 192.012 259.039 192.832H256.212C256.212 191.162 256.656 189.795 257.545 188.731C258.434 187.657 259.601 187.119 261.046 187.119C261.769 187.119 262.452 187.266 263.097 187.559C263.751 187.842 264.43 188.306 265.133 188.951C265.846 189.595 266.363 190 266.686 190.166C267.018 190.332 267.374 190.415 267.755 190.415C268.409 190.415 268.942 190.142 269.352 189.595C269.762 189.048 269.967 188.365 269.967 187.544H272.721ZM297.858 199.058H283.517V196.612L290.621 188.863C291.647 187.72 292.374 186.768 292.804 186.006C293.243 185.235 293.463 184.463 293.463 183.692C293.463 182.676 293.175 181.856 292.599 181.231C292.032 180.606 291.266 180.293 290.299 180.293C289.147 180.293 288.253 180.645 287.618 181.348C286.984 182.051 286.666 183.013 286.666 184.234H283.107C283.107 182.935 283.4 181.768 283.985 180.733C284.581 179.688 285.426 178.877 286.52 178.301C287.623 177.725 288.893 177.437 290.328 177.437C292.399 177.437 294.029 177.959 295.221 179.004C296.422 180.039 297.023 181.475 297.023 183.311C297.023 184.375 296.72 185.493 296.114 186.665C295.519 187.827 294.537 189.151 293.17 190.635L287.955 196.216H297.858V199.058Z" fill="black"/>
<path d="M145.48 199.64H133.75C133.75 197.796 134.414 194.107 137.07 194.107C140.39 194.107 140.611 196.099 142.714 195.213C144.396 194.505 143.857 192.484 143.378 191.561C140.168 190.086 133.75 186.847 133.75 185.696C133.75 184.258 132.975 178.392 139.615 178.946C144.927 179.388 148.099 182.893 149.022 184.59L149.796 194.107L146.255 195.213L145.48 199.64Z" fill="black"/>
<path d="M172.88 199.64H184.61C184.61 197.796 183.946 194.107 181.29 194.107C177.97 194.107 177.749 196.099 175.646 195.213C173.964 194.505 174.503 192.484 174.982 191.561C178.192 190.086 184.61 186.847 184.61 185.696C184.61 184.258 185.385 178.392 178.745 178.946C173.433 179.388 170.261 182.893 169.338 184.59L168.564 194.107L172.105 195.213L172.88 199.64Z" fill="black"/>
<path d="M157.1 200.857H147.915V197.095L152.009 195.988L153.116 182.598L149.796 178.946L144.706 174.408L145.48 168.543L149.022 162.457C149.022 164.928 149.177 170.048 149.796 170.757C150.571 171.642 152.341 173.412 153.116 173.744C153.736 174.01 154.629 175.552 154.997 176.29V178.946L162.744 179.499V175.072L167.281 172.859V162.457L169.338 164.006C170.054 166.219 171.61 170.823 172.105 171.531C172.6 172.239 170.467 175.958 169.338 177.728L165.068 184.59V195.988L167.281 197.095L169.338 200.857H160.199L159.313 188.684H157.985L157.1 200.857Z" fill="black"/>
<path d="M153.859 168.201L151.947 166.213L154.585 165.065L153.859 162.274L151.22 161.28L150.761 153.211L154.279 159.215H161.162L164.604 154.97L165.068 161.28L161.659 161.815V165.295L164.183 165.983L161.927 168.201L160.589 174.408H156.268L153.859 168.201Z" fill="black"/>
<path d="M143.458 162.457C143.427 162.144 139.902 159.4 138.143 158.068C138.244 156.067 138.387 151.101 138.143 147.246C137.837 142.428 141.316 137.151 145.484 136.233C148.818 135.499 151.182 140.72 151.947 143.422C152.074 141.804 152.252 137.962 151.947 135.545C151.565 132.524 147.358 131.148 143.84 130.918C140.323 130.689 137.263 134.207 136.422 136.042C135.749 137.511 126.097 142.747 121.356 145.181C117.583 146.494 110.144 153.005 110.572 168.543C111 184.082 119.087 190.493 123.076 191.756C120.846 187.613 116.384 178.48 116.384 175.084C116.384 170.839 116.461 165.601 120.705 165.065C124.101 164.637 125.332 170.673 125.524 173.744C126.875 170.342 129.982 163.528 131.604 163.498C133.225 163.467 135.491 164.887 136.422 165.601C136.613 166.952 137.003 169.784 137.034 170.304C137.064 170.824 140.233 172.56 141.814 173.363C142.362 171.26 143.534 167 143.84 166.786C144.223 166.518 143.496 162.848 143.458 162.457Z" fill="black"/>
<path d="M173.645 166.213L175.646 172.494L180.02 172.859C180.443 170.261 182.155 165.065 185.614 165.065C189.074 165.065 190.612 170.851 190.949 173.744C191.816 171.03 193.954 165.601 195.567 165.601C197.584 165.601 198.169 165.295 201.552 172.494C204.258 178.253 199.47 188.19 196.738 192.438C198.907 190.191 203.621 185.076 205.13 182.598C207.016 179.499 206.366 175.072 206.626 167.458C206.886 159.844 201.162 149.179 197.389 146.186C193.616 143.194 187.436 139.942 183.403 139.486C179.369 139.031 176.77 130.509 172.669 130.314C169.389 130.158 169.082 132.374 169.338 133.501C168.519 133.87 166.606 134.933 165.514 136.233C164.421 137.534 166.237 141.568 167.281 143.422C167.603 141.612 168.727 137.886 170.653 137.47C173.059 136.949 173.31 142.023 174.816 143.422C176.322 144.822 178.968 152.47 179.086 154.97C179.179 156.971 177.581 160.01 176.77 161.28C175.851 161.979 173.873 163.376 173.31 163.376C172.747 163.376 173.812 165.076 173.645 166.213Z" fill="black"/>
<path d="M238.251 238.412L243.891 260.007L249.51 238.412H257.385V268.272H251.335V260.192L251.889 247.743L245.921 268.272H241.819L235.852 247.743L236.405 260.192V268.272H230.376V238.412H238.251ZM267.281 268.272H261.252V238.412H267.281V268.272ZM291.964 268.272H285.934L277.116 248.687V268.272H271.087V238.412H277.116L285.955 258.018V238.412H291.964V268.272ZM316.564 256.028C316.564 260.034 315.614 263.145 313.713 265.359C311.827 267.574 309.202 268.682 305.838 268.682C302.489 268.682 299.857 267.588 297.943 265.401C296.029 263.199 295.058 260.123 295.031 256.172V251.066C295.031 246.964 295.981 243.765 297.881 241.468C299.782 239.157 302.42 238.002 305.797 238.002C309.12 238.002 311.738 239.137 313.652 241.406C315.566 243.662 316.537 246.834 316.564 250.922V256.028ZM310.514 251.025C310.514 248.331 310.131 246.328 309.366 245.016C308.6 243.703 307.411 243.047 305.797 243.047C304.198 243.047 303.015 243.683 302.249 244.954C301.484 246.212 301.087 248.133 301.06 250.717V256.028C301.06 258.64 301.45 260.568 302.229 261.812C303.008 263.042 304.211 263.657 305.838 263.657C307.411 263.657 308.579 263.056 309.345 261.853C310.111 260.636 310.5 258.756 310.514 256.213V251.025ZM337.206 243.437H329.823V268.272H323.774V243.437H316.514V238.412H337.206V243.437ZM351.204 262.16H342.98L341.381 268.272H335.003L344.334 238.412H349.851L359.243 268.272H352.804L351.204 262.16ZM344.293 257.136H349.871L347.082 246.492L344.293 257.136ZM379.844 238.412V259.084C379.817 262.188 378.963 264.567 377.281 266.221C375.599 267.861 373.186 268.682 370.042 268.682C366.842 268.682 364.395 267.848 362.7 266.18C361.018 264.512 360.177 262.099 360.177 258.941V238.412H366.248V258.961C366.248 260.656 366.521 261.866 367.068 262.591C367.615 263.316 368.606 263.678 370.042 263.678C371.477 263.678 372.462 263.322 372.995 262.611C373.528 261.887 373.801 260.704 373.815 259.064V238.412H379.844ZM392.202 257.361H389.207V268.272H383.178V238.412H392.796C395.818 238.412 398.149 239.198 399.789 240.771C401.444 242.329 402.271 244.551 402.271 247.436C402.271 251.401 400.829 254.176 397.944 255.762L403.173 267.984V268.272H396.693L392.202 257.361ZM389.207 252.337H392.632C393.835 252.337 394.738 251.941 395.339 251.148C395.941 250.341 396.242 249.268 396.242 247.928C396.242 244.934 395.073 243.437 392.735 243.437H389.207V252.337Z" fill="black"/>
<path d="M79.3281 290.421H54.2881V286.329L67.0542 269.41C68.9819 266.806 70.3149 264.673 71.0532 263.012C71.812 261.33 72.1914 259.556 72.1914 257.69C72.1914 255.311 71.6377 253.384 70.5302 251.907C69.4228 250.43 67.9668 249.692 66.1621 249.692C63.8857 249.692 62.122 250.482 60.8711 252.061C59.6406 253.619 59.0254 255.875 59.0254 258.828H53.5805C53.5805 254.706 54.7085 251.374 56.9643 248.831C59.2202 246.288 62.2861 245.016 66.1621 245.016C69.7304 245.016 72.54 246.114 74.5908 248.308C76.6416 250.482 77.667 253.384 77.667 257.013C77.667 261.443 75.3598 266.683 70.7456 272.733L60.7788 285.776H79.3281V290.421Z" fill="black"/>
<path d="M243.614 295.145H246.266V298.002H243.614V302.748H240.055V298.002H230.841L230.738 295.834L239.938 281.42H243.614V295.145ZM234.474 295.145H240.055V286.239L239.791 286.708L234.474 295.145ZM256.628 306.948C256.428 306.948 256.328 306.848 256.328 306.648C256.328 306.548 256.348 306.488 256.388 306.468L266.798 295.128L256.208 292.008C256.088 291.968 256.028 291.878 256.028 291.738C256.028 291.598 256.068 291.518 256.148 291.498L279.818 277.038C279.858 277.018 279.908 277.008 279.968 277.008C280.028 277.008 280.088 277.028 280.148 277.068C280.228 277.108 280.268 277.178 280.268 277.278C280.268 277.358 280.238 277.428 280.178 277.488L269.798 288.798L280.418 291.468C280.558 291.508 280.628 291.578 280.628 291.678C280.628 291.818 280.578 291.918 280.478 291.978L256.778 306.888C256.738 306.928 256.688 306.948 256.628 306.948ZM303.263 295.145H305.914V298.002H303.263V302.748H299.703V298.002H290.489L290.387 295.834L299.586 281.42H303.263V295.145ZM294.122 295.145H299.703V286.239L299.44 286.708L294.122 295.145Z" fill="black"/>
<path d="M195.675 268.842C195.67 268.842 195.665 268.843 195.66 268.843C195.665 268.843 195.669 268.843 195.672 268.842C195.673 268.842 195.674 268.842 195.675 268.842Z" fill="black"/>
<path fill-rule="evenodd" clip-rule="evenodd" d="M130.312 254.466C132.193 252.866 135.91 248.84 135.732 245.533C135.509 241.4 131.426 235.533 129.347 235.8C127.684 236.013 127.565 235.889 127.714 235.8L123.036 232.6L121.032 230.6L119.176 233.266C118.433 233.333 116.859 233.64 116.503 234.333C116.147 235.026 116.008 236.622 115.983 237.333L113.979 238.666L116.503 239.466C116.775 240.555 117.691 242.693 119.176 242.533C120.66 242.373 121.032 244.244 121.032 245.2L122.22 242.533C123.086 243.222 124.878 244.186 125.115 242.533C125.353 240.88 126.6 239.266 127.194 238.666C127.887 238.355 129.377 237.826 129.792 238.2C130.312 238.666 133.876 243.066 133.802 245.2C133.742 246.906 130.51 251.111 128.902 253C127.392 252.733 124.105 252.28 123.036 252.6C121.967 252.92 120.017 255.666 119.176 257C118.928 258.2 118.581 260.733 119.176 261.266C119.77 261.8 119.423 262.689 119.176 263.066C118.903 263.911 118.671 265.666 119.918 265.933C120.989 266.162 122.549 266.674 123.59 267.015C124.065 267.171 124.433 267.291 124.596 267.333C124.94 267.421 125.937 267.861 126.895 268.284C127.381 268.499 127.858 268.709 128.233 268.866C128.466 268.964 128.751 269.094 129.07 269.239C130.277 269.788 131.975 270.561 133.208 270.666C133.493 270.691 133.88 270.74 134.335 270.797C136.368 271.054 139.764 271.483 141.523 270.666C143.676 269.666 144.492 269.333 146.126 268.866C147.759 268.4 149.838 267.666 150.655 266.8C151.308 266.106 152.313 264.244 152.733 263.4C153.773 265 156 268.333 156.594 268.866C156.652 268.919 156.716 268.974 156.784 269.033C157.574 269.723 158.853 270.838 157.485 272.066C156.864 272.624 156.073 273.077 155.304 273.518C154.236 274.13 153.208 274.719 152.733 275.533C152.465 275.993 152.061 276.597 151.636 277.231C150.767 278.527 149.814 279.951 149.764 280.533C149.736 280.852 149.789 281.125 149.845 281.413C149.941 281.909 150.045 282.448 149.764 283.333C149.318 284.733 148.724 285.733 148.056 286.066C147.745 286.222 147.029 286.348 146.287 286.479C145.437 286.63 144.552 286.786 144.196 287C143.527 287.4 142.859 288.066 142.562 288.733C142.325 289.266 140.929 290.511 140.261 291.066L136.623 292.266C136.326 292.422 135.732 292.8 135.732 293.066C135.732 293.126 135.703 293.323 135.661 293.611C135.47 294.928 135.001 298.155 135.732 298.866C136.393 299.509 136.073 301.767 135.864 303.243C135.791 303.757 135.732 304.176 135.732 304.4C135.732 305.266 135.806 307.666 137.068 307.866C138.33 308.066 148.056 308.266 148.056 307.866C148.056 307.466 145.829 300.266 144.196 302.333C142.889 303.986 141.869 303.822 141.523 303.533C141.325 302.955 141.181 301.666 142.191 301.133C142.547 300.945 142.862 300.805 143.173 300.666C143.966 300.312 144.74 299.967 146.126 298.866C146.91 298.244 147.228 297.588 147.505 297.02C147.908 296.189 148.221 295.546 149.764 295.466C151.842 295.36 153.303 294.844 153.773 294.6C154.763 294.111 156.891 292.96 157.485 292.266C157.66 292.062 157.848 291.857 158.032 291.656C158.629 291.005 159.192 290.391 159.192 289.933C159.192 289.453 156.718 287.155 155.48 286.066C154.515 285.466 152.822 284.266 153.773 284.266H157.485L160.083 288.733C160.554 288.689 161.672 288.48 162.385 288C162.949 287.62 163.453 286.946 163.785 286.503C163.978 286.246 164.112 286.066 164.167 286.066C164.212 286.066 164.23 286.174 164.256 286.334C164.315 286.694 164.418 287.323 164.983 287.6C165.8 288 167.136 285.2 167.285 284.733C167.318 284.628 167.363 284.457 167.418 284.245C167.607 283.513 167.921 282.302 168.324 281.733C168.74 281.146 170.081 280.155 170.7 279.733C170.304 280.933 169.497 283.333 169.438 283.333C169.392 283.333 169.403 283.511 169.418 283.758C169.427 283.91 169.438 284.088 169.438 284.266C169.438 284.733 172.705 285.133 173.076 285.133H177.085C176.862 285.177 176.55 285.613 177.085 287C177.377 287.757 177.712 288.235 178.002 288.649C178.376 289.183 178.676 289.612 178.718 290.4C178.782 291.599 179.063 293.189 179.236 294.165L179.236 294.166C179.265 294.329 179.291 294.475 179.312 294.6C179.431 295.293 179.362 297.155 179.312 298L176.565 300.733C176.738 301.311 177.085 302.613 177.085 303.2C177.085 303.933 179.683 305.333 180.055 305.266C180.154 305.248 180.388 305.115 180.683 304.947C181.488 304.488 182.753 303.766 183.024 304.4C183.396 305.266 184.435 306.666 184.806 307.066C184.956 307.228 185.515 307.129 186.212 307.006C187.245 306.824 188.581 306.589 189.335 307.066C190.597 307.866 193.493 307.866 194.606 307.866C195.497 307.866 197.7 307.333 198.689 307.066C198.615 305.355 198.274 302.093 197.502 302.733C196.992 303.156 196.419 302.499 195.883 301.883C195.405 301.334 194.956 300.819 194.606 301.133C193.864 301.8 191.785 301.533 191.414 301.133C191.117 300.813 189.36 298.911 188.518 298C187.875 297.555 186.781 296.546 187.553 296.066C188.186 295.673 188.564 292.81 188.875 290.455C189.037 289.221 189.182 288.127 189.335 287.6C189.691 286.373 189.879 285.177 189.929 284.733L187.553 283.933L190.597 282.866C190.82 282.289 191.132 280.906 190.597 280C190.104 279.164 188.482 278.039 187.366 277.264C186.968 276.989 186.635 276.757 186.439 276.6C186.063 276.296 184.926 275.872 183.769 275.442C182.642 275.022 181.496 274.595 181.02 274.266C180.851 274.149 180.647 274.006 180.424 273.849C179.376 273.109 177.898 272.066 177.53 272.066C177.393 272.066 177.08 271.965 176.694 271.84C175.829 271.561 174.6 271.164 174.189 271.533C173.731 271.945 171.856 272.476 170.752 272.789L170.75 272.789C170.425 272.881 170.167 272.954 170.032 273C169.557 273.16 167.706 273.555 166.839 273.733L166.246 275.533C166.246 274.711 165.993 273.133 164.983 273.4C163.974 273.666 161.692 273.511 160.677 273.4L166.246 271.533L167.285 265.933L168.844 271.533C169.438 271.066 170.789 270.133 171.443 270.133C172.096 270.133 173.2 269.289 173.67 268.866C173.719 266.755 173.893 262.36 174.189 261.666C174.561 260.8 175.6 259.4 176.565 260.333C176.873 260.63 177.24 261.042 177.629 261.479C178.463 262.413 179.397 263.46 180.055 263.733C180.809 264.046 182.29 265.581 183.29 266.618L183.293 266.622C183.571 266.909 183.812 267.159 183.989 267.333C184.265 267.603 184.557 268.062 184.892 268.588C185.55 269.622 186.372 270.914 187.553 271.533C189.183 272.387 191.124 272.962 192.296 273.309C192.405 273.341 192.507 273.371 192.602 273.4C192.939 273.501 193.153 273.638 193.344 273.761C193.784 274.043 194.099 274.244 195.497 273.733C197.502 273 200.465 270.4 201.782 268.866C202.737 267.756 202.741 267.421 202.796 262.826C202.816 261.076 202.845 258.709 202.936 255.445C203.19 246.288 201.374 241.376 200.463 238.912C200.197 238.191 200.008 237.68 199.97 237.333C199.806 235.8 197.799 233.266 194.606 233.266C191.414 233.266 187.553 244.682 187.553 248.641V260.333C186.91 259 185.459 255.96 184.806 254.466C184.153 252.973 183.989 249.96 183.989 248.641C183.321 248.049 181.792 246.925 181.02 247.161C180.248 247.398 178.075 251.152 177.085 253C176.491 253.162 175.08 253.683 174.189 254.466C173.299 255.249 171.987 255.938 171.443 256.185L170.7 261.266L156.594 260.333L154.419 257.58C155.571 258.751 157.085 259.918 158.28 259.918C159.191 259.918 160.853 259.998 162.72 260.087C165.114 260.202 167.845 260.333 169.763 260.333C169.755 260.188 169.857 259.76 169.984 259.227C170.246 258.127 170.613 256.583 170.333 256.185C169.813 255.445 164.983 253 163.844 253.443C162.704 253.887 160.284 254.192 158.28 252.6C156.994 251.578 156.664 250.321 156.448 249.498C156.327 249.038 156.242 248.713 156.045 248.641C155.964 248.61 155.787 248.495 155.532 248.329C154.076 247.379 150.07 244.765 146.71 246.901C144.997 247.99 144.196 251.533 144.196 253C144.196 253.379 144.277 253.833 144.363 254.32C144.612 255.718 144.908 257.378 143.467 258.256C143.051 258.509 142.684 258.749 142.346 258.969C141.104 259.78 140.258 260.333 138.854 260.333C137.425 260.333 134.495 260.955 133.208 261.266L130.312 258.256L132.1 256.185L130.312 254.466ZM196.888 237.714C195.284 237.583 193.575 238.608 192.323 240.907C191.062 243.224 190.135 247.015 190.096 252.948C190.048 260.341 190.97 264.658 192.1 267.149C192.666 268.397 193.301 269.222 193.929 269.738C194.542 270.242 195.217 270.502 195.823 270.453C197.337 270.329 198.263 269.758 198.916 269.076C199.21 268.769 199.444 268.445 199.634 268.18L199.655 268.151C199.864 267.862 200.013 267.66 200.176 267.504C200.515 267.177 200.495 266.666 200.132 266.362C199.768 266.057 199.199 266.075 198.86 266.401C198.575 266.675 198.344 266.995 198.154 267.259L198.145 267.273C197.939 267.558 197.763 267.801 197.551 268.022C197.172 268.418 196.665 268.758 195.675 268.842C195.675 268.842 195.675 268.842 195.675 268.842C195.675 268.842 195.673 268.841 195.669 268.841C195.634 268.834 195.448 268.796 195.144 268.547C194.768 268.237 194.265 267.638 193.766 266.539C192.766 264.334 191.848 260.26 191.896 252.958C191.934 247.135 192.848 243.622 193.94 241.617C195.041 239.595 196.199 239.28 196.725 239.323C197.433 239.381 197.898 239.747 198.217 240.169C198.377 240.38 198.487 240.59 198.557 240.749C198.592 240.827 198.616 240.891 198.63 240.931C198.637 240.952 198.642 240.966 198.644 240.974L198.646 240.98C198.769 241.41 199.255 241.671 199.736 241.563C200.218 241.455 200.511 241.016 200.391 240.584L199.518 240.78C200.391 240.584 200.391 240.584 200.391 240.584L200.39 240.582L200.39 240.581L200.389 240.577L200.386 240.567L200.377 240.538C200.37 240.515 200.36 240.485 200.347 240.448C200.321 240.374 200.283 240.272 200.23 240.152C200.125 239.915 199.957 239.593 199.705 239.26C199.201 238.595 198.311 237.83 196.888 237.714Z" fill="black"/>
<path d="M120.527 267.407C120.466 267.499 120.342 267.742 120.217 267.997C120.078 268.281 119.902 268.657 119.727 269.064C119.553 269.47 119.375 269.917 119.236 270.34C119.101 270.75 118.984 271.19 118.961 271.565C118.872 273.056 119.971 274.39 121.152 275.289C121.41 275.486 121.722 275.697 122.026 275.902L122.177 276.004C122.54 276.25 122.897 276.497 123.22 276.753C123.914 277.307 124.225 277.738 124.249 278.062C124.298 278.723 124.307 279.409 124.18 279.984C124.052 280.568 123.819 280.884 123.531 281.031C122.897 281.354 122.225 281.957 121.686 282.501C121.126 283.066 120.625 283.656 120.329 284.033L121.8 284.963C122.062 284.629 122.521 284.089 123.03 283.576C123.559 283.042 124.064 282.618 124.42 282.436C125.37 281.952 125.773 281.082 125.946 280.298C126.12 279.506 126.096 278.646 126.044 277.954C125.968 276.926 125.124 276.111 124.414 275.544C124.033 275.242 123.626 274.961 123.261 274.714L123.101 274.606C122.793 274.398 122.531 274.22 122.316 274.057C121.288 273.274 120.715 272.384 120.758 271.652C120.769 271.471 120.836 271.178 120.962 270.798C121.083 270.431 121.242 270.028 121.406 269.646C121.57 269.265 121.735 268.912 121.865 268.646C121.962 268.448 122.026 268.325 122.055 268.27C122.069 268.243 122.074 268.232 122.071 268.238L120.527 267.407Z" fill="black"/>
<path fill-rule="evenodd" clip-rule="evenodd" d="M151.719 244.498C152.611 245.061 154.474 246.257 154.793 246.543C155.836 246.952 157.924 247.841 157.924 248.127C157.924 248.485 158.322 250.274 158.664 250.53C158.742 250.588 158.889 250.722 159.078 250.894C159.711 251.47 160.813 252.472 161.339 252.472C161.656 252.472 162.278 252.362 162.917 252.25C163.656 252.119 164.418 251.985 164.754 252.012C165.279 252.055 167.045 253.068 168.138 253.695C168.349 253.816 168.535 253.923 168.682 254.005C169.593 254.517 170.959 254.517 171.756 254.363C172.553 254.21 174.659 252.779 175.057 252.472C175.133 252.414 175.276 252.31 175.458 252.177C176.237 251.61 177.732 250.523 177.732 250.274C177.732 249.968 177.732 248.792 178.188 248.536C178.51 248.356 179.059 247.154 179.514 246.158C179.703 245.744 179.876 245.367 180.009 245.112C180.287 244.582 180.946 244.356 181.495 244.168C181.846 244.047 182.153 243.942 182.286 243.783C182.477 243.555 181.727 242.992 180.958 242.414C180.35 241.958 179.73 241.492 179.554 241.176C179.435 240.963 179.272 240.759 179.119 240.57C178.76 240.123 178.465 239.756 178.985 239.54C179.725 239.234 181.432 237.752 181.945 236.014C182.354 234.623 175.854 232.47 172.553 231.567C173.558 232.112 175.774 233.386 176.594 234.122C177.619 235.043 177.732 235.503 177.732 236.729C177.732 237.956 173.862 238.16 172.553 238.058C171.243 237.956 169.763 237.291 168.682 236.729C167.774 236.257 166.025 236.326 165.149 236.36C164.981 236.366 164.846 236.371 164.754 236.371C164.185 236.371 159.688 237.189 158.664 237.752C157.639 238.314 156.785 238.16 154.793 236.014C153.198 234.296 156.481 232.334 158.322 231.567C157.696 231.362 156.034 231.076 154.395 231.567C152.659 232.086 152.148 233.083 151.202 234.929C151.031 235.262 150.846 235.623 150.638 236.014C149.553 238.042 152.197 238.943 153.335 239.331C153.631 239.432 153.825 239.498 153.825 239.54C153.825 239.589 153.832 239.682 153.84 239.8C153.867 240.179 153.912 240.826 153.825 241.176C153.711 241.636 152.857 242.607 151.719 243.783C150.808 244.723 151.339 244.652 151.719 244.498ZM159.859 241.278H165.153L166.405 242.863L167.031 244.345L165.494 245.367L161.794 243.936L161.054 242.863L159.859 241.278ZM171.821 244.141C171.195 243.476 169.817 241.953 169.316 241.176H174.838C174.762 241.704 174.576 242.812 174.44 243.016C174.308 243.213 173.567 244.079 173.156 244.559C173.035 244.701 172.942 244.81 172.903 244.856C172.766 245.02 172.125 244.447 171.821 244.141Z" fill="black"/>
<path d="M249.797 342.102V362.774C249.77 365.878 248.915 368.256 247.234 369.911C245.552 371.551 243.139 372.372 239.994 372.372C236.795 372.372 234.348 371.538 232.652 369.87C230.971 368.202 230.13 365.789 230.13 362.63V342.102H236.2V362.651C236.2 364.346 236.474 365.556 237.021 366.281C237.568 367.005 238.559 367.368 239.994 367.368C241.43 367.368 242.414 367.012 242.947 366.301C243.481 365.577 243.754 364.394 243.768 362.754V342.102H249.797ZM273.987 371.962H267.958L259.14 352.377V371.962H253.11V342.102H259.14L267.978 361.708V342.102H273.987V371.962ZM283.863 371.962H277.834V342.102H283.863V371.962ZM307.91 362.015C307.759 365.42 306.802 367.997 305.038 369.747C303.275 371.497 300.787 372.372 297.574 372.372C294.197 372.372 291.606 371.264 289.801 369.049C288.01 366.821 287.115 363.649 287.115 359.534V354.509C287.115 350.408 288.044 347.25 289.904 345.035C291.763 342.806 294.347 341.692 297.656 341.692C300.91 341.692 303.377 342.601 305.059 344.42C306.754 346.238 307.718 348.849 307.951 352.254H301.901C301.846 350.148 301.518 348.699 300.916 347.906C300.329 347.099 299.242 346.696 297.656 346.696C296.042 346.696 294.901 347.263 294.231 348.398C293.561 349.519 293.205 351.372 293.164 353.956V359.595C293.164 362.562 293.493 364.599 294.149 365.707C294.819 366.814 295.96 367.368 297.574 367.368C299.16 367.368 300.253 366.985 300.855 366.219C301.456 365.44 301.798 364.039 301.88 362.015H307.91ZM331.382 359.718C331.382 363.724 330.432 366.835 328.531 369.049C326.645 371.264 324.02 372.372 320.656 372.372C317.307 372.372 314.675 371.278 312.761 369.09C310.847 366.889 309.876 363.813 309.849 359.862V354.755C309.849 350.654 310.799 347.455 312.699 345.158C314.6 342.847 317.238 341.692 320.615 341.692C323.938 341.692 326.556 342.827 328.47 345.096C330.384 347.352 331.355 350.524 331.382 354.612V359.718ZM325.332 354.714C325.332 352.021 324.949 350.018 324.184 348.706C323.418 347.393 322.229 346.737 320.615 346.737C319.016 346.737 317.833 347.373 317.068 348.644C316.302 349.902 315.905 351.823 315.878 354.407V359.718C315.878 362.33 316.268 364.257 317.047 365.502C317.826 366.732 319.029 367.347 320.656 367.347C322.229 367.347 323.398 366.746 324.163 365.543C324.929 364.326 325.319 362.446 325.332 359.903V354.714ZM343.493 361.051H340.499V371.962H334.47V342.102H344.088C347.109 342.102 349.44 342.888 351.081 344.461C352.735 346.019 353.562 348.241 353.562 351.126C353.562 355.09 352.12 357.866 349.235 359.452L354.465 371.674V371.962H347.984L343.493 361.051ZM340.499 356.027H343.924C345.127 356.027 346.029 355.63 346.631 354.838C347.232 354.031 347.533 352.958 347.533 351.618C347.533 348.624 346.364 347.127 344.026 347.127H340.499V356.027ZM377.322 371.962H371.293L362.474 352.377V371.962H356.445V342.102H362.474L371.313 361.708V342.102H377.322V371.962Z" fill="black"/>
<path d="M242.648 385.007V387.951H242.208C240.216 387.981 238.624 388.528 237.433 389.592C236.241 390.657 235.533 392.165 235.309 394.118C236.451 392.917 237.911 392.317 239.689 392.317C241.573 392.317 243.058 392.981 244.142 394.309C245.235 395.637 245.782 397.351 245.782 399.451C245.782 401.618 245.143 403.376 243.863 404.724C242.594 406.062 240.924 406.731 238.854 406.731C236.725 406.731 234.996 405.945 233.668 404.372C232.35 402.8 231.691 400.74 231.691 398.191V396.975C231.691 393.235 232.599 390.305 234.415 388.186C236.241 386.067 238.863 385.007 242.281 385.007H242.648ZM238.824 395.188C238.043 395.188 237.325 395.408 236.671 395.847C236.026 396.286 235.553 396.872 235.25 397.605V398.689C235.25 400.271 235.582 401.531 236.246 402.468C236.91 403.396 237.77 403.86 238.824 403.86C239.879 403.86 240.714 403.464 241.329 402.673C241.944 401.882 242.252 400.842 242.252 399.553C242.252 398.264 241.94 397.214 241.315 396.404C240.69 395.593 239.859 395.188 238.824 395.188ZM272.721 394.924C272.721 396.643 272.257 398.049 271.329 399.143C270.401 400.227 269.244 400.769 267.858 400.769C267.135 400.769 266.466 400.632 265.851 400.359C265.245 400.085 264.567 399.617 263.815 398.952C263.063 398.279 262.521 397.864 262.189 397.707C261.866 397.541 261.52 397.458 261.149 397.458C260.494 397.458 259.977 397.712 259.596 398.22C259.225 398.728 259.039 399.392 259.039 400.212H256.212C256.212 398.542 256.656 397.175 257.545 396.111C258.434 395.036 259.601 394.499 261.046 394.499C261.769 394.499 262.452 394.646 263.097 394.939C263.751 395.222 264.43 395.686 265.133 396.33C265.846 396.975 266.363 397.38 266.686 397.546C267.018 397.712 267.374 397.795 267.755 397.795C268.409 397.795 268.942 397.522 269.352 396.975C269.762 396.428 269.967 395.744 269.967 394.924H272.721ZM295.558 398.835H298.209V401.692H295.558V406.438H291.998V401.692H282.784L282.682 399.524L291.881 385.11H295.558V398.835ZM286.417 398.835H291.998V389.929L291.734 390.398L286.417 398.835Z" fill="black"/>
<path fill-rule="evenodd" clip-rule="evenodd" d="M132.951 358.01L129.453 360.288C128.4 360.024 126.136 359.516 125.504 359.595C125.11 359.644 124.885 360.087 124.534 360.777C124.181 361.471 123.701 362.414 122.796 363.456C121.352 365.12 120.389 365.074 120.088 364.843L118.96 362.664L116.139 361.575C115.349 360.849 113.679 359.119 113.318 358.01C112.867 356.624 115.236 355.337 116.139 355.04C117.042 354.743 118.734 353.654 120.088 352.366C121.004 351.496 122.281 350.58 123.152 349.956L123.152 349.956C123.568 349.657 123.891 349.425 124.037 349.297C124.398 348.98 124.188 347.515 124.037 346.822L110.723 333.157L127.197 344.742C127.911 344.016 129.521 342.861 130.243 344.049C130.423 344.345 130.58 344.633 130.729 344.905C131.325 345.996 131.777 346.822 132.951 346.822C134.125 346.822 136.148 346.492 137.013 346.327C137.276 346.657 138.029 347.515 138.931 348.307C139.834 349.099 140.962 349.957 141.414 350.287C142.091 351.079 143.49 352.901 143.67 353.852C143.731 354.174 143.967 354.672 144.262 355.295C145.055 356.967 146.277 359.545 145.701 362.07C145.069 364.843 144.084 368.044 143.67 369.298C145.287 370.322 149.019 372.328 151.004 372.17C151.931 372.096 153.203 371.926 154.504 371.751C156.69 371.458 158.957 371.155 159.805 371.279C161.159 371.477 166.801 372.071 168.155 371.279C169.112 370.719 171.591 370.95 173.56 371.134L173.56 371.134C174.377 371.211 175.106 371.279 175.602 371.279C177.097 371.279 181.412 373.675 182.785 374.438L182.785 374.438C182.966 374.539 183.096 374.611 183.162 374.645C183.316 374.726 183.866 374.822 184.593 374.949C186.527 375.287 189.717 375.843 190.045 376.923C190.232 377.539 190.73 378.514 191.281 379.592C192.058 381.111 192.94 382.836 193.204 384.052C193.655 386.131 196.025 389.003 197.153 388.706C197.346 388.655 197.523 388.616 197.687 388.579C198.484 388.402 199 388.287 199.748 387.22C200.651 385.933 201.328 384.151 201.328 383.458V380.487L202.456 383.458C202.607 383.953 203.043 385.399 203.585 387.22C204.201 390.236 202.478 390.051 201.694 389.967C201.474 389.944 201.328 389.928 201.328 389.993C201.328 390.231 198.545 391.082 197.153 391.478C198.169 391.874 200.425 392.548 201.328 392.072C202.231 391.597 205.465 389.63 206.97 388.706C206.293 389.993 204.803 392.666 204.262 393.062C203.72 393.458 201.704 393.888 200.764 394.053L204.262 394.944C203.472 395.637 201.779 397.102 201.328 397.419C200.944 397.688 199.466 397.592 198.097 397.502C197.453 397.46 196.833 397.419 196.363 397.419C194.896 397.419 193.881 396.825 191.963 394.944C191.369 394.361 190.916 394.016 190.57 393.753C189.798 393.165 189.558 392.982 189.48 391.478C189.419 390.301 189.227 389.153 189.062 388.174L189.062 388.174C188.923 387.341 188.803 386.632 188.803 386.131C188.803 386.031 188.806 385.894 188.81 385.73V385.73V385.73V385.729V385.729V385.729V385.729V385.729V385.729V385.729C188.844 384.117 188.933 379.897 186.885 381.874C184.629 384.052 183.952 387.319 183.952 388.013C183.952 388.217 183.814 388.75 183.64 389.422C183.225 391.027 182.605 393.425 183.162 394.053C183.952 394.944 184.854 396.033 184.967 398.904C185.037 400.676 184.634 402.334 184.315 403.647C184.117 404.462 183.952 405.144 183.952 405.638C183.952 406.667 183.425 408.905 183.162 409.895C182.259 409.994 180.409 410.311 180.228 410.786C180.048 411.262 179.401 412.503 179.1 413.064H172.104C172.142 411.248 172.623 407.519 174.248 407.123C175.873 406.727 178.16 405.572 179.1 405.043V401.083C179.1 400.927 179.248 400.771 179.402 400.607C179.837 400.149 180.325 399.634 177.746 398.904C174.948 398.112 172.067 395.934 170.976 394.944L169.283 391.478C169.509 393.293 170.389 397.122 172.104 397.914C173.819 398.706 174.248 399.499 174.248 399.796L172.894 402.865L170.976 408.905L168.155 409.895V411.678L159.805 410.786C159.655 410.06 159.693 408.311 161.047 407.123C162.739 405.638 165.221 405.043 165.898 405.043C166.575 405.043 169.283 403.954 169.283 402.865V398.904C169.283 398.64 168.945 397.974 167.591 397.419C165.898 396.726 164.77 395.043 164.544 394.053C164.364 393.26 164.093 392.402 163.98 392.072L169.283 389.993H162.175C161.573 390.488 159.873 391.478 157.887 391.478C156.868 391.478 155.639 391.679 154.443 391.874L154.443 391.874H154.443C152.727 392.154 151.079 392.422 150.215 392.072C149.041 391.597 145.739 389.63 144.234 388.706V392.072H136.336C135.542 392.072 134.496 391.868 133.487 391.672C132.059 391.394 130.706 391.13 130.243 391.478C130.055 391.62 129.866 391.728 129.699 391.824C129.166 392.129 128.852 392.309 129.453 393.062C129.761 393.448 130.358 393.863 130.973 394.29L130.973 394.29L130.973 394.29C131.94 394.962 132.951 395.664 132.951 396.33V404.35C131.296 404.317 127.67 403.618 126.407 401.083L124.037 396.33V393.062C124.037 392.736 123.951 392.356 123.865 391.971C123.688 391.19 123.508 390.391 124.037 389.993C124.669 389.518 125.88 388.475 126.407 388.013L134.418 387.22C132.537 386.395 128.302 384.785 126.407 384.943C125.383 385.029 124.422 384.818 123.643 384.648C122.619 384.424 121.909 384.268 121.781 384.943C121.6 385.894 120.577 387.848 120.088 388.706L121.781 392.567C121.856 393.657 121.623 395.934 120.088 396.33C118.554 396.726 114.935 396.891 113.318 396.924V389.993L116.139 387.22C116.553 385.174 117.922 380.963 120.088 380.487C122.255 380.012 125.203 379.893 126.407 379.893L130.92 380.487L127.197 378.507C126.933 376.692 126.407 372.883 126.407 372.17C126.407 371.773 126.563 370.828 126.737 369.778C126.953 368.469 127.197 366.998 127.197 366.229C127.197 365.699 126.983 365.285 126.8 364.932C126.504 364.36 126.29 363.946 127.197 363.456C127.742 363.162 128.257 363.004 128.74 362.856L128.74 362.856C129.556 362.606 130.282 362.383 130.92 361.575C131.732 360.545 132.613 358.77 132.951 358.01ZM125.346 350.83V353.043L127.455 351.836L125.346 350.83ZM158.834 365.422C157.787 365.904 156.585 366.381 155.698 366.468C155.248 366.511 154.695 366.576 154.056 366.65C152.235 366.862 149.717 367.156 146.897 367.286L146.812 365.877C149.561 365.75 151.965 365.47 153.781 365.259L153.781 365.259C154.443 365.181 155.027 365.114 155.521 365.065C156.067 365.012 157.019 364.665 158.086 364.173C159.113 363.699 160.123 363.151 160.735 362.793L161.627 363.967C160.978 364.347 159.919 364.922 158.834 365.422ZM158.907 361.115C159.277 360.899 159.376 360.461 159.13 360.137C158.884 359.813 158.385 359.725 158.015 359.941C157.872 360.025 157.676 360.118 157.473 360.188C157.261 360.26 157.099 360.288 157.006 360.288C156.649 360.288 156.311 360.341 156.046 360.382L156.042 360.383C155.754 360.427 155.546 360.46 155.342 360.463C155.301 360.464 155.249 360.463 155.171 360.459L155.138 360.458L155.138 360.458C155.072 360.455 154.99 360.452 154.909 360.451C154.728 360.448 154.443 360.453 154.16 360.548C153.96 360.614 153.78 360.699 153.64 360.767L153.555 360.808C153.445 360.861 153.363 360.901 153.276 360.937C153.214 360.962 153.137 360.977 152.931 361.003L152.901 361.007C152.727 361.029 152.435 361.066 152.15 361.183C152.014 361.239 151.955 361.259 151.87 361.276C150.885 361.474 149.88 361.57 148.827 361.67C148.562 361.695 148.294 361.721 148.022 361.748C147.581 361.793 147.265 362.143 147.316 362.53C147.367 362.917 147.766 363.194 148.207 363.15C148.451 363.125 148.701 363.101 148.954 363.077L148.954 363.077L148.955 363.077L148.955 363.077L148.955 363.077L148.956 363.077L148.956 363.077L148.957 363.077C150.019 362.977 151.143 362.87 152.229 362.652C152.48 362.601 152.661 362.532 152.834 362.46C152.883 362.44 152.95 362.426 153.163 362.399L153.185 362.396C153.365 362.374 153.661 362.336 153.956 362.215C154.098 362.157 154.24 362.088 154.352 362.033L154.415 362.003C154.548 361.938 154.644 361.896 154.73 361.867L154.727 361.868C154.727 361.868 154.766 361.86 154.884 361.861C154.938 361.862 154.99 361.864 155.056 361.867L155.098 361.869C155.176 361.872 155.275 361.876 155.375 361.874C155.708 361.868 156.028 361.818 156.28 361.778L156.322 361.772L156.349 361.768C156.161 361.857 156.007 361.955 155.884 362.032L155.824 362.07C155.809 362.08 155.794 362.089 155.779 362.098C155.739 362.122 155.622 362.163 155.342 362.192C155.238 362.203 155.136 362.211 155.02 362.219H155.02L154.922 362.227C154.775 362.238 154.603 362.252 154.436 362.278C153.494 362.426 152.661 362.635 151.766 362.957C151.38 363.097 151.018 363.265 150.693 363.417L150.675 363.425L150.675 363.425C150.347 363.578 150.058 363.713 149.761 363.824C149.164 364.046 148.523 364.132 147.782 364.232C147.591 364.257 147.392 364.284 147.186 364.314C146.748 364.378 146.453 364.742 146.526 365.126C146.599 365.51 147.013 365.77 147.451 365.706C147.603 365.683 147.766 365.662 147.935 365.64C148.692 365.54 149.587 365.421 150.389 365.122C150.752 364.987 151.097 364.826 151.407 364.682L151.448 364.662C151.78 364.507 152.075 364.371 152.377 364.262C153.163 363.979 153.884 363.798 154.719 363.667C154.807 363.653 154.916 363.643 155.061 363.632L155.142 363.626L155.142 363.626L155.142 363.626C155.261 363.617 155.399 363.607 155.533 363.593C155.847 363.56 156.306 363.493 156.692 363.259C156.758 363.219 156.814 363.185 156.863 363.155C157.104 363.007 157.171 362.966 157.317 362.942C157.672 362.883 157.932 362.808 158.247 362.69C158.655 362.536 158.844 362.122 158.67 361.764C158.592 361.606 158.458 361.485 158.296 361.413C158.521 361.322 158.731 361.218 158.907 361.115ZM156.676 358.216C156.922 358.54 156.823 358.978 156.453 359.194C156.274 359.299 156.093 359.348 155.92 359.365C155.846 359.372 155.78 359.372 155.738 359.372L155.68 359.371L155.639 359.371C155.532 359.371 155.442 359.391 155.26 359.432C155.199 359.446 155.127 359.462 155.04 359.48L155.028 359.483L155.028 359.483L155.027 359.483C154.674 359.559 154.291 359.64 153.914 359.707C152.266 359.996 150.657 360.268 148.891 360.359C148.448 360.382 148.068 360.085 148.042 359.697C148.016 359.308 148.354 358.974 148.797 358.951C150.438 358.866 151.948 358.613 153.598 358.323C153.942 358.263 154.298 358.187 154.66 358.11L154.679 358.106L154.709 358.099L154.761 358.087L154.761 358.087C154.966 358.039 155.306 357.96 155.639 357.96C155.656 357.96 155.672 357.96 155.686 357.961C156.037 357.826 156.457 357.927 156.676 358.216ZM148.313 356.563C147.869 356.563 147.51 356.879 147.51 357.269C147.51 357.658 147.869 357.974 148.313 357.974H153.42C153.864 357.974 154.224 357.658 154.224 357.269C154.224 356.879 153.864 356.563 153.42 356.563H148.313ZM153.246 353.376C153.682 353.452 153.964 353.824 153.877 354.206C153.794 354.569 153.554 354.852 153.315 355.056C153.071 355.264 152.778 355.432 152.491 355.563C151.938 355.816 151.26 355.995 150.738 355.995C150.101 355.995 149.48 355.908 148.915 355.818C148.793 355.799 148.675 355.779 148.559 355.76L148.559 355.76L148.559 355.76L148.559 355.76L148.559 355.76L148.559 355.76L148.559 355.76C148.116 355.688 147.711 355.621 147.302 355.584C146.86 355.544 146.54 355.197 146.585 354.81C146.631 354.422 147.026 354.141 147.468 354.181C147.949 354.224 148.437 354.304 148.886 354.378L148.886 354.378L148.886 354.378C148.994 354.396 149.1 354.413 149.203 354.43C149.755 354.518 150.255 354.584 150.738 354.584C150.923 354.584 151.343 354.498 151.748 354.312C151.941 354.224 152.094 354.13 152.195 354.044C152.277 353.973 152.298 353.933 152.301 353.926L152.301 353.925C152.39 353.545 152.813 353.3 153.246 353.376ZM146.392 352.317C145.949 352.284 145.56 352.572 145.523 352.96C145.485 353.348 145.813 353.69 146.256 353.723C146.464 353.738 146.698 353.747 146.909 353.754L146.909 353.754L146.909 353.754L146.909 353.754L146.909 353.754C147.017 353.758 147.119 353.762 147.208 353.766C147.504 353.781 147.754 353.804 147.978 353.853C148.329 353.93 148.616 353.958 148.977 353.958C149.421 353.958 149.781 353.642 149.781 353.253C149.781 352.863 149.421 352.547 148.977 352.547C148.737 352.547 148.582 352.531 148.368 352.484C147.995 352.402 147.625 352.374 147.297 352.358C147.157 352.351 147.033 352.346 146.916 352.342C146.735 352.336 146.571 352.33 146.392 352.317ZM145.022 350.376C145.147 350.002 145.594 349.789 146.02 349.898C146.093 349.917 146.174 349.937 146.262 349.958L146.262 349.958L146.262 349.958L146.262 349.958C146.618 350.044 147.072 350.153 147.477 350.335C147.503 350.346 147.538 350.36 147.598 350.384L147.604 350.386C147.657 350.407 147.729 350.435 147.8 350.466C147.925 350.521 148.178 350.638 148.359 350.85C148.626 351.162 148.554 351.604 148.199 351.838C147.863 352.059 147.394 352.015 147.119 351.746C147.113 351.743 147.106 351.739 147.097 351.735L147.081 351.728C147.044 351.712 147.002 351.695 146.943 351.672L146.937 351.67C146.885 351.65 146.814 351.622 146.747 351.592C146.501 351.482 146.256 351.422 145.928 351.342L145.928 351.342L145.928 351.342C145.818 351.315 145.698 351.286 145.566 351.252C145.14 351.142 144.897 350.75 145.022 350.376ZM144.28 347.981C144.039 347.653 143.541 347.56 143.168 347.771C142.795 347.982 142.688 348.419 142.929 348.746C143.188 349.097 143.484 349.366 143.905 349.524C144.259 349.657 144.646 349.683 144.963 349.704L145.002 349.707C145.445 349.737 145.831 349.446 145.865 349.058C145.899 348.669 145.568 348.33 145.125 348.3C144.733 348.274 144.615 348.256 144.537 348.227L144.536 348.227C144.508 348.216 144.432 348.188 144.28 347.981ZM147.203 368.088C146.76 368.079 146.392 368.388 146.382 368.778C146.373 369.167 146.725 369.49 147.168 369.498C147.653 369.508 148.136 369.53 148.633 369.553L148.633 369.553L148.859 369.564C149.431 369.59 150.022 369.615 150.62 369.615H152.293C152.737 369.615 153.097 369.299 153.097 368.909C153.097 368.52 152.737 368.204 152.293 368.204H150.62C150.068 368.204 149.514 368.181 148.944 368.155L148.721 368.145L148.721 368.145C148.225 368.121 147.715 368.098 147.203 368.088Z" fill="black"/>
<defs>
<linearGradient id="paint0_linear" x1="230.622" y1="0.261627" x2="230.622" y2="469.842" gradientUnits="userSpaceOnUse">
<stop stop-color="#82534A"/>
<stop offset="1" stop-color="#46322E"/>
</linearGradient>
</defs>
</svg>
