<svg width="461" height="564" viewBox="0 0 461 564" fill="none" xmlns="http://www.w3.org/2000/svg">
<rect x="0.240234" y="0.594971" width="459.933" height="562.571" rx="6" fill="url(#paint0_linear)"/>
<path d="M139.002 46.6782H149.256V75.9458C149.256 78.6606 148.621 81.0825 147.351 83.2114C146.101 85.3403 144.344 86.9907 142.078 88.1626C139.832 89.3345 137.322 89.9204 134.549 89.9204C129.9 89.9204 126.287 88.7485 123.709 86.4048C121.131 84.061 119.842 80.7407 119.842 76.4438H130.154C130.154 78.397 130.486 79.813 131.15 80.6919C131.834 81.5708 132.967 82.0103 134.549 82.0103C135.974 82.0103 137.068 81.4829 137.83 80.4282C138.611 79.354 139.002 77.8599 139.002 75.9458V46.6782ZM189.217 46.6782V74.5981C189.217 77.7622 188.543 80.5063 187.195 82.8306C185.847 85.1353 183.914 86.8931 181.394 88.104C178.875 89.3149 175.896 89.9204 172.459 89.9204C167.263 89.9204 163.172 88.5728 160.183 85.8774C157.195 83.1821 155.672 79.4907 155.613 74.8032V46.6782H165.955V75.0083C166.072 79.6763 168.24 82.0103 172.459 82.0103C174.588 82.0103 176.199 81.4243 177.293 80.2524C178.386 79.0806 178.933 77.1763 178.933 74.5396V46.6782H189.217ZM231.287 89.3345H221.062L205.945 62.7915V89.3345H195.662V46.6782H205.945L221.033 73.2212V46.6782H231.287V89.3345ZM272.713 84.061C271.131 85.8188 268.816 87.2349 265.769 88.3091C262.722 89.3833 259.383 89.9204 255.75 89.9204C250.164 89.9204 245.701 88.2114 242.361 84.7935C239.021 81.3755 237.234 76.6196 237 70.5259L236.97 66.8345C236.97 62.6353 237.713 58.9731 239.197 55.8481C240.681 52.7036 242.801 50.2915 245.554 48.6118C248.328 46.9126 251.531 46.063 255.164 46.063C260.476 46.063 264.597 47.2837 267.527 49.7251C270.476 52.147 272.195 55.77 272.683 60.5942H262.781C262.429 58.2114 261.668 56.5122 260.496 55.4966C259.324 54.481 257.664 53.9731 255.515 53.9731C252.937 53.9731 250.945 55.0669 249.539 57.2544C248.133 59.4419 247.42 62.5669 247.4 66.6294V69.2075C247.4 73.4653 248.123 76.6685 249.568 78.8169C251.033 80.9458 253.328 82.0103 256.453 82.0103C259.129 82.0103 261.121 81.4146 262.429 80.2231V73.6021H255.281V66.5415H272.713V84.061ZM288.972 81.4243H306.873V89.3345H278.689V46.6782H288.972V81.4243ZM337.664 71.2583H321.492V81.4243H340.594V89.3345H311.209V46.6782H340.652V54.6177H321.492V63.6118H337.664V71.2583Z" fill="black"/>
<path d="M250.264 161.532C249.101 162.789 247.673 163.74 245.977 164.382C244.296 165.011 242.45 165.326 240.44 165.326C237.009 165.326 234.343 164.266 232.442 162.147C230.542 160.014 229.564 156.917 229.51 152.857V147.484C229.51 143.369 230.405 140.203 232.196 137.989C234.001 135.76 236.626 134.646 240.071 134.646C243.311 134.646 245.752 135.446 247.392 137.045C249.047 138.645 250.004 141.154 250.264 144.572H244.398C244.234 142.671 243.838 141.379 243.209 140.696C242.58 139.998 241.596 139.65 240.256 139.65C238.629 139.65 237.446 140.245 236.708 141.434C235.97 142.623 235.587 144.517 235.559 147.115V152.529C235.559 155.249 235.963 157.232 236.769 158.476C237.59 159.706 238.93 160.322 240.789 160.322C241.978 160.322 242.942 160.082 243.681 159.604L244.214 159.235V153.759H239.989V149.206H250.264V161.532ZM267.522 158.804H259.298L257.699 164.915H251.321L260.652 135.056H266.169L275.561 164.915H269.122L267.522 158.804ZM260.611 153.78H266.189L263.4 143.136L260.611 153.78ZM286.155 154.005H283.161V164.915H277.131V135.056H286.749C289.771 135.056 292.102 135.842 293.743 137.414C295.397 138.973 296.224 141.195 296.224 144.079C296.224 148.044 294.782 150.82 291.897 152.406L297.126 164.628V164.915H290.646L286.155 154.005ZM283.161 148.981H286.585C287.788 148.981 288.691 148.584 289.292 147.791C289.894 146.985 290.195 145.911 290.195 144.572C290.195 141.578 289.026 140.08 286.688 140.08H283.161V148.981ZM319.409 161.532C318.247 162.789 316.819 163.74 315.123 164.382C313.442 165.011 311.596 165.326 309.586 165.326C306.154 165.326 303.488 164.266 301.588 162.147C299.688 160.014 298.71 156.917 298.655 152.857V147.484C298.655 143.369 299.551 140.203 301.342 137.989C303.147 135.76 305.772 134.646 309.217 134.646C312.457 134.646 314.898 135.446 316.538 137.045C318.193 138.645 319.15 141.154 319.409 144.572H313.544C313.38 142.671 312.984 141.379 312.355 140.696C311.726 139.998 310.741 139.65 309.402 139.65C307.775 139.65 306.592 140.245 305.854 141.434C305.115 142.623 304.733 144.517 304.705 147.115V152.529C304.705 155.249 305.109 157.232 305.915 158.476C306.736 159.706 308.075 160.322 309.935 160.322C311.124 160.322 312.088 160.082 312.826 159.604L313.36 159.235V153.759H309.135V149.206H319.409V161.532ZM343.435 152.672C343.435 156.678 342.485 159.788 340.585 162.003C338.698 164.218 336.073 165.326 332.71 165.326C329.36 165.326 326.728 164.232 324.814 162.044C322.9 159.843 321.93 156.767 321.902 152.816V147.709C321.902 143.608 322.852 140.409 324.753 138.112C326.653 135.801 329.292 134.646 332.669 134.646C335.991 134.646 338.609 135.781 340.523 138.05C342.437 140.306 343.408 143.478 343.435 147.566V152.672ZM337.386 147.668C337.386 144.975 337.003 142.972 336.237 141.66C335.472 140.347 334.282 139.691 332.669 139.691C331.069 139.691 329.887 140.327 329.121 141.598C328.355 142.856 327.959 144.777 327.932 147.361V152.672C327.932 155.284 328.321 157.211 329.101 158.455C329.88 159.686 331.083 160.301 332.71 160.301C334.282 160.301 335.451 159.7 336.217 158.496C336.982 157.28 337.372 155.4 337.386 152.857V147.668ZM354.603 148.468L359.094 135.056H365.657L357.659 154.087V164.915H351.548V154.087L343.529 135.056H350.091L354.603 148.468ZM373.174 159.911H383.756V164.915H367.145V135.056H373.174V159.911ZM401.404 151.995H392.012V159.911H403.127V164.915H385.983V135.056H403.086V140.08H392.012V147.135H401.404V151.995Z" fill="black"/>
<path d="M78.9128 187.064H53.8728V182.973L66.6389 166.054C68.5666 163.45 69.8996 161.317 70.6379 159.656C71.3967 157.974 71.7761 156.2 71.7761 154.334C71.7761 151.955 71.2224 150.027 70.115 148.551C69.0075 147.074 67.5515 146.336 65.7468 146.336C63.4704 146.336 61.7068 147.125 60.4558 148.705C59.2253 150.263 58.6101 152.519 58.6101 155.472H53.1653C53.1653 151.35 54.2932 148.018 56.549 145.475C58.8049 142.932 61.8708 141.66 65.7468 141.66C69.3152 141.66 72.1247 142.757 74.1755 144.952C76.2263 147.125 77.2517 150.027 77.2517 153.657C77.2517 158.087 74.9446 163.327 70.3303 169.376L60.3635 182.419H78.9128V187.064Z" fill="black"/>
<path d="M243.199 191.789H245.85V194.646H243.199V199.392H239.64V194.646H230.426L230.323 192.478L239.522 178.064H243.199V191.789ZM234.058 191.789H239.64V182.883L239.376 183.352L234.058 191.789ZM260.143 199.902L263.353 190.362L255.613 185.172H265.093L268.483 174.942L271.933 185.172H281.353L273.613 190.362L276.883 199.902L268.483 193.812L260.143 199.902ZM296.065 187.102H298.233C299.327 187.092 300.191 186.809 300.826 186.252C301.471 185.695 301.793 184.89 301.793 183.835C301.793 182.819 301.524 182.033 300.987 181.477C300.46 180.91 299.649 180.627 298.556 180.627C297.599 180.627 296.812 180.905 296.197 181.462C295.582 182.009 295.274 182.727 295.274 183.615H291.715C291.715 182.522 292.003 181.525 292.579 180.627C293.165 179.729 293.975 179.03 295.011 178.532C296.056 178.024 297.223 177.771 298.512 177.771C300.641 177.771 302.31 178.308 303.521 179.382C304.742 180.446 305.352 181.931 305.352 183.835C305.352 184.792 305.045 185.695 304.43 186.545C303.824 187.385 303.038 188.02 302.071 188.449C303.243 188.85 304.132 189.48 304.737 190.339C305.352 191.198 305.66 192.224 305.66 193.415C305.66 195.329 305.001 196.853 303.682 197.985C302.374 199.118 300.65 199.685 298.512 199.685C296.461 199.685 294.781 199.138 293.473 198.044C292.164 196.95 291.51 195.495 291.51 193.679H295.069C295.069 194.616 295.382 195.378 296.007 195.964C296.641 196.55 297.491 196.843 298.556 196.843C299.659 196.843 300.528 196.55 301.163 195.964C301.798 195.378 302.115 194.528 302.115 193.415C302.115 192.292 301.783 191.428 301.119 190.822C300.455 190.217 299.469 189.914 298.16 189.914H296.065V187.102Z" fill="black"/>
<path d="M145.065 199.974H133.334C133.334 198.129 133.998 194.441 136.654 194.441C139.974 194.441 140.196 196.432 142.298 195.547C143.98 194.839 143.442 192.817 142.962 191.895C139.753 190.42 133.334 187.181 133.334 186.03C133.334 184.591 132.56 178.726 139.2 179.279C144.512 179.722 147.684 183.226 148.606 184.923L149.381 194.441L145.84 195.547L145.065 199.974Z" fill="black"/>
<path d="M172.464 199.974H184.195C184.195 198.129 183.531 194.441 180.875 194.441C177.555 194.441 177.334 196.432 175.231 195.547C173.549 194.839 174.088 192.817 174.567 191.895C177.776 190.42 184.195 187.181 184.195 186.03C184.195 184.591 184.97 178.726 178.33 179.279C173.018 179.722 169.845 183.226 168.923 184.923L168.148 194.441L171.69 195.547L172.464 199.974Z" fill="black"/>
<path d="M156.685 201.191H147.5V197.428L151.594 196.322L152.701 182.931L149.381 179.279L144.29 174.742L145.065 168.877L148.606 162.79C148.606 165.262 148.761 170.382 149.381 171.09C150.156 171.976 151.926 173.746 152.701 174.078C153.32 174.344 154.213 175.886 154.582 176.624V179.279L162.329 179.833V175.406L166.866 173.193V162.79L168.923 164.34C169.639 166.553 171.195 171.157 171.69 171.865C172.185 172.573 170.052 176.291 168.923 178.062L164.653 184.923V196.322L166.866 197.428L168.923 201.191H159.783L158.898 189.018H157.57L156.685 201.191Z" fill="black"/>
<path d="M153.443 168.535L151.531 166.546L154.17 165.399L153.443 162.608L150.805 161.614L150.346 153.545L153.864 159.549H160.747L164.188 155.304L164.653 161.614L161.244 162.149V165.629L163.768 166.317L161.512 168.535L160.173 174.742H155.852L153.443 168.535Z" fill="black"/>
<path d="M143.042 162.79C143.012 162.478 139.486 159.734 137.727 158.401C137.829 156.4 137.972 151.434 137.727 147.58C137.422 142.762 140.901 137.485 145.069 136.567C148.403 135.833 150.766 141.054 151.531 143.756C151.659 142.137 151.837 138.296 151.531 135.879C151.15 132.858 146.942 131.481 143.425 131.252C139.907 131.023 136.847 134.541 136.007 136.376C135.334 137.844 125.682 143.081 120.94 145.515C117.167 146.828 109.728 153.338 110.157 168.877C110.585 184.416 118.671 190.827 122.661 192.09C120.43 187.947 115.969 178.813 115.969 175.418C115.969 171.173 116.046 165.934 120.29 165.399C123.686 164.971 124.917 171.007 125.108 174.078C126.459 170.675 129.567 163.862 131.188 163.831C132.81 163.801 135.076 165.221 136.007 165.934C136.198 167.286 136.588 170.118 136.618 170.638C136.649 171.158 139.818 172.894 141.398 173.697C141.946 171.594 143.119 167.334 143.425 167.12C143.807 166.852 143.081 163.181 143.042 162.79Z" fill="black"/>
<path d="M173.23 166.546L175.231 172.828L179.605 173.193C180.028 170.595 181.74 165.399 185.199 165.399C188.658 165.399 190.197 171.185 190.533 174.078C191.401 171.364 193.539 165.934 195.152 165.934C197.168 165.934 197.754 165.629 201.137 172.828C203.843 178.587 199.055 188.523 196.323 192.772C198.491 190.524 203.205 185.41 204.714 182.931C206.601 179.833 205.95 175.406 206.211 167.792C206.471 160.178 200.746 149.513 196.973 146.52C193.2 143.528 187.02 140.275 182.987 139.82C178.954 139.365 176.354 130.843 172.254 130.648C168.974 130.492 168.667 132.708 168.923 133.835C168.104 134.204 166.191 135.266 165.098 136.567C164.005 137.868 165.821 141.902 166.866 143.756C167.187 141.945 168.312 138.22 170.237 137.803C172.644 137.283 172.895 142.357 174.401 143.756C175.906 145.155 178.553 152.804 178.67 155.304C178.764 157.305 177.165 160.344 176.354 161.614C175.436 162.312 173.458 163.71 172.895 163.71C172.332 163.71 173.397 165.41 173.23 166.546Z" fill="black"/>
<path d="M250.202 258.659C250.052 262.063 249.095 264.641 247.331 266.391C245.567 268.141 243.079 269.016 239.866 269.016C236.489 269.016 233.898 267.908 232.094 265.693C230.303 263.465 229.407 260.293 229.407 256.178V251.153C229.407 247.052 230.337 243.893 232.196 241.679C234.056 239.45 236.64 238.336 239.948 238.336C243.202 238.336 245.67 239.245 247.351 241.063C249.047 242.882 250.011 245.493 250.243 248.897H244.193C244.139 246.792 243.81 245.343 243.209 244.55C242.621 243.743 241.534 243.34 239.948 243.34C238.335 243.34 237.193 243.907 236.523 245.042C235.853 246.163 235.498 248.016 235.457 250.599V256.239C235.457 259.206 235.785 261.243 236.441 262.35C237.111 263.458 238.253 264.012 239.866 264.012C241.452 264.012 242.546 263.629 243.147 262.863C243.749 262.084 244.091 260.682 244.173 258.659H250.202ZM261.657 252.158L266.148 238.746H272.711L264.713 257.777V268.605H258.601V257.777L250.583 238.746H257.145L261.657 252.158ZM293.825 258.659C293.674 262.063 292.717 264.641 290.954 266.391C289.19 268.141 286.702 269.016 283.489 269.016C280.112 269.016 277.521 267.908 275.716 265.693C273.925 263.465 273.03 260.293 273.03 256.178V251.153C273.03 247.052 273.959 243.893 275.819 241.679C277.678 239.45 280.262 238.336 283.571 238.336C286.825 238.336 289.292 239.245 290.974 241.063C292.669 242.882 293.633 245.493 293.866 248.897H287.816C287.761 246.792 287.433 245.343 286.831 244.55C286.244 243.743 285.157 243.34 283.571 243.34C281.957 243.34 280.816 243.907 280.146 245.042C279.476 246.163 279.121 248.016 279.079 250.599V256.239C279.079 259.206 279.408 261.243 280.064 262.35C280.734 263.458 281.875 264.012 283.489 264.012C285.075 264.012 286.168 263.629 286.77 262.863C287.371 262.084 287.713 260.682 287.795 258.659H293.825ZM302.306 263.601H312.888V268.605H296.277V238.746H302.306V263.601ZM334.822 256.362C334.822 260.368 333.872 263.478 331.972 265.693C330.085 267.908 327.46 269.016 324.097 269.016C320.747 269.016 318.115 267.922 316.201 265.734C314.287 263.533 313.316 260.457 313.289 256.506V251.399C313.289 247.298 314.239 244.099 316.14 241.802C318.04 239.491 320.679 238.336 324.056 238.336C327.378 238.336 329.996 239.471 331.91 241.74C333.824 243.996 334.795 247.168 334.822 251.256V256.362ZM328.772 251.358C328.772 248.665 328.39 246.662 327.624 245.349C326.858 244.037 325.669 243.381 324.056 243.381C322.456 243.381 321.273 244.016 320.508 245.288C319.742 246.546 319.346 248.467 319.318 251.051V256.362C319.318 258.974 319.708 260.901 320.487 262.145C321.267 263.376 322.47 263.991 324.097 263.991C325.669 263.991 326.838 263.39 327.603 262.186C328.369 260.97 328.759 259.09 328.772 256.547V251.358ZM343.919 258.105V268.605H337.889V238.746H348.061C351.014 238.746 353.366 239.662 355.116 241.494C356.88 243.326 357.761 245.705 357.761 248.631C357.761 251.557 356.893 253.867 355.157 255.562C353.421 257.258 351.014 258.105 347.938 258.105H343.919ZM343.919 253.081H348.061C349.21 253.081 350.098 252.705 350.727 251.953C351.356 251.201 351.671 250.107 351.671 248.672C351.671 247.182 351.349 245.999 350.707 245.124C350.064 244.235 349.203 243.784 348.123 243.77H343.919V253.081ZM373.154 260.771C373.154 259.555 372.839 258.639 372.21 258.023C371.595 257.394 370.467 256.745 368.827 256.075C365.832 254.94 363.679 253.614 362.367 252.097C361.054 250.565 360.398 248.761 360.398 246.682C360.398 244.167 361.287 242.15 363.064 240.633C364.855 239.101 367.124 238.336 369.872 238.336C371.705 238.336 373.338 238.725 374.774 239.505C376.209 240.27 377.31 241.357 378.076 242.766C378.855 244.174 379.245 245.773 379.245 247.564H373.236C373.236 246.17 372.935 245.11 372.333 244.386C371.746 243.647 370.891 243.278 369.77 243.278C368.717 243.278 367.897 243.593 367.309 244.222C366.721 244.837 366.427 245.671 366.427 246.724C366.427 247.544 366.755 248.289 367.412 248.959C368.068 249.615 369.23 250.299 370.898 251.01C373.81 252.062 375.922 253.354 377.235 254.886C378.561 256.417 379.224 258.365 379.224 260.73C379.224 263.328 378.397 265.358 376.743 266.821C375.088 268.284 372.839 269.016 369.996 269.016C368.068 269.016 366.311 268.619 364.725 267.826C363.139 267.033 361.895 265.898 360.993 264.422C360.104 262.945 359.66 261.202 359.66 259.192H365.709C365.709 260.915 366.044 262.166 366.714 262.945C367.384 263.724 368.478 264.114 369.996 264.114C372.101 264.114 373.154 263 373.154 260.771Z" fill="black"/>
<path d="M60.8249 265.591H64.301C66.5364 265.591 68.259 264.904 69.469 263.53C70.6789 262.156 71.2839 260.28 71.2839 257.901C71.2839 252.651 69.2536 250.026 65.1931 250.026C63.2448 250.026 61.717 250.733 60.6096 252.148C59.5022 253.563 58.9485 255.419 58.9485 257.716H53.5344C53.5344 254.127 54.6213 251.174 56.7951 248.857C58.9895 246.519 61.7888 245.35 65.1931 245.35C68.7204 245.35 71.5197 246.458 73.591 248.672C75.6623 250.867 76.698 253.984 76.698 258.024C76.698 260.095 76.1545 262.033 75.0676 263.838C74.0012 265.622 72.6067 266.935 70.884 267.775C75.1086 269.334 77.2209 272.831 77.2209 278.265C77.2209 282.264 76.1032 285.453 73.8679 287.832C71.653 290.19 68.7512 291.37 65.1623 291.37C61.6145 291.37 58.7434 290.252 56.549 288.017C54.3752 285.761 53.2883 282.736 53.2883 278.942H58.7331C58.7331 281.321 59.3073 283.218 60.4558 284.633C61.6042 286.027 63.1731 286.725 65.1623 286.725C67.1926 286.725 68.8025 286.038 69.9919 284.664C71.2019 283.29 71.8069 281.198 71.8069 278.388C71.8069 272.954 69.2331 270.236 64.0857 270.236H60.8249V265.591Z" fill="black"/>
<path d="M241.251 294.161C240.059 295.42 238.668 296.05 237.076 296.05C235.201 296.05 233.707 295.396 232.594 294.087C231.48 292.769 230.924 291.041 230.924 288.902C230.924 287.496 231.207 286.221 231.773 285.079C232.34 283.936 233.145 283.047 234.19 282.413C235.235 281.778 236.446 281.461 237.823 281.461C239.972 281.461 241.676 282.261 242.935 283.863C244.195 285.464 244.825 287.608 244.825 290.294V291.29C244.825 295.137 243.956 298.072 242.218 300.093C240.479 302.115 237.887 303.14 234.439 303.169H234.015V300.225H234.527C236.627 300.196 238.238 299.693 239.361 298.716C240.484 297.73 241.114 296.211 241.251 294.161ZM237.823 293.267C238.536 293.267 239.205 293.062 239.83 292.652C240.455 292.242 240.938 291.675 241.28 290.953V289.561C241.28 287.989 240.958 286.724 240.313 285.767C239.669 284.81 238.834 284.332 237.808 284.332C236.783 284.332 235.963 284.756 235.348 285.606C234.742 286.446 234.439 287.51 234.439 288.799C234.439 290.137 234.747 291.216 235.362 292.037C235.977 292.857 236.798 293.267 237.823 293.267ZM272.306 291.568C272.306 293.287 271.842 294.693 270.914 295.787C269.986 296.871 268.829 297.413 267.442 297.413C266.72 297.413 266.051 297.276 265.435 297.003C264.83 296.729 264.151 296.26 263.399 295.596C262.647 294.922 262.105 294.507 261.773 294.351C261.451 294.185 261.104 294.102 260.733 294.102C260.079 294.102 259.561 294.356 259.181 294.864C258.809 295.372 258.624 296.036 258.624 296.856H255.797C255.797 295.186 256.241 293.819 257.13 292.754C258.018 291.68 259.185 291.143 260.631 291.143C261.353 291.143 262.037 291.29 262.682 291.583C263.336 291.866 264.015 292.33 264.718 292.974C265.431 293.619 265.948 294.024 266.27 294.19C266.602 294.356 266.959 294.439 267.34 294.439C267.994 294.439 268.526 294.166 268.936 293.619C269.347 293.072 269.552 292.388 269.552 291.568H272.306ZM297.442 303.082H283.101V300.635L290.206 292.886C291.231 291.744 291.959 290.792 292.389 290.03C292.828 289.258 293.048 288.487 293.048 287.715C293.048 286.7 292.76 285.879 292.183 285.254C291.617 284.629 290.85 284.317 289.884 284.317C288.731 284.317 287.838 284.669 287.203 285.372C286.568 286.075 286.251 287.037 286.251 288.257H282.691C282.691 286.959 282.984 285.792 283.57 284.756C284.166 283.711 285.011 282.901 286.104 282.325C287.208 281.749 288.477 281.461 289.913 281.461C291.983 281.461 293.614 281.983 294.806 283.028C296.007 284.063 296.607 285.499 296.607 287.335C296.607 288.399 296.305 289.517 295.699 290.689C295.103 291.851 294.122 293.174 292.755 294.659L287.54 300.24H297.442V303.082Z" fill="black"/>
<path fill-rule="evenodd" clip-rule="evenodd" d="M117.152 292.051C114.363 287.409 114.692 282.696 115.205 280.921L122.381 289.863L125.662 291.385V284.441L121.561 279.113C120.98 278.954 119.448 278.637 117.972 278.637C117.15 278.637 116.776 278.373 116.396 278.106C115.923 277.772 115.441 277.433 114.076 277.591C112.618 277.76 112.888 276.727 113.115 275.856C113.272 275.258 113.408 274.737 112.948 274.737C112.481 274.737 112.489 274.296 112.498 273.773C112.511 273.034 112.527 272.129 111.205 272.073C108.949 271.978 109.565 269.409 110.59 267.412C111.411 265.813 112.504 264.843 112.948 264.558L110.59 260.182L114.076 257.137L117.152 261.704C117.482 262.399 118.493 264.558 119.617 266.126C120.741 267.695 118.409 262.816 117.819 261.877C117.229 260.939 123.745 251.717 124.124 250.858C124.862 249.184 126.739 248.368 128.038 248.558C129.576 248.97 132.496 250.975 132.626 250.598C132.903 249.789 129.254 248.796 128.338 247.909C127.422 247.023 130.481 243.815 130.481 243.153C130.481 240.965 138.273 236.779 141.247 236.018C143.625 235.409 147.638 233.544 149.346 232.688C149.757 230.976 152.648 227.551 160.932 227.551C169.217 227.551 170.468 233.195 170.058 236.018C171.835 237.223 175.697 239.861 176.927 240.774C178.158 241.688 177.44 245.912 176.927 247.909C177.269 248.195 178.506 248.975 180.721 249.812C182.935 250.649 182.327 253.776 181.746 255.235C182.327 254.981 183.94 254.474 185.745 254.474C187.549 254.474 189.573 256.249 190.359 257.137C190.7 256.788 191.671 255.767 192.819 254.474C193.968 253.18 195.007 253.3 195.383 253.522V244.675H190.769L191.999 240.299L187.693 238.491L187.283 236.018H189.949C190.188 234.02 190.687 229.929 190.769 229.549C190.806 229.377 191.417 229.255 192.183 229.102C193.54 228.831 195.383 228.463 195.383 227.551C195.383 226.409 196.681 225.363 197.331 224.982L198.561 228.312L203.072 228.978C203.38 230.183 203.995 232.897 203.995 234.115C203.995 235.333 205.431 234.622 206.148 234.115V238.491H203.995L204.713 243.153L199.996 245.341V255.235C201.329 255.869 203.995 257.404 203.995 258.469V260.847C204.474 261.26 205.451 262.389 205.533 263.606C205.615 264.824 203.927 265.319 203.072 265.414C203.38 266.08 203.811 267.64 203.072 268.553C202.334 269.466 200.236 268.934 199.279 268.553V274.737H195.383V269.409C194.802 269.79 193.312 270.323 191.999 269.409C190.687 268.496 189.47 267.697 189.026 267.412C188.376 267.221 186.565 267.183 184.514 268.553C181.951 270.266 178.055 267.697 176.004 264.558C174.364 262.046 170.81 258.564 169.237 257.137C169.237 258.501 168.786 261.894 166.982 264.558C165.177 267.221 164.794 266.238 164.829 265.414C164.589 266.302 164.111 268.572 164.111 270.551C164.111 272.164 166.292 274.142 168.293 275.956C169.359 276.923 170.374 277.843 170.98 278.637C172.723 280.921 174.877 283.775 174.774 289.863C174.707 293.872 172.328 295.695 170.71 296.934C169.871 297.577 169.237 298.063 169.237 298.615C169.237 300.233 170.775 303.182 172.313 303.943C172.568 304.069 172.854 304.187 173.155 304.312C174.673 304.94 176.585 305.731 176.927 308.509C177.255 311.173 174.535 310.761 173.134 310.222C172.347 310.475 170.468 310.964 169.237 310.888C168.007 310.811 167.221 310.412 166.982 310.222C166.469 311.078 165.177 312.923 164.111 313.456C162.989 314.017 160.85 311.814 159.223 310.138C158.917 309.823 158.629 309.526 158.369 309.27C157.057 307.976 157.822 305.18 158.369 303.943C156.831 304.101 153.489 304.057 152.422 302.611C151.41 301.238 153.534 299.589 154.883 298.543C155.309 298.213 155.658 297.942 155.806 297.759C156.421 296.998 158.369 293.003 159.087 291.385C159.805 289.768 159.087 288.151 158.369 286.819C157.795 285.753 158.608 282.443 159.087 280.921C158.096 281.396 155.478 282.271 152.935 281.967C150.687 281.698 149.716 279.773 149.427 278.52C149.881 281.038 150.856 285.602 151.705 286.819C152.319 287.7 151.747 289.004 151.198 290.256C150.739 291.301 150.297 292.31 150.577 293.003C150.803 293.563 151.113 293.955 151.414 294.337C151.931 294.992 152.422 295.615 152.422 296.998C152.422 299.186 151.192 299.947 150.577 300.328C150.136 300.601 149.536 302.586 149.119 303.968C148.955 304.513 148.818 304.964 148.731 305.18C148.424 305.941 150.064 306.892 152.935 306.607C155.752 306.327 155.41 309.802 155.202 311.91L155.191 312.029C155.058 313.385 150.019 312.864 145.594 312.407C143.19 312.158 140.966 311.929 139.811 312.029C136.53 312.315 130.481 309.461 129.763 308.509C129.272 307.858 130.703 306.716 131.983 305.694C132.573 305.224 133.131 304.779 133.454 304.419C134.275 303.505 134.411 299.598 134.377 297.759C135.676 297.601 138.745 296.237 140.631 292.051C142.518 287.865 139.025 284.789 137.043 283.775C136.838 281.111 136.325 275.574 135.915 274.737C135.505 273.9 135.061 262.655 134.89 257.137C134.035 257.645 132.142 258.831 131.404 259.516C130.737 260.134 129.266 263.288 128.038 265.922C127.567 266.933 127.131 267.867 126.79 268.553C125.806 270.532 127.2 273.5 128.02 274.737L124.842 275.783L129.763 283.109C130.857 282.823 133.618 282.937 135.915 285.677C138.786 289.102 137.658 293.573 135.915 294.81C134.521 295.799 131.711 295.666 130.481 295.476L124.124 301.755C122.962 300.455 119.941 296.694 117.152 292.051ZM160.932 237.047C165.113 236.916 166.161 234.878 166.161 234.779C166.161 234.7 161.705 234.146 162.015 234.385C162.325 234.624 161.842 236.019 160.822 236.019C159.801 236.019 159.404 235.001 159.56 234.385C159.716 233.768 154.519 234.779 154.519 234.779C154.519 234.779 156.752 237.179 160.932 237.047ZM165.753 241.214C163.915 240.559 159.523 241.588 158.239 241.69C156.956 241.792 155.516 242.34 155.516 242.34C155.516 242.34 163.774 241.69 165.011 242.34C166.248 242.99 166.161 243.819 166.161 243.819C166.161 243.819 167.59 241.869 165.753 241.214ZM146.625 257.68H157.809L158.593 255.818L159.087 257.68L167.751 257.946L166.161 257.137C164.285 257.326 160.457 257.59 160.151 257.137C159.845 256.685 158.749 252.763 158.239 250.858L156.806 256.705L146.625 257.68ZM156.445 268.553L150.399 268.143L155.969 267.667L156.806 266.579L158.021 267.667L162.858 268.143L157.361 268.553L157.141 267.667L156.445 268.553Z" fill="black"/>
<path d="M229.961 372.295V342.436H239.189C242.307 342.436 244.672 343.133 246.285 344.528C247.912 345.909 248.725 347.939 248.725 350.619C248.725 352.136 248.391 353.442 247.721 354.536C247.051 355.629 246.135 356.429 244.973 356.935C246.312 357.318 247.345 358.09 248.069 359.252C248.794 360.401 249.156 361.823 249.156 363.518C249.156 366.416 248.356 368.604 246.757 370.08C245.171 371.557 242.867 372.295 239.846 372.295H229.961ZM235.99 359.314V367.291H239.846C240.926 367.291 241.746 366.956 242.307 366.286C242.867 365.617 243.147 364.666 243.147 363.436C243.147 360.756 242.177 359.382 240.235 359.314H235.99ZM235.99 354.925H239.128C241.493 354.925 242.676 353.702 242.676 351.254C242.676 349.901 242.402 348.93 241.855 348.342C241.308 347.754 240.42 347.46 239.189 347.46H235.99V354.925ZM267.707 359.375H258.314V367.291H269.429V372.295H252.285V342.436H269.388V347.46H258.314V354.515H267.707V359.375ZM292.594 372.295H286.585V359.519H277.685V372.295H271.656V342.436H277.685V354.515H286.585V342.436H292.594V372.295ZM311.616 359.375H302.224V367.291H313.339V372.295H296.194V342.436H313.298V347.46H302.224V354.515H311.616V359.375ZM323.44 342.436L329.08 364.031L334.699 342.436H342.574V372.295H336.524V364.215L337.078 351.767L331.11 372.295H327.009L321.041 351.767L321.595 364.215V372.295H315.565V342.436H323.44ZM367.195 360.052C367.195 364.058 366.245 367.168 364.344 369.383C362.458 371.598 359.833 372.705 356.469 372.705C353.12 372.705 350.488 371.612 348.574 369.424C346.66 367.223 345.689 364.147 345.662 360.196V355.089C345.662 350.988 346.612 347.788 348.512 345.492C350.413 343.181 353.051 342.026 356.428 342.026C359.751 342.026 362.369 343.161 364.283 345.43C366.197 347.686 367.168 350.858 367.195 354.946V360.052ZM361.145 355.048C361.145 352.355 360.762 350.352 359.997 349.039C359.231 347.727 358.042 347.071 356.428 347.071C354.829 347.071 353.646 347.706 352.881 348.978C352.115 350.236 351.718 352.157 351.691 354.741V360.052C351.691 362.663 352.081 364.591 352.86 365.835C353.639 367.066 354.842 367.681 356.469 367.681C358.042 367.681 359.211 367.079 359.976 365.876C360.742 364.66 361.132 362.78 361.145 360.237V355.048ZM387.837 347.46H380.455V372.295H374.405V347.46H367.145V342.436H387.837V347.46ZM410.982 372.295H404.973V359.519H396.072V372.295H390.043V342.436H396.072V354.515H404.973V342.436H410.982V372.295Z" fill="black"/>
<path d="M78.9128 394.444H53.8728V390.353L66.6389 373.434C68.5666 370.83 69.8996 368.697 70.6379 367.036C71.3967 365.354 71.7761 363.58 71.7761 361.714C71.7761 359.335 71.2224 357.407 70.115 355.931C69.0075 354.454 67.5515 353.716 65.7468 353.716C63.4704 353.716 61.7068 354.505 60.4558 356.084C59.2253 357.643 58.6101 359.899 58.6101 362.852H53.1653C53.1653 358.73 54.2932 355.397 56.549 352.854C58.8049 350.312 61.8708 349.04 65.7468 349.04C69.3152 349.04 72.1247 350.137 74.1755 352.332C76.2263 354.505 77.2517 357.407 77.2517 361.037C77.2517 365.467 74.9446 370.707 70.3303 376.756L60.3635 389.799H78.9128V394.444Z" fill="black"/>
<path d="M244.591 391.068C244.591 392.113 244.322 393.046 243.785 393.866C243.248 394.677 242.516 395.316 241.588 395.785C242.701 396.303 243.556 397.011 244.151 397.909C244.757 398.808 245.059 399.823 245.059 400.956C245.059 402.831 244.425 404.32 243.155 405.424C241.886 406.518 240.196 407.065 238.087 407.065C235.968 407.065 234.268 406.513 232.989 405.409C231.72 404.306 231.085 402.821 231.085 400.956C231.085 399.814 231.388 398.788 231.993 397.88C232.599 396.972 233.448 396.273 234.542 395.785C233.624 395.316 232.896 394.677 232.359 393.866C231.832 393.046 231.568 392.113 231.568 391.068C231.568 389.252 232.154 387.812 233.326 386.747C234.498 385.683 236.08 385.15 238.072 385.15C240.074 385.15 241.661 385.683 242.833 386.747C244.005 387.812 244.591 389.252 244.591 391.068ZM241.5 400.78C241.5 399.726 241.182 398.876 240.548 398.232C239.923 397.577 239.093 397.25 238.057 397.25C237.022 397.25 236.192 397.572 235.567 398.217C234.952 398.861 234.644 399.716 234.644 400.78C234.644 401.825 234.947 402.66 235.553 403.285C236.168 403.91 237.013 404.223 238.087 404.223C239.161 404.223 239.996 403.92 240.592 403.315C241.197 402.709 241.5 401.864 241.5 400.78ZM241.046 391.2C241.046 390.273 240.777 389.511 240.24 388.915C239.703 388.31 238.98 388.007 238.072 388.007C237.164 388.007 236.446 388.295 235.919 388.871C235.391 389.438 235.128 390.214 235.128 391.2C235.128 392.177 235.391 392.953 235.919 393.529C236.456 394.106 237.179 394.394 238.087 394.394C238.995 394.394 239.713 394.106 240.24 393.529C240.777 392.953 241.046 392.177 241.046 391.2ZM272.306 395.258C272.306 396.977 271.842 398.383 270.914 399.477C269.986 400.561 268.829 401.103 267.442 401.103C266.72 401.103 266.051 400.966 265.435 400.692C264.83 400.419 264.151 399.95 263.399 399.286C262.647 398.612 262.105 398.197 261.773 398.041C261.451 397.875 261.104 397.792 260.733 397.792C260.079 397.792 259.561 398.046 259.181 398.554C258.809 399.062 258.624 399.726 258.624 400.546H255.797C255.797 398.876 256.241 397.509 257.13 396.444C258.018 395.37 259.185 394.833 260.631 394.833C261.353 394.833 262.037 394.98 262.682 395.273C263.336 395.556 264.015 396.02 264.718 396.664C265.431 397.309 265.948 397.714 266.27 397.88C266.602 398.046 266.959 398.129 267.34 398.129C267.994 398.129 268.526 397.856 268.936 397.309C269.347 396.762 269.552 396.078 269.552 395.258H272.306ZM287.218 394.482H289.386C290.479 394.472 291.344 394.189 291.978 393.632C292.623 393.075 292.945 392.27 292.945 391.215C292.945 390.199 292.677 389.413 292.14 388.857C291.612 388.29 290.802 388.007 289.708 388.007C288.751 388.007 287.965 388.285 287.349 388.842C286.734 389.389 286.427 390.107 286.427 390.995H282.867C282.867 389.901 283.155 388.905 283.731 388.007C284.317 387.108 285.128 386.41 286.163 385.912C287.208 385.404 288.375 385.15 289.664 385.15C291.793 385.15 293.463 385.688 294.674 386.762C295.894 387.826 296.505 389.311 296.505 391.215C296.505 392.172 296.197 393.075 295.582 393.925C294.976 394.765 294.19 395.399 293.224 395.829C294.395 396.23 295.284 396.859 295.89 397.719C296.505 398.578 296.812 399.604 296.812 400.795C296.812 402.709 296.153 404.232 294.835 405.365C293.526 406.498 291.803 407.065 289.664 407.065C287.613 407.065 285.933 406.518 284.625 405.424C283.316 404.33 282.662 402.875 282.662 401.059H286.222C286.222 401.996 286.534 402.758 287.159 403.344C287.794 403.93 288.643 404.223 289.708 404.223C290.811 404.223 291.681 403.93 292.315 403.344C292.95 402.758 293.267 401.908 293.267 400.795C293.267 399.672 292.935 398.808 292.271 398.202C291.607 397.597 290.621 397.294 289.312 397.294H287.218V394.482Z" fill="black"/>
<path d="M127.905 405.406H131.688C131.52 404.202 131.519 401.576 132.865 400.702C134.21 399.828 139.198 398.21 141.524 397.51V391.378C140.683 390.117 138.48 387.648 136.396 387.849C134.311 388.051 133.789 388.829 133.789 389.193C133.257 391.097 132.091 394.99 131.688 395.326C131.284 395.662 129.894 396.362 129.25 396.67L121.851 399.022L123.364 404.65L125.719 406.162L127.905 405.406Z" fill="black"/>
<path d="M201.129 403.558L190.032 404.146V397.51C191.013 396.586 193.126 394.284 193.731 392.47C194.337 390.655 193.031 388.633 192.302 387.849C194.152 387.849 198.271 388.118 199.952 389.193C202.054 390.537 199.28 392.89 199.364 395.326C199.431 397.275 200.569 401.626 201.129 403.558Z" fill="black"/>
<path fill-rule="evenodd" clip-rule="evenodd" d="M122.441 367.352C121.46 366.428 119.044 363.538 117.228 359.372C115.412 355.205 114.566 350.971 114.37 349.375C113.921 351.867 113.293 357.49 114.37 360.044C115.446 362.597 116.724 364.692 117.228 365.42C116.191 365.084 113.849 363.538 112.773 360.044C111.697 356.549 110.419 352.259 109.914 350.551C109.354 354.415 108.569 362.665 109.914 364.748C111.259 366.831 113.781 369.536 114.874 370.628L112.773 372.98V380.457L111.343 381.213L112.773 387.009C113.949 387.821 116.79 389.479 118.741 389.613C119.88 389.692 119.257 388.799 118.596 387.85C117.843 386.768 117.039 385.615 118.741 385.749C120.397 385.88 120.878 385.491 121.379 385.087C121.845 384.711 122.327 384.321 123.785 384.321C126.206 384.321 127.933 384.993 128.493 385.329L121.095 391.63H115.798C116.891 392.722 120.019 394.872 123.785 394.738C128.493 394.57 130.174 391.462 130.847 389.613C131.519 387.765 133.705 385.749 137.573 385.749C140.666 385.749 143.065 389.669 143.878 391.63L150.099 392.974L143.878 394.066L142.953 399.19C140.599 400.086 135.773 401.979 135.303 402.382C134.832 402.785 134.714 405.294 134.714 406.498L155.984 405.658L156.825 395.158L157.665 388.941L155.984 385.329C156.516 386.141 158.237 387.883 160.86 388.353C163.483 388.824 165.708 388.941 166.493 388.941C166.409 390.873 167.132 394.738 170.696 394.738C172.104 394.738 173.689 394.57 175.193 394.393C175.408 394.368 175.621 394.343 175.832 394.318C178.813 393.962 181.312 393.665 181.205 394.738C181.037 396.418 180.532 399.862 177.758 399.946C174.984 400.03 168.342 401.794 168.762 403.726C169.099 405.272 168.903 406.554 168.762 407.002L187.846 406.498C187.538 403.558 187.107 397.426 187.846 396.418C188.128 396.034 188.604 395.744 189.114 395.433C190.279 394.724 191.618 393.908 191.209 391.63L191.175 391.439C190.604 388.253 190.155 385.749 187.846 385.749C185.492 385.749 183.391 383.229 183.727 382.977C183.921 382.831 186.833 383.498 189.761 384.168C191.905 384.659 194.059 385.152 195.16 385.329C197.767 385.749 206.93 383.649 206.51 375.501C206.174 368.982 204.016 364.664 202.979 363.32L206.51 360.044L201.129 361.388L199.868 359.372V348.535L196.842 357.271H194.572C194.6 355.059 194.118 350.215 191.966 348.535C189.814 346.855 186.866 345.875 185.661 345.595C187.762 347.135 191.966 350.853 191.966 353.407C191.966 355.961 191.381 356.327 191.089 356.19C190.014 355.039 187.312 352.417 185.105 351.14C182.897 349.863 178.878 348.871 177.145 348.535C182.248 351.29 191.856 357.148 189.462 358.542C187.068 359.935 184.862 359.567 184.059 359.209L175.488 357.271L174.647 353.827L172.209 354.667L170.696 352.315L169.603 349.375L165.652 350.551L160.86 347.359L161.869 342.907L155.984 345.595H151.192L149.09 340.302L145.055 347.359L142.196 349.963L141.608 344.923L138.497 351.14L135.303 353.407L132.865 349.963L132.444 355.675L129.67 357.271V360.044L125.887 361.388L125.298 366.344V368.696L122.441 367.352ZM124.374 377.937H119.582L124.374 373.82V377.937ZM138.497 360.968L141.608 364.244L142.953 369.116L143.878 374.912C144.747 372.896 146.417 368.713 146.148 368.108C145.879 367.503 144.522 364.216 143.878 362.648L138.497 360.044V360.968ZM162.289 355.843C160.81 355.373 154.443 355.311 151.444 355.339C154.331 355.927 160.776 357.339 163.466 358.279C166.156 359.22 170.808 362.088 172.798 363.404L169.351 358.868C167.614 358.055 163.769 356.314 162.289 355.843ZM164.643 387.093C164.475 385.805 164.66 382.607 166.745 380.121C168.243 378.334 171.298 376.852 173.624 375.724C175.344 374.89 176.665 374.249 176.665 373.82C176.665 373.014 175.096 370.628 174.311 369.536C174.676 370.964 175.034 373.82 173.555 373.82C171.705 373.82 165.232 376.929 164.055 378.525C163.113 379.802 164.055 384.769 164.643 387.093ZM196.506 378.525C190.924 379.062 188.295 371.132 187.678 367.1L190.032 365.252L190.873 369.032L193.731 367.1L194.824 370.712C195.021 370.04 195.9 368.612 197.851 368.276C200.289 367.856 201.298 370.292 201.718 373.82C201.781 374.35 201.865 374.811 201.939 375.215C202.355 377.504 202.437 377.954 196.506 378.525Z" fill="black"/>
<path d="M242.573 468.151C242.573 466.934 242.259 466.018 241.63 465.403C241.015 464.774 239.887 464.125 238.246 463.455C235.252 462.32 233.099 460.994 231.786 459.476C230.474 457.945 229.817 456.141 229.817 454.062C229.817 451.547 230.706 449.53 232.483 448.013C234.274 446.481 236.544 445.716 239.292 445.716C241.124 445.716 242.758 446.105 244.193 446.885C245.629 447.65 246.729 448.737 247.495 450.145C248.274 451.554 248.664 453.153 248.664 454.944H242.655C242.655 453.55 242.354 452.49 241.753 451.766C241.165 451.027 240.31 450.658 239.189 450.658C238.137 450.658 237.316 450.973 236.728 451.601C236.141 452.217 235.847 453.051 235.847 454.103C235.847 454.924 236.175 455.669 236.831 456.339C237.487 456.995 238.649 457.679 240.317 458.39C243.229 459.442 245.342 460.734 246.654 462.266C247.98 463.797 248.643 465.745 248.643 468.11C248.643 470.708 247.816 472.738 246.162 474.201C244.508 475.664 242.259 476.395 239.415 476.395C237.487 476.395 235.73 475.999 234.144 475.206C232.558 474.413 231.314 473.278 230.412 471.802C229.523 470.325 229.079 468.582 229.079 466.572H235.129C235.129 468.295 235.464 469.546 236.134 470.325C236.804 471.104 237.897 471.494 239.415 471.494C241.52 471.494 242.573 470.38 242.573 468.151ZM266.804 463.065H257.412V470.981H268.527V475.985H251.382V446.126H268.486V451.15H257.412V458.205H266.804V463.065ZM279.797 465.075H276.803V475.985H270.774V446.126H280.392C283.413 446.126 285.745 446.912 287.385 448.484C289.039 450.043 289.867 452.265 289.867 455.149C289.867 459.114 288.424 461.89 285.539 463.475L290.769 475.698V475.985H284.288L279.797 465.075ZM276.803 460.051H280.228C281.431 460.051 282.333 459.654 282.935 458.861C283.537 458.055 283.837 456.981 283.837 455.641C283.837 452.647 282.668 451.15 280.33 451.15H276.803V460.051ZM298.778 465.485V475.985H292.749V446.126H302.921C305.874 446.126 308.226 447.042 309.976 448.874C311.739 450.706 312.621 453.085 312.621 456.011C312.621 458.936 311.753 461.247 310.017 462.942C308.28 464.638 305.874 465.485 302.798 465.485H298.778ZM298.778 460.461H302.921C304.069 460.461 304.958 460.085 305.587 459.333C306.216 458.581 306.53 457.487 306.53 456.052C306.53 454.561 306.209 453.379 305.567 452.504C304.924 451.615 304.063 451.164 302.983 451.15H298.778V460.461ZM330.823 463.065H321.431V470.981H332.546V475.985H315.401V446.126H332.505V451.15H321.431V458.205H330.823V463.065ZM355.649 475.985H349.62L340.801 456.4V475.985H334.772V446.126H340.801L349.64 465.731V446.126H355.649V475.985ZM377.953 451.15H370.57V475.985H364.52V451.15H357.26V446.126H377.953V451.15Z" fill="black"/>
<path d="M240.797 510.461H237.252V493.337L232.022 495.125V492.122L240.343 489.06H240.797V510.461ZM261.641 494.758C261.641 495.803 261.373 496.736 260.836 497.556C260.299 498.367 259.566 499.006 258.639 499.475C259.752 499.993 260.606 500.701 261.202 501.599C261.807 502.498 262.11 503.513 262.11 504.646C262.11 506.521 261.475 508.01 260.206 509.114C258.936 510.208 257.247 510.754 255.138 510.754C253.018 510.754 251.319 510.203 250.04 509.099C248.77 507.996 248.136 506.511 248.136 504.646C248.136 503.503 248.438 502.478 249.044 501.57C249.649 500.662 250.499 499.963 251.593 499.475C250.675 499.006 249.947 498.367 249.41 497.556C248.883 496.736 248.619 495.803 248.619 494.758C248.619 492.942 249.205 491.502 250.377 490.437C251.549 489.373 253.131 488.84 255.123 488.84C257.125 488.84 258.712 489.373 259.884 490.437C261.056 491.502 261.641 492.942 261.641 494.758ZM258.551 504.47C258.551 503.416 258.233 502.566 257.599 501.921C256.974 501.267 256.143 500.94 255.108 500.94C254.073 500.94 253.243 501.262 252.618 501.907C252.003 502.551 251.695 503.406 251.695 504.47C251.695 505.515 251.998 506.35 252.603 506.975C253.219 507.6 254.063 507.913 255.138 507.913C256.212 507.913 257.047 507.61 257.642 507.004C258.248 506.399 258.551 505.554 258.551 504.47ZM258.097 494.89C258.097 493.962 257.828 493.201 257.291 492.605C256.754 492 256.031 491.697 255.123 491.697C254.215 491.697 253.497 491.985 252.97 492.561C252.442 493.128 252.179 493.904 252.179 494.89C252.179 495.867 252.442 496.643 252.97 497.219C253.507 497.795 254.229 498.084 255.138 498.084C256.046 498.084 256.764 497.795 257.291 497.219C257.828 496.643 258.097 495.867 258.097 494.89ZM289.356 498.948C289.356 500.667 288.892 502.073 287.965 503.167C287.037 504.251 285.88 504.793 284.493 504.793C283.77 504.793 283.101 504.656 282.486 504.382C281.881 504.109 281.202 503.64 280.45 502.976C279.698 502.302 279.156 501.887 278.824 501.731C278.502 501.565 278.155 501.482 277.784 501.482C277.13 501.482 276.612 501.736 276.231 502.244C275.86 502.752 275.675 503.416 275.675 504.236H272.848C272.848 502.566 273.292 501.199 274.181 500.134C275.069 499.06 276.236 498.523 277.682 498.523C278.404 498.523 279.088 498.669 279.732 498.962C280.387 499.246 281.065 499.71 281.768 500.354C282.481 500.999 282.999 501.404 283.321 501.57C283.653 501.736 284.01 501.819 284.391 501.819C285.045 501.819 285.577 501.545 285.987 500.999C286.397 500.452 286.602 499.768 286.602 498.948H289.356ZM314.493 510.461H300.152V508.015L307.257 500.266C308.282 499.124 309.01 498.171 309.439 497.41C309.879 496.638 310.099 495.867 310.099 495.095C310.099 494.08 309.81 493.259 309.234 492.634C308.668 492.009 307.901 491.697 306.934 491.697C305.782 491.697 304.889 492.048 304.254 492.752C303.619 493.455 303.302 494.417 303.302 495.637H299.742C299.742 494.338 300.035 493.171 300.621 492.136C301.217 491.091 302.061 490.281 303.155 489.705C304.259 489.128 305.528 488.84 306.964 488.84C309.034 488.84 310.665 489.363 311.856 490.408C313.057 491.443 313.658 492.878 313.658 494.714C313.658 495.779 313.355 496.897 312.75 498.069C312.154 499.231 311.173 500.554 309.806 502.039L304.591 507.62H314.493V510.461Z" fill="black"/>
<path fill-rule="evenodd" clip-rule="evenodd" d="M109.806 482.165C108.553 469.539 118.821 462.664 130.25 462.664C135.769 462.664 144.703 463.189 153.464 463.704C162.848 464.255 172.033 464.794 176.612 464.665C185.466 464.415 191.422 464.04 191.1 457.539C190.778 451.039 181.441 448.539 176.612 448.289C172.748 448.089 165.129 448.206 161.802 448.289C161.909 449.664 161.544 452.789 159.226 454.289C156.329 456.164 148.763 458.789 145.221 459.539C142.388 460.139 139.319 460.289 138.138 460.289L136.367 455.289L139.748 456.664L142.485 454.289H145.865L150.051 452.914L152.304 449.789C151.307 449.38 149.33 448.601 149.399 448.76C149.467 448.919 148.432 450.173 147.906 450.78L145.221 448.462L143.13 451.012L141.338 448.289H138.737L138.138 450.78V451.575C137.471 450.637 135.999 448.76 135.453 448.76C134.771 448.76 132.127 449.058 131.999 449.191C131.896 449.297 133.008 450.295 133.577 450.78C132.496 450.008 130.054 448.462 128.928 448.462C127.521 448.462 126.071 448.793 126.412 449.621C126.617 450.117 126.867 450.352 127.218 450.681C127.453 450.901 127.733 451.164 128.075 451.575C128.758 452.396 130.691 452.81 131.572 452.914C130.151 453.085 127.129 453.323 126.412 452.914C125.696 452.505 124.18 450.66 123.512 449.789C122.474 449.258 120.416 447.913 120.484 446.773C120.57 445.349 120.953 443.296 124.237 443.462C127.521 443.627 132.041 443.329 132.596 442.832C133.15 442.336 135.242 441.475 136.69 441.375C137.49 441.32 139.191 441.771 140.753 442.186C142.018 442.521 143.192 442.832 143.727 442.832C144.474 442.832 148.129 442.534 150.863 442.311C152.497 442.177 153.802 442.071 153.962 442.071C154.388 442.071 160.231 442.634 162.235 442.832C164.239 443.031 172.769 443.098 173.92 442.832C174.231 442.761 174.755 442.636 175.358 442.492C176.988 442.103 179.204 441.574 179.422 441.574C179.457 441.574 179.577 441.57 179.761 441.564C181.145 441.516 186.132 441.346 185.605 441.872C185.128 442.349 184.127 443.528 183.686 444.058C188.335 443.947 197.589 443.793 197.418 444.058C197.248 444.323 195.727 445.493 194.988 446.045C198.982 447.48 206.92 452.217 206.715 459.688C206.459 469.027 199.21 475.087 183.857 475.054C176 475.037 167.808 474.361 160.665 473.771C153.849 473.209 147.987 472.725 144.281 472.968C136.69 473.464 130.634 473.928 129.739 479.127C128.843 484.326 132.766 486.048 136.946 484.459C138.174 483.992 139.373 483.072 140.768 482.003C144.119 479.434 148.599 475.999 157.331 475.882C169.698 475.716 177.375 475.816 180.616 477.041C180.866 477.136 181.137 477.234 181.422 477.337C184.827 478.569 190.345 480.567 189.401 487.075C188.377 494.129 184.198 497.208 177.716 497.142C175.583 497.12 172.471 496.5 169.143 495.836C162.357 494.483 154.672 492.95 152.554 495.95C149.399 500.421 146.584 505.255 154.303 506.083C162.022 506.911 167.31 506.315 168.206 505.322C168.28 505.24 168.375 505.131 168.489 505.001C169.758 503.555 173.371 499.438 176.266 499.195C178.79 498.983 180.246 500.917 180.658 501.911C180.104 501.447 178.663 500.573 177.332 500.785C176.832 500.865 176.332 501.767 175.633 503.028C174.009 505.961 171.313 510.83 165.05 511.779C156.094 513.137 145.902 511.945 141.893 508.931C137.884 505.918 136.349 502.871 137.841 499.825C139.334 496.778 143.343 490.618 145.475 489.691C147.607 488.764 150.593 487.803 152.171 487.837C152.808 487.85 154.769 487.955 157.018 488.076C160.334 488.254 164.274 488.466 165.519 488.466C167.609 488.466 174.858 488.002 174.56 486.777C174.261 485.552 172.3 483.2 170.509 483.962C169.974 484.189 169.701 484.558 169.408 484.956C168.717 485.891 167.909 486.986 163.301 486.777C160.416 486.646 158.23 486.355 156.448 486.118C154.173 485.816 152.555 485.6 150.976 485.916C148.162 486.479 143.3 488.267 141.552 489.923C141.044 490.404 140.637 490.742 140.292 491.029C139.449 491.73 138.976 492.123 138.31 493.533C137.56 495.122 136.917 497.771 136.69 498.897C134.103 498.875 128.169 498.778 125.133 498.566C122.096 498.354 111.059 494.791 109.806 482.165ZM132.767 445.78H140.358V443.66L132.767 445.78Z" fill="black"/>
<defs>
<linearGradient id="paint0_linear" x1="230.207" y1="0.594971" x2="230.207" y2="563.166" gradientUnits="userSpaceOnUse">
<stop stop-color="#50AB6A"/>
<stop offset="1" stop-color="#1E6432"/>
</linearGradient>
</defs>
</svg>
