<svg width="459" height="471" viewBox="0 0 459 471" fill="none" xmlns="http://www.w3.org/2000/svg">
<rect x="0.363098" y="0.594971" width="458.507" height="469.581" rx="6" fill="url(#paint0_linear)"/>
<path d="M154.877 81.4243H172.778V89.3345H144.594V46.6782H154.877V81.4243ZM211.362 68.8853C211.362 73.0454 210.59 76.7271 209.047 79.9302C207.504 83.1333 205.307 85.604 202.455 87.3423C199.623 89.061 196.391 89.9204 192.758 89.9204C189.125 89.9204 185.903 89.0903 183.09 87.4302C180.278 85.7505 178.08 83.3579 176.498 80.2524C174.936 77.147 174.116 73.5825 174.037 69.5591V67.1567C174.037 62.9771 174.799 59.2954 176.323 56.1118C177.866 52.9087 180.063 50.438 182.914 48.6997C185.785 46.9614 189.047 46.0923 192.699 46.0923C196.313 46.0923 199.535 46.9517 202.367 48.6704C205.199 50.3892 207.397 52.8403 208.959 56.0239C210.541 59.188 211.342 62.8208 211.362 66.9224V68.8853ZM200.903 67.0981C200.903 62.8599 200.19 59.647 198.764 57.4595C197.358 55.2524 195.336 54.1489 192.699 54.1489C187.543 54.1489 184.819 58.0161 184.526 65.7505L184.496 68.8853C184.496 73.0649 185.19 76.2778 186.576 78.5239C187.963 80.77 190.024 81.8931 192.758 81.8931C195.356 81.8931 197.358 80.7896 198.764 78.5825C200.17 76.3755 200.883 73.2017 200.903 69.061V67.0981ZM232.514 74.2759H226.948V89.3345H216.664V46.6782H233.451C238.51 46.6782 242.465 47.8013 245.317 50.0474C248.168 52.2935 249.594 55.4673 249.594 59.5688C249.594 62.5376 248.989 64.9985 247.778 66.9517C246.586 68.9048 244.711 70.4868 242.153 71.6978L251.059 88.895V89.3345H240.043L232.514 74.2759ZM226.948 66.3364H233.451C235.405 66.3364 236.869 65.8286 237.846 64.813C238.842 63.7778 239.34 62.3423 239.34 60.5063C239.34 58.6704 238.842 57.2349 237.846 56.1997C236.85 55.145 235.385 54.6177 233.451 54.6177H226.948V66.3364ZM255.805 89.3345V46.6782H269.545C273.315 46.6782 276.703 47.5376 279.711 49.2563C282.719 50.9556 285.063 53.3677 286.742 56.4927C288.442 59.5981 289.301 63.0845 289.321 66.9517V68.9146C289.321 72.8208 288.491 76.3267 286.83 79.4321C285.19 82.5181 282.866 84.9399 279.858 86.6978C276.869 88.436 273.53 89.3149 269.838 89.3345H255.805ZM266.088 54.6177V81.4243H269.662C272.612 81.4243 274.877 80.3794 276.459 78.2896C278.041 76.1802 278.832 73.0552 278.832 68.9146V67.0688C278.832 62.9478 278.041 59.8423 276.459 57.7524C274.877 55.6626 272.573 54.6177 269.545 54.6177H266.088ZM316.596 77.9966C316.596 76.4927 316.059 75.3208 314.985 74.481C313.93 73.6411 312.065 72.772 309.389 71.8735C306.713 70.9751 304.526 70.106 302.826 69.2661C297.299 66.5513 294.535 62.8208 294.535 58.0747C294.535 55.7114 295.219 53.6313 296.586 51.8345C297.973 50.0181 299.926 48.6118 302.446 47.6157C304.965 46.6001 307.797 46.0923 310.942 46.0923C314.008 46.0923 316.752 46.6392 319.174 47.7329C321.616 48.8267 323.51 50.3892 324.858 52.4204C326.205 54.4321 326.879 56.7368 326.879 59.3345H316.625C316.625 57.5962 316.088 56.2485 315.014 55.2915C313.959 54.3345 312.524 53.856 310.707 53.856C308.871 53.856 307.416 54.2661 306.342 55.0864C305.287 55.8872 304.76 56.9126 304.76 58.1626C304.76 59.2563 305.346 60.2524 306.518 61.1509C307.69 62.0298 309.75 62.9478 312.699 63.9048C315.649 64.8423 318.071 65.8579 319.965 66.9517C324.574 69.6079 326.879 73.27 326.879 77.938C326.879 81.6685 325.473 84.5981 322.66 86.7271C319.848 88.856 315.991 89.9204 311.088 89.9204C307.631 89.9204 304.496 89.3052 301.684 88.0747C298.891 86.8247 296.782 85.1255 295.356 82.9771C293.949 80.8091 293.246 78.3188 293.246 75.5063H303.559C303.559 77.7915 304.145 79.481 305.317 80.5747C306.508 81.6489 308.432 82.186 311.088 82.186C312.787 82.186 314.125 81.8247 315.102 81.1021C316.098 80.3599 316.596 79.3247 316.596 77.9966Z" fill="black"/>
<path d="M243.844 158.804H235.62L234.021 164.915H227.643L236.974 135.056H242.49L251.883 164.915H245.444L243.844 158.804ZM236.933 153.779H242.511L239.722 143.136L236.933 153.779ZM274.31 164.915H268.28L259.462 145.33V164.915H253.433V135.056H259.462L268.301 154.661V135.056H274.31V164.915ZM298.192 161.531C297.03 162.789 295.601 163.739 293.906 164.382C292.224 165.011 290.379 165.325 288.369 165.325C284.937 165.325 282.271 164.266 280.371 162.146C278.47 160.014 277.493 156.917 277.438 152.856V147.483C277.438 143.368 278.334 140.203 280.125 137.988C281.929 135.76 284.554 134.646 288 134.646C291.24 134.646 293.68 135.445 295.321 137.045C296.975 138.645 297.932 141.153 298.192 144.571H292.327C292.163 142.671 291.766 141.379 291.137 140.695C290.509 139.998 289.524 139.649 288.184 139.649C286.557 139.649 285.375 140.244 284.636 141.434C283.898 142.623 283.515 144.517 283.488 147.114V152.528C283.488 155.249 283.891 157.231 284.698 158.476C285.518 159.706 286.858 160.321 288.717 160.321C289.907 160.321 290.871 160.082 291.609 159.604L292.142 159.234V153.759H287.918V149.206H298.192V161.531ZM316.62 151.995H307.227V159.911H318.342V164.915H301.198V135.056H318.301V140.08H307.227V147.135H316.62V151.995ZM326.598 159.911H337.18V164.915H320.569V135.056H326.598V159.911Z" fill="black"/>
<path d="M241.862 177.961V180.905H241.423C239.431 180.934 237.839 181.481 236.648 182.546C235.456 183.61 234.748 185.119 234.524 187.072C235.666 185.871 237.126 185.27 238.904 185.27C240.788 185.27 242.273 185.934 243.357 187.262C244.45 188.591 244.997 190.304 244.997 192.404C244.997 194.572 244.358 196.33 243.078 197.677C241.809 199.015 240.139 199.684 238.069 199.684C235.94 199.684 234.211 198.898 232.883 197.326C231.565 195.754 230.905 193.693 230.905 191.144V189.928C230.905 186.188 231.814 183.258 233.63 181.139C235.456 179.02 238.078 177.961 241.496 177.961H241.862ZM238.039 188.141C237.258 188.141 236.54 188.361 235.886 188.8C235.241 189.24 234.768 189.826 234.465 190.558V191.642C234.465 193.224 234.797 194.484 235.461 195.422C236.125 196.349 236.985 196.813 238.039 196.813C239.094 196.813 239.929 196.418 240.544 195.627C241.159 194.836 241.467 193.796 241.467 192.507C241.467 191.217 241.154 190.168 240.529 189.357C239.904 188.547 239.074 188.141 238.039 188.141ZM259.773 199.901L262.983 190.361L255.243 185.171H264.723L268.113 174.941L271.563 185.171H280.983L273.243 190.361L276.513 199.901L268.113 193.811L259.773 199.901ZM303.62 191.789H306.272V194.645H303.62V199.391H300.061V194.645H290.847L290.744 192.477L299.944 178.063H303.62V191.789ZM294.48 191.789H300.061V182.883L299.797 183.351L294.48 191.789Z" fill="black"/>
<path d="M174.289 205.784H144.672C146.749 201.176 151.151 190.922 152.15 186.779C153.149 182.636 153.29 171.156 153.235 165.934C152.457 167.436 150.825 170.852 150.522 172.503C150.142 174.565 149.707 184.336 147.807 186.779C145.907 189.222 144.832 176.262 144.224 174.888C143.168 172.503 141.055 175.152 139.566 172.503L138.13 172.937L138.321 172.012L116.942 155.036L115.06 151.941L118.442 152.906L139.068 169.906L140.491 169.235V170.32L143.356 171.471C145.6 168.974 150.25 163.741 150.901 162.786C151.715 161.592 151.77 153.504 153.235 152.906C154.408 152.429 155.553 152.25 156.295 152.051C158.032 150.951 156.297 144.113 160.292 144.113C164.287 144.113 163.439 151.464 165.249 152.418C165.851 152.509 165.96 152.798 167.512 153.232C169.063 153.666 169.135 155.476 168.977 156.326L173.863 159.021C173.863 165.488 173.463 180.314 173.463 180.314L174.289 181.683L175.076 180.314L175.404 159.021L181.634 157.176C181.446 163.666 181.103 178.066 180.31 180.445C179.517 182.824 178.04 188.829 174.701 190.668C171.419 188.267 169.025 183.56 167.949 180.445C166.873 177.33 166.602 171.199 166.437 164.591L165.572 158.044V171.471H159.403V172.012H164.852C166.007 172.012 166.834 183.989 166.998 187.595C167.162 191.202 172.376 202.438 174.289 205.784Z" fill="black"/>
<path d="M150.901 148.944C151.726 149.117 152.077 150.247 152.15 150.789C151.245 151.332 149.262 152.678 148.567 153.721C147.872 154.763 148.278 157.321 148.567 158.469C148.314 158.859 146.982 159.404 143.682 158.469C139.556 157.301 140.045 153.232 139.068 153.232C138.286 153.232 132.337 151.169 129.46 150.138L133.097 148.292L126.257 148.564V143.407L121.589 143.841V140.584L118.766 138.576L120.014 137.49L116.866 135.102L122.349 133.69L113.772 129.999L112.578 125.602C119.652 128.805 133.878 135.188 134.182 135.102C134.562 134.993 139.773 134.884 144.225 134.667C148.676 134.45 153.235 136.35 153.235 139.661C153.235 142.973 147.373 142.321 146.505 145.361C145.81 147.793 146.396 148.329 146.776 148.292C147.807 148.437 150.076 148.77 150.901 148.944Z" fill="black"/>
<path d="M179.346 156.326C175.785 157.368 173.411 155.639 172.669 154.644C172.325 153.775 171.312 151.973 170.009 151.712C168.381 151.386 168.977 150.138 168.652 149.812C168.327 149.487 173.863 148.292 174.46 147.098C175.057 145.904 171.909 142.756 170.769 142.756C169.629 142.756 165.992 139.173 167.132 137.49C168.272 135.807 173.538 137.164 173.863 137.49C174.189 137.816 177.88 135.102 179.346 134.287C180.811 133.473 183.526 136.404 184.177 136.839C184.828 137.273 187 134.667 190.365 134.287C193.731 133.907 203.23 131.193 203.773 131.302C204.316 131.41 199.865 135.699 197.531 136.404C195.197 137.11 199.919 137.49 201.493 137.49C203.068 137.49 197.314 140.041 194.382 139.987C191.451 139.933 197.151 142.267 198.779 142.158C200.408 142.05 191.994 143.841 189.171 144.113C186.348 144.384 190.908 146.935 191.994 147.695C193.079 148.455 188.357 148.944 186.294 148.944C184.644 148.944 186.692 151.007 187.923 152.038C186.547 153.033 182.907 155.284 179.346 156.326Z" fill="black"/>
<path d="M139.792 166.321L139.146 163.181L136.098 162.35L134.528 159.672H132.404L131.204 157.179L128.803 154.501L126.402 153.393C125.786 152.808 124.5 151.546 124.278 151.177C124.056 150.807 121.785 148.991 120.677 148.129L117.814 148.776L114.674 147.667L111.811 150.253L110.611 154.501C112.088 155.855 115.136 158.564 115.505 158.564C115.875 158.564 116.213 160.35 116.336 161.242L124.278 166.321L127.141 169.83L130.558 170.846L133.051 173.155L134.528 173.894" stroke="black" stroke-opacity="0.23"/>
<path d="M164.589 147.941C166.693 147.428 166.998 141.428 160.259 141.581C153.519 141.734 154.412 147.379 156.565 147.77" stroke="black" stroke-opacity="0.29"/>
<path d="M243.844 269.534H235.62L234.021 275.645H227.643L236.974 245.786H242.49L251.883 275.645H245.444L243.844 269.534ZM236.933 264.509H242.511L239.722 253.866L236.933 264.509ZM262.477 264.735H259.482V275.645H253.453V245.786H263.071C266.093 245.786 268.424 246.572 270.064 248.144C271.719 249.703 272.546 251.924 272.546 254.809C272.546 258.774 271.103 261.549 268.219 263.135L273.448 275.358V275.645H266.968L262.477 264.735ZM259.482 259.71H262.907C264.11 259.71 265.013 259.314 265.614 258.521C266.216 257.714 266.517 256.641 266.517 255.301C266.517 252.307 265.348 250.81 263.01 250.81H259.482V259.71ZM295.67 265.699C295.519 269.103 294.562 271.68 292.799 273.43C291.035 275.18 288.547 276.055 285.334 276.055C281.957 276.055 279.366 274.948 277.561 272.733C275.77 270.504 274.875 267.333 274.875 263.217V258.193C274.875 254.091 275.804 250.933 277.664 248.718C279.523 246.49 282.107 245.375 285.416 245.375C288.67 245.375 291.137 246.285 292.819 248.103C294.514 249.921 295.478 252.533 295.711 255.937H289.661C289.606 253.832 289.278 252.382 288.676 251.589C288.089 250.783 287.002 250.379 285.416 250.379C283.802 250.379 282.661 250.947 281.991 252.082C281.321 253.203 280.966 255.055 280.925 257.639V263.279C280.925 266.246 281.253 268.283 281.909 269.39C282.579 270.498 283.72 271.051 285.334 271.051C286.92 271.051 288.013 270.668 288.615 269.903C289.217 269.124 289.558 267.722 289.64 265.699H295.67ZM319.06 275.645H313.051V262.869H304.151V275.645H298.122V245.786H304.151V257.865H313.051V245.786H319.06V275.645ZM337.282 269.534H329.059L327.459 275.645H321.081L330.412 245.786H335.929L345.322 275.645H338.882L337.282 269.534ZM330.371 264.509H335.949L333.16 253.866L330.371 264.509ZM367.748 275.645H361.719L352.9 256.06V275.645H346.871V245.786H352.9L361.739 265.391V245.786H367.748V275.645ZM391.631 272.261C390.469 273.519 389.04 274.469 387.344 275.112C385.663 275.741 383.817 276.055 381.807 276.055C378.376 276.055 375.71 274.996 373.809 272.876C371.909 270.744 370.931 267.647 370.877 263.586V258.213C370.877 254.098 371.772 250.933 373.563 248.718C375.368 246.49 377.993 245.375 381.438 245.375C384.678 245.375 387.119 246.175 388.76 247.775C390.414 249.375 391.371 251.883 391.631 255.301H385.765C385.601 253.401 385.205 252.109 384.576 251.425C383.947 250.728 382.963 250.379 381.623 250.379C379.996 250.379 378.813 250.974 378.075 252.164C377.337 253.353 376.954 255.247 376.927 257.844V263.258C376.927 265.979 377.33 267.961 378.136 269.206C378.957 270.436 380.297 271.051 382.156 271.051C383.345 271.051 384.309 270.812 385.048 270.333L385.581 269.964V264.489H381.356V259.936H391.631V272.261ZM410.058 262.725H400.666V270.641H411.781V275.645H394.636V245.786H411.74V250.81H400.666V257.865H410.058V262.725ZM420.036 270.641H430.618V275.645H414.007V245.786H420.036V270.641Z" fill="black"/>
<path d="M240.881 301.2C239.69 302.46 238.298 303.09 236.706 303.09C234.831 303.09 233.337 302.436 232.224 301.127C231.111 299.809 230.554 298.08 230.554 295.942C230.554 294.535 230.837 293.261 231.404 292.118C231.97 290.976 232.776 290.087 233.82 289.452C234.865 288.818 236.076 288.5 237.453 288.5C239.602 288.5 241.306 289.301 242.566 290.903C243.825 292.504 244.455 294.648 244.455 297.333V298.329C244.455 302.177 243.586 305.112 241.848 307.133C240.11 309.154 237.517 310.18 234.07 310.209H233.645V307.265H234.157C236.257 307.236 237.868 306.733 238.991 305.756C240.114 304.77 240.744 303.251 240.881 301.2ZM237.453 300.307C238.166 300.307 238.835 300.102 239.46 299.692C240.085 299.281 240.569 298.715 240.91 297.992V296.601C240.91 295.029 240.588 293.764 239.944 292.807C239.299 291.85 238.464 291.371 237.439 291.371C236.413 291.371 235.593 291.796 234.978 292.646C234.372 293.486 234.07 294.55 234.07 295.839C234.07 297.177 234.377 298.256 234.992 299.076C235.608 299.897 236.428 300.307 237.453 300.307ZM259.773 310.631L262.983 301.091L255.243 295.901H264.723L268.113 285.671L271.563 295.901H280.983L273.243 301.091L276.513 310.631L268.113 304.541L259.773 310.631ZM303.62 302.519H306.272V305.375H303.62V310.121H300.061V305.375H290.847L290.744 303.207L299.944 288.793H303.62V302.519ZM294.48 302.519H300.061V293.612L299.797 294.081L294.48 302.519Z" fill="black"/>
<path fill-rule="evenodd" clip-rule="evenodd" d="M173.456 268.646L169.818 255.489C170.092 254.5 170.708 253.505 171.243 252.642C171.736 251.847 172.159 251.164 172.183 250.699C172.231 249.729 171.718 248.153 171.455 247.486C170.444 247.102 168.302 245.764 167.817 243.484C167.211 240.635 171.031 239.664 175.275 239.422C179.519 239.179 180.186 240.028 180.792 240.816C181.06 241.165 181.458 241.549 181.871 241.947C182.393 242.45 182.939 242.977 183.278 243.484C183.75 244.192 185.141 245.048 186.679 245.993C187.116 246.261 187.564 246.537 188.007 246.819C189.366 247.683 189.494 250.309 189.608 252.627V252.628C189.661 253.723 189.711 254.749 189.886 255.489C190.432 257.793 190.857 259.49 191.402 260.824C191.948 262.158 194.555 270.525 194.494 272.283C194.484 272.577 194.469 273.214 194.448 274.099V274.099L194.448 274.1C194.343 278.514 194.09 289.1 193.585 294.049C193.1 298.803 188.33 307.307 186.006 310.965C187.239 307.267 189.826 299.348 190.311 297.263C190.917 294.656 190.796 288.108 190.311 286.592C189.923 285.379 189.502 286.45 189.341 287.138C189.139 288.613 188.686 291.77 188.492 292.594C188.298 293.419 186.026 297.788 184.915 299.87C185.4 296.939 186.479 290.703 186.916 289.199C187.23 288.115 187.242 285.901 187.255 283.698C187.263 282.082 187.272 280.471 187.401 279.316C187.704 276.588 186.127 276.588 186.006 277.74C185.909 278.662 183.54 288.674 182.368 293.564C182.611 291.968 183.132 288.641 183.278 288.108C183.46 287.441 184.369 272.89 182.671 272.283C181.313 271.798 180.246 278.589 179.883 282.045L179.034 269.434L177.215 278.528L175.942 271.192L173.456 268.646ZM142.169 268.646L145.807 255.489C145.533 254.5 144.916 253.505 144.381 252.642C143.889 251.847 143.465 251.164 143.442 250.699C143.394 249.729 143.907 248.153 144.17 247.486C145.18 247.102 147.322 245.764 147.807 243.484C148.414 240.635 144.594 239.664 140.35 239.422C136.106 239.179 135.439 240.028 134.833 240.816C134.565 241.165 134.167 241.549 133.753 241.947L133.753 241.947C133.231 242.45 132.685 242.977 132.347 243.484C131.875 244.192 130.483 245.048 128.946 245.993C128.509 246.261 128.06 246.537 127.618 246.819C126.259 247.683 126.13 250.309 126.017 252.627C125.963 253.723 125.913 254.749 125.738 255.489C125.192 257.793 124.768 259.49 124.222 260.824C123.677 262.158 121.069 270.525 121.13 272.283C121.14 272.577 121.155 273.214 121.177 274.099C121.282 278.513 121.535 289.1 122.04 294.049C122.525 298.803 127.294 307.307 129.618 310.965C128.386 307.267 125.799 299.348 125.314 297.263C124.707 294.656 124.829 288.108 125.314 286.592C125.702 285.379 126.122 286.45 126.284 287.138C126.486 288.613 126.939 291.77 127.133 292.594C127.327 293.419 129.598 297.788 130.71 299.87C130.225 296.939 129.146 290.703 128.709 289.199C128.394 288.115 128.382 285.901 128.37 283.698V283.698C128.361 282.082 128.352 280.471 128.224 279.316C127.921 276.588 129.497 276.588 129.618 277.74C129.716 278.662 132.084 288.674 133.256 293.564C133.014 291.968 132.492 288.641 132.347 288.108C132.165 287.441 131.255 272.89 132.953 272.283C134.311 271.798 135.378 278.589 135.742 282.045L136.591 269.434L138.41 278.528L139.683 271.192L142.169 268.646ZM153.385 256.277C153.264 253.528 153.822 248.031 157.023 248.031C160.224 248.031 161.106 253.245 161.146 255.853C161.732 256.398 163.098 257.417 163.874 257.126C164.65 256.835 166.017 256.681 166.603 256.641C167.411 257.469 169.064 259.187 169.21 259.43C169.392 259.733 172.605 273.375 171.392 273.86C170.422 274.248 168.28 272.849 167.33 272.101C167.957 277.235 169.21 287.623 169.21 288.108C169.21 288.593 168.644 292.028 168.361 293.686C168.866 295.484 169.925 299.373 170.119 300.537C170.261 301.386 170.32 303.517 170.368 305.276C170.403 306.53 170.433 307.595 170.483 307.873C170.529 308.127 171.251 308.662 172.118 309.303L172.118 309.304C173.53 310.349 175.325 311.678 175.212 312.541C175.043 313.839 163.687 313.562 157.861 313.419H157.861C157.428 313.409 157.025 313.399 156.659 313.39C153.902 313.327 149.14 313.628 145.188 313.878C141.58 314.106 138.647 314.291 138.531 314.118C138.396 313.916 138.898 313.395 139.517 312.754C140.011 312.241 140.579 311.652 140.956 311.086C141.805 309.813 143.018 302.477 143.018 301.992C143.018 301.723 143.594 300.024 144.149 298.385C144.597 297.064 145.031 295.783 145.14 295.323C145.382 294.292 147.201 286.471 147.383 284.409C147.523 282.826 147.264 276.648 147.1 273.402C147.059 274.19 146.554 275.39 144.715 275.921C141.987 276.709 142.836 271.313 143.381 270.586C143.927 269.858 145.625 263.856 145.625 263.128C145.625 262.702 146.02 261.671 146.409 260.659C146.684 259.945 146.954 259.24 147.08 258.763C147.118 258.617 147.15 258.487 147.178 258.369C147.376 257.555 147.43 257.329 148.596 256.641C149.663 256.01 152.233 256.135 153.385 256.277ZM159.409 311.193C160.475 309.096 162.586 304.716 162.504 303.973C162.463 303.611 162.313 303.406 162.139 303.167C161.866 302.795 161.535 302.343 161.472 301.085C161.423 300.098 162.389 298.662 163.422 297.128C164.547 295.456 165.75 293.667 165.804 292.215C165.841 291.23 166.071 290.425 166.275 289.71C166.649 288.404 166.937 287.396 165.804 286.129C164.594 284.776 163.973 283.817 163.365 282.877C163.093 282.455 162.823 282.038 162.504 281.591C162.289 281.291 162.074 281.03 161.878 280.793C161.132 279.888 160.655 279.309 161.472 278.084C161.986 277.313 162.577 276.645 163.066 276.092L163.066 276.092C163.558 275.535 163.947 275.094 164.051 274.784C164.199 274.34 164.134 272.676 164.086 271.428V271.428V271.428C164.067 270.936 164.051 270.508 164.051 270.245C164.051 270.154 164.052 270.063 164.053 269.969L164.053 269.968C164.062 269.108 164.073 268.123 163.329 266.635C163.217 266.413 163.093 266.134 162.952 265.819L162.952 265.819L162.952 265.819C162.049 263.794 160.47 260.254 157.346 260.344C153.736 260.447 150.436 263.335 150.333 264.985C150.28 265.832 150.933 266.895 151.539 267.884C152.115 268.822 152.649 269.693 152.499 270.245C152.356 270.77 151.882 271.339 151.413 271.901C150.869 272.554 150.333 273.198 150.333 273.752C150.333 274.059 150.14 274.522 149.928 275.034C149.427 276.241 148.812 277.722 150.333 278.084C152.499 278.6 152.499 279.219 152.499 280.147C152.499 280.611 151.88 281.385 151.209 282.223L151.209 282.223C150.539 283.061 149.817 283.963 149.611 284.685C149.198 286.129 148.167 291.596 148.889 292.73C149.091 293.049 149.465 293.473 149.897 293.964C151.005 295.223 152.499 296.92 152.499 298.403C152.499 299.638 151.464 301.057 150.633 302.197C150.076 302.962 149.611 303.6 149.611 303.973C149.611 304.716 151.536 308.408 152.499 310.162C153.014 311.021 154.582 312.74 156.727 312.74C158.873 312.74 159.409 311.709 159.409 311.193ZM160.419 268.847C160.419 269.066 154.708 269.721 154.325 268.847C153.943 267.973 156.539 263.732 157.85 263.601C159.49 263.437 160.419 268.574 160.419 268.847ZM158.963 303.083L156.963 311.753L154.659 303.083L155.81 276.285H153.446V274.163L155.81 273.314L156.235 271.434H158.418V273.314L161.146 273.799V275.86H158.418L158.963 303.083Z" fill="black"/>
<path d="M248.93 362.19H241.547V387.025H235.497V362.19H228.237V357.166H248.93V362.19ZM257.432 387.025H251.402V357.166H257.432V387.025ZM279.961 362.19H272.578V387.025H266.528V362.19H259.268V357.166H279.961V362.19ZM293.958 380.914H285.735L284.135 387.025H277.757L287.088 357.166H292.605L301.998 387.025H295.558L293.958 380.914ZM287.047 375.889H292.625L289.836 365.246L287.047 375.889ZM324.424 387.025H318.395L309.576 367.44V387.025H303.547V357.166H309.576L318.415 376.771V357.166H324.424V387.025Z" fill="black"/>
<path d="M238.698 407.878L243.181 400.173H247.458L241.013 410.749L247.605 421.501H243.283L238.698 413.679L234.099 421.501H229.792L236.399 410.749L229.939 400.173H234.216L238.698 407.878ZM273.869 409.987C273.869 411.706 273.405 413.112 272.478 414.206C271.55 415.29 270.393 415.832 269.006 415.832C268.283 415.832 267.614 415.695 266.999 415.422C266.394 415.149 265.715 414.68 264.963 414.016C264.211 413.342 263.669 412.927 263.337 412.771C263.015 412.605 262.668 412.522 262.297 412.522C261.643 412.522 261.125 412.776 260.744 413.283C260.373 413.791 260.188 414.455 260.188 415.276H257.361C257.361 413.606 257.805 412.238 258.694 411.174C259.582 410.1 260.749 409.563 262.195 409.563C262.917 409.563 263.601 409.709 264.245 410.002C264.9 410.285 265.578 410.749 266.281 411.394C266.994 412.038 267.512 412.444 267.834 412.61C268.166 412.776 268.523 412.859 268.904 412.859C269.558 412.859 270.09 412.585 270.5 412.038C270.91 411.491 271.115 410.808 271.115 409.987H273.869ZM296.706 413.899H299.358V416.755H296.706V421.501H293.147V416.755H283.933L283.83 414.587L293.029 400.173H296.706V413.899ZM287.566 413.899H293.147V404.992L292.883 405.461L287.566 413.899Z" fill="black"/>
<path fill-rule="evenodd" clip-rule="evenodd" d="M108.988 435.978C114.185 433.855 130.774 429.609 155.547 429.609C180.319 429.609 197.933 435.319 203.643 438.174C205.912 436.563 210.012 430.795 208.255 420.605C207.268 414.884 204.111 408.808 200.872 403.453L184.276 373.142C182.619 370.278 181.146 367.621 180.363 365.7C178.431 360.957 177.069 353.329 176.63 350.108C175.522 350.75 173.214 352.326 172.842 353.49C172.376 354.944 169.875 357.795 167.896 356.864C165.918 355.934 165.22 355.526 166.558 354.072C167.629 352.908 169.603 351.648 170.456 351.163C170.069 350.811 168.932 350.108 167.489 350.108C166.046 350.108 164.018 352.75 163.184 354.072V350.814C163.184 348.859 164.192 346.702 164.697 345.868C165.763 345.635 167.896 344.739 167.896 343.017C167.896 341.295 166.151 339.236 165.278 338.421C165.783 339.953 166.43 343.017 164.987 343.017C164.159 343.017 163.576 342.686 162.946 342.328C162.203 341.906 161.395 341.446 160.042 341.446C158.679 341.446 157.748 342.051 156.9 342.601C156.192 343.061 155.542 343.483 154.748 343.483C153.351 343.483 153.933 340.341 154.398 338.77C153.157 339.72 150.721 341.993 150.908 343.483C151.094 344.972 153.545 345.694 154.748 345.868C154.961 346.915 155.457 349.371 155.737 350.814C156.016 352.256 155.504 354.169 155.213 354.944C154.418 353.199 152.444 349.592 150.908 349.126C149.372 348.661 147.94 349.587 147.417 350.108C149.046 350.362 152.083 351.512 151.199 354.072C150.093 357.272 147.068 356.864 145.788 355.468C145.161 354.785 144.716 353.348 144.301 352.012C143.87 350.618 143.471 349.334 142.937 349.126C142.099 348.801 141.036 348.642 140.61 348.603C141.773 350.309 143.623 354.351 141.715 356.864C141.316 357.389 140.615 358.258 139.712 359.374C137.079 362.632 133.617 369.471 130.104 374.607L115.527 396.007C111.817 401.262 108.083 406.701 107.083 409.986C106.188 412.926 106.872 417.373 107.658 422.491C108.304 426.689 109.018 431.339 108.988 435.978ZM156.545 345.338H162.032V347.122H160.042V352.297H158.508V347.122H156.545V345.338Z" fill="black"/>
<defs>
<linearGradient id="paint0_linear" x1="229.617" y1="0.594971" x2="229.617" y2="470.176" gradientUnits="userSpaceOnUse">
<stop stop-color="#F1F1F1"/>
<stop offset="1" stop-color="#BEBEBE"/>
</linearGradient>
</defs>
</svg>
