<svg width="461" height="470" viewBox="0 0 461 470" fill="none" xmlns="http://www.w3.org/2000/svg">
<rect x="0.180176" y="0.0144501" width="459.933" height="469.581" rx="6" fill="url(#paint0_linear)"/>
<path d="M140.377 46.0977L149.899 75.7754L159.391 46.0977H172.926V88.7539H162.614V78.793L163.61 58.4024L153.297 88.7539H146.5L136.158 58.3731L137.155 78.793V88.7539H126.871V46.0977H140.377ZM204.244 80.7852H190.153L187.692 88.7539H176.705L192.35 46.0977H202.018L217.78 88.7539H206.735L204.244 80.7852ZM192.614 72.8457H201.783L197.184 58.0508L192.614 72.8457ZM236.764 73.6954H231.198V88.7539H220.914V46.0977H237.701C242.76 46.0977 246.715 47.2207 249.567 49.4668C252.418 51.7129 253.844 54.8868 253.844 58.9883C253.844 61.9571 253.239 64.418 252.028 66.3711C250.836 68.3243 248.961 69.9063 246.403 71.1172L255.309 88.3145V88.7539H244.293L236.764 73.6954ZM231.198 65.7559H237.701C239.655 65.7559 241.119 65.2481 242.096 64.2325C243.092 63.1973 243.59 61.7618 243.59 59.9258C243.59 58.0899 243.092 56.6543 242.096 55.6192C241.1 54.5645 239.635 54.0371 237.701 54.0371H231.198V65.7559ZM282.057 77.4161C282.057 75.9121 281.52 74.7403 280.446 73.9004C279.391 73.0606 277.526 72.1914 274.85 71.293C272.174 70.3946 269.987 69.5254 268.287 68.6856C262.76 65.9707 259.996 62.2403 259.996 57.4942C259.996 55.1309 260.68 53.0508 262.047 51.2539C263.434 49.4375 265.387 48.0313 267.906 47.0352C270.426 46.0196 273.258 45.5118 276.403 45.5118C279.469 45.5118 282.213 46.0586 284.635 47.1524C287.076 48.2461 288.971 49.8086 290.319 51.8399C291.666 53.8516 292.34 56.1563 292.34 58.7539H282.086C282.086 57.0157 281.549 55.668 280.475 54.711C279.42 53.7539 277.985 53.2754 276.168 53.2754C274.332 53.2754 272.877 53.6856 271.803 54.5059C270.748 55.3067 270.221 56.3321 270.221 57.5821C270.221 58.6758 270.807 59.6719 271.979 60.5704C273.151 61.4493 275.211 62.3672 278.16 63.3243C281.11 64.2618 283.531 65.2774 285.426 66.3711C290.035 69.0274 292.34 72.6895 292.34 77.3575C292.34 81.0879 290.934 84.0176 288.121 86.1465C285.309 88.2754 281.451 89.3399 276.549 89.3399C273.092 89.3399 269.957 88.7246 267.145 87.4942C264.352 86.2442 262.242 84.545 260.817 82.3965C259.41 80.2286 258.707 77.7383 258.707 74.9258H269.02C269.02 77.211 269.606 78.9004 270.778 79.9942C271.969 81.0684 273.893 81.6055 276.549 81.6055C278.248 81.6055 279.586 81.2442 280.563 80.5215C281.559 79.7793 282.057 78.7442 282.057 77.4161ZM333.268 88.7539H323.043V70.9414H307.897V88.7539H297.614V46.0977H307.897V63.0313H323.043V46.0977H333.268V88.7539Z" fill="black"/>
<path d="M250.921 152.091C250.921 156.097 249.971 159.208 248.071 161.422C246.184 163.637 243.559 164.745 240.196 164.745C236.846 164.745 234.214 163.651 232.3 161.463C230.386 159.262 229.415 156.186 229.388 152.235V147.128C229.388 143.027 230.338 139.828 232.239 137.531C234.139 135.22 236.778 134.065 240.155 134.065C243.477 134.065 246.095 135.2 248.009 137.469C249.923 139.725 250.894 142.897 250.921 146.985V152.091ZM244.871 147.087C244.871 144.394 244.489 142.391 243.723 141.079C242.957 139.766 241.768 139.11 240.155 139.11C238.555 139.11 237.372 139.746 236.607 141.017C235.841 142.275 235.445 144.196 235.417 146.78V152.091C235.417 154.703 235.807 156.63 236.586 157.875C237.366 159.105 238.569 159.72 240.196 159.72C241.768 159.72 242.937 159.119 243.703 157.916C244.468 156.699 244.858 154.819 244.871 152.276V147.087ZM274.291 160.951C273.129 162.209 271.7 163.159 270.005 163.801C268.323 164.43 266.478 164.745 264.468 164.745C261.036 164.745 258.37 163.685 256.47 161.566C254.569 159.433 253.592 156.336 253.537 152.276V146.903C253.537 142.788 254.433 139.623 256.224 137.408C258.028 135.179 260.653 134.065 264.099 134.065C267.339 134.065 269.779 134.865 271.42 136.464C273.074 138.064 274.031 140.573 274.291 143.991H268.426C268.262 142.09 267.865 140.798 267.236 140.115C266.608 139.418 265.623 139.069 264.283 139.069C262.656 139.069 261.474 139.664 260.735 140.853C259.997 142.043 259.614 143.936 259.587 146.534V151.948C259.587 154.668 259.99 156.651 260.797 157.895C261.617 159.126 262.957 159.741 264.817 159.741C266.006 159.741 266.97 159.501 267.708 159.023L268.241 158.654V153.178H264.017V148.626H274.291V160.951ZM286.341 153.424H283.347V164.335H277.317V134.475H286.935C289.957 134.475 292.288 135.261 293.929 136.834C295.583 138.392 296.41 140.614 296.41 143.499C296.41 147.463 294.968 150.239 292.083 151.825L297.312 164.047V164.335H290.832L286.341 153.424ZM283.347 148.4H286.771C287.975 148.4 288.877 148.003 289.478 147.21C290.08 146.404 290.381 145.331 290.381 143.991C290.381 140.997 289.212 139.5 286.874 139.5H283.347V148.4ZM314.715 151.415H305.322V159.331H316.437V164.335H299.293V134.475H316.396V139.5H305.322V146.554H314.715V151.415Z" fill="black"/>
<path d="M78.8528 186.484H53.8127V182.392L66.5788 165.473C68.5066 162.869 69.8396 160.736 70.5779 159.075C71.3366 157.393 71.716 155.619 71.716 153.753C71.716 151.374 71.1623 149.446 70.0549 147.97C68.9475 146.493 67.4914 145.755 65.6867 145.755C63.4104 145.755 61.6467 146.545 60.3957 148.124C59.1653 149.682 58.55 151.938 58.55 154.891H53.1052C53.1052 150.769 54.2331 147.437 56.489 144.894C58.7448 142.351 61.8108 141.079 65.6867 141.079C69.2551 141.079 72.0647 142.176 74.1155 144.371C76.1662 146.545 77.1916 149.446 77.1916 153.076C77.1916 157.506 74.8845 162.746 70.2702 168.796L60.3034 181.839H78.8528V186.484Z" fill="black"/>
<path d="M242.172 177.38V180.324H241.733C239.741 180.354 238.149 180.901 236.957 181.965C235.766 183.03 235.058 184.538 234.833 186.491C235.976 185.29 237.436 184.69 239.213 184.69C241.098 184.69 242.582 185.354 243.666 186.682C244.76 188.01 245.307 189.724 245.307 191.823C245.307 193.991 244.667 195.749 243.388 197.097C242.119 198.435 240.449 199.104 238.378 199.104C236.249 199.104 234.521 198.318 233.193 196.745C231.874 195.173 231.215 193.113 231.215 190.564V189.348C231.215 185.608 232.123 182.678 233.94 180.559C235.766 178.44 238.388 177.38 241.806 177.38H242.172ZM238.349 187.561C237.568 187.561 236.85 187.78 236.196 188.22C235.551 188.659 235.078 189.245 234.775 189.978V191.062C234.775 192.644 235.107 193.904 235.771 194.841C236.435 195.769 237.294 196.233 238.349 196.233C239.404 196.233 240.239 195.837 240.854 195.046C241.469 194.255 241.777 193.215 241.777 191.926C241.777 190.637 241.464 189.587 240.839 188.777C240.214 187.966 239.384 187.561 238.349 187.561ZM272.245 187.297C272.245 189.016 271.782 190.422 270.854 191.516C269.926 192.6 268.769 193.142 267.382 193.142C266.66 193.142 265.991 193.005 265.375 192.732C264.77 192.458 264.091 191.989 263.339 191.325C262.587 190.652 262.045 190.237 261.713 190.08C261.391 189.914 261.044 189.831 260.673 189.831C260.019 189.831 259.501 190.085 259.12 190.593C258.749 191.101 258.564 191.765 258.564 192.585H255.737C255.737 190.915 256.181 189.548 257.07 188.484C257.958 187.409 259.125 186.872 260.571 186.872C261.293 186.872 261.977 187.019 262.621 187.312C263.276 187.595 263.954 188.059 264.658 188.703C265.37 189.348 265.888 189.753 266.21 189.919C266.542 190.085 266.899 190.168 267.28 190.168C267.934 190.168 268.466 189.895 268.876 189.348C269.286 188.801 269.492 188.117 269.492 187.297H272.245ZM297.382 198.811H283.041V196.364L290.146 188.615C291.171 187.473 291.899 186.521 292.328 185.759C292.768 184.988 292.988 184.216 292.988 183.445C292.988 182.429 292.7 181.609 292.123 180.984C291.557 180.359 290.79 180.046 289.824 180.046C288.671 180.046 287.778 180.398 287.143 181.101C286.508 181.804 286.191 182.766 286.191 183.987H282.631C282.631 182.688 282.924 181.521 283.51 180.486C284.106 179.441 284.951 178.63 286.044 178.054C287.148 177.478 288.417 177.19 289.853 177.19C291.923 177.19 293.554 177.712 294.745 178.757C295.947 179.792 296.547 181.228 296.547 183.064C296.547 184.128 296.245 185.246 295.639 186.418C295.043 187.58 294.062 188.904 292.695 190.388L287.48 195.969H297.382V198.811Z" fill="black"/>
<path d="M149.941 123.395C150.089 122.049 156.277 120.79 162.217 121.224C168.158 121.658 172.375 126.503 172.613 127.301C172.816 127.984 175.983 129.438 178.471 130.581C179.621 131.109 180.626 131.571 181.127 131.859C182.248 132.504 184.185 133.822 185.329 134.6C185.802 134.921 186.139 135.15 186.226 135.201C186.385 135.294 185.661 135.488 184.864 135.7C184.175 135.884 183.432 136.082 183.157 136.243C182.709 136.505 183.19 137.607 183.517 138.356C183.624 138.6 183.714 138.806 183.751 138.934C183.87 139.351 183.404 140.786 183.157 141.452C181.54 140.077 177.9 137.111 176.276 136.243C174.246 135.158 170.633 133.248 168.999 132.51C167.366 131.772 165.088 131.208 164.494 131.164C164.328 131.152 163.81 131.273 163.06 131.446C161.13 131.894 157.667 132.698 154.743 132.51C150.683 132.25 149.941 130.73 149.397 129.515C148.997 128.623 149.397 126.47 149.697 124.855C149.806 124.268 149.901 123.753 149.941 123.395Z" fill="black"/>
<path fill-rule="evenodd" clip-rule="evenodd" d="M151.913 138.858C152.014 138.755 152.109 138.639 152.21 138.516C152.97 137.591 154.092 136.224 160.938 136.22C168.695 136.215 171.661 140.657 171.661 141.32C171.661 142.149 173.967 144.113 176.054 144.113C178.141 144.113 179.679 146.617 179.899 150.164C180.017 152.081 179.302 153.141 178.689 154.049C178.167 154.821 177.72 155.484 177.922 156.471C178.224 157.952 179.519 157.148 180.761 156.377C181.321 156.03 181.871 155.688 182.315 155.566C183.457 155.251 184.256 152.936 184.512 151.818C184.512 150.759 184.38 148.524 183.853 148.062C183.326 147.6 183.633 146.005 183.853 145.265C184.072 144.656 184.512 143.343 184.512 142.957C184.512 142.572 189.564 142.797 192.091 142.957V140.491H187.148C185.723 140.491 185.823 140.029 185.98 139.31C186.064 138.921 186.165 138.456 186.05 137.949C185.881 137.211 187.002 137.252 188.373 137.302C189.687 137.35 191.231 137.406 192.091 136.793C192.964 136.171 193.729 136.976 194.507 137.795C195.294 138.624 196.094 139.467 197.033 138.858C198.527 137.89 198.901 140.867 198.901 142.476C199.56 142.829 200.878 143.881 200.878 145.265C200.878 146.421 200.387 147.883 200.029 148.951C199.851 149.481 199.706 149.914 199.669 150.164C199.615 150.534 201.23 151.843 202.888 153.187C204.606 154.58 206.37 156.01 206.37 156.471C206.37 157.362 204.558 158.244 203.559 158.731L203.514 158.753C202.723 159.138 199.523 155.528 198.022 153.675C197.29 153.891 195.693 154.322 195.166 154.322C194.507 154.322 193.958 155.566 193.958 157.17C193.958 158.774 193.409 159.586 192.091 160.679C191.327 161.312 190.822 161.923 190.233 162.633C189.805 163.15 189.333 163.721 188.686 164.392C187.148 165.985 185.83 166.554 184.512 167.036C183.759 167.311 183.185 167.115 182.545 166.896C182.065 166.732 181.547 166.554 180.887 166.554C179.583 166.554 177.727 165.793 176.59 165.326C176.386 165.242 176.205 165.168 176.054 165.11C175.263 164.801 173.674 163.44 172.979 162.798L168.695 156.471L169.244 159.586C168.768 159.95 167.443 160.872 165.949 161.642C165 162.132 164.505 162.599 164.017 163.059C163.544 163.504 163.079 163.943 162.215 164.392L162.047 164.478C160.429 165.316 160.018 165.529 160.018 166.554C160.018 167.614 160.018 169.133 159.029 169.761C158.239 170.264 154.306 169.552 152.439 169.133C154.16 169.719 157.558 171.009 157.382 171.48C157.162 172.069 159.029 174.032 160.938 174.032C161.96 174.032 162.254 174.263 162.762 174.663C163.202 175.009 163.803 175.483 165.18 176.042C167.321 176.912 167.745 178.558 168.145 180.113C168.3 180.712 168.451 181.298 168.695 181.821C169.574 183.7 167.816 185.721 165.18 186.218C163.534 186.528 163.13 187.685 162.711 188.885C162.459 189.606 162.202 190.343 161.666 190.922C160.238 192.463 160.018 193.907 160.938 193.907C161.858 193.907 163.972 193.907 165.949 195.641C167.007 196.569 167.468 197.552 167.802 198.265C168.092 198.885 168.287 199.301 168.695 199.301C169.574 199.301 170.782 199.301 171.661 198.819C172.207 198.52 172.583 199.225 173.027 200.055C173.297 200.562 173.593 201.115 173.967 201.516C174.956 202.576 174.077 203.828 172.979 204.309C172.1 204.695 170.782 204.47 170.233 204.309C169.684 204.887 168.432 206.043 167.816 206.043H162.215C160.716 206.043 160.24 205.505 159.775 204.98C159.558 204.735 159.344 204.493 159.029 204.309C158.661 204.094 158.186 203.892 157.684 203.679C156.838 203.319 155.915 202.927 155.295 202.383C154.702 201.863 154.385 201.412 154.132 201.052C153.964 200.811 153.823 200.611 153.647 200.457C153.56 200.38 153.439 200.227 153.28 200.028C152.643 199.224 151.406 197.664 149.364 197.278C147.683 196.961 147.646 196.56 147.563 195.689C147.521 195.239 147.466 194.663 147.167 193.907C146.464 192.135 149.437 189.317 151.011 188.129L155.295 184.469L160.018 182.449H156.283C156.393 181.902 156.349 180.635 155.295 179.942C154.241 179.249 151.268 178.477 149.913 178.178L143.835 177.534V182.449C143.835 183.8 144.86 185.721 145.519 186.218C146.178 186.714 146.178 190.055 146.178 190.922C146.178 191.324 146.036 191.955 145.884 192.63C145.709 193.411 145.519 194.251 145.519 194.871C145.519 195.752 143.605 196.521 142.5 196.965C142.155 197.103 141.889 197.21 141.785 197.278C141.433 197.51 137.667 198.723 135.827 199.301C137.092 199.141 139.903 198.819 141.025 198.819C141.705 198.819 141.956 199.205 142.243 199.646C142.547 200.113 142.893 200.644 143.835 200.842C145.054 201.099 145.397 201.654 145.976 202.594C146.266 203.065 146.616 203.634 147.167 204.309C148.453 205.889 148.668 206.411 149.015 207.252C149.112 207.488 149.219 207.749 149.364 208.066C149.891 209.221 147.02 209.896 145.519 210.088L143.835 207.391C142.431 208.29 139.359 210.088 138.303 210.088C137.247 210.088 136.769 208.29 136.662 207.391C136.384 207.873 135.503 208.894 134.206 209.125C133.293 209.288 132.527 208.809 131.725 208.309C131.103 207.92 130.458 207.518 129.707 207.391C128.332 207.16 127.797 206.396 127.701 206.043C128.036 204.47 128.704 201.15 128.704 200.457V192.463C129.038 191.949 130.051 190.748 131.426 190.055C133.145 189.188 134.206 187.551 134.206 186.218C134.206 185.158 134.83 182.671 135.404 180.385C135.552 179.794 135.697 179.216 135.827 178.68C136.26 176.896 136.048 174.56 135.907 173.005C135.841 172.285 135.791 171.733 135.827 171.48C135.941 170.681 136.283 169.55 136.662 168.685C137.042 167.819 137.687 165.656 137.915 164.392C138.097 163.38 137.687 159.426 137.459 157.576L139.623 156.471L143.835 157.17L140.078 152.877C139.281 153.11 137.642 153.596 137.459 153.675C137.277 153.755 137.946 154.969 138.303 155.566C136.44 156.026 132.114 157.073 129.707 157.576C128.089 157.914 128.211 158.942 128.358 160.172C128.484 161.229 128.628 162.435 127.701 163.48C125.782 165.644 127.273 168.842 127.657 169.665C127.674 169.702 127.689 169.734 127.701 169.761C127.931 170.264 130.28 172.818 131.426 174.032L129.707 176.922C129.468 178.136 128.933 180.941 128.704 182.449C128.43 184.253 126.186 185.021 123.103 186.075L122.687 186.218C120.051 187.122 119.679 185.841 119.822 185.087C121.016 184.25 123.633 182.424 124.55 181.821C125.466 181.218 124.168 179.141 123.404 178.178C122.449 178.848 120.395 180.514 119.822 181.821C119.405 182.772 118.939 182.615 118.057 182.318C117.424 182.106 116.578 181.821 115.381 181.821C113.089 181.821 111.847 179.392 111.513 178.178C112.086 178.471 114.063 178.982 117.386 178.68C120.71 178.379 118.771 175.456 117.386 174.032C115.715 174.702 112.2 176.042 111.513 176.042C110.653 176.042 108.647 170.264 109.077 170.892C109.421 171.394 111.99 172.441 113.232 172.902C114.044 172.483 116.011 171.143 117.386 169.133C119.106 166.621 120.109 161.847 120.538 159.586C120.968 157.325 123.403 153.43 125.982 150.164C127.757 147.916 129.6 146.977 131.043 146.242C131.697 145.909 132.269 145.617 132.716 145.265C134.148 144.134 137.873 142.124 141.025 140.491C143.546 139.185 149.334 138.858 151.913 138.858ZM167.931 144.31C168.116 144.742 168.473 145.577 168.06 145.818C167.632 146.069 165.889 145.923 165.071 145.818C165.018 145.147 164.977 143.803 165.227 143.803C165.476 143.803 167.071 143.973 167.837 144.058C167.837 144.089 167.877 144.182 167.931 144.31ZM157.307 143.373C157.621 143.505 158.386 143.724 158.988 143.897C159.371 144.007 159.688 144.098 159.783 144.136C159.337 144.814 158.391 146.206 158.176 146.347C157.909 146.523 157.15 145.916 156.927 145.721C156.824 145.63 156.203 145.686 155.564 145.743C154.819 145.81 154.05 145.879 154.05 145.721C154.05 145.644 154.04 145.5 154.029 145.324C153.998 144.826 153.951 144.075 154.05 143.901C154.157 143.713 154.094 142.441 154.05 141.828C154.332 141.945 154.955 142.227 155.187 142.414C155.423 142.605 156.334 142.976 156.944 143.224C157.085 143.282 157.21 143.333 157.307 143.373ZM156.327 148.918V153.172C156.327 154.088 157.114 153.325 157.733 152.725C157.964 152.501 158.172 152.3 158.307 152.217C158.643 152.01 159.666 152.085 160.613 152.153C161.059 152.186 161.489 152.217 161.821 152.217C162.753 152.217 164.876 152.6 165.664 152.742C165.756 152.759 165.829 152.772 165.881 152.781C166.277 152.851 164.759 151.045 163.95 150.133L161.425 150.654L161.178 148.918H156.327Z" fill="black"/>
<path d="M249.24 243.189H241.857V268.024H235.807V243.189H228.547V238.165H249.24V243.189ZM260.489 257.114H257.495V268.024H251.466V238.165H261.084C264.106 238.165 266.437 238.951 268.077 240.523C269.732 242.082 270.559 244.304 270.559 247.189C270.559 251.153 269.116 253.929 266.232 255.515L271.461 267.737V268.024H264.981L260.489 257.114ZM257.495 252.09H260.92C262.123 252.09 263.026 251.693 263.627 250.9C264.229 250.094 264.529 249.021 264.529 247.681C264.529 244.687 263.36 243.189 261.023 243.189H257.495V252.09ZM294.462 255.781C294.462 259.787 293.512 262.898 291.611 265.112C289.725 267.327 287.1 268.435 283.736 268.435C280.387 268.435 277.755 267.341 275.841 265.153C273.927 262.952 272.956 259.876 272.929 255.925V250.818C272.929 246.717 273.879 243.518 275.779 241.221C277.68 238.91 280.318 237.755 283.695 237.755C287.017 237.755 289.636 238.89 291.55 241.159C293.464 243.415 294.434 246.587 294.462 250.675V255.781ZM288.412 250.777C288.412 248.084 288.029 246.081 287.264 244.769C286.498 243.456 285.308 242.8 283.695 242.8C282.096 242.8 280.913 243.436 280.147 244.707C279.382 245.965 278.985 247.886 278.958 250.47V255.781C278.958 258.393 279.348 260.32 280.127 261.564C280.906 262.795 282.109 263.41 283.736 263.41C285.308 263.41 286.477 262.809 287.243 261.606C288.009 260.389 288.398 258.509 288.412 255.966V250.777ZM303.558 263.021H314.14V268.024H297.529V238.165H303.558V263.021ZM322.396 263.021H332.978V268.024H316.367V238.165H322.396V263.021Z" fill="black"/>
<path d="M78.8528 290.174H53.8127V286.082L66.5788 269.163C68.5066 266.559 69.8396 264.426 70.5779 262.765C71.3366 261.083 71.716 259.309 71.716 257.443C71.716 255.064 71.1623 253.136 70.0549 251.66C68.9475 250.183 67.4914 249.445 65.6867 249.445C63.4104 249.445 61.6467 250.235 60.3957 251.814C59.1653 253.372 58.55 255.628 58.55 258.581H53.1052C53.1052 254.459 54.2331 251.127 56.489 248.584C58.7448 246.041 61.8108 244.769 65.6867 244.769C69.2551 244.769 72.0647 245.866 74.1155 248.061C76.1662 250.235 77.1916 253.136 77.1916 256.766C77.1916 261.196 74.8845 266.436 70.2702 272.486L60.3034 285.528H78.8528V290.174Z" fill="black"/>
<path d="M244.531 286.798C244.531 287.843 244.262 288.775 243.725 289.595C243.188 290.406 242.455 291.046 241.528 291.514C242.641 292.032 243.495 292.74 244.091 293.638C244.697 294.537 244.999 295.552 244.999 296.685C244.999 298.56 244.365 300.05 243.095 301.153C241.826 302.247 240.136 302.794 238.027 302.794C235.908 302.794 234.208 302.242 232.929 301.138C231.66 300.035 231.025 298.551 231.025 296.685C231.025 295.543 231.328 294.517 231.933 293.609C232.538 292.701 233.388 292.003 234.482 291.514C233.564 291.046 232.836 290.406 232.299 289.595C231.772 288.775 231.508 287.843 231.508 286.798C231.508 284.981 232.094 283.541 233.266 282.476C234.438 281.412 236.02 280.88 238.012 280.88C240.014 280.88 241.601 281.412 242.773 282.476C243.945 283.541 244.531 284.981 244.531 286.798ZM241.44 296.51C241.44 295.455 241.122 294.605 240.488 293.961C239.863 293.306 239.033 292.979 237.997 292.979C236.962 292.979 236.132 293.301 235.507 293.946C234.892 294.591 234.584 295.445 234.584 296.51C234.584 297.554 234.887 298.389 235.493 299.014C236.108 299.639 236.953 299.952 238.027 299.952C239.101 299.952 239.936 299.649 240.532 299.044C241.137 298.438 241.44 297.593 241.44 296.51ZM240.986 286.929C240.986 286.002 240.717 285.24 240.18 284.644C239.643 284.039 238.92 283.736 238.012 283.736C237.104 283.736 236.386 284.024 235.859 284.6C235.331 285.167 235.068 285.943 235.068 286.929C235.068 287.906 235.331 288.682 235.859 289.259C236.396 289.835 237.119 290.123 238.027 290.123C238.935 290.123 239.653 289.835 240.18 289.259C240.717 288.682 240.986 287.906 240.986 286.929ZM272.245 290.987C272.245 292.706 271.782 294.112 270.854 295.206C269.926 296.29 268.769 296.832 267.382 296.832C266.66 296.832 265.991 296.695 265.375 296.422C264.77 296.148 264.091 295.679 263.339 295.015C262.587 294.342 262.045 293.926 261.713 293.77C261.391 293.604 261.044 293.521 260.673 293.521C260.019 293.521 259.501 293.775 259.12 294.283C258.749 294.791 258.564 295.455 258.564 296.275H255.737C255.737 294.605 256.181 293.238 257.07 292.174C257.958 291.099 259.125 290.562 260.571 290.562C261.293 290.562 261.977 290.709 262.621 291.002C263.276 291.285 263.954 291.749 264.658 292.393C265.37 293.038 265.888 293.443 266.21 293.609C266.542 293.775 266.899 293.858 267.28 293.858C267.934 293.858 268.466 293.585 268.876 293.038C269.286 292.491 269.492 291.807 269.492 290.987H272.245ZM297.382 302.501H283.041V300.054L290.146 292.305C291.171 291.163 291.899 290.211 292.328 289.449C292.768 288.677 292.988 287.906 292.988 287.135C292.988 286.119 292.7 285.299 292.123 284.674C291.557 284.049 290.79 283.736 289.824 283.736C288.671 283.736 287.778 284.088 287.143 284.791C286.508 285.494 286.191 286.456 286.191 287.676H282.631C282.631 286.378 282.924 285.211 283.51 284.176C284.106 283.131 284.951 282.32 286.044 281.744C287.148 281.168 288.417 280.88 289.853 280.88C291.923 280.88 293.554 281.402 294.745 282.447C295.947 283.482 296.547 284.918 296.547 286.754C296.547 287.818 296.245 288.936 295.639 290.108C295.043 291.27 294.062 292.593 292.695 294.078L287.48 299.659H297.382V302.501Z" fill="black"/>
<path fill-rule="evenodd" clip-rule="evenodd" d="M123.096 235.907C123.758 235.427 132.867 229.548 137.67 229.428H145.122C146.182 229.428 149.649 229.988 151.25 230.268L153.734 226.068C157.488 226.028 165.758 225.972 168.805 226.068C171.852 226.164 173.497 228.348 173.939 229.428V237.347L177.582 239.986L174.767 240.586V242.146L168.805 241.186L163.34 243.706C166.817 243.946 173.972 244.474 174.767 244.666C175.562 244.858 175.65 250.025 175.595 252.585H167.811C166.983 253.304 164.499 255.2 161.187 257.024C158.875 258.297 159.145 258.522 159.834 259.1C160.379 259.556 161.187 260.233 161.187 261.823C161.187 262.824 161.251 263.639 161.304 264.318C161.442 266.081 161.508 266.923 160.193 267.703C158.371 268.782 158.04 272.142 158.04 274.542C158.04 276.047 158.887 276.655 159.764 277.285C160.285 277.659 160.816 278.04 161.187 278.621C161.755 279.514 163.3 280.603 164.518 281.461C165.428 282.103 166.155 282.615 166.155 282.82C166.155 282.955 166.351 283.345 166.636 283.914C167.367 285.37 168.686 287.997 168.805 290.499C168.923 292.98 168.368 293.387 167.439 294.069C167.065 294.343 166.631 294.662 166.155 295.179C165.207 296.21 163.661 297.634 162.544 298.663C161.71 299.43 161.116 299.978 161.187 299.978C161.259 299.978 162.003 300.58 162.913 301.317L162.913 301.317C164.074 302.256 165.505 303.414 166.155 303.818C167.082 304.394 170.075 304.538 171.455 304.538H179.57C181.689 304.538 180.453 308.617 179.57 310.657H167.811L160.193 309.217L158.04 304.538L154.728 302.378L147.938 301.298L148.931 297.459C149.704 296.499 151.25 294.219 151.25 292.779C151.25 291.339 150.256 289.7 149.76 289.06C149.152 288.06 147.938 285.868 147.938 285.1C147.938 284.332 145.178 282.221 143.797 281.261C143.466 282.541 143.003 285.1 143.797 285.1C144.498 285.1 145.61 287.187 146.669 289.175C147.113 290.007 147.547 290.822 147.938 291.459C148.701 292.704 147.21 294.267 145.809 295.736C144.779 296.816 143.797 297.845 143.797 298.658C143.797 300.578 143.797 301.898 145.122 303.098C145.905 303.807 146.225 303.636 146.664 303.402C146.968 303.241 147.328 303.049 147.938 303.098C148.757 303.164 149.926 303.447 151.252 303.768C152.34 304.032 153.534 304.321 154.728 304.538C156.799 304.913 157.353 306.901 157.733 308.267C157.839 308.648 157.932 308.981 158.04 309.217C158.438 310.081 157.212 311.097 156.55 311.497L143.797 310.657C137.891 310.697 125.911 310.753 125.249 310.657C125.103 310.636 124.744 310.596 124.252 310.541L124.252 310.541H124.252C121.964 310.286 116.803 309.711 116.803 309.217V305.977C116.803 305.622 117.426 304.772 118.144 303.792L118.144 303.792C119.124 302.456 120.281 300.878 120.281 299.978C120.281 298.418 120.281 297.938 121.606 296.739C122.93 295.539 124.255 292.659 124.255 290.499V285.1C124.255 283.883 121.836 282.885 119.671 281.993L119.671 281.992C119.061 281.741 118.472 281.498 117.962 281.261C115.644 280.181 113.822 277.061 113.159 275.381C112.629 274.038 113.38 270.582 113.822 269.022C114.815 270.622 117.035 273.966 117.962 274.542C119.122 275.262 121.606 276.341 124.255 277.061C126.375 277.637 130.217 276.821 131.873 276.341L138.498 272.142C139.933 271.102 143.003 268.758 143.797 267.703C144.592 266.647 143.466 264.703 142.804 263.863C141.921 263.303 139.823 262.111 138.498 261.823C137.515 261.61 137.057 260.381 136.604 259.166C136.295 258.335 135.988 257.511 135.517 257.024C134.589 256.064 135.13 253.664 135.517 252.585C134.965 252.865 133.463 253.688 131.873 254.744C130.393 255.727 130.659 256.644 130.891 257.444L130.891 257.444C130.97 257.718 131.045 257.979 131.045 258.224C131.045 259.184 132.37 260.384 133.861 261.103C135.351 261.823 137.67 263.143 138.498 263.863C139.326 264.583 141.479 266.503 141.479 267.703C141.479 268.662 138.277 270.262 136.676 270.942C134.965 272.142 131.045 274.71 129.058 275.381C127.071 276.053 122.378 275.102 120.281 274.542L117.962 269.022C116.14 267.663 112.166 264.727 110.841 263.863C109.184 262.783 110.178 257.984 110.841 256.064C111.308 254.711 113.748 252.465 115.381 250.962L115.381 250.962C116.065 250.332 116.607 249.833 116.803 249.585C117.465 248.745 117.962 245.625 117.962 243.706C117.962 241.786 122.434 236.387 123.096 235.907ZM162.671 235.343H169.954C169.954 235.958 169.902 237.206 169.691 237.282C169.48 237.359 164.923 236.021 162.671 235.343ZM166.564 255.636C166.226 256.526 165.346 258.506 164.533 259.316C163.72 260.126 163.348 262.597 163.263 263.732C163.687 264.59 164.533 266.455 164.533 267.043C164.533 267.479 163.909 268.432 163.348 269.289C162.962 269.879 162.605 270.423 162.501 270.723C162.248 271.459 162.502 274.403 164.533 274.954C166.158 275.396 169.273 276.794 170.628 277.438L174.945 278.266L178.627 279.002L176.595 287.741H180.912L183.452 279.922C185.06 280.658 188.48 282.001 189.293 281.486C190.308 280.842 191.959 279.094 191.451 278.266C190.943 277.438 190.181 275.322 191.451 275.69C192.721 276.058 195.26 275.69 195.006 274.954C194.91 274.674 194.406 274.366 193.884 274.047C193.037 273.53 192.141 272.983 192.848 272.471C193.236 272.189 193.61 271.982 193.934 271.803C194.564 271.454 195.006 271.209 195.006 270.723C195.006 270.134 193.567 268.638 192.848 267.963L190.055 265.111L194.118 253.521H200.466C202.244 253.521 205.164 252.785 204.783 251.773C204.403 250.761 205.672 246.437 206.053 245.701C206.434 244.965 205.418 242.298 204.783 241.746C204.276 241.304 201.694 240.642 200.466 240.366V236.778H197.165L196.022 238.802L189.293 239.262C188.869 239.599 187.871 240.568 187.261 241.746C187.001 242.248 186.667 242.783 186.344 243.299C185.723 244.294 185.146 245.217 185.229 245.701C185.261 245.884 185.293 246.146 185.33 246.456C185.443 247.396 185.609 248.781 185.991 249.749C186.266 250.445 187.431 251.061 188.444 251.596C189.304 252.05 190.055 252.447 190.055 252.785C190.055 253.373 187.346 260.757 185.991 264.375H180.912L177.992 266.123V263.18C176.087 262.812 172.227 261.947 172.024 261.432C171.931 261.195 171.889 260.748 171.842 260.244C171.761 259.377 171.664 258.344 171.262 257.936C170.754 257.421 167.919 256.188 166.564 255.636Z" fill="black"/>
<path d="M238.945 360.804H235.951V371.714H229.921V341.855H239.539C242.561 341.855 244.892 342.641 246.533 344.213C248.187 345.772 249.014 347.994 249.014 350.878C249.014 354.843 247.572 357.619 244.687 359.205L249.916 371.427V371.714H243.436L238.945 360.804ZM235.951 355.78H239.375C240.578 355.78 241.481 355.383 242.082 354.59C242.684 353.784 242.985 352.711 242.985 351.371C242.985 348.377 241.816 346.879 239.478 346.879H235.951V355.78ZM266.15 365.603H257.926L256.326 371.714H249.948L259.279 341.855H264.796L274.189 371.714H267.749L266.15 365.603ZM259.238 360.579H264.817L262.027 349.935L259.238 360.579ZM296.615 371.714H290.586L281.767 352.129V371.714H275.738V341.855H281.767L290.606 361.461V341.855H296.615V371.714ZM320.498 368.331C319.336 369.588 317.907 370.539 316.212 371.181C314.53 371.81 312.684 372.125 310.674 372.125C307.243 372.125 304.577 371.065 302.676 368.946C300.776 366.813 299.798 363.716 299.744 359.656V354.283C299.744 350.168 300.639 347.003 302.43 344.788C304.235 342.559 306.86 341.445 310.305 341.445C313.546 341.445 315.986 342.245 317.627 343.844C319.281 345.444 320.238 347.953 320.498 351.371H314.632C314.468 349.47 314.072 348.178 313.443 347.495C312.814 346.797 311.83 346.449 310.49 346.449C308.863 346.449 307.68 347.044 306.942 348.233C306.204 349.422 305.821 351.316 305.794 353.914V359.328C305.794 362.048 306.197 364.031 307.004 365.275C307.824 366.505 309.164 367.121 311.023 367.121C312.213 367.121 313.176 366.881 313.915 366.403L314.448 366.034V360.558H310.223V356.005H320.498V368.331ZM338.925 358.794H329.533V366.711H340.648V371.714H323.503V341.855H340.607V346.879H329.533V353.934H338.925V358.794ZM351.918 360.804H348.924V371.714H342.895V341.855H352.513C355.534 341.855 357.865 342.641 359.506 344.213C361.16 345.772 361.987 347.994 361.987 350.878C361.987 354.843 360.545 357.619 357.66 359.205L362.89 371.427V371.714H356.409L351.918 360.804ZM348.924 355.78H352.349C353.552 355.78 354.454 355.383 355.056 354.59C355.657 353.784 355.958 352.711 355.958 351.371C355.958 348.377 354.789 346.879 352.451 346.879H348.924V355.78Z" fill="black"/>
<path d="M243.139 398.588H245.79V401.445H243.139V406.191H239.579V401.445H230.366L230.263 399.277L239.462 384.863H243.139V398.588ZM233.998 398.588H239.579V389.682L239.316 390.151L233.998 398.588ZM256.153 410.391C255.953 410.391 255.853 410.291 255.853 410.091C255.853 409.991 255.873 409.931 255.913 409.911L266.323 398.571L255.733 395.451C255.613 395.411 255.553 395.321 255.553 395.181C255.553 395.041 255.593 394.961 255.673 394.941L279.343 380.481C279.383 380.461 279.433 380.451 279.493 380.451C279.553 380.451 279.613 380.471 279.673 380.511C279.753 380.551 279.793 380.621 279.793 380.721C279.793 380.801 279.763 380.871 279.703 380.931L269.323 392.241L279.943 394.911C280.083 394.951 280.153 395.021 280.153 395.121C280.153 395.261 280.103 395.361 280.003 395.421L256.303 410.331C256.263 410.371 256.213 410.391 256.153 410.391ZM295.21 406.701L298.42 397.161L290.68 391.971H300.16L303.55 381.741L307 391.971H316.42L308.68 397.161L311.95 406.701L303.55 400.611L295.21 406.701ZM339.057 398.588H341.708V401.445H339.057V406.191H335.497V401.445H326.284L326.181 399.277L335.38 384.863H339.057V398.588ZM329.916 398.588H335.497V389.682L335.234 390.151L329.916 398.588Z" fill="black"/>
<path d="M165.747 352.735L158.27 354.566C158.481 353.391 158.958 350.909 159.18 350.376C159.457 349.71 161.475 348.966 162.108 348.418C162.741 347.87 165.985 348.771 166.786 348.966C167.586 349.162 171.824 348.418 172.355 348.418C172.886 348.418 175.678 345.324 175.797 345.129C175.915 344.933 175.718 347.861 175.48 348.418C175.243 348.975 174.491 349.221 173.885 349.221C173.278 349.221 172.394 349.436 172.117 349.554C171.84 349.671 169.704 351.375 169.19 351.375C168.778 351.375 167.415 350.892 166.786 350.65L165.747 352.735Z" fill="black"/>
<path d="M167.211 396.155C166.934 395.841 168.121 394.666 168.359 393.413C169.044 393.479 169.688 394.111 170.258 394.554C170.97 395.108 171.524 396.624 171.824 397.016C172.124 397.408 174.214 400.932 174.61 401.241C175.005 401.549 174.214 401.755 173.185 402.107C172.157 402.459 172.236 402.734 172.236 403.054C172.236 403.375 171.286 405.436 171.089 406.114C170.93 406.657 170.469 408.305 170.258 409.061C167.567 409.158 162.187 409.293 162.187 409.061C162.187 408.77 162.78 407.134 163.215 406.114C163.651 405.094 165.114 404.378 165.755 403.869C166.396 403.36 167.488 402.577 168.359 402.107C169.229 401.637 170.099 400.227 170.45 399.767C170.8 399.308 170.45 398.465 169.743 397.841C169.037 397.217 167.488 396.468 167.211 396.155Z" fill="black"/>
<path d="M141.21 357.057H142.625L141.595 358.401L141.21 357.057Z" fill="black"/>
<path fill-rule="evenodd" clip-rule="evenodd" d="M137.358 370.492C136.534 369.585 133.58 366.412 132.206 364.939L126.824 363.692L124.191 361.652L122.588 363.692C121.786 363.73 119.863 364.032 118.58 364.939C117.298 365.845 113.848 366.827 112.283 367.205C112.016 367.054 111.367 366.979 110.909 367.885C110.337 369.019 110.108 370.832 110.108 372.418C110.108 373.688 112.016 375.063 112.97 375.592C113.619 374.723 115.054 373.03 115.604 373.212C115.825 373.285 116.143 373.464 116.513 373.674C117.29 374.113 118.3 374.685 119.153 374.685C119.798 374.685 120.802 374.299 121.783 373.922C122.718 373.563 123.632 373.212 124.191 373.212C124.309 373.212 124.431 373.209 124.555 373.207C125.635 373.186 126.896 373.161 127.512 374.685C127.855 375.535 128.141 376.102 128.399 376.612C128.657 377.122 128.886 377.575 129.115 378.198C129.393 378.957 129.63 379.8 129.875 380.675C130.033 381.239 130.195 381.815 130.374 382.392C130.57 383.023 130.682 383.529 130.801 384.061C130.958 384.773 131.127 385.532 131.519 386.698C132.206 388.738 132.893 389.758 133.809 390.212C134.542 390.574 136.48 390.741 137.358 390.778C136.48 390.892 134.542 391.345 133.809 392.252C133.632 392.47 133.481 392.651 133.344 392.815C132.771 393.5 132.443 393.892 131.519 395.538C131.111 396.265 130.689 396.877 130.314 397.42C129.636 398.4 129.115 399.156 129.115 399.958C129.115 400.392 128.962 400.757 128.816 401.106C128.543 401.761 128.293 402.358 129.115 403.245C129.535 403.698 129.84 404.152 130.12 404.567C130.679 405.398 131.137 406.078 132.206 406.305C133.085 406.491 133.241 406.473 133.712 406.419C134.101 406.374 134.703 406.305 136.099 406.305H141.595C142.419 406.305 139.114 402.074 137.358 399.958H133.008C132.779 399.052 133.076 397.193 136.099 397.012C137.528 396.926 138.662 396.694 139.52 396.519C140.931 396.231 141.595 396.095 141.595 397.012C141.595 397.816 141.902 398.552 142.181 399.222C142.413 399.778 142.625 400.288 142.625 400.752C142.625 401.055 142.544 401.238 142.476 401.393C142.314 401.76 142.22 401.971 143.427 403.245C144.121 403.978 144.572 404.692 144.969 405.32C145.554 406.247 146.021 406.987 146.977 407.325L147.089 407.364C148.639 407.913 149.869 408.347 151.099 408.458C151.577 408.501 152.285 408.74 152.987 408.977C154.135 409.363 155.264 409.744 155.335 409.251C155.45 408.458 154.877 401.205 152.358 401.432C151.929 401.47 151.487 401.515 151.046 401.56C148.898 401.78 146.784 401.996 146.404 401.432C145.946 400.752 145.259 399.052 145.259 398.032V394.745L148.122 397.012C148.694 397.276 150.091 397.646 151.099 397.012C151.601 396.695 151.812 396.072 152.029 395.431C152.357 394.463 152.699 393.453 154.076 393.385C155.486 393.315 156.506 393.331 157.937 393.354C158.83 393.368 159.882 393.385 161.289 393.385H165.755C166.453 393.385 166.768 392.919 167.059 392.488C167.581 391.717 168.026 391.059 170.449 393.385C172.054 394.925 173.019 396.343 173.782 397.465C174.815 398.983 175.478 399.958 176.861 399.958C177.795 399.958 178.643 399.839 179.35 399.739C180.465 399.581 181.231 399.473 181.441 399.958C181.559 400.23 181.933 400.649 182.402 401.174C183.298 402.178 184.54 403.569 184.991 405.058C185.09 405.386 185.192 405.738 185.297 406.1C185.917 408.242 186.645 410.758 187.625 410.951C188.77 411.178 196.098 411.745 195.983 410.951C195.891 410.317 193.808 406.758 192.777 405.058C192.128 405.134 190.693 405.081 190.144 404.265C189.896 403.897 189.916 403.617 189.941 403.272C189.986 402.66 190.046 401.842 188.655 399.958C186.787 397.428 186.354 395.901 186.124 395.089C186.086 394.955 186.054 394.841 186.021 394.745C185.919 394.441 185.223 394.364 184.383 394.27C183.34 394.153 182.075 394.012 181.441 393.385C181.216 393.162 181.03 393.004 180.878 392.876C180.26 392.352 180.205 392.305 180.296 390.212C180.388 388.126 180.335 385.641 180.296 384.658C181.518 384.658 184.167 384.862 184.991 385.678C185.194 385.879 185.388 386.286 185.634 386.804C186.642 388.919 188.535 392.889 195.525 392.252C203.654 391.511 204.189 390.473 204.878 389.138C204.926 389.044 204.976 388.949 205.029 388.852C205.272 388.405 205.567 387.937 205.842 387.502C206.474 386.504 206.996 385.678 206.517 385.678C206.449 385.678 206.353 385.676 206.233 385.673C205.149 385.648 202.076 385.576 199.189 386.698C196.555 387.723 195.544 386.222 194.441 384.585C194.202 384.23 193.959 383.869 193.693 383.525C192.314 381.74 191.721 381.609 190.458 381.329C190.358 381.307 190.253 381.283 190.144 381.258C189.618 381.138 189.034 381.174 188.359 381.215C187.122 381.29 185.576 381.385 183.502 380.578C180.557 379.433 179.835 379.436 177.517 379.444C177.312 379.444 177.094 379.445 176.861 379.445C175.719 379.445 174.904 379.644 174.251 379.803C173.268 380.043 172.649 380.194 171.823 379.445C170.449 378.198 168.503 375.025 170.449 374.118C172.007 373.393 173.388 373.212 173.884 373.212C172.51 372.834 170.175 371.92 171.823 371.285C172.889 370.875 173.832 371.101 174.685 371.305C175.481 371.496 176.198 371.668 176.861 371.285C177.37 370.992 177.612 370.621 177.848 370.258C178.251 369.641 178.637 369.048 180.296 368.905C182.403 368.724 183.312 367.696 183.502 367.205C181.365 366.45 177.732 364.939 180.296 364.939H184.991C187.625 364.939 189.457 364.825 190.716 363.692C191.724 362.785 193.121 361.954 193.693 361.652L186.021 362.219L194.495 359.839L188.655 359.159C190.258 358.554 193.67 357.232 194.495 356.779C194.862 356.577 195.331 356.418 195.824 356.251C196.715 355.95 197.684 355.622 198.273 354.965C198.387 354.838 198.537 354.676 198.708 354.491C199.907 353.191 202.138 350.772 200.334 351.565C199.652 351.865 198.707 352.339 197.711 352.838C195.694 353.849 193.467 354.965 192.777 354.965C191.953 354.965 189.686 355.268 188.655 355.419C188.655 354.814 189.067 353.469 190.716 352.925C191.548 352.651 192.379 352.58 193.188 352.51C194.384 352.407 195.531 352.309 196.556 351.565C197.378 350.968 198.043 350.216 198.626 349.556C199.26 348.837 199.797 348.229 200.334 348.052C201.365 347.712 202.624 346.465 202.968 345.899C203.242 345.445 203.998 343.897 204.342 343.179C203.884 342.272 202.968 340.55 202.968 340.912C202.968 341.366 199.991 344.425 198.273 345.899C196.899 347.077 194.037 348.732 192.777 349.412C192.472 348.883 192.044 347.712 192.777 347.259L192.978 347.135C193.812 346.622 194.57 346.155 195.525 345.106C196.075 344.501 196.755 343.993 197.443 343.479C198.046 343.029 198.655 342.574 199.189 342.046C200.105 341.139 203.006 336.606 204.342 334.452C202.433 336.606 198.204 341.139 196.556 342.046C195.734 342.497 194.731 343.147 193.655 343.844C192.03 344.896 190.239 346.056 188.655 346.805C186.021 348.052 182.472 349.412 180.296 350.205C179.375 350.541 177.858 350.593 176.354 350.644C174.307 350.713 172.285 350.782 171.823 351.565C171.224 352.583 170.752 352.712 169.017 353.188C168.434 353.348 167.708 353.547 166.785 353.832C165.25 354.307 163.274 354.782 161.435 355.223C158.886 355.835 156.603 356.384 156.137 356.779C155.977 356.914 151.734 358.735 151.481 358.91C149.741 359.363 149.19 359.159 148.694 359.159C148.389 358.063 147.961 355.781 148.694 355.419C148.941 355.297 149.105 355.191 149.27 355.084C149.72 354.794 150.183 354.494 152.358 353.832C154.74 353.107 155.335 352.019 155.335 351.565C153.503 351.717 149.496 352.2 148.122 352.925C147.653 353.173 147.364 353.352 147.153 353.483C146.961 353.603 146.834 353.682 146.697 353.733C146.435 353.832 146.135 353.832 145.259 353.832H140.679L139.42 356.779H143.427L142.625 359.159L144.343 359.839V361.652C143.198 361.878 140.611 362.196 139.42 361.652C138.229 361.108 135.794 358.932 134.725 357.912L133.008 355.985C132.969 355.268 133.076 353.832 133.809 353.832C134.242 353.832 136.563 352.544 139.013 351.183C141.753 349.663 144.655 348.052 145.259 348.052C145.626 348.052 146.404 347.924 147.462 347.75C149.706 347.381 153.208 346.805 156.709 346.805H164.724C159.686 346.201 149.084 345.173 146.977 345.899C145.858 346.284 144.49 346.587 143.218 346.87C141.496 347.252 139.946 347.596 139.42 348.052C138.687 348.687 135.374 350.659 133.809 351.565C131.71 351.339 127.512 351.293 127.512 352.925C127.512 354.557 128.58 356.93 129.115 357.912L131.519 356.779C131.977 357.874 133.076 360.224 133.809 360.859C134.542 361.493 135.336 362.03 135.641 362.219V364.939C136.213 365.467 137.358 366.661 137.358 367.205C137.358 367.885 139.763 368.905 141.595 368.905C142.511 368.905 143.427 368.395 144.114 368.013C144.801 367.63 145.259 367.375 145.259 367.885C145.259 368.382 145.531 368.932 145.809 369.497C146.103 370.092 146.404 370.704 146.404 371.285C146.404 372.418 146.175 373.552 145.259 374.118C144.526 374.572 143.198 374.685 142.625 374.685C142.305 374.315 141.36 373.624 140.34 372.877C139.173 372.023 137.908 371.096 137.358 370.492ZM156.709 367.885C157.282 366.865 156.709 364.939 156.137 363.692C155.982 363.356 155.853 363.003 155.722 362.645C155.366 361.675 154.996 360.666 154.076 359.839C154.042 359.808 154.031 359.908 154.021 359.998C154.012 360.075 154.004 360.145 153.984 360.119C154.049 360.332 154.266 360.769 154.548 361.334C155.313 362.873 156.552 365.364 156.501 366.902L154.076 372.418C154.763 371.247 156.251 368.701 156.709 367.885ZM121.136 367.64V366.414L120.62 366.057L124.191 365.393L121.136 367.64Z" fill="black"/>
<defs>
<linearGradient id="paint0_linear" x1="230.147" y1="0.0144501" x2="230.147" y2="469.595" gradientUnits="userSpaceOnUse">
<stop stop-color="#DB835A"/>
<stop offset="1" stop-color="#8B4E31"/>
</linearGradient>
</defs>
</svg>
