<svg width="461" height="564" viewBox="0 0 461 564" fill="none" xmlns="http://www.w3.org/2000/svg">
<rect x="0.42749" y="0.755981" width="459.933" height="562.571" rx="6" fill="url(#paint0_linear)"/>
<path d="M72.978 46.8392L82.4995 76.517L91.9917 46.8392H105.527V89.4955H95.2144V79.5345L96.2104 59.1439L85.8979 89.4955H79.1011L68.7593 59.1146L69.7554 79.5345V89.4955H59.4722V46.8392H72.978ZM148.212 69.0463C148.212 73.2064 147.441 76.8881 145.898 80.0912C144.355 83.2943 142.158 85.765 139.306 87.5033C136.474 89.222 133.242 90.0814 129.609 90.0814C125.976 90.0814 122.753 89.2513 119.941 87.5912C117.128 85.9115 114.931 83.5189 113.349 80.4135C111.787 77.308 110.966 73.7435 110.888 69.7201V67.3177C110.888 63.1381 111.65 59.4564 113.173 56.2728C114.716 53.0697 116.914 50.599 119.765 48.8607C122.636 47.1224 125.898 46.2533 129.55 46.2533C133.164 46.2533 136.386 47.1127 139.218 48.8314C142.05 50.5502 144.248 53.0013 145.81 56.1849C147.392 59.349 148.193 62.9818 148.212 67.0834V69.0463ZM137.753 67.2592C137.753 63.0209 137.041 59.808 135.615 57.6205C134.208 55.4135 132.187 54.3099 129.55 54.3099C124.394 54.3099 121.669 58.1771 121.376 65.9115L121.347 69.0463C121.347 73.226 122.041 76.4388 123.427 78.6849C124.814 80.931 126.875 82.0541 129.609 82.0541C132.207 82.0541 134.208 80.9506 135.615 78.7435C137.021 76.5365 137.734 73.3627 137.753 69.222V67.2592ZM186.972 46.8392V74.7592C186.972 77.9232 186.298 80.6674 184.951 82.9916C183.603 85.2963 181.669 87.0541 179.15 88.265C176.63 89.476 173.652 90.0814 170.214 90.0814C165.019 90.0814 160.927 88.7338 157.939 86.0385C154.951 83.3431 153.427 79.6517 153.369 74.9642V46.8392H163.71V75.1693C163.828 79.8373 165.996 82.1713 170.214 82.1713C172.343 82.1713 173.955 81.5853 175.048 80.4135C176.142 79.2416 176.689 77.3373 176.689 74.7006V46.8392H186.972ZM229.042 89.4955H218.818L203.701 62.9525V89.4955H193.417V46.8392H203.701L218.789 73.3822V46.8392H229.042V89.4955ZM268.154 54.7787H255.351V89.4955H245.068V54.7787H232.5V46.8392H268.154V54.7787ZM293.232 81.5267H279.14L276.679 89.4955H265.693L281.337 46.8392H291.005L306.767 89.4955H295.722L293.232 81.5267ZM281.601 73.5873H290.771L286.171 58.7924L281.601 73.5873ZM320.859 89.4955H310.605V46.8392H320.859V89.4955ZM363.632 89.4955H353.408L338.291 62.9525V89.4955H328.007V46.8392H338.291L353.378 73.3822V46.8392H363.632V89.4955ZM392.138 78.1576C392.138 76.6537 391.601 75.4818 390.527 74.642C389.472 73.8021 387.607 72.933 384.931 72.0345C382.255 71.1361 380.068 70.267 378.369 69.4271C372.841 66.7123 370.078 62.9818 370.078 58.2357C370.078 55.8724 370.761 53.7924 372.128 51.9955C373.515 50.1791 375.468 48.7728 377.988 47.7767C380.507 46.7611 383.339 46.2533 386.484 46.2533C389.55 46.2533 392.294 46.8002 394.716 47.8939C397.158 48.9877 399.052 50.5502 400.4 52.5814C401.748 54.5931 402.421 56.8978 402.421 59.4955H392.167C392.167 57.7572 391.63 56.4095 390.556 55.4525C389.501 54.4955 388.066 54.017 386.25 54.017C384.414 54.017 382.958 54.4271 381.884 55.2474C380.83 56.0482 380.302 57.0736 380.302 58.3236C380.302 59.4174 380.888 60.4135 382.06 61.3119C383.232 62.1908 385.292 63.1088 388.242 64.0658C391.191 65.0033 393.613 66.0189 395.507 67.1127C400.117 69.7689 402.421 73.431 402.421 78.099C402.421 81.8295 401.015 84.7592 398.203 86.8881C395.39 89.017 391.533 90.0814 386.63 90.0814C383.173 90.0814 380.039 89.4662 377.226 88.2357C374.433 86.9857 372.324 85.2865 370.898 83.1381C369.492 80.9701 368.789 78.4799 368.789 75.6674H379.101C379.101 77.9525 379.687 79.642 380.859 80.7357C382.05 81.8099 383.974 82.347 386.63 82.347C388.33 82.347 389.667 81.9857 390.644 81.2631C391.64 80.5209 392.138 79.4857 392.138 78.1576Z" fill="black"/>
<path d="M236.177 160.073H246.759V165.076H230.148V135.217H236.177V160.073ZM255.282 165.076H249.252V135.217H255.282V165.076ZM280.108 152.833C280.108 156.839 279.157 159.949 277.257 162.164C275.37 164.379 272.745 165.487 269.382 165.487C266.032 165.487 263.401 164.393 261.486 162.205C259.572 160.004 258.602 156.928 258.574 152.977V147.87C258.574 143.769 259.525 140.57 261.425 138.273C263.325 135.962 265.964 134.807 269.341 134.807C272.663 134.807 275.281 135.942 277.195 138.211C279.11 140.467 280.08 143.639 280.108 147.727V152.833ZM274.058 147.829C274.058 145.136 273.675 143.133 272.909 141.821C272.144 140.508 270.954 139.852 269.341 139.852C267.741 139.852 266.559 140.488 265.793 141.759C265.027 143.017 264.631 144.938 264.604 147.522V152.833C264.604 155.445 264.993 157.372 265.773 158.616C266.552 159.847 267.755 160.462 269.382 160.462C270.954 160.462 272.123 159.861 272.889 158.657C273.654 157.441 274.044 155.561 274.058 153.018V147.829ZM304.052 165.076H298.022L289.204 145.491V165.076H283.175V135.217H289.204L298.043 154.823V135.217H304.052V165.076Z" fill="black"/>
<path d="M61.0122 162.062H64.4883C66.7236 162.062 68.4463 161.375 69.6562 160.001C70.8662 158.627 71.4712 156.751 71.4712 154.372C71.4712 149.122 69.4409 146.497 65.3803 146.497C63.4321 146.497 61.9043 147.204 60.7968 148.62C59.6894 150.035 59.1357 151.891 59.1357 154.187H53.7217C53.7217 150.599 54.8086 147.645 56.9824 145.328C59.1767 142.99 61.976 141.821 65.3803 141.821C68.9077 141.821 71.707 142.929 73.7783 145.143C75.8496 147.338 76.8852 150.455 76.8852 154.495C76.8852 156.566 76.3418 158.504 75.2549 160.309C74.1884 162.093 72.7939 163.406 71.0713 164.246C75.2959 165.805 77.4082 169.302 77.4082 174.736C77.4082 178.735 76.2905 181.924 74.0551 184.303C71.8403 186.661 68.9384 187.841 65.3496 187.841C61.8017 187.841 58.9306 186.723 56.7363 184.488C54.5625 182.232 53.4756 179.207 53.4756 175.413H58.9204C58.9204 177.792 59.4946 179.689 60.643 181.104C61.7915 182.498 63.3603 183.196 65.3496 183.196C67.3799 183.196 68.9897 182.509 70.1792 181.135C71.3891 179.761 71.9941 177.669 71.9941 174.859C71.9941 169.425 69.4204 166.707 64.2729 166.707H61.0122V162.062Z" fill="black"/>
<path d="M232.297 188.977L233.455 178.225H244.91V181.301H236.414L235.828 186.398C236.814 185.832 237.927 185.549 239.168 185.549C241.199 185.549 242.776 186.198 243.899 187.497C245.032 188.796 245.598 190.544 245.598 192.741C245.598 194.909 244.973 196.638 243.723 197.927C242.473 199.206 240.759 199.846 238.582 199.846C236.629 199.846 235.007 199.294 233.718 198.19C232.439 197.077 231.746 195.612 231.638 193.796H235.081C235.217 194.831 235.589 195.627 236.194 196.184C236.799 196.73 237.59 197.004 238.567 197.004C239.661 197.004 240.51 196.613 241.116 195.832C241.731 195.051 242.039 193.986 242.039 192.639C242.039 191.34 241.702 190.314 241.028 189.562C240.354 188.801 239.426 188.42 238.245 188.42C237.6 188.42 237.053 188.508 236.604 188.684C236.155 188.85 235.667 189.182 235.139 189.68L232.297 188.977ZM272.493 188.039C272.493 189.758 272.029 191.164 271.101 192.258C270.173 193.342 269.016 193.884 267.63 193.884C266.907 193.884 266.238 193.747 265.623 193.474C265.017 193.2 264.339 192.731 263.587 192.067C262.835 191.394 262.293 190.979 261.961 190.822C261.638 190.656 261.292 190.573 260.921 190.573C260.266 190.573 259.749 190.827 259.368 191.335C258.997 191.843 258.811 192.507 258.811 193.327H255.984C255.984 191.657 256.428 190.29 257.317 189.226C258.206 188.151 259.373 187.614 260.818 187.614C261.541 187.614 262.224 187.761 262.869 188.054C263.523 188.337 264.202 188.801 264.905 189.445C265.618 190.09 266.135 190.495 266.458 190.661C266.79 190.827 267.146 190.91 267.527 190.91C268.181 190.91 268.714 190.637 269.124 190.09C269.534 189.543 269.739 188.859 269.739 188.039H272.493ZM287.405 187.263H289.573C290.667 187.253 291.531 186.97 292.166 186.413C292.81 185.856 293.132 185.051 293.132 183.996C293.132 182.98 292.864 182.194 292.327 181.638C291.799 181.071 290.989 180.788 289.895 180.788C288.938 180.788 288.152 181.066 287.537 181.623C286.922 182.17 286.614 182.888 286.614 183.776H283.054C283.054 182.683 283.342 181.687 283.919 180.788C284.505 179.89 285.315 179.191 286.35 178.693C287.395 178.186 288.562 177.932 289.851 177.932C291.98 177.932 293.65 178.469 294.861 179.543C296.082 180.607 296.692 182.092 296.692 183.996C296.692 184.953 296.384 185.856 295.769 186.706C295.164 187.546 294.378 188.181 293.411 188.61C294.583 189.011 295.471 189.641 296.077 190.5C296.692 191.359 297 192.385 297 193.576C297 195.49 296.34 197.014 295.022 198.146C293.714 199.279 291.99 199.846 289.851 199.846C287.8 199.846 286.121 199.299 284.812 198.205C283.504 197.111 282.849 195.656 282.849 193.84H286.409C286.409 194.777 286.721 195.539 287.346 196.125C287.981 196.711 288.831 197.004 289.895 197.004C290.999 197.004 291.868 196.711 292.503 196.125C293.137 195.539 293.455 194.689 293.455 193.576C293.455 192.453 293.123 191.589 292.459 190.983C291.795 190.378 290.808 190.075 289.5 190.075H287.405V187.263Z" fill="black"/>
<path fill-rule="evenodd" clip-rule="evenodd" d="M113.675 143.733C111.152 145.398 110.21 148.664 110.054 150.088C112.37 150.597 117.502 151.396 119.507 150.513C121.512 149.631 122.735 146.875 123.096 145.608C123.874 144.301 126.443 141.96 130.495 143.053C135.559 144.42 134.112 146.914 132.72 147.785C132.463 147.945 132.001 148.24 131.399 148.625L131.399 148.625C128.733 150.328 123.328 153.781 120.93 155.012C117.991 156.522 110.44 163.169 109.914 163.895C109.388 164.62 109.605 166.826 110.44 168.8C111.276 170.774 115.732 174.431 119.785 174.576C122.946 174.69 127.007 172.304 129.752 170.692L129.753 170.692C130.528 170.236 131.198 169.843 131.713 169.584C134.054 168.411 135.669 170.001 136.718 171.364C137.767 172.727 136.234 177.838 135.669 178.443C135.405 178.726 134.528 178.975 133.564 179.249C132.46 179.563 131.243 179.909 130.704 180.374C130.101 180.894 129.902 182.753 129.744 184.221C129.638 185.21 129.551 186.022 129.372 186.129C128.928 186.394 127.919 188.06 127.718 189.688C127.613 190.529 127.207 191.179 126.799 191.83C126.419 192.437 126.038 193.046 125.901 193.814C125.675 195.086 126.845 197.045 127.458 197.865H136.234C136.583 197.954 137.307 197.827 137.404 196.616C137.497 195.457 136.076 194.83 134.861 194.294L134.861 194.294C134.489 194.13 134.136 193.974 133.852 193.814C133.091 193.386 133.399 192.03 133.782 190.339C134.009 189.34 134.262 188.224 134.337 187.113C134.507 184.589 138.039 183.602 140.957 182.787L140.958 182.787C141.498 182.636 142.017 182.491 142.489 182.343C144.911 181.586 148.476 176.071 149.956 173.408L164.082 171.742C166.302 172.891 170.959 175.309 171.831 175.793C172.703 176.278 177.495 177.56 179.782 178.14C180.064 178.898 180.88 180.404 181.88 180.374C183.132 180.336 191.567 178.216 191.446 175.187C191.325 172.159 184.706 171.969 182.365 172.045C180.024 172.121 175.948 168.941 175.827 167.313C175.73 166.01 180.306 165.558 182.607 165.495C183.064 166.972 184.213 169.94 185.15 170.001C186.32 170.076 199.074 170.758 200.332 170.455C201.59 170.152 206.177 165.155 206.661 162.879C207.146 160.603 203.392 159.802 202.181 159.802C201.399 159.802 199.943 161.167 198.901 162.144C198.331 162.679 197.885 163.097 197.742 163.11C197.419 163.141 192.939 162.968 190.739 162.879C190.677 162.192 190.56 160.615 190.585 159.802C190.616 158.786 191.915 155.709 193.339 155.477C194.047 155.361 194.878 155.9 195.774 156.481C196.679 157.068 197.651 157.697 198.63 157.741C200.579 157.828 201.446 155.651 201.105 155.245C200.833 154.92 200.476 153.464 200.332 152.777C199.837 153.029 198.525 153.602 197.237 153.88C195.628 154.229 195.721 152.429 196.681 150.252C197.448 148.51 199.434 149.101 200.332 149.613L201.662 151.965C201.729 151.558 202.096 150.811 203.03 151.074C204.198 151.403 205.833 149.102 205.833 146.472C205.833 144.368 198.669 138.802 195.087 136.282L193.102 134.858C193.102 134.858 190.415 133.543 189.714 133.543C189.154 133.543 188.157 133.178 187.729 132.995L179.903 132.338L178.151 133.543H173.829C172.614 133.543 172.466 134.42 172.544 134.858L170.792 136.282L167.288 136.94C166.237 138.145 163.994 140.709 163.434 141.322C162.873 141.936 161.175 142.162 160.397 142.199V147.787C157.321 150.855 150.562 157.276 148.132 158.415C145.703 159.555 141.202 159.547 139.255 159.401C138.321 160.424 134.653 163.609 127.458 168.167C119.879 172.968 118.438 171.7 115.166 168.822C114.556 168.285 113.881 167.691 113.091 167.071C109.871 164.542 119.856 158.274 128.021 153.148C132.591 150.28 136.59 147.77 137.386 146.472C139.473 143.072 134.95 142.191 131.198 141.46C130.96 141.414 130.725 141.368 130.495 141.322C127.411 140.709 123.058 142.309 121.267 143.185C119.788 142.674 116.198 142.068 113.675 143.733ZM158.675 198.244H148.391C147.84 198.244 146.689 198.085 146.496 197.449C146.302 196.811 147.121 193.684 147.535 192.103L147.535 192.103L147.535 192.103C147.637 191.715 147.714 191.42 147.746 191.278C147.907 190.558 147.141 188.438 145.73 188.438C144.6 188.438 143.727 186.091 143.431 184.917C144.641 183.819 147.278 181.404 148.149 180.526C149.02 179.647 150.583 176.651 151.255 175.263L156.981 174.468C157.546 175.162 158.675 177.035 158.675 178.973C158.675 181.396 156.497 183.403 155.489 183.971L155.458 183.988C154.431 184.567 151.973 185.951 151.255 187.075C150.623 188.064 151.274 189.512 151.773 190.62C151.847 190.784 151.918 190.941 151.981 191.088C152.465 192.224 155.005 194.269 157.264 194.572C159.07 194.814 158.957 197.121 158.675 198.244ZM193.004 140.625H196.572L194.308 143.201L193.004 140.625Z" fill="black"/>
<path d="M238.023 238.907L243.663 260.502L249.282 238.907H257.157V268.766H251.107V260.686L251.661 248.238L245.693 268.766H241.591L235.624 248.238L236.177 260.686V268.766H230.148V238.907H238.023ZM267.053 268.766H261.024V238.907H267.053V268.766ZM291.735 268.766H285.706L276.888 249.181V268.766H270.859V238.907H276.888L285.727 258.512V238.907H291.735V268.766ZM316.336 256.523C316.336 260.529 315.386 263.639 313.485 265.854C311.599 268.069 308.974 269.177 305.61 269.177C302.261 269.177 299.629 268.083 297.715 265.895C295.801 263.694 294.83 260.618 294.803 256.667V251.56C294.803 247.459 295.753 244.26 297.653 241.963C299.554 239.652 302.192 238.497 305.569 238.497C308.892 238.497 311.51 239.632 313.424 241.901C315.338 244.157 316.309 247.329 316.336 251.417V256.523ZM310.286 251.519C310.286 248.826 309.903 246.823 309.138 245.51C308.372 244.198 307.183 243.542 305.569 243.542C303.97 243.542 302.787 244.177 302.021 245.449C301.256 246.707 300.859 248.628 300.832 251.212V256.523C300.832 259.135 301.222 261.062 302.001 262.306C302.78 263.537 303.983 264.152 305.61 264.152C307.183 264.152 308.351 263.551 309.117 262.347C309.883 261.131 310.272 259.251 310.286 256.708V251.519ZM336.978 243.931H329.595V268.766H323.546V243.931H316.286V238.907H336.978V243.931ZM350.976 262.655H342.752L341.153 268.766H334.775L344.106 238.907H349.622L359.015 268.766H352.576L350.976 262.655ZM344.065 257.631H349.643L346.854 246.987L344.065 257.631ZM379.616 238.907V259.579C379.589 262.682 378.735 265.061 377.053 266.716C375.371 268.356 372.958 269.177 369.814 269.177C366.614 269.177 364.167 268.343 362.472 266.675C360.79 265.007 359.949 262.594 359.949 259.435V238.907H366.02V259.456C366.02 261.151 366.293 262.361 366.84 263.086C367.387 263.81 368.378 264.173 369.814 264.173C371.249 264.173 372.234 263.817 372.767 263.106C373.3 262.382 373.573 261.199 373.587 259.558V238.907H379.616ZM391.974 257.856H388.979V268.766H382.95V238.907H392.568C395.59 238.907 397.921 239.693 399.561 241.265C401.216 242.824 402.043 245.046 402.043 247.93C402.043 251.895 400.601 254.671 397.716 256.257L402.945 268.479V268.766H396.465L391.974 257.856ZM388.979 252.832H392.404C393.607 252.832 394.51 252.435 395.111 251.642C395.713 250.836 396.014 249.762 396.014 248.423C396.014 245.428 394.845 243.931 392.507 243.931H388.979V252.832Z" fill="black"/>
<path d="M61.0122 265.752H64.4883C66.7236 265.752 68.4463 265.065 69.6562 263.691C70.8662 262.317 71.4712 260.441 71.4712 258.062C71.4712 252.812 69.4409 250.187 65.3803 250.187C63.4321 250.187 61.9043 250.894 60.7968 252.309C59.6894 253.724 59.1357 255.58 59.1357 257.877H53.7217C53.7217 254.288 54.8086 251.335 56.9824 249.018C59.1767 246.68 61.976 245.511 65.3803 245.511C68.9077 245.511 71.707 246.619 73.7783 248.833C75.8496 251.028 76.8852 254.145 76.8852 258.185C76.8852 260.256 76.3418 262.194 75.2549 263.999C74.1884 265.783 72.7939 267.096 71.0713 267.936C75.2959 269.495 77.4082 272.992 77.4082 278.426C77.4082 282.425 76.2905 285.614 74.0551 287.993C71.8403 290.351 68.9384 291.531 65.3496 291.531C61.8017 291.531 58.9306 290.413 56.7363 288.178C54.5625 285.922 53.4756 282.897 53.4756 279.103H58.9204C58.9204 281.482 59.4946 283.379 60.643 284.794C61.7915 286.188 63.3603 286.886 65.3496 286.886C67.3799 286.886 68.9897 286.199 70.1792 284.825C71.3891 283.451 71.9941 281.359 71.9941 278.549C71.9941 273.115 69.4204 270.397 64.2729 270.397H61.0122V265.752Z" fill="black"/>
<path d="M243.386 295.64H246.038V298.497H243.386V303.243H239.827V298.497H230.613L230.51 296.329L239.71 281.915H243.386V295.64ZM234.246 295.64H239.827V286.734L239.563 287.203L234.246 295.64ZM256.4 307.443C256.2 307.443 256.1 307.343 256.1 307.143C256.1 307.043 256.12 306.983 256.16 306.963L266.57 295.623L255.98 292.503C255.86 292.463 255.8 292.373 255.8 292.233C255.8 292.093 255.84 292.013 255.92 291.993L279.59 277.533C279.63 277.513 279.68 277.503 279.74 277.503C279.8 277.503 279.86 277.523 279.92 277.563C280 277.603 280.04 277.673 280.04 277.773C280.04 277.853 280.01 277.923 279.95 277.983L269.57 289.293L280.19 291.963C280.33 292.003 280.4 292.073 280.4 292.173C280.4 292.313 280.35 292.413 280.25 292.473L256.55 307.383C256.51 307.423 256.46 307.443 256.4 307.443ZM303.035 295.64H305.686V298.497H303.035V303.243H299.475V298.497H290.261L290.159 296.329L299.358 281.915H303.035V295.64ZM293.894 295.64H299.475V286.734L299.212 287.203L293.894 295.64Z" fill="black"/>
<path d="M195.447 269.337C195.442 269.337 195.437 269.338 195.432 269.338C195.437 269.338 195.441 269.337 195.444 269.337C195.445 269.337 195.446 269.337 195.447 269.337Z" fill="black"/>
<path fill-rule="evenodd" clip-rule="evenodd" d="M130.084 254.961C131.965 253.361 135.682 249.335 135.504 246.028C135.281 241.894 131.198 236.028 129.119 236.294C127.456 236.508 127.337 236.383 127.486 236.294L122.808 233.094L120.803 231.094L118.947 233.761C118.205 233.828 116.631 234.134 116.275 234.828C115.919 235.521 115.78 237.117 115.755 237.828L113.751 239.161L116.275 239.961C116.547 241.05 117.463 243.188 118.947 243.028C120.432 242.868 120.803 244.739 120.803 245.694L121.992 243.028C122.858 243.717 124.65 244.681 124.887 243.028C125.125 241.374 126.372 239.761 126.966 239.161C127.659 238.85 129.148 238.321 129.564 238.694C130.084 239.161 133.648 243.561 133.573 245.694C133.514 247.401 130.282 251.606 128.673 253.494C127.164 253.228 123.877 252.774 122.808 253.094C121.739 253.414 119.789 256.161 118.947 257.494C118.7 258.694 118.353 261.228 118.947 261.761C119.542 262.294 119.195 263.183 118.947 263.561C118.675 264.406 118.443 266.161 119.69 266.428C120.761 266.657 122.321 267.168 123.362 267.51C123.837 267.666 124.205 267.786 124.367 267.828C124.712 267.916 125.709 268.356 126.666 268.779C127.153 268.993 127.63 269.204 128.005 269.361C128.238 269.459 128.523 269.588 128.842 269.734C130.049 270.283 131.747 271.056 132.98 271.161C133.265 271.186 133.652 271.234 134.107 271.292C136.14 271.549 139.535 271.978 141.295 271.161C143.448 270.161 144.264 269.828 145.898 269.361C147.531 268.894 149.61 268.161 150.427 267.294C151.08 266.601 152.085 264.739 152.505 263.894C153.545 265.494 155.772 268.828 156.366 269.361C156.424 269.414 156.488 269.469 156.556 269.528C157.346 270.217 158.625 271.333 157.257 272.561C156.636 273.119 155.845 273.572 155.076 274.013C154.008 274.625 152.98 275.214 152.505 276.028C152.237 276.488 151.833 277.092 151.408 277.726C150.539 279.022 149.585 280.446 149.536 281.028C149.508 281.346 149.561 281.62 149.617 281.908C149.713 282.404 149.817 282.942 149.536 283.828C149.09 285.228 148.496 286.228 147.828 286.561C147.516 286.717 146.801 286.843 146.059 286.974C145.209 287.124 144.324 287.281 143.967 287.494C143.299 287.894 142.631 288.561 142.334 289.228C142.097 289.761 140.701 291.006 140.033 291.561L136.395 292.761C136.098 292.917 135.504 293.295 135.504 293.561C135.504 293.621 135.475 293.818 135.433 294.105C135.242 295.423 134.772 298.65 135.504 299.361C136.165 300.004 135.845 302.261 135.636 303.738C135.563 304.252 135.504 304.671 135.504 304.895C135.504 305.761 135.578 308.161 136.84 308.361C138.102 308.561 147.828 308.761 147.828 308.361C147.828 307.961 145.601 300.761 143.967 302.828C142.661 304.481 141.641 304.317 141.295 304.028C141.097 303.45 140.953 302.161 141.963 301.628C142.319 301.44 142.634 301.299 142.945 301.16C143.738 300.807 144.512 300.462 145.898 299.361C146.682 298.738 147 298.083 147.276 297.514C147.68 296.684 147.993 296.04 149.536 295.961C151.614 295.855 153.075 295.339 153.545 295.095C154.535 294.606 156.663 293.455 157.257 292.761C157.432 292.557 157.62 292.352 157.804 292.151C158.401 291.5 158.964 290.886 158.964 290.428C158.964 289.948 156.49 287.65 155.252 286.561C154.287 285.961 152.594 284.761 153.545 284.761H157.257L159.855 289.228C160.326 289.183 161.444 288.974 162.157 288.494C162.721 288.115 163.225 287.441 163.557 286.998C163.75 286.741 163.884 286.561 163.939 286.561C163.984 286.561 164.002 286.669 164.028 286.829C164.087 287.189 164.19 287.818 164.755 288.094C165.572 288.494 166.908 285.694 167.057 285.228C167.09 285.123 167.135 284.951 167.189 284.74C167.379 284.008 167.693 282.797 168.096 282.228C168.512 281.641 169.853 280.65 170.472 280.228C170.076 281.428 169.269 283.828 169.21 283.828C169.164 283.828 169.175 284.006 169.19 284.252C169.199 284.405 169.21 284.583 169.21 284.761C169.21 285.228 172.477 285.628 172.848 285.628H176.857C176.634 285.672 176.322 286.108 176.857 287.494C177.149 288.252 177.483 288.729 177.774 289.144C178.148 289.677 178.448 290.106 178.49 290.894C178.554 292.093 178.835 293.684 179.008 294.66L179.008 294.661C179.037 294.824 179.063 294.97 179.084 295.095C179.203 295.788 179.134 297.65 179.084 298.494L176.337 301.228C176.51 301.806 176.857 303.108 176.857 303.694C176.857 304.428 179.455 305.828 179.827 305.761C179.926 305.743 180.16 305.61 180.455 305.442C181.26 304.982 182.525 304.26 182.796 304.895C183.167 305.761 184.207 307.161 184.578 307.561C184.728 307.722 185.287 307.624 185.984 307.501C187.017 307.319 188.353 307.083 189.107 307.561C190.369 308.361 193.264 308.361 194.378 308.361C195.269 308.361 197.471 307.828 198.461 307.561C198.387 305.85 198.046 302.588 197.274 303.228C196.763 303.651 196.191 302.994 195.655 302.378C195.177 301.829 194.728 301.313 194.378 301.628C193.636 302.295 191.557 302.028 191.186 301.628C190.889 301.308 189.132 299.406 188.29 298.494C187.647 298.05 186.553 297.041 187.325 296.561C187.958 296.167 188.336 293.305 188.647 290.95C188.809 289.716 188.954 288.622 189.107 288.094C189.463 286.868 189.651 285.672 189.701 285.228L187.325 284.428L190.369 283.361C190.592 282.783 190.904 281.401 190.369 280.494C189.876 279.659 188.254 278.533 187.137 277.759C186.74 277.483 186.406 277.252 186.211 277.094C185.835 276.791 184.698 276.367 183.541 275.936C182.414 275.517 181.268 275.09 180.792 274.761C180.622 274.644 180.419 274.501 180.196 274.343C179.148 273.604 177.67 272.561 177.302 272.561C177.165 272.561 176.851 272.46 176.466 272.335C175.6 272.056 174.372 271.659 173.961 272.028C173.503 272.44 171.628 272.971 170.524 273.283L170.522 273.284C170.197 273.376 169.939 273.449 169.804 273.494C169.329 273.654 167.478 274.05 166.611 274.228L166.017 276.028C166.017 275.206 165.765 273.628 164.755 273.894C163.746 274.161 161.464 274.006 160.449 273.894L166.017 272.028L167.057 266.428L168.616 272.028C169.21 271.561 170.561 270.628 171.214 270.628C171.868 270.628 172.971 269.783 173.442 269.361C173.491 267.25 173.664 262.854 173.961 262.161C174.333 261.294 175.372 259.894 176.337 260.828C176.644 261.125 177.012 261.537 177.401 261.973C178.235 262.908 179.169 263.955 179.827 264.228C180.581 264.541 182.062 266.076 183.062 267.113L183.065 267.116C183.343 267.404 183.584 267.654 183.761 267.828C184.037 268.098 184.329 268.557 184.664 269.083C185.322 270.117 186.144 271.409 187.325 272.028C188.955 272.882 190.896 273.457 192.068 273.804C192.176 273.836 192.279 273.866 192.374 273.894C192.711 273.995 192.925 274.133 193.116 274.255C193.556 274.537 193.871 274.739 195.269 274.228C197.274 273.494 200.236 270.894 201.554 269.361C202.509 268.251 202.513 267.916 202.568 263.321C202.588 261.571 202.617 259.203 202.707 255.94C202.962 246.783 201.146 241.871 200.235 239.406C199.969 238.686 199.78 238.175 199.742 237.828C199.578 236.294 197.57 233.761 194.378 233.761C191.186 233.761 187.325 245.176 187.325 249.135V260.828C186.682 259.494 185.231 256.455 184.578 254.961C183.925 253.468 183.761 250.455 183.761 249.135C183.093 248.544 181.564 247.42 180.792 247.656C180.02 247.893 177.847 251.647 176.857 253.494C176.263 253.657 174.852 254.178 173.961 254.961C173.07 255.744 171.759 256.433 171.214 256.68L170.472 261.761L156.366 260.828L154.191 258.074C155.343 259.245 156.857 260.413 158.051 260.413C158.963 260.413 160.625 260.493 162.492 260.582C164.886 260.697 167.617 260.828 169.535 260.828C169.527 260.683 169.629 260.255 169.756 259.722C170.017 258.622 170.385 257.078 170.105 256.68C169.585 255.94 164.755 253.494 163.615 253.938C162.476 254.382 160.056 254.687 158.051 253.094C156.766 252.073 156.436 250.816 156.22 249.993C156.099 249.533 156.014 249.208 155.817 249.135C155.736 249.105 155.559 248.99 155.304 248.824C153.848 247.873 149.842 245.26 146.482 247.396C144.769 248.484 143.967 252.028 143.967 253.494C143.967 253.873 144.049 254.328 144.135 254.815C144.384 256.213 144.68 257.873 143.239 258.751C142.823 259.004 142.456 259.243 142.118 259.464C140.876 260.275 140.03 260.828 138.626 260.828C137.197 260.828 134.266 261.45 132.98 261.761L130.084 258.751L131.872 256.68L130.084 254.961ZM196.66 238.209C195.056 238.078 193.347 239.103 192.095 241.402C190.834 243.719 189.907 247.509 189.868 253.443C189.82 260.835 190.742 265.153 191.872 267.643C192.438 268.892 193.073 269.717 193.701 270.233C194.314 270.737 194.989 270.997 195.595 270.947C197.109 270.824 198.035 270.252 198.688 269.571C198.982 269.264 199.216 268.939 199.406 268.675L199.427 268.645C199.635 268.357 199.785 268.155 199.947 267.999C200.286 267.672 200.267 267.161 199.904 266.857C199.54 266.552 198.971 266.57 198.632 266.896C198.347 267.17 198.116 267.49 197.926 267.754L197.917 267.767C197.711 268.053 197.535 268.296 197.323 268.517C196.944 268.913 196.437 269.253 195.447 269.337C195.447 269.337 195.447 269.337 195.447 269.337C195.447 269.337 195.445 269.336 195.441 269.335C195.406 269.328 195.22 269.291 194.916 269.041C194.54 268.732 194.037 268.133 193.538 267.034C192.538 264.828 191.62 260.755 191.668 253.453C191.706 247.63 192.62 244.117 193.712 242.112C194.813 240.09 195.971 239.775 196.497 239.818C197.205 239.876 197.67 240.242 197.989 240.663C198.148 240.874 198.259 241.085 198.329 241.244C198.364 241.322 198.388 241.385 198.402 241.426C198.409 241.446 198.414 241.461 198.416 241.469L198.418 241.475C198.54 241.905 199.027 242.166 199.508 242.058C199.99 241.95 200.283 241.511 200.163 241.078L199.29 241.274C200.163 241.078 200.163 241.079 200.163 241.078L200.162 241.077L200.162 241.075L200.161 241.072L200.158 241.062L200.149 241.033C200.142 241.01 200.132 240.98 200.119 240.943C200.093 240.868 200.055 240.767 200.002 240.647C199.897 240.409 199.729 240.087 199.477 239.755C198.973 239.089 198.083 238.325 196.66 238.209Z" fill="black"/>
<path d="M120.299 267.902C120.238 267.994 120.113 268.237 119.989 268.491C119.85 268.776 119.674 269.151 119.499 269.559C119.325 269.965 119.147 270.411 119.008 270.835C118.873 271.245 118.756 271.685 118.733 272.06C118.644 273.551 119.743 274.885 120.924 275.784C121.182 275.981 121.494 276.191 121.798 276.397L121.949 276.499C122.312 276.744 122.669 276.992 122.992 277.248C123.686 277.801 123.997 278.233 124.021 278.557C124.07 279.217 124.079 279.904 123.952 280.479C123.824 281.063 123.591 281.379 123.303 281.526C122.669 281.849 121.997 282.452 121.457 282.996C120.898 283.561 120.396 284.15 120.101 284.527L121.572 285.458C121.834 285.124 122.293 284.584 122.802 284.07C123.331 283.537 123.836 283.113 124.192 282.931C125.141 282.447 125.545 281.576 125.718 280.793C125.892 280.001 125.868 279.14 125.816 278.449C125.74 277.421 124.896 276.605 124.186 276.039C123.805 275.736 123.398 275.456 123.033 275.209L122.873 275.101C122.565 274.893 122.303 274.715 122.088 274.552C121.06 273.768 120.486 272.879 120.53 272.147C120.541 271.966 120.608 271.673 120.734 271.293C120.855 270.926 121.014 270.523 121.178 270.141C121.342 269.759 121.507 269.406 121.637 269.141C121.734 268.943 121.798 268.82 121.827 268.765C121.841 268.738 121.846 268.727 121.842 268.733L120.299 267.902Z" fill="black"/>
<path fill-rule="evenodd" clip-rule="evenodd" d="M151.491 244.993C152.383 245.556 154.246 246.752 154.565 247.038C155.608 247.447 157.696 248.336 157.696 248.622C157.696 248.98 158.094 250.769 158.436 251.025C158.514 251.083 158.661 251.217 158.85 251.389C159.483 251.965 160.585 252.967 161.111 252.967C161.427 252.967 162.05 252.857 162.688 252.744C163.428 252.614 164.19 252.479 164.526 252.507C165.051 252.55 166.817 253.563 167.91 254.19C168.121 254.311 168.307 254.418 168.454 254.5C169.365 255.011 170.731 255.011 171.528 254.858C172.324 254.705 174.431 253.274 174.829 252.967C174.905 252.909 175.048 252.805 175.23 252.672C176.009 252.105 177.504 251.018 177.504 250.769C177.504 250.462 177.504 249.287 177.96 249.031C178.282 248.851 178.831 247.648 179.286 246.652C179.475 246.239 179.648 245.861 179.781 245.607C180.059 245.077 180.718 244.851 181.267 244.663C181.618 244.542 181.925 244.437 182.058 244.278C182.249 244.049 181.499 243.487 180.73 242.909C180.122 242.453 179.502 241.987 179.326 241.671C179.207 241.458 179.043 241.254 178.891 241.065C178.532 240.618 178.237 240.251 178.757 240.035C179.497 239.729 181.204 238.246 181.716 236.508C182.126 235.118 175.626 232.965 172.324 232.062C173.33 232.607 175.546 233.881 176.366 234.617C177.39 235.537 177.504 235.997 177.504 237.224C177.504 238.451 173.634 238.655 172.324 238.553C171.015 238.451 169.535 237.786 168.454 237.224C167.546 236.752 165.797 236.82 164.921 236.854C164.753 236.861 164.618 236.866 164.526 236.866C163.957 236.866 159.46 237.684 158.436 238.246C157.411 238.809 156.557 238.655 154.565 236.508C152.97 234.791 156.253 232.828 158.094 232.062C157.468 231.857 155.806 231.571 154.167 232.062C152.431 232.581 151.92 233.578 150.974 235.424C150.803 235.757 150.618 236.118 150.41 236.508C149.325 238.537 151.969 239.438 153.107 239.826C153.403 239.927 153.597 239.993 153.597 240.035C153.597 240.084 153.604 240.176 153.612 240.295C153.638 240.674 153.684 241.321 153.597 241.671C153.483 242.131 152.629 243.102 151.491 244.278C150.58 245.218 151.111 245.147 151.491 244.993ZM159.631 241.773H164.925L166.177 243.358L166.803 244.84L165.266 245.862L161.566 244.431L160.826 243.358L159.631 241.773ZM171.593 244.635C170.967 243.971 169.589 242.448 169.088 241.671H174.61C174.534 242.199 174.348 243.307 174.211 243.511C174.08 243.708 173.339 244.574 172.928 245.054C172.806 245.196 172.714 245.304 172.675 245.351C172.538 245.515 171.897 244.942 171.593 244.635Z" fill="black"/>
<path d="M230.148 372.456V342.597H238.044C241.53 342.597 244.305 343.704 246.37 345.919C248.448 348.134 249.507 351.169 249.548 355.025V359.865C249.548 363.788 248.509 366.871 246.431 369.114C244.367 371.342 241.516 372.456 237.88 372.456H230.148ZM236.177 347.621V367.452H237.982C239.992 367.452 241.407 366.926 242.227 365.873C243.047 364.807 243.478 362.975 243.519 360.377V355.189C243.519 352.4 243.13 350.458 242.35 349.365C241.571 348.257 240.245 347.676 238.372 347.621H236.177ZM261.68 361.546H258.686V372.456H252.657V342.597H262.275C265.296 342.597 267.627 343.383 269.268 344.955C270.922 346.514 271.749 348.736 271.749 351.62C271.749 355.585 270.307 358.361 267.422 359.947L272.652 372.169V372.456H266.171L261.68 361.546ZM258.686 356.522H262.111C263.314 356.522 264.216 356.125 264.818 355.332C265.419 354.526 265.72 353.452 265.72 352.113C265.72 349.118 264.551 347.621 262.213 347.621H258.686V356.522ZM288.885 366.345H280.661L279.062 372.456H272.684L282.015 342.597H287.531L296.924 372.456H290.485L288.885 366.345ZM281.974 361.321H287.552L284.763 350.677L281.974 361.321ZM318.325 369.073C317.163 370.33 315.734 371.281 314.039 371.923C312.357 372.552 310.512 372.866 308.502 372.866C305.07 372.866 302.404 371.807 300.504 369.688C298.603 367.555 297.626 364.458 297.571 360.398V355.025C297.571 350.909 298.467 347.744 300.258 345.53C302.062 343.301 304.687 342.187 308.133 342.187C311.373 342.187 313.813 342.987 315.454 344.586C317.108 346.186 318.065 348.695 318.325 352.113H312.46C312.296 350.212 311.899 348.92 311.27 348.237C310.642 347.539 309.657 347.191 308.317 347.191C306.69 347.191 305.508 347.785 304.769 348.975C304.031 350.164 303.648 352.058 303.621 354.656V360.07C303.621 362.79 304.024 364.773 304.831 366.017C305.651 367.247 306.991 367.863 308.85 367.863C310.04 367.863 311.004 367.623 311.742 367.145L312.275 366.776V361.3H308.051V356.747H318.325V369.073ZM342.351 360.213C342.351 364.219 341.401 367.329 339.501 369.544C337.614 371.759 334.989 372.866 331.626 372.866C328.276 372.866 325.644 371.773 323.73 369.585C321.816 367.384 320.845 364.308 320.818 360.357V355.25C320.818 351.149 321.768 347.949 323.669 345.653C325.569 343.342 328.208 342.187 331.585 342.187C334.907 342.187 337.525 343.322 339.439 345.591C341.353 347.847 342.324 351.019 342.351 355.107V360.213ZM336.301 355.209C336.301 352.516 335.919 350.513 335.153 349.2C334.387 347.888 333.198 347.232 331.585 347.232C329.985 347.232 328.802 347.867 328.037 349.139C327.271 350.397 326.875 352.318 326.847 354.902V360.213C326.847 362.824 327.237 364.752 328.016 365.996C328.796 367.227 329.999 367.842 331.626 367.842C333.198 367.842 334.367 367.24 335.132 366.037C335.898 364.821 336.288 362.941 336.301 360.398V355.209ZM366.295 372.456H360.266L351.448 352.871V372.456H345.418V342.597H351.448L360.287 362.202V342.597H366.295V372.456Z" fill="black"/>
<path d="M79.1001 394.605H54.06V390.514L66.8261 373.595C68.7539 370.991 70.0869 368.858 70.8252 367.197C71.584 365.515 71.9634 363.741 71.9634 361.875C71.9634 359.496 71.4096 357.568 70.3022 356.092C69.1948 354.615 67.7387 353.877 65.9341 353.877C63.6577 353.877 61.894 354.666 60.643 356.245C59.4126 357.804 58.7973 360.06 58.7973 363.013H53.3525C53.3525 358.891 54.4804 355.558 56.7363 353.016C58.9922 350.473 62.0581 349.201 65.9341 349.201C69.5024 349.201 72.312 350.298 74.3628 352.493C76.4135 354.666 77.4389 357.568 77.4389 361.198C77.4389 365.628 75.1318 370.868 70.5176 376.917L60.5508 389.96H79.1001V394.605Z" fill="black"/>
<path d="M241.438 398.012C240.247 399.271 238.855 399.901 237.263 399.901C235.388 399.901 233.894 399.247 232.781 397.938C231.668 396.62 231.111 394.892 231.111 392.753C231.111 391.347 231.394 390.072 231.961 388.93C232.527 387.787 233.333 386.898 234.378 386.264C235.422 385.629 236.633 385.312 238.01 385.312C240.159 385.312 241.863 386.112 243.123 387.714C244.382 389.315 245.012 391.459 245.012 394.145V395.141C245.012 398.988 244.143 401.923 242.405 403.944C240.667 405.966 238.074 406.991 234.627 407.021H234.202V404.076H234.714C236.814 404.047 238.425 403.544 239.548 402.567C240.672 401.581 241.301 400.062 241.438 398.012ZM238.01 397.118C238.723 397.118 239.392 396.913 240.017 396.503C240.642 396.093 241.126 395.526 241.467 394.804V393.412C241.467 391.84 241.145 390.575 240.501 389.618C239.856 388.661 239.021 388.183 237.996 388.183C236.97 388.183 236.15 388.607 235.535 389.457C234.929 390.297 234.627 391.361 234.627 392.65C234.627 393.988 234.934 395.067 235.549 395.888C236.165 396.708 236.985 397.118 238.01 397.118ZM256.4 411.133C256.2 411.133 256.1 411.033 256.1 410.833C256.1 410.733 256.12 410.673 256.16 410.653L266.57 399.313L255.98 396.193C255.86 396.153 255.8 396.063 255.8 395.923C255.8 395.783 255.84 395.703 255.92 395.683L279.59 381.223C279.63 381.203 279.68 381.193 279.74 381.193C279.8 381.193 279.86 381.213 279.92 381.253C280 381.293 280.04 381.363 280.04 381.463C280.04 381.543 280.01 381.613 279.95 381.673L269.57 392.983L280.19 395.653C280.33 395.693 280.4 395.763 280.4 395.863C280.4 396.003 280.35 396.103 280.25 396.163L256.55 411.073C256.51 411.113 256.46 411.133 256.4 411.133ZM295.457 407.443L298.667 397.903L290.927 392.713H300.407L303.797 382.483L307.247 392.713H316.667L308.927 397.903L312.197 407.443L303.797 401.353L295.457 407.443ZM331.38 394.643H333.547C334.641 394.633 335.505 394.35 336.14 393.793C336.785 393.236 337.107 392.431 337.107 391.376C337.107 390.36 336.839 389.574 336.301 389.018C335.774 388.451 334.964 388.168 333.87 388.168C332.913 388.168 332.127 388.446 331.511 389.003C330.896 389.55 330.589 390.268 330.589 391.156H327.029C327.029 390.062 327.317 389.066 327.893 388.168C328.479 387.27 329.29 386.571 330.325 386.073C331.37 385.565 332.537 385.312 333.826 385.312C335.955 385.312 337.625 385.849 338.836 386.923C340.056 387.987 340.667 389.472 340.667 391.376C340.667 392.333 340.359 393.236 339.744 394.086C339.138 394.926 338.352 395.561 337.385 395.99C338.557 396.391 339.446 397.021 340.051 397.88C340.667 398.739 340.974 399.765 340.974 400.956C340.974 402.87 340.315 404.394 338.997 405.526C337.688 406.659 335.964 407.226 333.826 407.226C331.775 407.226 330.095 406.679 328.787 405.585C327.478 404.491 326.824 403.036 326.824 401.22H330.383C330.383 402.157 330.696 402.919 331.321 403.505C331.956 404.091 332.805 404.384 333.87 404.384C334.973 404.384 335.842 404.091 336.477 403.505C337.112 402.919 337.429 402.069 337.429 400.956C337.429 399.833 337.097 398.969 336.433 398.363C335.769 397.758 334.783 397.455 333.474 397.455H331.38V394.643Z" fill="black"/>
<path fill-rule="evenodd" clip-rule="evenodd" d="M136.303 355.619C137.161 355.759 138.722 356.392 138.104 357.803C137.487 359.214 133.902 362.143 132.187 363.431L128.414 368.976C127.442 369.396 125.498 370.37 125.498 370.908C125.498 371.445 125.041 373.652 124.812 374.688C123.192 374.307 119.779 373.441 119.095 373.029C118.412 372.617 117.452 370.625 117.057 369.68H122.186L123.632 366.395L125.498 365.751L126.591 363.431L131.325 360.921L124.355 362.08V364.27H122.186L121.068 368.134H115.874C114.011 367.533 110.443 365.674 111.074 363.046C111.863 359.761 113.31 356.231 116.203 357.803C118.517 359.061 121.156 357.872 122.186 357.121C121.901 356.434 121.357 354.815 121.462 353.836C121.568 352.857 122.295 350.766 122.646 349.843L115.604 344.454L111.074 337.146L122.646 347.12L116.562 336.01L126.997 346.281C128.038 347.668 130.182 350.322 130.424 349.843C130.727 349.244 134.608 343.022 134.659 343.318C134.709 343.614 136.927 347.614 137.381 347.12C137.744 346.725 141.733 344.191 143.682 342.972C143.363 344.898 143.067 348.424 144.438 347.12C145.809 345.817 149.009 344.964 150.437 344.701C149.412 346.083 147.805 348.849 149.58 348.849C151.354 348.849 154.957 349.511 156.536 349.843C155.679 350.68 154.096 352.414 154.621 352.651C155.145 352.888 156.116 355.12 156.536 356.206C156.738 357.714 156.713 360.999 154.998 362.08C153.283 363.161 152.168 367.597 151.825 369.68C153.254 369.344 156.284 368.38 156.97 367.212C157.656 366.043 159.314 363.304 160.058 362.08L161.944 364.859L163.231 360.491L165.632 364.27L168.633 364.859C169.376 364.047 170.708 361.802 170.091 359.315C169.556 357.16 168.362 355.714 167.593 354.784C167.253 354.373 166.997 354.062 166.918 353.836C166.707 353.231 164.708 351.285 163.712 350.315C163.493 350.103 163.323 349.937 163.231 349.843C162.716 349.318 162.116 348.849 161.087 348.849C160.263 348.849 160.058 351.384 160.058 352.651C158.571 350.649 156.233 346.207 158.771 344.454C161.31 342.7 162.23 341.814 162.373 341.59C162.687 342.545 163.676 344.454 165.117 344.454C166.918 344.454 192.216 343.664 195.475 343.318C198.081 343.042 202.849 346.251 204.908 347.89L199.162 347.12C201.677 348.413 206.794 352.039 207.137 356.206C207.48 360.373 206.766 368.416 206.365 371.916C205.622 368.079 203.638 359.748 201.649 357.121C199.162 353.836 196.675 351.466 195.475 352.651C194.783 353.334 195.685 354.538 196.82 356.052C197.655 357.167 198.617 358.451 199.162 359.819C200.191 362.401 200.22 367.951 200.105 370.404C197.733 364.778 192.473 354.381 190.415 357.803C188.454 361.064 192.151 366.168 194.532 368.631C191.701 365.811 185.996 360.905 183.297 361.415C179.781 362.08 180.21 364.291 181.754 365.751C182.989 366.919 184.326 368.857 184.841 369.68L187.071 368.976L188.1 374.688L194.188 373.029L193.588 376.452H198.476L196.675 379.56H200.791L198.476 383.509H205.765L203.964 388.381C205.279 389.058 207.755 391.412 207.137 395.414C206.365 400.416 204.822 405.275 201.649 406.561C199.193 407.556 188.318 407.011 182.385 406.713H182.385C180.651 406.626 179.34 406.561 178.783 406.561C178.29 406.561 177.644 406.527 176.933 406.49H176.932C174.095 406.342 170.216 406.14 170.842 407.804C171.468 409.47 172.147 410.762 172.408 411.201L163.231 410.543L168.633 401.997L170.091 404.188H183.297C183.584 404.188 184 404.204 184.513 404.223C188.73 404.38 199.479 404.779 198.476 398.82C197.576 393.473 192.727 392.282 190.415 392.355C191.473 393.341 193.588 395.664 193.588 397.067C193.588 398.469 191.473 400.938 190.415 401.997L170.842 401.449L166.918 400.134L163.231 406.561L161.087 403.75L158.091 406.561V402.983H156.536L158.091 400.134C158.187 399.331 158.92 397.592 161.087 397.067C163.254 396.541 168.493 398.016 170.842 398.82H181.754C183.485 398.129 186.076 396.614 182.586 396.08C180.43 395.751 178.52 396.042 176.991 396.274C175.426 396.513 174.261 396.69 173.638 396.08C172.408 394.875 171.178 390.492 172.408 388.959C173.392 387.731 177.441 384.814 179.343 383.509C175.773 385.033 168.633 388.411 168.633 389.725C168.633 391.04 169.211 394.066 169.5 395.414L159.433 394.656L158.091 389.725L154.998 398.053L151.825 405.065L150.437 408.352H145.676V410.543L142.432 406.561L141.425 410.543L138.965 406.561H136.303L134.043 408.352L133.26 403.75C134.066 401.668 136.163 397.768 138.104 398.82C140.045 399.871 142.632 400.134 143.682 400.134L145.676 397.067L147.353 393.889L151.825 392.355L151.045 388.381L149.58 391.369L146.794 392.355L144.438 385.233V392.903C140.764 392.755 132.997 390.181 131.325 381.07C129.234 369.68 137.244 364.859 138.104 364.859C138.965 364.859 146.913 359.4 145.676 357.803C145.358 357.393 145.086 356.932 144.814 356.474L144.814 356.474C144.029 355.146 143.254 353.836 141.425 353.836C139.457 353.836 137.191 355.025 136.303 355.619ZM194.874 368.976C194.766 368.865 194.651 368.75 194.532 368.631C194.65 368.752 194.764 368.867 194.874 368.976ZM125.515 353.381H128.834L125.782 355.558L125.515 353.381ZM143.833 377.44C142.664 378.23 142.976 381.357 143.279 382.822C142.825 381.637 141.867 378.595 141.666 375.909C141.464 373.223 143.766 370.313 144.942 369.193C144.808 369.687 144.398 370.833 143.833 371.465C143.269 372.097 143.396 374.329 143.531 375.366L150.033 374.724C148.454 375.3 145.003 376.65 143.833 377.44ZM131.135 388.52L135.162 392.136C133.82 392.866 130.733 394.283 129.122 394.108C127.88 393.973 126.722 392.795 125.729 391.783C125.113 391.156 124.56 390.593 124.089 390.383C123.104 389.945 118.683 390.2 116.595 390.383L115.7 395.642L112.568 389.506L114.246 385.452L109.884 386.877L111.897 382.165L116.595 381.179V378.769L112.568 376.687H120.957L122.075 382.165L125.319 384.576L129.905 385.452L131.135 388.52ZM123.063 384.928H123.063L123.123 384.928L120.874 386.397L118.829 387.687V385.084C118.829 384.915 122.52 384.926 123.063 384.928Z" fill="black"/>
<path d="M250.389 466.2C250.239 469.604 249.282 472.181 247.518 473.931C245.755 475.681 243.266 476.556 240.053 476.556C236.676 476.556 234.086 475.449 232.281 473.234C230.49 471.006 229.594 467.834 229.594 463.719V458.694C229.594 454.593 230.524 451.434 232.383 449.219C234.243 446.991 236.827 445.877 240.135 445.877C243.389 445.877 245.857 446.786 247.539 448.604C249.234 450.423 250.198 453.034 250.43 456.438H244.38C244.326 454.333 243.998 452.884 243.396 452.091C242.808 451.284 241.721 450.881 240.135 450.881C238.522 450.881 237.38 451.448 236.711 452.583C236.041 453.704 235.685 455.556 235.644 458.14V463.78C235.644 466.747 235.972 468.784 236.629 469.891C237.298 470.999 238.44 471.552 240.053 471.552C241.639 471.552 242.733 471.17 243.335 470.404C243.936 469.625 244.278 468.223 244.36 466.2H250.389ZM273.862 463.903C273.862 467.909 272.912 471.019 271.011 473.234C269.124 475.449 266.499 476.556 263.136 476.556C259.787 476.556 257.155 475.463 255.241 473.275C253.327 471.074 252.356 467.998 252.329 464.047V458.94C252.329 454.839 253.279 451.639 255.179 449.343C257.079 447.032 259.718 445.877 263.095 445.877C266.417 445.877 269.036 447.011 270.95 449.281C272.864 451.537 273.834 454.709 273.862 458.797V463.903ZM267.812 458.899C267.812 456.206 267.429 454.203 266.663 452.89C265.898 451.578 264.708 450.922 263.095 450.922C261.495 450.922 260.313 451.557 259.547 452.829C258.782 454.087 258.385 456.008 258.358 458.592V463.903C258.358 466.514 258.747 468.442 259.527 469.686C260.306 470.917 261.509 471.532 263.136 471.532C264.708 471.532 265.877 470.93 266.643 469.727C267.409 468.51 267.798 466.631 267.812 464.088V458.899ZM282.958 471.142H293.54V476.146H276.929V446.287H282.958V471.142ZM315.475 463.903C315.475 467.909 314.524 471.019 312.624 473.234C310.737 475.449 308.112 476.556 304.749 476.556C301.399 476.556 298.767 475.463 296.853 473.275C294.939 471.074 293.969 467.998 293.941 464.047V458.94C293.941 454.839 294.892 451.639 296.792 449.343C298.692 447.032 301.331 445.877 304.708 445.877C308.03 445.877 310.648 447.011 312.562 449.281C314.476 451.537 315.447 454.709 315.475 458.797V463.903ZM309.425 458.899C309.425 456.206 309.042 454.203 308.276 452.89C307.511 451.578 306.321 450.922 304.708 450.922C303.108 450.922 301.926 451.557 301.16 452.829C300.394 454.087 299.998 456.008 299.971 458.592V463.903C299.971 466.514 300.36 468.442 301.14 469.686C301.919 470.917 303.122 471.532 304.749 471.532C306.321 471.532 307.49 470.93 308.256 469.727C309.021 468.51 309.411 466.631 309.425 464.088V458.899ZM331.154 468.312C331.154 467.095 330.84 466.179 330.211 465.564C329.595 464.935 328.467 464.286 326.827 463.616C323.833 462.481 321.679 461.155 320.367 459.637C319.054 458.106 318.398 456.302 318.398 454.223C318.398 451.708 319.287 449.691 321.064 448.174C322.855 446.642 325.125 445.877 327.873 445.877C329.705 445.877 331.339 446.266 332.774 447.046C334.21 447.811 335.31 448.898 336.076 450.306C336.855 451.715 337.245 453.314 337.245 455.105H331.236C331.236 453.711 330.935 452.651 330.334 451.927C329.746 451.188 328.891 450.819 327.77 450.819C326.717 450.819 325.897 451.134 325.309 451.762C324.721 452.378 324.427 453.212 324.427 454.264C324.427 455.085 324.756 455.83 325.412 456.5C326.068 457.156 327.23 457.84 328.898 458.551C331.81 459.603 333.923 460.895 335.235 462.427C336.561 463.958 337.224 465.906 337.224 468.271C337.224 470.869 336.397 472.899 334.743 474.362C333.089 475.825 330.84 476.556 327.996 476.556C326.068 476.556 324.311 476.16 322.725 475.367C321.139 474.574 319.895 473.439 318.993 471.963C318.104 470.486 317.66 468.743 317.66 466.733H323.71C323.71 468.456 324.045 469.707 324.715 470.486C325.384 471.265 326.478 471.655 327.996 471.655C330.101 471.655 331.154 470.541 331.154 468.312ZM352.576 468.312C352.576 467.095 352.261 466.179 351.632 465.564C351.017 464.935 349.889 464.286 348.248 463.616C345.254 462.481 343.101 461.155 341.788 459.637C340.476 458.106 339.82 456.302 339.82 454.223C339.82 451.708 340.708 449.691 342.486 448.174C344.277 446.642 346.546 445.877 349.294 445.877C351.126 445.877 352.76 446.266 354.196 447.046C355.631 447.811 356.732 448.898 357.497 450.306C358.277 451.715 358.666 453.314 358.666 455.105H352.658C352.658 453.711 352.357 452.651 351.755 451.927C351.167 451.188 350.313 450.819 349.192 450.819C348.139 450.819 347.319 451.134 346.731 451.762C346.143 452.378 345.849 453.212 345.849 454.264C345.849 455.085 346.177 455.83 346.833 456.5C347.49 457.156 348.652 457.84 350.32 458.551C353.232 459.603 355.344 460.895 356.657 462.427C357.983 463.958 358.646 465.906 358.646 468.271C358.646 470.869 357.819 472.899 356.164 474.362C354.51 475.825 352.261 476.556 349.417 476.556C347.49 476.556 345.733 476.16 344.147 475.367C342.561 474.574 341.317 473.439 340.414 471.963C339.526 470.486 339.081 468.743 339.081 466.733H345.131C345.131 468.456 345.466 469.707 346.136 470.486C346.806 471.265 347.9 471.655 349.417 471.655C351.523 471.655 352.576 470.541 352.576 468.312ZM380.806 446.287V466.959C380.779 470.062 379.924 472.441 378.242 474.095C376.561 475.736 374.148 476.556 371.003 476.556C367.804 476.556 365.357 475.722 363.661 474.054C361.98 472.386 361.139 469.973 361.139 466.815V446.287H367.209V466.836C367.209 468.531 367.483 469.741 368.029 470.466C368.576 471.19 369.568 471.552 371.003 471.552C372.439 471.552 373.423 471.197 373.956 470.486C374.489 469.761 374.763 468.579 374.777 466.938V446.287H380.806ZM396.731 468.312C396.731 467.095 396.417 466.179 395.788 465.564C395.173 464.935 394.045 464.286 392.404 463.616C389.41 462.481 387.257 461.155 385.944 459.637C384.632 458.106 383.976 456.302 383.976 454.223C383.976 451.708 384.864 449.691 386.642 448.174C388.433 446.642 390.702 445.877 393.45 445.877C395.282 445.877 396.916 446.266 398.352 447.046C399.787 447.811 400.888 448.898 401.653 450.306C402.433 451.715 402.822 453.314 402.822 455.105H396.813C396.813 453.711 396.513 452.651 395.911 451.927C395.323 451.188 394.469 450.819 393.348 450.819C392.295 450.819 391.475 451.134 390.887 451.762C390.299 452.378 390.005 453.212 390.005 454.264C390.005 455.085 390.333 455.83 390.989 456.5C391.645 457.156 392.808 457.84 394.476 458.551C397.388 459.603 399.5 460.895 400.812 462.427C402.139 463.958 402.802 465.906 402.802 468.271C402.802 470.869 401.975 472.899 400.32 474.362C398.666 475.825 396.417 476.556 393.573 476.556C391.645 476.556 389.889 476.16 388.303 475.367C386.717 474.574 385.473 473.439 384.57 471.963C383.682 470.486 383.237 468.743 383.237 466.733H389.287C389.287 468.456 389.622 469.707 390.292 470.486C390.962 471.265 392.056 471.655 393.573 471.655C395.679 471.655 396.731 470.541 396.731 468.312Z" fill="black"/>
<path d="M240.984 510.623H237.439V493.499L232.21 495.286V492.283L240.53 489.221H240.984V510.623ZM262.297 501.643C262.297 504.709 261.721 507.024 260.569 508.586C259.426 510.139 257.683 510.916 255.339 510.916C253.035 510.916 251.297 510.159 250.125 508.645C248.963 507.122 248.367 504.871 248.338 501.892V498.201C248.338 495.134 248.909 492.834 250.051 491.301C251.204 489.768 252.957 489.001 255.31 489.001C257.644 489.001 259.382 489.749 260.525 491.243C261.677 492.737 262.268 494.973 262.297 497.952V501.643ZM258.738 497.659C258.738 495.657 258.464 494.192 257.918 493.264C257.371 492.327 256.502 491.858 255.31 491.858C254.148 491.858 253.294 492.302 252.747 493.191C252.2 494.07 251.912 495.447 251.882 497.322V502.156C251.882 504.148 252.161 505.632 252.717 506.609C253.274 507.585 254.148 508.074 255.339 508.074C256.482 508.074 257.327 507.625 257.874 506.726C258.421 505.818 258.709 504.402 258.738 502.478V497.659ZM289.544 499.109C289.544 500.828 289.08 502.234 288.152 503.328C287.224 504.412 286.067 504.954 284.68 504.954C283.958 504.954 283.289 504.817 282.673 504.543C282.068 504.27 281.389 503.801 280.637 503.137C279.885 502.463 279.343 502.048 279.011 501.892C278.689 501.726 278.342 501.643 277.971 501.643C277.317 501.643 276.799 501.897 276.419 502.405C276.047 502.913 275.862 503.577 275.862 504.397H273.035C273.035 502.727 273.479 501.36 274.368 500.295C275.256 499.221 276.423 498.684 277.869 498.684C278.591 498.684 279.275 498.831 279.92 499.124C280.574 499.407 281.253 499.871 281.956 500.515C282.669 501.16 283.186 501.565 283.508 501.731C283.84 501.897 284.197 501.98 284.578 501.98C285.232 501.98 285.764 501.707 286.174 501.16C286.585 500.613 286.79 499.929 286.79 499.109H289.544ZM312.38 503.02H315.032V505.876H312.38V510.623H308.821V505.876H299.607L299.505 503.708L308.704 489.294H312.38V503.02ZM303.24 503.02H308.821V494.114L308.557 494.583L303.24 503.02Z" fill="black"/>
<path fill-rule="evenodd" clip-rule="evenodd" d="M120.201 481.311L122.981 480.812C122.916 484.727 122.097 492.638 119.344 492.955C115.903 493.351 110.37 471.686 110.168 465.021C109.966 458.357 110.708 449.464 111.45 447.255C111.595 446.822 111.813 446.003 112.09 444.964L112.09 444.964C113.225 440.7 115.349 432.722 117.511 432.436C120.201 432.08 121.057 432.863 121.638 434.431C122.103 435.685 122.219 436.948 122.219 437.423C121.271 436.711 119.219 435.343 118.598 435.571C117.822 435.856 116.173 439.133 115.768 440.843C115.363 442.553 115.093 451.446 114.891 461.689C114.688 471.933 118.486 492.088 119.344 488.773C120.03 486.121 120.443 483.412 120.564 482.388L120.201 481.311ZM192.777 450.764H198.467C197.915 449.417 196.926 446.657 197.381 446.394C197.836 446.132 199.398 446.576 200.123 446.831L201.054 448.962L206.278 444.756L201.675 440.331C201.226 441.314 200.143 443.248 199.398 443.117C198.467 442.953 198.105 441.806 198.105 441.369C198.105 440.932 197.95 437.982 195.57 438.037C193.667 438.081 192.432 440.932 192.053 442.352C190.725 442.225 187.987 441.576 187.656 440.003C187.242 438.037 187.242 436.07 188.173 435.797C188.918 435.579 189.621 434.941 189.88 434.65C187.156 435.032 181.697 437.392 181.655 443.772C181.614 450.152 186.19 453.922 188.484 455.009C187.656 453.703 186.094 450.786 186.466 449.562C186.629 449.027 186.64 448.478 186.65 447.991C186.667 447.086 186.681 446.394 187.656 446.394C188.856 446.394 190.674 446.686 191.432 446.831L192.777 450.764ZM117.511 441.314C117.511 440.51 118.708 439.969 120.122 439.329L120.201 439.293C120.874 439.002 122.219 438.594 122.219 439.293C122.219 439.904 122.591 440.382 122.918 440.8C123.059 440.981 123.191 441.15 123.281 441.314C123.374 441.483 123.625 441.584 123.952 441.716C124.683 442.01 125.793 442.457 126.374 444.155C126.425 444.303 126.472 444.438 126.515 444.562L126.515 444.562C126.752 445.249 126.875 445.604 126.909 445.967C126.946 446.357 126.882 446.757 126.748 447.584C126.654 448.166 126.526 448.959 126.374 450.109C125.981 453.098 125.743 452.981 125.321 452.773C125.094 452.661 124.815 452.524 124.431 452.823C123.329 453.679 122.581 454.206 121.236 455.009C120.174 455.644 120.306 456.513 120.459 457.523C120.5 457.792 120.542 458.07 120.564 458.357C120.667 459.723 120.874 462.163 121.236 462.533C121.598 462.902 122.219 464.434 122.219 465.021C122.219 465.324 122.715 466.002 123.202 466.668C123.659 467.292 124.108 467.905 124.133 468.189C124.174 468.659 123.382 470.634 122.981 471.563C122.468 472.32 121.402 473.834 121.236 473.834C121.173 473.834 121.158 474.155 121.136 474.634C121.084 475.73 120.994 477.649 120.201 478.404C119.063 479.489 117.822 478.732 117.822 478.111C117.822 478.017 117.828 477.601 117.837 476.959C117.889 473.382 118.041 462.788 117.822 461.689C117.647 460.811 117.709 459.243 117.767 457.771C117.795 457.07 117.822 456.391 117.822 455.819C117.822 454.045 117.822 453.441 118.598 452.512C119.219 451.77 119.926 451.365 120.201 451.256C119.857 450.764 119.053 449.541 118.598 448.579C118.265 447.877 118.18 447.324 118.094 446.767C118.034 446.371 117.972 445.974 117.822 445.52C117.495 444.534 117.505 442.569 117.51 441.593V441.593C117.511 441.488 117.511 441.394 117.511 441.314ZM146.811 454.544C147.772 454.743 148.493 454.892 148.493 454.685C148.493 454.566 148.564 454.325 148.652 454.023C148.92 453.107 149.353 451.626 148.493 451.256C147.47 450.816 146.541 449.589 146.172 449.101C146.129 449.043 146.093 448.996 146.066 448.962C146.025 448.91 145.987 448.727 145.931 448.461C145.635 447.04 144.842 443.235 140.479 444.155C136.441 445.006 135.053 446.985 134.343 447.999C134.142 448.286 133.995 448.495 133.858 448.579C133.76 448.639 133.604 448.73 133.407 448.843C132.349 449.453 130.115 450.741 129.461 451.693C128.84 452.597 128.03 454.28 127.702 455.009C129.578 454.473 133.636 453.563 134.861 454.206C136.086 454.848 138.716 457.897 139.877 459.341C139.877 459.341 141.1 454.685 142.849 454.206C143.845 453.932 145.538 454.282 146.811 454.544ZM171.258 450.764C170.861 451.262 169.903 451.9 169.098 452.436C168.401 452.901 167.818 453.289 167.818 453.441C169.211 453.235 172.396 453.099 173.991 454.206C175.582 455.309 176.394 457.295 176.808 458.305L176.808 458.305L176.808 458.305C176.912 458.561 176.992 458.755 177.051 458.856C177.211 459.124 177.679 458.482 178.256 457.692L178.256 457.692C178.749 457.017 179.32 456.233 179.845 455.819C180.755 455.099 183.362 454.763 184.552 454.685C184.19 454.434 183.269 453.834 182.483 453.441C181.763 453.08 181.154 451.811 180.717 450.901L180.717 450.901L180.717 450.9L180.717 450.9L180.716 450.9C180.557 450.568 180.421 450.284 180.31 450.109C180.028 449.662 179.986 448.707 179.939 447.625C179.917 447.12 179.894 446.588 179.845 446.067C179.699 444.533 178.375 444.387 176.637 444.195C176.518 444.182 176.398 444.169 176.275 444.155C174.361 443.936 172.955 444.974 172.655 445.52C172.404 445.978 172.355 446.741 172.316 447.362L172.316 447.362L172.316 447.362L172.316 447.362L172.316 447.363C172.308 447.483 172.301 447.599 172.292 447.705C172.241 448.361 171.998 449.836 171.258 450.764ZM165.403 452.823C164.946 452.626 164.217 452.992 163.247 453.478C162.027 454.092 160.425 454.896 158.502 455.009C157.364 454.901 155.027 454.685 154.781 454.685C154.628 454.685 154.169 454.382 153.588 453.999L153.588 453.999C153.004 453.614 152.297 453.147 151.65 452.823C150.762 452.377 150.504 453.063 150.233 453.785C150.11 454.111 149.985 454.445 149.797 454.685C149.194 455.454 148.838 460.88 149.797 460.839C150.564 460.807 154.486 460.691 156.352 460.637L157.802 458.856L158.902 460.03C160.954 460.367 165.217 460.92 165.853 460.435C166.649 459.827 166.438 453.268 165.403 452.823ZM163.321 481.25L163.321 481.25C162.433 479.648 161.166 477.365 157.252 477.319C153.983 477.281 152.93 479.544 152.292 480.915C152.051 481.431 151.869 481.821 151.65 481.914C150.65 482.336 146.099 482.97 144.749 482.864C143.399 482.759 142.849 479.115 142.849 478.111C142.849 477.309 144.349 475.313 145.099 474.415C144.599 474.221 143.449 473.771 142.849 473.517C142.098 473.2 141.998 468.078 142.849 466.335C143.38 465.246 144.594 465.497 145.687 465.723C146.343 465.859 146.956 465.985 147.35 465.807C147.877 465.568 148.466 464.745 149.012 463.984C149.554 463.228 150.051 462.533 150.4 462.533C150.96 462.533 154.434 462.286 156.101 462.163C156.218 464.223 156.432 468.447 156.352 468.87C156.272 469.292 151.55 471.088 149.2 471.933C150.584 471.933 153.501 471.859 154.101 471.563C154.701 471.267 155.685 470.912 156.101 470.771L157.802 473.834C158.018 473.077 158.462 471.51 158.502 471.299C158.542 471.088 160.052 470.613 160.802 470.401L159.752 468.87L158.902 462.533C160.002 462.515 162.843 462.49 165.403 462.533C167.551 462.568 169.248 464.814 170.374 466.305C170.926 467.036 171.341 467.585 171.605 467.602C172.245 467.645 174.205 465.508 175.105 464.434C175.722 465.842 176.916 469.007 176.756 470.401C176.556 472.144 173.555 473.147 172.655 473.147C171.935 473.147 167.821 471.317 165.853 470.401C163.986 470.841 160.942 471.69 163.703 471.563C167.154 471.405 172.705 474.679 172.955 474.996C173.205 475.313 173.005 480.805 171.605 481.914C170.484 482.801 165.87 482.284 163.703 481.914C163.579 481.714 163.455 481.49 163.321 481.25ZM147.65 456.345C147.75 456.98 147.89 458.467 147.65 459.341C147.35 460.435 146.729 462.621 146.461 462.985C146.193 463.35 143.785 463.714 143.317 463.633C142.849 463.552 141.63 462.176 141.63 461.406C141.63 460.637 142.648 457.641 142.849 457.317C143.009 457.058 146.116 456.561 147.65 456.345ZM171.605 455.819H167.818H167.626C167.69 456.912 167.818 459.147 167.818 459.341C167.818 459.511 168.138 460.178 168.382 460.687L168.382 460.687L168.382 460.687L168.382 460.688C168.487 460.906 168.577 461.095 168.623 461.204C168.746 461.495 170.924 464.394 171.998 465.807C172.662 465.015 174.122 463.251 174.643 462.533C175.035 461.992 175.025 461.342 175.013 460.62C175.006 460.141 174.998 459.631 175.105 459.098C175.324 458.021 174.664 457.68 174.24 457.462C174.139 457.409 174.051 457.364 173.991 457.317C173.939 457.276 173.861 457.205 173.762 457.117C173.279 456.685 172.313 455.819 171.605 455.819ZM161.536 487.237L161.536 487.237C161.59 487.145 161.637 487.063 161.683 486.995C161.812 486.804 161.811 486.444 161.81 486.049C161.807 485.272 161.803 484.364 162.795 484.364C163.992 484.364 168.738 484.121 170.962 483.999C171.397 484.863 172.442 486.728 173.148 487.279C173.853 487.829 174.234 489.317 174.336 489.992C171.422 490.086 165.479 490.445 165.019 491.125C164.444 491.976 161.53 497.28 161.031 498.251C160.905 498.498 160.717 499.207 160.471 500.136C159.747 502.868 158.522 507.494 156.89 507.766C154.951 508.09 154.038 502.611 153.804 501.202L153.804 501.202C153.774 501.024 153.755 500.91 153.746 500.883C153.74 500.864 153.727 500.822 153.708 500.758L153.708 500.758L153.708 500.758C153.479 500.007 152.369 496.366 151.65 495.134C151.396 494.698 151.012 494.008 150.598 493.262C149.741 491.72 148.752 489.94 148.493 489.668C148.362 489.528 147.878 489.088 147.299 488.561L147.299 488.561C146.196 487.556 144.749 486.237 144.749 486.105C144.749 486.073 144.738 486.019 144.723 485.95C144.643 485.573 144.466 484.737 145.503 484.566C146.034 484.478 147.045 484.497 148.113 484.517H148.113C149.511 484.543 151.006 484.57 151.65 484.364C152.638 484.047 153.223 486.082 153.593 487.365C153.649 487.56 153.7 487.737 153.746 487.886C154.03 488.793 156.568 489.182 157.802 489.263C160.442 489.12 161.144 487.912 161.536 487.237ZM155.379 485.458C154.982 485.249 154.673 483.324 154.568 482.388C155.417 482.999 157.191 484.225 157.498 484.245C157.881 484.268 160.383 485.458 160.202 485.673C160.022 485.887 158.039 485.887 157.498 485.887H157.498C156.957 485.887 155.875 485.72 155.379 485.458ZM154.728 480.812L160.644 483.999C160.853 482.584 160.805 479.725 158.946 479.604C157.087 479.483 155.359 480.359 154.728 480.812ZM163.343 498.251C161.829 499.058 162.123 501.515 162.231 502.424L162.231 502.424C162.243 502.52 162.252 502.599 162.257 502.657C163.412 503.569 165.866 505.463 166.438 505.748C166.761 505.909 167.605 506.666 168.578 507.54C169.76 508.601 171.132 509.832 171.998 510.379C173.577 511.376 176.153 512.374 176.756 511.946C176.945 511.812 177.275 511.35 177.692 510.768L177.692 510.767L177.692 510.767L177.692 510.767C178.601 509.494 179.922 507.647 181.079 507.387C182.428 507.083 185.689 506.785 187.151 506.674C186.888 506.009 186.363 504.503 186.363 503.804C186.363 502.93 185.897 500.418 185.276 499.38L185.257 499.347L185.257 499.347L185.257 499.347C184.616 498.275 182.729 495.12 181.5 493.808C180.259 492.482 178.81 491.951 174.724 491.514C171.455 491.164 167.602 491.878 166.085 492.279C166.068 493.353 165.971 495.643 165.723 496.212C165.413 496.922 165.019 497.359 163.343 498.251ZM189.108 510.878C188.23 514.939 186.303 516.577 185.276 517.29C184.25 518.002 181.281 518.786 179.999 518.786C179.23 518.786 177.952 518.376 176.688 517.971L176.688 517.971C175.845 517.701 175.009 517.433 174.336 517.29C174.088 517.237 173.813 517.186 173.522 517.132C171.849 516.82 169.631 516.406 168.597 515.01C167.625 513.699 164.324 510.522 162.795 509.097C162.613 510.094 162.357 512.231 162.795 512.801C163.343 513.514 167.787 515.936 168.597 516.364C169.406 516.791 171.998 518.501 171.998 519.499C171.998 520.297 162.167 520.544 157.252 520.567C157.548 518.715 158.302 515.01 158.946 515.01C159.591 515.01 159.752 511.4 159.752 509.595L160.644 505.178C161.003 504.547 161.827 503.389 162.257 503.804C162.424 503.966 163.1 504.49 163.952 505.15L163.952 505.15L163.952 505.151C165.841 506.616 168.597 508.753 168.597 509.097C168.597 509.496 171.631 511.733 173.148 512.801L175.105 513.799V515.58L176.756 515.936L177.233 513.158C177.784 511.851 179.409 509.139 181.5 508.74C184.115 508.242 185.575 508.17 186.363 508.17C186.613 508.17 186.98 508.113 187.365 508.053L187.366 508.053C188.195 507.924 189.108 507.781 189.108 508.17V510.878ZM141.63 504.199C142.223 504.422 144.201 504.267 146.458 504.089C148.192 503.953 150.091 503.804 151.65 503.804L152.461 501.783C152.191 500.761 151.549 498.493 151.141 497.601C150.734 496.709 150.477 496.303 150.4 496.212L147.65 497.601C148.166 496.052 148.89 492.82 147.65 492.279C146.888 491.946 146.356 491.212 145.836 490.493C145.297 489.749 144.77 489.022 144.013 488.773C142.712 488.345 142.795 486.628 142.837 485.77C142.843 485.646 142.849 485.54 142.849 485.458C142.849 484.812 141.63 484.364 138.997 484.364C136.364 484.364 135.477 484.364 132.309 484.566C130.27 484.696 130.018 485.296 129.744 485.945C129.593 486.304 129.436 486.678 128.965 486.995C128.429 487.357 127.575 487.571 126.702 487.791C125.423 488.113 124.103 488.445 123.685 489.263C123.122 490.364 122.981 492.183 122.981 492.955C123.597 493.681 124.97 495.349 125.533 496.212C126.237 497.289 129.229 497.694 130.285 497.601C131.036 497.535 131.12 496.315 131.2 495.139C131.233 494.662 131.265 494.191 131.341 493.808C131.411 493.459 131.48 493.028 131.553 492.578L131.553 492.578C131.757 491.32 131.985 489.906 132.309 489.668C132.661 489.409 134.157 489.56 134.861 489.668C136.533 490.538 139.877 492.584 139.877 493.808V498.716C139.877 500.017 140.581 503.804 141.63 504.199ZM132.839 502.959C133.513 503.043 137.757 503.276 137.955 502.657C138.153 502.038 138.629 499.902 138.629 499.19C138.629 498.478 137.955 495.768 137.757 495.134C137.61 494.665 136.574 493.602 135.868 492.877L135.868 492.877C135.619 492.622 135.412 492.409 135.298 492.279C134.861 491.777 133.196 490.606 133.236 491.442C133.261 491.977 133.254 492.513 133.245 493.148V493.148V493.148V493.148V493.148V493.148V493.148V493.148V493.148V493.148V493.148V493.148V493.148C133.241 493.506 133.236 493.894 133.236 494.332C133.236 495.546 132.613 497.601 132.309 497.601C132.006 497.601 131.015 498.813 131.015 499.19C131.015 499.492 132.231 501.828 132.839 502.959ZM124.431 500.883C123.329 498.43 123.281 496.635 123.281 495.63C123.664 496.504 124.82 498.251 126.374 498.251C127.929 498.251 128.749 498.877 128.965 499.19C128.965 499.958 129.073 501.627 129.507 502.163C129.826 502.557 130.289 503.411 130.778 504.312L130.778 504.313C131.123 504.947 131.48 505.606 131.808 506.142C132.442 507.181 134.108 509.004 134.861 509.786C134.729 509.241 134.465 508.075 134.465 507.766C134.465 507.457 133.804 505.494 133.473 504.551C134.809 504.433 137.574 504.199 137.955 504.199C138.431 504.199 138.997 504.509 139.264 505.178C139.408 505.539 139.731 505.9 140.135 506.353C140.48 506.739 140.884 507.191 141.287 507.766C141.906 508.652 142.026 509.598 142.086 510.071C142.11 510.264 142.125 510.379 142.159 510.379C142.212 510.379 142.458 510.853 142.771 511.455L142.771 511.455C143.166 512.212 143.665 513.172 144.013 513.639C144.638 514.476 145.768 516.364 145.887 517.115C145.982 517.715 145.67 519.667 145.503 520.567L129.507 520.926C129.494 520.73 129.476 520.155 129.507 519.418C129.538 518.715 131.881 517.083 133.093 516.239L133.093 516.239L133.093 516.239L133.093 516.239C133.468 515.978 133.735 515.792 133.791 515.733C133.981 515.532 136.329 514.755 137.479 514.393C136.752 514.281 135.131 514.016 134.465 513.848C133.69 513.653 132.949 511.646 132.563 510.597C132.534 510.519 132.507 510.446 132.482 510.379C132.214 509.662 130.742 508.297 129.521 507.165C129.113 506.787 128.734 506.435 128.437 506.142L128.302 506.01C127.121 504.847 125.492 503.245 124.431 500.883ZM185.276 456.718C183.931 456.773 181.397 457.858 180.724 458.357C180.475 458.541 180.12 458.735 179.751 458.937C179.122 459.28 178.45 459.647 178.189 460.03C177.775 460.637 177.31 462.355 177.31 463.633C177.31 463.705 177.31 463.782 177.309 463.866V463.867V463.868C177.303 465.283 177.291 468.326 178.707 468.87C179.207 469.062 179.708 469.196 180.181 469.324C181.127 469.578 181.966 469.803 182.483 470.401C183.259 471.299 183.673 472.672 183.466 473.834C183.422 474.079 183.36 474.364 183.293 474.672L183.293 474.672C183.043 475.82 182.725 477.277 183.052 478.111C183.466 479.169 184.707 481.914 185.793 481.914C186.88 481.914 187.914 482.532 188.742 483.266C189.404 483.852 190.604 484.972 191.122 485.458C191.57 479.848 192.332 468.495 191.794 467.971C191.122 467.315 190.19 466.168 189.88 465.458C189.57 464.748 189.466 462.783 189.466 461.406C189.466 460.03 189.311 459.167 188.742 457.756C188.287 456.627 186.242 456.594 185.276 456.718ZM124.431 466.335C125.177 467.594 130.285 466.769 130.285 466.605L133.236 466.114C132.495 466.842 130.499 468.413 128.437 468.87C126.374 469.327 125.642 469.06 125.533 468.87C124.917 470.419 123.544 473.813 122.981 474.996C122.277 476.475 124.431 479.604 124.431 478.732C124.431 477.952 124.937 477.082 125.379 476.321C125.432 476.231 125.483 476.142 125.533 476.055C125.881 475.448 126.762 475.159 127.813 474.814C128.181 474.693 128.57 474.565 128.965 474.415C130.487 473.834 131.341 472.614 131.808 471.933C131.976 471.687 132.42 471.182 132.939 470.591C133.86 469.542 135.019 468.222 135.298 467.602C135.572 466.993 136.965 466.907 138.179 466.832C138.896 466.788 139.551 466.747 139.877 466.605C140.758 466.223 140.945 465.24 140.945 464.434C140.945 463.964 139.928 462.544 139.041 461.305L139.041 461.305L139.04 461.305C138.407 460.42 137.839 459.628 137.757 459.341C137.558 458.653 135.823 457.317 134.861 456.718C134.558 456.53 134.377 456.371 134.23 456.241C133.91 455.96 133.749 455.819 132.839 455.819C131.51 455.819 128.965 456.345 126.978 457.317C125.347 458.115 123.902 459.84 123.05 460.858L123.05 460.858C122.864 461.08 122.706 461.269 122.581 461.406C121.923 462.129 123.476 464.733 124.285 466.09C124.337 466.177 124.386 466.259 124.431 466.335ZM197.724 469.073L197.724 469.073C196.878 468.86 196.018 468.643 195.57 468.517C194.794 468.299 193.501 467.261 193.191 466.769C193.066 466.571 192.706 466.398 192.32 466.212C191.749 465.936 191.122 465.634 191.122 465.185V463.328C191.122 463.204 191.105 463.025 191.086 462.82C191.037 462.3 190.973 461.61 191.122 461.204C191.287 460.75 191.191 459.117 191.122 458.357L191.794 456.991C191.346 456.19 190.459 454.511 190.501 454.206C190.553 453.823 192.001 452.239 193.191 452.075C194.38 451.911 194.794 451.983 196.139 452.403C197.484 452.823 198.157 453.402 198.467 454.206C198.572 454.478 198.606 454.848 198.641 455.231C198.71 455.979 198.783 456.776 199.398 456.991C199.797 457.131 200.281 457.401 200.753 457.665C201.383 458.017 201.992 458.357 202.347 458.357L202.364 458.357C202.976 458.357 203.433 458.357 203.433 460.435C203.433 461.743 203.272 463.075 203.151 464.079V464.079V464.079V464.079L203.151 464.079L203.151 464.08L203.151 464.081C203.078 464.686 203.019 465.171 203.019 465.458C203.019 465.663 203.123 465.82 203.282 466.062C203.717 466.723 204.564 468.013 204.83 472.614C205.113 477.532 204.35 479.906 203.807 481.595C203.657 482.064 203.523 482.48 203.433 482.883C203.019 484.741 201.674 486.105 200.278 486.995C199.16 487.708 197.053 487.886 196.139 487.886L195.932 470.771L199.398 469.5C198.96 469.385 198.346 469.23 197.724 469.073L197.724 469.073L197.724 469.073ZM196.139 512.801H191.402L192.144 487.886L193.191 469.5L194.505 470.401L196.139 512.801ZM159.502 445.105L160.853 443.732H167.404L162.053 446.214L159.752 448.168V452.182C162.053 451.812 166.884 450.904 167.804 450.228C168.954 449.383 170.255 448.01 170.255 447.482C170.255 447.391 170.263 447.053 170.277 446.551C170.34 444.138 170.503 437.945 170.255 437.29C170.015 436.656 168.521 435.3 167.804 434.702C168.271 435.564 168.994 437.448 168.154 438.082C167.596 438.502 166.432 438.253 164.909 437.926C163.563 437.638 161.938 437.29 160.202 437.29C158.369 437.29 156.056 438.042 154.098 438.678C152.105 439.327 150.479 439.855 150.1 439.349C149.5 438.546 149.417 436.409 149.45 435.441C148.567 435.899 146.83 437.068 146.95 438.082C147.07 439.096 147.833 440.581 148.2 441.198L147.9 447.482L148.8 449.594L158.052 452.868L157.602 448.168L154.851 446.214L150.85 444.102L156.552 443.732L158.052 445.528L159.502 445.105Z" fill="black"/>
<defs>
<linearGradient id="paint0_linear" x1="230.394" y1="0.755981" x2="230.394" y2="563.327" gradientUnits="userSpaceOnUse">
<stop stop-color="#E75151"/>
<stop offset="1" stop-color="#A32323"/>
</linearGradient>
</defs>
</svg>
