<svg width="461" height="470" viewBox="0 0 461 470" fill="none" xmlns="http://www.w3.org/2000/svg">
<rect x="0.710205" y="0.0144501" width="459.933" height="469.581" rx="6" fill="url(#paint0_linear)"/>
<path d="M138.71 74.2813V88.7539H128.427V46.0977H145.448C148.71 46.0977 151.591 46.7032 154.091 47.9141C156.61 49.1055 158.554 50.8145 159.921 53.0411C161.308 55.2481 162.001 57.7579 162.001 60.5704C162.001 64.7305 160.507 68.0606 157.519 70.5606C154.55 73.0411 150.468 74.2813 145.272 74.2813H138.71ZM138.71 66.3418H145.448C147.44 66.3418 148.954 65.8438 149.989 64.8477C151.044 63.8516 151.571 62.4454 151.571 60.6289C151.571 58.6368 151.034 57.045 149.96 55.8536C148.886 54.6621 147.421 54.0567 145.565 54.0371H138.71V66.3418ZM177.792 80.8438H195.692V88.7539H167.509V46.0977H177.792V80.8438ZM224.843 80.7852H210.751L208.29 88.7539H197.304L212.948 46.0977H222.616L238.378 88.7539H227.333L224.843 80.7852ZM213.212 72.8457H222.382L217.782 58.0508L213.212 72.8457ZM252.47 88.7539H242.216V46.0977H252.47V88.7539ZM295.243 88.7539H285.019L269.901 62.211V88.7539H259.618V46.0977H269.901L284.989 72.6407V46.0977H295.243V88.7539ZM323.749 77.4161C323.749 75.9121 323.212 74.7403 322.138 73.9004C321.083 73.0606 319.218 72.1914 316.542 71.293C313.866 70.3946 311.679 69.5254 309.979 68.6856C304.452 65.9707 301.688 62.2403 301.688 57.4942C301.688 55.1309 302.372 53.0508 303.739 51.2539C305.126 49.4375 307.079 48.0313 309.599 47.0352C312.118 46.0196 314.95 45.5118 318.095 45.5118C321.161 45.5118 323.905 46.0586 326.327 47.1524C328.769 48.2461 330.663 49.8086 332.011 51.8399C333.358 53.8516 334.032 56.1563 334.032 58.7539H323.778C323.778 57.0157 323.241 55.668 322.167 54.711C321.112 53.7539 319.677 53.2754 317.86 53.2754C316.024 53.2754 314.569 53.6856 313.495 54.5059C312.44 55.3067 311.913 56.3321 311.913 57.5821C311.913 58.6758 312.499 59.6719 313.671 60.5704C314.843 61.4493 316.903 62.3672 319.853 63.3243C322.802 64.2618 325.224 65.2774 327.118 66.3711C331.728 69.0274 334.032 72.6895 334.032 77.3575C334.032 81.0879 332.626 84.0176 329.813 86.1465C327.001 88.2754 323.144 89.3399 318.241 89.3399C314.784 89.3399 311.649 88.7246 308.837 87.4942C306.044 86.2442 303.935 84.545 302.509 82.3965C301.103 80.2286 300.399 77.7383 300.399 74.9258H310.712C310.712 77.211 311.298 78.9004 312.47 79.9942C313.661 81.0684 315.585 81.6055 318.241 81.6055C319.94 81.6055 321.278 81.2442 322.255 80.5215C323.251 79.7793 323.749 78.7442 323.749 77.4161Z" fill="black"/>
<path d="M250.672 154.388C250.522 157.793 249.565 160.37 247.801 162.12C246.037 163.87 243.549 164.745 240.336 164.745C236.959 164.745 234.368 163.637 232.564 161.422C230.773 159.194 229.877 156.022 229.877 151.907V146.882C229.877 142.781 230.807 139.623 232.666 137.408C234.526 135.179 237.109 134.065 240.418 134.065C243.672 134.065 246.14 134.974 247.821 136.793C249.517 138.611 250.481 141.222 250.713 144.626H244.663C244.609 142.521 244.28 141.072 243.679 140.279C243.091 139.472 242.004 139.069 240.418 139.069C238.805 139.069 237.663 139.636 236.993 140.771C236.323 141.892 235.968 143.745 235.927 146.329V151.968C235.927 154.935 236.255 156.972 236.911 158.08C237.581 159.187 238.723 159.741 240.336 159.741C241.922 159.741 243.016 159.358 243.617 158.592C244.219 157.813 244.561 156.412 244.643 154.388H250.672ZM268.546 151.415H259.153V159.331H270.268V164.335H253.124V134.475H270.227V139.5H259.153V146.554H268.546V151.415ZM293.372 164.335H287.342L278.524 144.75V164.335H272.495V134.475H278.524L287.363 154.081V134.475H293.372V164.335ZM315.675 139.5H308.292V164.335H302.243V139.5H294.983V134.475H315.675V139.5ZM329.673 158.223H321.449L319.85 164.335H313.472L322.803 134.475H328.319L337.712 164.335H331.273L329.673 158.223ZM322.762 153.199H328.34L325.551 142.555L322.762 153.199ZM358.313 134.475V155.147C358.286 158.251 357.432 160.629 355.75 162.284C354.068 163.924 351.655 164.745 348.511 164.745C345.311 164.745 342.864 163.911 341.169 162.243C339.487 160.575 338.646 158.162 338.646 155.003V134.475H344.717V155.024C344.717 156.719 344.99 157.929 345.537 158.654C346.084 159.378 347.075 159.741 348.511 159.741C349.946 159.741 350.931 159.385 351.464 158.674C351.997 157.95 352.27 156.767 352.284 155.126V134.475H358.313ZM370.671 153.424H367.676V164.335H361.647V134.475H371.265C374.287 134.475 376.618 135.261 378.258 136.834C379.913 138.392 380.74 140.614 380.74 143.499C380.74 147.463 379.298 150.239 376.413 151.825L381.642 164.047V164.335H375.162L370.671 153.424ZM367.676 148.4H371.101C372.304 148.4 373.207 148.003 373.808 147.21C374.41 146.404 374.711 145.331 374.711 143.991C374.711 140.997 373.542 139.5 371.204 139.5H367.676V148.4Z" fill="black"/>
<path d="M79.3828 186.484H54.3427V182.392L67.1089 165.473C69.0366 162.869 70.3696 160.736 71.1079 159.075C71.8667 157.393 72.2461 155.619 72.2461 153.753C72.2461 151.374 71.6924 149.446 70.5849 147.97C69.4775 146.493 68.0215 145.755 66.2168 145.755C63.9404 145.755 62.1767 146.545 60.9258 148.124C59.6953 149.682 59.0801 151.938 59.0801 154.891H53.6352C53.6352 150.769 54.7632 147.437 57.019 144.894C59.2749 142.351 62.3408 141.079 66.2168 141.079C69.7851 141.079 72.5947 142.176 74.6455 144.371C76.6963 146.545 77.7217 149.446 77.7217 153.076C77.7217 157.506 75.4145 162.746 70.8003 168.796L60.8335 181.839H79.3828V186.484Z" fill="black"/>
<path d="M235.744 186.521H237.912C239.006 186.511 239.87 186.228 240.505 185.671C241.15 185.114 241.472 184.309 241.472 183.254C241.472 182.238 241.203 181.452 240.666 180.896C240.139 180.329 239.328 180.046 238.234 180.046C237.277 180.046 236.491 180.324 235.876 180.881C235.261 181.428 234.953 182.146 234.953 183.034H231.394C231.394 181.941 231.682 180.945 232.258 180.046C232.844 179.148 233.654 178.449 234.69 177.951C235.734 177.444 236.901 177.19 238.191 177.19C240.319 177.19 241.989 177.727 243.2 178.801C244.421 179.865 245.031 181.35 245.031 183.254C245.031 184.211 244.724 185.114 244.109 185.964C243.503 186.804 242.717 187.439 241.75 187.868C242.922 188.269 243.811 188.899 244.416 189.758C245.031 190.617 245.339 191.643 245.339 192.834C245.339 194.748 244.68 196.272 243.361 197.405C242.053 198.537 240.329 199.104 238.191 199.104C236.14 199.104 234.46 198.557 233.151 197.463C231.843 196.369 231.189 194.914 231.189 193.098H234.748C234.748 194.035 235.061 194.797 235.686 195.383C236.32 195.969 237.17 196.262 238.234 196.262C239.338 196.262 240.207 195.969 240.842 195.383C241.477 194.797 241.794 193.947 241.794 192.834C241.794 191.711 241.462 190.847 240.798 190.241C240.134 189.636 239.148 189.333 237.839 189.333H235.744V186.521ZM272.776 187.297C272.776 189.016 272.312 190.422 271.384 191.516C270.456 192.6 269.299 193.142 267.912 193.142C267.19 193.142 266.521 193.005 265.905 192.732C265.3 192.458 264.621 191.989 263.869 191.325C263.117 190.652 262.575 190.237 262.243 190.08C261.921 189.914 261.574 189.831 261.203 189.831C260.549 189.831 260.031 190.085 259.651 190.593C259.279 191.101 259.094 191.765 259.094 192.585H256.267C256.267 190.915 256.711 189.548 257.6 188.484C258.488 187.409 259.655 186.872 261.101 186.872C261.823 186.872 262.507 187.019 263.151 187.312C263.806 187.595 264.484 188.059 265.188 188.703C265.901 189.348 266.418 189.753 266.74 189.919C267.072 190.085 267.429 190.168 267.81 190.168C268.464 190.168 268.996 189.895 269.406 189.348C269.817 188.801 270.022 188.117 270.022 187.297H272.776ZM295.612 191.208H298.264V194.065H295.612V198.811H292.053V194.065H282.839L282.736 191.897L291.936 177.483H295.612V191.208ZM286.472 191.208H292.053V182.302L291.789 182.771L286.472 191.208Z" fill="black"/>
<path d="M132.719 136.593L137.585 137.083L138.477 138.98H135.395C134.503 138.98 132.638 140.938 132.638 141.367C132.638 141.795 131.746 143.998 132.638 144.793C133.352 145.43 132.935 147.873 132.638 149.016C133.314 148.567 134.812 147.608 135.395 147.363C135.979 147.119 137.964 144.487 138.884 143.202C138.857 143.998 138.737 145.699 138.477 146.14C138.152 146.69 136.288 149.016 135.395 149.628C134.503 150.24 131.746 150.851 131.746 150.607C131.746 150.411 127.961 149.179 126.069 148.587C126.204 148.261 126.393 147.498 126.069 147.057C125.744 146.617 124.636 145.895 124.122 145.589V139.531H126.069L126.474 142.529C127.61 141.04 130.341 139.837 130.341 137.083C130.341 134.329 128.473 132.712 127.418 131.142L126.474 134.941L124.122 135.308V133.044L122.014 132.738V134.941L116.175 134.574L115.364 130.78C113.661 131.637 110.287 134.195 110.416 137.573C110.546 140.95 113.769 142.284 115.364 142.529C115.904 141.856 117.229 140.51 118.202 140.51H122.014V145.589H120.635H117.472C117.472 146.588 117.618 148.795 118.202 149.628C118.786 150.46 120.986 151.157 122.014 151.402V156.665L118.202 157.277V160.092C118.202 161.56 120.743 161.723 122.014 161.621V167.68H124.122V161.132L126.069 160.765C127.501 160.54 130.529 159.957 131.178 159.419C131.827 158.88 131.827 157.358 131.746 156.665L127.772 155.013L126.474 156.665H124.122V151.831C124.663 151.892 125.809 152.063 126.069 152.259C126.393 152.504 132.07 155.196 132.638 155.38C133.092 155.527 134.936 155.645 135.801 155.686L142.127 153.483C141.1 154.625 138.931 156.983 138.477 157.277C138.023 157.57 136.233 157.726 135.395 157.766V159.419C135.395 160.54 135.574 162.882 136.288 163.274C137.001 163.665 137.017 164.946 136.936 165.538L135.395 168.169C135.395 169.699 135.704 173.383 136.936 175.879C138.477 179 140.586 178.021 142.127 178.694C143.668 179.368 143.749 181.632 143.506 183.284C143.311 184.606 142.127 185.344 141.559 185.548C142.046 186.466 143.019 188.412 143.019 188.852C143.019 189.293 142.046 193.728 141.559 195.89C140.91 195.951 139.386 196.122 138.477 196.318C137.342 196.563 136.288 198.521 135.395 199.561C134.503 200.602 138.558 203.049 139.045 203.049C139.532 203.049 141.965 202.193 143.019 202.193H149.588C149.967 200.561 150.724 197.224 150.724 196.93C150.724 196.563 149.507 191.973 149.588 191.606C149.669 191.239 151.778 182.917 151.291 181.142C150.902 179.722 150.264 178.266 149.994 177.715L157.617 178.388C159.969 178.246 165.079 177.825 166.701 177.287C168.728 176.614 173.108 176.859 174.811 177.287C176.514 177.715 175.946 182.121 177.812 183.712C179.304 184.985 183.786 186.078 185.841 186.466C185.895 187.69 185.971 190.37 185.841 191.3C185.711 192.23 183.786 194.176 182.84 195.033C181.705 195.584 178.834 196.808 176.433 197.297C174.032 197.787 174.351 200.765 174.811 202.193H182.84C182.786 201.948 182.71 201.348 182.84 200.908C183.002 200.357 184.706 199.133 184.787 198.521C184.851 198.031 186.328 196.277 187.057 195.461C187.49 194.951 188.371 193.76 188.436 193.075C188.501 192.389 189.653 189.403 190.22 187.996C190.464 189.097 190.95 191.435 190.95 191.973V195.461C190.302 195.971 188.777 197.052 187.868 197.297C186.96 197.542 186.571 200.173 186.49 201.458H194.276C194.113 200.54 193.886 198.668 194.276 198.521C194.665 198.374 195.357 197.236 195.654 196.685V185.548C195.654 184.814 193.6 183.488 192.572 182.917C192.437 182.142 192.151 180.408 192.086 179.673C192.005 178.756 192.41 177.409 193.789 177.287C195.168 177.165 195.33 181.57 195.654 182.917C195.979 184.263 197.357 184.202 198.006 184.875C198.655 185.548 198.979 189.342 198.979 189.77C198.979 190.113 204.008 192.116 206.522 193.075C205.981 192.708 204.786 191.839 204.332 191.3C203.765 190.627 204.17 188.73 203.683 186.772C203.197 184.814 203.927 183.835 203.683 182.121C203.44 180.408 202.629 176.92 202.629 175.879C202.629 174.839 201.737 171.902 201.169 170.127C200.715 168.708 198.06 165.905 196.79 164.681C192.789 163.151 184.576 159.957 183.732 159.419C182.678 158.745 177.974 159.419 175.946 159.113C173.919 158.807 166.863 160.092 165.646 160.092C164.43 160.092 159.321 160.459 158.104 160.459C156.887 160.459 152.021 159.602 150.724 159.419C149.686 159.272 148.345 156.869 147.804 155.686C147.615 153.483 147.253 148.979 147.317 148.587C147.399 148.098 147.966 145.038 148.453 144.487C148.939 143.937 149.426 140.571 149.264 139.837C149.102 139.102 145.695 137.389 144.803 137.083C143.911 136.777 145.614 133.717 145.695 133.35C145.776 132.983 144.965 131.208 144.803 130.78C144.673 130.437 142.857 127.986 141.965 126.803C140.505 126.843 137.423 126.9 136.774 126.803C136.125 126.705 134.665 128.924 134.017 130.046L132.719 131.576V136.593Z" fill="black"/>
<path d="M236.46 263.021H247.042V268.024H230.431V238.165H236.46V263.021ZM255.564 268.024H249.535V238.165H255.564V268.024ZM280.39 255.781C280.39 259.787 279.44 262.898 277.54 265.112C275.653 267.327 273.028 268.435 269.665 268.435C266.315 268.435 263.683 267.341 261.769 265.153C259.855 262.952 258.884 259.876 258.857 255.925V250.818C258.857 246.717 259.807 243.518 261.708 241.221C263.608 238.91 266.247 237.755 269.624 237.755C272.946 237.755 275.564 238.89 277.478 241.159C279.392 243.415 280.363 246.587 280.39 250.675V255.781ZM274.34 250.777C274.34 248.084 273.958 246.081 273.192 244.769C272.426 243.456 271.237 242.8 269.624 242.8C268.024 242.8 266.841 243.436 266.076 244.707C265.31 245.965 264.914 247.886 264.886 250.47V255.781C264.886 258.393 265.276 260.32 266.055 261.564C266.835 262.795 268.038 263.41 269.665 263.41C271.237 263.41 272.406 262.809 273.172 261.606C273.937 260.389 274.327 258.509 274.34 255.966V250.777ZM304.334 268.024H298.305L289.487 248.439V268.024H283.457V238.165H289.487L298.326 257.771V238.165H304.334V268.024Z" fill="black"/>
<path d="M79.3828 290.174H54.3427V286.082L67.1089 269.163C69.0366 266.559 70.3696 264.426 71.1079 262.765C71.8667 261.083 72.2461 259.309 72.2461 257.443C72.2461 255.064 71.6924 253.136 70.5849 251.66C69.4775 250.183 68.0215 249.445 66.2168 249.445C63.9404 249.445 62.1767 250.235 60.9258 251.814C59.6953 253.372 59.0801 255.628 59.0801 258.581H53.6352C53.6352 254.459 54.7632 251.127 57.019 248.584C59.2749 246.041 62.3408 244.769 66.2168 244.769C69.7851 244.769 72.5947 245.866 74.6455 248.061C76.6963 250.235 77.7217 253.136 77.7217 256.766C77.7217 261.196 75.4145 266.436 70.8003 272.486L60.8335 285.528H79.3828V290.174Z" fill="black"/>
<path d="M232.58 291.925L233.737 281.173H245.193V284.249H236.696L236.11 289.346C237.097 288.78 238.21 288.497 239.45 288.497C241.482 288.497 243.059 289.146 244.182 290.445C245.315 291.744 245.881 293.492 245.881 295.689C245.881 297.857 245.256 299.586 244.006 300.875C242.756 302.154 241.042 302.794 238.864 302.794C236.911 302.794 235.29 302.242 234.001 301.138C232.722 300.025 232.028 298.56 231.921 296.744H235.363C235.5 297.779 235.871 298.575 236.477 299.132C237.082 299.678 237.873 299.952 238.85 299.952C239.943 299.952 240.793 299.561 241.399 298.78C242.014 297.999 242.321 296.934 242.321 295.587C242.321 294.288 241.984 293.262 241.311 292.51C240.637 291.749 239.709 291.368 238.527 291.368C237.883 291.368 237.336 291.456 236.887 291.632C236.438 291.798 235.949 292.13 235.422 292.628L232.58 291.925ZM272.776 290.987C272.776 292.706 272.312 294.112 271.384 295.206C270.456 296.29 269.299 296.832 267.912 296.832C267.19 296.832 266.521 296.695 265.905 296.422C265.3 296.148 264.621 295.679 263.869 295.015C263.117 294.342 262.575 293.926 262.243 293.77C261.921 293.604 261.574 293.521 261.203 293.521C260.549 293.521 260.031 293.775 259.651 294.283C259.279 294.791 259.094 295.455 259.094 296.275H256.267C256.267 294.605 256.711 293.238 257.6 292.174C258.488 291.099 259.655 290.562 261.101 290.562C261.823 290.562 262.507 290.709 263.151 291.002C263.806 291.285 264.484 291.749 265.188 292.393C265.901 293.038 266.418 293.443 266.74 293.609C267.072 293.775 267.429 293.858 267.81 293.858C268.464 293.858 268.996 293.585 269.406 293.038C269.817 292.491 270.022 291.807 270.022 290.987H272.776ZM287.688 290.211H289.856C290.949 290.201 291.814 289.918 292.448 289.361C293.093 288.804 293.415 287.999 293.415 286.944C293.415 285.928 293.147 285.142 292.609 284.586C292.082 284.019 291.272 283.736 290.178 283.736C289.221 283.736 288.435 284.014 287.819 284.571C287.204 285.118 286.897 285.836 286.897 286.724H283.337C283.337 285.631 283.625 284.635 284.201 283.736C284.787 282.838 285.598 282.139 286.633 281.641C287.678 281.134 288.845 280.88 290.134 280.88C292.263 280.88 293.933 281.417 295.144 282.491C296.364 283.555 296.975 285.04 296.975 286.944C296.975 287.901 296.667 288.804 296.052 289.654C295.446 290.494 294.66 291.129 293.693 291.558C294.865 291.959 295.754 292.589 296.359 293.448C296.975 294.307 297.282 295.333 297.282 296.524C297.282 298.438 296.623 299.962 295.305 301.094C293.996 302.227 292.273 302.794 290.134 302.794C288.083 302.794 286.403 302.247 285.095 301.153C283.786 300.059 283.132 298.604 283.132 296.788H286.692C286.692 297.725 287.004 298.487 287.629 299.073C288.264 299.659 289.113 299.952 290.178 299.952C291.281 299.952 292.151 299.659 292.785 299.073C293.42 298.487 293.737 297.637 293.737 296.524C293.737 295.401 293.405 294.537 292.741 293.931C292.077 293.326 291.091 293.023 289.782 293.023H287.688V290.211Z" fill="black"/>
<path fill-rule="evenodd" clip-rule="evenodd" d="M113.958 246.681C111.435 248.346 110.493 251.611 110.337 253.036C112.652 253.545 117.784 254.344 119.79 253.461C121.795 252.579 123.018 249.823 123.379 248.556C124.157 247.249 126.726 244.908 130.778 246.001C135.842 247.368 134.395 249.862 133.003 250.733C132.746 250.893 132.284 251.188 131.682 251.573L131.682 251.573C129.016 253.276 123.611 256.729 121.213 257.96C118.273 259.47 110.723 266.117 110.197 266.843C109.671 267.568 109.888 269.774 110.723 271.748C111.559 273.722 116.014 277.379 120.068 277.524C123.229 277.638 127.29 275.252 130.035 273.64L130.035 273.64C130.81 273.184 131.481 272.791 131.996 272.532C134.337 271.359 135.951 272.949 137.001 274.312C138.05 275.675 136.516 280.786 135.951 281.391C135.688 281.674 134.811 281.923 133.847 282.197C132.743 282.511 131.526 282.857 130.987 283.322C130.384 283.842 130.185 285.701 130.027 287.169C129.921 288.158 129.834 288.97 129.655 289.077C129.211 289.342 128.202 291.008 128 292.636C127.896 293.477 127.49 294.127 127.082 294.778C126.702 295.385 126.321 295.994 126.184 296.762C125.958 298.034 127.128 299.993 127.741 300.813H136.516C136.866 300.902 137.59 300.775 137.687 299.564C137.779 298.405 136.359 297.778 135.144 297.242L135.144 297.242C134.772 297.078 134.419 296.922 134.135 296.762C133.374 296.334 133.681 294.978 134.065 293.287C134.291 292.288 134.544 291.172 134.619 290.061C134.79 287.537 138.322 286.55 141.24 285.735L141.24 285.735C141.78 285.584 142.299 285.439 142.772 285.291C145.194 284.534 148.759 279.019 150.239 276.356L164.365 274.69C166.584 275.839 171.242 278.257 172.114 278.741C172.985 279.226 177.777 280.508 180.064 281.088C180.347 281.846 181.162 283.352 182.163 283.322C183.414 283.284 191.85 281.164 191.728 278.135C191.607 275.107 184.988 274.917 182.648 274.993C180.307 275.069 176.23 271.889 176.109 270.261C176.012 268.958 180.589 268.506 182.89 268.443C183.347 269.92 184.496 272.888 185.432 272.949C186.603 273.024 199.356 273.706 200.615 273.403C201.873 273.1 206.46 268.103 206.944 265.827C207.428 263.551 203.675 262.75 202.464 262.75C201.682 262.75 200.226 264.115 199.184 265.092C198.614 265.627 198.167 266.045 198.025 266.058C197.702 266.088 193.222 265.916 191.022 265.827C190.96 265.14 190.843 263.563 190.867 262.75C190.898 261.734 192.198 258.657 193.621 258.425C194.33 258.309 195.161 258.848 196.057 259.429C196.962 260.015 197.933 260.645 198.913 260.689C200.862 260.776 201.729 258.599 201.388 258.193C201.116 257.868 200.759 256.412 200.615 255.725C200.119 255.977 198.807 256.55 197.52 256.828C195.911 257.177 196.004 255.377 196.963 253.2C197.731 251.458 199.717 252.049 200.615 252.561L201.945 254.913C202.012 254.506 202.378 253.759 203.313 254.022C204.481 254.351 206.116 252.05 206.116 249.42C206.116 247.316 198.952 241.75 195.37 239.23L193.384 237.806C193.384 237.806 190.698 236.491 189.997 236.491C189.436 236.491 188.44 236.126 188.011 235.943L180.186 235.286L178.434 236.491H174.112C172.897 236.491 172.749 237.368 172.827 237.806L171.075 239.23L167.571 239.888C166.52 241.093 164.277 243.657 163.716 244.27C163.156 244.884 161.458 245.11 160.679 245.147V250.735C157.604 253.803 150.845 260.223 148.415 261.363C145.985 262.503 141.485 262.495 139.538 262.349C138.604 263.372 134.936 266.557 127.741 271.115C120.162 275.916 118.721 274.648 115.449 271.77C114.838 271.233 114.164 270.639 113.374 270.019C110.154 267.49 120.139 261.222 128.304 256.096C132.873 253.228 136.873 250.718 137.669 249.42C139.756 246.02 135.233 245.139 131.48 244.408C131.242 244.362 131.008 244.316 130.778 244.27C127.694 243.657 123.341 245.257 121.55 246.133C120.071 245.622 116.481 245.016 113.958 246.681ZM158.958 301.192H148.674C148.123 301.192 146.972 301.033 146.779 300.397C146.584 299.759 147.404 296.632 147.818 295.051L147.818 295.051L147.818 295.051C147.92 294.663 147.997 294.368 148.029 294.226C148.19 293.506 147.424 291.386 146.012 291.386C144.883 291.386 144.009 289.039 143.714 287.865C144.923 286.767 147.561 284.352 148.432 283.474C149.303 282.595 150.865 279.599 151.537 278.211L157.264 277.416C157.829 278.11 158.958 279.983 158.958 281.921C158.958 284.344 156.78 286.351 155.772 286.919L155.741 286.936C154.714 287.515 152.256 288.899 151.537 290.023C150.905 291.012 151.557 292.46 152.056 293.568C152.13 293.732 152.201 293.889 152.263 294.036C152.747 295.172 155.288 297.217 157.546 297.52C159.353 297.762 159.24 300.069 158.958 301.192ZM193.287 243.573H196.855L194.591 246.149L193.287 243.573Z" fill="black"/>
<path d="M239.475 360.804H236.481V371.714H230.451V341.855H240.069C243.091 341.855 245.422 342.641 247.063 344.213C248.717 345.772 249.544 347.994 249.544 350.878C249.544 354.843 248.102 357.619 245.217 359.205L250.446 371.427V371.714H243.966L239.475 360.804ZM236.481 355.78H239.905C241.109 355.78 242.011 355.383 242.612 354.59C243.214 353.784 243.515 352.711 243.515 351.371C243.515 348.377 242.346 346.879 240.008 346.879H236.481V355.78ZM266.68 365.603H258.456L256.856 371.714H250.478L259.809 341.855H265.326L274.719 371.714H268.279L266.68 365.603ZM259.768 360.579H265.347L262.558 349.935L259.768 360.579ZM297.145 371.714H291.116L282.298 352.129V371.714H276.268V341.855H282.298L291.136 361.461V341.855H297.145V371.714ZM321.028 368.331C319.866 369.588 318.437 370.539 316.742 371.181C315.06 371.81 313.214 372.125 311.204 372.125C307.773 372.125 305.107 371.065 303.206 368.946C301.306 366.813 300.329 363.716 300.274 359.656V354.283C300.274 350.168 301.169 347.003 302.96 344.788C304.765 342.559 307.39 341.445 310.835 341.445C314.076 341.445 316.516 342.245 318.157 343.844C319.811 345.444 320.768 347.953 321.028 351.371H315.163C314.998 349.47 314.602 348.178 313.973 347.495C313.344 346.797 312.36 346.449 311.02 346.449C309.393 346.449 308.21 347.044 307.472 348.233C306.734 349.422 306.351 351.316 306.324 353.914V359.328C306.324 362.048 306.727 364.031 307.534 365.275C308.354 366.505 309.694 367.121 311.553 367.121C312.743 367.121 313.706 366.881 314.445 366.403L314.978 366.034V360.558H310.753V356.005H321.028V368.331ZM339.455 358.794H330.063V366.711H341.178V371.714H324.033V341.855H341.137V346.879H330.063V353.934H339.455V358.794ZM352.448 360.804H349.454V371.714H343.425V341.855H353.043C356.064 341.855 358.395 342.641 360.036 344.213C361.69 345.772 362.518 347.994 362.518 350.878C362.518 354.843 361.075 357.619 358.19 359.205L363.42 371.427V371.714H356.939L352.448 360.804ZM349.454 355.78H352.879C354.082 355.78 354.984 355.383 355.586 354.59C356.187 353.784 356.488 352.711 356.488 351.371C356.488 348.377 355.319 346.879 352.981 346.879H349.454V355.78Z" fill="black"/>
<path d="M243.669 398.588H246.32V401.445H243.669V406.191H240.109V401.445H230.896L230.793 399.277L239.992 384.863H243.669V398.588ZM234.528 398.588H240.109V389.682L239.846 390.151L234.528 398.588ZM256.683 410.391C256.483 410.391 256.383 410.291 256.383 410.091C256.383 409.991 256.403 409.931 256.443 409.911L266.853 398.571L256.263 395.451C256.143 395.411 256.083 395.321 256.083 395.181C256.083 395.041 256.123 394.961 256.203 394.941L279.873 380.481C279.913 380.461 279.963 380.451 280.023 380.451C280.083 380.451 280.143 380.471 280.203 380.511C280.283 380.551 280.323 380.621 280.323 380.721C280.323 380.801 280.293 380.871 280.233 380.931L269.853 392.241L280.473 394.911C280.613 394.951 280.683 395.021 280.683 395.121C280.683 395.261 280.633 395.361 280.533 395.421L256.833 410.331C256.793 410.371 256.743 410.391 256.683 410.391ZM295.74 406.701L298.95 397.161L291.21 391.971H300.69L304.08 381.741L307.53 391.971H316.95L309.21 397.161L312.48 406.701L304.08 400.611L295.74 406.701ZM339.587 398.588H342.238V401.445H339.587V406.191H336.027V401.445H326.814L326.711 399.277L335.91 384.863H339.587V398.588ZM330.446 398.588H336.027V389.682L335.764 390.151L330.446 398.588Z" fill="black"/>
<path d="M166.278 352.735L158.8 354.566C159.011 353.391 159.488 350.909 159.71 350.376C159.987 349.71 162.005 348.966 162.638 348.418C163.271 347.87 166.515 348.771 167.316 348.966C168.117 349.162 172.354 348.418 172.885 348.418C173.416 348.418 176.208 345.324 176.327 345.129C176.445 344.933 176.248 347.861 176.01 348.418C175.773 348.975 175.021 349.221 174.415 349.221C173.808 349.221 172.924 349.436 172.647 349.554C172.37 349.671 170.234 351.375 169.72 351.375C169.308 351.375 167.946 350.892 167.316 350.65L166.278 352.735Z" fill="black"/>
<path d="M167.741 396.155C167.464 395.841 168.651 394.666 168.889 393.413C169.575 393.479 170.218 394.111 170.788 394.554C171.5 395.108 172.054 396.624 172.354 397.016C172.654 397.408 174.744 400.932 175.14 401.241C175.536 401.549 174.744 401.755 173.716 402.107C172.687 402.459 172.766 402.734 172.766 403.054C172.766 403.375 171.816 405.436 171.619 406.114C171.46 406.657 170.999 408.305 170.788 409.061C168.097 409.158 162.717 409.293 162.717 409.061C162.717 408.77 163.31 407.134 163.745 406.114C164.181 405.094 165.644 404.378 166.285 403.869C166.926 403.36 168.018 402.577 168.889 402.107C169.759 401.637 170.63 400.227 170.98 399.767C171.33 399.308 170.98 398.465 170.273 397.841C169.567 397.217 168.018 396.468 167.741 396.155Z" fill="black"/>
<path d="M141.74 357.057H143.156L142.126 358.401L141.74 357.057Z" fill="black"/>
<path fill-rule="evenodd" clip-rule="evenodd" d="M137.888 370.492C137.064 369.585 134.11 366.412 132.736 364.939L127.354 363.692L124.721 361.652L123.118 363.692C122.316 363.73 120.393 364.032 119.11 364.939C117.828 365.845 114.378 366.827 112.813 367.205C112.546 367.054 111.897 366.979 111.439 367.885C110.867 369.019 110.638 370.832 110.638 372.418C110.638 373.688 112.546 375.063 113.5 375.592C114.149 374.723 115.584 373.03 116.134 373.212C116.355 373.285 116.673 373.464 117.043 373.674C117.82 374.113 118.83 374.685 119.683 374.685C120.328 374.685 121.332 374.299 122.313 373.922C123.248 373.563 124.162 373.212 124.721 373.212C124.839 373.212 124.961 373.209 125.085 373.207C126.165 373.186 127.426 373.161 128.042 374.685C128.385 375.535 128.671 376.102 128.929 376.612C129.187 377.122 129.416 377.575 129.645 378.198C129.923 378.957 130.16 379.8 130.405 380.675C130.563 381.239 130.725 381.815 130.904 382.392C131.1 383.023 131.213 383.529 131.331 384.061C131.488 384.773 131.657 385.532 132.049 386.698C132.736 388.738 133.423 389.758 134.339 390.212C135.072 390.574 137.011 390.741 137.888 390.778C137.011 390.892 135.072 391.345 134.339 392.252C134.163 392.47 134.011 392.651 133.874 392.815C133.301 393.5 132.973 393.892 132.049 395.538C131.641 396.265 131.219 396.877 130.844 397.42C130.166 398.4 129.645 399.156 129.645 399.958C129.645 400.392 129.492 400.757 129.346 401.106C129.073 401.761 128.824 402.358 129.645 403.245C130.065 403.698 130.37 404.152 130.65 404.567C131.209 405.398 131.667 406.078 132.736 406.305C133.615 406.491 133.771 406.473 134.242 406.419C134.631 406.374 135.233 406.305 136.629 406.305H142.125C142.949 406.305 139.644 402.074 137.888 399.958H133.538C133.309 399.052 133.606 397.193 136.629 397.012C138.058 396.926 139.192 396.694 140.05 396.519C141.461 396.231 142.125 396.095 142.125 397.012C142.125 397.816 142.432 398.552 142.711 399.222C142.943 399.778 143.155 400.288 143.155 400.752C143.155 401.055 143.074 401.238 143.006 401.393C142.844 401.76 142.75 401.971 143.957 403.245C144.651 403.978 145.102 404.692 145.499 405.32C146.084 406.247 146.552 406.987 147.507 407.325L147.619 407.364C149.169 407.913 150.399 408.347 151.629 408.458C152.107 408.501 152.816 408.74 153.517 408.977C154.665 409.363 155.794 409.744 155.865 409.251C155.98 408.458 155.407 401.205 152.888 401.432C152.459 401.47 152.017 401.515 151.576 401.56C149.428 401.78 147.314 401.996 146.934 401.432C146.476 400.752 145.789 399.052 145.789 398.032V394.745L148.652 397.012C149.224 397.276 150.621 397.646 151.629 397.012C152.131 396.695 152.342 396.072 152.559 395.431C152.887 394.463 153.229 393.453 154.606 393.385C156.016 393.315 157.036 393.331 158.467 393.354C159.36 393.368 160.412 393.385 161.819 393.385H166.285C166.983 393.385 167.298 392.919 167.589 392.488C168.111 391.717 168.556 391.059 170.979 393.385C172.585 394.925 173.549 396.343 174.312 397.465C175.345 398.983 176.008 399.958 177.392 399.958C178.325 399.958 179.173 399.839 179.881 399.739C180.995 399.581 181.761 399.473 181.972 399.958C182.089 400.23 182.463 400.649 182.932 401.174C183.828 402.178 185.07 403.569 185.521 405.058C185.621 405.386 185.722 405.738 185.827 406.1C186.447 408.242 187.175 410.758 188.155 410.951C189.3 411.178 196.628 411.745 196.513 410.951C196.422 410.317 194.338 406.758 193.307 405.058C192.658 405.134 191.223 405.081 190.674 404.265C190.426 403.897 190.446 403.617 190.471 403.272C190.516 402.66 190.576 401.842 189.185 399.958C187.317 397.428 186.884 395.901 186.654 395.089C186.616 394.955 186.584 394.841 186.552 394.745C186.449 394.441 185.754 394.364 184.913 394.27C183.87 394.153 182.605 394.012 181.972 393.385C181.746 393.162 181.56 393.004 181.408 392.876C180.79 392.352 180.735 392.305 180.827 390.212C180.918 388.126 180.865 385.641 180.827 384.658C182.048 384.658 184.697 384.862 185.521 385.678C185.724 385.879 185.918 386.286 186.164 386.804C187.173 388.919 189.065 392.889 196.055 392.252C204.184 391.511 204.719 390.473 205.408 389.138C205.457 389.044 205.506 388.949 205.559 388.852C205.802 388.405 206.097 387.937 206.372 387.502C207.004 386.504 207.526 385.678 207.047 385.678C206.979 385.678 206.883 385.676 206.764 385.673C205.679 385.648 202.606 385.576 199.719 386.698C197.085 387.723 196.074 386.222 194.972 384.585C194.732 384.23 194.489 383.869 194.223 383.525C192.844 381.74 192.251 381.609 190.988 381.329C190.888 381.307 190.783 381.283 190.674 381.258C190.148 381.138 189.564 381.174 188.889 381.215C187.652 381.29 186.106 381.385 184.033 380.578C181.087 379.433 180.365 379.436 178.047 379.444C177.842 379.444 177.624 379.445 177.392 379.445C176.249 379.445 175.435 379.644 174.781 379.803C173.798 380.043 173.179 380.194 172.353 379.445C170.979 378.198 169.033 375.025 170.979 374.118C172.537 373.393 173.918 373.212 174.415 373.212C173.04 372.834 170.705 371.92 172.353 371.285C173.419 370.875 174.363 371.101 175.215 371.305C176.011 371.496 176.728 371.668 177.392 371.285C177.9 370.992 178.142 370.621 178.378 370.258C178.781 369.641 179.167 369.048 180.827 368.905C182.933 368.724 183.842 367.696 184.033 367.205C181.895 366.45 178.262 364.939 180.827 364.939H185.521C188.155 364.939 189.987 364.825 191.246 363.692C192.254 362.785 193.651 361.954 194.223 361.652L186.552 362.219L195.025 359.839L189.185 359.159C190.788 358.554 194.2 357.232 195.025 356.779C195.392 356.577 195.861 356.418 196.355 356.251C197.245 355.95 198.214 355.622 198.803 354.965C198.917 354.838 199.067 354.676 199.238 354.491C200.437 353.191 202.668 350.772 200.864 351.565C200.182 351.865 199.237 352.339 198.241 352.838C196.224 353.849 193.997 354.965 193.307 354.965C192.483 354.965 190.216 355.268 189.185 355.419C189.185 354.814 189.597 353.469 191.246 352.925C192.078 352.651 192.909 352.58 193.719 352.51C194.915 352.407 196.061 352.309 197.086 351.565C197.908 350.968 198.573 350.216 199.156 349.556C199.79 348.837 200.327 348.229 200.864 348.052C201.895 347.712 203.154 346.465 203.498 345.899C203.772 345.445 204.528 343.897 204.872 343.179C204.414 342.272 203.498 340.55 203.498 340.912C203.498 341.366 200.521 344.425 198.803 345.899C197.429 347.077 194.567 348.732 193.307 349.412C193.002 348.883 192.574 347.712 193.307 347.259L193.508 347.135C194.343 346.622 195.101 346.155 196.055 345.106C196.605 344.501 197.285 343.993 197.974 343.479C198.576 343.029 199.185 342.574 199.719 342.046C200.635 341.139 203.536 336.606 204.872 334.452C202.963 336.606 198.734 341.139 197.086 342.046C196.264 342.497 195.261 343.147 194.185 343.844C192.56 344.896 190.769 346.056 189.185 346.805C186.552 348.052 183.002 349.412 180.827 350.205C179.905 350.541 178.388 350.593 176.884 350.644C174.837 350.713 172.816 350.782 172.353 351.565C171.754 352.583 171.282 352.712 169.547 353.188C168.964 353.348 168.238 353.547 167.315 353.832C165.781 354.307 163.804 354.782 161.965 355.223C159.416 355.835 157.133 356.384 156.667 356.779C156.507 356.914 152.264 358.735 152.011 358.91C150.271 359.363 149.721 359.159 149.224 359.159C148.919 358.063 148.492 355.781 149.224 355.419C149.471 355.297 149.635 355.191 149.8 355.084C150.25 354.794 150.713 354.494 152.888 353.832C155.27 353.107 155.865 352.019 155.865 351.565C154.033 351.717 150.026 352.2 148.652 352.925C148.183 353.173 147.894 353.352 147.683 353.483C147.491 353.603 147.364 353.682 147.227 353.733C146.965 353.832 146.665 353.832 145.789 353.832H141.209L139.95 356.779H143.957L143.155 359.159L144.873 359.839V361.652C143.728 361.878 141.141 362.196 139.95 361.652C138.759 361.108 136.324 358.932 135.255 357.912L133.538 355.985C133.5 355.268 133.606 353.832 134.339 353.832C134.772 353.832 137.093 352.544 139.544 351.183C142.283 349.663 145.185 348.052 145.789 348.052C146.156 348.052 146.934 347.924 147.992 347.75C150.236 347.381 153.738 346.805 157.239 346.805H165.254C160.216 346.201 149.614 345.173 147.507 345.899C146.388 346.284 145.02 346.587 143.748 346.87C142.026 347.252 140.477 347.596 139.95 348.052C139.217 348.687 135.904 350.659 134.339 351.565C132.24 351.339 128.042 351.293 128.042 352.925C128.042 354.557 129.11 356.93 129.645 357.912L132.049 356.779C132.507 357.874 133.606 360.224 134.339 360.859C135.072 361.493 135.866 362.03 136.171 362.219V364.939C136.744 365.467 137.888 366.661 137.888 367.205C137.888 367.885 140.293 368.905 142.125 368.905C143.041 368.905 143.957 368.395 144.644 368.013C145.331 367.63 145.789 367.375 145.789 367.885C145.789 368.382 146.061 368.932 146.339 369.497C146.633 370.092 146.934 370.704 146.934 371.285C146.934 372.418 146.705 373.552 145.789 374.118C145.057 374.572 143.728 374.685 143.155 374.685C142.835 374.315 141.89 373.624 140.87 372.877C139.704 372.023 138.438 371.096 137.888 370.492ZM157.239 367.885C157.812 366.865 157.239 364.939 156.667 363.692C156.513 363.356 156.383 363.003 156.252 362.645C155.896 361.675 155.526 360.666 154.606 359.839C154.572 359.808 154.561 359.908 154.551 359.998C154.542 360.075 154.534 360.145 154.514 360.119C154.579 360.332 154.797 360.769 155.078 361.334C155.843 362.873 157.083 365.364 157.031 366.902L154.606 372.418C155.293 371.247 156.781 368.701 157.239 367.885ZM121.666 367.64V366.414L121.15 366.057L124.721 365.393L121.666 367.64Z" fill="black"/>
<defs>
<linearGradient id="paint0_linear" x1="230.677" y1="0.0144501" x2="230.677" y2="469.595" gradientUnits="userSpaceOnUse">
<stop stop-color="#EFBE5E"/>
<stop offset="1" stop-color="#F8AB15"/>
</linearGradient>
</defs>
</svg>
