<svg width="461" height="471" viewBox="0 0 461 471" fill="none" xmlns="http://www.w3.org/2000/svg">
<rect x="0.614746" y="0.508789" width="459.933" height="469.581" rx="6" fill="url(#paint0_linear)"/>
<path d="M145.265 77.9104C145.265 76.4065 144.728 75.2346 143.654 74.3948C142.599 73.5549 140.734 72.6858 138.058 71.7874C135.382 70.8889 133.195 70.0198 131.495 69.1799C125.968 66.4651 123.204 62.7346 123.204 57.9885C123.204 55.6252 123.888 53.5452 125.255 51.7483C126.642 49.9319 128.595 48.5256 131.115 47.5295C133.634 46.5139 136.466 46.0061 139.611 46.0061C142.677 46.0061 145.421 46.553 147.843 47.6467C150.284 48.7405 152.179 50.303 153.527 52.3342C154.874 54.3459 155.548 56.6506 155.548 59.2483H145.294C145.294 57.51 144.757 56.1624 143.683 55.2053C142.628 54.2483 141.193 53.7698 139.376 53.7698C137.54 53.7698 136.085 54.1799 135.011 55.0002C133.956 55.801 133.429 56.8264 133.429 58.0764C133.429 59.1702 134.015 60.1663 135.187 61.0647C136.359 61.9436 138.419 62.8616 141.368 63.8186C144.318 64.7561 146.74 65.7717 148.634 66.8655C153.243 69.5217 155.548 73.1838 155.548 77.8518C155.548 81.5823 154.142 84.512 151.329 86.6409C148.517 88.7698 144.659 89.8342 139.757 89.8342C136.3 89.8342 133.165 89.219 130.353 87.9885C127.56 86.7385 125.45 85.0393 124.025 82.8909C122.618 80.7229 121.915 78.2327 121.915 75.4202H132.228C132.228 77.7053 132.814 79.3948 133.986 80.4885C135.177 81.5627 137.101 82.0999 139.757 82.0999C141.456 82.0999 142.794 81.7385 143.771 81.0159C144.767 80.2737 145.265 79.2385 145.265 77.9104ZM193.868 73.3401L198.761 46.592H208.956L199.904 89.2483H189.24L183.527 64.9319L177.931 89.2483H167.296L158.214 46.592H168.439L173.331 73.3401L179.191 46.592H187.921L193.868 73.3401ZM235.909 81.2795H221.818L219.357 89.2483H208.37L224.015 46.592H233.683L249.445 89.2483H238.4L235.909 81.2795ZM224.279 73.3401H233.448L228.849 58.5452L224.279 73.3401ZM266.085 46.592L275.607 76.2698L285.099 46.592H298.634V89.2483H288.322V79.2874L289.318 58.8967L279.005 89.2483H272.208L261.866 58.8674L262.863 79.2874V89.2483H252.579V46.592H266.085ZM315.48 74.7756V89.2483H305.197V46.592H322.218C325.48 46.592 328.361 47.1975 330.861 48.4084C333.38 49.5999 335.323 51.3088 336.691 53.5354C338.077 55.7424 338.771 58.2522 338.771 61.0647C338.771 65.2249 337.277 68.5549 334.288 71.0549C331.32 73.5354 327.238 74.7756 322.042 74.7756H315.48ZM315.48 66.8362H322.218C324.21 66.8362 325.724 66.3381 326.759 65.342C327.814 64.3459 328.341 62.9397 328.341 61.1233C328.341 59.1311 327.804 57.5393 326.73 56.3479C325.656 55.1565 324.191 54.551 322.335 54.5315H315.48V66.8362Z" fill="black"/>
<path d="M249.674 139.994H242.291V164.829H236.242V139.994H228.982V134.969H249.674V139.994ZM260.924 153.919H257.93V164.829H251.901V134.969H261.519C264.54 134.969 266.871 135.756 268.512 137.328C270.166 138.886 270.993 141.108 270.993 143.993C270.993 147.958 269.551 150.733 266.666 152.319L271.896 164.542V164.829H265.415L260.924 153.919ZM257.93 148.894H261.355C262.558 148.894 263.46 148.498 264.062 147.705C264.663 146.898 264.964 145.825 264.964 144.485C264.964 141.491 263.795 139.994 261.457 139.994H257.93V148.894ZM294.896 152.586C294.896 156.592 293.946 159.702 292.046 161.917C290.159 164.132 287.534 165.239 284.171 165.239C280.821 165.239 278.189 164.145 276.275 161.958C274.361 159.757 273.391 156.68 273.363 152.729V147.623C273.363 143.521 274.313 140.322 276.214 138.025C278.114 135.715 280.753 134.559 284.13 134.559C287.452 134.559 290.07 135.694 291.984 137.964C293.898 140.219 294.869 143.391 294.896 147.479V152.586ZM288.847 147.582C288.847 144.888 288.464 142.885 287.698 141.573C286.933 140.26 285.743 139.604 284.13 139.604C282.53 139.604 281.348 140.24 280.582 141.511C279.816 142.769 279.42 144.69 279.392 147.274V152.586C279.392 155.197 279.782 157.125 280.561 158.369C281.341 159.599 282.544 160.215 284.171 160.215C285.743 160.215 286.912 159.613 287.678 158.41C288.443 157.193 288.833 155.313 288.847 152.77V147.582ZM303.993 159.825H314.575V164.829H297.964V134.969H303.993V159.825ZM322.83 159.825H333.413V164.829H316.801V134.969H322.83V159.825Z" fill="black"/>
<path d="M61.1994 161.815H64.6755C66.9109 161.815 68.6335 161.128 69.8435 159.754C71.0534 158.38 71.6584 156.503 71.6584 154.124C71.6584 148.874 69.6281 146.249 65.5676 146.249C63.6194 146.249 62.0915 146.957 60.9841 148.372C59.8767 149.787 59.323 151.643 59.323 153.94H53.9089C53.9089 150.351 54.9958 147.398 57.1697 145.08C59.364 142.743 62.1633 141.574 65.5676 141.574C69.0949 141.574 71.8943 142.681 73.9655 144.896C76.0368 147.09 77.0725 150.207 77.0725 154.247C77.0725 156.319 76.529 158.257 75.4421 160.061C74.3757 161.846 72.9812 163.158 71.2585 163.999C75.4831 165.557 77.5954 169.054 77.5954 174.489C77.5954 178.488 76.4778 181.677 74.2424 184.056C72.0276 186.414 69.1257 187.593 65.5368 187.593C61.989 187.593 59.1179 186.475 56.9236 184.24C54.7497 181.984 53.6628 178.959 53.6628 175.165H59.1076C59.1076 177.544 59.6819 179.441 60.8303 180.856C61.9787 182.251 63.5476 182.948 65.5368 182.948C67.5671 182.948 69.177 182.261 70.3664 180.887C71.5764 179.513 72.1814 177.421 72.1814 174.612C72.1814 169.177 69.6076 166.46 64.4602 166.46H61.1994V161.815Z" fill="black"/>
<path d="M244.965 183.602C244.965 184.647 244.697 185.58 244.16 186.4C243.622 187.21 242.89 187.85 241.962 188.319C243.076 188.836 243.93 189.544 244.526 190.443C245.131 191.341 245.434 192.357 245.434 193.49C245.434 195.365 244.799 196.854 243.53 197.958C242.26 199.051 240.571 199.598 238.461 199.598C236.342 199.598 234.643 199.046 233.364 197.943C232.094 196.839 231.459 195.355 231.459 193.49C231.459 192.347 231.762 191.322 232.368 190.414C232.973 189.505 233.823 188.807 234.916 188.319C233.998 187.85 233.271 187.21 232.734 186.4C232.206 185.58 231.943 184.647 231.943 183.602C231.943 181.786 232.529 180.345 233.701 179.281C234.872 178.216 236.454 177.684 238.447 177.684C240.449 177.684 242.036 178.216 243.207 179.281C244.379 180.345 244.965 181.786 244.965 183.602ZM241.874 193.314C241.874 192.259 241.557 191.41 240.922 190.765C240.297 190.111 239.467 189.784 238.432 189.784C237.397 189.784 236.567 190.106 235.942 190.75C235.327 191.395 235.019 192.25 235.019 193.314C235.019 194.359 235.322 195.194 235.927 195.819C236.542 196.444 237.387 196.756 238.461 196.756C239.536 196.756 240.37 196.454 240.966 195.848C241.572 195.243 241.874 194.398 241.874 193.314ZM241.42 183.734C241.42 182.806 241.152 182.044 240.615 181.449C240.078 180.843 239.355 180.541 238.447 180.541C237.538 180.541 236.821 180.829 236.293 181.405C235.766 181.971 235.502 182.748 235.502 183.734C235.502 184.71 235.766 185.487 236.293 186.063C236.83 186.639 237.553 186.927 238.461 186.927C239.37 186.927 240.087 186.639 240.615 186.063C241.152 185.487 241.42 184.71 241.42 183.734ZM272.68 187.792C272.68 189.51 272.216 190.917 271.288 192.01C270.361 193.094 269.203 193.636 267.817 193.636C267.094 193.636 266.425 193.5 265.81 193.226C265.204 192.953 264.526 192.484 263.774 191.82C263.022 191.146 262.48 190.731 262.148 190.575C261.826 190.409 261.479 190.326 261.108 190.326C260.453 190.326 259.936 190.58 259.555 191.087C259.184 191.595 258.998 192.259 258.998 193.08H256.171C256.171 191.41 256.616 190.042 257.504 188.978C258.393 187.904 259.56 187.367 261.005 187.367C261.728 187.367 262.411 187.513 263.056 187.806C263.71 188.089 264.389 188.553 265.092 189.198C265.805 189.842 266.323 190.248 266.645 190.414C266.977 190.58 267.333 190.663 267.714 190.663C268.369 190.663 268.901 190.389 269.311 189.842C269.721 189.295 269.926 188.612 269.926 187.792H272.68ZM297.817 199.305H283.476V196.859L290.58 189.11C291.606 187.967 292.333 187.015 292.763 186.253C293.203 185.482 293.422 184.71 293.422 183.939C293.422 182.923 293.134 182.103 292.558 181.478C291.992 180.853 291.225 180.541 290.258 180.541C289.106 180.541 288.212 180.892 287.578 181.595C286.943 182.298 286.625 183.26 286.625 184.481H283.066C283.066 183.182 283.359 182.015 283.945 180.98C284.54 179.935 285.385 179.125 286.479 178.548C287.582 177.972 288.852 177.684 290.287 177.684C292.358 177.684 293.989 178.207 295.18 179.251C296.381 180.287 296.982 181.722 296.982 183.558C296.982 184.623 296.679 185.741 296.074 186.913C295.478 188.075 294.496 189.398 293.129 190.882L287.914 196.463H297.817V199.305Z" fill="black"/>
<path fill-rule="evenodd" clip-rule="evenodd" d="M123.531 132.711C124.193 132.231 133.302 126.352 138.105 126.232H145.557C146.617 126.232 150.084 126.792 151.685 127.072L154.169 122.873C157.923 122.833 166.192 122.777 169.239 122.873C172.287 122.969 173.932 125.152 174.373 126.232V134.151L178.017 136.791L175.201 137.391V138.95L169.239 137.991L163.774 140.51C167.252 140.75 174.406 141.278 175.201 141.47C175.996 141.662 176.085 146.829 176.029 149.389H168.246C167.418 150.109 164.934 152.005 161.621 153.828C159.31 155.101 159.579 155.327 160.268 155.904C160.813 156.361 161.621 157.038 161.621 158.628C161.621 159.628 161.685 160.443 161.739 161.122C161.877 162.885 161.943 163.727 160.628 164.507C158.806 165.587 158.475 168.946 158.475 171.346C158.475 172.852 159.322 173.46 160.199 174.089C160.72 174.463 161.251 174.844 161.621 175.426C162.19 176.318 163.735 177.407 164.953 178.266C165.863 178.907 166.59 179.42 166.59 179.625C166.59 179.76 166.785 180.15 167.071 180.718C167.802 182.175 169.12 184.801 169.239 187.304C169.357 189.784 168.802 190.192 167.874 190.873C167.5 191.148 167.065 191.466 166.59 191.983C165.641 193.014 164.095 194.438 162.978 195.467C162.145 196.235 161.551 196.783 161.621 196.783C161.694 196.783 162.438 197.385 163.348 198.121L163.348 198.121C164.509 199.061 165.94 200.219 166.59 200.622C167.517 201.198 170.509 201.342 171.889 201.342H180.004C182.124 201.342 180.887 205.421 180.004 207.461H168.246L160.628 206.021L158.475 201.342L155.162 199.182L148.372 198.102L149.366 194.263C150.139 193.303 151.685 191.023 151.685 189.584C151.685 188.144 150.691 186.504 150.194 185.864C149.587 184.864 148.372 182.673 148.372 181.905C148.372 181.137 145.612 179.025 144.232 178.065C143.901 179.345 143.437 181.905 144.232 181.905C144.933 181.905 146.044 183.991 147.104 185.98C147.547 186.812 147.981 187.627 148.372 188.264C149.136 189.508 147.645 191.071 146.244 192.54C145.214 193.62 144.232 194.649 144.232 195.463C144.232 197.383 144.232 198.702 145.557 199.902C146.34 200.611 146.66 200.44 147.098 200.207C147.402 200.045 147.762 199.853 148.372 199.902C149.191 199.968 150.36 200.251 151.687 200.573C152.775 200.837 153.969 201.126 155.162 201.342C157.234 201.717 157.787 203.705 158.167 205.071C158.274 205.453 158.366 205.786 158.475 206.021C158.872 206.885 157.647 207.901 156.984 208.301L144.232 207.461C138.325 207.501 126.346 207.557 125.684 207.461C125.537 207.44 125.178 207.4 124.686 207.345L124.686 207.345H124.686C122.398 207.09 117.237 206.515 117.237 206.021V202.782C117.237 202.426 117.86 201.577 118.579 200.596L118.579 200.596C119.558 199.26 120.715 197.682 120.715 196.783C120.715 195.223 120.715 194.743 122.04 193.543C123.365 192.343 124.69 189.464 124.69 187.304V181.905C124.69 180.688 122.27 179.69 120.105 178.797L120.105 178.797C119.496 178.546 118.906 178.302 118.397 178.065C116.078 176.985 114.256 173.866 113.594 172.186C113.064 170.842 113.815 167.387 114.256 165.827C115.25 167.427 117.469 170.77 118.397 171.346C119.556 172.066 122.04 173.146 124.69 173.866C126.81 174.442 130.652 173.626 132.308 173.146L138.932 168.946C140.368 167.907 143.437 165.563 144.232 164.507C145.027 163.451 143.901 161.507 143.238 160.667C142.355 160.108 140.257 158.916 138.932 158.628C137.949 158.414 137.491 157.185 137.039 155.971C136.729 155.14 136.422 154.316 135.951 153.828C135.024 152.869 135.565 150.469 135.951 149.389C135.399 149.669 133.898 150.493 132.308 151.549C130.828 152.532 131.093 153.448 131.325 154.249L131.325 154.249C131.405 154.523 131.48 154.783 131.48 155.028C131.48 155.988 132.805 157.188 134.295 157.908C135.786 158.628 138.105 159.948 138.932 160.667C139.76 161.387 141.914 163.307 141.914 164.507C141.914 165.467 138.712 167.067 137.111 167.747C135.399 168.946 131.48 171.514 129.493 172.186C127.505 172.858 122.813 171.906 120.715 171.346L118.397 165.827C116.575 164.467 112.6 161.531 111.275 160.667C109.619 159.588 110.613 154.788 111.275 152.869C111.742 151.516 114.183 149.269 115.815 147.766L115.815 147.766C116.499 147.137 117.042 146.637 117.237 146.389C117.9 145.55 118.397 142.43 118.397 140.51C118.397 138.59 122.868 133.191 123.531 132.711ZM163.106 132.148H170.389C170.389 132.762 170.336 134.01 170.126 134.087C169.915 134.163 165.358 132.826 163.106 132.148ZM166.999 152.441C166.661 153.33 165.78 155.311 164.968 156.12C164.155 156.93 163.783 159.401 163.698 160.536C164.121 161.395 164.968 163.259 164.968 163.848C164.968 164.284 164.344 165.236 163.782 166.093C163.396 166.683 163.04 167.227 162.936 167.527C162.682 168.263 162.936 171.207 164.968 171.759C166.593 172.201 169.708 173.599 171.062 174.243L175.379 175.071L179.061 175.807L177.03 184.546H181.347L183.886 176.726C185.495 177.462 188.915 178.805 189.727 178.29C190.743 177.646 192.394 175.899 191.886 175.071C191.378 174.243 190.616 172.127 191.886 172.495C193.156 172.863 195.695 172.495 195.441 171.759C195.344 171.478 194.841 171.171 194.318 170.852C193.472 170.334 192.576 169.787 193.282 169.275C193.671 168.994 194.044 168.787 194.368 168.607C194.998 168.259 195.441 168.013 195.441 167.527C195.441 166.939 194.002 165.442 193.282 164.768L190.489 161.916L194.552 150.325H200.901C202.679 150.325 205.599 149.589 205.218 148.577C204.837 147.565 206.107 143.242 206.488 142.506C206.869 141.77 205.853 139.102 205.218 138.55C204.71 138.109 202.128 137.446 200.901 137.17V133.583H197.6L196.457 135.606L189.727 136.066C189.304 136.404 188.305 137.373 187.696 138.55C187.435 139.053 187.101 139.588 186.779 140.104C186.157 141.098 185.58 142.021 185.664 142.506C185.696 142.688 185.727 142.95 185.764 143.261C185.878 144.201 186.044 145.585 186.426 146.553C186.701 147.25 187.866 147.865 188.879 148.4C189.739 148.855 190.489 149.251 190.489 149.589C190.489 150.178 187.78 157.562 186.426 161.18H181.347L178.427 162.928V159.984C176.522 159.616 172.662 158.751 172.459 158.236C172.366 158 172.324 157.552 172.277 157.049C172.195 156.181 172.099 155.148 171.697 154.741C171.189 154.225 168.353 152.993 166.999 152.441Z" fill="black"/>
<path d="M249.736 257.424L252.566 238.659H258.534L253.222 268.519H247.172L243.686 250.923L240.241 268.519H234.17L228.838 238.659H234.847L237.657 257.404L241.163 238.659H246.229L249.736 257.424ZM269.537 252.072L274.028 238.659H280.591L272.593 257.691V268.519H266.482V257.691L258.463 238.659H265.026L269.537 252.072ZM292.169 260.316L297.193 238.659H303.92L295.307 268.519H289.031L280.479 238.659H287.165L292.169 260.316ZM320.891 255.599H311.499V263.515H322.614V268.519H305.469V238.659H322.573V243.684H311.499V250.739H320.891V255.599ZM333.884 257.609H330.89V268.519H324.861V238.659H334.479C337.5 238.659 339.831 239.446 341.472 241.018C343.126 242.576 343.954 244.798 343.954 247.683C343.954 251.648 342.511 254.423 339.626 256.009L344.856 268.232V268.519H338.375L333.884 257.609ZM330.89 252.584H334.315C335.518 252.584 336.42 252.188 337.022 251.395C337.623 250.588 337.924 249.515 337.924 248.175C337.924 245.181 336.755 243.684 334.417 243.684H330.89V252.584ZM367.713 268.519H361.684L352.865 248.934V268.519H346.836V238.659H352.865L361.704 258.265V238.659H367.713V268.519Z" fill="black"/>
<path d="M79.2873 290.668H54.2473V286.577L67.0134 269.658C68.9411 267.053 70.2741 264.92 71.0124 263.259C71.7712 261.578 72.1506 259.804 72.1506 257.937C72.1506 255.558 71.5969 253.631 70.4895 252.154C69.3821 250.678 67.926 249.939 66.1213 249.939C63.8449 249.939 62.0813 250.729 60.8303 252.308C59.5998 253.867 58.9846 256.122 58.9846 259.076H53.5398C53.5398 254.953 54.6677 251.621 56.9236 249.078C59.1794 246.535 62.2453 245.264 66.1213 245.264C69.6897 245.264 72.4992 246.361 74.55 248.555C76.6008 250.729 77.6262 253.631 77.6262 257.261C77.6262 261.69 75.3191 266.93 70.7048 272.98L60.738 286.023H79.2873V290.668Z" fill="black"/>
<path d="M245.727 283.645L237.202 302.995H233.466L241.977 284.523H230.947V281.667H245.727V283.645ZM260.517 303.505L263.727 293.965L255.987 288.775H265.467L268.857 278.545L272.307 288.775H281.727L273.987 293.965L277.257 303.505L268.857 297.415L260.517 303.505ZM296.44 290.705H298.608C299.702 290.695 300.566 290.412 301.201 289.855C301.845 289.299 302.167 288.493 302.167 287.438C302.167 286.423 301.899 285.637 301.362 285.08C300.834 284.514 300.024 284.23 298.93 284.23C297.973 284.23 297.187 284.509 296.572 285.065C295.956 285.612 295.649 286.33 295.649 287.219H292.089C292.089 286.125 292.377 285.129 292.953 284.23C293.539 283.332 294.35 282.634 295.385 282.136C296.43 281.628 297.597 281.374 298.886 281.374C301.015 281.374 302.685 281.911 303.896 282.985C305.117 284.05 305.727 285.534 305.727 287.438C305.727 288.396 305.419 289.299 304.804 290.148C304.199 290.988 303.412 291.623 302.446 292.053C303.618 292.453 304.506 293.083 305.112 293.942C305.727 294.802 306.035 295.827 306.035 297.019C306.035 298.933 305.375 300.456 304.057 301.589C302.748 302.722 301.025 303.288 298.886 303.288C296.835 303.288 295.156 302.741 293.847 301.647C292.538 300.554 291.884 299.099 291.884 297.282H295.444C295.444 298.22 295.756 298.981 296.381 299.567C297.016 300.153 297.866 300.446 298.93 300.446C300.034 300.446 300.903 300.153 301.537 299.567C302.172 298.981 302.49 298.132 302.49 297.019C302.49 295.896 302.158 295.031 301.494 294.426C300.829 293.82 299.843 293.518 298.535 293.518H296.44V290.705Z" fill="black"/>
<path fill-rule="evenodd" clip-rule="evenodd" d="M123.677 245.516C128.993 249.404 129.482 251.246 129.716 252.126C129.734 252.195 129.751 252.258 129.768 252.316C130.803 252.632 133.47 252.559 135.859 249.74C137.652 246.92 141.94 247.748 143.86 248.514C143.19 248.274 141.439 248.184 139.8 249.74C138.161 251.295 138.009 253.01 138.138 253.673C139.878 253.825 143.65 254.129 144.812 254.129C145.392 254.129 145.877 253.666 146.461 253.11C147.341 252.272 148.444 251.221 150.429 251.221C153.07 251.221 155.248 254.047 156.007 255.46C155.613 254.864 154.253 253.673 151.971 253.673C149.118 253.673 148.634 254.796 148.634 256.329C148.634 257.544 150.421 257.444 152.08 257.35C152.512 257.326 152.935 257.302 153.316 257.302C154.791 257.302 156.624 261.42 157.355 263.479C156.96 262.705 155.771 261.156 154.177 261.156C152.186 261.156 151.472 261.156 150.429 262.764C149.385 264.373 150.429 264.556 152.832 264.961C154.754 265.285 155.375 268.754 155.444 270.449C154.753 269.892 152.991 268.778 151.472 268.778C149.575 268.778 148.159 268.975 148.159 271.922C148.159 274.869 154.37 273.849 157.355 271.922C159.744 270.381 160.819 264.102 161.057 261.156V250.616C160.54 250.389 159.075 249.573 157.355 248.122C156.56 247.452 156.484 246.44 156.407 245.425C156.277 243.697 156.146 241.96 152.459 241.889C147.777 241.798 149.155 246.838 150.429 249.369C149.155 248.5 146.607 246.014 146.607 243.022C146.607 239.282 148.159 236.902 155.444 236.902C161.272 236.902 162.491 238.262 162.371 238.942L173.717 237.469C173.717 236.76 174.767 235.341 178.971 235.341C181.599 235.341 184.177 235.951 186.11 236.409C187.269 236.683 188.197 236.902 188.764 236.902C187.291 237.205 183.915 238.194 182.196 239.736C181.264 240.571 184.571 240.81 188.949 241.126C194.673 241.54 202.227 242.086 204.528 244.269C207.777 247.352 207.474 254.696 206.917 257.982C205.762 254.053 202.188 246.196 197.124 246.196C190.794 246.196 189.6 247.102 188.764 248.122C188.214 248.794 189.319 249.465 190.956 250.459C191.806 250.976 192.8 251.579 193.78 252.316C196.073 254.038 196.965 258.927 197.124 261.156C194.576 258.209 188.31 252.316 183.629 252.316C177.777 252.316 178.016 256.396 181.599 257.982C184.465 259.252 186.296 262.516 186.853 263.989C183.888 262.648 177.108 260.77 173.717 263.989C170.325 267.208 170.87 271.374 171.567 273.055C173.08 271.695 178.255 268.975 186.853 268.975C197.602 268.975 202.259 274.982 203.453 280.535C204.409 284.978 202.418 288.506 201.304 289.715C201.503 291.831 201.614 296.47 200.468 298.102C199.321 299.734 196.885 299.235 195.81 298.782C193.143 299.197 186.686 300.029 182.196 300.029C177.705 300.029 175.468 295.722 174.911 293.569C175.747 294.173 177.729 295.722 178.971 297.082C180.213 298.442 184.743 297.649 186.853 297.082C186.734 295.457 186.949 291.937 188.764 290.849C189.725 290.272 191.394 289.757 193.116 289.226C195.459 288.502 197.901 287.748 198.796 286.769C200.348 285.069 201.901 276.002 187.809 276.002C174.498 276.002 170.67 287.124 169.884 289.408C169.838 289.542 169.802 289.646 169.775 289.715C169.593 290.191 169.445 290.519 169.319 290.798C169.115 291.251 168.968 291.578 168.82 292.209C168.629 293.025 168.183 295.117 167.984 296.062C162.53 295.835 151.503 295.382 151.026 295.382C150.429 295.382 150.429 297.875 150.429 299.349C150.429 300.469 153.677 301.262 154.968 301.577C155.375 301.677 155.587 301.729 155.444 301.729C155.322 301.729 155.045 301.767 154.66 301.819C153.167 302.024 150.059 302.45 148.159 301.729C146.119 300.954 146.432 298.526 146.566 297.481C146.589 297.302 146.607 297.165 146.607 297.082C146.607 296.515 143.86 297.535 143.86 300.029C143.86 302.023 145.691 303.731 146.607 304.335C145.691 304.146 143.502 303.701 142.069 303.429C140.466 303.124 140.488 301.278 140.511 299.431C140.514 299.214 140.516 298.997 140.516 298.782C140.516 296.742 143.86 293.569 145.413 293.002C146.333 292.666 144.569 292.927 142.755 293.196C141.508 293.381 140.238 293.569 139.8 293.569C139.388 293.569 139.292 293.353 139.195 293.137C139.04 292.789 138.885 292.442 137.411 293.002C135.023 293.909 134.067 294.022 132.873 293.569C131.679 293.115 129.768 293.682 131.082 296.062C132.133 297.966 134.147 298.669 135.023 298.782C134.306 299.424 132.682 300.731 131.918 300.822C130.962 300.935 127.021 298.215 127.021 295.382C127.021 293.61 128.095 292.68 129.222 291.706C129.896 291.122 130.59 290.522 131.082 289.715C131.904 288.367 130.479 288.707 128.625 289.15C127.517 289.414 126.257 289.715 125.23 289.715C123.032 289.715 123.836 291.906 124.513 293.002C123.996 292.549 122.961 291.257 122.961 289.715C122.961 289.23 122.779 288.752 122.606 288.298C122.093 286.947 121.658 285.804 126.305 285.295C131.316 284.747 132.128 286.781 132.568 287.884C132.674 288.148 132.758 288.359 132.873 288.469C133.47 289.035 135.859 285.295 132.873 284.389C130.485 283.663 129.091 283.482 128.693 283.482C128.693 282.991 129.529 281.986 132.873 281.895C136.217 281.805 137.292 287.071 137.411 289.715H145.413C145.691 289.375 146.32 288.31 146.607 286.769C146.765 285.918 144.69 284.45 142.168 282.665C138.976 280.406 135.068 277.641 134.067 274.982C133.17 272.598 135.269 271.465 137.768 270.116C140.258 268.772 143.145 267.213 143.86 263.989C145.163 258.118 144.098 257.957 140.844 257.466C140.518 257.417 140.17 257.364 139.8 257.302C136.551 256.758 133.828 257.529 132.873 257.982C133.271 257.982 134.426 258.617 135.859 261.156C137.154 263.45 135.889 264.204 134.909 264.788C134.533 265.012 134.2 265.211 134.067 265.462C133.746 266.071 133.156 266.271 131.646 266.783C130.907 267.033 129.948 267.358 128.693 267.842C126.521 268.68 125.197 268.931 124.328 269.096C123.668 269.222 123.27 269.298 122.961 269.542C122.388 269.995 122.722 272.073 122.961 273.055L120.094 268.975C120.93 268.56 123.223 267.616 125.707 267.162C128.192 266.709 128.733 264.858 128.693 263.989C128.454 264.178 127.523 264.556 125.707 264.556C123.892 264.556 123.598 265.16 123.677 265.462C122.483 265.991 119.569 266.913 117.467 266.369C115.916 265.967 116.196 266.593 116.686 267.686C117.026 268.444 117.467 269.428 117.467 270.449C117.467 272.443 119.219 273.018 120.094 273.055C120.094 273.584 119.091 274.211 115.079 272.489C110.063 270.335 110.302 266.482 110.54 263.989C110.731 261.994 116.989 259.153 120.094 257.982C119.696 256.698 118.972 253.766 119.258 252.316C119.551 250.836 122.307 252.676 123.766 253.65C124.096 253.87 124.359 254.045 124.513 254.129C125.349 254.582 126.424 253.336 127.021 252.316C127.499 251.5 119.258 244.647 115.079 241.322C116.034 241.322 119.091 242.161 123.677 245.516ZM129.768 256.993C129.204 256.993 123.91 257.433 123.677 257.708C123.491 257.927 123.122 259.876 122.961 260.823H127.697L126.305 259.598L129.768 256.993ZM161.416 292.79H152.709L152.255 288.992C153.521 289.344 156.382 290.065 157.702 290.127C159.023 290.19 160.728 291.929 161.416 292.79Z" fill="black"/>
<path d="M251.274 372.209H245.265V359.432H236.365V372.209H230.335V342.349H236.365V354.428H245.265V342.349H251.274V372.209ZM263.303 355.761L267.794 342.349H274.357L266.359 361.381V372.209H260.247V361.381L252.229 342.349H258.791L263.303 355.761ZM275.845 372.209V342.349H283.74C287.226 342.349 290.002 343.457 292.066 345.672C294.144 347.886 295.204 350.922 295.245 354.777V359.617C295.245 363.541 294.206 366.624 292.128 368.866C290.063 371.094 287.213 372.209 283.576 372.209H275.845ZM281.874 347.374V367.205H283.679C285.688 367.205 287.103 366.678 287.924 365.626C288.744 364.559 289.175 362.727 289.216 360.13V354.941C289.216 352.152 288.826 350.211 288.047 349.117C287.267 348.01 285.941 347.428 284.068 347.374H281.874ZM307.377 361.299H304.382V372.209H298.353V342.349H307.971C310.993 342.349 313.324 343.135 314.965 344.708C316.619 346.266 317.446 348.488 317.446 351.373C317.446 355.338 316.004 358.113 313.119 359.699L318.348 371.922V372.209H311.868L307.377 361.299ZM304.382 356.274H307.807C309.01 356.274 309.913 355.878 310.514 355.085C311.116 354.278 311.417 353.205 311.417 351.865C311.417 348.871 310.248 347.374 307.91 347.374H304.382V356.274ZM334.581 366.097H326.358L324.758 372.209H318.38L327.711 342.349H333.228L342.621 372.209H336.181L334.581 366.097ZM327.67 361.073H333.248L330.459 350.429L327.67 361.073Z" fill="black"/>
<path d="M241.171 406.685H237.626V389.561L232.397 391.348V388.345L240.717 385.284H241.171V406.685ZM262.485 397.706C262.485 400.772 261.909 403.086 260.756 404.649C259.614 406.202 257.87 406.978 255.527 406.978C253.222 406.978 251.484 406.221 250.312 404.708C249.15 403.184 248.554 400.933 248.525 397.955V394.263C248.525 391.197 249.096 388.897 250.239 387.364C251.391 385.831 253.144 385.064 255.497 385.064C257.831 385.064 259.57 385.811 260.712 387.305C261.865 388.799 262.455 391.036 262.485 394.014V397.706ZM258.925 393.721C258.925 391.719 258.652 390.254 258.105 389.327C257.558 388.389 256.689 387.92 255.497 387.92C254.335 387.92 253.481 388.365 252.934 389.253C252.387 390.132 252.099 391.509 252.07 393.384V398.218C252.07 400.21 252.348 401.695 252.905 402.671C253.461 403.648 254.335 404.136 255.527 404.136C256.669 404.136 257.514 403.687 258.061 402.789C258.608 401.88 258.896 400.464 258.925 398.541V393.721ZM273.638 410.885C273.438 410.885 273.338 410.785 273.338 410.585C273.338 410.485 273.358 410.425 273.398 410.405L283.808 399.065L273.218 395.945C273.098 395.905 273.038 395.815 273.038 395.675C273.038 395.535 273.078 395.455 273.158 395.435L296.828 380.975C296.868 380.955 296.918 380.945 296.978 380.945C297.038 380.945 297.098 380.965 297.158 381.005C297.238 381.045 297.278 381.115 297.278 381.215C297.278 381.295 297.248 381.365 297.188 381.425L286.808 392.735L297.428 395.405C297.568 395.445 297.638 395.515 297.638 395.615C297.638 395.755 297.588 395.855 297.488 395.915L273.788 410.825C273.748 410.865 273.698 410.885 273.638 410.885ZM312.348 394.395H314.516C315.61 394.385 316.474 394.102 317.109 393.545C317.753 392.989 318.076 392.183 318.076 391.128C318.076 390.113 317.807 389.327 317.27 388.77C316.743 388.204 315.932 387.92 314.838 387.92C313.881 387.92 313.095 388.199 312.48 388.755C311.865 389.302 311.557 390.02 311.557 390.909H307.997C307.997 389.815 308.286 388.819 308.862 387.92C309.448 387.022 310.258 386.324 311.293 385.826C312.338 385.318 313.505 385.064 314.794 385.064C316.923 385.064 318.593 385.601 319.804 386.675C321.025 387.74 321.635 389.224 321.635 391.128C321.635 392.085 321.328 392.989 320.712 393.838C320.107 394.678 319.321 395.313 318.354 395.743C319.526 396.143 320.414 396.773 321.02 397.632C321.635 398.492 321.943 399.517 321.943 400.708C321.943 402.623 321.284 404.146 319.965 405.279C318.657 406.412 316.933 406.978 314.794 406.978C312.744 406.978 311.064 406.431 309.755 405.337C308.447 404.244 307.792 402.789 307.792 400.972H311.352C311.352 401.91 311.664 402.671 312.289 403.257C312.924 403.843 313.774 404.136 314.838 404.136C315.942 404.136 316.811 403.843 317.446 403.257C318.08 402.671 318.398 401.822 318.398 400.708C318.398 399.585 318.066 398.721 317.402 398.116C316.738 397.51 315.751 397.208 314.443 397.208H312.348V394.395Z" fill="black"/>
<path fill-rule="evenodd" clip-rule="evenodd" d="M137.641 377.802C137.526 377.603 137.432 377.443 137.098 377.257C136.822 377.104 136.492 376.929 136.142 376.743L136.142 376.743C135.019 376.148 133.691 375.444 133.298 375.002C133.004 374.672 132.46 374.321 131.939 373.985C131.545 373.731 131.164 373.485 130.915 373.264C130.451 372.851 129.476 371.417 129.047 370.752C128.704 370.73 127.875 370.945 127.308 371.975C126.741 373.006 125.913 374.079 125.569 374.487C125.247 374.681 124.461 375.286 123.895 376.162C123.186 377.257 120.417 378.03 120.095 378.094C119.773 378.158 118.034 378.03 117.647 377.643C117.538 377.534 117.409 377.461 117.276 377.386C116.938 377.195 116.581 376.994 116.488 376.162C116.385 375.234 116.445 374.101 116.488 373.65C115.951 373.5 114.814 373.38 114.556 374.101C114.421 374.48 114.274 375.03 114.13 375.569C113.932 376.311 113.739 377.033 113.59 377.257C113.517 377.366 113.291 377.424 112.993 377.5C112.235 377.693 111.015 378.003 110.692 379.575C110.241 381.765 109.726 384.341 110.048 384.857C110.305 385.269 112.001 385.415 112.817 385.436L115.522 387.24C115.501 386.317 115.561 384.38 115.973 384.019C116.488 383.569 118.034 382.216 119.065 382.216C119.41 382.216 119.771 382.347 120.129 382.476C120.837 382.733 121.535 382.986 122.092 382.216C122.929 381.057 123.895 380.091 124.281 380.477C124.591 380.786 129.09 382.538 131.302 383.375H125.569C125.419 384.32 125.067 386.312 124.861 386.725C124.655 387.137 123.272 388.442 122.607 389.043C121.984 389.022 120.675 388.914 120.417 388.657C120.159 388.399 119.408 387.605 119.065 387.24C118.592 387.669 117.725 388.631 118.034 389.043C118.231 389.306 118.679 389.635 119.113 389.955L119.113 389.955C119.531 390.263 119.937 390.561 120.095 390.782C120.417 391.233 121.061 391.233 122.092 391.233C122.448 391.233 123.129 391.326 123.901 391.431L123.901 391.431L123.901 391.431C125.361 391.629 127.147 391.872 127.695 391.619C128.109 391.428 128.885 390.481 129.681 389.51C130.495 388.518 131.329 387.5 131.817 387.24C132.783 386.725 133.878 385.694 134.458 384.857C135.037 384.019 135.681 383.375 136.197 383.375C136.712 383.375 141.285 383.955 142.444 384.406C143.603 384.857 146.759 384.535 147.21 383.375C147.571 382.448 147.962 381.787 148.112 381.572C149.378 381.787 151.989 382.216 152.298 382.216C152.685 382.216 154.037 384.148 153.715 385.436C153.458 386.467 152.449 388.27 151.976 389.043C150.989 389.172 148.833 389.352 148.112 389.043C148.041 389.013 147.96 388.977 147.87 388.938C146.821 388.482 144.592 387.513 143.346 387.691C141.993 387.884 138.773 390.009 138.902 391.619C139.005 392.908 139.202 394.432 139.288 395.033C139.803 394.153 140.834 392.47 140.834 392.779C140.834 393.088 141.907 395.097 142.444 396.063C142.938 395.334 143.925 393.99 143.925 394.453C143.925 394.545 143.916 394.699 143.904 394.889V394.89V394.89C143.84 395.906 143.712 397.962 144.634 397.094C145.51 396.27 146.716 394.26 147.21 393.358C150.323 393.874 156.678 394.75 157.193 394.131C157.837 393.358 158.61 391.491 158.61 390.782C158.61 390.423 159.057 390.13 159.556 389.803C160.042 389.484 160.578 389.133 160.8 388.657C161.089 388.037 161.405 387.788 161.832 387.452C162.071 387.264 162.344 387.048 162.668 386.725C163.569 385.823 163.891 385.436 163.763 384.406C163.66 383.581 166.038 382.603 167.241 382.216C167.09 380.799 166.803 377.746 166.854 376.87C166.918 375.775 167.176 374.809 167.756 373.65C167.925 373.312 168.017 372.979 168.103 372.67L168.103 372.67C168.312 371.918 168.483 371.302 169.624 371.074C171.234 370.752 172.586 370.43 173.359 370.236C173.873 370.108 174.757 370.15 175.651 370.193C176.102 370.215 176.556 370.236 176.966 370.236C177.945 370.236 179.607 370.58 180.315 370.752L181.152 373.264C179.392 372.834 175.768 371.975 175.356 371.975C174.944 371.975 172.565 372.405 171.427 372.619C171.041 373.027 170.203 374.075 169.946 375.002C169.796 375.543 169.659 375.719 169.537 375.878C169.397 376.059 169.276 376.217 169.173 376.87C169.127 377.158 169.061 377.431 168.995 377.7C168.782 378.573 168.581 379.393 169.173 380.477C169.665 381.379 169.922 382.047 170.127 382.578C170.244 382.882 170.344 383.141 170.461 383.375C170.57 383.594 170.59 383.873 170.612 384.175C170.655 384.763 170.704 385.441 171.427 385.952C172.303 386.57 173.08 387.068 173.359 387.24L174.905 388.657C173.531 388.399 170.551 387.91 169.624 388.013C169.445 388.032 169.25 388.052 169.045 388.073H169.045L169.045 388.073C167.921 388.187 166.517 388.33 166.081 388.657C165.897 388.795 165.605 388.909 165.285 389.033C164.713 389.256 164.052 389.513 163.763 390.009C163.606 390.277 163.427 390.491 163.259 390.691C162.942 391.068 162.668 391.395 162.668 391.941C162.668 392.398 162.457 392.932 162.265 393.417C162.105 393.821 161.959 394.19 161.959 394.453C161.959 394.917 163.161 396.106 163.763 396.643C164.299 395.698 165.386 393.874 165.437 394.131C165.489 394.389 165.888 395.527 166.081 396.063L168.271 393.745C168.314 394.604 168.554 396.27 169.173 396.063C169.791 395.857 170.933 394.904 171.427 394.453C171.47 394.26 171.813 393.99 172.844 394.453C173.436 394.72 174.082 394.809 174.67 394.891C175.362 394.987 175.974 395.071 176.322 395.419C176.572 395.67 176.657 395.764 176.728 395.843C176.839 395.967 176.916 396.052 177.546 396.643C177.87 396.947 177.996 397.213 178.102 397.434C178.332 397.917 178.461 398.189 180.315 398.189C181.306 398.189 182.159 398.241 182.927 398.287C184.256 398.368 185.332 398.434 186.434 398.189C188.173 397.802 188.817 395.613 188.817 395.033C188.817 394.594 188.151 393.747 187.716 393.195L187.716 393.195C187.577 393.019 187.462 392.872 187.4 392.779C187.358 392.717 187.306 392.643 187.246 392.56L187.246 392.56C186.933 392.125 186.434 391.431 186.434 390.782C186.434 390.406 186.22 390.046 186.016 389.7C185.8 389.335 185.595 388.988 185.661 388.657C185.704 388.442 185.761 388.242 185.818 388.041C185.933 387.64 186.047 387.24 186.047 386.725C186.047 386.106 186.305 384.663 186.434 384.019C186.498 384.492 186.704 385.694 187.013 386.725C187.172 387.252 187.222 387.952 187.27 388.626C187.34 389.598 187.406 390.516 187.786 390.782C188.031 390.953 188.304 391.088 188.565 391.216C188.992 391.426 189.39 391.622 189.59 391.941C189.65 392.038 189.714 392.129 189.78 392.223C190.069 392.632 190.386 393.083 190.491 394.131C190.509 394.306 190.583 394.578 190.676 394.921L190.676 394.921C191.272 397.113 192.655 402.193 185.081 403.084C180.364 403.639 177.198 401.896 174.334 400.321C171.88 398.971 169.648 397.743 166.854 398.189C162.668 398.857 160.945 400.264 159.386 401.537C158.691 402.105 158.028 402.646 157.193 403.084C155.653 403.89 154.677 403.319 153.539 402.654C152.678 402.151 151.725 401.593 150.366 401.538C147.841 401.435 146.695 404.629 146.437 406.24C146.91 404.909 148.266 402.414 149.915 403.084C150.589 403.358 151.009 403.859 151.428 404.36C152.289 405.391 153.15 406.42 156.227 405.467C158.084 404.891 159.548 404.008 160.865 403.213C162.791 402.051 164.402 401.079 166.468 401.538C167.542 401.777 168.781 402.746 170.291 403.927L170.291 403.927L170.291 403.927C173.671 406.57 178.404 410.271 185.661 409.202C196.159 407.657 196.288 407.528 199.057 402.504C200.846 399.26 201.103 396.151 201.252 394.354C201.334 393.369 201.383 392.779 201.634 392.779C202.342 392.779 205.691 392.457 206.013 391.233C206.335 390.009 207.173 386.467 206.4 384.019C206.271 383.612 206.164 383.27 206.071 382.975C205.607 381.499 205.509 381.186 204.918 379.575C204.765 379.157 204.629 378.828 204.514 378.549L204.514 378.548L204.514 378.548C204.097 377.54 203.944 377.168 204.145 375.453C204.21 374.904 204.287 374.44 204.354 374.032L204.354 374.031L204.355 374.031C204.556 372.811 204.676 372.087 204.145 371.074C203.907 370.619 203.851 370.244 203.801 369.908C203.701 369.244 203.624 368.731 202.213 368.047C201.954 367.921 201.707 367.803 201.472 367.69C199.781 366.882 198.705 366.367 198.027 365.406C197.558 364.742 197.019 363.109 196.581 361.781L196.581 361.781L196.581 361.781C196.296 360.918 196.054 360.185 195.901 359.931C195.515 359.287 195.257 358.965 193.905 358.772C193.6 358.729 193.345 358.698 193.113 358.67C192.313 358.575 191.789 358.513 190.491 358.064C190.169 357.952 189.885 357.864 189.633 357.787C188.578 357.461 188.098 357.313 187.786 356.325C187.593 355.713 187.593 355.326 187.593 354.875C187.593 354.425 187.593 353.909 187.4 353.04C187.283 352.513 187.307 352.017 187.329 351.581C187.379 350.579 187.412 349.903 185.661 349.948C184.713 349.973 183.958 350.116 183.34 350.233C182.32 350.427 181.674 350.55 181.152 349.948C180.482 349.175 180.315 348.467 180.315 348.209C181.045 346.599 182.234 343.598 181.152 344.474C180.517 344.988 179.911 345.558 179.279 346.153L179.279 346.153L179.279 346.153C178.565 346.825 177.82 347.526 176.966 348.209C175.356 349.497 173.874 350.464 173.359 350.464C172.947 350.464 174.518 346.9 175.356 345.118C174.196 345.397 171.788 346.264 171.427 347.501C170.976 349.047 170.268 350.592 169.946 351.108C169.688 351.52 169.022 352.138 168.722 352.396C168.099 352.224 166.854 351.803 166.854 351.494C166.854 351.185 167.112 348.703 167.241 347.501C166.425 348.338 164.639 350.489 164.02 352.396C163.402 354.302 162.389 356.41 161.959 357.226L160.349 356.325C160.328 354.993 160.207 352.473 159.898 353.04C159.512 353.748 158.61 356.389 158.352 357.226C158.095 358.064 154.617 358.064 154.166 358.064C154.018 358.064 153.863 357.987 153.706 357.91C153.384 357.751 153.052 357.588 152.749 358.064L152.622 358.263C152.135 359.024 151.293 360.342 150.881 361.284C150.817 361.43 150.745 361.607 150.662 361.806L150.662 361.807C150.164 363.015 149.328 365.046 148.112 365.986C147.443 366.502 147.233 366.833 147.056 367.112C146.858 367.424 146.7 367.673 145.986 368.047L145.866 368.11L145.739 368.176C144.583 368.785 144.19 368.992 143.346 368.691C142.444 368.369 140.834 367.789 140.834 367.467C140.834 367.374 140.716 367.222 140.571 367.035C140.214 366.576 139.696 365.91 140.383 365.406C140.523 365.303 140.648 365.206 140.765 365.115C141.455 364.579 141.858 364.265 143.346 364.375C143.941 364.419 144.423 364.599 144.854 364.76C145.682 365.069 146.32 365.307 147.21 364.375C148.563 362.958 148.885 362.121 149.271 360.704C149.395 360.252 149.426 359.78 149.458 359.302C149.526 358.285 149.595 357.245 150.559 356.325C150.757 356.136 150.934 355.97 151.093 355.822C152.069 354.91 152.361 354.636 152.749 353.362C153.2 351.881 151.847 344.731 150.559 343.572C149.271 342.413 146.502 340.867 145.214 340.287C144.183 339.824 143.153 338.119 142.766 337.325C142.272 337.861 141.195 339.038 140.834 339.45C140.669 339.639 140.202 339.638 139.625 339.636C138.627 339.633 137.301 339.63 136.647 340.609C136.085 341.454 135.791 342.26 135.587 342.817C135.419 343.28 135.312 343.572 135.166 343.572C134.844 343.572 131.689 342.477 131.302 342.22C131.247 342.183 131.182 342.142 131.108 342.096C130.654 341.811 129.886 341.329 129.498 340.609C129.244 340.137 129.42 339.338 129.541 338.788L129.541 338.788L129.541 338.788C129.634 338.362 129.695 338.086 129.498 338.226C129.283 338.38 128.833 338.945 128.351 339.549C127.824 340.211 127.259 340.92 126.922 341.189C126.407 341.601 124.475 342.048 123.573 342.22C122.993 342.37 121.795 342.851 121.641 343.572C121.536 344.063 121.182 344.535 120.882 344.936C120.631 345.271 120.417 345.557 120.417 345.762V346.857C120.417 347.501 127.18 348.918 129.498 348.209C131.817 347.501 134.136 347.501 135.166 347.501C135.991 347.501 130.529 349.133 127.695 349.948C126.643 349.905 124.745 349.948 125.569 350.464C126.173 350.841 126.622 351.218 126.994 351.531C127.257 351.752 127.482 351.94 127.695 352.074C127.989 352.257 128.701 352.043 129.426 351.825C129.973 351.661 130.527 351.494 130.915 351.494C131.637 351.494 134.05 350.464 135.166 349.948C134.93 350.27 134.805 351.03 136.197 351.494C137.348 351.878 138.302 351.753 139.282 351.626C139.783 351.56 140.29 351.494 140.834 351.494C142.122 351.494 144.591 350.464 145.664 349.948C145.815 350.442 146.025 351.623 145.664 352.396C145.304 353.169 143.968 354.822 143.346 355.552C143.26 356.174 143.024 357.484 142.766 357.742C142.444 358.064 141.478 358.772 140.383 358.772C139.288 358.772 138.322 358.386 137.871 358.064C137.701 357.942 137.276 357.794 136.811 357.631L136.811 357.631C136.042 357.363 135.166 357.057 135.166 356.775C135.166 356.415 133.921 354.135 133.298 353.04C132.976 352.739 132.229 352.318 131.817 353.04C131.405 353.761 130.099 354.586 129.498 354.908C129.284 354.35 128.738 353.349 128.275 353.813C128.044 354.044 128.058 354.489 128.073 354.97C128.096 355.696 128.122 356.504 127.308 356.775C125.956 357.226 123.122 357.742 122.607 357.742C122.092 357.742 120.674 357.226 120.095 356.775C119.899 356.623 119.675 356.552 119.463 356.485C119.046 356.352 118.678 356.235 118.678 355.552C118.678 354.727 118.936 352.89 119.065 352.074C118.699 352.396 117.673 353.194 116.488 353.813C115.007 354.586 114.556 356.389 114.556 357.226C114.556 357.545 114.23 357.696 113.829 357.881C113.176 358.182 112.326 358.575 112.366 359.931C112.39 360.735 112.162 361.427 111.972 362.002C111.645 362.993 111.431 363.639 112.817 363.925C113.458 364.057 114.044 364.244 114.606 364.423C115.962 364.856 117.175 365.244 118.678 364.697C119.851 364.271 120.827 363.766 121.684 363.324L121.684 363.324C122.379 362.964 122.996 362.645 123.573 362.443C124.068 362.27 124.43 362.078 124.724 361.921C125.196 361.671 125.495 361.512 125.892 361.67C126.073 361.743 126.28 361.872 126.501 362.009C127.064 362.36 127.72 362.767 128.275 362.443C128.893 362.083 130.55 361.52 131.302 361.284C131.409 362.164 131.481 363.925 130.915 363.925H127.695C126.907 363.925 126.697 363.507 126.522 363.16C126.297 362.712 126.131 362.382 124.861 363.216C123.833 363.892 123.207 364.406 122.769 364.766C122.246 365.196 121.991 365.406 121.641 365.406C121.163 365.406 119.481 365.902 118.433 366.211C118.068 366.318 117.781 366.403 117.647 366.436C117.442 366.488 117.063 366.416 116.682 366.345C116.105 366.236 115.522 366.126 115.522 366.436C115.522 366.952 117.261 368.691 118.678 368.691C120.095 368.691 122.928 368.497 123.895 367.467C124.083 367.266 124.264 367.065 124.438 366.872C125.157 366.074 125.759 365.406 126.278 365.406C126.419 365.406 126.501 365.397 126.558 365.39H126.558C126.6 365.386 126.628 365.383 126.655 365.386C126.71 365.392 126.763 365.425 126.922 365.524L126.922 365.524C127.066 365.614 127.297 365.758 127.695 365.986C129.047 366.758 132.975 366.565 133.298 365.986C133.432 365.745 133.432 365.971 133.433 366.433C133.435 367.083 133.437 368.2 133.814 369.142C134.008 369.628 134.056 370.161 134.102 370.68C134.209 371.877 134.309 372.994 136.197 373.264C137.464 373.445 138.59 373.725 139.581 373.971L139.581 373.971C140.706 374.251 141.657 374.487 142.444 374.487C143.925 374.487 145.922 374.616 144.634 377.257C143.603 379.369 142.766 381.057 139.932 379.575C138.12 378.628 137.845 378.155 137.641 377.802ZM128.017 376.484H131.044L130.464 378.545L128.017 376.484ZM131.495 356.454L129.112 357.935L131.881 358.45L131.495 356.454ZM138.773 343.508C139.597 343.147 140.834 342.241 141.349 341.833L141.864 344.925L138.773 343.508Z" fill="black"/>
<defs>
<linearGradient id="paint0_linear" x1="230.581" y1="0.508789" x2="230.581" y2="470.089" gradientUnits="userSpaceOnUse">
<stop stop-color="#1F92D2"/>
<stop offset="1" stop-color="#1F709D"/>
</linearGradient>
</defs>
</svg>
