<svg width="461" height="470" viewBox="0 0 461 470" fill="none" xmlns="http://www.w3.org/2000/svg">
<rect x="0.650085" y="0.0144348" width="459.933" height="469.581" rx="6" fill="url(#paint0_linear)"/>
<path d="M156.566 54.0371H143.763V88.7539H133.48V54.0371H120.912V46.0977H156.566V54.0371ZM196.234 68.3047C196.234 72.4649 195.463 76.1465 193.92 79.3496C192.377 82.5528 190.179 85.0235 187.328 86.7617C184.496 88.4805 181.263 89.3399 177.631 89.3399C173.998 89.3399 170.775 88.5098 167.963 86.8496C165.15 85.17 162.953 82.7774 161.371 79.6719C159.808 76.5664 158.988 73.002 158.91 68.9785V66.5762C158.91 62.3965 159.672 58.7149 161.195 55.5313C162.738 52.3282 164.935 49.8575 167.787 48.1192C170.658 46.3809 173.92 45.5117 177.572 45.5117C181.185 45.5117 184.408 46.3711 187.24 48.0899C190.072 49.8086 192.269 52.2598 193.832 55.4434C195.414 58.6075 196.215 62.2403 196.234 66.3418V68.3047ZM185.775 66.5176C185.775 62.2793 185.062 59.0664 183.636 56.8789C182.23 54.6719 180.209 53.5684 177.572 53.5684C172.416 53.5684 169.691 57.4356 169.398 65.17L169.369 68.3047C169.369 72.4844 170.062 75.6973 171.449 77.9434C172.836 80.1895 174.896 81.3125 177.631 81.3125C180.228 81.3125 182.23 80.209 183.636 78.002C185.043 75.795 185.756 72.6211 185.775 68.4805V66.5176ZM234.584 72.8457L239.476 46.0977H249.672L240.619 88.7539H229.955L224.242 64.4375L218.646 88.7539H208.011L198.929 46.0977H209.154L214.047 72.8457L219.906 46.0977H228.636L234.584 72.8457ZM280.14 70.6778H263.968V80.8438H283.07V88.7539H253.685V46.0977H283.129V54.0371H263.968V63.0313H280.14V70.6778ZM303.109 73.6953H297.543V88.7539H287.259V46.0977H304.047C309.105 46.0977 313.06 47.2207 315.912 49.4668C318.763 51.7129 320.189 54.8867 320.189 58.9883C320.189 61.9571 319.584 64.418 318.373 66.3711C317.181 68.3242 315.306 69.9063 312.748 71.1172L321.654 88.3145V88.7539H310.638L303.109 73.6953ZM297.543 65.7559H304.047C306 65.7559 307.465 65.2481 308.441 64.2325C309.437 63.1973 309.935 61.7617 309.935 59.9258C309.935 58.0899 309.437 56.6543 308.441 55.6192C307.445 54.5645 305.98 54.0371 304.047 54.0371H297.543V65.7559Z" fill="black"/>
<path d="M241.546 154.389C241.395 157.793 240.438 160.37 238.675 162.12C236.911 163.87 234.423 164.745 231.21 164.745C227.833 164.745 225.242 163.638 223.437 161.423C221.646 159.194 220.751 156.022 220.751 151.907V146.883C220.751 142.781 221.68 139.623 223.54 137.408C225.399 135.18 227.983 134.065 231.292 134.065C234.546 134.065 237.013 134.975 238.695 136.793C240.39 138.611 241.354 141.223 241.587 144.627H235.537C235.482 142.521 235.154 141.072 234.553 140.279C233.965 139.473 232.878 139.069 231.292 139.069C229.679 139.069 228.537 139.637 227.867 140.771C227.197 141.892 226.842 143.745 226.801 146.329V151.969C226.801 154.935 227.129 156.973 227.785 158.08C228.455 159.187 229.596 159.741 231.21 159.741C232.796 159.741 233.889 159.358 234.491 158.593C235.093 157.813 235.434 156.412 235.516 154.389H241.546ZM259.42 151.415H250.027V159.331H261.142V164.335H243.998V134.475H261.101V139.5H250.027V146.555H259.42V151.415ZM284.245 164.335H278.216L269.398 144.75V164.335H263.368V134.475H269.398L278.237 154.081V134.475H284.245V164.335ZM306.549 139.5H299.166V164.335H293.116V139.5H285.857V134.475H306.549V139.5ZM320.547 158.224H312.323L310.723 164.335H304.346L313.677 134.475H319.193L328.586 164.335H322.146L320.547 158.224ZM313.636 153.199H319.214L316.425 142.556L313.636 153.199ZM349.187 134.475V155.147C349.16 158.251 348.305 160.63 346.624 162.284C344.942 163.925 342.529 164.745 339.384 164.745C336.185 164.745 333.738 163.911 332.043 162.243C330.361 160.575 329.52 158.162 329.52 155.004V134.475H335.59V155.024C335.59 156.72 335.864 157.93 336.411 158.654C336.958 159.379 337.949 159.741 339.384 159.741C340.82 159.741 341.804 159.386 342.338 158.675C342.871 157.95 343.144 156.767 343.158 155.127V134.475H349.187ZM361.544 153.425H358.55V164.335H352.521V134.475H362.139C365.161 134.475 367.492 135.262 369.132 136.834C370.786 138.392 371.614 140.614 371.614 143.499C371.614 147.464 370.171 150.239 367.286 151.825L372.516 164.048V164.335H366.036L361.544 153.425ZM358.55 148.4H361.975C363.178 148.4 364.08 148.004 364.682 147.211C365.284 146.404 365.584 145.331 365.584 143.991C365.584 140.997 364.415 139.5 362.078 139.5H358.55V148.4Z" fill="black"/>
<path d="M226.618 186.521H228.786C229.88 186.511 230.744 186.228 231.379 185.671C232.023 185.115 232.346 184.309 232.346 183.254C232.346 182.239 232.077 181.453 231.54 180.896C231.013 180.33 230.202 180.046 229.108 180.046C228.151 180.046 227.365 180.325 226.75 180.881C226.135 181.428 225.827 182.146 225.827 183.035H222.267C222.267 181.941 222.555 180.945 223.132 180.046C223.718 179.148 224.528 178.45 225.563 177.952C226.608 177.444 227.775 177.19 229.064 177.19C231.193 177.19 232.863 177.727 234.074 178.801C235.295 179.866 235.905 181.35 235.905 183.254C235.905 184.212 235.597 185.115 234.982 185.964C234.377 186.804 233.591 187.439 232.624 187.869C233.796 188.269 234.684 188.899 235.29 189.758C235.905 190.618 236.213 191.643 236.213 192.835C236.213 194.749 235.554 196.272 234.235 197.405C232.927 198.538 231.203 199.104 229.064 199.104C227.013 199.104 225.334 198.557 224.025 197.463C222.717 196.37 222.062 194.915 222.062 193.098H225.622C225.622 194.036 225.934 194.797 226.559 195.383C227.194 195.969 228.044 196.262 229.108 196.262C230.212 196.262 231.081 195.969 231.716 195.383C232.35 194.797 232.668 193.948 232.668 192.835C232.668 191.712 232.336 190.847 231.672 190.242C231.008 189.636 230.021 189.334 228.713 189.334H226.618V186.521ZM263.649 187.297C263.649 189.016 263.185 190.422 262.258 191.516C261.33 192.6 260.173 193.142 258.786 193.142C258.063 193.142 257.394 193.005 256.779 192.732C256.174 192.459 255.495 191.99 254.743 191.326C253.991 190.652 253.449 190.237 253.117 190.081C252.795 189.915 252.448 189.832 252.077 189.832C251.423 189.832 250.905 190.086 250.524 190.593C250.153 191.101 249.968 191.765 249.968 192.586H247.14C247.14 190.916 247.585 189.548 248.473 188.484C249.362 187.41 250.529 186.873 251.974 186.873C252.697 186.873 253.381 187.019 254.025 187.312C254.68 187.595 255.358 188.059 256.061 188.704C256.774 189.348 257.292 189.754 257.614 189.92C257.946 190.086 258.303 190.169 258.683 190.169C259.338 190.169 259.87 189.895 260.28 189.348C260.69 188.801 260.895 188.118 260.895 187.297H263.649ZM286.486 191.209H289.138V194.065H286.486V198.811H282.927V194.065H273.713L273.61 191.897L282.809 177.483H286.486V191.209ZM277.346 191.209H282.927V182.302L282.663 182.771L277.346 191.209Z" fill="black"/>
<path d="M123.593 136.594L128.459 137.083L129.351 138.98H126.269C125.377 138.98 123.512 140.939 123.512 141.367C123.512 141.795 122.62 143.998 123.512 144.794C124.225 145.43 123.809 147.874 123.512 149.016C124.188 148.567 125.686 147.609 126.269 147.364C126.852 147.119 128.838 144.488 129.757 143.203C129.73 143.998 129.611 145.699 129.351 146.14C129.026 146.691 127.161 149.016 126.269 149.628C125.377 150.24 122.62 150.852 122.62 150.607C122.62 150.411 118.835 149.179 116.942 148.588C117.078 148.261 117.267 147.498 116.942 147.058C116.618 146.617 115.51 145.895 114.996 145.589V139.531H116.942L117.348 142.53C118.484 141.041 121.215 139.837 121.215 137.083C121.215 134.33 119.347 132.713 118.292 131.142L117.348 134.942L114.996 135.309V133.045L112.887 132.739V134.942L107.049 134.574L106.237 130.78C104.534 131.637 101.16 134.195 101.29 137.573C101.42 140.951 104.642 142.285 106.237 142.53C106.778 141.856 108.103 140.51 109.076 140.51H112.887V145.589H111.509H108.346C108.346 146.589 108.492 148.796 109.076 149.628C109.66 150.46 111.86 151.158 112.887 151.403V156.665L109.076 157.277V160.092C109.076 161.561 111.617 161.724 112.887 161.622V167.68H114.996V161.132L116.942 160.765C118.375 160.541 121.403 159.957 122.052 159.419C122.701 158.88 122.701 157.359 122.62 156.665L118.646 155.013L117.348 156.665H114.996V151.831C115.537 151.892 116.683 152.063 116.942 152.259C117.267 152.504 122.944 155.197 123.512 155.38C123.966 155.527 125.81 155.645 126.675 155.686L133.001 153.483C131.973 154.625 129.805 156.983 129.351 157.277C128.897 157.571 127.107 157.726 126.269 157.767V159.419C126.269 160.541 126.448 162.882 127.161 163.274C127.875 163.666 127.891 164.947 127.81 165.538L126.269 168.17C126.269 169.699 126.577 173.383 127.81 175.88C129.351 179.001 131.46 178.022 133.001 178.695C134.542 179.368 134.623 181.632 134.379 183.284C134.185 184.606 133.001 185.344 132.433 185.548C132.919 186.466 133.893 188.412 133.893 188.853C133.893 189.293 132.919 193.728 132.433 195.89C131.784 195.951 130.259 196.123 129.351 196.318C128.216 196.563 127.161 198.521 126.269 199.562C125.377 200.602 129.432 203.05 129.919 203.05C130.405 203.05 132.838 202.193 133.893 202.193H140.462C140.84 200.561 141.597 197.224 141.597 196.93C141.597 196.563 140.381 191.974 140.462 191.607C140.543 191.239 142.652 182.917 142.165 181.142C141.776 179.723 141.138 178.266 140.868 177.716L148.491 178.389C150.843 178.246 155.953 177.826 157.575 177.287C159.602 176.614 163.982 176.859 165.685 177.287C167.388 177.716 166.82 182.122 168.686 183.713C170.178 184.985 174.66 186.079 176.715 186.466C176.769 187.69 176.844 190.37 176.715 191.301C176.585 192.231 174.66 194.177 173.714 195.033C172.578 195.584 169.707 196.808 167.307 197.297C164.906 197.787 165.225 200.765 165.685 202.193H173.714C173.66 201.948 173.584 201.348 173.714 200.908C173.876 200.357 175.579 199.133 175.66 198.521C175.725 198.032 177.201 196.278 177.931 195.462C178.364 194.952 179.245 193.761 179.31 193.075C179.375 192.39 180.526 189.404 181.094 187.996C181.337 189.098 181.824 191.435 181.824 191.974V195.462C181.175 195.972 179.651 197.053 178.742 197.297C177.834 197.542 177.445 200.174 177.363 201.459H185.149C184.987 200.541 184.76 198.668 185.149 198.521C185.539 198.374 186.231 197.236 186.528 196.686V185.548C186.528 184.814 184.473 183.488 183.446 182.917C183.311 182.142 183.024 180.408 182.96 179.674C182.878 178.756 183.284 177.41 184.663 177.287C186.041 177.165 186.204 181.571 186.528 182.917C186.852 184.263 188.231 184.202 188.88 184.875C189.529 185.548 189.853 189.342 189.853 189.771C189.853 190.113 194.882 192.116 197.396 193.075C196.855 192.708 195.66 191.839 195.206 191.301C194.638 190.627 195.044 188.73 194.557 186.772C194.071 184.814 194.8 183.835 194.557 182.122C194.314 180.408 193.503 176.92 193.503 175.88C193.503 174.84 192.611 171.902 192.043 170.128C191.589 168.708 188.934 165.905 187.663 164.682C183.662 163.152 175.449 159.957 174.606 159.419C173.552 158.746 168.848 159.419 166.82 159.113C164.793 158.807 157.737 160.092 156.52 160.092C155.304 160.092 150.194 160.459 148.978 160.459C147.761 160.459 142.895 159.602 141.597 159.419C140.559 159.272 139.218 156.869 138.678 155.686C138.489 153.483 138.126 148.979 138.191 148.588C138.272 148.098 138.84 145.038 139.327 144.488C139.813 143.937 140.3 140.571 140.138 139.837C139.975 139.103 136.569 137.389 135.677 137.083C134.785 136.777 136.488 133.718 136.569 133.351C136.65 132.983 135.839 131.209 135.677 130.78C135.547 130.438 133.731 127.986 132.838 126.803C131.379 126.844 128.297 126.901 127.648 126.803C126.999 126.705 125.539 128.924 124.89 130.046L123.593 131.576V136.594Z" fill="black"/>
<path d="M241.607 264.641C240.445 265.899 239.016 266.849 237.321 267.492C235.639 268.121 233.794 268.435 231.784 268.435C228.352 268.435 225.686 267.375 223.786 265.256C221.886 263.123 220.908 260.027 220.853 255.966V250.593C220.853 246.478 221.749 243.313 223.54 241.098C225.345 238.87 227.97 237.755 231.415 237.755C234.655 237.755 237.096 238.555 238.736 240.155C240.39 241.754 241.347 244.263 241.607 247.681H235.742C235.578 245.781 235.181 244.489 234.553 243.805C233.924 243.108 232.939 242.759 231.599 242.759C229.972 242.759 228.79 243.354 228.052 244.543C227.313 245.733 226.93 247.626 226.903 250.224V255.638C226.903 258.359 227.306 260.341 228.113 261.585C228.933 262.816 230.273 263.431 232.133 263.431C233.322 263.431 234.286 263.192 235.024 262.713L235.557 262.344V256.869H231.333V252.316H241.607V264.641ZM258.866 261.913H250.642L249.043 268.025H242.665L251.996 238.165H257.512L266.905 268.025H260.465L258.866 261.913ZM251.955 256.889H257.533L254.744 246.246L251.955 256.889ZM277.498 257.115H274.504V268.025H268.475V238.165H278.093C281.115 238.165 283.446 238.952 285.086 240.524C286.741 242.082 287.568 244.304 287.568 247.189C287.568 251.154 286.125 253.929 283.241 255.515L288.47 267.738V268.025H281.99L277.498 257.115ZM274.504 252.09H277.929C279.132 252.09 280.035 251.694 280.636 250.901C281.238 250.094 281.538 249.021 281.538 247.681C281.538 244.687 280.369 243.19 278.032 243.19H274.504V252.09ZM310.753 264.641C309.591 265.899 308.162 266.849 306.467 267.492C304.785 268.121 302.94 268.435 300.93 268.435C297.498 268.435 294.832 267.375 292.932 265.256C291.031 263.123 290.054 260.027 289.999 255.966V250.593C289.999 246.478 290.895 243.313 292.686 241.098C294.49 238.87 297.115 237.755 300.561 237.755C303.801 237.755 306.241 238.555 307.882 240.155C309.536 241.754 310.493 244.263 310.753 247.681H304.888C304.724 245.781 304.327 244.489 303.698 243.805C303.069 243.108 302.085 242.759 300.745 242.759C299.118 242.759 297.936 243.354 297.197 244.543C296.459 245.733 296.076 247.626 296.049 250.224V255.638C296.049 258.359 296.452 260.341 297.259 261.585C298.079 262.816 299.419 263.431 301.278 263.431C302.468 263.431 303.432 263.192 304.17 262.713L304.703 262.344V256.869H300.479V252.316H310.753V264.641ZM334.779 255.782C334.779 259.788 333.829 262.898 331.929 265.113C330.042 267.328 327.417 268.435 324.054 268.435C320.704 268.435 318.072 267.341 316.158 265.154C314.244 262.953 313.273 259.876 313.246 255.925V250.819C313.246 246.717 314.196 243.518 316.097 241.221C317.997 238.911 320.636 237.755 324.013 237.755C327.335 237.755 329.953 238.89 331.867 241.16C333.781 243.415 334.752 246.587 334.779 250.675V255.782ZM328.729 250.778C328.729 248.084 328.347 246.081 327.581 244.769C326.815 243.456 325.626 242.8 324.013 242.8C322.413 242.8 321.23 243.436 320.465 244.707C319.699 245.965 319.303 247.886 319.275 250.47V255.782C319.275 258.393 319.665 260.321 320.444 261.565C321.223 262.795 322.427 263.411 324.054 263.411C325.626 263.411 326.795 262.809 327.56 261.606C328.326 260.389 328.716 258.509 328.729 255.966V250.778ZM345.947 251.578L350.438 238.165H357.001L349.003 257.197V268.025H342.891V257.197L334.873 238.165H341.435L345.947 251.578ZM364.518 263.021H375.1V268.025H358.489V238.165H364.518V263.021ZM392.748 255.105H383.356V263.021H394.471V268.025H377.326V238.165H394.43V243.19H383.356V250.245H392.748V255.105Z" fill="black"/>
<path d="M234.543 294.899H237.194V297.755H234.543V302.501H230.983V297.755H221.769L221.667 295.587L230.866 281.173H234.543V294.899ZM225.402 294.899H230.983V285.992L230.72 286.461L225.402 294.899ZM251.487 303.011L254.697 293.471L246.957 288.281H256.437L259.827 278.051L263.277 288.281H272.697L264.957 293.471L268.227 303.011L259.827 296.921L251.487 303.011ZM287.409 290.211H289.577C290.671 290.201 291.535 289.918 292.17 289.361C292.814 288.805 293.137 287.999 293.137 286.944C293.137 285.929 292.868 285.143 292.331 284.586C291.804 284.02 290.993 283.736 289.899 283.736C288.942 283.736 288.156 284.015 287.541 284.571C286.926 285.118 286.618 285.836 286.618 286.725H283.058C283.058 285.631 283.346 284.635 283.923 283.736C284.509 282.838 285.319 282.14 286.354 281.642C287.399 281.134 288.566 280.88 289.855 280.88C291.984 280.88 293.654 281.417 294.865 282.491C296.086 283.556 296.696 285.04 296.696 286.944C296.696 287.901 296.388 288.805 295.773 289.654C295.168 290.494 294.382 291.129 293.415 291.559C294.587 291.959 295.475 292.589 296.081 293.448C296.696 294.308 297.004 295.333 297.004 296.525C297.004 298.439 296.345 299.962 295.026 301.095C293.718 302.228 291.994 302.794 289.855 302.794C287.805 302.794 286.125 302.247 284.816 301.153C283.508 300.06 282.853 298.605 282.853 296.788H286.413C286.413 297.726 286.725 298.487 287.35 299.073C287.985 299.659 288.835 299.952 289.899 299.952C291.003 299.952 291.872 299.659 292.507 299.073C293.141 298.487 293.459 297.638 293.459 296.525C293.459 295.401 293.127 294.537 292.463 293.932C291.799 293.326 290.812 293.024 289.504 293.024H287.409V290.211Z" fill="black"/>
<path d="M136.409 303.083H124.678C124.678 301.239 125.342 297.55 127.998 297.55C131.318 297.55 131.539 299.542 133.642 298.657C135.324 297.948 134.786 295.927 134.306 295.005C131.097 293.529 124.678 290.29 124.678 289.139C124.678 287.701 123.904 281.835 130.543 282.389C135.855 282.831 139.028 286.336 139.95 288.033L140.725 297.55L137.183 298.657L136.409 303.083Z" fill="black"/>
<path d="M163.808 303.083H175.539C175.539 301.239 174.875 297.55 172.219 297.55C168.899 297.55 168.677 299.542 166.575 298.657C164.893 297.948 165.431 295.927 165.911 295.005C169.12 293.529 175.539 290.29 175.539 289.139C175.539 287.701 176.313 281.835 169.673 282.389C164.361 282.831 161.189 286.336 160.267 288.033L159.492 297.55L163.034 298.657L163.808 303.083Z" fill="black"/>
<path d="M148.028 304.3H138.843V300.538L142.938 299.431L144.045 286.041L140.725 282.389L135.634 277.852L136.409 271.986L139.95 265.9C139.95 268.371 140.105 273.491 140.725 274.2C141.499 275.085 143.27 276.856 144.045 277.188C144.664 277.453 145.557 278.995 145.926 279.733V282.389L153.672 282.942V278.516L158.21 276.302V265.9L160.267 267.449C160.983 269.662 162.539 274.266 163.034 274.974C163.528 275.683 161.395 279.401 160.267 281.171L155.996 288.033V299.431L158.21 300.538L160.267 304.3H151.127L150.242 292.127H148.914L148.028 304.3Z" fill="black"/>
<path d="M144.787 271.644L142.875 269.656L145.514 268.509L144.787 265.717L142.149 264.723L141.69 256.655L145.208 262.658H152.091L155.532 258.414L155.996 264.723L152.588 265.258V268.738L155.112 269.426L152.855 271.644L151.517 277.852H147.196L144.787 271.644Z" fill="black"/>
<path d="M134.386 265.9C134.356 265.587 130.83 262.844 129.071 261.511C129.173 259.51 129.315 254.544 129.071 250.689C128.766 245.871 132.244 240.594 136.412 239.677C139.747 238.942 142.11 244.163 142.875 246.865C143.002 245.247 143.181 241.405 142.875 238.988C142.493 235.967 138.286 234.591 134.769 234.361C131.251 234.132 128.191 237.65 127.35 239.485C126.678 240.954 117.026 246.19 112.284 248.624C108.511 249.937 101.072 256.448 101.501 271.986C101.929 287.525 110.015 293.936 114.005 295.199C111.774 291.057 107.313 281.923 107.313 278.527C107.313 274.283 107.389 269.044 111.634 268.509C115.029 268.08 116.261 274.116 116.452 277.188C117.803 273.785 120.911 266.971 122.532 266.941C124.154 266.91 126.42 268.33 127.35 269.044C127.541 270.395 127.932 273.227 127.962 273.747C127.993 274.267 131.161 276.003 132.742 276.806C133.29 274.703 134.463 270.443 134.769 270.229C135.151 269.962 134.424 266.291 134.386 265.9Z" fill="black"/>
<path d="M164.573 269.656L166.575 275.937L170.948 276.302C171.372 273.704 173.084 268.509 176.543 268.509C180.002 268.509 181.54 274.295 181.877 277.188C182.744 274.473 184.882 269.044 186.496 269.044C188.512 269.044 189.098 268.738 192.48 275.937C195.186 281.696 190.399 291.633 187.667 295.881C189.835 293.634 194.549 288.52 196.058 286.041C197.945 282.942 197.294 278.516 197.554 270.901C197.815 263.287 192.09 252.622 188.317 249.63C184.544 246.637 178.364 243.385 174.331 242.929C170.298 242.474 167.698 233.952 163.598 233.757C160.317 233.601 160.01 235.817 160.267 236.945C159.447 237.313 157.535 238.376 156.442 239.677C155.349 240.978 157.165 245.011 158.21 246.865C158.531 245.055 159.655 241.329 161.581 240.913C163.988 240.392 164.239 245.466 165.744 246.865C167.25 248.265 169.897 255.913 170.014 258.414C170.108 260.414 168.509 263.453 167.698 264.723C166.779 265.422 164.801 266.819 164.239 266.819C163.676 266.819 164.74 268.519 164.573 269.656Z" fill="black"/>
<path d="M242.325 359.472C242.325 363.477 241.375 366.588 239.474 368.803C237.588 371.017 234.963 372.125 231.599 372.125C228.25 372.125 225.618 371.031 223.704 368.844C221.79 366.642 220.819 363.566 220.792 359.615V354.509C220.792 350.407 221.742 347.208 223.642 344.911C225.543 342.6 228.181 341.445 231.558 341.445C234.881 341.445 237.499 342.58 239.413 344.85C241.327 347.105 242.298 350.277 242.325 354.365V359.472ZM236.275 354.468C236.275 351.774 235.892 349.771 235.127 348.459C234.361 347.146 233.172 346.49 231.558 346.49C229.959 346.49 228.776 347.126 228.011 348.397C227.245 349.655 226.848 351.576 226.821 354.16V359.472C226.821 362.083 227.211 364.011 227.99 365.255C228.769 366.485 229.972 367.1 231.599 367.1C233.172 367.1 234.341 366.499 235.106 365.296C235.872 364.079 236.262 362.199 236.275 359.656V354.468ZM265.695 368.331C264.533 369.589 263.104 370.539 261.409 371.182C259.727 371.81 257.881 372.125 255.872 372.125C252.44 372.125 249.774 371.065 247.874 368.946C245.973 366.813 244.996 363.717 244.941 359.656V354.283C244.941 350.168 245.836 347.003 247.628 344.788C249.432 342.559 252.057 341.445 255.503 341.445C258.743 341.445 261.183 342.245 262.824 343.845C264.478 345.444 265.435 347.953 265.695 351.371H259.83C259.666 349.471 259.269 348.179 258.64 347.495C258.011 346.798 257.027 346.449 255.687 346.449C254.06 346.449 252.878 347.044 252.139 348.233C251.401 349.423 251.018 351.316 250.991 353.914V359.328C250.991 362.049 251.394 364.031 252.201 365.275C253.021 366.506 254.361 367.121 256.22 367.121C257.41 367.121 258.374 366.882 259.112 366.403L259.645 366.034V360.559H255.42V356.006H265.695V368.331ZM277.744 360.805H274.75V371.715H268.721V341.855H278.339C281.361 341.855 283.692 342.642 285.332 344.214C286.987 345.772 287.814 347.994 287.814 350.879C287.814 354.844 286.371 357.619 283.487 359.205L288.716 371.428V371.715H282.236L277.744 360.805ZM274.75 355.78H278.175C279.378 355.78 280.281 355.384 280.882 354.591C281.484 353.784 281.785 352.711 281.785 351.371C281.785 348.377 280.616 346.88 278.278 346.88H274.75V355.78ZM306.118 358.795H296.726V366.711H307.841V371.715H290.696V341.855H307.8V346.88H296.726V353.934H306.118V358.795Z" fill="black"/>
<path d="M233.576 384.76V387.705H233.137C231.144 387.734 229.553 388.281 228.361 389.345C227.17 390.41 226.462 391.919 226.237 393.872C227.38 392.671 228.84 392.07 230.617 392.07C232.502 392.07 233.986 392.734 235.07 394.062C236.164 395.39 236.711 397.104 236.711 399.204C236.711 401.372 236.071 403.129 234.792 404.477C233.522 405.815 231.852 406.484 229.782 406.484C227.653 406.484 225.925 405.698 224.596 404.126C223.278 402.553 222.619 400.493 222.619 397.944V396.728C222.619 392.988 223.527 390.058 225.344 387.939C227.17 385.82 229.792 384.76 233.21 384.76H233.576ZM229.753 394.941C228.971 394.941 228.254 395.161 227.599 395.6C226.955 396.04 226.481 396.626 226.179 397.358V398.442C226.179 400.024 226.511 401.284 227.175 402.221C227.839 403.149 228.698 403.613 229.753 403.613C230.807 403.613 231.642 403.217 232.258 402.426C232.873 401.635 233.18 400.595 233.18 399.306C233.18 398.017 232.868 396.967 232.243 396.157C231.618 395.346 230.788 394.941 229.753 394.941ZM263.649 394.677C263.649 396.396 263.185 397.802 262.258 398.896C261.33 399.98 260.173 400.522 258.786 400.522C258.063 400.522 257.394 400.385 256.779 400.112C256.174 399.838 255.495 399.37 254.743 398.706C253.991 398.032 253.449 397.617 253.117 397.461C252.795 397.295 252.448 397.212 252.077 397.212C251.423 397.212 250.905 397.465 250.524 397.973C250.153 398.481 249.968 399.145 249.968 399.965H247.14C247.14 398.296 247.585 396.928 248.473 395.864C249.362 394.79 250.529 394.253 251.974 394.253C252.697 394.253 253.381 394.399 254.025 394.692C254.68 394.975 255.358 395.439 256.061 396.084C256.774 396.728 257.292 397.133 257.614 397.299C257.946 397.465 258.303 397.548 258.683 397.548C259.338 397.548 259.87 397.275 260.28 396.728C260.69 396.181 260.895 395.498 260.895 394.677H263.649ZM288.786 406.191H274.445V403.745L281.55 395.996C282.575 394.853 283.303 393.901 283.732 393.139C284.172 392.368 284.391 391.596 284.391 390.825C284.391 389.809 284.103 388.989 283.527 388.364C282.961 387.739 282.194 387.426 281.227 387.426C280.075 387.426 279.181 387.778 278.547 388.481C277.912 389.184 277.595 390.146 277.595 391.367H274.035C274.035 390.068 274.328 388.901 274.914 387.866C275.51 386.821 276.354 386.01 277.448 385.434C278.552 384.858 279.821 384.57 281.257 384.57C283.327 384.57 284.958 385.092 286.149 386.137C287.35 387.172 287.951 388.608 287.951 390.444C287.951 391.508 287.648 392.627 287.043 393.798C286.447 394.961 285.466 396.284 284.098 397.768L278.884 403.349H288.786V406.191Z" fill="black"/>
<path d="M141.345 330.775C141.493 329.429 147.681 328.17 153.621 328.605C159.561 329.039 163.779 333.883 164.017 334.681C164.22 335.364 167.387 336.819 169.875 337.961C171.025 338.49 172.03 338.951 172.531 339.239C173.651 339.884 175.589 341.202 176.733 341.98C177.205 342.301 177.543 342.531 177.63 342.582C177.789 342.675 177.065 342.868 176.268 343.08C175.579 343.264 174.836 343.462 174.56 343.623C174.112 343.885 174.594 344.987 174.921 345.736C175.028 345.98 175.118 346.187 175.154 346.315C175.273 346.731 174.808 348.167 174.56 348.832C172.943 347.458 169.303 344.491 167.68 343.623C165.65 342.538 162.036 340.628 160.403 339.89C158.769 339.152 156.492 338.588 155.898 338.545C155.732 338.533 155.214 338.653 154.464 338.827C152.534 339.275 149.07 340.078 146.146 339.89C142.087 339.63 141.345 338.111 140.8 336.895C140.401 336.004 140.801 333.85 141.101 332.235C141.209 331.649 141.305 331.133 141.345 330.775Z" fill="black"/>
<path fill-rule="evenodd" clip-rule="evenodd" d="M143.317 346.238C143.418 346.135 143.512 346.02 143.614 345.896C144.374 344.971 145.496 343.604 152.342 343.6C160.099 343.596 163.065 348.037 163.065 348.7C163.065 349.529 165.371 351.493 167.458 351.493C169.545 351.493 171.083 353.998 171.302 357.544C171.421 359.461 170.706 360.521 170.092 361.429C169.571 362.201 169.123 362.864 169.325 363.851C169.628 365.332 170.922 364.529 172.165 363.758C172.725 363.41 173.275 363.069 173.719 362.946C174.861 362.631 175.659 360.316 175.916 359.199C175.916 358.139 175.784 355.905 175.257 355.442C174.729 354.98 175.037 353.385 175.257 352.645C175.476 352.036 175.916 350.723 175.916 350.338C175.916 349.952 180.968 350.177 183.494 350.338V347.871H178.552C177.126 347.871 177.227 347.41 177.383 346.691C177.468 346.301 177.569 345.837 177.453 345.329C177.285 344.592 178.405 344.632 179.776 344.682C181.09 344.73 182.634 344.786 183.494 344.174C184.368 343.551 185.133 344.357 185.911 345.176C186.698 346.004 187.498 346.847 188.437 346.238C189.931 345.27 190.304 348.247 190.304 349.856C190.963 350.209 192.281 351.261 192.281 352.645C192.281 353.801 191.791 355.263 191.433 356.331C191.255 356.861 191.11 357.294 191.073 357.544C191.019 357.914 192.634 359.224 194.292 360.568C196.009 361.96 197.773 363.391 197.773 363.851C197.773 364.743 195.962 365.625 194.963 366.111L194.917 366.133C194.127 366.518 190.927 362.909 189.426 361.056C188.693 361.271 187.097 361.703 186.57 361.703C185.911 361.703 185.362 362.946 185.362 364.55C185.362 366.154 184.812 366.966 183.494 368.059C182.731 368.692 182.226 369.303 181.637 370.014C181.209 370.531 180.737 371.101 180.089 371.772C178.552 373.365 177.234 373.935 175.916 374.416C175.163 374.691 174.589 374.495 173.949 374.276C173.469 374.112 172.95 373.935 172.291 373.935C170.987 373.935 169.13 373.173 167.993 372.706C167.789 372.623 167.608 372.548 167.458 372.49C166.667 372.182 165.078 370.82 164.383 370.178L160.099 363.851L160.648 366.966C160.172 367.33 158.847 368.252 157.353 369.023C156.404 369.512 155.909 369.979 155.42 370.439C154.948 370.885 154.482 371.324 153.618 371.772L153.451 371.859C151.833 372.697 151.422 372.91 151.422 373.935C151.422 374.994 151.422 376.513 150.433 377.141C149.642 377.644 145.71 376.932 143.843 376.513C145.564 377.1 148.961 378.39 148.786 378.86C148.566 379.449 150.433 381.413 152.342 381.413C153.364 381.413 153.658 381.643 154.165 382.043C154.606 382.39 155.207 382.863 156.584 383.422C158.724 384.292 159.148 385.938 159.549 387.493C159.703 388.092 159.854 388.678 160.099 389.201C160.978 391.08 159.22 393.101 156.584 393.598C154.938 393.908 154.534 395.065 154.115 396.265C153.863 396.986 153.605 397.723 153.069 398.302C151.641 399.843 151.422 401.288 152.342 401.288C153.262 401.288 155.376 401.288 157.353 403.021C158.411 403.949 158.871 404.932 159.206 405.646C159.496 406.265 159.69 406.681 160.099 406.681C160.978 406.681 162.186 406.681 163.065 406.2C163.61 405.901 163.987 406.605 164.43 407.435C164.701 407.942 164.997 408.495 165.371 408.897C166.36 409.956 165.481 411.208 164.383 411.69C163.504 412.075 162.186 411.85 161.637 411.69C161.087 412.268 159.835 413.423 159.22 413.423H153.618C152.12 413.423 151.644 412.885 151.178 412.36C150.962 412.115 150.747 411.873 150.433 411.69C150.065 411.474 149.59 411.272 149.087 411.059C148.242 410.699 147.319 410.307 146.699 409.763C146.106 409.243 145.789 408.793 145.536 408.432C145.367 408.192 145.227 407.991 145.051 407.837C144.964 407.76 144.842 407.607 144.684 407.408C144.047 406.604 142.809 405.044 140.767 404.659C139.087 404.341 139.049 403.94 138.967 403.069C138.925 402.619 138.87 402.043 138.571 401.288C137.868 399.516 140.841 396.697 142.415 395.509L146.699 391.849L151.422 389.829H147.687C147.797 389.282 147.753 388.016 146.699 387.322C145.644 386.629 142.671 385.857 141.317 385.558L135.239 384.914V389.829C135.239 391.18 136.264 393.101 136.923 393.598C137.582 394.095 137.582 397.435 137.582 398.302C137.582 398.704 137.44 399.335 137.288 400.011C137.112 400.791 136.923 401.632 136.923 402.251C136.923 403.132 135.009 403.901 133.904 404.345C133.559 404.483 133.293 404.59 133.189 404.659C132.837 404.89 129.071 406.103 127.231 406.681C128.496 406.521 131.307 406.2 132.429 406.2C133.109 406.2 133.36 406.585 133.647 407.026C133.951 407.494 134.296 408.024 135.239 408.222C136.458 408.479 136.8 409.034 137.379 409.974C137.67 410.445 138.02 411.014 138.571 411.69C139.857 413.269 140.072 413.791 140.418 414.632C140.515 414.868 140.623 415.129 140.767 415.446C141.295 416.602 138.424 417.276 136.923 417.468L135.239 414.772C133.835 415.671 130.762 417.468 129.706 417.468C128.65 417.468 128.173 415.671 128.066 414.772C127.788 415.253 126.907 416.274 125.61 416.505C124.697 416.668 123.931 416.19 123.129 415.689C122.506 415.3 121.862 414.898 121.111 414.772C119.735 414.541 119.201 413.776 119.105 413.423C119.439 411.85 120.108 408.531 120.108 407.837V399.843C120.442 399.329 121.455 398.129 122.83 397.435C124.549 396.568 125.61 394.931 125.61 393.598C125.61 392.539 126.234 390.051 126.808 387.765C126.956 387.174 127.101 386.597 127.231 386.061C127.664 384.276 127.452 381.94 127.311 380.385C127.245 379.666 127.195 379.113 127.231 378.86C127.345 378.062 127.687 376.93 128.066 376.065C128.446 375.2 129.091 373.036 129.319 371.772C129.501 370.76 129.091 366.806 128.863 364.956L131.026 363.851L135.239 364.55L131.482 360.257C130.685 360.49 129.045 360.976 128.863 361.056C128.681 361.136 129.349 362.349 129.706 362.946C127.844 363.407 123.518 364.454 121.111 364.956C119.492 365.294 119.615 366.322 119.762 367.553C119.888 368.61 120.032 369.815 119.105 370.86C117.186 373.024 118.677 376.222 119.06 377.045C119.078 377.082 119.093 377.114 119.105 377.141C119.334 377.644 121.684 380.198 122.83 381.413L121.111 384.302C120.872 385.516 120.337 388.322 120.108 389.829C119.834 391.633 117.589 392.401 114.507 393.455L114.091 393.598C111.455 394.502 111.083 393.221 111.226 392.467C112.42 391.63 115.037 389.804 115.953 389.201C116.87 388.598 115.571 386.521 114.807 385.558C113.852 386.228 111.799 387.895 111.226 389.201C110.809 390.152 110.343 389.995 109.461 389.699C108.828 389.486 107.981 389.201 106.785 389.201C104.492 389.201 103.251 386.772 102.916 385.558C103.49 385.851 105.467 386.362 108.79 386.061C112.114 385.759 110.175 382.836 108.79 381.413C107.119 382.083 103.604 383.422 102.916 383.422C102.057 383.422 100.051 377.644 100.481 378.272C100.825 378.774 103.394 379.821 104.636 380.282C105.448 379.863 107.415 378.523 108.79 376.513C110.509 374.001 111.512 369.227 111.942 366.966C112.372 364.705 114.807 360.811 117.386 357.544C119.161 355.296 121.003 354.358 122.447 353.622C123.101 353.289 123.673 352.998 124.119 352.645C125.552 351.514 129.277 349.505 132.429 347.871C134.95 346.565 140.738 346.238 143.317 346.238ZM159.335 351.69C159.52 352.122 159.877 352.957 159.464 353.199C159.035 353.449 157.292 353.303 156.474 353.199C156.422 352.527 156.38 351.184 156.63 351.184C156.88 351.184 158.475 351.353 159.241 351.438C159.241 351.469 159.28 351.562 159.335 351.69ZM148.711 350.753C149.025 350.885 149.789 351.104 150.392 351.277C150.774 351.387 151.092 351.478 151.187 351.516C150.741 352.194 149.794 353.586 149.58 353.727C149.312 353.903 148.554 353.296 148.331 353.101C148.228 353.011 147.607 353.066 146.968 353.123C146.223 353.19 145.453 353.259 145.453 353.101C145.453 353.024 145.444 352.88 145.433 352.704C145.402 352.206 145.354 351.455 145.453 351.281C145.56 351.094 145.498 349.821 145.453 349.208C145.736 349.325 146.359 349.607 146.591 349.795C146.827 349.985 147.738 350.356 148.347 350.604C148.489 350.662 148.614 350.713 148.711 350.753ZM147.731 356.298V360.552C147.731 361.468 148.517 360.706 149.136 360.106C149.368 359.881 149.576 359.68 149.711 359.597C150.047 359.391 151.07 359.465 152.017 359.534C152.463 359.566 152.892 359.597 153.225 359.597C154.157 359.597 156.28 359.98 157.068 360.123C157.159 360.139 157.233 360.152 157.284 360.161C157.68 360.231 156.162 358.425 155.354 357.514L152.829 358.034L152.582 356.298H147.731Z" fill="black"/>
<defs>
<linearGradient id="paint0_linear" x1="230.617" y1="0.0144348" x2="230.617" y2="469.595" gradientUnits="userSpaceOnUse">
<stop stop-color="#F1F1F1"/>
<stop offset="1" stop-color="#BEBEBE"/>
</linearGradient>
</defs>
</svg>
