<svg width="461" height="564" viewBox="0 0 461 564" fill="none" xmlns="http://www.w3.org/2000/svg">
<rect x="0.614746" y="0.755981" width="459.933" height="562.571" rx="6" fill="url(#paint0_linear)"/>
<path d="M147.902 54.7787H135.099V89.4955H124.816V54.7787H112.247V46.8392H147.902V54.7787ZM185.724 46.8392V74.7592C185.724 77.9232 185.05 80.6674 183.702 82.9916C182.355 85.2963 180.421 87.0541 177.902 88.265C175.382 89.476 172.404 90.0814 168.966 90.0814C163.771 90.0814 159.679 88.7338 156.691 86.0385C153.702 83.3431 152.179 79.6517 152.12 74.9642V46.8392H162.462V75.1693C162.579 79.8373 164.747 82.1713 168.966 82.1713C171.095 82.1713 172.706 81.5853 173.8 80.4135C174.894 79.2416 175.441 77.3373 175.441 74.7006V46.8392H185.724ZM227.794 89.4955H217.57L202.452 62.9525V89.4955H192.169V46.8392H202.452L217.54 73.3822V46.8392H227.794V89.4955ZM234.298 89.4955V46.8392H248.038C251.808 46.8392 255.197 47.6986 258.204 49.4174C261.212 51.1166 263.556 53.5287 265.236 56.6537C266.935 59.7592 267.794 63.2455 267.814 67.1127V69.0756C267.814 72.9818 266.984 76.4877 265.323 79.5931C263.683 82.6791 261.359 85.101 258.351 86.8588C255.363 88.597 252.023 89.476 248.331 89.4955H234.298ZM244.581 54.7787V81.5853H248.156C251.105 81.5853 253.37 80.5404 254.952 78.4506C256.534 76.3412 257.325 73.2162 257.325 69.0756V67.2299C257.325 63.1088 256.534 60.0033 254.952 57.9135C253.37 55.8236 251.066 54.7787 248.038 54.7787H244.581ZM288.937 74.4369H283.37V89.4955H273.087V46.8392H289.874C294.933 46.8392 298.888 47.9623 301.74 50.2084C304.591 52.4545 306.017 55.6283 306.017 59.7299C306.017 62.6986 305.411 65.1595 304.2 67.1127C303.009 69.0658 301.134 70.6478 298.575 71.8588L307.482 89.056V89.4955H296.466L288.937 74.4369ZM283.37 66.4974H289.874C291.827 66.4974 293.292 65.9896 294.269 64.974C295.265 63.9388 295.763 62.5033 295.763 60.6674C295.763 58.8314 295.265 57.3959 294.269 56.3607C293.273 55.306 291.808 54.7787 289.874 54.7787H283.37V66.4974ZM336.456 81.5267H322.365L319.904 89.4955H308.917L324.562 46.8392H334.23L349.991 89.4955H338.947L336.456 81.5267ZM324.825 73.5873H333.995L329.396 58.7924L324.825 73.5873Z" fill="black"/>
<path d="M249.674 140.241H242.291V165.076H236.242V140.241H228.982V135.217H249.674V140.241ZM260.924 154.166H257.93V165.076H251.901V135.217H261.519C264.54 135.217 266.871 136.003 268.512 137.575C270.166 139.134 270.993 141.356 270.993 144.24C270.993 148.205 269.551 150.981 266.666 152.567L271.896 164.789V165.076H265.415L260.924 154.166ZM257.93 149.142H261.355C262.558 149.142 263.46 148.745 264.062 147.952C264.663 147.146 264.964 146.073 264.964 144.733C264.964 141.739 263.795 140.241 261.457 140.241H257.93V149.142ZM294.896 152.833C294.896 156.839 293.946 159.949 292.046 162.164C290.159 164.379 287.534 165.487 284.171 165.487C280.821 165.487 278.189 164.393 276.275 162.205C274.361 160.004 273.391 156.928 273.363 152.977V147.87C273.363 143.769 274.313 140.57 276.214 138.273C278.114 135.962 280.753 134.807 284.13 134.807C287.452 134.807 290.07 135.942 291.984 138.211C293.898 140.467 294.869 143.639 294.896 147.727V152.833ZM288.847 147.829C288.847 145.136 288.464 143.133 287.698 141.821C286.933 140.508 285.743 139.852 284.13 139.852C282.53 139.852 281.348 140.488 280.582 141.759C279.816 143.017 279.42 144.938 279.392 147.522V152.833C279.392 155.445 279.782 157.372 280.561 158.616C281.341 159.847 282.544 160.462 284.171 160.462C285.743 160.462 286.912 159.861 287.678 158.657C288.443 157.441 288.833 155.561 288.847 153.018V147.829ZM303.993 160.073H314.575V165.076H297.964V135.217H303.993V160.073ZM322.83 160.073H333.413V165.076H316.801V135.217H322.83V160.073Z" fill="black"/>
<path d="M61.1994 162.062H64.6755C66.9109 162.062 68.6335 161.375 69.8435 160.001C71.0534 158.627 71.6584 156.751 71.6584 154.372C71.6584 149.122 69.6281 146.497 65.5676 146.497C63.6194 146.497 62.0915 147.204 60.9841 148.62C59.8767 150.035 59.323 151.891 59.323 154.187H53.9089C53.9089 150.599 54.9958 147.645 57.1697 145.328C59.364 142.99 62.1633 141.821 65.5676 141.821C69.0949 141.821 71.8943 142.929 73.9655 145.143C76.0368 147.338 77.0725 150.455 77.0725 154.495C77.0725 156.566 76.529 158.504 75.4421 160.309C74.3757 162.093 72.9812 163.406 71.2585 164.246C75.4831 165.805 77.5954 169.302 77.5954 174.736C77.5954 178.735 76.4778 181.924 74.2424 184.303C72.0276 186.661 69.1257 187.841 65.5368 187.841C61.989 187.841 59.1179 186.723 56.9236 184.488C54.7497 182.232 53.6628 179.207 53.6628 175.413H59.1076C59.1076 177.792 59.6819 179.689 60.8303 181.104C61.9787 182.498 63.5476 183.196 65.5368 183.196C67.5671 183.196 69.177 182.509 70.3664 181.135C71.5764 179.761 72.1814 177.669 72.1814 174.859C72.1814 169.425 69.6076 166.707 64.4602 166.707H61.1994V162.062Z" fill="black"/>
<path d="M244.965 183.85C244.965 184.895 244.697 185.827 244.16 186.647C243.622 187.458 242.89 188.098 241.962 188.566C243.076 189.084 243.93 189.792 244.526 190.69C245.131 191.589 245.434 192.604 245.434 193.737C245.434 195.612 244.799 197.102 243.53 198.205C242.26 199.299 240.571 199.846 238.461 199.846C236.342 199.846 234.643 199.294 233.364 198.19C232.094 197.087 231.459 195.603 231.459 193.737C231.459 192.595 231.762 191.569 232.368 190.661C232.973 189.753 233.823 189.055 234.916 188.566C233.998 188.098 233.271 187.458 232.734 186.647C232.206 185.827 231.943 184.895 231.943 183.85C231.943 182.033 232.529 180.593 233.701 179.528C234.872 178.464 236.454 177.932 238.447 177.932C240.449 177.932 242.036 178.464 243.207 179.528C244.379 180.593 244.965 182.033 244.965 183.85ZM241.874 193.562C241.874 192.507 241.557 191.657 240.922 191.013C240.297 190.358 239.467 190.031 238.432 190.031C237.397 190.031 236.567 190.354 235.942 190.998C235.327 191.643 235.019 192.497 235.019 193.562C235.019 194.606 235.322 195.441 235.927 196.066C236.542 196.691 237.387 197.004 238.461 197.004C239.536 197.004 240.37 196.701 240.966 196.096C241.572 195.49 241.874 194.646 241.874 193.562ZM241.42 183.981C241.42 183.054 241.152 182.292 240.615 181.696C240.078 181.091 239.355 180.788 238.447 180.788C237.538 180.788 236.821 181.076 236.293 181.652C235.766 182.219 235.502 182.995 235.502 183.981C235.502 184.958 235.766 185.734 236.293 186.311C236.83 186.887 237.553 187.175 238.461 187.175C239.37 187.175 240.087 186.887 240.615 186.311C241.152 185.734 241.42 184.958 241.42 183.981ZM272.68 188.039C272.68 189.758 272.216 191.164 271.288 192.258C270.361 193.342 269.203 193.884 267.817 193.884C267.094 193.884 266.425 193.747 265.81 193.474C265.204 193.2 264.526 192.731 263.774 192.067C263.022 191.394 262.48 190.979 262.148 190.822C261.826 190.656 261.479 190.573 261.108 190.573C260.453 190.573 259.936 190.827 259.555 191.335C259.184 191.843 258.998 192.507 258.998 193.327H256.171C256.171 191.657 256.616 190.29 257.504 189.226C258.393 188.151 259.56 187.614 261.005 187.614C261.728 187.614 262.411 187.761 263.056 188.054C263.71 188.337 264.389 188.801 265.092 189.445C265.805 190.09 266.323 190.495 266.645 190.661C266.977 190.827 267.333 190.91 267.714 190.91C268.369 190.91 268.901 190.637 269.311 190.09C269.721 189.543 269.926 188.859 269.926 188.039H272.68ZM297.817 199.553H283.476V197.106L290.58 189.357C291.606 188.215 292.333 187.263 292.763 186.501C293.203 185.729 293.422 184.958 293.422 184.187C293.422 183.171 293.134 182.351 292.558 181.726C291.992 181.101 291.225 180.788 290.258 180.788C289.106 180.788 288.212 181.14 287.578 181.843C286.943 182.546 286.625 183.508 286.625 184.729H283.066C283.066 183.43 283.359 182.263 283.945 181.228C284.54 180.183 285.385 179.372 286.479 178.796C287.582 178.22 288.852 177.932 290.287 177.932C292.358 177.932 293.989 178.454 295.18 179.499C296.381 180.534 296.982 181.97 296.982 183.806C296.982 184.87 296.679 185.988 296.074 187.16C295.478 188.322 294.496 189.646 293.129 191.13L287.914 196.711H297.817V199.553Z" fill="black"/>
<path fill-rule="evenodd" clip-rule="evenodd" d="M123.531 132.959C124.193 132.479 133.302 126.6 138.105 126.48H145.557C146.617 126.48 150.084 127.04 151.685 127.32L154.169 123.12C157.923 123.08 166.192 123.024 169.239 123.12C172.287 123.216 173.932 125.4 174.373 126.48V134.399L178.017 137.038L175.201 137.638V139.198L169.239 138.238L163.774 140.758C167.252 140.998 174.406 141.526 175.201 141.718C175.996 141.91 176.085 147.077 176.029 149.637H168.246C167.418 150.356 164.934 152.252 161.621 154.076C159.31 155.349 159.579 155.574 160.268 156.152C160.813 156.608 161.621 157.285 161.621 158.875C161.621 159.876 161.685 160.691 161.739 161.37C161.877 163.133 161.943 163.975 160.628 164.755C158.806 165.834 158.475 169.194 158.475 171.594C158.475 173.099 159.322 173.707 160.199 174.337C160.72 174.711 161.251 175.092 161.621 175.673C162.19 176.566 163.735 177.655 164.953 178.513C165.863 179.155 166.59 179.667 166.59 179.873C166.59 180.007 166.785 180.397 167.071 180.966C167.802 182.422 169.12 185.049 169.239 187.551C169.357 190.032 168.802 190.439 167.874 191.121C167.5 191.395 167.065 191.714 166.59 192.231C165.641 193.262 164.095 194.686 162.978 195.715C162.145 196.482 161.551 197.03 161.621 197.03C161.694 197.03 162.438 197.632 163.348 198.369L163.348 198.369C164.509 199.308 165.94 200.466 166.59 200.87C167.517 201.446 170.509 201.59 171.889 201.59H180.004C182.124 201.59 180.887 205.669 180.004 207.709H168.246L160.628 206.269L158.475 201.59L155.162 199.43L148.372 198.35L149.366 194.511C150.139 193.551 151.685 191.271 151.685 189.831C151.685 188.391 150.691 186.752 150.194 186.112C149.587 185.112 148.372 182.92 148.372 182.152C148.372 181.384 145.612 179.273 144.232 178.313C143.901 179.593 143.437 182.152 144.232 182.152C144.933 182.152 146.044 184.239 147.104 186.227C147.547 187.059 147.981 187.874 148.372 188.511C149.136 189.756 147.645 191.319 146.244 192.788C145.214 193.868 144.232 194.897 144.232 195.71C144.232 197.63 144.232 198.95 145.557 200.15C146.34 200.859 146.66 200.688 147.098 200.454C147.402 200.293 147.762 200.101 148.372 200.15C149.191 200.216 150.36 200.499 151.687 200.82C152.775 201.084 153.969 201.373 155.162 201.59C157.234 201.965 157.787 203.953 158.167 205.319C158.274 205.7 158.366 206.033 158.475 206.269C158.872 207.133 157.647 208.149 156.984 208.549L144.232 207.709C138.325 207.749 126.346 207.805 125.684 207.709C125.537 207.688 125.178 207.648 124.686 207.593L124.686 207.593H124.686C122.398 207.338 117.237 206.763 117.237 206.269V203.029C117.237 202.674 117.86 201.824 118.579 200.844L118.579 200.844C119.558 199.508 120.715 197.93 120.715 197.03C120.715 195.47 120.715 194.99 122.04 193.791C123.365 192.591 124.69 189.711 124.69 187.551V182.152C124.69 180.935 122.27 179.937 120.105 179.045L120.105 179.044C119.496 178.793 118.906 178.55 118.397 178.313C116.078 177.233 114.256 174.113 113.594 172.434C113.064 171.09 113.815 167.634 114.256 166.074C115.25 167.674 117.469 171.018 118.397 171.594C119.556 172.314 122.04 173.393 124.69 174.113C126.81 174.689 130.652 173.873 132.308 173.393L138.932 169.194C140.368 168.154 143.437 165.81 144.232 164.755C145.027 163.699 143.901 161.755 143.238 160.915C142.355 160.355 140.257 159.163 138.932 158.875C137.949 158.662 137.491 157.433 137.039 156.218C136.729 155.387 136.422 154.563 135.951 154.076C135.024 153.116 135.565 150.716 135.951 149.637C135.399 149.917 133.898 150.74 132.308 151.796C130.828 152.779 131.093 153.696 131.325 154.496L131.325 154.496C131.405 154.77 131.48 155.031 131.48 155.276C131.48 156.236 132.805 157.436 134.295 158.155C135.786 158.875 138.105 160.195 138.932 160.915C139.76 161.635 141.914 163.555 141.914 164.755C141.914 165.714 138.712 167.314 137.111 167.994C135.399 169.194 131.48 171.762 129.493 172.434C127.505 173.105 122.813 172.154 120.715 171.594L118.397 166.074C116.575 164.715 112.6 161.779 111.275 160.915C109.619 159.835 110.613 155.036 111.275 153.116C111.742 151.763 114.183 149.517 115.815 148.014L115.815 148.014C116.499 147.384 117.042 146.885 117.237 146.637C117.9 145.797 118.397 142.678 118.397 140.758C118.397 138.838 122.868 133.439 123.531 132.959ZM163.106 132.395H170.389C170.389 133.01 170.336 134.258 170.126 134.334C169.915 134.411 165.358 133.073 163.106 132.395ZM166.999 152.688C166.661 153.578 165.78 155.559 164.968 156.368C164.155 157.178 163.783 159.649 163.698 160.784C164.121 161.642 164.968 163.507 164.968 164.095C164.968 164.531 164.344 165.484 163.782 166.341C163.396 166.931 163.04 167.475 162.936 167.775C162.682 168.511 162.936 171.455 164.968 172.007C166.593 172.448 169.708 173.846 171.062 174.49L175.379 175.318L179.061 176.054L177.03 184.793H181.347L183.886 176.974C185.495 177.71 188.915 179.053 189.727 178.538C190.743 177.894 192.394 176.146 191.886 175.318C191.378 174.49 190.616 172.374 191.886 172.742C193.156 173.11 195.695 172.742 195.441 172.007C195.344 171.726 194.841 171.418 194.318 171.099C193.472 170.582 192.576 170.035 193.282 169.523C193.671 169.241 194.044 169.034 194.368 168.855C194.998 168.506 195.441 168.261 195.441 167.775C195.441 167.186 194.002 165.69 193.282 165.015L190.489 162.163L194.552 150.573H200.901C202.679 150.573 205.599 149.837 205.218 148.825C204.837 147.813 206.107 143.489 206.488 142.753C206.869 142.017 205.853 139.35 205.218 138.798C204.71 138.356 202.128 137.694 200.901 137.418V133.83H197.6L196.457 135.854L189.727 136.314C189.304 136.651 188.305 137.62 187.696 138.798C187.435 139.3 187.101 139.835 186.779 140.351C186.157 141.346 185.58 142.269 185.664 142.753C185.696 142.936 185.727 143.198 185.764 143.508C185.878 144.448 186.044 145.833 186.426 146.801C186.701 147.497 187.866 148.113 188.879 148.648C189.739 149.102 190.489 149.499 190.489 149.837C190.489 150.425 187.78 157.809 186.426 161.428H181.347L178.427 163.175V160.232C176.522 159.864 172.662 158.999 172.459 158.484C172.366 158.247 172.324 157.8 172.277 157.296C172.195 156.429 172.099 155.396 171.697 154.988C171.189 154.473 168.353 153.24 166.999 152.688Z" fill="black"/>
<path d="M249.736 257.672L252.566 238.907H258.534L253.222 268.766H247.172L243.686 251.171L240.241 268.766H234.17L228.838 238.907H234.847L237.657 257.651L241.163 238.907H246.229L249.736 257.672ZM273.885 262.655H265.661L264.062 268.766H257.684L267.015 238.907H272.531L281.924 268.766H275.485L273.885 262.655ZM266.974 257.631H272.552L269.763 246.987L266.974 257.631ZM292.517 257.856H289.523V268.766H283.494V238.907H293.112C296.134 238.907 298.465 239.693 300.105 241.265C301.76 242.824 302.587 245.046 302.587 247.93C302.587 251.895 301.144 254.671 298.26 256.257L303.489 268.479V268.766H297.009L292.517 257.856ZM289.523 252.832H292.948C294.151 252.832 295.054 252.435 295.655 251.642C296.257 250.836 296.558 249.762 296.558 248.423C296.558 245.428 295.389 243.931 293.051 243.931H289.523V252.832ZM305.469 268.766V238.907H314.698C317.815 238.907 320.18 239.604 321.794 240.999C323.421 242.38 324.234 244.41 324.234 247.09C324.234 248.607 323.899 249.913 323.229 251.007C322.559 252.1 321.643 252.9 320.481 253.406C321.821 253.789 322.853 254.561 323.578 255.723C324.302 256.872 324.665 258.294 324.665 259.989C324.665 262.887 323.865 265.075 322.265 266.552C320.679 268.028 318.376 268.766 315.354 268.766H305.469ZM311.499 255.785V263.762H315.354C316.434 263.762 317.255 263.427 317.815 262.758C318.376 262.088 318.656 261.137 318.656 259.907C318.656 257.227 317.685 255.853 315.744 255.785H311.499ZM311.499 251.396H314.636C317.002 251.396 318.184 250.173 318.184 247.725C318.184 246.372 317.911 245.401 317.364 244.813C316.817 244.225 315.928 243.931 314.698 243.931H311.499V251.396ZM343.215 255.846H333.823V263.762H344.938V268.766H327.793V238.907H344.897V243.931H333.823V250.986H343.215V255.846ZM361.417 262.655H353.194L351.594 268.766H345.216L354.547 238.907H360.064L369.456 268.766H363.017L361.417 262.655ZM354.506 257.631H360.084L357.295 246.987L354.506 257.631ZM380.05 257.856H377.056V268.766H371.026V238.907H380.644C383.666 238.907 385.997 239.693 387.638 241.265C389.292 242.824 390.119 245.046 390.119 247.93C390.119 251.895 388.677 254.671 385.792 256.257L391.021 268.479V268.766H384.541L380.05 257.856ZM377.056 252.832H380.48C381.684 252.832 382.586 252.435 383.187 251.642C383.789 250.836 384.09 249.762 384.09 248.423C384.09 245.428 382.921 243.931 380.583 243.931H377.056V252.832Z" fill="black"/>
<path d="M79.2873 290.915H54.2473V286.824L67.0134 269.905C68.9411 267.301 70.2741 265.168 71.0124 263.507C71.7712 261.825 72.1506 260.051 72.1506 258.185C72.1506 255.806 71.5969 253.878 70.4895 252.402C69.3821 250.925 67.926 250.187 66.1213 250.187C63.8449 250.187 62.0813 250.976 60.8303 252.556C59.5998 254.114 58.9846 256.37 58.9846 259.323H53.5398C53.5398 255.201 54.6677 251.869 56.9236 249.326C59.1794 246.783 62.2453 245.511 66.1213 245.511C69.6897 245.511 72.4992 246.608 74.55 248.803C76.6008 250.976 77.6262 253.878 77.6262 257.508C77.6262 261.938 75.3191 267.178 70.7048 273.227L60.738 286.27H79.2873V290.915Z" fill="black"/>
<path d="M242.607 281.812V284.756H242.167C240.175 284.786 238.583 285.333 237.392 286.397C236.201 287.461 235.493 288.97 235.268 290.923C236.411 289.722 237.87 289.122 239.648 289.122C241.533 289.122 243.017 289.786 244.101 291.114C245.195 292.442 245.742 294.156 245.742 296.255C245.742 298.423 245.102 300.181 243.823 301.529C242.553 302.867 240.883 303.536 238.813 303.536C236.684 303.536 234.955 302.75 233.627 301.177C232.309 299.605 231.65 297.544 231.65 294.996V293.78C231.65 290.04 232.558 287.11 234.374 284.991C236.201 282.872 238.823 281.812 242.241 281.812H242.607ZM238.784 291.993C238.002 291.993 237.285 292.212 236.63 292.652C235.986 293.091 235.512 293.677 235.209 294.41V295.494C235.209 297.076 235.541 298.335 236.205 299.273C236.87 300.201 237.729 300.665 238.784 300.665C239.838 300.665 240.673 300.269 241.288 299.478C241.904 298.687 242.211 297.647 242.211 296.358C242.211 295.069 241.899 294.019 241.274 293.208C240.649 292.398 239.819 291.993 238.784 291.993ZM272.68 291.729C272.68 293.448 272.216 294.854 271.288 295.948C270.361 297.032 269.203 297.574 267.817 297.574C267.094 297.574 266.425 297.437 265.81 297.164C265.204 296.89 264.526 296.421 263.774 295.757C263.022 295.083 262.48 294.668 262.148 294.512C261.826 294.346 261.479 294.263 261.108 294.263C260.453 294.263 259.936 294.517 259.555 295.025C259.184 295.533 258.998 296.197 258.998 297.017H256.171C256.171 295.347 256.616 293.98 257.504 292.916C258.393 291.841 259.56 291.304 261.005 291.304C261.728 291.304 262.411 291.451 263.056 291.744C263.71 292.027 264.389 292.491 265.092 293.135C265.805 293.78 266.323 294.185 266.645 294.351C266.977 294.517 267.333 294.6 267.714 294.6C268.369 294.6 268.901 294.327 269.311 293.78C269.721 293.233 269.926 292.549 269.926 291.729H272.68ZM287.592 290.953H289.76C290.854 290.943 291.718 290.66 292.353 290.103C292.997 289.546 293.32 288.741 293.32 287.686C293.32 286.67 293.051 285.884 292.514 285.328C291.987 284.761 291.176 284.478 290.082 284.478C289.125 284.478 288.339 284.756 287.724 285.313C287.109 285.86 286.801 286.578 286.801 287.466H283.242C283.242 286.373 283.53 285.376 284.106 284.478C284.692 283.58 285.502 282.881 286.537 282.383C287.582 281.875 288.749 281.622 290.038 281.622C292.167 281.622 293.837 282.159 295.048 283.233C296.269 284.297 296.879 285.782 296.879 287.686C296.879 288.643 296.572 289.546 295.956 290.396C295.351 291.236 294.565 291.871 293.598 292.3C294.77 292.701 295.659 293.331 296.264 294.19C296.879 295.049 297.187 296.075 297.187 297.266C297.187 299.18 296.528 300.704 295.209 301.836C293.901 302.969 292.177 303.536 290.038 303.536C287.988 303.536 286.308 302.989 284.999 301.895C283.691 300.801 283.036 299.346 283.036 297.53H286.596C286.596 298.467 286.909 299.229 287.534 299.815C288.168 300.401 289.018 300.694 290.082 300.694C291.186 300.694 292.055 300.401 292.69 299.815C293.325 299.229 293.642 298.379 293.642 297.266C293.642 296.143 293.31 295.279 292.646 294.673C291.982 294.068 290.995 293.765 289.687 293.765H287.592V290.953Z" fill="black"/>
<path fill-rule="evenodd" clip-rule="evenodd" d="M160.78 237.525C167.111 237.628 173.728 241.861 176.245 243.965C178.423 245.253 182.983 247.946 183.796 248.409C184.383 248.744 185.478 249.98 186.438 251.064L186.438 251.065C187.142 251.858 187.773 252.571 188.08 252.789C188.271 252.925 188.782 253.227 189.434 253.613C191.255 254.69 194.183 256.423 194.396 257.04C194.687 257.877 196.357 260.518 197.01 260.711C197.664 260.904 200.423 264.64 200.423 265.091C200.423 265.325 200.953 265.803 201.482 266.281C201.971 266.722 202.459 267.162 202.528 267.409C202.57 267.556 202.778 267.651 203.055 267.777C203.747 268.093 204.872 268.606 204.924 270.629C204.941 271.291 204.927 272.036 204.912 272.795C204.862 275.289 204.81 277.933 205.868 278.229C207.248 278.616 206.449 284.477 205.36 284.992C204.489 285.404 201.705 286.409 200.423 286.86L199.769 284.026C199.019 283.704 197.417 283.253 197.01 284.026C196.604 284.799 197.567 286.237 198.099 286.86C197.639 287.826 196.255 289.694 194.396 289.436C192.073 289.114 186.773 284.155 186.628 283.446C186.482 282.738 181.69 280.355 180.964 280.226C180.486 280.141 178.43 280.56 176.98 280.855C176.23 281.008 175.643 281.128 175.519 281.128C175.353 281.128 174.775 280.817 174.149 280.48L174.149 280.48L174.149 280.48C173.408 280.081 172.6 279.646 172.324 279.646C171.816 279.646 165.935 282.867 165.935 283.446C165.935 284.026 165.427 288.212 164.773 289.436C164.301 290.32 164.511 291.607 164.664 292.545V292.545C164.723 292.906 164.773 293.215 164.773 293.429V296.714C164.967 296.8 165.732 297.178 167.242 298.002C168.752 298.827 169.856 300.793 170.219 301.673H154.173C153.568 301.051 152.212 299.535 151.632 298.453C150.906 297.101 150.906 293.109 150.906 292.528V292.528C150.906 291.948 149.671 288.148 149.453 287.504C149.404 287.358 149.325 287.146 149.231 286.895L149.231 286.895C148.911 286.037 148.42 284.723 148.364 284.026C148.306 283.305 149.066 280.806 149.453 279.646C148.364 281.75 145.925 285.765 144.879 284.992C144.078 284.4 141.992 284.461 140.399 284.508C139.395 284.538 138.586 284.562 138.417 284.412C138.069 284.103 136.82 282.094 136.239 281.128L130.285 287.504V295.812C130.285 296.301 131.522 296.846 132.655 297.346L132.655 297.346C133.613 297.768 134.497 298.158 134.497 298.453V301.673H122.444C120.943 301.609 117.87 301.004 117.579 299.097C117.302 297.277 117.448 294.705 117.533 293.218C117.559 292.759 117.579 292.403 117.579 292.206C117.579 291.984 117.427 291.79 117.211 291.514C116.61 290.747 115.517 289.351 115.837 284.992C116.273 279.067 115.474 277.585 114.893 276.684L114.869 276.646C114.255 275.693 112.132 272.399 111.989 269.921C111.943 269.122 111.544 268.415 111.16 267.733C110.336 266.268 109.576 264.919 112.497 263.029C116.325 260.555 115.979 259.315 115.862 258.895C115.848 258.845 115.837 258.806 115.837 258.779C115.837 258.521 119.758 255.043 121.356 254.528C122.953 254.013 126.075 252.467 127.672 251.565C128.047 251.354 128.689 251.008 129.459 250.593C131.973 249.238 135.849 247.148 136.239 246.606C136.654 246.028 139.386 244.508 141.05 243.583C141.426 243.373 141.748 243.194 141.976 243.064C142.963 242.497 147.905 239.908 150.253 238.684L154.173 237.525H160.78ZM132.926 294.662C132.918 294.931 132.913 295.105 132.913 295.146C132.913 295.411 134.576 296.471 134.79 296.547C134.96 296.608 136.026 298.011 136.538 298.705L147.199 298.894C146.887 297.494 145.946 294.738 144.684 294.919C143.106 295.146 142.423 292.875 142.423 292.421C142.423 292.057 141.883 287.928 141.613 285.909H138.244C137.732 285.909 136.524 285 135.984 284.546L132.913 288.407C133.093 288.919 132.969 293.193 132.926 294.662ZM172.063 282.463L168.352 285.227C168.523 287.07 168.864 290.899 168.864 291.474C168.864 291.949 169.162 292.921 169.364 293.58C169.468 293.918 169.547 294.174 169.547 294.238C169.547 294.389 168.75 295.563 168.352 296.131L170.997 298.478C172.461 298.503 175.636 298.539 176.626 298.478C177.863 298.402 180.251 296.585 179.995 296.131C179.855 295.883 179.716 295.095 179.576 294.306L179.576 294.306C179.46 293.649 179.344 292.992 179.227 292.648C179.055 292.138 179.927 291.061 180.593 290.239C180.916 289.84 181.191 289.501 181.274 289.316C181.53 288.748 181.53 285.871 181.274 285.53C181.206 285.439 181.071 285.178 180.897 284.843C180.423 283.927 179.665 282.463 179.227 282.463C178.964 282.463 178.327 282.67 177.636 282.894C176.759 283.178 175.794 283.49 175.389 283.448C174.809 283.387 172.93 282.766 172.063 282.463ZM196.728 271.789H199.63L199.049 274.494H196.728V271.789ZM131.404 266.64C131.226 266.521 129.327 264.582 128.4 263.628C129.921 264.187 133.329 265.465 134.797 266.097C136.266 266.729 134.63 269.422 133.629 270.689C133.573 270.096 133.44 268.822 133.351 268.467C133.24 268.023 131.627 266.788 131.404 266.64ZM147.298 274.786C147.354 274.255 147.433 273.519 147.711 273.074C148.138 272.393 149.545 271.106 150.398 270.765C151.251 270.424 154.194 269.175 154.364 268.985C154.535 268.796 150.654 268.796 149.46 269.402C149.055 269.607 148.455 269.882 147.835 270.165C146.624 270.72 145.337 271.309 145.281 271.484C145.212 271.696 145.252 275.182 145.281 276.898L147.2 275.384C147.244 275.292 147.268 275.068 147.298 274.786Z" fill="black"/>
<path d="M250.638 369.073C249.476 370.33 248.047 371.281 246.352 371.923C244.67 372.552 242.825 372.866 240.815 372.866C237.383 372.866 234.717 371.807 232.817 369.688C230.916 367.555 229.939 364.458 229.884 360.398V355.025C229.884 350.909 230.78 347.744 232.571 345.53C234.375 343.301 237 342.187 240.446 342.187C243.686 342.187 246.126 342.987 247.767 344.586C249.421 346.186 250.378 348.695 250.638 352.113H244.773C244.609 350.212 244.212 348.92 243.583 348.237C242.954 347.539 241.97 347.191 240.63 347.191C239.003 347.191 237.821 347.785 237.082 348.975C236.344 350.164 235.961 352.058 235.934 354.656V360.07C235.934 362.79 236.337 364.773 237.144 366.017C237.964 367.247 239.304 367.863 241.163 367.863C242.353 367.863 243.317 367.623 244.055 367.145L244.588 366.776V361.3H240.364V356.747H250.638V369.073ZM259.94 372.456H253.91V342.597H259.94V372.456ZM278.367 366.345H270.143L268.544 372.456H262.166L271.497 342.597H277.014L286.406 372.456H279.967L278.367 366.345ZM271.456 361.321H277.034L274.245 350.677L271.456 361.321ZM308.833 372.456H302.803L293.985 352.871V372.456H287.956V342.597H293.985L302.824 362.202V342.597H308.833V372.456ZM331.136 347.621H323.753V372.456H317.704V347.621H310.444V342.597H331.136V347.621Z" fill="black"/>
<path d="M79.2873 394.605H54.2473V390.514L67.0134 373.595C68.9411 370.991 70.2741 368.858 71.0124 367.197C71.7712 365.515 72.1506 363.741 72.1506 361.875C72.1506 359.496 71.5969 357.568 70.4895 356.092C69.3821 354.615 67.926 353.877 66.1213 353.877C63.8449 353.877 62.0813 354.666 60.8303 356.245C59.5998 357.804 58.9846 360.06 58.9846 363.013H53.5398C53.5398 358.891 54.6677 355.558 56.9236 353.016C59.1794 350.473 62.2453 349.201 66.1213 349.201C69.6897 349.201 72.4992 350.298 74.55 352.493C76.6008 354.666 77.6262 357.568 77.6262 361.198C77.6262 365.628 75.3191 370.868 70.7048 376.917L60.738 389.96H79.2873V394.605Z" fill="black"/>
<path d="M245.727 387.582L237.202 406.933H233.466L241.977 388.461H230.947V385.604H245.727V387.582ZM256.587 411.133C256.387 411.133 256.287 411.033 256.287 410.833C256.287 410.733 256.307 410.673 256.347 410.653L266.757 399.313L256.167 396.193C256.047 396.153 255.987 396.063 255.987 395.923C255.987 395.783 256.027 395.703 256.107 395.683L279.777 381.223C279.817 381.203 279.867 381.193 279.927 381.193C279.987 381.193 280.047 381.213 280.107 381.253C280.187 381.293 280.227 381.363 280.227 381.463C280.227 381.543 280.197 381.613 280.137 381.673L269.757 392.983L280.377 395.653C280.517 395.693 280.587 395.763 280.587 395.863C280.587 396.003 280.537 396.103 280.437 396.163L256.737 411.073C256.697 411.113 256.647 411.133 256.587 411.133ZM303.222 399.33H305.873V402.187H303.222V406.933H299.662V402.187H290.449L290.346 400.019L299.545 385.604H303.222V399.33ZM294.081 399.33H299.662V390.424L299.399 390.893L294.081 399.33Z" fill="black"/>
<path fill-rule="evenodd" clip-rule="evenodd" d="M124.181 369.068L122.324 365.457C123.684 363.757 126.403 360.267 126.403 359.912C126.403 359.468 127.239 357.914 130.213 356.509C132.593 355.384 133.56 352.933 133.745 351.848C134.52 352.908 136.088 355.118 136.162 355.473C136.226 355.778 136.202 356.85 136.181 357.804C136.171 358.239 136.162 358.649 136.162 358.95C136.162 359.719 138.145 361.49 139.136 362.279V365.457L162.652 356.509V352.884C161.784 352.267 160.309 350.96 161.35 350.664C161.569 350.602 161.8 350.528 162.035 350.452C163.197 350.078 164.433 349.679 164.511 350.664C164.585 351.611 164.542 353.476 164.511 354.289V355.997L174.549 352.44C174.115 350.418 173.248 346.181 173.248 345.412C173.248 345.332 173.25 345.228 173.253 345.105C173.287 343.758 173.379 340.104 170.738 339.494C169.423 339.19 168.437 338.886 167.656 338.645C166.727 338.359 166.089 338.162 165.533 338.162C164.806 338.162 162.857 338.461 161.558 338.661C161.03 338.742 160.609 338.807 160.421 338.828C159.901 338.887 158.159 338.409 157.354 338.162C158.283 334.365 158.32 326.74 151.033 326.622C143.746 326.503 142.235 334.71 142.389 338.828C140.561 339.272 136.757 340.026 136.162 339.494C136.06 339.403 135.945 339.287 135.817 339.158C135.005 338.344 133.677 337.012 132.072 338.162C131.494 338.576 130.728 339.026 129.945 339.485C128.212 340.502 126.403 341.563 126.403 342.379C126.403 343.562 123.614 349.111 123.243 349.703C123.099 349.93 122.681 350.257 122.109 350.703C121.195 351.416 119.889 352.435 118.688 353.845C116.736 356.139 114.877 359.32 114.784 359.912C114.711 360.376 114.753 364.076 114.774 365.969C114.78 366.487 114.784 366.87 114.784 367.013C114.784 367.546 115.838 371.131 116.364 372.858L114.784 374.633L110.788 376.113L112.275 380.403L117.48 377.37C119.06 378.283 123.057 379.708 126.403 378.11C129.749 376.512 129.842 375.126 129.47 374.633L180.497 358.95C179.785 360.06 178.099 362.279 177.058 362.279C176.017 362.279 171.048 363.462 168.693 364.054C169.375 364.646 172.132 365.904 177.709 366.2C183.611 366.513 185.981 364.44 187.642 362.989C187.942 362.726 188.22 362.483 188.491 362.279C189.904 361.214 189.947 357.298 189.792 355.473L192.952 354.289L196.391 360.947L206.522 357.248L203.176 350.664L204.849 349.703L203.176 346.374H200.76L196.391 338.828L186.539 342.379L189.792 348.149C188.925 347.705 186.465 346.951 183.565 347.483C180.665 348.016 178.762 350.615 178.174 351.848L132.072 369.381C131.36 368.961 129.712 368.108 128.819 368.049C127.927 367.99 125.355 368.704 124.181 369.068ZM138.803 372.347L165.629 364.563C165.018 366.946 163.978 372.113 164.712 373.724C165.446 375.335 166.81 377.08 167.4 377.751C168.032 378.8 169.392 381.2 169.772 382.408C169.885 382.768 170.097 383.293 170.35 383.92C171.158 385.92 172.384 388.953 172.143 390.966C171.904 392.97 172.028 395.336 172.101 396.747C172.125 397.196 172.143 397.549 172.143 397.762C172.143 398.202 171.55 399.524 170.958 400.845C170.365 402.166 169.772 403.488 169.772 403.928C169.772 404.461 170.638 407.2 171.323 409.367C171.772 410.785 172.143 411.959 172.143 412.109C172.143 412.233 173.203 412.656 174.609 413.218C177.479 414.364 181.791 416.087 181.472 417.017C181.093 418.124 172.565 418.065 168.349 417.898C166.24 418.401 161.992 419.257 161.866 418.653C161.739 418.049 162.762 414.038 163.289 412.109C162.814 408.123 161.866 399.851 161.866 398.643C161.866 397.434 161.128 395.622 160.759 394.867L153.011 387.316L151.114 380.52L149.058 387.316C147.793 388.239 144.884 390.462 143.366 391.973C141.468 393.86 141.152 397.636 141.152 398.643C141.152 399.448 139.586 403.593 138.803 405.564V409.843C138.803 410.85 139.736 414.458 140.203 416.136L135.46 418.653L132.297 417.017C131.348 417.562 128.945 418.653 126.921 418.653H118.857C118.594 417.352 118.952 414.676 122.494 414.374C126.036 414.072 128.081 413.325 128.661 412.99L131.033 409.843L130.242 398.643C129.715 397.426 128.661 394.691 128.661 393.483C128.661 392.965 128.475 392.55 128.294 392.148C127.948 391.378 127.622 390.652 128.661 389.33C129.208 388.633 129.773 387.636 130.371 386.582C131.502 384.589 132.747 382.394 134.195 381.653C135.966 380.747 138.005 377.835 138.803 376.493V372.347Z" fill="black"/>
<path d="M250.577 466.2C250.426 469.604 249.469 472.181 247.705 473.931C245.942 475.681 243.453 476.556 240.241 476.556C236.864 476.556 234.273 475.449 232.468 473.234C230.677 471.006 229.782 467.834 229.782 463.719V458.694C229.782 454.593 230.711 451.434 232.571 449.219C234.43 446.991 237.014 445.877 240.323 445.877C243.577 445.877 246.044 446.786 247.726 448.604C249.421 450.423 250.385 453.034 250.618 456.438H244.568C244.513 454.333 244.185 452.884 243.583 452.091C242.995 451.284 241.909 450.881 240.323 450.881C238.709 450.881 237.568 451.448 236.898 452.583C236.228 453.704 235.872 455.556 235.831 458.14V463.78C235.831 466.747 236.16 468.784 236.816 469.891C237.486 470.999 238.627 471.552 240.241 471.552C241.827 471.552 242.92 471.17 243.522 470.404C244.123 469.625 244.465 468.223 244.547 466.2H250.577ZM274.049 463.903C274.049 467.909 273.099 471.019 271.198 473.234C269.312 475.449 266.687 476.556 263.323 476.556C259.974 476.556 257.342 475.463 255.428 473.275C253.514 471.074 252.543 467.998 252.516 464.047V458.94C252.516 454.839 253.466 451.639 255.366 449.343C257.267 447.032 259.905 445.877 263.282 445.877C266.605 445.877 269.223 447.011 271.137 449.281C273.051 451.537 274.022 454.709 274.049 458.797V463.903ZM267.999 458.899C267.999 456.206 267.616 454.203 266.851 452.89C266.085 451.578 264.896 450.922 263.282 450.922C261.683 450.922 260.5 451.557 259.735 452.829C258.969 454.087 258.572 456.008 258.545 458.592V463.903C258.545 466.514 258.935 468.442 259.714 469.686C260.493 470.917 261.696 471.532 263.323 471.532C264.896 471.532 266.065 470.93 266.83 469.727C267.596 468.51 267.985 466.631 267.999 464.088V458.899ZM283.145 471.142H293.727V476.146H277.116V446.287H283.145V471.142ZM315.662 463.903C315.662 467.909 314.712 471.019 312.811 473.234C310.924 475.449 308.299 476.556 304.936 476.556C301.587 476.556 298.955 475.463 297.041 473.275C295.127 471.074 294.156 467.998 294.129 464.047V458.94C294.129 454.839 295.079 451.639 296.979 449.343C298.88 447.032 301.518 445.877 304.895 445.877C308.217 445.877 310.836 447.011 312.75 449.281C314.664 451.537 315.634 454.709 315.662 458.797V463.903ZM309.612 458.899C309.612 456.206 309.229 454.203 308.464 452.89C307.698 451.578 306.508 450.922 304.895 450.922C303.296 450.922 302.113 451.557 301.347 452.829C300.582 454.087 300.185 456.008 300.158 458.592V463.903C300.158 466.514 300.548 468.442 301.327 469.686C302.106 470.917 303.309 471.532 304.936 471.532C306.508 471.532 307.677 470.93 308.443 469.727C309.209 468.51 309.598 466.631 309.612 464.088V458.899ZM331.341 468.312C331.341 467.095 331.027 466.179 330.398 465.564C329.783 464.935 328.655 464.286 327.014 463.616C324.02 462.481 321.867 461.155 320.554 459.637C319.242 458.106 318.585 456.302 318.585 454.223C318.585 451.708 319.474 449.691 321.251 448.174C323.042 446.642 325.312 445.877 328.06 445.877C329.892 445.877 331.526 446.266 332.961 447.046C334.397 447.811 335.497 448.898 336.263 450.306C337.042 451.715 337.432 453.314 337.432 455.105H331.423C331.423 453.711 331.122 452.651 330.521 451.927C329.933 451.188 329.079 450.819 327.957 450.819C326.905 450.819 326.084 451.134 325.496 451.762C324.909 452.378 324.615 453.212 324.615 454.264C324.615 455.085 324.943 455.83 325.599 456.5C326.255 457.156 327.417 457.84 329.085 458.551C331.997 459.603 334.11 460.895 335.422 462.427C336.748 463.958 337.412 465.906 337.412 468.271C337.412 470.869 336.584 472.899 334.93 474.362C333.276 475.825 331.027 476.556 328.183 476.556C326.255 476.556 324.498 476.16 322.913 475.367C321.327 474.574 320.082 473.439 319.18 471.963C318.291 470.486 317.847 468.743 317.847 466.733H323.897C323.897 468.456 324.232 469.707 324.902 470.486C325.572 471.265 326.665 471.655 328.183 471.655C330.288 471.655 331.341 470.541 331.341 468.312ZM352.763 468.312C352.763 467.095 352.448 466.179 351.82 465.564C351.204 464.935 350.076 464.286 348.436 463.616C345.442 462.481 343.288 461.155 341.976 459.637C340.663 458.106 340.007 456.302 340.007 454.223C340.007 451.708 340.896 449.691 342.673 448.174C344.464 446.642 346.734 445.877 349.482 445.877C351.314 445.877 352.947 446.266 354.383 447.046C355.819 447.811 356.919 448.898 357.685 450.306C358.464 451.715 358.854 453.314 358.854 455.105H352.845C352.845 453.711 352.544 452.651 351.943 451.927C351.355 451.188 350.5 450.819 349.379 450.819C348.326 450.819 347.506 451.134 346.918 451.762C346.33 452.378 346.036 453.212 346.036 454.264C346.036 455.085 346.364 455.83 347.021 456.5C347.677 457.156 348.839 457.84 350.507 458.551C353.419 459.603 355.531 460.895 356.844 462.427C358.17 463.958 358.833 465.906 358.833 468.271C358.833 470.869 358.006 472.899 356.352 474.362C354.697 475.825 352.448 476.556 349.605 476.556C347.677 476.556 345.92 476.16 344.334 475.367C342.748 474.574 341.504 473.439 340.602 471.963C339.713 470.486 339.269 468.743 339.269 466.733H345.319C345.319 468.456 345.653 469.707 346.323 470.486C346.993 471.265 348.087 471.655 349.605 471.655C351.71 471.655 352.763 470.541 352.763 468.312ZM380.993 446.287V466.959C380.966 470.062 380.111 472.441 378.43 474.095C376.748 475.736 374.335 476.556 371.19 476.556C367.991 476.556 365.544 475.722 363.849 474.054C362.167 472.386 361.326 469.973 361.326 466.815V446.287H367.396V466.836C367.396 468.531 367.67 469.741 368.217 470.466C368.764 471.19 369.755 471.552 371.19 471.552C372.626 471.552 373.61 471.197 374.143 470.486C374.677 469.761 374.95 468.579 374.964 466.938V446.287H380.993ZM396.919 468.312C396.919 467.095 396.604 466.179 395.975 465.564C395.36 464.935 394.232 464.286 392.591 463.616C389.597 462.481 387.444 461.155 386.132 459.637C384.819 458.106 384.163 456.302 384.163 454.223C384.163 451.708 385.051 449.691 386.829 448.174C388.62 446.642 390.889 445.877 393.637 445.877C395.469 445.877 397.103 446.266 398.539 447.046C399.974 447.811 401.075 448.898 401.841 450.306C402.62 451.715 403.009 453.314 403.009 455.105H397.001C397.001 453.711 396.7 452.651 396.098 451.927C395.51 451.188 394.656 450.819 393.535 450.819C392.482 450.819 391.662 451.134 391.074 451.762C390.486 452.378 390.192 453.212 390.192 454.264C390.192 455.085 390.52 455.83 391.176 456.5C391.833 457.156 392.995 457.84 394.663 458.551C397.575 459.603 399.687 460.895 401 462.427C402.326 463.958 402.989 465.906 402.989 468.271C402.989 470.869 402.162 472.899 400.508 474.362C398.853 475.825 396.604 476.556 393.76 476.556C391.833 476.556 390.076 476.16 388.49 475.367C386.904 474.574 385.66 473.439 384.758 471.963C383.869 470.486 383.424 468.743 383.424 466.733H389.474C389.474 468.456 389.809 469.707 390.479 470.486C391.149 471.265 392.243 471.655 393.76 471.655C395.866 471.655 396.919 470.541 396.919 468.312Z" fill="black"/>
<path d="M241.171 510.623H237.626V493.499L232.397 495.286V492.283L240.717 489.221H241.171V510.623ZM262.485 501.643C262.485 504.709 261.909 507.024 260.756 508.586C259.614 510.139 257.87 510.916 255.527 510.916C253.222 510.916 251.484 510.159 250.312 508.645C249.15 507.122 248.554 504.871 248.525 501.892V498.201C248.525 495.134 249.096 492.834 250.239 491.301C251.391 489.768 253.144 489.001 255.497 489.001C257.831 489.001 259.57 489.749 260.712 491.243C261.865 492.737 262.455 494.973 262.485 497.952V501.643ZM258.925 497.659C258.925 495.657 258.652 494.192 258.105 493.264C257.558 492.327 256.689 491.858 255.497 491.858C254.335 491.858 253.481 492.302 252.934 493.191C252.387 494.07 252.099 495.447 252.07 497.322V502.156C252.07 504.148 252.348 505.632 252.905 506.609C253.461 507.585 254.335 508.074 255.527 508.074C256.669 508.074 257.514 507.625 258.061 506.726C258.608 505.818 258.896 504.402 258.925 502.478V497.659ZM289.731 499.109C289.731 500.828 289.267 502.234 288.339 503.328C287.411 504.412 286.254 504.954 284.868 504.954C284.145 504.954 283.476 504.817 282.861 504.543C282.255 504.27 281.577 503.801 280.825 503.137C280.073 502.463 279.531 502.048 279.199 501.892C278.876 501.726 278.53 501.643 278.159 501.643C277.504 501.643 276.987 501.897 276.606 502.405C276.235 502.913 276.049 503.577 276.049 504.397H273.222C273.222 502.727 273.666 501.36 274.555 500.295C275.444 499.221 276.611 498.684 278.056 498.684C278.779 498.684 279.462 498.831 280.107 499.124C280.761 499.407 281.44 499.871 282.143 500.515C282.856 501.16 283.373 501.565 283.696 501.731C284.028 501.897 284.384 501.98 284.765 501.98C285.419 501.98 285.952 501.707 286.362 501.16C286.772 500.613 286.977 499.929 286.977 499.109H289.731ZM312.568 503.02H315.219V505.876H312.568V510.623H309.008V505.876H299.794L299.692 503.708L308.891 489.294H312.568V503.02ZM303.427 503.02H309.008V494.114L308.745 494.583L303.427 503.02Z" fill="black"/>
<path fill-rule="evenodd" clip-rule="evenodd" d="M120.389 481.311L123.168 480.812C123.103 484.727 122.284 492.638 119.531 492.955C116.09 493.351 110.558 471.686 110.355 465.021C110.153 458.357 110.895 449.464 111.637 447.255C111.782 446.822 112 446.003 112.277 444.964L112.277 444.964C113.412 440.7 115.536 432.722 117.699 432.436C120.389 432.08 121.244 432.863 121.825 434.431C122.29 435.685 122.406 436.948 122.406 437.423C121.458 436.711 119.406 435.343 118.785 435.571C118.009 435.856 116.36 439.133 115.955 440.843C115.55 442.553 115.28 451.446 115.078 461.689C114.876 471.933 118.674 492.088 119.531 488.773C120.217 486.121 120.63 483.412 120.751 482.388L120.389 481.311ZM192.964 450.764H198.654C198.103 449.417 197.113 446.657 197.568 446.394C198.023 446.132 199.586 446.576 200.31 446.831L201.241 448.962L206.466 444.756L201.862 440.331C201.413 441.314 200.33 443.248 199.585 443.117C198.654 442.953 198.292 441.806 198.292 441.369C198.292 440.932 198.137 437.982 195.757 438.037C193.854 438.081 192.619 440.932 192.24 442.352C190.913 442.225 188.174 441.576 187.843 440.003C187.429 438.037 187.429 436.07 188.361 435.797C189.105 435.579 189.809 434.941 190.067 434.65C187.343 435.032 181.884 437.392 181.843 443.772C181.801 450.152 186.378 453.922 188.671 455.009C187.843 453.703 186.281 450.786 186.654 449.562C186.817 449.027 186.827 448.478 186.837 447.991C186.855 447.086 186.868 446.394 187.843 446.394C189.043 446.394 190.861 446.686 191.619 446.831L192.964 450.764ZM117.699 441.314C117.699 440.51 118.895 439.969 120.309 439.329L120.389 439.293C121.061 439.002 122.406 438.594 122.406 439.293C122.406 439.904 122.779 440.382 123.105 440.8C123.246 440.981 123.378 441.15 123.468 441.314C123.561 441.483 123.812 441.584 124.139 441.716C124.87 442.01 125.981 442.457 126.562 444.155C126.612 444.303 126.659 444.438 126.702 444.562L126.702 444.562C126.939 445.249 127.062 445.604 127.097 445.967C127.134 446.357 127.069 446.757 126.935 447.584C126.841 448.166 126.713 448.959 126.562 450.109C126.168 453.098 125.931 452.981 125.508 452.773C125.282 452.661 125.002 452.524 124.618 452.823C123.516 453.679 122.768 454.206 121.423 455.009C120.361 455.644 120.493 456.513 120.646 457.523C120.687 457.792 120.729 458.07 120.751 458.357C120.854 459.723 121.061 462.163 121.423 462.533C121.786 462.902 122.406 464.434 122.406 465.021C122.406 465.324 122.902 466.002 123.39 466.668C123.846 467.292 124.295 467.905 124.32 468.189C124.362 468.659 123.57 470.634 123.168 471.563C122.656 472.32 121.589 473.834 121.423 473.834C121.361 473.834 121.345 474.155 121.323 474.634C121.271 475.73 121.181 477.649 120.389 478.404C119.25 479.489 118.009 478.732 118.009 478.111C118.009 478.017 118.015 477.601 118.024 476.959C118.076 473.382 118.229 462.788 118.009 461.689C117.834 460.811 117.896 459.243 117.954 457.771C117.982 457.07 118.009 456.391 118.009 455.819C118.009 454.045 118.009 453.441 118.785 452.512C119.406 451.77 120.113 451.365 120.389 451.256C120.044 450.764 119.24 449.541 118.785 448.579C118.453 447.877 118.367 447.324 118.282 446.767C118.221 446.371 118.16 445.974 118.009 445.52C117.682 444.534 117.693 442.569 117.698 441.593V441.593C117.698 441.488 117.699 441.394 117.699 441.314ZM146.998 454.544C147.959 454.743 148.681 454.892 148.681 454.685C148.681 454.566 148.751 454.325 148.839 454.023C149.107 453.107 149.541 451.626 148.681 451.256C147.657 450.816 146.728 449.589 146.359 449.101C146.316 449.043 146.28 448.996 146.253 448.962C146.212 448.91 146.174 448.727 146.118 448.461C145.822 447.04 145.029 443.235 140.666 444.155C136.629 445.006 135.241 446.985 134.53 447.999C134.329 448.286 134.182 448.495 134.045 448.579C133.947 448.639 133.791 448.73 133.594 448.843C132.536 449.453 130.302 450.741 129.648 451.693C129.027 452.597 128.217 454.28 127.889 455.009C129.765 454.473 133.823 453.563 135.048 454.206C136.273 454.848 138.903 457.897 140.065 459.341C140.065 459.341 141.287 454.685 143.036 454.206C144.032 453.932 145.725 454.282 146.998 454.544ZM171.445 450.764C171.049 451.262 170.09 451.9 169.286 452.436C168.588 452.901 168.005 453.289 168.005 453.441C169.399 453.235 172.584 453.099 174.179 454.206C175.77 455.309 176.582 457.295 176.995 458.305L176.995 458.305L176.995 458.305C177.1 458.561 177.179 458.755 177.239 458.856C177.398 459.124 177.867 458.482 178.443 457.692L178.443 457.692C178.936 457.017 179.507 456.233 180.032 455.819C180.942 455.099 183.549 454.763 184.739 454.685C184.377 454.434 183.456 453.834 182.67 453.441C181.95 453.08 181.341 451.811 180.904 450.901L180.904 450.901L180.904 450.9L180.904 450.9L180.904 450.9C180.744 450.568 180.608 450.284 180.497 450.109C180.215 449.662 180.174 448.707 180.126 447.625C180.104 447.12 180.081 446.588 180.032 446.067C179.887 444.533 178.563 444.387 176.824 444.195C176.705 444.182 176.585 444.169 176.463 444.155C174.549 443.936 173.142 444.974 172.842 445.52C172.591 445.978 172.542 446.741 172.503 447.362L172.503 447.362L172.503 447.362L172.503 447.362L172.503 447.363C172.495 447.483 172.488 447.599 172.479 447.705C172.428 448.361 172.185 449.836 171.445 450.764ZM165.591 452.823C165.133 452.626 164.404 452.992 163.435 453.478C162.214 454.092 160.612 454.896 158.689 455.009C157.551 454.901 155.214 454.685 154.969 454.685C154.816 454.685 154.357 454.382 153.775 453.999L153.775 453.999C153.191 453.614 152.484 453.147 151.838 452.823C150.949 452.377 150.692 453.063 150.42 453.785C150.298 454.111 150.172 454.445 149.984 454.685C149.381 455.454 149.026 460.88 149.984 460.839C150.751 460.807 154.673 460.691 156.539 460.637L157.989 458.856L159.089 460.03C161.141 460.367 165.404 460.92 166.041 460.435C166.837 459.827 166.625 453.268 165.591 452.823ZM163.509 481.25L163.509 481.25C162.62 479.648 161.353 477.365 157.439 477.319C154.17 477.281 153.117 479.544 152.479 480.915C152.238 481.431 152.057 481.821 151.838 481.914C150.837 482.336 146.287 482.97 144.936 482.864C143.586 482.759 143.036 479.115 143.036 478.111C143.036 477.309 144.536 475.313 145.286 474.415C144.786 474.221 143.636 473.771 143.036 473.517C142.285 473.2 142.186 468.078 143.036 466.335C143.567 465.246 144.781 465.497 145.874 465.723C146.53 465.859 147.143 465.985 147.537 465.807C148.064 465.568 148.654 464.745 149.199 463.984C149.741 463.228 150.239 462.533 150.588 462.533C151.148 462.533 154.622 462.286 156.289 462.163C156.405 464.223 156.619 468.447 156.539 468.87C156.459 469.292 151.738 471.088 149.387 471.933C150.771 471.933 153.688 471.859 154.288 471.563C154.888 471.267 155.872 470.912 156.289 470.771L157.989 473.834C158.206 473.077 158.649 471.51 158.689 471.299C158.729 471.088 160.239 470.613 160.99 470.401L159.939 468.87L159.089 462.533C160.189 462.515 163.03 462.49 165.591 462.533C167.738 462.568 169.435 464.814 170.561 466.305C171.114 467.036 171.529 467.585 171.792 467.602C172.432 467.645 174.392 465.508 175.293 464.434C175.909 465.842 177.103 469.007 176.943 470.401C176.743 472.144 173.742 473.147 172.842 473.147C172.122 473.147 168.008 471.317 166.041 470.401C164.174 470.841 161.13 471.69 163.89 471.563C167.341 471.405 172.892 474.679 173.142 474.996C173.392 475.313 173.192 480.805 171.792 481.914C170.672 482.801 166.057 482.284 163.89 481.914C163.766 481.714 163.642 481.49 163.509 481.25ZM147.837 456.345C147.937 456.98 148.077 458.467 147.837 459.341C147.537 460.435 146.917 462.621 146.648 462.985C146.38 463.35 143.973 463.714 143.504 463.633C143.036 463.552 141.817 462.176 141.817 461.406C141.817 460.637 142.836 457.641 143.036 457.317C143.196 457.058 146.303 456.561 147.837 456.345ZM171.792 455.819H168.005H167.814C167.878 456.912 168.005 459.147 168.005 459.341C168.005 459.511 168.325 460.178 168.569 460.687L168.569 460.687L168.569 460.687L168.57 460.688C168.674 460.906 168.765 461.095 168.811 461.204C168.933 461.495 171.111 464.394 172.185 465.807C172.849 465.015 174.309 463.251 174.83 462.533C175.223 461.992 175.212 461.342 175.201 460.62C175.193 460.141 175.185 459.631 175.293 459.098C175.511 458.021 174.852 457.68 174.428 457.462C174.326 457.409 174.238 457.364 174.179 457.317C174.127 457.276 174.048 457.205 173.95 457.117C173.467 456.685 172.5 455.819 171.792 455.819ZM161.723 487.237L161.723 487.237C161.777 487.145 161.825 487.063 161.871 486.995C162 486.804 161.998 486.444 161.997 486.049C161.994 485.272 161.991 484.364 162.983 484.364C164.179 484.364 168.926 484.121 171.15 483.999C171.584 484.863 172.63 486.728 173.335 487.279C174.041 487.829 174.421 489.317 174.524 489.992C171.61 490.086 165.667 490.445 165.206 491.125C164.631 491.976 161.717 497.28 161.219 498.251C161.092 498.498 160.904 499.207 160.658 500.136C159.935 502.868 158.709 507.494 157.078 507.766C155.138 508.09 154.226 502.611 153.991 501.202L153.991 501.202C153.961 501.024 153.942 500.91 153.934 500.883C153.928 500.864 153.915 500.822 153.895 500.758L153.895 500.758L153.895 500.758C153.667 500.007 152.557 496.366 151.838 495.134C151.583 494.698 151.2 494.008 150.785 493.262C149.928 491.72 148.939 489.94 148.681 489.668C148.549 489.528 148.065 489.088 147.487 488.561L147.487 488.561C146.383 487.556 144.936 486.237 144.936 486.105C144.936 486.073 144.925 486.019 144.91 485.95C144.83 485.573 144.653 484.737 145.69 484.566C146.221 484.478 147.233 484.497 148.301 484.517H148.301C149.698 484.543 151.193 484.57 151.838 484.364C152.825 484.047 153.411 486.082 153.78 487.365C153.836 487.56 153.887 487.737 153.934 487.886C154.217 488.793 156.755 489.182 157.989 489.263C160.629 489.12 161.332 487.912 161.723 487.237ZM155.566 485.458C155.17 485.249 154.86 483.324 154.755 482.388C155.604 482.999 157.378 484.225 157.685 484.245C158.068 484.268 160.57 485.458 160.39 485.673C160.209 485.887 158.226 485.887 157.685 485.887H157.685C157.144 485.887 156.062 485.72 155.566 485.458ZM154.915 480.812L160.832 483.999C161.04 482.584 160.992 479.725 159.133 479.604C157.275 479.483 155.547 480.359 154.915 480.812ZM163.531 498.251C162.016 499.058 162.31 501.515 162.418 502.424L162.418 502.424C162.43 502.52 162.439 502.599 162.444 502.657C163.6 503.569 166.053 505.463 166.625 505.748C166.948 505.909 167.792 506.666 168.766 507.54C169.947 508.601 171.319 509.832 172.185 510.379C173.764 511.376 176.341 512.374 176.943 511.946C177.132 511.812 177.462 511.35 177.879 510.768L177.879 510.767L177.879 510.767L177.879 510.767C178.789 509.494 180.109 507.647 181.266 507.387C182.615 507.083 185.876 506.785 187.338 506.674C187.075 506.009 186.55 504.503 186.55 503.804C186.55 502.93 186.084 500.418 185.464 499.38L185.444 499.347L185.444 499.347L185.444 499.347C184.803 498.275 182.916 495.12 181.688 493.808C180.446 492.482 178.998 491.951 174.911 491.514C171.642 491.164 167.79 491.878 166.272 492.279C166.255 493.353 166.159 495.643 165.91 496.212C165.6 496.922 165.206 497.359 163.531 498.251ZM189.295 510.878C188.418 514.939 186.49 516.577 185.464 517.29C184.437 518.002 181.468 518.786 180.186 518.786C179.418 518.786 178.139 518.376 176.876 517.971L176.876 517.971C176.033 517.701 175.197 517.433 174.524 517.29C174.275 517.237 174 517.186 173.71 517.132C172.036 516.82 169.819 516.406 168.784 515.01C167.812 513.699 164.512 510.522 162.983 509.097C162.8 510.094 162.544 512.231 162.983 512.801C163.531 513.514 167.974 515.936 168.784 516.364C169.594 516.791 172.185 518.501 172.185 519.499C172.185 520.297 162.354 520.544 157.439 520.567C157.735 518.715 158.489 515.01 159.133 515.01C159.778 515.01 159.939 511.4 159.939 509.595L160.832 505.178C161.19 504.547 162.014 503.389 162.444 503.804C162.612 503.966 163.287 504.49 164.139 505.15L164.139 505.15L164.14 505.151C166.029 506.616 168.784 508.753 168.784 509.097C168.784 509.496 171.818 511.733 173.335 512.801L175.293 513.799V515.58L176.943 515.936L177.42 513.158C177.971 511.851 179.596 509.139 181.688 508.74C184.302 508.242 185.762 508.17 186.55 508.17C186.8 508.17 187.167 508.113 187.553 508.053L187.553 508.053C188.383 507.924 189.295 507.781 189.295 508.17V510.878ZM141.817 504.199C142.41 504.422 144.388 504.267 146.645 504.089C148.379 503.953 150.278 503.804 151.838 503.804L152.648 501.783C152.378 500.761 151.736 498.493 151.328 497.601C150.921 496.709 150.665 496.303 150.588 496.212L147.837 497.601C148.354 496.052 149.077 492.82 147.837 492.279C147.075 491.946 146.543 491.212 146.023 490.493C145.484 489.749 144.958 489.022 144.2 488.773C142.899 488.345 142.983 486.628 143.025 485.77C143.031 485.646 143.036 485.54 143.036 485.458C143.036 484.812 141.817 484.364 139.184 484.364C136.551 484.364 135.664 484.364 132.497 484.566C130.458 484.696 130.205 485.296 129.932 485.945C129.78 486.304 129.623 486.678 129.152 486.995C128.617 487.357 127.763 487.571 126.89 487.791C125.61 488.113 124.291 488.445 123.872 489.263C123.309 490.364 123.168 492.183 123.168 492.955C123.784 493.681 125.157 495.349 125.72 496.212C126.424 497.289 129.417 497.694 130.473 497.601C131.223 497.535 131.307 496.315 131.387 495.139C131.42 494.662 131.452 494.191 131.529 493.808C131.598 493.459 131.668 493.028 131.74 492.578L131.74 492.578C131.944 491.32 132.173 489.906 132.497 489.668C132.849 489.409 134.344 489.56 135.048 489.668C136.721 490.538 140.065 492.584 140.065 493.808V498.716C140.065 500.017 140.769 503.804 141.817 504.199ZM133.026 502.959C133.7 503.043 137.944 503.276 138.142 502.657C138.341 502.038 138.817 499.902 138.817 499.19C138.817 498.478 138.142 495.768 137.944 495.134C137.797 494.665 136.761 493.602 136.055 492.877L136.055 492.877C135.807 492.622 135.599 492.409 135.485 492.279C135.048 491.777 133.383 490.606 133.423 491.442C133.448 491.977 133.441 492.513 133.433 493.148V493.148V493.148V493.148V493.148V493.148V493.148V493.148V493.148V493.148V493.148V493.148V493.148C133.428 493.506 133.423 493.894 133.423 494.332C133.423 495.546 132.8 497.601 132.497 497.601C132.193 497.601 131.202 498.813 131.202 499.19C131.202 499.492 132.418 501.828 133.026 502.959ZM124.618 500.883C123.516 498.43 123.468 496.635 123.468 495.63C123.851 496.504 125.007 498.251 126.562 498.251C128.116 498.251 128.936 498.877 129.152 499.19C129.152 499.958 129.261 501.627 129.695 502.163C130.013 502.557 130.477 503.411 130.966 504.312L130.966 504.313C131.31 504.947 131.667 505.606 131.995 506.142C132.63 507.181 134.295 509.004 135.048 509.786C134.916 509.241 134.652 508.075 134.652 507.766C134.652 507.457 133.991 505.494 133.661 504.551C134.996 504.433 137.762 504.199 138.142 504.199C138.618 504.199 139.184 504.509 139.451 505.178C139.595 505.539 139.918 505.9 140.322 506.353C140.667 506.739 141.072 507.191 141.474 507.766C142.094 508.652 142.213 509.598 142.273 510.071C142.297 510.264 142.312 510.379 142.346 510.379C142.399 510.379 142.646 510.853 142.959 511.455L142.959 511.455C143.353 512.212 143.852 513.172 144.2 513.639C144.825 514.476 145.955 516.364 146.074 517.115C146.17 517.715 145.858 519.667 145.69 520.567L129.695 520.926C129.681 520.73 129.663 520.155 129.695 519.418C129.725 518.715 132.068 517.083 133.28 516.239L133.28 516.239L133.28 516.239L133.28 516.239C133.655 515.978 133.922 515.792 133.978 515.733C134.168 515.532 136.516 514.755 137.666 514.393C136.939 514.281 135.319 514.016 134.652 513.848C133.877 513.653 133.137 511.646 132.75 510.597C132.721 510.519 132.694 510.446 132.669 510.379C132.402 509.662 130.929 508.297 129.708 507.165C129.301 506.787 128.921 506.435 128.624 506.142L128.489 506.01C127.308 504.847 125.679 503.245 124.618 500.883ZM185.464 456.718C184.118 456.773 181.584 457.858 180.911 458.357C180.663 458.541 180.308 458.735 179.938 458.937C179.309 459.28 178.637 459.647 178.377 460.03C177.963 460.637 177.497 462.355 177.497 463.633C177.497 463.705 177.497 463.782 177.497 463.866V463.867V463.868C177.491 465.283 177.478 468.326 178.894 468.87C179.394 469.062 179.895 469.196 180.369 469.324C181.314 469.578 182.153 469.803 182.67 470.401C183.446 471.299 183.86 472.672 183.653 473.834C183.609 474.079 183.547 474.364 183.48 474.672L183.48 474.672C183.23 475.82 182.913 477.277 183.239 478.111C183.653 479.169 184.894 481.914 185.981 481.914C187.067 481.914 188.102 482.532 188.929 483.266C189.591 483.852 190.791 484.972 191.309 485.458C191.757 479.848 192.519 468.495 191.981 467.971C191.309 467.315 190.378 466.168 190.067 465.458C189.757 464.748 189.653 462.783 189.653 461.406C189.653 460.03 189.498 459.167 188.929 457.756C188.474 456.627 186.429 456.594 185.464 456.718ZM124.618 466.335C125.364 467.594 130.473 466.769 130.473 466.605L133.423 466.114C132.682 466.842 130.686 468.413 128.624 468.87C126.562 469.327 125.829 469.06 125.72 468.87C125.104 470.419 123.731 473.813 123.168 474.996C122.464 476.475 124.618 479.604 124.618 478.732C124.618 477.952 125.124 477.082 125.567 476.321C125.619 476.231 125.671 476.142 125.72 476.055C126.068 475.448 126.949 475.159 128.001 474.814C128.369 474.693 128.758 474.565 129.152 474.415C130.674 473.834 131.529 472.614 131.995 471.933C132.163 471.687 132.607 471.182 133.126 470.591C134.047 469.542 135.206 468.222 135.485 467.602C135.76 466.993 137.152 466.907 138.367 466.832C139.083 466.788 139.738 466.747 140.065 466.605C140.945 466.223 141.132 465.24 141.132 464.434C141.132 463.964 140.115 462.544 139.228 461.305L139.228 461.305L139.228 461.305C138.594 460.42 138.027 459.628 137.944 459.341C137.746 458.653 136.011 457.317 135.048 456.718C134.745 456.53 134.564 456.371 134.417 456.241C134.097 455.96 133.937 455.819 133.026 455.819C131.697 455.819 129.152 456.345 127.165 457.317C125.534 458.115 124.09 459.84 123.237 460.858L123.237 460.858C123.051 461.08 122.893 461.269 122.768 461.406C122.11 462.129 123.663 464.733 124.472 466.09C124.524 466.177 124.573 466.259 124.618 466.335ZM197.911 469.073L197.911 469.073C197.065 468.86 196.205 468.643 195.757 468.517C194.982 468.299 193.688 467.261 193.378 466.769C193.253 466.571 192.893 466.398 192.507 466.212C191.936 465.936 191.309 465.634 191.309 465.185V463.328C191.309 463.204 191.292 463.025 191.273 462.82C191.225 462.3 191.161 461.61 191.309 461.204C191.474 460.75 191.378 459.117 191.309 458.357L191.981 456.991C191.533 456.19 190.647 454.511 190.688 454.206C190.74 453.823 192.188 452.239 193.378 452.075C194.568 451.911 194.982 451.983 196.327 452.403C197.671 452.823 198.344 453.402 198.654 454.206C198.759 454.478 198.793 454.848 198.828 455.231C198.897 455.979 198.97 456.776 199.585 456.991C199.984 457.131 200.468 457.401 200.941 457.665C201.571 458.017 202.179 458.357 202.534 458.357L202.552 458.357C203.164 458.357 203.62 458.357 203.62 460.435C203.62 461.743 203.459 463.075 203.338 464.079V464.079V464.079V464.079L203.338 464.079L203.338 464.08L203.338 464.081C203.265 464.686 203.206 465.171 203.206 465.458C203.206 465.663 203.31 465.82 203.469 466.062C203.904 466.723 204.752 468.013 205.017 472.614C205.3 477.532 204.538 479.906 203.994 481.595C203.844 482.064 203.71 482.48 203.62 482.883C203.206 484.741 201.861 486.105 200.465 486.995C199.347 487.708 197.24 487.886 196.327 487.886L196.12 470.771L199.585 469.5C199.147 469.385 198.533 469.23 197.912 469.073L197.911 469.073L197.911 469.073ZM196.327 512.801H191.589L192.331 487.886L193.378 469.5L194.692 470.401L196.327 512.801ZM159.69 445.105L161.04 443.732H167.591L162.24 446.214L159.94 448.168V452.182C162.24 451.812 167.071 450.904 167.991 450.228C169.142 449.383 170.442 448.01 170.442 447.482C170.442 447.391 170.451 447.053 170.464 446.551C170.527 444.138 170.69 437.945 170.442 437.29C170.202 436.656 168.708 435.3 167.991 434.702C168.458 435.564 169.182 437.448 168.341 438.082C167.784 438.502 166.619 438.253 165.096 437.926C163.751 437.638 162.125 437.29 160.39 437.29C158.556 437.29 156.243 438.042 154.285 438.678C152.292 439.327 150.666 439.855 150.288 439.349C149.687 438.546 149.604 436.409 149.638 435.441C148.754 435.899 147.017 437.068 147.137 438.082C147.257 439.096 148.02 440.581 148.387 441.198L148.087 447.482L148.987 449.594L158.239 452.868L157.789 448.168L155.039 446.214L151.038 444.102L156.739 443.732L158.239 445.528L159.69 445.105Z" fill="black"/>
<defs>
<linearGradient id="paint0_linear" x1="230.581" y1="0.755981" x2="230.581" y2="563.327" gradientUnits="userSpaceOnUse">
<stop stop-color="#CBEAEF"/>
<stop offset="1" stop-color="#4FCADE"/>
</linearGradient>
</defs>
</svg>
