<svg width="461" height="470" viewBox="0 0 461 470" fill="none" xmlns="http://www.w3.org/2000/svg">
<rect x="0.947876" y="0.261627" width="459.933" height="469.581" rx="6" fill="url(#paint0_linear)"/>
<path d="M163.477 73.0929L168.37 46.3449H178.565L169.512 89.0011H158.848L153.135 64.6847L147.539 89.0011H136.905L127.823 46.3449H138.047L142.94 73.0929L148.799 46.3449H157.53L163.477 73.0929ZM218.702 68.5519C218.702 72.7121 217.93 76.3937 216.387 79.5968C214.844 82.8 212.647 85.2707 209.795 87.0089C206.963 88.7277 203.731 89.5871 200.098 89.5871C196.465 89.5871 193.243 88.757 190.43 87.0968C187.618 85.4171 185.42 83.0246 183.838 79.9191C182.276 76.8136 181.455 73.2492 181.377 69.2257V66.8234C181.377 62.6437 182.139 58.9621 183.662 55.7785C185.205 52.5753 187.403 50.1046 190.254 48.3664C193.125 46.6281 196.387 45.7589 200.039 45.7589C203.653 45.7589 206.875 46.6183 209.707 48.3371C212.539 50.0558 214.737 52.507 216.299 55.6906C217.881 58.8546 218.682 62.4875 218.702 66.589V68.5519ZM208.243 66.7648C208.243 62.5265 207.53 59.3136 206.104 57.1261C204.698 54.9191 202.676 53.8156 200.039 53.8156C194.883 53.8156 192.159 57.6828 191.866 65.4171L191.836 68.5519C191.836 72.7316 192.53 75.9445 193.916 78.1906C195.303 80.4367 197.364 81.5597 200.098 81.5597C202.696 81.5597 204.698 80.4562 206.104 78.2492C207.51 76.0421 208.223 72.8683 208.243 68.7277V66.7648ZM260.127 68.5519C260.127 72.7121 259.356 76.3937 257.813 79.5968C256.27 82.8 254.073 85.2707 251.221 87.0089C248.389 88.7277 245.157 89.5871 241.524 89.5871C237.891 89.5871 234.668 88.757 231.856 87.0968C229.043 85.4171 226.846 83.0246 225.264 79.9191C223.702 76.8136 222.881 73.2492 222.803 69.2257V66.8234C222.803 62.6437 223.565 58.9621 225.088 55.7785C226.631 52.5753 228.828 50.1046 231.68 48.3664C234.551 46.6281 237.813 45.7589 241.465 45.7589C245.078 45.7589 248.301 46.6183 251.133 48.3371C253.965 50.0558 256.162 52.507 257.725 55.6906C259.307 58.8546 260.108 62.4875 260.127 66.589V68.5519ZM249.668 66.7648C249.668 62.5265 248.955 59.3136 247.53 57.1261C246.123 54.9191 244.102 53.8156 241.465 53.8156C236.309 53.8156 233.584 57.6828 233.291 65.4171L233.262 68.5519C233.262 72.7316 233.955 75.9445 235.342 78.1906C236.729 80.4367 238.789 81.5597 241.524 81.5597C244.121 81.5597 246.123 80.4562 247.53 78.2492C248.936 76.0421 249.649 72.8683 249.668 68.7277V66.7648ZM265.43 89.0011V46.3449H279.17C282.94 46.3449 286.328 47.2043 289.336 48.923C292.344 50.6222 294.688 53.0343 296.368 56.1593C298.067 59.2648 298.926 62.7511 298.946 66.6183V68.5812C298.946 72.4875 298.116 75.9933 296.455 79.0988C294.815 82.1847 292.491 84.6066 289.483 86.3644C286.495 88.1027 283.155 88.9816 279.463 89.0011H265.43ZM275.713 54.2843V81.091H279.287C282.237 81.091 284.502 80.0461 286.084 77.9562C287.666 75.8468 288.457 72.7218 288.457 68.5812V66.7355C288.457 62.6144 287.666 59.5089 286.084 57.4191C284.502 55.3293 282.198 54.2843 279.17 54.2843H275.713ZM326.221 77.6632C326.221 76.1593 325.684 74.9875 324.61 74.1476C323.555 73.3078 321.69 72.4386 319.014 71.5402C316.338 70.6418 314.151 69.7726 312.452 68.9328C306.924 66.2179 304.161 62.4875 304.161 57.7414C304.161 55.3781 304.844 53.298 306.211 51.5011C307.598 49.6847 309.551 48.2785 312.071 47.2824C314.59 46.2668 317.422 45.7589 320.567 45.7589C323.633 45.7589 326.377 46.3058 328.799 47.3996C331.241 48.4933 333.135 50.0558 334.483 52.0871C335.83 54.0988 336.504 56.4035 336.504 59.0011H326.25C326.25 57.2628 325.713 55.9152 324.639 54.9582C323.584 54.0011 322.149 53.5226 320.332 53.5226C318.496 53.5226 317.041 53.9328 315.967 54.7531C314.912 55.5539 314.385 56.5793 314.385 57.8293C314.385 58.923 314.971 59.9191 316.143 60.8175C317.315 61.6964 319.375 62.6144 322.325 63.5714C325.274 64.5089 327.696 65.5246 329.59 66.6183C334.2 69.2746 336.504 72.9367 336.504 77.6046C336.504 81.3351 335.098 84.2648 332.286 86.3937C329.473 88.5226 325.616 89.5871 320.713 89.5871C317.256 89.5871 314.121 88.9718 311.309 87.7414C308.516 86.4914 306.407 84.7921 304.981 82.6437C303.575 80.4757 302.871 77.9855 302.871 75.173H313.184C313.184 77.4582 313.77 79.1476 314.942 80.2414C316.133 81.3156 318.057 81.8527 320.713 81.8527C322.412 81.8527 323.75 81.4914 324.727 80.7687C325.723 80.0265 326.221 78.9914 326.221 77.6632Z" fill="black"/>
<path d="M252.91 154.635C252.759 158.04 251.802 160.617 250.039 162.367C248.275 164.117 245.787 164.992 242.574 164.992C239.197 164.992 236.606 163.884 234.801 161.67C233.01 159.441 232.115 156.269 232.115 152.154V147.13C232.115 143.028 233.044 139.87 234.904 137.655C236.763 135.426 239.347 134.312 242.656 134.312C245.91 134.312 248.377 135.221 250.059 137.04C251.754 138.858 252.718 141.469 252.951 144.874H246.901C246.846 142.768 246.518 141.319 245.917 140.526C245.329 139.719 244.242 139.316 242.656 139.316C241.042 139.316 239.901 139.883 239.231 141.018C238.561 142.139 238.206 143.992 238.165 146.576V152.215C238.165 155.182 238.493 157.219 239.149 158.327C239.819 159.434 240.96 159.988 242.574 159.988C244.16 159.988 245.253 159.605 245.855 158.839C246.457 158.06 246.798 156.659 246.88 154.635H252.91ZM270.783 151.662H261.391V159.578H272.506V164.582H255.362V134.722H272.465V139.747H261.391V146.801H270.783V151.662ZM295.609 164.582H289.58L280.762 144.997V164.582H274.732V134.722H280.762L289.601 154.328V134.722H295.609V164.582ZM317.913 139.747H310.53V164.582H304.48V139.747H297.22V134.722H317.913V139.747ZM331.911 158.47H323.687L322.087 164.582H315.71L325.041 134.722H330.557L339.95 164.582H333.51L331.911 158.47ZM325 153.446H330.578L327.789 142.802L325 153.446ZM360.551 134.722V155.394C360.524 158.498 359.669 160.877 357.988 162.531C356.306 164.172 353.893 164.992 350.748 164.992C347.549 164.992 345.102 164.158 343.407 162.49C341.725 160.822 340.884 158.409 340.884 155.251V134.722H346.954V155.271C346.954 156.966 347.228 158.176 347.775 158.901C348.322 159.626 349.313 159.988 350.748 159.988C352.184 159.988 353.168 159.632 353.701 158.922C354.235 158.197 354.508 157.014 354.522 155.374V134.722H360.551ZM372.908 153.672H369.914V164.582H363.885V134.722H373.503C376.524 134.722 378.856 135.508 380.496 137.081C382.15 138.639 382.978 140.861 382.978 143.746C382.978 147.711 381.535 150.486 378.65 152.072L383.88 164.295V164.582H377.399L372.908 153.672ZM369.914 148.647H373.339C374.542 148.647 375.444 148.251 376.046 147.458C376.648 146.651 376.948 145.578 376.948 144.238C376.948 141.244 375.779 139.747 373.441 139.747H369.914V148.647Z" fill="black"/>
<path d="M63.5326 161.568H67.0086C69.244 161.568 70.9666 160.881 72.1766 159.507C73.3866 158.133 73.9916 156.256 73.9916 153.877C73.9916 148.627 71.9613 146.002 67.9007 146.002C65.9525 146.002 64.4247 146.71 63.3172 148.125C62.2098 149.54 61.6561 151.396 61.6561 153.693H56.242C56.242 150.104 57.329 147.151 59.5028 144.833C61.6971 142.495 64.4964 141.326 67.9007 141.326C71.4281 141.326 74.2274 142.434 76.2987 144.649C78.37 146.843 79.4056 149.96 79.4056 154C79.4056 156.072 78.8622 158.01 77.7752 159.814C76.7088 161.598 75.3143 162.911 73.5916 163.752C77.8163 165.31 79.9286 168.807 79.9286 174.241C79.9286 178.24 78.8109 181.429 76.5755 183.808C74.3607 186.167 71.4588 187.346 67.87 187.346C64.3221 187.346 61.451 186.228 59.2567 183.993C57.0829 181.737 55.9959 178.712 55.9959 174.918H61.4408C61.4408 177.297 62.015 179.194 63.1634 180.609C64.3119 182.004 65.8807 182.701 67.87 182.701C69.9002 182.701 71.5101 182.014 72.6996 180.64C73.9095 179.266 74.5145 177.174 74.5145 174.365C74.5145 168.93 71.9408 166.213 66.7933 166.213H63.5326V161.568Z" fill="black"/>
<path d="M237.982 186.768H240.15C241.244 186.758 242.108 186.475 242.743 185.918C243.387 185.362 243.709 184.556 243.709 183.501C243.709 182.486 243.441 181.7 242.904 181.143C242.376 180.576 241.566 180.293 240.472 180.293C239.515 180.293 238.729 180.572 238.114 181.128C237.499 181.675 237.191 182.393 237.191 183.282H233.631C233.631 182.188 233.919 181.192 234.496 180.293C235.082 179.395 235.892 178.697 236.927 178.199C237.972 177.691 239.139 177.437 240.428 177.437C242.557 177.437 244.227 177.974 245.438 179.048C246.659 180.113 247.269 181.597 247.269 183.501C247.269 184.458 246.961 185.362 246.346 186.211C245.741 187.051 244.955 187.686 243.988 188.116C245.16 188.516 246.048 189.146 246.654 190.005C247.269 190.865 247.577 191.89 247.577 193.081C247.577 194.995 246.917 196.519 245.599 197.652C244.291 198.784 242.567 199.351 240.428 199.351C238.377 199.351 236.698 198.804 235.389 197.71C234.081 196.617 233.426 195.161 233.426 193.345H236.986C236.986 194.283 237.298 195.044 237.923 195.63C238.558 196.216 239.408 196.509 240.472 196.509C241.576 196.509 242.445 196.216 243.08 195.63C243.714 195.044 244.032 194.195 244.032 193.081C244.032 191.958 243.7 191.094 243.036 190.489C242.372 189.883 241.385 189.58 240.077 189.58H237.982V186.768ZM275.013 187.544C275.013 189.263 274.549 190.669 273.622 191.763C272.694 192.847 271.537 193.389 270.15 193.389C269.427 193.389 268.758 193.252 268.143 192.979C267.538 192.705 266.859 192.237 266.107 191.573C265.355 190.899 264.813 190.484 264.481 190.327C264.159 190.161 263.812 190.078 263.441 190.078C262.787 190.078 262.269 190.332 261.888 190.84C261.517 191.348 261.332 192.012 261.332 192.832H258.504C258.504 191.162 258.949 189.795 259.837 188.731C260.726 187.657 261.893 187.119 263.338 187.119C264.061 187.119 264.745 187.266 265.389 187.559C266.043 187.842 266.722 188.306 267.425 188.951C268.138 189.595 268.656 190 268.978 190.166C269.31 190.332 269.667 190.415 270.047 190.415C270.702 190.415 271.234 190.142 271.644 189.595C272.054 189.048 272.259 188.365 272.259 187.544H275.013ZM297.85 191.455H300.501V194.312H297.85V199.058H294.291V194.312H285.077L284.974 192.144L294.173 177.73H297.85V191.455ZM288.709 191.455H294.291V182.549L294.027 183.018L288.709 191.455Z" fill="black"/>
<path d="M134.957 136.841L139.823 137.33L140.715 139.227H137.633C136.741 139.227 134.876 141.185 134.876 141.614C134.876 142.042 133.984 144.245 134.876 145.041C135.589 145.677 135.173 148.121 134.876 149.263C135.552 148.814 137.05 147.855 137.633 147.611C138.216 147.366 140.202 144.735 141.121 143.449C141.094 144.245 140.975 145.946 140.715 146.387C140.39 146.937 138.525 149.263 137.633 149.875C136.741 150.487 133.984 151.099 133.984 150.854C133.984 150.658 130.199 149.426 128.306 148.834C128.442 148.508 128.631 147.745 128.306 147.305C127.982 146.864 126.874 146.142 126.36 145.836V139.778H128.306L128.712 142.776C129.848 141.287 132.579 140.084 132.579 137.33C132.579 134.576 130.71 132.96 129.656 131.389L128.712 135.188L126.36 135.556V133.291L124.251 132.985V135.188L118.413 134.821L117.601 131.027C115.898 131.884 112.524 134.442 112.654 137.82C112.784 141.198 116.006 142.532 117.601 142.776C118.142 142.103 119.467 140.757 120.44 140.757H124.251V145.836H122.873H119.71C119.71 146.836 119.856 149.043 120.44 149.875C121.024 150.707 123.224 151.405 124.251 151.649V156.912L120.44 157.524V160.339C120.44 161.807 122.981 161.971 124.251 161.869V167.927H126.36V161.379L128.306 161.012C129.739 160.788 132.767 160.204 133.416 159.666C134.065 159.127 134.065 157.606 133.984 156.912L130.01 155.26L128.712 156.912H126.36V152.078C126.901 152.139 128.047 152.31 128.306 152.506C128.631 152.751 134.308 155.443 134.876 155.627C135.33 155.774 137.173 155.892 138.039 155.933L144.365 153.73C143.337 154.872 141.169 157.23 140.715 157.524C140.261 157.818 138.471 157.973 137.633 158.013V159.666C137.633 160.788 137.811 163.129 138.525 163.521C139.239 163.912 139.255 165.193 139.174 165.785L137.633 168.416C137.633 169.946 137.941 173.63 139.174 176.127C140.715 179.248 142.824 178.268 144.365 178.942C145.905 179.615 145.987 181.879 145.743 183.531C145.549 184.853 144.365 185.591 143.797 185.795C144.283 186.713 145.257 188.659 145.257 189.1C145.257 189.54 144.283 193.975 143.797 196.137C143.148 196.198 141.623 196.369 140.715 196.565C139.58 196.81 138.525 198.768 137.633 199.808C136.741 200.849 140.796 203.296 141.283 203.296C141.769 203.296 144.202 202.44 145.257 202.44H151.826C152.204 200.808 152.961 197.471 152.961 197.177C152.961 196.81 151.745 192.22 151.826 191.853C151.907 191.486 154.016 183.164 153.529 181.389C153.14 179.97 152.502 178.513 152.231 177.962L159.855 178.636C162.207 178.493 167.316 178.073 168.938 177.534C170.966 176.861 175.346 177.106 177.049 177.534C178.752 177.962 178.184 182.368 180.049 183.959C181.542 185.232 186.024 186.326 188.079 186.713C188.133 187.937 188.208 190.617 188.079 191.547C187.949 192.477 186.024 194.423 185.078 195.28C183.942 195.831 181.071 197.055 178.671 197.544C176.27 198.034 176.589 201.012 177.049 202.44H185.078C185.024 202.195 184.948 201.595 185.078 201.155C185.24 200.604 186.943 199.38 187.024 198.768C187.089 198.279 188.565 196.524 189.295 195.708C189.728 195.199 190.609 194.007 190.674 193.322C190.739 192.637 191.89 189.65 192.458 188.243C192.701 189.344 193.188 191.682 193.188 192.22V195.708C192.539 196.218 191.015 197.3 190.106 197.544C189.198 197.789 188.809 200.42 188.727 201.705H196.513C196.351 200.788 196.124 198.915 196.513 198.768C196.903 198.621 197.595 197.483 197.892 196.932V185.795C197.892 185.061 195.837 183.735 194.81 183.164C194.675 182.389 194.388 180.655 194.323 179.921C194.242 179.003 194.648 177.656 196.027 177.534C197.405 177.412 197.568 181.818 197.892 183.164C198.216 184.51 199.595 184.449 200.244 185.122C200.893 185.795 201.217 189.589 201.217 190.018C201.217 190.36 206.245 192.363 208.76 193.322C208.219 192.955 207.024 192.086 206.57 191.547C206.002 190.874 206.408 188.977 205.921 187.019C205.434 185.061 206.164 184.082 205.921 182.368C205.678 180.655 204.867 177.167 204.867 176.127C204.867 175.086 203.975 172.149 203.407 170.374C202.953 168.955 200.298 166.152 199.027 164.928C195.026 163.398 186.813 160.204 185.97 159.666C184.916 158.993 180.212 159.666 178.184 159.36C176.157 159.054 169.101 160.339 167.884 160.339C166.668 160.339 161.558 160.706 160.342 160.706C159.125 160.706 154.259 159.849 152.961 159.666C151.923 159.519 150.582 157.116 150.042 155.933C149.852 153.73 149.49 149.226 149.555 148.834C149.636 148.345 150.204 145.285 150.691 144.735C151.177 144.184 151.664 140.818 151.502 140.084C151.339 139.35 147.933 137.636 147.041 137.33C146.149 137.024 147.852 133.965 147.933 133.597C148.014 133.23 147.203 131.456 147.041 131.027C146.911 130.685 145.094 128.233 144.202 127.05C142.743 127.091 139.661 127.148 139.012 127.05C138.363 126.952 136.903 129.171 136.254 130.293L134.957 131.823V136.841Z" fill="black"/>
<path d="M252.069 257.177L254.899 238.412H260.867L255.555 268.272H249.505L246.019 250.676L242.574 268.272H236.503L231.171 238.412H237.18L239.99 257.156L243.497 238.412H248.562L252.069 257.177ZM276.218 262.16H267.994L266.395 268.272H260.017L269.348 238.412H274.865L284.257 268.272H277.818L276.218 262.16ZM269.307 257.136H274.885L272.096 246.492L269.307 257.136ZM294.851 257.361H291.856V268.272H285.827V238.412H295.445C298.467 238.412 300.798 239.198 302.438 240.771C304.093 242.329 304.92 244.551 304.92 247.436C304.92 251.401 303.478 254.176 300.593 255.762L305.822 267.984V268.272H299.342L294.851 257.361ZM291.856 252.337H295.281C296.484 252.337 297.387 251.941 297.988 251.148C298.59 250.341 298.891 249.268 298.891 247.928C298.891 244.934 297.722 243.437 295.384 243.437H291.856V252.337ZM307.803 268.272V238.412H317.031C320.148 238.412 322.513 239.109 324.127 240.504C325.754 241.885 326.567 243.915 326.567 246.595C326.567 248.112 326.232 249.418 325.562 250.512C324.892 251.606 323.976 252.405 322.814 252.911C324.154 253.294 325.186 254.067 325.911 255.229C326.636 256.377 326.998 257.799 326.998 259.494C326.998 262.393 326.198 264.58 324.598 266.057C323.012 267.533 320.709 268.272 317.687 268.272H307.803ZM313.832 255.29V263.268H317.687C318.767 263.268 319.588 262.933 320.148 262.263C320.709 261.593 320.989 260.643 320.989 259.412C320.989 256.733 320.018 255.359 318.077 255.29H313.832ZM313.832 250.901H316.97C319.335 250.901 320.517 249.678 320.517 247.231C320.517 245.877 320.244 244.906 319.697 244.318C319.15 243.731 318.262 243.437 317.031 243.437H313.832V250.901ZM345.548 255.352H336.156V263.268H347.271V268.272H330.127V238.412H347.23V243.437H336.156V250.491H345.548V255.352ZM363.75 262.16H355.527L353.927 268.272H347.549L356.88 238.412H362.397L371.789 268.272H365.35L363.75 262.16ZM356.839 257.136H362.417L359.628 246.492L356.839 257.136ZM382.383 257.361H379.389V268.272H373.359V238.412H382.978C385.999 238.412 388.33 239.198 389.971 240.771C391.625 242.329 392.452 244.551 392.452 247.436C392.452 251.401 391.01 254.176 388.125 255.762L393.355 267.984V268.272H386.874L382.383 257.361ZM379.389 252.337H382.814C384.017 252.337 384.919 251.941 385.521 251.148C386.122 250.341 386.423 249.268 386.423 247.928C386.423 244.934 385.254 243.437 382.916 243.437H379.389V252.337Z" fill="black"/>
<path d="M63.5326 265.258H67.0086C69.244 265.258 70.9666 264.571 72.1766 263.197C73.3866 261.823 73.9916 259.946 73.9916 257.567C73.9916 252.317 71.9613 249.692 67.9007 249.692C65.9525 249.692 64.4247 250.4 63.3172 251.815C62.2098 253.23 61.6561 255.086 61.6561 257.383H56.242C56.242 253.794 57.329 250.841 59.5028 248.523C61.6971 246.185 64.4964 245.016 67.9007 245.016C71.4281 245.016 74.2274 246.124 76.2987 248.339C78.37 250.533 79.4056 253.65 79.4056 257.69C79.4056 259.761 78.8622 261.699 77.7752 263.504C76.7088 265.288 75.3143 266.601 73.5916 267.442C77.8163 269 79.9286 272.497 79.9286 277.931C79.9286 281.93 78.8109 285.119 76.5755 287.498C74.3607 289.857 71.4588 291.036 67.87 291.036C64.3221 291.036 61.451 289.918 59.2567 287.683C57.0829 285.427 55.9959 282.402 55.9959 278.608H61.4408C61.4408 280.987 62.015 282.884 63.1634 284.299C64.3119 285.694 65.8807 286.391 67.87 286.391C69.9002 286.391 71.5101 285.704 72.6996 284.33C73.9095 282.956 74.5145 280.864 74.5145 278.054C74.5145 272.62 71.9408 269.903 66.7933 269.903H63.5326V265.258Z" fill="black"/>
<path d="M244.94 281.317V284.262H244.5C242.508 284.291 240.917 284.838 239.725 285.902C238.534 286.967 237.826 288.475 237.601 290.429C238.744 289.227 240.204 288.627 241.981 288.627C243.866 288.627 245.35 289.291 246.434 290.619C247.528 291.947 248.075 293.661 248.075 295.761C248.075 297.929 247.435 299.686 246.156 301.034C244.886 302.372 243.216 303.041 241.146 303.041C239.017 303.041 237.289 302.255 235.96 300.682C234.642 299.11 233.983 297.05 233.983 294.501V293.285C233.983 289.545 234.891 286.615 236.708 284.496C238.534 282.377 241.156 281.317 244.574 281.317H244.94ZM241.117 291.498C240.335 291.498 239.618 291.718 238.963 292.157C238.319 292.596 237.845 293.182 237.542 293.915V294.999C237.542 296.581 237.875 297.841 238.539 298.778C239.203 299.706 240.062 300.17 241.117 300.17C242.171 300.17 243.006 299.774 243.622 298.983C244.237 298.192 244.544 297.152 244.544 295.863C244.544 294.574 244.232 293.524 243.607 292.714C242.982 291.903 242.152 291.498 241.117 291.498ZM275.013 291.234C275.013 292.953 274.549 294.359 273.622 295.453C272.694 296.537 271.537 297.079 270.15 297.079C269.427 297.079 268.758 296.942 268.143 296.669C267.538 296.395 266.859 295.927 266.107 295.263C265.355 294.589 264.813 294.174 264.481 294.017C264.159 293.851 263.812 293.768 263.441 293.768C262.787 293.768 262.269 294.022 261.888 294.53C261.517 295.038 261.332 295.702 261.332 296.522H258.504C258.504 294.852 258.949 293.485 259.837 292.421C260.726 291.346 261.893 290.809 263.338 290.809C264.061 290.809 264.745 290.956 265.389 291.249C266.043 291.532 266.722 291.996 267.425 292.64C268.138 293.285 268.656 293.69 268.978 293.856C269.31 294.022 269.667 294.105 270.047 294.105C270.702 294.105 271.234 293.832 271.644 293.285C272.054 292.738 272.259 292.055 272.259 291.234H275.013ZM289.925 290.458H292.093C293.187 290.448 294.051 290.165 294.686 289.608C295.331 289.052 295.653 288.246 295.653 287.191C295.653 286.176 295.384 285.389 294.847 284.833C294.32 284.266 293.509 283.983 292.416 283.983C291.458 283.983 290.672 284.262 290.057 284.818C289.442 285.365 289.134 286.083 289.134 286.971H285.575C285.575 285.878 285.863 284.882 286.439 283.983C287.025 283.085 287.835 282.387 288.871 281.888C289.916 281.381 291.083 281.127 292.372 281.127C294.5 281.127 296.17 281.664 297.381 282.738C298.602 283.803 299.212 285.287 299.212 287.191C299.212 288.148 298.905 289.052 298.29 289.901C297.684 290.741 296.898 291.376 295.931 291.805C297.103 292.206 297.992 292.836 298.597 293.695C299.212 294.555 299.52 295.58 299.52 296.771C299.52 298.685 298.861 300.209 297.542 301.342C296.234 302.474 294.51 303.041 292.372 303.041C290.321 303.041 288.641 302.494 287.333 301.4C286.024 300.306 285.37 298.851 285.37 297.035H288.929C288.929 297.972 289.242 298.734 289.867 299.32C290.501 299.906 291.351 300.199 292.416 300.199C293.519 300.199 294.388 299.906 295.023 299.32C295.658 298.734 295.975 297.885 295.975 296.771C295.975 295.648 295.643 294.784 294.979 294.179C294.315 293.573 293.329 293.27 292.02 293.27H289.925V290.458Z" fill="black"/>
<path fill-rule="evenodd" clip-rule="evenodd" d="M163.113 237.03C169.444 237.133 176.061 241.367 178.578 243.47C180.756 244.759 185.316 247.451 186.129 247.914C186.716 248.249 187.811 249.485 188.771 250.57L188.771 250.57C189.475 251.364 190.106 252.076 190.413 252.294C190.604 252.43 191.115 252.732 191.767 253.118C193.588 254.196 196.516 255.929 196.73 256.545C197.02 257.382 198.69 260.023 199.343 260.216C199.997 260.409 202.756 264.145 202.756 264.596C202.756 264.83 203.286 265.308 203.815 265.786C204.304 266.227 204.792 266.667 204.861 266.914C204.903 267.062 205.111 267.156 205.388 267.283C206.08 267.598 207.206 268.111 207.257 270.135C207.274 270.796 207.26 271.541 207.245 272.3C207.196 274.795 207.144 277.438 208.201 277.735C209.581 278.121 208.782 283.982 207.693 284.497C206.822 284.91 204.039 285.914 202.756 286.365L202.102 283.531C201.352 283.209 199.75 282.758 199.343 283.531C198.937 284.304 199.9 285.743 200.432 286.365C199.973 287.331 198.588 289.199 196.73 288.941C194.406 288.619 189.106 283.66 188.961 282.952C188.816 282.243 184.024 279.86 183.297 279.731C182.819 279.646 180.763 280.065 179.313 280.361C178.563 280.513 177.976 280.633 177.852 280.633C177.686 280.633 177.108 280.322 176.482 279.985L176.482 279.985L176.482 279.985C175.741 279.587 174.933 279.152 174.657 279.152C174.149 279.152 168.268 282.372 168.268 282.952C168.268 283.531 167.76 287.718 167.106 288.941C166.634 289.825 166.844 291.113 166.997 292.05V292.051C167.056 292.411 167.106 292.72 167.106 292.935V296.219C167.3 296.305 168.065 296.683 169.575 297.507C171.085 298.332 172.189 300.298 172.552 301.179H156.506C155.901 300.556 154.546 299.04 153.965 297.958C153.239 296.606 153.239 292.614 153.239 292.033V292.033C153.239 291.453 152.004 287.653 151.786 287.009C151.737 286.863 151.658 286.651 151.564 286.4L151.564 286.4C151.244 285.543 150.754 284.229 150.697 283.531C150.639 282.81 151.399 280.311 151.786 279.152C150.697 281.256 148.258 285.27 147.212 284.497C146.411 283.905 144.325 283.966 142.732 284.014C141.728 284.043 140.919 284.067 140.75 283.918C140.402 283.609 139.153 281.599 138.572 280.633L132.619 287.009V295.318C132.619 295.806 133.855 296.352 134.989 296.851L134.989 296.851C135.946 297.274 136.83 297.663 136.83 297.958V301.179H124.777C123.277 301.114 120.203 300.509 119.912 298.602C119.635 296.782 119.781 294.21 119.866 292.724C119.892 292.264 119.912 291.909 119.912 291.711C119.912 291.489 119.76 291.295 119.544 291.019C118.943 290.252 117.85 288.856 118.17 284.497C118.606 278.572 117.807 277.091 117.226 276.189L117.202 276.152C116.588 275.198 114.465 271.905 114.322 269.426C114.276 268.628 113.878 267.92 113.493 267.238C112.669 265.773 111.909 264.424 114.831 262.535C118.658 260.06 118.312 258.82 118.195 258.4C118.181 258.35 118.17 258.311 118.17 258.284C118.17 258.026 122.091 254.548 123.689 254.033C125.286 253.518 128.408 251.972 130.005 251.07C130.38 250.859 131.022 250.513 131.792 250.098C134.306 248.743 138.183 246.653 138.572 246.111C138.987 245.533 141.719 244.013 143.383 243.088C143.759 242.878 144.081 242.699 144.309 242.569C145.296 242.002 150.238 239.413 152.586 238.189L156.506 237.03H163.113ZM135.259 294.167C135.251 294.436 135.246 294.611 135.246 294.652C135.246 294.917 136.91 295.977 137.123 296.052C137.293 296.113 138.36 297.516 138.871 298.21L149.533 298.4C149.22 296.999 148.279 294.243 147.017 294.424C145.439 294.652 144.757 292.38 144.757 291.926C144.757 291.562 144.216 287.433 143.946 285.414H140.577C140.065 285.414 138.857 284.505 138.317 284.051L135.246 287.913C135.427 288.425 135.302 292.698 135.259 294.167ZM174.396 281.969L170.685 284.732C170.856 286.575 171.197 290.404 171.197 290.979C171.197 291.455 171.495 292.426 171.698 293.085C171.801 293.423 171.88 293.679 171.88 293.743C171.88 293.894 171.083 295.068 170.685 295.636L173.33 297.983C174.794 298.009 177.97 298.044 178.959 297.983C180.196 297.908 182.584 296.09 182.328 295.636C182.188 295.388 182.049 294.6 181.909 293.811L181.909 293.811C181.793 293.154 181.677 292.497 181.56 292.153C181.388 291.643 182.26 290.566 182.927 289.744C183.249 289.345 183.524 289.007 183.607 288.821C183.863 288.253 183.863 285.376 183.607 285.035C183.539 284.944 183.404 284.683 183.231 284.349C182.756 283.432 181.998 281.969 181.56 281.969C181.297 281.969 180.66 282.175 179.969 282.399C179.092 282.683 178.127 282.995 177.722 282.953C177.142 282.892 175.263 282.272 174.396 281.969ZM199.061 271.294H201.963L201.383 273.999H199.061V271.294ZM133.737 266.145C133.559 266.027 131.661 264.088 130.734 263.133C132.254 263.693 135.662 264.97 137.13 265.602C138.599 266.234 136.963 268.927 135.962 270.194C135.907 269.602 135.773 268.328 135.684 267.972C135.573 267.528 133.96 266.293 133.737 266.145ZM149.631 274.291C149.687 273.761 149.766 273.025 150.044 272.58C150.471 271.898 151.878 270.611 152.731 270.27C153.584 269.929 156.527 268.68 156.697 268.491C156.868 268.301 152.987 268.301 151.793 268.907C151.389 269.112 150.789 269.387 150.168 269.671C148.958 270.225 147.67 270.814 147.614 270.989C147.545 271.201 147.585 274.687 147.614 276.403L149.533 274.889C149.577 274.797 149.601 274.573 149.631 274.291Z" fill="black"/>
<path d="M252.089 342.102V362.774C252.062 365.878 251.208 368.256 249.526 369.911C247.844 371.551 245.431 372.372 242.287 372.372C239.087 372.372 236.64 371.538 234.945 369.87C233.263 368.202 232.422 365.789 232.422 362.63V342.102H238.493V362.651C238.493 364.346 238.766 365.556 239.313 366.281C239.86 367.005 240.851 367.368 242.287 367.368C243.722 367.368 244.707 367.012 245.24 366.301C245.773 365.577 246.046 364.394 246.06 362.754V342.102H252.089ZM276.28 371.962H270.25L261.432 352.377V371.962H255.403V342.102H261.432L270.271 361.708V342.102H276.28V371.962ZM286.155 371.962H280.126V342.102H286.155V371.962ZM310.202 362.015C310.052 365.42 309.095 367.997 307.331 369.747C305.567 371.497 303.079 372.372 299.866 372.372C296.489 372.372 293.898 371.264 292.094 369.049C290.303 366.821 289.407 363.649 289.407 359.534V354.509C289.407 350.408 290.337 347.25 292.196 345.035C294.055 342.806 296.639 341.692 299.948 341.692C303.202 341.692 305.67 342.601 307.351 344.42C309.047 346.238 310.011 348.849 310.243 352.254H304.193C304.138 350.148 303.81 348.699 303.209 347.906C302.621 347.099 301.534 346.696 299.948 346.696C298.335 346.696 297.193 347.263 296.523 348.398C295.853 349.519 295.498 351.372 295.457 353.956V359.595C295.457 362.562 295.785 364.599 296.441 365.707C297.111 366.814 298.253 367.368 299.866 367.368C301.452 367.368 302.546 366.985 303.147 366.219C303.749 365.44 304.091 364.039 304.173 362.015H310.202ZM333.674 359.718C333.674 363.724 332.724 366.835 330.824 369.049C328.937 371.264 326.312 372.372 322.949 372.372C319.599 372.372 316.967 371.278 315.053 369.09C313.139 366.889 312.168 363.813 312.141 359.862V354.755C312.141 350.654 313.091 347.455 314.992 345.158C316.892 342.847 319.531 341.692 322.908 341.692C326.23 341.692 328.848 342.827 330.762 345.096C332.676 347.352 333.647 350.524 333.674 354.612V359.718ZM327.625 354.714C327.625 352.021 327.242 350.018 326.476 348.706C325.71 347.393 324.521 346.737 322.908 346.737C321.308 346.737 320.126 347.373 319.36 348.644C318.594 349.902 318.198 351.823 318.17 354.407V359.718C318.17 362.33 318.56 364.257 319.339 365.502C320.119 366.732 321.322 367.347 322.949 367.347C324.521 367.347 325.69 366.746 326.456 365.543C327.221 364.326 327.611 362.446 327.625 359.903V354.714ZM345.785 361.051H342.791V371.962H336.762V342.102H346.38C349.402 342.102 351.733 342.888 353.373 344.461C355.028 346.019 355.855 348.241 355.855 351.126C355.855 355.09 354.412 357.866 351.528 359.452L356.757 371.674V371.962H350.277L345.785 361.051ZM342.791 356.027H346.216C347.419 356.027 348.322 355.63 348.923 354.838C349.525 354.031 349.825 352.958 349.825 351.618C349.825 348.624 348.657 347.127 346.319 347.127H342.791V356.027ZM379.614 371.962H373.585L364.767 352.377V371.962H358.737V342.102H364.767L373.606 361.708V342.102H379.614V371.962Z" fill="black"/>
<path d="M244.94 385.007V387.951H244.5C242.508 387.981 240.917 388.528 239.725 389.592C238.534 390.657 237.826 392.165 237.601 394.118C238.744 392.917 240.204 392.317 241.981 392.317C243.866 392.317 245.35 392.981 246.434 394.309C247.528 395.637 248.075 397.351 248.075 399.451C248.075 401.618 247.435 403.376 246.156 404.724C244.886 406.062 243.216 406.731 241.146 406.731C239.017 406.731 237.289 405.945 235.96 404.372C234.642 402.8 233.983 400.74 233.983 398.191V396.975C233.983 393.235 234.891 390.305 236.708 388.186C238.534 386.067 241.156 385.007 244.574 385.007H244.94ZM241.117 395.188C240.335 395.188 239.618 395.408 238.963 395.847C238.319 396.286 237.845 396.872 237.542 397.605V398.689C237.542 400.271 237.875 401.531 238.539 402.468C239.203 403.396 240.062 403.86 241.117 403.86C242.171 403.86 243.006 403.464 243.622 402.673C244.237 401.882 244.544 400.842 244.544 399.553C244.544 398.264 244.232 397.214 243.607 396.404C242.982 395.593 242.152 395.188 241.117 395.188ZM275.013 394.924C275.013 396.643 274.549 398.049 273.622 399.143C272.694 400.227 271.537 400.769 270.15 400.769C269.427 400.769 268.758 400.632 268.143 400.359C267.538 400.085 266.859 399.617 266.107 398.952C265.355 398.279 264.813 397.864 264.481 397.707C264.159 397.541 263.812 397.458 263.441 397.458C262.787 397.458 262.269 397.712 261.888 398.22C261.517 398.728 261.332 399.392 261.332 400.212H258.504C258.504 398.542 258.949 397.175 259.837 396.111C260.726 395.036 261.893 394.499 263.338 394.499C264.061 394.499 264.745 394.646 265.389 394.939C266.043 395.222 266.722 395.686 267.425 396.33C268.138 396.975 268.656 397.38 268.978 397.546C269.31 397.712 269.667 397.795 270.047 397.795C270.702 397.795 271.234 397.522 271.644 396.975C272.054 396.428 272.259 395.744 272.259 394.924H275.013ZM297.85 398.835H300.501V401.692H297.85V406.438H294.291V401.692H285.077L284.974 399.524L294.173 385.11H297.85V398.835ZM288.709 398.835H294.291V389.929L294.027 390.398L288.709 398.835Z" fill="black"/>
<path fill-rule="evenodd" clip-rule="evenodd" d="M135.243 358.01L131.746 360.288C130.693 360.024 128.428 359.516 127.797 359.595C127.403 359.644 127.177 360.087 126.826 360.777C126.473 361.471 125.994 362.414 125.089 363.456C123.644 365.12 122.681 365.074 122.381 364.843L121.252 362.664L118.431 361.575C117.642 360.849 115.972 359.119 115.611 358.01C115.159 356.624 117.529 355.337 118.431 355.04C119.334 354.743 121.027 353.654 122.381 352.366C123.296 351.496 124.573 350.58 125.444 349.956L125.444 349.956C125.86 349.657 126.184 349.425 126.33 349.297C126.691 348.98 126.48 347.515 126.33 346.822L113.015 333.157L129.489 344.742C130.203 344.016 131.813 342.861 132.535 344.049C132.715 344.345 132.873 344.633 133.021 344.905C133.618 345.996 134.069 346.822 135.243 346.822C136.417 346.822 138.44 346.492 139.305 346.327C139.569 346.657 140.321 347.515 141.224 348.307C142.126 349.099 143.255 349.957 143.706 350.287C144.383 351.079 145.782 352.901 145.963 353.852C146.024 354.174 146.26 354.672 146.555 355.295C147.347 356.967 148.569 359.545 147.994 362.07C147.362 364.843 146.376 368.044 145.963 369.298C147.58 370.322 151.311 372.328 153.297 372.17C154.223 372.096 155.495 371.926 156.797 371.751C158.982 371.458 161.249 371.155 162.098 371.279C163.452 371.477 169.093 372.071 170.447 371.279C171.404 370.719 173.883 370.95 175.852 371.134L175.852 371.134C176.669 371.211 177.398 371.279 177.894 371.279C179.39 371.279 183.704 373.675 185.077 374.438L185.078 374.438C185.259 374.539 185.388 374.611 185.454 374.645C185.608 374.726 186.158 374.822 186.885 374.949C188.819 375.287 192.009 375.843 192.337 376.923C192.524 377.539 193.023 378.514 193.574 379.592C194.351 381.111 195.232 382.836 195.496 384.052C195.948 386.131 198.317 389.003 199.445 388.706C199.638 388.655 199.815 388.616 199.98 388.579C200.777 388.402 201.292 388.287 202.041 387.22C202.943 385.933 203.62 384.151 203.62 383.458V380.487L204.749 383.458C204.899 383.953 205.335 385.399 205.877 387.22C206.494 390.236 204.771 390.051 203.986 389.967C203.766 389.944 203.62 389.928 203.62 389.993C203.62 390.231 200.837 391.082 199.445 391.478C200.461 391.874 202.718 392.548 203.62 392.072C204.523 391.597 207.757 389.63 209.262 388.706C208.585 389.993 207.095 392.666 206.554 393.062C206.012 393.458 203.996 393.888 203.056 394.053L206.554 394.944C205.764 395.637 204.072 397.102 203.62 397.419C203.237 397.688 201.758 397.592 200.39 397.502C199.745 397.46 199.125 397.419 198.656 397.419C197.189 397.419 196.173 396.825 194.255 394.944C193.661 394.361 193.208 394.016 192.862 393.753C192.09 393.165 191.851 392.982 191.773 391.478C191.712 390.301 191.519 389.153 191.355 388.174L191.355 388.174C191.215 387.341 191.096 386.632 191.096 386.131C191.096 386.031 191.099 385.894 191.102 385.73V385.73V385.73V385.729V385.729V385.729V385.729V385.729V385.729V385.729C191.136 384.117 191.225 379.897 189.178 381.874C186.921 384.052 186.244 387.319 186.244 388.013C186.244 388.217 186.106 388.75 185.932 389.422C185.518 391.027 184.897 393.425 185.454 394.053C186.244 394.944 187.147 396.033 187.259 398.904C187.329 400.676 186.926 402.334 186.608 403.647C186.41 404.462 186.244 405.144 186.244 405.638C186.244 406.667 185.717 408.905 185.454 409.895C184.551 409.994 182.701 410.311 182.52 410.786C182.34 411.262 181.693 412.503 181.392 413.064H174.396C174.434 411.248 174.915 407.519 176.54 407.123C178.165 406.727 180.452 405.572 181.392 405.043V401.083C181.392 400.927 181.54 400.771 181.695 400.607C182.129 400.149 182.617 399.634 180.038 398.904C177.24 398.112 174.359 395.934 173.268 394.944L171.576 391.478C171.801 393.293 172.681 397.122 174.396 397.914C176.111 398.706 176.54 399.499 176.54 399.796L175.186 402.865L173.268 408.905L170.447 409.895V411.678L162.098 410.786C161.947 410.06 161.985 408.311 163.339 407.123C165.031 405.638 167.514 405.043 168.191 405.043C168.868 405.043 171.576 403.954 171.576 402.865V398.904C171.576 398.64 171.237 397.974 169.883 397.419C168.191 396.726 167.062 395.043 166.837 394.053C166.656 393.26 166.385 392.402 166.272 392.072L171.576 389.993H164.467C163.865 390.488 162.165 391.478 160.179 391.478C159.16 391.478 157.931 391.679 156.735 391.874L156.735 391.874H156.735C155.019 392.154 153.371 392.422 152.507 392.072C151.333 391.597 148.031 389.63 146.527 388.706V392.072H138.628C137.834 392.072 136.788 391.868 135.779 391.672C134.352 391.394 132.998 391.13 132.535 391.478C132.347 391.62 132.158 391.728 131.991 391.824C131.459 392.129 131.144 392.309 131.746 393.062C132.053 393.448 132.65 393.863 133.266 394.29L133.266 394.29L133.266 394.29C134.232 394.962 135.243 395.664 135.243 396.33V404.35C133.589 404.317 129.963 403.618 128.699 401.083L126.33 396.33V393.062C126.33 392.736 126.244 392.356 126.157 391.971C125.98 391.19 125.8 390.391 126.33 389.993C126.961 389.518 128.173 388.475 128.699 388.013L136.71 387.22C134.83 386.395 130.595 384.785 128.699 384.943C127.675 385.029 126.714 384.818 125.935 384.648C124.911 384.424 124.201 384.268 124.073 384.943C123.892 385.894 122.869 387.848 122.381 388.706L124.073 392.567C124.148 393.657 123.915 395.934 122.381 396.33C120.846 396.726 117.228 396.891 115.611 396.924V389.993L118.431 387.22C118.845 385.174 120.214 380.963 122.381 380.487C124.547 380.012 127.496 379.893 128.699 379.893L133.212 380.487L129.489 378.507C129.226 376.692 128.699 372.883 128.699 372.17C128.699 371.773 128.855 370.828 129.029 369.778C129.246 368.469 129.489 366.998 129.489 366.229C129.489 365.699 129.275 365.285 129.092 364.932C128.796 364.36 128.582 363.946 129.489 363.456C130.035 363.162 130.549 363.004 131.032 362.856L131.032 362.856C131.848 362.606 132.575 362.383 133.212 361.575C134.025 360.545 134.905 358.77 135.243 358.01ZM127.639 350.83V353.043L129.747 351.836L127.639 350.83ZM161.126 365.422C160.08 365.904 158.877 366.381 157.99 366.468C157.54 366.511 156.987 366.576 156.348 366.65C154.527 366.862 152.009 367.156 149.189 367.286L149.104 365.877C151.853 365.75 154.258 365.47 156.073 365.259L156.073 365.259C156.735 365.181 157.319 365.114 157.813 365.065C158.359 365.012 159.312 364.665 160.378 364.173C161.405 363.699 162.416 363.151 163.027 362.793L163.919 363.967C163.27 364.347 162.211 364.922 161.126 365.422ZM161.2 361.115C161.569 360.899 161.669 360.461 161.422 360.137C161.176 359.813 160.677 359.725 160.308 359.941C160.164 360.025 159.968 360.118 159.766 360.188C159.554 360.26 159.391 360.288 159.298 360.288C158.941 360.288 158.603 360.341 158.338 360.382L158.334 360.383C158.047 360.427 157.838 360.46 157.634 360.463C157.593 360.464 157.542 360.463 157.464 360.459L157.43 360.458L157.43 360.458C157.364 360.455 157.282 360.452 157.202 360.451C157.02 360.448 156.735 360.453 156.452 360.548C156.252 360.614 156.072 360.699 155.932 360.767L155.848 360.808C155.738 360.861 155.655 360.901 155.568 360.937C155.507 360.962 155.429 360.977 155.224 361.003L155.194 361.007C155.02 361.029 154.727 361.066 154.442 361.183C154.307 361.239 154.247 361.259 154.163 361.276C153.177 361.474 152.173 361.57 151.119 361.67C150.854 361.695 150.586 361.721 150.315 361.748C149.874 361.793 149.557 362.143 149.608 362.53C149.659 362.917 150.058 363.194 150.499 363.15C150.744 363.125 150.993 363.101 151.247 363.077L151.247 363.077L151.247 363.077L151.247 363.077L151.247 363.077L151.248 363.077L151.248 363.077L151.249 363.077C152.311 362.977 153.435 362.87 154.522 362.652C154.773 362.601 154.953 362.532 155.127 362.46C155.176 362.44 155.243 362.426 155.455 362.399L155.478 362.396C155.657 362.374 155.953 362.336 156.248 362.215C156.391 362.157 156.533 362.088 156.645 362.033L156.707 362.003C156.84 361.938 156.936 361.896 157.022 361.867L157.019 361.868C157.02 361.868 157.059 361.86 157.177 361.861C157.23 361.862 157.282 361.864 157.348 361.867L157.39 361.869C157.468 361.872 157.567 361.876 157.668 361.874C158.001 361.868 158.32 361.818 158.573 361.778L158.614 361.772L158.642 361.768C158.453 361.857 158.299 361.955 158.176 362.032L158.117 362.07C158.101 362.08 158.086 362.089 158.072 362.098C158.031 362.122 157.915 362.163 157.634 362.192C157.53 362.203 157.428 362.211 157.312 362.219H157.312L157.214 362.227C157.067 362.238 156.895 362.252 156.729 362.278C155.786 362.426 154.954 362.635 154.059 362.957C153.672 363.097 153.31 363.265 152.986 363.417L152.967 363.425L152.967 363.425C152.64 363.578 152.35 363.713 152.053 363.824C151.457 364.046 150.815 364.132 150.075 364.232C149.883 364.257 149.685 364.284 149.479 364.314C149.041 364.378 148.745 364.742 148.818 365.126C148.891 365.51 149.305 365.77 149.743 365.706C149.896 365.683 150.058 365.662 150.227 365.64C150.984 365.54 151.879 365.421 152.681 365.122C153.044 364.987 153.389 364.826 153.699 364.682L153.74 364.662C154.072 364.507 154.368 364.371 154.67 364.262C155.455 363.979 156.177 363.798 157.011 363.667C157.099 363.653 157.208 363.643 157.353 363.632L157.434 363.626L157.434 363.626L157.434 363.626C157.553 363.617 157.691 363.607 157.825 363.593C158.14 363.56 158.598 363.493 158.984 363.259C159.05 363.219 159.106 363.185 159.155 363.155C159.397 363.007 159.463 362.966 159.61 362.942C159.964 362.883 160.225 362.808 160.54 362.69C160.948 362.536 161.137 362.122 160.962 361.764C160.885 361.606 160.75 361.485 160.588 361.413C160.813 361.322 161.023 361.218 161.2 361.115ZM158.968 358.216C159.215 358.54 159.115 358.978 158.745 359.194C158.566 359.299 158.385 359.348 158.212 359.365C158.138 359.372 158.072 359.372 158.03 359.372L157.972 359.371L157.931 359.371C157.825 359.371 157.734 359.391 157.552 359.432C157.491 359.446 157.419 359.462 157.333 359.48L157.32 359.483L157.32 359.483L157.32 359.483C156.967 359.559 156.584 359.64 156.206 359.707C154.559 359.996 152.949 360.268 151.184 360.359C150.74 360.382 150.36 360.085 150.334 359.697C150.308 359.308 150.646 358.974 151.089 358.951C152.73 358.866 154.24 358.613 155.891 358.323C156.235 358.263 156.59 358.187 156.953 358.11L156.971 358.106L157.001 358.099L157.053 358.087L157.054 358.087C157.259 358.039 157.599 357.96 157.931 357.96C157.948 357.96 157.965 357.96 157.979 357.961C158.329 357.826 158.749 357.927 158.968 358.216ZM150.606 356.563C150.162 356.563 149.802 356.879 149.802 357.269C149.802 357.658 150.162 357.974 150.606 357.974H155.713C156.157 357.974 156.517 357.658 156.517 357.269C156.517 356.879 156.157 356.563 155.713 356.563H150.606ZM155.539 353.376C155.974 353.452 156.256 353.824 156.169 354.206C156.087 354.569 155.846 354.852 155.607 355.056C155.363 355.264 155.07 355.432 154.783 355.563C154.23 355.816 153.553 355.995 153.03 355.995C152.393 355.995 151.773 355.908 151.207 355.818C151.086 355.799 150.967 355.779 150.852 355.76L150.852 355.76L150.852 355.76L150.852 355.76L150.852 355.76L150.852 355.76L150.852 355.76C150.409 355.688 150.004 355.621 149.594 355.584C149.153 355.544 148.832 355.197 148.878 354.81C148.923 354.422 149.318 354.141 149.76 354.181C150.241 354.224 150.729 354.304 151.178 354.378L151.178 354.378L151.179 354.378C151.286 354.396 151.392 354.413 151.495 354.43C152.047 354.518 152.547 354.584 153.03 354.584C153.215 354.584 153.635 354.498 154.041 354.312C154.234 354.224 154.386 354.13 154.487 354.044C154.57 353.973 154.59 353.933 154.593 353.926L154.594 353.925C154.683 353.545 155.105 353.3 155.539 353.376ZM148.684 352.317C148.242 352.284 147.853 352.572 147.815 352.96C147.777 353.348 148.105 353.69 148.548 353.723C148.756 353.738 148.99 353.747 149.201 353.754L149.201 353.754L149.201 353.754L149.201 353.754L149.202 353.754C149.31 353.758 149.412 353.762 149.501 353.766C149.796 353.781 150.046 353.804 150.271 353.853C150.621 353.93 150.908 353.958 151.269 353.958C151.713 353.958 152.073 353.642 152.073 353.253C152.073 352.863 151.713 352.547 151.269 352.547C151.029 352.547 150.874 352.531 150.661 352.484C150.287 352.402 149.917 352.374 149.589 352.358C149.449 352.351 149.325 352.346 149.208 352.342C149.027 352.336 148.863 352.33 148.684 352.317ZM147.314 350.376C147.439 350.002 147.886 349.789 148.312 349.898C148.385 349.917 148.467 349.937 148.554 349.958L148.554 349.958L148.555 349.958L148.555 349.958C148.91 350.044 149.364 350.153 149.77 350.335C149.796 350.346 149.83 350.36 149.89 350.384L149.897 350.386C149.949 350.407 150.021 350.435 150.092 350.466C150.217 350.521 150.47 350.638 150.652 350.85C150.918 351.162 150.846 351.604 150.491 351.838C150.155 352.059 149.686 352.015 149.411 351.746C149.405 351.743 149.398 351.739 149.389 351.735L149.374 351.728C149.336 351.712 149.294 351.695 149.235 351.672L149.229 351.67C149.178 351.65 149.107 351.622 149.039 351.592C148.793 351.482 148.548 351.422 148.221 351.342L148.221 351.342L148.22 351.342C148.11 351.315 147.991 351.286 147.858 351.252C147.433 351.142 147.189 350.75 147.314 350.376ZM146.572 347.981C146.331 347.653 145.833 347.56 145.46 347.771C145.088 347.982 144.981 348.419 145.222 348.746C145.48 349.097 145.776 349.366 146.197 349.524C146.551 349.657 146.939 349.683 147.255 349.704L147.294 349.707C147.737 349.737 148.123 349.446 148.157 349.058C148.191 348.669 147.86 348.33 147.418 348.3C147.025 348.274 146.907 348.256 146.829 348.227L146.828 348.227C146.8 348.216 146.725 348.188 146.572 347.981ZM149.496 368.088C149.052 368.079 148.684 368.388 148.675 368.778C148.665 369.167 149.017 369.49 149.461 369.498C149.945 369.508 150.428 369.53 150.925 369.553L150.925 369.553L151.152 369.564C151.724 369.59 152.314 369.615 152.912 369.615H154.585C155.029 369.615 155.389 369.299 155.389 368.909C155.389 368.52 155.029 368.204 154.585 368.204H152.912C152.36 368.204 151.806 368.181 151.236 368.155L151.013 368.145L151.013 368.145C150.518 368.121 150.008 368.098 149.496 368.088Z" fill="black"/>
<defs>
<linearGradient id="paint0_linear" x1="230.915" y1="0.261627" x2="230.915" y2="469.842" gradientUnits="userSpaceOnUse">
<stop stop-color="#C99D31"/>
<stop offset="1" stop-color="#996E1A"/>
</linearGradient>
</defs>
</svg>
