<svg width="777" height="163" viewBox="0 0 777 163" fill="none" xmlns="http://www.w3.org/2000/svg">
<path d="M262.771 11.0215H206.599C207.359 30.5059 208.88 72.8963 208.88 86.5829C208.88 100.27 205.648 137.908 204.032 155.016H266.762C264.957 140.189 261.345 105.744 261.345 86.5829C261.345 67.4217 262.295 28.2248 262.771 11.0215Z" fill="#EF090B"/>
<path fill-rule="evenodd" clip-rule="evenodd" d="M478.62 9.02551H530.23C537.263 23.4725 553.668 57.9551 563.02 80.3099C572.373 102.665 588.588 138.668 595.526 153.875H530.23L527.093 137.908H472.917C471.111 138.858 467.499 141.729 467.499 145.606V153.875H422.448C435.184 128.308 462.025 73.0674 467.499 56.6435C472.974 40.2196 477.194 18.0549 478.62 9.02551ZM524.242 125.932H472.917C473.677 121.37 476.51 109.166 481.756 96.8479C482.334 95.4912 482.912 94.1279 483.488 92.7696C489.446 78.7125 495.174 65.1976 498.294 65.1976C501.151 65.1976 505.997 75.7351 511.336 87.3468C512.391 89.6408 513.465 91.9768 514.547 94.2817C519.794 105.459 523.196 120.039 524.242 125.932Z" fill="#EF090B"/>
<path d="M608.021 9.02551H657.484C664.179 16.2256 681.286 34.2704 696.162 48.8491C714.758 67.0724 727.402 78.2295 730.749 78.2295C734.097 78.2295 733.725 70.4195 730.749 45.5019C728.369 25.5679 726.782 12.8785 726.287 9.02551C730.444 8.59797 740.867 7.74289 749.301 7.74289C757.734 7.74289 766.017 8.59797 769.104 9.02551C767.956 26.4503 765.703 65.4972 765.877 82.2867C766.052 99.0763 768.102 136.211 769.104 152.68H721.28C715.742 145.029 701.343 126.316 688.051 112.674C671.436 95.6222 653.728 78.3517 649.138 76.6028C644.547 74.8539 646.077 78.1331 646.077 82.2867C646.077 86.4404 648.045 98.6828 647.607 113.986C647.258 126.228 650.814 144.883 652.635 152.68H610.224C610.443 130.6 611.011 83.1175 611.536 69.8257C612.061 56.534 609.411 23.754 608.021 9.02551Z" fill="#EF090B"/>
<path d="M20.4038 10.1661H186.924L195.763 45.8083C186.924 43.4321 166.508 38.6798 155.559 38.6798H131.893V83.1613C131.893 100.726 136.835 139.143 139.306 156.156H70.0177C72.774 142.375 78.2866 108.995 78.2866 85.7275V40.3906H51.4837C38.0252 40.3906 18.6929 46.2835 10.709 49.2299C11.6595 45.8083 14.0166 37.2541 15.8415 30.4108C17.6664 23.5675 19.6434 14.063 20.4038 10.1661Z" fill="#EF090B"/>
<path d="M283.301 10.1661H449.821L458.66 45.8083C449.821 43.4321 429.405 38.6798 418.456 38.6798H394.789V83.1613C394.789 100.726 399.732 139.143 402.203 156.156H332.914C335.671 142.375 341.183 108.995 341.183 85.7275V40.3906H314.38C300.922 40.3906 281.59 46.2835 273.606 49.2299C274.556 45.8083 276.913 37.2541 278.738 30.4108C280.563 23.5675 282.54 14.063 283.301 10.1661Z" fill="#EF090B"/>
<path fill-rule="evenodd" clip-rule="evenodd" d="M527.093 137.408H472.917C472.786 137.477 472.646 137.556 472.498 137.644C470.607 138.78 467.499 141.51 467.499 145.106V153.375H422.448C423.513 151.236 424.677 148.89 425.92 146.375C439.525 118.837 462.483 71.1934 467.499 56.1435C467.622 55.7756 467.744 55.4048 467.865 55.0313C467.944 54.7881 468.023 54.5437 468.102 54.2983C473.282 38.0978 477.247 17.2209 478.62 8.52551H530.23C537.263 22.9725 553.668 57.4551 563.02 79.8099C571.143 99.225 584.442 128.935 592.344 146.375C593.541 149.016 594.614 151.376 595.526 153.375H530.23L527.093 137.408ZM464.727 40.6893C468.124 27.6207 470.667 14.0119 471.705 7.43377L472.638 1.52551H534.607L536.523 5.46144C543.563 19.9207 560.043 54.5563 569.478 77.1083C578.784 99.3513 594.958 135.266 601.895 150.47L603.212 153.358L603.225 152.111C603.443 130.091 604.012 82.4727 604.541 69.0497C605.044 56.3255 602.457 24.0623 601.052 9.18333L600.329 1.52551H660.534L662.611 3.75911C669.268 10.9191 686.294 28.8769 701.062 43.3496C710.33 52.4322 718.008 59.6477 723.733 64.5612C724.512 65.2296 725.245 65.847 725.932 66.4142C725.615 61.7117 724.901 55.0661 723.799 45.8319C721.42 25.9089 719.836 13.2426 719.344 9.41904L718.427 2.29685L725.57 1.56224C729.834 1.12376 740.524 0.242889 749.301 0.242889C758.119 0.242889 766.729 1.12975 770.065 1.59169L776.518 2.48538L776.089 8.9859C774.936 26.4836 772.705 65.2445 772.877 81.7138C773.05 98.2939 775.086 135.245 776.091 151.755L776.544 159.18H717.706L715.61 156.285C710.16 148.756 695.988 130.351 683.037 117.059C674.759 108.563 666.258 100.064 659.285 93.4949C657.214 91.5434 655.301 89.7845 653.585 88.2594C653.707 89.5914 653.843 91.1287 653.984 92.8998C654.432 98.5297 654.833 105.689 654.604 113.686C654.282 124.957 657.645 142.855 659.452 150.588L661.459 159.18H605.869L606.414 160.375H524.471L521.334 144.408H475.133C475.033 144.506 474.939 144.606 474.853 144.706C474.625 144.974 474.533 145.145 474.499 145.219V160.375H411.14L416.182 150.254C422.534 137.504 432.405 117.348 441.365 98.3453C450.413 79.1558 458.282 61.6601 460.859 53.9299C460.938 53.6918 461.017 53.4523 461.096 53.2116L456.843 52.0683C452.56 50.9169 445.404 49.1728 438.003 47.7223C430.466 46.2452 423.199 45.1798 418.456 45.1798H401.789V82.6613C401.789 99.6256 406.642 137.521 409.13 154.65L410.293 162.656H324.376L326.05 154.284C328.788 140.596 334.183 107.774 334.183 85.2275V46.8906H314.38C302.244 46.8906 283.903 52.3912 276.029 55.297L268.677 58.0104C268.481 68.7284 268.345 78.8508 268.345 86.0829C268.345 104.765 271.902 138.818 273.711 153.67L274.667 161.516H196.34L197.063 153.858C198.692 136.616 201.88 99.3624 201.88 86.0829C201.88 79.8333 201.556 67.4459 201.133 54.0002L193.946 52.0683C189.663 50.9169 182.507 49.1728 175.106 47.7223C167.569 46.2452 160.302 45.1798 155.559 45.1798H138.892V82.6613C138.892 99.6256 143.745 137.521 146.233 154.65L147.396 162.656H61.479L63.1536 154.284C65.891 140.596 71.2866 107.774 71.2866 85.2275V46.8906H51.4837C39.3475 46.8906 21.0063 52.3912 13.1325 55.297L0.304688 60.031L3.96435 46.8564C4.91201 43.4448 7.26191 34.9169 9.07783 28.1072C10.8409 21.4957 12.7821 12.1754 13.5333 8.32549L14.6376 2.66611H192.4L200.511 35.3714C200.181 25.956 199.853 17.1698 199.604 10.7944L199.32 3.52145H269.967L269.768 10.7148C269.58 17.5291 269.318 27.7702 269.07 38.8392C270.008 35.4088 271.059 31.5397 271.975 28.1072C273.738 21.4957 275.679 12.1754 276.43 8.32549L277.534 2.66611H455.297L464.727 40.6893ZM652.683 78.3674C652.756 78.4232 652.83 78.48 652.904 78.5377C660.193 84.185 674.486 98.2524 688.051 112.174C701.343 125.816 715.742 144.529 721.28 152.18H769.104C768.98 150.139 768.84 147.779 768.689 145.18C767.622 126.816 766.031 96.4948 765.877 81.7867C765.703 64.9972 767.956 25.9503 769.104 8.52551C766.017 8.09797 757.734 7.24289 749.301 7.24289C744.064 7.24289 738.061 7.57251 733.267 7.92478C730.339 8.13988 727.863 8.36342 726.287 8.52551C726.455 9.83753 726.751 12.1742 727.161 15.4726C727.955 21.8606 729.18 31.8559 730.749 45.0019C733.725 69.9195 734.097 77.7295 730.749 77.7295C727.402 77.7295 714.758 66.5724 696.162 48.3491C681.286 33.7704 664.179 15.7256 657.484 8.52551H608.021C608.212 10.5502 608.427 12.9161 608.654 15.5255C610.08 31.8982 611.989 57.8612 611.536 69.3257C611.062 81.3429 610.552 121.308 610.297 145.18C610.269 147.712 610.245 150.063 610.224 152.18H652.635C652.211 150.364 651.692 147.958 651.151 145.18C649.369 136.038 647.339 122.876 647.607 113.486C647.908 102.97 647.073 93.8994 646.521 87.9057V87.9044L646.52 87.9019C646.269 85.1752 646.077 83.0855 646.077 81.7867C646.077 80.8742 646.003 80.0039 645.937 79.2198L645.936 79.2182C645.7 76.4343 645.556 74.7383 649.138 76.1028C649.942 76.4092 651.149 77.1923 652.683 78.3674ZM732.274 70.9832C732.276 70.9856 732.245 70.9746 732.178 70.9439C732.24 70.9658 732.273 70.9809 732.274 70.9832ZM70.0176 155.656C70.4104 153.692 70.8592 151.331 71.34 148.656C74.2332 132.566 78.2866 105.179 78.2866 85.2275V39.8906H51.4837C41.4445 39.8906 28.1369 43.1696 18.7092 46.0586C15.4983 47.0426 12.7374 47.9813 10.709 48.7299C11.1872 47.0083 12.0216 43.9873 12.9651 40.5387C13.8967 37.1333 14.9348 33.3109 15.8415 29.9108C17.6664 23.0675 19.6434 13.563 20.4037 9.66611H186.924L195.763 45.3083C193.728 44.7611 191.078 44.0879 188.072 43.3757C178.023 40.9954 163.987 38.1798 155.559 38.1798H131.892V82.6613C131.892 98.1116 135.717 129.697 138.319 148.656C138.675 151.251 139.009 153.609 139.306 155.656H70.0176ZM332.914 155.656C333.307 153.692 333.756 151.331 334.237 148.656C337.13 132.566 341.183 105.179 341.183 85.2275V39.8906H314.38C304.341 39.8906 291.034 43.1696 281.606 46.0586C278.395 47.0426 275.634 47.9813 273.606 48.7299C274.084 47.0083 274.918 43.9873 275.862 40.5387C276.793 37.1333 277.832 33.3109 278.738 29.9108C280.563 23.0675 282.54 13.563 283.301 9.66611H449.821L458.66 45.3083C456.625 44.7611 453.975 44.0879 450.969 43.3757C440.92 40.9954 426.884 38.1798 418.456 38.1798H394.789V82.6613C394.789 98.1116 398.613 129.697 401.216 148.656C401.572 151.251 401.905 153.609 402.203 155.656H332.914ZM206.599 10.5215C206.68 12.6123 206.77 14.9669 206.867 17.5215C207.668 38.773 208.88 73.865 208.88 86.0829C208.88 98.1205 206.38 128.686 204.678 147.516C204.445 150.095 204.227 152.455 204.032 154.516H266.762C266.518 152.512 266.241 150.15 265.945 147.516C264.046 130.658 261.345 102.655 261.345 86.0829C261.345 69.2004 262.083 36.7642 262.583 17.5215C262.651 14.9242 262.714 12.5673 262.771 10.5215H206.599ZM524.242 125.432C523.939 123.728 523.44 121.297 522.756 118.432C521.074 111.39 518.276 101.727 514.547 93.7817C513.465 91.4768 512.391 89.1408 511.336 86.8468C505.997 75.2351 501.151 64.6976 498.294 64.6976C495.174 64.6976 489.446 78.2125 483.488 92.2696L483.483 92.2808C482.909 93.6354 482.332 94.9949 481.756 96.3479C478.292 104.481 475.88 112.565 474.423 118.432C473.673 121.45 473.175 123.882 472.917 125.432H524.242ZM481.647 118.432H515.55C513.923 111.921 511.413 103.58 508.21 96.756C507.118 94.4277 506.035 92.0726 504.984 89.788L504.976 89.7713C502.544 84.4823 500.334 79.6831 498.393 75.9903C498.335 76.1057 498.276 76.2228 498.217 76.3417C495.77 81.2376 492.943 87.8995 489.933 95.0013L489.902 95.0726C489.337 96.4065 488.767 97.7515 488.196 99.0909C485.213 106.096 483.05 113.074 481.647 118.432Z" fill="white"/>
</svg>
