<svg width="2047" height="2863" viewBox="0 0 2047 2863" fill="none" xmlns="http://www.w3.org/2000/svg">
<path d="M0.0556641 0.248047H2046.06V2862.25H0.0556641V0.248047Z" fill="white"/>
<path d="M221.54 2388.84H203.189V2438.6H188.45V2388.84H170.436V2377.46H221.54V2388.84ZM275.752 2377.46V2417.48C275.752 2422.02 274.786 2425.95 272.854 2429.28C270.923 2432.58 268.151 2435.1 264.54 2436.84C260.929 2438.58 256.66 2439.44 251.732 2439.44C244.286 2439.44 238.421 2437.51 234.138 2433.65C229.854 2429.79 227.671 2424.49 227.587 2417.78V2377.46H242.41V2418.07C242.578 2424.76 245.686 2428.11 251.732 2428.11C254.784 2428.11 257.093 2427.27 258.661 2425.59C260.229 2423.91 261.013 2421.18 261.013 2417.4V2377.46H275.752ZM307.708 2417.02H299.729V2438.6H284.99V2377.46H309.052C316.302 2377.46 321.971 2379.07 326.059 2382.29C330.146 2385.51 332.189 2390.06 332.189 2395.94C332.189 2400.19 331.322 2403.72 329.586 2406.52C327.878 2409.32 325.191 2411.59 321.523 2413.32L334.289 2437.97V2438.6H318.5L307.708 2417.02ZM299.729 2405.64H309.052C311.851 2405.64 313.951 2404.91 315.351 2403.46C316.778 2401.97 317.492 2399.91 317.492 2397.28C317.492 2394.65 316.778 2392.59 315.351 2391.11C313.923 2389.6 311.823 2388.84 309.052 2388.84H299.729V2405.64ZM392.154 2438.6H377.499L355.831 2400.56V2438.6H341.092V2377.46H355.831L377.457 2415.51V2377.46H392.154V2438.6Z" fill="black"/>
<rect x="170.184" y="2487.91" width="222.339" height="222.339" fill="white" stroke="black" stroke-width="10"/>
<path d="M292.624 2639.47H272.951V2576.84L253.628 2582.49V2567.59L290.82 2554.72H292.624V2639.47Z" fill="black"/>
<rect x="423.414" y="2487.91" width="222.339" height="222.339" fill="white" stroke="black" stroke-width="10"/>
<path d="M564.383 2639.47H505.248V2626.66L532.488 2598.03C539.2 2590.38 542.557 2584.31 542.557 2579.81C542.557 2576.16 541.761 2573.39 540.17 2571.49C538.58 2569.58 536.271 2568.63 533.244 2568.63C530.256 2568.63 527.831 2569.91 525.969 2572.47C524.106 2575 523.175 2578.16 523.175 2581.96H503.502C503.502 2576.76 504.802 2571.97 507.402 2567.59C510.002 2563.16 513.61 2559.71 518.228 2557.23C522.845 2554.74 528.006 2553.5 533.71 2553.5C542.867 2553.5 549.91 2555.62 554.838 2559.84C559.804 2564.07 562.288 2570.15 562.288 2578.06C562.288 2581.4 561.667 2584.66 560.425 2587.84C559.184 2590.98 557.243 2594.3 554.605 2597.79C552.005 2601.25 547.795 2605.88 541.975 2611.7L531.033 2624.33H564.383V2639.47Z" fill="black"/>
<rect x="676.643" y="2487.91" width="222.339" height="222.339" fill="white" stroke="black" stroke-width="10"/>
<path d="M774.546 2588.89H783.801C791.134 2588.89 794.801 2585.3 794.801 2578.12C794.801 2575.33 793.928 2573.06 792.182 2571.31C790.436 2569.53 787.972 2568.63 784.79 2568.63C782.19 2568.63 779.92 2569.39 777.98 2570.9C776.079 2572.42 775.128 2574.3 775.128 2576.55H755.514C755.514 2572.09 756.755 2568.11 759.239 2564.62C761.722 2561.13 765.156 2558.41 769.541 2556.47C773.964 2554.49 778.814 2553.5 784.092 2553.5C793.52 2553.5 800.932 2555.65 806.325 2559.96C811.719 2564.27 814.415 2570.19 814.415 2577.71C814.415 2581.36 813.29 2584.81 811.04 2588.07C808.828 2591.29 805.588 2593.91 801.32 2595.93C805.821 2597.56 809.352 2600.04 811.913 2603.38C814.474 2606.68 815.754 2610.77 815.754 2615.66C815.754 2623.23 812.844 2629.28 807.024 2633.82C801.203 2638.36 793.559 2640.63 784.092 2640.63C778.543 2640.63 773.382 2639.58 768.609 2637.49C763.876 2635.35 760.286 2632.42 757.842 2628.7C755.397 2624.94 754.175 2620.67 754.175 2615.89H773.906C773.906 2618.49 774.954 2620.74 777.049 2622.65C779.144 2624.55 781.725 2625.5 784.79 2625.5C788.243 2625.5 790.998 2624.55 793.055 2622.65C795.111 2620.71 796.14 2618.24 796.14 2615.25C796.14 2610.99 795.073 2607.96 792.938 2606.17C790.804 2604.39 787.855 2603.5 784.092 2603.5H774.546V2588.89Z" fill="black"/>
<rect x="929.873" y="2487.91" width="222.339" height="222.339" fill="white" stroke="black" stroke-width="10"/>
<path d="M1064.59 2606.35H1073.2V2621.48H1064.59V2639.47H1044.98V2621.48H1012.21L1011.04 2609.49L1044.98 2554.9V2554.72H1064.59V2606.35ZM1029.73 2606.35H1044.98V2580.27L1043.75 2582.25L1029.73 2606.35Z" fill="black"/>
<rect x="1183.1" y="2487.91" width="222.339" height="222.339" fill="white" stroke="black" stroke-width="10"/>
<path d="M1264.35 2598.03L1269.53 2554.72H1319.06V2569.97H1285.47L1283.55 2586.79C1284.95 2585.98 1286.77 2585.26 1289.02 2584.64C1291.31 2584.02 1293.54 2583.71 1295.72 2583.71C1304.14 2583.71 1310.6 2586.21 1315.1 2591.22C1319.64 2596.18 1321.91 2603.17 1321.91 2612.17C1321.91 2617.6 1320.69 2622.53 1318.24 2626.95C1315.84 2631.34 1312.44 2634.71 1308.06 2637.08C1303.67 2639.45 1298.49 2640.63 1292.52 2640.63C1287.2 2640.63 1282.21 2639.54 1277.56 2637.37C1272.9 2635.16 1269.25 2632.15 1266.62 2628.35C1263.98 2624.51 1262.68 2620.18 1262.72 2615.37H1282.39C1282.58 2618.47 1283.57 2620.94 1285.36 2622.76C1287.14 2624.59 1289.49 2625.5 1292.4 2625.5C1299 2625.5 1302.29 2620.61 1302.29 2610.83C1302.29 2601.79 1298.26 2597.27 1290.19 2597.27C1285.61 2597.27 1282.2 2598.74 1279.94 2601.69L1264.35 2598.03Z" fill="black"/>
<rect x="1436.33" y="2487.91" width="222.339" height="222.339" fill="white" stroke="black" stroke-width="10"/>
<path d="M1563.79 2553.5V2568.92H1562.92C1555.58 2568.92 1549.55 2570.69 1544.81 2574.22C1540.12 2577.71 1537.23 2582.58 1536.14 2588.83C1540.57 2584.48 1546.15 2582.31 1552.91 2582.31C1560.24 2582.31 1566.08 2584.99 1570.42 2590.34C1574.77 2595.7 1576.94 2602.72 1576.94 2611.41C1576.94 2616.81 1575.66 2621.75 1573.1 2626.25C1570.58 2630.76 1567.03 2634.29 1562.45 2636.85C1557.91 2639.37 1552.87 2640.63 1547.32 2640.63C1541.3 2640.63 1535.93 2639.27 1531.2 2636.56C1526.46 2633.8 1522.78 2629.88 1520.14 2624.8C1517.5 2619.72 1516.14 2613.86 1516.06 2607.22V2599.36C1516.06 2590.63 1517.92 2582.8 1521.65 2575.85C1525.41 2568.87 1530.77 2563.4 1537.71 2559.44C1544.66 2555.48 1552.36 2553.5 1560.82 2553.5H1563.79ZM1546.1 2597.33C1543.5 2597.33 1541.32 2597.93 1539.58 2599.13C1537.83 2600.33 1536.53 2601.81 1535.68 2603.56V2609.43C1535.68 2620.14 1539.38 2625.5 1546.79 2625.5C1549.78 2625.5 1552.26 2624.16 1554.24 2621.48C1556.26 2618.8 1557.27 2615.45 1557.27 2611.41C1557.27 2607.26 1556.24 2603.89 1554.19 2601.29C1552.17 2598.65 1549.47 2597.33 1546.1 2597.33Z" fill="black"/>
<rect x="1689.56" y="2487.91" width="222.339" height="222.339" fill="white" stroke="black" stroke-width="10"/>
<path d="M1833.31 2565.2L1801.64 2639.47H1780.92L1812.64 2569.86H1772.25V2554.72H1833.31V2565.2Z" fill="black"/>
<path d="M113.616 374.45C113.616 376.276 113.277 377.892 112.6 379.298C111.923 380.703 110.958 381.788 109.707 382.551C108.464 383.305 107.045 383.682 105.451 383.682C103.856 383.682 102.442 383.318 101.208 382.589C99.9732 381.852 99.0088 380.802 98.3145 379.439C97.6287 378.076 97.2687 376.512 97.2344 374.746V373.691C97.2344 371.857 97.5687 370.241 98.2373 368.844C98.9145 367.438 99.8789 366.354 101.13 365.591C102.391 364.828 103.822 364.446 105.425 364.446C107.011 364.446 108.425 364.824 109.668 365.578C110.911 366.332 111.876 367.408 112.561 368.805C113.256 370.194 113.607 371.788 113.616 373.589V374.45ZM109.025 373.666C109.025 371.806 108.713 370.395 108.087 369.435C107.47 368.467 106.582 367.982 105.425 367.982C103.162 367.982 101.966 369.68 101.838 373.074L101.825 374.45C101.825 376.285 102.129 377.695 102.738 378.68C103.346 379.666 104.251 380.159 105.451 380.159C106.591 380.159 107.47 379.675 108.087 378.706C108.704 377.737 109.017 376.345 109.025 374.527V373.666Z" fill="black"/>
<path d="M114.332 383.425V372.521H112.313V369.512H114.332V368.407C114.332 366.821 114.799 365.591 115.733 364.716C116.668 363.842 117.979 363.405 119.668 363.405C120.285 363.405 120.962 363.495 121.699 363.675L121.712 366.864C121.447 366.787 121.091 366.748 120.645 366.748C119.334 366.748 118.678 367.314 118.678 368.445V369.512H121.391V372.521H118.678V383.425H114.332Z" fill="black"/>
<path d="M658.654 366.642H654.44V378.07H651.055V366.642H646.918V364.029H658.654V366.642Z" fill="black"/>
<path d="M662.759 364.029L665.894 373.798L669.018 364.029H673.474V378.07H670.079V374.791L670.407 368.079L667.012 378.07H664.775L661.371 368.069L661.699 374.791V378.07H658.314V364.029H662.759Z" fill="black"/>
<path d="M144.639 241.78C149.403 242.065 153.317 242.948 156.379 244.429C159.49 245.91 161.751 247.761 163.161 249.983C164.57 252.147 165.275 254.454 165.275 256.904C165.275 262.486 163.379 266.644 159.588 269.378C155.796 272.113 150.4 273.48 143.4 273.48C141.99 273.48 140.799 273.451 139.827 273.394C136.521 273.28 133.289 273.223 130.129 273.223C124.441 273.223 120.212 273.309 117.441 273.48V271.771C118.997 271.657 120.115 271.429 120.795 271.087C121.524 270.746 122.011 270.09 122.254 269.122C122.497 268.154 122.618 266.587 122.618 264.423V222.043C122.618 219.878 122.472 218.312 122.181 217.343C121.938 216.375 121.476 215.72 120.795 215.378C120.115 215.036 118.997 214.808 117.441 214.694V212.985C120.212 213.156 124.393 213.242 129.983 213.242L138.368 213.156C139.341 213.099 140.459 213.071 141.723 213.071C148.139 213.071 153.025 214.296 156.379 216.745C159.782 219.137 161.483 222.384 161.483 226.486C161.483 228.593 160.851 230.729 159.588 232.894C158.324 235.002 156.428 236.853 153.9 238.448C151.372 240.043 148.285 241.097 144.639 241.609V241.78ZM141.358 214.694C140.24 214.694 139.389 214.894 138.806 215.292C138.271 215.691 137.907 216.403 137.712 217.429C137.518 218.454 137.421 219.992 137.421 222.043V241.353H139.389C142.014 241.353 143.837 240.1 144.858 237.593C145.928 235.03 146.462 231.641 146.462 227.426C146.462 223.096 146.049 219.906 145.223 217.856C144.445 215.748 143.157 214.694 141.358 214.694ZM142.16 271.515C147.362 271.515 149.962 266.53 149.962 256.562C149.962 252.062 149.039 248.644 147.192 246.309C145.344 243.973 142.428 242.805 138.441 242.805H137.421V264.423C137.421 266.473 137.542 267.983 137.785 268.951C138.028 269.92 138.466 270.603 139.098 271.002C139.778 271.344 140.799 271.515 142.16 271.515Z" fill="black"/>
<path d="M215.701 266.302C216.333 268.125 217.014 269.492 217.743 270.404C218.521 271.258 219.274 271.714 220.003 271.771V273.48C216.503 273.309 212.08 273.223 206.732 273.223C201.191 273.223 197.107 273.309 194.482 273.48V271.771C196.329 271.657 197.642 271.401 198.42 271.002C199.197 270.546 199.586 269.777 199.586 268.695C199.586 267.67 199.295 266.302 198.711 264.594L194.409 250.581H179.68L178.44 254.426C176.836 259.268 176.034 262.97 176.034 265.533C176.034 267.869 176.593 269.464 177.711 270.318C178.829 271.173 180.482 271.657 182.669 271.771V273.48C179.024 273.309 175.839 273.223 173.117 273.223C170.832 273.223 168.961 273.309 167.503 273.48V271.771C168.718 271.543 169.86 270.66 170.93 269.122C171.999 267.584 173.093 265.135 174.211 261.774L190.399 212.985C191.954 213.099 193.243 213.156 194.263 213.156C195.236 213.156 196.499 213.099 198.055 212.985L215.701 266.302ZM193.899 248.872L187.263 227.511L180.263 248.872H193.899Z" fill="black"/>
<path d="M334.169 214.694C332.419 214.808 331.13 215.036 330.304 215.378C329.526 215.72 328.991 216.375 328.7 217.343C328.408 218.312 328.262 219.878 328.262 222.043V266.132C328.262 267.727 328.359 268.894 328.554 269.635C328.748 270.375 329.089 270.888 329.575 271.173C330.061 271.401 330.863 271.515 331.981 271.515H334.387C336.089 271.515 337.936 270.518 339.929 268.524C341.922 266.53 343.721 263.91 345.325 260.663C346.929 257.359 347.999 253.942 348.533 250.41H350.21C350.065 252.461 349.992 255.081 349.992 258.271C349.992 264.423 350.162 269.492 350.502 273.48C347.197 273.309 341.631 273.223 333.804 273.223C322.429 273.223 313.922 273.309 308.283 273.48V271.771C309.838 271.657 310.956 271.429 311.637 271.087C312.366 270.746 312.852 270.09 313.095 269.122C313.338 268.154 313.46 266.587 313.46 264.423V222.043C313.46 219.878 313.314 218.312 313.022 217.343C312.779 216.375 312.318 215.72 311.637 215.378C310.956 215.036 309.838 214.808 308.283 214.694V212.985C311.054 213.156 315.38 213.242 321.262 213.242C326.853 213.242 331.155 213.156 334.169 212.985V214.694Z" fill="black"/>
<path d="M399.282 259.125C399.282 264.935 399.453 269.72 399.793 273.48C396.487 273.309 390.921 273.223 383.095 273.223C371.72 273.223 363.212 273.309 357.573 273.48V271.771C359.129 271.657 360.247 271.429 360.928 271.087C361.657 270.746 362.143 270.09 362.386 269.122C362.629 268.154 362.751 266.587 362.751 264.423V222.043C362.751 219.878 362.605 218.312 362.313 217.343C362.07 216.375 361.608 215.72 360.928 215.378C360.247 215.036 359.129 214.808 357.573 214.694V212.985C363.212 213.156 371.72 213.242 383.095 213.242C390.241 213.242 395.321 213.156 398.334 212.985C397.994 218.34 397.824 223.125 397.824 227.34C397.824 229.96 397.897 232.011 398.043 233.492H396.366C395.491 226.884 393.862 222.156 391.48 219.308C389.098 216.403 386.254 214.951 382.949 214.951H382.001C380.688 214.951 379.716 215.093 379.084 215.378C378.501 215.606 378.088 216.09 377.845 216.83C377.65 217.514 377.553 218.682 377.553 220.334V242.207H378.282C380.81 242.207 382.973 241.04 384.772 238.704C386.57 236.369 387.713 233.777 388.199 230.929H389.876C389.73 233.321 389.657 235.998 389.657 238.96V243.062C389.657 245.967 389.803 250.011 390.095 255.195H388.418C387.98 251.948 386.838 249.271 384.991 247.163C383.192 244.998 380.956 243.916 378.282 243.916H377.553V266.132C377.553 267.783 377.65 268.98 377.845 269.72C378.088 270.404 378.501 270.888 379.084 271.173C379.716 271.401 380.688 271.515 382.001 271.515H384.407C387.227 271.515 389.9 269.92 392.428 266.73C394.956 263.483 396.755 258.328 397.824 251.264H399.501C399.355 253.315 399.282 255.935 399.282 259.125Z" fill="black"/>
<path d="M434.53 214.694C432.78 214.808 431.492 215.036 430.666 215.378C429.888 215.72 429.353 216.375 429.061 217.343C428.77 218.312 428.624 219.878 428.624 222.043V266.132C428.624 267.727 428.721 268.894 428.915 269.635C429.11 270.375 429.45 270.888 429.936 271.173C430.422 271.401 431.225 271.515 432.343 271.515H434.749C436.45 271.515 438.298 270.518 440.291 268.524C442.284 266.53 444.082 263.91 445.687 260.663C447.291 257.359 448.36 253.942 448.895 250.41H450.572C450.426 252.461 450.353 255.081 450.353 258.271C450.353 264.423 450.523 269.492 450.864 273.48C447.558 273.309 441.992 273.223 434.166 273.223C422.79 273.223 414.283 273.309 408.644 273.48V271.771C410.2 271.657 411.318 271.429 411.999 271.087C412.728 270.746 413.214 270.09 413.457 269.122C413.7 268.154 413.822 266.587 413.822 264.423V222.043C413.822 219.878 413.676 218.312 413.384 217.343C413.141 216.375 412.679 215.72 411.999 215.378C411.318 215.036 410.2 214.808 408.644 214.694V212.985C411.415 213.156 415.742 213.242 421.624 213.242C427.214 213.242 431.516 213.156 434.53 212.985V214.694Z" fill="black"/>
<path d="M502.561 266.302C503.193 268.125 503.873 269.492 504.602 270.404C505.38 271.258 506.134 271.714 506.863 271.771V273.48C503.363 273.309 498.939 273.223 493.592 273.223C488.05 273.223 483.967 273.309 481.342 273.48V271.771C483.189 271.657 484.501 271.401 485.279 271.002C486.057 270.546 486.446 269.777 486.446 268.695C486.446 267.67 486.154 266.302 485.571 264.594L481.269 250.581H466.539L465.3 254.426C463.696 259.268 462.893 262.97 462.893 265.533C462.893 267.869 463.452 269.464 464.571 270.318C465.689 271.173 467.341 271.657 469.529 271.771V273.48C465.883 273.309 462.699 273.223 459.977 273.223C457.692 273.223 455.82 273.309 454.362 273.48V271.771C455.577 271.543 456.72 270.66 457.789 269.122C458.859 267.584 459.952 265.135 461.071 261.774L477.258 212.985C478.814 213.099 480.102 213.156 481.123 213.156C482.095 213.156 483.359 213.099 484.915 212.985L502.561 266.302ZM480.758 248.872L474.123 227.511L467.123 248.872H480.758Z" fill="black"/>
<path d="M560.228 214.694C558.721 215.093 557.603 215.72 556.874 216.574C556.144 217.372 555.658 218.625 555.415 220.334C555.172 222.043 555.051 224.606 555.051 228.024V273.48C554.078 273.366 553.276 273.309 552.644 273.309C552.11 273.309 551.21 273.366 549.946 273.48L517.644 232.125V256.733C517.644 260.948 517.79 263.995 518.081 265.875C518.373 267.698 519.005 269.037 519.977 269.891C520.998 270.746 522.675 271.372 525.009 271.771V273.48C523.015 273.309 520.293 273.223 516.842 273.223C514.265 273.223 512.248 273.309 510.79 273.48V271.771C512.297 271.372 513.415 270.774 514.144 269.977C514.873 269.122 515.359 267.84 515.602 266.132C515.845 264.423 515.967 261.859 515.967 258.442V222.043C515.967 219.878 515.821 218.312 515.529 217.343C515.286 216.375 514.824 215.72 514.144 215.378C513.463 215.036 512.345 214.808 510.79 214.694V212.985C512.248 213.156 514.265 213.242 516.842 213.242C519.467 213.242 521.703 213.156 523.55 212.985L553.374 249.897V229.732C553.374 225.517 553.228 222.498 552.936 220.675C552.644 218.796 551.988 217.429 550.967 216.574C549.995 215.72 548.342 215.093 546.009 214.694V212.985C548.002 213.156 550.724 213.242 554.176 213.242C556.752 213.242 558.769 213.156 560.228 212.985V214.694Z" fill="black"/>
<path d="M591.978 212.985C602.04 212.985 609.575 215.52 614.582 220.59C619.589 225.603 622.093 232.922 622.093 242.549C622.093 248.758 620.853 254.198 618.374 258.869C615.943 263.483 612.419 267.071 607.801 269.635C603.183 272.198 597.69 273.48 591.322 273.48L586.801 273.394C583.884 273.28 581.745 273.223 580.384 273.223C574.696 273.223 570.467 273.309 567.696 273.48V271.771C569.252 271.657 570.37 271.429 571.05 271.087C571.78 270.746 572.266 270.09 572.509 269.122C572.752 268.154 572.873 266.587 572.873 264.423V222.043C572.873 219.878 572.728 218.312 572.436 217.343C572.193 216.375 571.731 215.72 571.05 215.378C570.37 215.036 569.252 214.808 567.696 214.694V212.985C569.932 213.156 573.238 213.242 577.613 213.242H580.238L583.446 213.156C587.53 213.042 590.374 212.985 591.978 212.985ZM593.072 214.523C591.565 214.523 590.422 214.723 589.644 215.122C588.915 215.52 588.405 216.232 588.113 217.258C587.821 218.283 587.676 219.821 587.676 221.872V264.594C587.676 266.644 587.821 268.182 588.113 269.208C588.405 270.233 588.915 270.945 589.644 271.344C590.422 271.742 591.589 271.942 593.144 271.942C597.957 271.942 601.433 269.521 603.572 264.679C605.711 259.78 606.78 252.518 606.78 242.891C606.78 233.264 605.662 226.144 603.426 221.53C601.238 216.859 597.787 214.523 593.072 214.523Z" fill="black"/>
<path d="M650.425 211.789C653.196 211.789 655.432 212.103 657.133 212.729C658.883 213.299 660.585 214.125 662.237 215.207C662.772 215.549 663.234 215.834 663.623 216.061C664.06 216.289 664.425 216.403 664.717 216.403C665.154 216.403 665.494 216.118 665.738 215.549C665.981 214.922 666.175 213.954 666.321 212.644H667.998C667.755 216.745 667.633 223.694 667.633 233.492H665.956C665.762 230.245 665.13 227.141 664.06 224.179C662.991 221.217 661.533 218.796 659.685 216.916C657.838 215.036 655.699 214.096 653.269 214.096C651.032 214.096 649.234 214.808 647.873 216.232C646.512 217.599 645.831 219.536 645.831 222.043C645.831 223.979 646.195 225.66 646.925 227.084C647.654 228.508 648.723 229.903 650.133 231.27C651.543 232.581 653.852 234.546 657.06 237.166C657.352 237.337 657.619 237.536 657.862 237.764C658.154 237.992 658.421 238.22 658.664 238.448C661.338 240.612 663.477 242.549 665.081 244.258C666.685 245.91 667.974 247.847 668.946 250.068C669.967 252.29 670.477 254.853 670.477 257.758C670.477 261.461 669.578 264.594 667.779 267.157C666.029 269.663 663.647 271.543 660.633 272.796C657.619 274.049 654.289 274.676 650.643 274.676C647.678 274.676 645.199 274.391 643.206 273.822C641.261 273.252 639.438 272.483 637.737 271.515C636.668 270.717 635.841 270.318 635.258 270.318C634.82 270.318 634.48 270.632 634.237 271.258C633.994 271.828 633.8 272.768 633.654 274.078H631.977C632.171 270.204 632.268 261.945 632.268 249.299H633.945C634.286 256.078 635.501 261.575 637.591 265.79C639.682 270.005 642.89 272.113 647.216 272.113C649.89 272.113 652.005 271.372 653.56 269.891C655.164 268.41 655.966 266.359 655.966 263.739C655.966 260.492 655.091 257.73 653.341 255.451C651.64 253.116 648.966 250.524 645.321 247.676C642.404 245.397 640.07 243.404 638.32 241.695C636.57 239.986 635.136 238.021 634.018 235.799C632.9 233.521 632.341 230.9 632.341 227.938C632.341 224.35 633.168 221.359 634.82 218.967C636.473 216.517 638.661 214.723 641.383 213.584C644.154 212.387 647.168 211.789 650.425 211.789Z" fill="black"/>
<path d="M250.213 214.951V263.825C250.213 266.217 250.408 267.954 250.797 269.037C251.234 270.119 251.988 270.859 253.057 271.258C254.175 271.6 255.925 271.771 258.307 271.771V273.48C251.453 273.309 246.13 273.223 242.338 273.223C238.887 273.223 233.88 273.309 227.317 273.48V271.771C229.699 271.771 231.425 271.6 232.494 271.258C233.613 270.859 234.366 270.119 234.755 269.037C235.192 267.954 235.411 266.217 235.411 263.825V214.951H235.338C232.373 214.951 229.626 216.603 227.099 219.906C224.619 223.153 222.578 228.536 220.973 236.055H219.296C219.442 234.574 219.515 232.524 219.515 229.903C219.515 224.948 219.345 219.308 219.005 212.985C223.623 213.156 231.571 213.242 242.849 213.242C254.078 213.242 298.828 213.156 303.446 212.985C303.106 219.308 302.935 224.948 302.935 229.903C302.935 232.524 303.008 234.574 303.154 236.055H301.477C299.873 228.593 297.807 223.21 295.279 219.906C292.751 216.603 290.029 214.951 287.112 214.951H287.039V263.825C287.039 266.217 287.234 267.954 287.623 269.037C288.06 270.119 288.814 270.859 289.883 271.258C291.001 271.6 292.751 271.771 295.133 271.771V273.48C288.279 273.309 282.956 273.223 279.164 273.223C275.713 273.223 270.706 273.309 264.143 273.48V271.771C266.525 271.771 268.251 271.6 269.32 271.258C270.438 270.859 271.192 270.119 271.581 269.037C272.018 267.954 272.237 266.217 272.237 263.825V214.951H272.164H250.213Z" fill="black"/>
<path d="M414.992 318.404C414.992 328.171 404.893 336.089 392.436 336.089C379.978 336.089 369.879 328.171 369.879 318.404C369.879 308.638 379.978 300.72 392.436 300.72C404.893 300.72 414.992 308.638 414.992 318.404Z" fill="black"/>
<path d="M557.422 302.58H661.382C655.838 306.772 625.158 315.156 591.151 315.156C557.145 315.156 544.609 311.2 537.337 309.696L548.598 306.391L557.422 302.58Z" fill="black"/>
<path d="M530.446 312.012C531.487 313.684 537.399 317.597 552.718 319.879C568.036 322.16 586.26 322.549 593.458 322.459C584.585 326.216 553.342 332.182 537.915 329.792C522.488 327.402 514.784 319.356 508.039 315.156L519.466 313.919L530.446 312.012Z" fill="black"/>
<path d="M480.357 319.182L499.212 317.57C501.566 320.241 505.323 323.138 511.842 327.755C515.743 330.519 534.475 334.771 541.582 336.311C530.99 337.985 504.997 338.565 497.175 334.545C489.353 330.525 482.204 322.396 480.357 319.182Z" fill="black"/>
<path d="M426.051 302.58H542.609C533.471 304.545 508.526 309.183 481.856 312.012C455.186 314.842 442.189 315.287 439.024 315.156C436.964 317.958 435.534 322.088 435.434 327.139C435.324 332.695 437.148 334.911 440.759 338.522C436.956 338.522 428.868 337.951 422.576 337.951C423.734 335.593 426.051 328.99 426.051 321.445V302.58Z" fill="black"/>
<path d="M460.373 321.445L473.686 320.529C474.184 322.43 475.773 326.614 480.879 330.743C485.985 334.871 491.336 338.619 493.373 339.977C485.315 339.841 472.951 338.706 466.77 331.545C463.714 328.005 461.324 324.137 460.373 321.445Z" fill="black"/>
<path d="M441.493 323.038C443.452 323.038 451.33 322.181 453.367 322.181C453.367 322.181 454.713 325.364 457.957 330.743C461.201 336.122 468.116 341.889 468.116 341.889C464.269 340.123 450.972 338.539 444.921 332.096C442.659 329.688 441.765 325.504 441.493 323.038Z" fill="black"/>
<path d="M361.24 302.58H244.681C253.82 304.545 278.765 309.183 305.435 312.012C332.105 314.842 345.102 315.287 348.266 315.156C350.326 317.958 351.756 322.088 351.856 327.139C351.966 332.695 350.143 334.911 346.532 338.522C350.334 338.522 358.423 337.951 364.714 337.951C363.556 335.593 361.24 328.99 361.24 321.445V302.58Z" fill="black"/>
<path d="M345.797 323.038C343.839 323.038 335.961 322.181 333.924 322.181C333.924 322.181 332.577 325.364 329.334 330.743C326.09 336.122 319.174 341.889 319.174 341.889C323.022 340.123 336.319 338.539 342.37 332.096C344.632 329.688 345.526 325.504 345.797 323.038Z" fill="black"/>
<path d="M326.917 321.445L313.605 320.529C313.107 322.43 311.517 326.614 306.411 330.743C301.305 334.871 295.955 338.619 293.918 339.977C301.975 339.841 314.339 338.706 320.521 331.545C323.576 328.005 325.967 324.137 326.917 321.445Z" fill="black"/>
<path d="M306.934 319.182L288.078 317.57C285.724 320.241 281.967 323.138 275.449 327.755C271.547 330.519 252.815 334.771 245.709 336.311C256.301 337.985 282.293 338.565 290.115 334.545C297.937 330.525 305.086 322.396 306.934 319.182Z" fill="black"/>
<path d="M256.844 312.012C255.803 313.684 249.891 317.597 234.573 319.879C219.255 322.16 201.03 322.549 193.833 322.459C202.705 326.216 233.948 332.182 249.375 329.792C264.802 327.402 272.506 319.356 279.251 315.156L267.825 313.919L256.844 312.012Z" fill="black"/>
<path d="M229.868 302.58H125.908C131.453 306.772 162.133 315.156 196.139 315.156C230.146 315.156 242.681 311.2 249.954 309.696L238.692 306.391L229.868 302.58Z" fill="black"/>
<path fill-rule="evenodd" clip-rule="evenodd" d="M255.522 362.17H302.943L302.979 365.425C303.11 377.353 303.294 406.106 302.978 425.646C302.674 444.54 308.467 461.486 311.302 467.402L313.561 472.116H246.127L247.889 467.622C250.4 461.218 255.522 443.631 255.522 425.593V395.004V362.17ZM262.105 368.753V425.593C262.105 441.411 258.415 456.783 255.6 465.532H303.386C300.162 456.968 296.131 441.969 296.396 425.539C296.684 407.687 296.553 382.055 296.429 368.753H262.105ZM139.774 362.317H243.003L252.111 394.054H211.037V428.884C211.037 433.514 212.333 441.054 214.055 448.847C215.756 456.546 217.8 464.178 219.159 468.836L220.388 473.049H156.144L157.914 468.552C159.44 464.673 161.757 457.959 163.687 450.563C165.629 443.123 167.117 435.223 167.117 428.884V394.054H128.368L139.774 362.317ZM173.701 428.884C173.701 436.065 172.046 444.606 170.057 452.225C168.667 457.551 167.084 462.538 165.705 466.466H211.649C210.401 461.914 208.918 456.115 207.626 450.267C205.909 442.496 204.454 434.316 204.454 428.884V387.47H244.114L238.193 368.901H144.403L137.73 387.47H173.701V428.884ZM316.809 362.808H422.373L433.375 390.715C438.099 376.324 438.402 369.72 438.453 366.055V362.808H441.495H484.364L485.031 365.224C486.391 370.152 492.032 387.309 503.516 415.559C506.725 423.453 509.472 430.483 511.867 436.613C514.897 444.366 517.363 450.679 519.49 455.479C521.288 459.536 522.665 462.076 523.715 463.394C524.226 462.623 524.728 461.515 525.175 459.938C525.795 457.751 526.24 454.91 526.544 451.327C527.154 444.142 527.157 434.543 527.157 422.301V362.808H564.462L565.443 363.904C576.119 375.825 598.808 401.162 604.154 407.136C604.917 407.99 605.624 408.803 606.262 409.537L606.486 409.795C606.768 410.118 607.033 410.423 607.284 410.708C607.324 409.79 607.346 408.686 607.346 407.366V362.808H641.15V473.786H605.238C604.179 473.786 603.211 473.439 602.49 473.113C601.716 472.763 600.918 472.289 600.124 471.757C598.534 470.69 596.7 469.205 594.725 467.453C590.76 463.938 585.954 459.107 580.944 453.756C573.379 445.677 565.23 436.287 558.617 428.187V444.31C558.617 448.094 560.173 452.576 562.404 457.106C564.229 460.809 566.345 464.241 568.092 467.074C568.46 467.671 568.812 468.242 569.141 468.782L572.187 473.786H493.375C480.582 473.786 473.708 465.203 471.177 458.213H443.857C443.573 460.901 442.955 463.837 441.789 466.42C440.105 470.149 436.912 473.786 431.523 473.786H383.837L384.067 473.54H338.806L340.575 469.043C342.007 465.404 343.499 458.866 344.633 451.391C345.758 443.977 346.487 435.927 346.487 429.375V394.544H306.128L316.809 362.808ZM398.889 467.202H431.523C433.29 467.202 434.666 466.197 435.788 463.711C436.934 461.175 437.424 457.783 437.47 454.87L437.52 451.629H476.26L476.841 454.194C478.049 459.533 483.035 467.202 493.375 467.202H518.34C516.734 465.079 515.142 461.917 513.471 458.146C511.306 453.259 508.741 446.699 505.643 438.774C503.242 432.634 500.521 425.675 497.417 418.038C487.273 393.083 481.602 376.589 479.395 369.392H444.816C443.894 378.005 439.885 395.859 429.059 420.106C419.043 442.536 406.754 458.244 398.889 467.202ZM529.088 467.202H560.458C559.158 465.027 557.76 462.575 556.499 460.016C554.146 455.24 552.033 449.643 552.033 444.31V409.108L557.931 416.753C564.936 425.834 575.852 438.687 585.75 449.257C590.702 454.546 595.349 459.208 599.092 462.527C600.971 464.193 602.554 465.459 603.792 466.29C604.413 466.706 604.88 466.968 605.206 467.116C605.302 467.159 605.371 467.186 605.416 467.202H634.566V369.392H613.929V407.366C613.929 410.795 613.797 413.437 613.393 415.245C613.201 416.104 612.854 417.244 612.056 418.162C611.612 418.672 610.999 419.147 610.2 419.413C609.403 419.679 608.636 419.663 607.996 419.528C606.848 419.286 605.94 418.625 605.376 418.163C604.744 417.644 604.11 417.002 603.503 416.348C602.854 415.648 602.065 414.743 601.226 413.778C600.583 413.04 599.911 412.268 599.247 411.526C594.062 405.73 572.546 381.704 561.52 369.392H533.74V422.46C533.74 434.512 533.74 444.387 533.104 451.883C532.784 455.657 532.293 458.969 531.509 461.734C530.935 463.757 530.167 465.627 529.088 467.202ZM391.208 465.904C390.533 461.687 390.267 456.021 390.21 450.016C390.165 445.272 390.245 440.69 390.317 436.634C390.364 433.949 390.407 431.494 390.407 429.375V394.544H432C429.779 401.223 426.856 408.891 423.047 417.422C412.135 441.861 398.435 458.018 391.208 465.904ZM384.712 466.957C383.929 462.069 383.682 455.953 383.627 450.079C383.582 445.369 383.666 440.431 383.738 436.222C383.783 433.57 383.823 431.208 383.823 429.375V387.961H423.484L417.562 369.392H321.438L314.765 387.961H353.07V429.375C353.07 436.343 352.301 444.734 351.142 452.379C350.329 457.735 349.304 462.87 348.168 466.957H384.712ZM465.45 405.643C467.062 408.359 468.523 412.464 469.956 417.929C472.228 426.593 473.522 431.987 474.215 435.219C474.559 436.822 474.768 437.954 474.872 438.711C474.919 439.056 474.966 439.473 474.962 439.862C474.96 439.971 474.961 440.5 474.746 441.089C474.649 441.354 474.319 442.179 473.407 442.761C472.764 443.171 472.1 443.303 471.503 443.278H438.756V439.986C438.756 438.654 439.257 436.224 440.317 432.771C441.421 429.176 443.236 424.151 446.103 417.466C447.886 413.309 449.601 409.701 451.286 407.012C452.129 405.667 453.031 404.443 454.011 403.472C454.971 402.521 456.212 401.607 457.752 401.258C461.418 400.426 463.943 403.104 465.45 405.643ZM456.864 410.508C455.462 412.745 453.91 415.965 452.153 420.061C449.356 426.582 447.63 431.382 446.61 434.704C446.383 435.444 446.192 436.106 446.033 436.695H467.798C467.792 436.663 467.785 436.631 467.778 436.599C467.115 433.51 465.85 428.227 463.588 419.599C462.187 414.256 460.91 410.893 459.789 409.003C459.428 408.395 459.155 408.047 458.972 407.853C458.884 407.924 458.775 408.02 458.644 408.149C458.16 408.629 457.564 409.391 456.864 410.508ZM458.692 407.632C458.692 407.624 458.724 407.634 458.788 407.682C458.724 407.663 458.692 407.639 458.692 407.632Z" fill="black"/>
<path d="M112.793 195.041H670.477V199.365H112.793V195.041Z" fill="black"/>
<path d="M112.793 284.647H670.477V288.971H112.793V284.647Z" fill="black"/>
<path d="M196.301 180.818C203.578 170.625 229.391 151.09 279.622 148.57C324.42 146.323 340.037 146.831 345.315 147.004L345.508 147.014L345.816 147.024L347.064 147.049C351.821 147.049 354.464 149.068 356.334 150.499C359.697 153.064 360.571 153.729 366.756 137.409C367.026 136.702 367.142 136.178 367.116 135.802C367.084 135.329 366.84 135.091 366.409 135.03C364.017 134.683 355.878 139.714 347.057 139.714C335.382 139.714 310.103 140.318 277.314 141.176C180.511 143.71 140.779 166.359 117.441 183.454C132.922 175.723 167.942 161.48 184.208 166.359C188.779 167.732 192.167 170.333 194.243 173.058C196.442 175.942 197.175 178.964 196.301 180.818Z" fill="black"/>
<path d="M324.806 156.677C326.722 154.735 328.522 154.115 329.525 154.115C322.054 154.115 305.403 155.456 298.562 160.814C291.728 166.176 279.391 179.221 274.08 185.071C275.932 184.1 278.066 182.85 280.368 181.503C287.71 177.196 296.762 171.892 303.802 171.467C313.047 170.914 314.269 176.112 317.278 181.606C317.123 178.912 317.554 171.58 320.511 163.82C321.797 160.445 323.334 158.169 324.806 156.677Z" fill="black"/>
<path d="M348.465 169.825C356.412 170.198 362.249 174.293 364.178 176.292C361.638 168.979 354.059 154.298 344.074 154.115C334.096 153.929 326.516 173.599 323.977 183.454C328.831 178.758 340.519 169.455 348.465 169.825Z" fill="black"/>
<path d="M283.145 161.968C281.069 163.334 279.031 164.826 277.314 166.359C272.139 170.979 269.972 177.803 267.143 185.071C267.143 178.604 264.327 171.307 250.28 169.825C239.53 168.693 226.556 173.534 214.849 177.906C212.952 178.616 211.088 179.311 209.268 179.967C207.648 180.552 206.067 181.105 204.536 181.606C211.467 176.141 230.645 164.096 251.9 159.66C273.154 155.224 288.784 155.346 293.946 155.963C292.468 156.635 290.089 157.825 287.453 159.336C286.058 160.133 284.592 161.02 283.145 161.968Z" fill="black"/>
<path d="M582.524 180.818C575.246 170.625 549.433 151.09 499.202 148.57C454.404 146.323 438.788 146.831 433.51 147.004L433.317 147.014L432.635 147.033L431.761 147.049C427.003 147.049 424.361 149.068 422.49 150.499C420.838 151.759 419.783 152.559 418.408 151.116C416.987 149.621 415.219 145.715 412.069 137.409C411.593 136.152 411.599 135.467 412.004 135.178C412.718 134.673 414.653 135.393 417.36 136.396C419.147 137.059 421.269 137.846 423.596 138.486C426.135 139.187 428.913 139.714 431.767 139.714C443.443 139.714 468.722 140.318 501.51 141.176C598.314 143.71 638.046 166.359 661.383 183.454C645.902 175.723 610.883 161.48 594.617 166.359C585.211 169.182 580.82 177.212 582.524 180.818Z" fill="black"/>
<path d="M430.359 169.825C422.413 170.198 416.575 174.293 414.647 176.292C417.186 168.979 424.766 154.298 434.75 154.115C444.728 153.929 452.308 173.599 454.848 183.454C449.994 178.758 438.306 169.455 430.359 169.825Z" fill="black"/>
<path d="M458.313 163.82C455.356 156.057 451.074 154.115 449.3 154.115C456.77 154.115 473.422 155.456 480.262 160.814C482.879 162.868 486.306 166.048 489.835 169.519C492.658 172.3 495.551 175.264 498.148 177.986C500.771 180.744 503.092 183.255 504.744 185.071C502.912 184.113 500.81 182.882 498.534 181.551L498.457 181.503C494.464 179.163 489.97 176.527 485.566 174.54C484.602 174.103 483.638 173.698 482.686 173.335C481.715 172.965 480.757 172.637 479.819 172.364C479.06 172.142 478.314 171.956 477.581 171.808C476.7 171.631 475.845 171.515 475.022 171.467C466.98 170.985 465.012 174.859 462.653 179.491L462.126 180.503L461.547 181.606C461.701 178.912 461.271 171.58 458.313 163.82Z" fill="black"/>
<path d="M484.878 155.963C488.266 157.503 496.341 161.74 501.51 166.359C504.622 169.137 506.647 172.711 508.383 176.697C509.052 178.237 509.669 179.838 510.306 181.477L510.479 181.927L510.633 182.332L510.768 182.68L511.681 185.071C511.681 178.604 514.497 171.307 528.545 169.825C539.294 168.693 552.268 173.534 563.976 177.906C567.563 179.247 571.035 180.542 574.288 181.606C567.358 176.141 548.179 164.096 526.925 159.66C505.67 155.224 490.041 155.346 484.878 155.963Z" fill="black"/>
<path d="M389.412 179.893C400.374 179.893 409.259 171.008 409.259 160.043C409.259 149.081 400.374 140.196 389.412 140.196C378.451 140.196 369.566 149.081 369.566 160.043C369.566 171.008 378.451 179.893 389.412 179.893Z" fill="black"/>
<path d="M481.643 949.04L398.755 1092.6L232.981 1092.6L150.094 949.04L232.981 805.475L398.755 805.475L481.643 949.04Z" fill="white" stroke="black" stroke-width="12"/>
<path d="M481.643 1290.88L398.755 1434.44L232.981 1434.44L150.094 1290.88L232.981 1147.31L398.755 1147.31L481.643 1290.88Z" fill="white" stroke="black" stroke-width="12"/>
<path d="M481.643 1631.18L398.755 1774.75L232.981 1774.75L150.094 1631.18L232.981 1487.62L398.755 1487.62L481.643 1631.18Z" fill="white" stroke="black" stroke-width="12"/>
<path d="M765.189 798.341L682.302 941.906L516.528 941.906L433.641 798.341L516.528 654.776L682.302 654.776L765.189 798.341Z" fill="white" stroke="black" stroke-width="12"/>
<path d="M765.189 1138.71L682.302 1282.28L516.528 1282.28L433.641 1138.71L516.528 995.149L682.302 995.15L765.189 1138.71Z" fill="white" stroke="black" stroke-width="12"/>
<path d="M765.189 1480.55L682.302 1624.12L516.528 1624.12L433.641 1480.55L516.528 1336.99L682.302 1336.99L765.189 1480.55Z" fill="white" stroke="black" stroke-width="12"/>
<path d="M765.189 1820.86L682.302 1964.42L516.528 1964.42L433.641 1820.86L516.528 1677.29L682.302 1677.29L765.189 1820.86Z" fill="white" stroke="black" stroke-width="12"/>
<path d="M1046.19 609.48L963.302 753.045L797.528 753.045L714.641 609.48L797.528 465.915L963.302 465.915L1046.19 609.48Z" fill="white" stroke="black" stroke-width="12"/>
<path d="M1046.19 949.854L963.302 1093.42L797.528 1093.42L714.641 949.854L797.528 806.289L963.302 806.289L1046.19 949.854Z" fill="white" stroke="black" stroke-width="12"/>
<path d="M1046.19 1291.69L963.302 1435.26L797.528 1435.26L714.641 1291.69L797.528 1148.13L963.302 1148.13L1046.19 1291.69Z" fill="white" stroke="black" stroke-width="12"/>
<path d="M1046.19 1632L963.302 1775.56L797.528 1775.56L714.641 1632L797.528 1488.43L963.302 1488.43L1046.19 1632Z" fill="white" stroke="black" stroke-width="12"/>
<path d="M1046.19 1970.81L963.302 2114.37L797.528 2114.37L714.641 1970.81L797.528 1827.24L963.302 1827.24L1046.19 1970.81Z" fill="white" stroke="black" stroke-width="12"/>
<path d="M1329.19 458.04L1246.3 601.604L1080.53 601.604L997.641 458.04L1080.53 314.475L1246.3 314.475L1329.19 458.04Z" fill="white" stroke="black" stroke-width="12"/>
<path d="M1329.19 799.155L1246.3 942.72L1080.53 942.72L997.641 799.155L1080.53 655.59L1246.3 655.59L1329.19 799.155Z" fill="white" stroke="black" stroke-width="12"/>
<path d="M1329.19 1139.53L1246.3 1283.09L1080.53 1283.09L997.641 1139.53L1080.53 995.964L1246.3 995.964L1329.19 1139.53Z" fill="white" stroke="black" stroke-width="12"/>
<path d="M1329.19 1481.37L1246.3 1624.93L1080.53 1624.93L997.641 1481.37L1080.53 1337.8L1246.3 1337.8L1329.19 1481.37Z" fill="white" stroke="black" stroke-width="12"/>
<path d="M1329.19 1822.08L1246.3 1965.64L1080.53 1965.64L997.641 1822.08L1080.53 1678.51L1246.3 1678.51L1329.19 1822.08Z" fill="white" stroke="black" stroke-width="12"/>
<path d="M1329.19 2159.35L1246.3 2302.92L1080.53 2302.92L997.641 2159.35L1080.53 2015.79L1246.3 2015.79L1329.19 2159.35Z" fill="white" stroke="black" stroke-width="12"/>
<path d="M1612.19 610.294L1529.3 753.859L1363.53 753.859L1280.64 610.294L1363.53 466.73L1529.3 466.73L1612.19 610.294Z" fill="white" stroke="black" stroke-width="12"/>
<path d="M1612.19 950.668L1529.3 1094.23L1363.53 1094.23L1280.64 950.668L1363.53 807.104L1529.3 807.104L1612.19 950.668Z" fill="white" stroke="black" stroke-width="12"/>
<path d="M1612.19 1292.51L1529.3 1436.07L1363.53 1436.07L1280.64 1292.51L1363.53 1148.94L1529.3 1148.94L1612.19 1292.51Z" fill="white" stroke="black" stroke-width="12"/>
<path d="M1612.19 1632.81L1529.3 1776.37L1363.53 1776.37L1280.64 1632.81L1363.53 1489.25L1529.3 1489.25L1612.19 1632.81Z" fill="white" stroke="black" stroke-width="12"/>
<path d="M1612.19 1971.62L1529.3 2115.19L1363.53 2115.19L1280.64 1971.62L1363.53 1828.06L1529.3 1828.06L1612.19 1971.62Z" fill="white" stroke="black" stroke-width="12"/>
<path d="M1896.19 799.969L1813.3 943.534L1647.53 943.534L1564.64 799.969L1647.53 656.404L1813.3 656.404L1896.19 799.969Z" fill="white" stroke="black" stroke-width="12"/>
<path d="M1896.19 1140.34L1813.3 1283.91L1647.53 1283.91L1564.64 1140.34L1647.53 996.778L1813.3 996.778L1896.19 1140.34Z" fill="white" stroke="black" stroke-width="12"/>
<path d="M1896.19 1482.18L1813.3 1625.75L1647.53 1625.75L1564.64 1482.18L1647.53 1338.62L1813.3 1338.62L1896.19 1482.18Z" fill="white" stroke="black" stroke-width="12"/>
<path d="M1896.19 1822.48L1813.3 1966.05L1647.53 1966.05L1564.64 1822.48L1647.53 1678.92L1813.3 1678.92L1896.19 1822.48Z" fill="white" stroke="black" stroke-width="12"/>
<path d="M1385.5 185.13V205.874H1370.76V144.733H1395.16C1399.83 144.733 1403.96 145.601 1407.55 147.337C1411.16 149.045 1413.94 151.494 1415.9 154.686C1417.89 157.849 1418.88 161.446 1418.88 165.478C1418.88 171.44 1416.74 176.214 1412.46 179.797C1408.2 183.352 1402.35 185.13 1394.91 185.13H1385.5ZM1385.5 173.75H1395.16C1398.01 173.75 1400.18 173.036 1401.67 171.608C1403.18 170.181 1403.93 168.165 1403.93 165.562C1403.93 162.706 1403.16 160.424 1401.62 158.717C1400.08 157.009 1397.99 156.141 1395.33 156.113H1385.5V173.75ZM1441.52 194.536H1467.17V205.874H1426.78V144.733H1441.52V194.536ZM1508.96 194.452H1488.76L1485.23 205.874H1469.48L1491.91 144.733H1505.77L1528.36 205.874H1512.53L1508.96 194.452ZM1492.29 183.072H1505.43L1498.84 161.866L1492.29 183.072ZM1548.56 205.874H1533.86V144.733H1548.56V205.874ZM1609.86 205.874H1595.21L1573.54 167.829V205.874H1558.8V144.733H1573.54L1595.17 182.778V144.733H1609.86V205.874ZM1650.72 189.623C1650.72 187.467 1649.95 185.788 1648.41 184.584C1646.9 183.38 1644.23 182.134 1640.39 180.847C1636.56 179.559 1633.42 178.313 1630.99 177.109C1623.06 173.218 1619.1 167.871 1619.1 161.068C1619.1 157.681 1620.08 154.7 1622.04 152.124C1624.03 149.521 1626.83 147.505 1630.44 146.077C1634.05 144.621 1638.11 143.894 1642.62 143.894C1647.01 143.894 1650.95 144.677 1654.42 146.245C1657.92 147.813 1660.63 150.052 1662.56 152.964C1664.5 155.847 1665.46 159.151 1665.46 162.874H1650.76C1650.76 160.382 1649.99 158.451 1648.45 157.079C1646.94 155.707 1644.89 155.021 1642.28 155.021C1639.65 155.021 1637.56 155.609 1636.02 156.785C1634.51 157.933 1633.76 159.403 1633.76 161.194C1633.76 162.762 1634.6 164.19 1636.28 165.478C1637.96 166.737 1640.91 168.053 1645.14 169.425C1649.36 170.769 1652.84 172.224 1655.55 173.792C1662.16 177.599 1665.46 182.848 1665.46 189.539C1665.46 194.886 1663.45 199.085 1659.41 202.137C1655.38 205.188 1649.85 206.714 1642.83 206.714C1637.87 206.714 1633.38 205.832 1629.35 204.068C1625.34 202.277 1622.32 199.841 1620.28 196.762C1618.26 193.654 1617.25 190.085 1617.25 186.054H1632.04C1632.04 189.329 1632.88 191.751 1634.56 193.318C1636.26 194.858 1639.02 195.628 1642.83 195.628C1645.26 195.628 1647.18 195.11 1648.58 194.074C1650.01 193.01 1650.72 191.527 1650.72 189.623Z" fill="black"/>
</svg>
