<svg width="2047" height="2863" viewBox="0 0 2047 2863" fill="none" xmlns="http://www.w3.org/2000/svg">
<path d="M0.0556641 0.786621H2046.06V2862.79H0.0556641V0.786621Z" fill="white"/>
<path d="M221.54 2389.38H203.189V2439.14H188.45V2389.38H170.436V2378H221.54V2389.38ZM275.752 2378V2418.02C275.752 2422.55 274.786 2426.49 272.854 2429.82C270.923 2433.12 268.151 2435.64 264.54 2437.38C260.929 2439.11 256.66 2439.98 251.732 2439.98C244.286 2439.98 238.421 2438.05 234.138 2434.19C229.854 2430.32 227.671 2425.03 227.587 2418.31V2378H242.41V2418.61C242.578 2425.3 245.686 2428.64 251.732 2428.64C254.784 2428.64 257.093 2427.8 258.661 2426.12C260.229 2424.44 261.013 2421.71 261.013 2417.94V2378H275.752ZM307.708 2417.56H299.729V2439.14H284.99V2378H309.052C316.302 2378 321.971 2379.61 326.059 2382.83C330.146 2386.05 332.189 2390.6 332.189 2396.48C332.189 2400.73 331.322 2404.26 329.586 2407.06C327.878 2409.86 325.191 2412.13 321.523 2413.86L334.289 2438.51V2439.14H318.5L307.708 2417.56ZM299.729 2406.18H309.052C311.851 2406.18 313.951 2405.45 315.351 2403.99C316.778 2402.51 317.492 2400.45 317.492 2397.82C317.492 2395.19 316.778 2393.13 315.351 2391.65C313.923 2390.14 311.823 2389.38 309.052 2389.38H299.729V2406.18ZM392.154 2439.14H377.499L355.831 2401.1V2439.14H341.092V2378H355.831L377.457 2416.05V2378H392.154V2439.14Z" fill="black"/>
<rect x="170.184" y="2488.45" width="222.339" height="222.339" fill="white" stroke="black" stroke-width="10"/>
<path d="M292.624 2640H272.951V2577.38L253.628 2583.02V2568.12L290.82 2555.26H292.624V2640Z" fill="black"/>
<rect x="423.414" y="2488.45" width="222.339" height="222.339" fill="white" stroke="black" stroke-width="10"/>
<path d="M564.383 2640H505.248V2627.2L532.488 2598.56C539.2 2590.92 542.557 2584.85 542.557 2580.35C542.557 2576.7 541.761 2573.92 540.17 2572.02C538.58 2570.12 536.271 2569.17 533.244 2569.17C530.256 2569.17 527.831 2570.45 525.969 2573.01C524.106 2575.53 523.175 2578.7 523.175 2582.5H503.502C503.502 2577.3 504.802 2572.51 507.402 2568.12C510.002 2563.7 513.61 2560.25 518.228 2557.76C522.845 2555.28 528.006 2554.04 533.71 2554.04C542.867 2554.04 549.91 2556.15 554.838 2560.38C559.804 2564.61 562.288 2570.68 562.288 2578.6C562.288 2581.94 561.667 2585.2 560.425 2588.38C559.184 2591.52 557.243 2594.84 554.605 2598.33C552.005 2601.78 547.795 2606.42 541.975 2612.24L531.033 2624.87H564.383V2640Z" fill="black"/>
<rect x="676.643" y="2488.45" width="222.339" height="222.339" fill="white" stroke="black" stroke-width="10"/>
<path d="M774.546 2589.43H783.801C791.134 2589.43 794.801 2585.84 794.801 2578.66C794.801 2575.86 793.928 2573.59 792.182 2571.85C790.436 2570.06 787.972 2569.17 784.79 2569.17C782.19 2569.17 779.92 2569.93 777.98 2571.44C776.079 2572.95 775.128 2574.84 775.128 2577.09H755.514C755.514 2572.62 756.755 2568.65 759.239 2565.16C761.722 2561.66 765.156 2558.95 769.541 2557.01C773.964 2555.03 778.814 2554.04 784.092 2554.04C793.52 2554.04 800.932 2556.19 806.325 2560.5C811.719 2564.81 814.415 2570.72 814.415 2578.25C814.415 2581.9 813.29 2585.35 811.04 2588.61C808.828 2591.83 805.588 2594.45 801.32 2596.47C805.821 2598.1 809.352 2600.58 811.913 2603.92C814.474 2607.22 815.754 2611.31 815.754 2616.2C815.754 2623.77 812.844 2629.82 807.024 2634.36C801.203 2638.9 793.559 2641.17 784.092 2641.17C778.543 2641.17 773.382 2640.12 768.609 2638.03C763.876 2635.89 760.286 2632.96 757.842 2629.24C755.397 2625.47 754.175 2621.21 754.175 2616.43H773.906C773.906 2619.03 774.954 2621.28 777.049 2623.18C779.144 2625.09 781.725 2626.04 784.79 2626.04C788.243 2626.04 790.998 2625.09 793.055 2623.18C795.111 2621.24 796.14 2618.78 796.14 2615.79C796.14 2611.52 795.073 2608.5 792.938 2606.71C790.804 2604.93 787.855 2604.04 784.092 2604.04H774.546V2589.43Z" fill="black"/>
<rect x="929.873" y="2488.45" width="222.339" height="222.339" fill="white" stroke="black" stroke-width="10"/>
<path d="M1064.59 2606.89H1073.2V2622.02H1064.59V2640H1044.98V2622.02H1012.21L1011.04 2610.03L1044.98 2555.44V2555.26H1064.59V2606.89ZM1029.73 2606.89H1044.98V2580.81L1043.75 2582.79L1029.73 2606.89Z" fill="black"/>
<rect x="1183.1" y="2488.45" width="222.339" height="222.339" fill="white" stroke="black" stroke-width="10"/>
<path d="M1264.35 2598.56L1269.53 2555.26H1319.06V2570.51H1285.47L1283.55 2587.33C1284.95 2586.52 1286.77 2585.8 1289.02 2585.18C1291.31 2584.56 1293.54 2584.25 1295.72 2584.25C1304.14 2584.25 1310.6 2586.75 1315.1 2591.75C1319.64 2596.72 1321.91 2603.71 1321.91 2612.71C1321.91 2618.14 1320.69 2623.07 1318.24 2627.49C1315.84 2631.88 1312.44 2635.25 1308.06 2637.62C1303.67 2639.99 1298.49 2641.17 1292.52 2641.17C1287.2 2641.17 1282.21 2640.08 1277.56 2637.91C1272.9 2635.7 1269.25 2632.69 1266.62 2628.89C1263.98 2625.05 1262.68 2620.72 1262.72 2615.91H1282.39C1282.58 2619.01 1283.57 2621.48 1285.36 2623.3C1287.14 2625.12 1289.49 2626.04 1292.4 2626.04C1299 2626.04 1302.29 2621.15 1302.29 2611.37C1302.29 2602.33 1298.26 2597.81 1290.19 2597.81C1285.61 2597.81 1282.2 2599.28 1279.94 2602.23L1264.35 2598.56Z" fill="black"/>
<rect x="1436.33" y="2488.45" width="222.339" height="222.339" fill="white" stroke="black" stroke-width="10"/>
<path d="M1563.79 2554.04V2569.46H1562.92C1555.58 2569.46 1549.55 2571.23 1544.81 2574.76C1540.12 2578.25 1537.23 2583.12 1536.14 2589.37C1540.57 2585.02 1546.15 2582.85 1552.91 2582.85C1560.24 2582.85 1566.08 2585.53 1570.42 2590.88C1574.77 2596.24 1576.94 2603.26 1576.94 2611.95C1576.94 2617.34 1575.66 2622.29 1573.1 2626.79C1570.58 2631.29 1567.03 2634.82 1562.45 2637.39C1557.91 2639.91 1552.87 2641.17 1547.32 2641.17C1541.3 2641.17 1535.93 2639.81 1531.2 2637.09C1526.46 2634.34 1522.78 2630.42 1520.14 2625.34C1517.5 2620.25 1516.14 2614.4 1516.06 2607.76V2599.9C1516.06 2591.17 1517.92 2583.33 1521.65 2576.39C1525.41 2569.4 1530.77 2563.93 1537.71 2559.98C1544.66 2556.02 1552.36 2554.04 1560.82 2554.04H1563.79ZM1546.1 2597.87C1543.5 2597.87 1541.32 2598.47 1539.58 2599.67C1537.83 2600.87 1536.53 2602.35 1535.68 2604.09V2609.97C1535.68 2620.68 1539.38 2626.04 1546.79 2626.04C1549.78 2626.04 1552.26 2624.7 1554.24 2622.02C1556.26 2619.34 1557.27 2615.99 1557.27 2611.95C1557.27 2607.8 1556.24 2604.42 1554.19 2601.82C1552.17 2599.18 1549.47 2597.87 1546.1 2597.87Z" fill="black"/>
<rect x="1689.56" y="2488.45" width="222.339" height="222.339" fill="white" stroke="black" stroke-width="10"/>
<path d="M1833.31 2565.74L1801.64 2640H1780.92L1812.64 2570.39H1772.25V2555.26H1833.31V2565.74Z" fill="black"/>
<path d="M113.616 374.989C113.616 376.815 113.277 378.43 112.6 379.836C111.923 381.242 110.958 382.326 109.707 383.089C108.464 383.844 107.045 384.221 105.451 384.221C103.856 384.221 102.442 383.857 101.208 383.128C99.9732 382.391 99.0088 381.341 98.3145 379.978C97.6287 378.615 97.2687 377.05 97.2344 375.284V374.23C97.2344 372.396 97.5687 370.78 98.2373 369.382C98.9145 367.977 99.8789 366.892 101.13 366.129C102.391 365.366 103.822 364.985 105.425 364.985C107.011 364.985 108.425 365.362 109.668 366.116C110.911 366.871 111.876 367.947 112.561 369.344C113.256 370.733 113.607 372.327 113.616 374.127V374.989ZM109.025 374.204C109.025 372.344 108.713 370.934 108.087 369.974C107.47 369.005 106.582 368.521 105.425 368.521C103.162 368.521 101.966 370.218 101.838 373.613L101.825 374.989C101.825 376.823 102.129 378.233 102.738 379.219C103.346 380.205 104.251 380.698 105.451 380.698C106.591 380.698 107.47 380.213 108.087 379.245C108.704 378.276 109.017 376.883 109.025 375.066V374.204Z" fill="black"/>
<path d="M114.332 383.964V373.06H112.313V370.051H114.332V368.945C114.332 367.359 114.799 366.129 115.733 365.255C116.668 364.381 117.979 363.943 119.668 363.943C120.285 363.943 120.962 364.033 121.699 364.213L121.712 367.402C121.447 367.325 121.091 367.287 120.645 367.287C119.334 367.287 118.678 367.852 118.678 368.984V370.051H121.391V373.06H118.678V383.964H114.332Z" fill="black"/>
<path d="M658.654 367.181H654.44V378.608H651.055V367.181H646.918V364.567H658.654V367.181Z" fill="black"/>
<path d="M662.759 364.567L665.894 374.336L669.018 364.567H673.474V378.608H670.079V375.329L670.407 368.617L667.012 378.608H664.775L661.371 368.608L661.699 375.329V378.608H658.314V364.567H662.759Z" fill="black"/>
<path d="M144.639 242.319C149.403 242.603 153.317 243.486 156.379 244.967C159.49 246.448 161.751 248.3 163.161 250.521C164.57 252.686 165.275 254.993 165.275 257.442C165.275 263.025 163.379 267.183 159.588 269.917C155.796 272.651 150.4 274.018 143.4 274.018C141.99 274.018 140.799 273.99 139.827 273.933C136.521 273.819 133.289 273.762 130.129 273.762C124.441 273.762 120.212 273.847 117.441 274.018V272.309C118.997 272.196 120.115 271.968 120.795 271.626C121.524 271.284 122.011 270.629 122.254 269.661C122.497 268.692 122.618 267.126 122.618 264.961V222.581C122.618 220.417 122.472 218.85 122.181 217.882C121.938 216.913 121.476 216.258 120.795 215.916C120.115 215.575 118.997 215.347 117.441 215.233V213.524C120.212 213.695 124.393 213.78 129.983 213.78L138.368 213.695C139.341 213.638 140.459 213.61 141.723 213.61C148.139 213.61 153.025 214.834 156.379 217.284C159.782 219.676 161.483 222.923 161.483 227.024C161.483 229.132 160.851 231.268 159.588 233.432C158.324 235.54 156.428 237.391 153.9 238.986C151.372 240.581 148.285 241.635 144.639 242.148V242.319ZM141.358 215.233C140.24 215.233 139.389 215.432 138.806 215.831C138.271 216.23 137.907 216.942 137.712 217.967C137.518 218.992 137.421 220.53 137.421 222.581V241.891H139.389C142.014 241.891 143.837 240.638 144.858 238.132C145.928 235.569 146.462 232.179 146.462 227.964C146.462 223.635 146.049 220.445 145.223 218.394C144.445 216.287 143.157 215.233 141.358 215.233ZM142.16 272.053C147.362 272.053 149.962 267.069 149.962 257.1C149.962 252.6 149.039 249.183 147.192 246.847C145.344 244.512 142.428 243.344 138.441 243.344H137.421V264.961C137.421 267.012 137.542 268.521 137.785 269.49C138.028 270.458 138.466 271.142 139.098 271.54C139.778 271.882 140.799 272.053 142.16 272.053Z" fill="black"/>
<path d="M215.701 266.841C216.333 268.664 217.014 270.031 217.743 270.942C218.521 271.797 219.274 272.252 220.003 272.309V274.018C216.503 273.847 212.08 273.762 206.732 273.762C201.191 273.762 197.107 273.847 194.482 274.018V272.309C196.329 272.196 197.642 271.939 198.42 271.54C199.197 271.085 199.586 270.316 199.586 269.233C199.586 268.208 199.295 266.841 198.711 265.132L194.409 251.119H179.68L178.44 254.964C176.836 259.806 176.034 263.509 176.034 266.072C176.034 268.408 176.593 270.002 177.711 270.857C178.829 271.711 180.482 272.196 182.669 272.309V274.018C179.024 273.847 175.839 273.762 173.117 273.762C170.832 273.762 168.961 273.847 167.503 274.018V272.309C168.718 272.082 169.86 271.199 170.93 269.661C171.999 268.123 173.093 265.673 174.211 262.312L190.399 213.524C191.954 213.638 193.243 213.695 194.263 213.695C195.236 213.695 196.499 213.638 198.055 213.524L215.701 266.841ZM193.899 249.41L187.263 228.05L180.263 249.41H193.899Z" fill="black"/>
<path d="M334.169 215.233C332.419 215.347 331.13 215.575 330.304 215.916C329.526 216.258 328.991 216.913 328.7 217.882C328.408 218.85 328.262 220.417 328.262 222.581V266.67C328.262 268.265 328.359 269.433 328.554 270.173C328.748 270.914 329.089 271.427 329.575 271.711C330.061 271.939 330.863 272.053 331.981 272.053H334.387C336.089 272.053 337.936 271.056 339.929 269.063C341.922 267.069 343.721 264.449 345.325 261.202C346.929 257.898 347.999 254.48 348.533 250.948H350.21C350.065 252.999 349.992 255.619 349.992 258.809C349.992 264.961 350.162 270.031 350.502 274.018C347.197 273.847 341.631 273.762 333.804 273.762C322.429 273.762 313.922 273.847 308.283 274.018V272.309C309.838 272.196 310.956 271.968 311.637 271.626C312.366 271.284 312.852 270.629 313.095 269.661C313.338 268.692 313.46 267.126 313.46 264.961V222.581C313.46 220.417 313.314 218.85 313.022 217.882C312.779 216.913 312.318 216.258 311.637 215.916C310.956 215.575 309.838 215.347 308.283 215.233V213.524C311.054 213.695 315.38 213.78 321.262 213.78C326.853 213.78 331.155 213.695 334.169 213.524V215.233Z" fill="black"/>
<path d="M399.282 259.664C399.282 265.474 399.453 270.259 399.793 274.018C396.487 273.847 390.921 273.762 383.095 273.762C371.72 273.762 363.212 273.847 357.573 274.018V272.309C359.129 272.196 360.247 271.968 360.928 271.626C361.657 271.284 362.143 270.629 362.386 269.661C362.629 268.692 362.751 267.126 362.751 264.961V222.581C362.751 220.417 362.605 218.85 362.313 217.882C362.07 216.913 361.608 216.258 360.928 215.916C360.247 215.575 359.129 215.347 357.573 215.233V213.524C363.212 213.695 371.72 213.78 383.095 213.78C390.241 213.78 395.321 213.695 398.334 213.524C397.994 218.879 397.824 223.663 397.824 227.879C397.824 230.499 397.897 232.55 398.043 234.031H396.366C395.491 227.423 393.862 222.695 391.48 219.847C389.098 216.942 386.254 215.489 382.949 215.489H382.001C380.688 215.489 379.716 215.632 379.084 215.916C378.501 216.144 378.088 216.629 377.845 217.369C377.65 218.053 377.553 219.22 377.553 220.872V242.746H378.282C380.81 242.746 382.973 241.578 384.772 239.243C386.57 236.907 387.713 234.315 388.199 231.467H389.876C389.73 233.86 389.657 236.537 389.657 239.499V243.6C389.657 246.505 389.803 250.55 390.095 255.733H388.418C387.98 252.486 386.838 249.809 384.991 247.702C383.192 245.537 380.956 244.455 378.282 244.455H377.553V266.67C377.553 268.322 377.65 269.518 377.845 270.259C378.088 270.942 378.501 271.427 379.084 271.711C379.716 271.939 380.688 272.053 382.001 272.053H384.407C387.227 272.053 389.9 270.458 392.428 267.268C394.956 264.021 396.755 258.866 397.824 251.803H399.501C399.355 253.854 399.282 256.474 399.282 259.664Z" fill="black"/>
<path d="M434.53 215.233C432.78 215.347 431.492 215.575 430.666 215.916C429.888 216.258 429.353 216.913 429.061 217.882C428.77 218.85 428.624 220.417 428.624 222.581V266.67C428.624 268.265 428.721 269.433 428.915 270.173C429.11 270.914 429.45 271.427 429.936 271.711C430.422 271.939 431.225 272.053 432.343 272.053H434.749C436.45 272.053 438.298 271.056 440.291 269.063C442.284 267.069 444.082 264.449 445.687 261.202C447.291 257.898 448.36 254.48 448.895 250.948H450.572C450.426 252.999 450.353 255.619 450.353 258.809C450.353 264.961 450.523 270.031 450.864 274.018C447.558 273.847 441.992 273.762 434.166 273.762C422.79 273.762 414.283 273.847 408.644 274.018V272.309C410.2 272.196 411.318 271.968 411.999 271.626C412.728 271.284 413.214 270.629 413.457 269.661C413.7 268.692 413.822 267.126 413.822 264.961V222.581C413.822 220.417 413.676 218.85 413.384 217.882C413.141 216.913 412.679 216.258 411.999 215.916C411.318 215.575 410.2 215.347 408.644 215.233V213.524C411.415 213.695 415.742 213.78 421.624 213.78C427.214 213.78 431.516 213.695 434.53 213.524V215.233Z" fill="black"/>
<path d="M502.561 266.841C503.193 268.664 503.873 270.031 504.602 270.942C505.38 271.797 506.134 272.252 506.863 272.309V274.018C503.363 273.847 498.939 273.762 493.592 273.762C488.05 273.762 483.967 273.847 481.342 274.018V272.309C483.189 272.196 484.501 271.939 485.279 271.54C486.057 271.085 486.446 270.316 486.446 269.233C486.446 268.208 486.154 266.841 485.571 265.132L481.269 251.119H466.539L465.3 254.964C463.696 259.806 462.893 263.509 462.893 266.072C462.893 268.408 463.452 270.002 464.571 270.857C465.689 271.711 467.341 272.196 469.529 272.309V274.018C465.883 273.847 462.699 273.762 459.977 273.762C457.692 273.762 455.82 273.847 454.362 274.018V272.309C455.577 272.082 456.72 271.199 457.789 269.661C458.859 268.123 459.952 265.673 461.071 262.312L477.258 213.524C478.814 213.638 480.102 213.695 481.123 213.695C482.095 213.695 483.359 213.638 484.915 213.524L502.561 266.841ZM480.758 249.41L474.123 228.05L467.123 249.41H480.758Z" fill="black"/>
<path d="M560.228 215.233C558.721 215.632 557.603 216.258 556.874 217.113C556.144 217.91 555.658 219.163 555.415 220.872C555.172 222.581 555.051 225.144 555.051 228.562V274.018C554.078 273.904 553.276 273.847 552.644 273.847C552.11 273.847 551.21 273.904 549.946 274.018L517.644 232.663V257.271C517.644 261.487 517.79 264.534 518.081 266.414C518.373 268.237 519.005 269.575 519.977 270.43C520.998 271.284 522.675 271.911 525.009 272.309V274.018C523.015 273.847 520.293 273.762 516.842 273.762C514.265 273.762 512.248 273.847 510.79 274.018V272.309C512.297 271.911 513.415 271.313 514.144 270.515C514.873 269.661 515.359 268.379 515.602 266.67C515.845 264.961 515.967 262.398 515.967 258.98V222.581C515.967 220.417 515.821 218.85 515.529 217.882C515.286 216.913 514.824 216.258 514.144 215.916C513.463 215.575 512.345 215.347 510.79 215.233V213.524C512.248 213.695 514.265 213.78 516.842 213.78C519.467 213.78 521.703 213.695 523.55 213.524L553.374 250.436V230.271C553.374 226.056 553.228 223.037 552.936 221.214C552.644 219.334 551.988 217.967 550.967 217.113C549.995 216.258 548.342 215.632 546.009 215.233V213.524C548.002 213.695 550.724 213.78 554.176 213.78C556.752 213.78 558.769 213.695 560.228 213.524V215.233Z" fill="black"/>
<path d="M591.978 213.524C602.04 213.524 609.575 216.059 614.582 221.129C619.589 226.141 622.093 233.461 622.093 243.088C622.093 249.297 620.853 254.736 618.374 259.407C615.943 264.021 612.419 267.61 607.801 270.173C603.183 272.737 597.69 274.018 591.322 274.018L586.801 273.933C583.884 273.819 581.745 273.762 580.384 273.762C574.696 273.762 570.467 273.847 567.696 274.018V272.309C569.252 272.196 570.37 271.968 571.05 271.626C571.78 271.284 572.266 270.629 572.509 269.661C572.752 268.692 572.873 267.126 572.873 264.961V222.581C572.873 220.417 572.728 218.85 572.436 217.882C572.193 216.913 571.731 216.258 571.05 215.916C570.37 215.575 569.252 215.347 567.696 215.233V213.524C569.932 213.695 573.238 213.78 577.613 213.78H580.238L583.446 213.695C587.53 213.581 590.374 213.524 591.978 213.524ZM593.072 215.062C591.565 215.062 590.422 215.261 589.644 215.66C588.915 216.059 588.405 216.771 588.113 217.796C587.821 218.822 587.676 220.36 587.676 222.41V265.132C587.676 267.183 587.821 268.721 588.113 269.746C588.405 270.771 588.915 271.483 589.644 271.882C590.422 272.281 591.589 272.48 593.144 272.48C597.957 272.48 601.433 270.059 603.572 265.218C605.711 260.319 606.78 253.056 606.78 243.429C606.78 233.803 605.662 226.682 603.426 222.068C601.238 217.398 597.787 215.062 593.072 215.062Z" fill="black"/>
<path d="M650.425 212.328C653.196 212.328 655.432 212.641 657.133 213.268C658.883 213.837 660.585 214.663 662.237 215.746C662.772 216.087 663.234 216.372 663.623 216.6C664.06 216.828 664.425 216.942 664.717 216.942C665.154 216.942 665.494 216.657 665.738 216.087C665.981 215.461 666.175 214.492 666.321 213.182H667.998C667.755 217.284 667.633 224.233 667.633 234.031H665.956C665.762 230.784 665.13 227.679 664.06 224.717C662.991 221.755 661.533 219.334 659.685 217.454C657.838 215.575 655.699 214.635 653.269 214.635C651.032 214.635 649.234 215.347 647.873 216.771C646.512 218.138 645.831 220.075 645.831 222.581C645.831 224.518 646.195 226.198 646.925 227.622C647.654 229.046 648.723 230.442 650.133 231.809C651.543 233.119 653.852 235.084 657.06 237.705C657.352 237.876 657.619 238.075 657.862 238.303C658.154 238.531 658.421 238.758 658.664 238.986C661.338 241.151 663.477 243.088 665.081 244.797C666.685 246.448 667.974 248.385 668.946 250.607C669.967 252.828 670.477 255.392 670.477 258.297C670.477 261.999 669.578 265.132 667.779 267.695C666.029 270.202 663.647 272.082 660.633 273.335C657.619 274.588 654.289 275.215 650.643 275.215C647.678 275.215 645.199 274.93 643.206 274.36C641.261 273.79 639.438 273.021 637.737 272.053C636.668 271.256 635.841 270.857 635.258 270.857C634.82 270.857 634.48 271.17 634.237 271.797C633.994 272.366 633.8 273.306 633.654 274.616H631.977C632.171 270.743 632.268 262.483 632.268 249.838H633.945C634.286 256.616 635.501 262.113 637.591 266.328C639.682 270.544 642.89 272.651 647.216 272.651C649.89 272.651 652.005 271.911 653.56 270.43C655.164 268.949 655.966 266.898 655.966 264.278C655.966 261.031 655.091 258.268 653.341 255.99C651.64 253.654 648.966 251.062 645.321 248.214C642.404 245.936 640.07 243.942 638.32 242.233C636.57 240.524 635.136 238.559 634.018 236.338C632.9 234.059 632.341 231.439 632.341 228.477C632.341 224.888 633.168 221.898 634.82 219.505C636.473 217.056 638.661 215.261 641.383 214.122C644.154 212.926 647.168 212.328 650.425 212.328Z" fill="black"/>
<path d="M250.213 215.489V264.363C250.213 266.756 250.408 268.493 250.797 269.575C251.234 270.658 251.988 271.398 253.057 271.797C254.175 272.139 255.925 272.309 258.307 272.309V274.018C251.453 273.847 246.13 273.762 242.338 273.762C238.887 273.762 233.88 273.847 227.317 274.018V272.309C229.699 272.309 231.425 272.139 232.494 271.797C233.613 271.398 234.366 270.658 234.755 269.575C235.192 268.493 235.411 266.756 235.411 264.363V215.489H235.338C232.373 215.489 229.626 217.141 227.099 220.445C224.619 223.692 222.578 229.075 220.973 236.594H219.296C219.442 235.113 219.515 233.062 219.515 230.442C219.515 225.486 219.345 219.847 219.005 213.524C223.623 213.695 231.571 213.78 242.849 213.78C254.078 213.78 298.828 213.695 303.446 213.524C303.106 219.847 302.935 225.486 302.935 230.442C302.935 233.062 303.008 235.113 303.154 236.594H301.477C299.873 229.132 297.807 223.749 295.279 220.445C292.751 217.141 290.029 215.489 287.112 215.489H287.039V264.363C287.039 266.756 287.234 268.493 287.623 269.575C288.06 270.658 288.814 271.398 289.883 271.797C291.001 272.139 292.751 272.309 295.133 272.309V274.018C288.279 273.847 282.956 273.762 279.164 273.762C275.713 273.762 270.706 273.847 264.143 274.018V272.309C266.525 272.309 268.251 272.139 269.32 271.797C270.438 271.398 271.192 270.658 271.581 269.575C272.018 268.493 272.237 266.756 272.237 264.363V215.489H272.164H250.213Z" fill="black"/>
<path d="M414.992 318.943C414.992 328.71 404.893 336.627 392.436 336.627C379.978 336.627 369.879 328.71 369.879 318.943C369.879 309.176 379.978 301.259 392.436 301.259C404.893 301.259 414.992 309.176 414.992 318.943Z" fill="black"/>
<path d="M557.422 303.119H661.382C655.838 307.311 625.158 315.695 591.151 315.695C557.145 315.695 544.609 311.738 537.337 310.234L548.598 306.929L557.422 303.119Z" fill="black"/>
<path d="M530.446 312.551C531.487 314.222 537.399 318.136 552.718 320.417C568.036 322.699 586.26 323.088 593.458 322.997C584.585 326.755 553.342 332.721 537.915 330.331C522.488 327.941 514.784 319.895 508.039 315.695L519.466 314.457L530.446 312.551Z" fill="black"/>
<path d="M480.357 319.721L499.212 318.109C501.566 320.779 505.323 323.676 511.842 328.294C515.743 331.057 534.475 335.31 541.582 336.849C530.99 338.524 504.997 339.103 497.175 335.084C489.353 331.064 482.204 322.935 480.357 319.721Z" fill="black"/>
<path d="M426.051 303.119H542.609C533.471 305.084 508.526 309.721 481.856 312.551C455.186 315.381 442.189 315.826 439.024 315.695C436.964 318.497 435.534 322.626 435.434 327.677C435.324 333.233 437.148 335.45 440.759 339.061C436.956 339.061 428.868 338.49 422.576 338.49C423.734 336.132 426.051 329.529 426.051 321.983V303.119Z" fill="black"/>
<path d="M460.373 321.983L473.686 321.067C474.184 322.969 475.773 327.153 480.879 331.281C485.985 335.41 491.336 339.158 493.373 340.516C485.315 340.38 472.951 339.245 466.77 332.084C463.714 328.544 461.324 324.675 460.373 321.983Z" fill="black"/>
<path d="M441.493 323.577C443.452 323.577 451.33 322.72 453.367 322.72C453.367 322.72 454.713 325.902 457.957 331.281C461.201 336.66 468.116 342.427 468.116 342.427C464.269 340.662 450.972 339.077 444.921 332.635C442.659 330.226 441.765 326.042 441.493 323.577Z" fill="black"/>
<path d="M361.24 303.119H244.681C253.82 305.084 278.765 309.721 305.435 312.551C332.105 315.381 345.102 315.826 348.266 315.695C350.326 318.497 351.756 322.626 351.856 327.677C351.966 333.233 350.143 335.45 346.532 339.061C350.334 339.061 358.423 338.49 364.714 338.49C363.556 336.132 361.24 329.529 361.24 321.983V303.119Z" fill="black"/>
<path d="M345.797 323.577C343.839 323.577 335.961 322.72 333.924 322.72C333.924 322.72 332.577 325.902 329.334 331.281C326.09 336.66 319.174 342.427 319.174 342.427C323.022 340.662 336.319 339.077 342.37 332.635C344.632 330.226 345.526 326.042 345.797 323.577Z" fill="black"/>
<path d="M326.917 321.983L313.605 321.067C313.107 322.969 311.517 327.153 306.411 331.281C301.305 335.41 295.955 339.158 293.918 340.516C301.975 340.38 314.339 339.245 320.521 332.084C323.576 328.544 325.967 324.675 326.917 321.983Z" fill="black"/>
<path d="M306.934 319.721L288.078 318.109C285.724 320.779 281.967 323.676 275.449 328.294C271.547 331.057 252.815 335.31 245.709 336.849C256.301 338.524 282.293 339.103 290.115 335.084C297.937 331.064 305.086 322.935 306.934 319.721Z" fill="black"/>
<path d="M256.844 312.551C255.803 314.222 249.891 318.136 234.573 320.417C219.255 322.699 201.03 323.088 193.833 322.997C202.705 326.755 233.948 332.721 249.375 330.331C264.802 327.941 272.506 319.895 279.251 315.695L267.825 314.457L256.844 312.551Z" fill="black"/>
<path d="M229.868 303.119H125.908C131.453 307.311 162.133 315.695 196.139 315.695C230.146 315.695 242.681 311.738 249.954 310.234L238.692 306.929L229.868 303.119Z" fill="black"/>
<path fill-rule="evenodd" clip-rule="evenodd" d="M255.522 362.708H302.943L302.979 365.964C303.11 377.891 303.294 406.644 302.978 426.184C302.674 445.078 308.467 462.024 311.302 467.94L313.561 472.654H246.127L247.889 468.161C250.4 461.757 255.522 444.17 255.522 426.131V395.543V362.708ZM262.105 369.292V426.131C262.105 441.949 258.415 457.321 255.6 466.071H303.386C300.162 457.506 296.131 442.507 296.396 426.078C296.684 408.226 296.553 382.594 296.429 369.292H262.105ZM139.774 362.856H243.003L252.111 394.592H211.037V429.423C211.037 434.053 212.333 441.592 214.055 449.385C215.756 457.085 217.8 464.717 219.159 469.375L220.388 473.588H156.144L157.914 469.091C159.44 465.212 161.757 458.498 163.687 451.101C165.629 443.662 167.117 435.762 167.117 429.423V394.592H128.368L139.774 362.856ZM173.701 429.423C173.701 436.604 172.046 445.145 170.057 452.764C168.667 458.089 167.084 463.077 165.705 467.005H211.649C210.401 462.452 208.918 456.654 207.626 450.806C205.909 443.035 204.454 434.854 204.454 429.423V388.009H244.114L238.193 369.439H144.403L137.73 388.009H173.701V429.423ZM316.809 363.347H422.373L433.375 391.254C438.099 376.863 438.402 370.258 438.453 366.593V363.347H441.495H484.364L485.031 365.763C486.391 370.691 492.032 387.847 503.516 416.098C506.725 423.992 509.472 431.022 511.867 437.152C514.897 444.905 517.363 451.218 519.49 456.017C521.288 460.074 522.665 462.614 523.715 463.932C524.226 463.162 524.728 462.054 525.175 460.477C525.795 458.29 526.24 455.449 526.544 451.865C527.154 444.681 527.157 435.082 527.157 422.839V363.347H564.462L565.443 364.442C576.119 376.363 598.808 401.701 604.154 407.675C604.917 408.528 605.624 409.342 606.262 410.075L606.486 410.333C606.768 410.657 607.033 410.961 607.284 411.246C607.324 410.329 607.346 409.225 607.346 407.905V363.347H641.15V474.324H605.238C604.179 474.324 603.211 473.978 602.49 473.651C601.716 473.301 600.918 472.828 600.124 472.295C598.534 471.228 596.7 469.743 594.725 467.992C590.76 464.477 585.954 459.646 580.944 454.295C573.379 446.216 565.23 436.826 558.617 428.725V444.848C558.617 448.632 560.173 453.115 562.404 457.645C564.229 461.347 566.345 464.78 568.092 467.613C568.46 468.21 568.812 468.78 569.141 469.321L572.187 474.324H493.375C480.582 474.324 473.708 465.742 471.177 458.751H443.857C443.573 461.44 442.955 464.376 441.789 466.959C440.105 470.687 436.912 474.324 431.523 474.324H383.837L384.067 474.079H338.806L340.575 469.582C342.007 465.943 343.499 459.404 344.633 451.93C345.758 444.515 346.487 436.465 346.487 429.914V395.083H306.128L316.809 363.347ZM398.889 467.741H431.523C433.29 467.741 434.666 466.735 435.788 464.25C436.934 461.713 437.424 458.321 437.47 455.408L437.52 452.168H476.26L476.841 454.733C478.049 460.071 483.035 467.741 493.375 467.741H518.34C516.734 465.618 515.142 462.455 513.471 458.685C511.306 453.797 508.741 447.238 505.643 439.313C503.242 433.173 500.521 426.213 497.417 418.577C487.273 393.622 481.602 377.128 479.395 369.93H444.816C443.894 378.544 439.885 396.398 429.059 420.644C419.043 443.075 406.754 458.783 398.889 467.741ZM529.088 467.741H560.458C559.158 465.566 557.76 463.113 556.499 460.555C554.146 455.778 552.033 450.182 552.033 444.848V409.646L557.931 417.292C564.936 426.372 575.852 439.225 585.75 449.795C590.702 455.084 595.349 459.747 599.092 463.066C600.971 464.731 602.554 465.998 603.792 466.829C604.413 467.245 604.88 467.507 605.206 467.655C605.302 467.698 605.371 467.725 605.416 467.741H634.566V369.93H613.929V407.905C613.929 411.334 613.797 413.976 613.393 415.784C613.201 416.642 612.854 417.782 612.056 418.7C611.612 419.211 610.999 419.686 610.2 419.952C609.403 420.217 608.636 420.202 607.996 420.067C606.848 419.825 605.94 419.164 605.376 418.701C604.744 418.183 604.11 417.541 603.503 416.886C602.854 416.187 602.065 415.281 601.226 414.317C600.583 413.579 599.911 412.806 599.247 412.065C594.062 406.269 572.546 382.243 561.52 369.93H533.74V422.998C533.74 435.051 533.74 444.926 533.104 452.422C532.784 456.195 532.293 459.507 531.509 462.273C530.935 464.296 530.167 466.166 529.088 467.741ZM391.208 466.443C390.533 462.226 390.267 456.559 390.21 450.555C390.165 445.811 390.245 441.229 390.317 437.173C390.364 434.487 390.407 432.033 390.407 429.914V395.083H432C429.779 401.762 426.856 409.429 423.047 417.96C412.135 442.399 398.435 458.556 391.208 466.443ZM384.712 467.495C383.929 462.608 383.682 456.492 383.627 450.617C383.582 445.907 383.666 440.969 383.738 436.761C383.783 434.109 383.823 431.747 383.823 429.914V388.5H423.484L417.562 369.93H321.438L314.765 388.5H353.07V429.914C353.07 436.881 352.301 445.273 351.142 452.917C350.329 458.274 349.304 463.408 348.168 467.495H384.712ZM465.45 406.182C467.062 408.898 468.523 413.002 469.956 418.467C472.228 427.132 473.522 432.525 474.215 435.757C474.559 437.361 474.768 438.493 474.872 439.249C474.919 439.595 474.966 440.011 474.962 440.4C474.96 440.51 474.961 441.039 474.746 441.627C474.649 441.893 474.319 442.718 473.407 443.3C472.764 443.71 472.1 443.842 471.503 443.817H438.756V440.525C438.756 439.193 439.257 436.762 440.317 433.31C441.421 429.714 443.236 424.689 446.103 418.005C447.886 413.848 449.601 410.239 451.286 407.551C452.129 406.206 453.031 404.981 454.011 404.011C454.971 403.06 456.212 402.145 457.752 401.796C461.418 400.965 463.943 403.643 465.45 406.182ZM456.864 411.047C455.462 413.283 453.91 416.503 452.153 420.6C449.356 427.121 447.63 431.921 446.61 435.242C446.383 435.982 446.192 436.645 446.033 437.233H467.798C467.792 437.202 467.785 437.17 467.778 437.138C467.115 434.049 465.85 428.765 463.588 420.137C462.187 414.795 460.91 411.432 459.789 409.542C459.428 408.934 459.155 408.585 458.972 408.392C458.884 408.462 458.775 408.558 458.644 408.687C458.16 409.167 457.564 409.93 456.864 411.047ZM458.692 408.17C458.692 408.163 458.724 408.172 458.788 408.221C458.724 408.202 458.692 408.178 458.692 408.17Z" fill="black"/>
<path d="M112.793 195.58H670.477V199.903H112.793V195.58Z" fill="black"/>
<path d="M112.793 285.186H670.477V289.509H112.793V285.186Z" fill="black"/>
<path d="M196.301 181.357C203.578 171.164 229.391 151.629 279.622 149.109C324.42 146.862 340.037 147.369 345.315 147.543L345.508 147.553L345.816 147.562L347.064 147.588C351.821 147.588 354.464 149.607 356.334 151.037C359.697 153.602 360.571 154.268 366.756 137.948C367.026 137.24 367.142 136.716 367.116 136.34C367.084 135.868 366.84 135.63 366.409 135.569C364.017 135.222 355.878 140.252 347.057 140.252C335.382 140.252 310.103 140.857 277.314 141.715C180.511 144.248 140.779 166.898 117.441 183.993C132.922 176.262 167.942 162.018 184.208 166.898C188.779 168.271 192.167 170.871 194.243 173.597C196.442 176.481 197.175 179.502 196.301 181.357Z" fill="black"/>
<path d="M324.806 157.216C326.722 155.274 328.522 154.654 329.525 154.654C322.054 154.654 305.403 155.994 298.562 161.353C291.728 166.715 279.391 179.759 274.08 185.61C275.932 184.639 278.066 183.389 280.368 182.042C287.71 177.734 296.762 172.43 303.802 172.006C313.047 171.453 314.269 176.651 317.278 182.145C317.123 179.451 317.554 172.118 320.511 164.358C321.797 160.983 323.334 158.707 324.806 157.216Z" fill="black"/>
<path d="M348.465 170.363C356.412 170.736 362.249 174.831 364.178 176.831C361.638 169.518 354.059 154.837 344.074 154.654C334.096 154.467 326.516 174.137 323.977 183.993C328.831 179.296 340.519 169.994 348.465 170.363Z" fill="black"/>
<path d="M283.145 162.507C281.069 163.873 279.031 165.365 277.314 166.898C272.139 171.517 269.972 178.342 267.143 185.61C267.143 179.142 264.327 171.845 250.28 170.363C239.53 169.232 226.556 174.073 214.849 178.445C212.952 179.155 211.088 179.849 209.268 180.505C207.648 181.09 206.067 181.643 204.536 182.145C211.467 176.68 230.645 164.635 251.9 160.199C273.154 155.763 288.784 155.885 293.946 156.502C292.468 157.174 290.089 158.363 287.453 159.874C286.058 160.671 284.592 161.559 283.145 162.507Z" fill="black"/>
<path d="M582.524 181.357C575.246 171.164 549.433 151.629 499.202 149.109C454.404 146.862 438.788 147.369 433.51 147.543L433.317 147.553L432.635 147.572L431.761 147.588C427.003 147.588 424.361 149.607 422.49 151.037C420.838 152.297 419.783 153.098 418.408 151.654C416.987 150.16 415.219 146.254 412.069 137.948C411.593 136.691 411.599 136.006 412.004 135.717C412.718 135.212 414.653 135.932 417.36 136.935C419.147 137.597 421.269 138.385 423.596 139.024C426.135 139.725 428.913 140.252 431.767 140.252C443.443 140.252 468.722 140.857 501.51 141.715C598.314 144.248 638.046 166.898 661.383 183.993C645.902 176.262 610.883 162.018 594.617 166.898C585.211 169.72 580.82 177.75 582.524 181.357Z" fill="black"/>
<path d="M430.359 170.363C422.413 170.736 416.575 174.831 414.647 176.831C417.186 169.518 424.766 154.837 434.75 154.654C444.728 154.467 452.308 174.137 454.848 183.993C449.994 179.296 438.306 169.994 430.359 170.363Z" fill="black"/>
<path d="M458.313 164.358C455.356 156.595 451.074 154.654 449.3 154.654C456.77 154.654 473.422 155.994 480.262 161.353C482.879 163.407 486.306 166.586 489.835 170.058C492.658 172.838 495.551 175.802 498.148 178.525C500.771 181.283 503.092 183.794 504.744 185.61C502.912 184.652 500.81 183.421 498.534 182.09L498.457 182.042C494.464 179.701 489.97 177.066 485.566 175.079C484.602 174.642 483.638 174.237 482.686 173.873C481.715 173.504 480.757 173.176 479.819 172.903C479.06 172.681 478.314 172.494 477.581 172.347C476.7 172.17 475.845 172.054 475.022 172.006C466.98 171.524 465.012 175.397 462.653 180.029L462.126 181.042L461.547 182.145C461.701 179.451 461.271 172.118 458.313 164.358Z" fill="black"/>
<path d="M484.878 156.502C488.266 158.042 496.341 162.279 501.51 166.898C504.622 169.675 506.647 173.25 508.383 177.236C509.052 178.776 509.669 180.377 510.306 182.016L510.479 182.466L510.633 182.871L510.768 183.218L511.681 185.61C511.681 179.142 514.497 171.845 528.545 170.363C539.294 169.232 552.268 174.073 563.976 178.445C567.563 179.785 571.035 181.081 574.288 182.145C567.358 176.68 548.179 164.635 526.925 160.199C505.67 155.763 490.041 155.885 484.878 156.502Z" fill="black"/>
<path d="M389.412 180.431C400.374 180.431 409.259 171.546 409.259 160.581C409.259 149.62 400.374 140.735 389.412 140.735C378.451 140.735 369.566 149.62 369.566 160.581C369.566 171.546 378.451 180.431 389.412 180.431Z" fill="black"/>
<path d="M481.643 864.578L398.755 1008.14L232.981 1008.14L150.094 864.578L232.981 721.013L398.755 721.013L481.643 864.578Z" fill="#4E4E4E" stroke="black" stroke-width="12"/>
<path d="M481.643 1206.42L398.755 1349.98L232.981 1349.98L150.094 1206.42L232.981 1062.85L398.755 1062.85L481.643 1206.42Z" fill="#4E4E4E" stroke="black" stroke-width="12"/>
<path d="M481.643 1546.72L398.755 1690.28L232.981 1690.28L150.094 1546.72L232.981 1403.15L398.755 1403.15L481.643 1546.72Z" fill="#4E4E4E" stroke="black" stroke-width="12"/>
<path d="M765.189 713.879L682.302 857.443L516.528 857.443L433.641 713.879L516.528 570.314L682.302 570.314L765.189 713.879Z" fill="#4E4E4E" stroke="black" stroke-width="12"/>
<path d="M765.189 1054.25L682.302 1197.82L516.528 1197.82L433.641 1054.25L516.528 910.688L682.302 910.688L765.189 1054.25Z" fill="#4E4E4E" stroke="black" stroke-width="12"/>
<path d="M765.189 1396.09L682.302 1539.66L516.528 1539.66L433.641 1396.09L516.528 1252.53L682.302 1252.53L765.189 1396.09Z" fill="#4E4E4E" stroke="black" stroke-width="12"/>
<path d="M765.189 1736.39L682.302 1879.96L516.528 1879.96L433.641 1736.39L516.528 1592.83L682.302 1592.83L765.189 1736.39Z" fill="#4E4E4E" stroke="black" stroke-width="12"/>
<path d="M1046.19 525.018L963.302 668.583L797.528 668.583L714.641 525.018L797.528 381.453L963.302 381.453L1046.19 525.018Z" fill="#4E4E4E" stroke="black" stroke-width="12"/>
<path d="M1046.19 865.392L963.302 1008.96L797.528 1008.96L714.641 865.392L797.528 721.827L963.302 721.827L1046.19 865.392Z" fill="#B4B4B4" stroke="black" stroke-width="12"/>
<path d="M1046.19 1207.23L963.302 1350.8L797.528 1350.8L714.641 1207.23L797.528 1063.67L963.302 1063.67L1046.19 1207.23Z" fill="#B4B4B4" stroke="black" stroke-width="12"/>
<path d="M1046.19 1547.53L963.302 1691.1L797.528 1691.1L714.641 1547.53L797.528 1403.97L963.302 1403.97L1046.19 1547.53Z" fill="#4E4E4E" stroke="black" stroke-width="12"/>
<path d="M1046.19 1886.35L963.302 2029.91L797.528 2029.91L714.641 1886.35L797.528 1742.78L963.302 1742.78L1046.19 1886.35Z" fill="#4E4E4E" stroke="black" stroke-width="12"/>
<path d="M1329.19 373.577L1246.3 517.142L1080.53 517.142L997.641 373.577L1080.53 230.013L1246.3 230.013L1329.19 373.577Z" fill="#4E4E4E" stroke="black" stroke-width="12"/>
<path d="M1329.19 714.693L1246.3 858.257L1080.53 858.257L997.641 714.693L1080.53 571.128L1246.3 571.128L1329.19 714.693Z" fill="#B4B4B4" stroke="black" stroke-width="12"/>
<path d="M1329.19 1055.07L1246.3 1198.63L1080.53 1198.63L997.641 1055.07L1080.53 911.502L1246.3 911.502L1329.19 1055.07Z" fill="#E9E9E9" stroke="black" stroke-width="12"/>
<path d="M1329.19 1392.91L1246.3 1536.47L1080.53 1536.47L997.641 1392.91L1080.53 1249.34L1246.3 1249.34L1329.19 1392.91Z" fill="#B4B4B4" stroke="black" stroke-width="12"/>
<path d="M1329.19 1737.62L1246.3 1881.18L1080.53 1881.18L997.641 1737.62L1080.53 1594.05L1246.3 1594.05L1329.19 1737.62Z" fill="#4E4E4E" stroke="black" stroke-width="12"/>
<path d="M1329.19 2074.89L1246.3 2218.46L1080.53 2218.46L997.641 2074.89L1080.53 1931.33L1246.3 1931.33L1329.19 2074.89Z" fill="#4E4E4E" stroke="black" stroke-width="12"/>
<path d="M1612.19 525.832L1529.3 669.397L1363.53 669.397L1280.64 525.832L1363.53 382.267L1529.3 382.267L1612.19 525.832Z" fill="#4E4E4E" stroke="black" stroke-width="12"/>
<path d="M1612.19 866.207L1529.3 1009.77L1363.53 1009.77L1280.64 866.207L1363.53 722.642L1529.3 722.642L1612.19 866.207Z" fill="#B4B4B4" stroke="black" stroke-width="12"/>
<path d="M1612.19 1208.04L1529.3 1351.61L1363.53 1351.61L1280.64 1208.04L1363.53 1064.48L1529.3 1064.48L1612.19 1208.04Z" fill="#B4B4B4" stroke="black" stroke-width="12"/>
<path d="M1612.19 1548.35L1529.3 1691.91L1363.53 1691.91L1280.64 1548.35L1363.53 1404.78L1529.3 1404.78L1612.19 1548.35Z" fill="#4E4E4E" stroke="black" stroke-width="12"/>
<path d="M1612.19 1887.16L1529.3 2030.73L1363.53 2030.73L1280.64 1887.16L1363.53 1743.6L1529.3 1743.6L1612.19 1887.16Z" fill="#4E4E4E" stroke="black" stroke-width="12"/>
<path d="M1896.19 715.507L1813.3 859.072L1647.53 859.072L1564.64 715.507L1647.53 571.942L1813.3 571.942L1896.19 715.507Z" fill="#4E4E4E" stroke="black" stroke-width="12"/>
<path d="M1896.19 1055.88L1813.3 1199.45L1647.53 1199.45L1564.64 1055.88L1647.53 912.317L1813.3 912.317L1896.19 1055.88Z" fill="#4E4E4E" stroke="black" stroke-width="12"/>
<path d="M1896.19 1397.72L1813.3 1541.29L1647.53 1541.29L1564.64 1397.72L1647.53 1254.16L1813.3 1254.16L1896.19 1397.72Z" fill="#4E4E4E" stroke="black" stroke-width="12"/>
<path d="M1896.19 1738.02L1813.3 1881.59L1647.53 1881.59L1564.64 1738.02L1647.53 1594.46L1813.3 1594.46L1896.19 1738.02Z" fill="#4E4E4E" stroke="black" stroke-width="12"/>
<path d="M1659.79 241.651H1641.44V291.412H1626.7V241.651H1608.69V230.271H1659.79V241.651ZM1716.65 262.102C1716.65 268.064 1715.54 273.341 1713.33 277.933C1711.12 282.524 1707.97 286.065 1703.88 288.557C1699.82 291.02 1695.19 292.252 1689.98 292.252C1684.78 292.252 1680.16 291.062 1676.13 288.683C1672.09 286.275 1668.94 282.846 1666.68 278.395C1664.44 273.943 1663.26 268.834 1663.15 263.067V259.624C1663.15 253.633 1664.24 248.356 1666.43 243.793C1668.64 239.202 1671.79 235.66 1675.87 233.169C1679.99 230.677 1684.66 229.432 1689.9 229.432C1695.08 229.432 1699.7 230.663 1703.76 233.127C1707.82 235.59 1710.96 239.104 1713.2 243.667C1715.47 248.202 1716.62 253.409 1716.65 259.288V262.102ZM1701.66 259.54C1701.66 253.465 1700.63 248.86 1698.59 245.725C1696.58 242.561 1693.68 240.979 1689.9 240.979C1682.51 240.979 1678.6 246.522 1678.18 257.608L1678.14 262.102C1678.14 268.092 1679.13 272.698 1681.12 275.917C1683.11 279.136 1686.06 280.746 1689.98 280.746C1693.71 280.746 1696.58 279.164 1698.59 276.001C1700.61 272.838 1701.63 268.288 1701.66 262.354V259.54ZM1771.62 268.61L1778.63 230.271H1793.24L1780.27 291.412H1764.98L1756.79 256.559L1748.77 291.412H1733.53L1720.51 230.271H1735.17L1742.18 268.61L1750.58 230.271H1763.09L1771.62 268.61ZM1836.91 265.503H1813.73V280.074H1841.11V291.412H1798.99V230.271H1841.2V241.651H1813.73V254.543H1836.91V265.503ZM1869.84 269.828H1861.86V291.412H1847.12V230.271H1871.18C1878.43 230.271 1884.1 231.881 1888.19 235.101C1892.27 238.32 1894.32 242.869 1894.32 248.748C1894.32 253.003 1893.45 256.531 1891.71 259.33C1890.01 262.13 1887.32 264.397 1883.65 266.133L1896.42 290.782V291.412H1880.63L1869.84 269.828ZM1861.86 258.448H1871.18C1873.98 258.448 1876.08 257.72 1877.48 256.265C1878.91 254.781 1879.62 252.723 1879.62 250.092C1879.62 247.46 1878.91 245.403 1877.48 243.919C1876.05 242.407 1873.95 241.651 1871.18 241.651H1861.86V258.448Z" fill="black"/>
<path d="M1061.1 543.54L1081.27 578.629H1239.77L1260.15 542.779L1241.02 542.779L1228.3 565.897H1215.95L1224.3 542.385L1187.83 542.681V565.897H1175.75V542.779L1141.81 543.054V565.897H1131.03V543.141L1096.45 543.422L1109.97 565.897H1096.45L1081.86 543.54H1061.1Z" fill="black"/>
<path d="M1344.1 694.496L1364.27 729.585H1522.77L1543.15 693.735L1524.02 693.735L1511.3 716.853H1498.95L1507.3 693.342L1470.83 693.637V716.853H1458.75V693.735L1424.81 694.01V716.853H1414.03V694.097L1379.45 694.378L1392.97 716.853H1379.45L1364.86 694.496H1344.1Z" fill="black"/>
<path d="M963.791 718.765L1004.27 718.837L1083.51 581.575L1062.66 545.997L1053.09 562.57L1066.76 585.138L1060.58 595.837L1044.39 576.847L1026.41 608.585L1046.52 620.193L1040.48 630.647L1020.46 619.088L1003.73 648.618L1023.51 660.039L1018.12 669.382L998.411 658.004L981.366 688.086L1007.59 687.615L1000.83 699.324L974.172 700.784L963.791 718.765Z" fill="black"/>
<path d="M680.791 1208.93L721.267 1209L800.515 1071.74L779.659 1036.16L770.091 1052.74L783.756 1075.3L777.578 1086L761.394 1067.01L743.411 1098.75L763.517 1110.36L757.481 1120.81L737.46 1109.25L720.729 1138.78L740.511 1150.21L735.117 1159.55L715.411 1148.17L698.366 1178.25L724.59 1177.78L717.83 1189.49L691.172 1190.95L680.791 1208.93Z" fill="black"/>
<path d="M964.215 1055.36L1004.69 1055.43L1083.94 918.17L1063.08 882.592L1053.52 899.164L1067.18 921.733L1061 932.432L1044.82 913.442L1026.84 945.18L1046.94 956.787L1040.9 967.242L1020.88 955.683L1004.15 985.213L1023.93 996.634L1018.54 1005.98L998.835 994.599L981.79 1024.68L1008.01 1024.21L1001.25 1035.92L974.596 1037.38L964.215 1055.36Z" fill="black"/>
<path d="M778.096 693.274L798.271 728.363H956.767L977.151 692.513L958.015 692.513L945.302 715.631H932.948L941.301 692.12L904.824 692.415V715.631H892.753V692.513L858.813 692.788V715.631H848.026V692.876L813.452 693.156L826.972 715.631H813.452L798.858 693.274H778.096Z" fill="black"/>
<path d="M1064.1 882.95L1084.27 918.039H1242.77L1263.15 882.189L1244.01 882.189L1231.3 905.307H1218.95L1227.3 881.796L1190.82 882.091V905.307H1178.75V882.189L1144.81 882.464V905.307H1134.03V882.552L1099.45 882.832L1112.97 905.307H1099.45L1084.86 882.95H1064.1Z" fill="black"/>
<path d="M680.791 868.499L721.267 868.571L800.515 731.31L779.659 695.732L770.091 712.304L783.756 734.872L777.578 745.571L761.394 726.582L743.411 758.319L763.517 769.927L757.481 780.381L737.46 768.823L720.729 798.352L740.511 809.774L735.117 819.116L715.411 807.739L698.366 837.82L724.59 837.35L717.83 849.058L691.172 850.519L680.791 868.499Z" fill="black"/>
<path d="M1362.54 1392.02L1322.06 1391.95L1242.81 1529.21L1263.67 1564.79L1273.24 1548.22L1259.57 1525.65L1265.75 1514.95L1281.93 1533.94L1299.92 1502.2L1279.81 1490.59L1285.85 1480.14L1305.87 1491.7L1322.6 1462.17L1302.82 1450.75L1308.21 1441.4L1327.92 1452.78L1344.96 1422.7L1318.74 1423.17L1325.5 1411.46L1352.16 1410L1362.54 1392.02Z" fill="black"/>
<path d="M1647.94 1205.53L1607.47 1205.46L1528.22 1342.72L1549.07 1378.3L1558.64 1361.73L1544.98 1339.16L1551.15 1328.46L1567.34 1347.45L1585.32 1315.71L1565.22 1304.1L1571.25 1293.65L1591.27 1305.21L1608 1275.68L1588.22 1264.26L1593.62 1254.91L1613.32 1266.29L1630.37 1236.21L1604.14 1236.68L1610.9 1224.97L1637.56 1223.51L1647.94 1205.53Z" fill="black"/>
<path d="M1362.54 1055L1322.06 1054.92L1242.81 1192.19L1263.67 1227.76L1273.24 1211.19L1259.57 1188.62L1265.75 1177.92L1281.93 1196.91L1299.92 1165.18L1279.81 1153.57L1285.85 1143.11L1305.87 1154.67L1322.6 1125.14L1302.82 1113.72L1308.21 1104.38L1327.92 1115.76L1344.96 1085.67L1318.74 1086.15L1325.5 1074.44L1352.16 1072.98L1362.54 1055Z" fill="black"/>
<path d="M1645.87 864.914L1605.39 864.842L1526.14 1002.1L1547 1037.68L1556.57 1021.11L1542.9 998.541L1549.08 987.842L1565.26 1006.83L1583.25 975.094L1563.14 963.486L1569.18 953.032L1589.2 964.59L1605.93 935.061L1586.15 923.639L1591.54 914.297L1611.25 925.674L1628.29 895.593L1602.07 896.063L1608.83 884.355L1635.49 882.894L1645.87 864.914Z" fill="black"/>
<path d="M783.024 1039.04L803.324 1004.03L724.077 866.766L682.838 867.038L692.405 883.611L718.782 883.061L724.959 893.76L700.422 898.281L718.916 929.724L739.021 918.116L745.057 928.57L725.037 940.129L742.244 969.384L762.027 957.963L767.421 967.305L747.714 978.683L765.244 1008.48L777.948 985.538L784.707 997.247L772.643 1021.06L783.024 1039.04Z" fill="black"/>
<path d="M783.024 1380.16L803.324 1345.14L724.077 1207.88L682.838 1208.16L692.405 1224.73L718.782 1224.18L724.959 1234.88L700.422 1239.4L718.916 1270.84L739.021 1259.23L745.057 1269.69L725.037 1281.25L742.244 1310.5L762.027 1299.08L767.421 1308.42L747.714 1319.8L765.244 1349.6L777.948 1326.66L784.707 1338.36L772.643 1362.18L783.024 1380.16Z" fill="black"/>
<path d="M1068.65 1564.61L1088.95 1529.6L1009.7 1392.34L968.459 1392.61L978.026 1409.18L1004.4 1408.63L1010.58 1419.33L986.043 1423.85L1004.54 1455.29L1024.64 1443.69L1030.68 1454.14L1010.66 1465.7L1027.87 1494.95L1047.65 1483.53L1053.04 1492.88L1033.34 1504.25L1050.86 1534.05L1063.57 1511.11L1070.33 1522.82L1058.26 1546.63L1068.65 1564.61Z" fill="black"/>
<path d="M1064.01 1227.44L1084.31 1192.42L1005.06 1055.16L963.822 1055.43L973.39 1072L999.767 1071.45L1005.94 1082.15L981.406 1086.67L999.9 1118.12L1020.01 1106.51L1026.04 1116.96L1006.02 1128.52L1023.23 1157.78L1043.01 1146.36L1048.4 1155.7L1028.7 1167.08L1046.23 1196.88L1058.93 1173.93L1065.69 1185.64L1053.63 1209.46L1064.01 1227.44Z" fill="black"/>
<path d="M982.562 1379.28L962.386 1344.19L803.89 1344.19L783.506 1380.04L802.642 1380.04L815.355 1356.92L827.709 1356.92L819.356 1380.43L855.833 1380.14L855.833 1356.92L867.904 1356.92L867.904 1380.04L901.844 1379.76L901.844 1356.92L912.631 1356.92L912.631 1379.67L947.205 1379.39L933.686 1356.92L947.205 1356.92L961.8 1379.28L982.562 1379.28Z" fill="black"/>
<path d="M1550.56 1379.72L1530.39 1344.63L1371.89 1344.63L1351.51 1380.48L1370.64 1380.48L1383.35 1357.36L1395.71 1357.36L1387.36 1380.87L1423.83 1380.58L1423.83 1357.36L1435.9 1357.36L1435.9 1380.48L1469.84 1380.2L1469.84 1357.36L1480.63 1357.36L1480.63 1380.12L1515.21 1379.84L1501.69 1357.36L1515.21 1357.36L1529.8 1379.72L1550.56 1379.72Z" fill="black"/>
<path d="M1263.12 1228.33L1242.95 1193.24L1084.45 1193.24L1064.07 1229.09L1083.2 1229.09L1095.92 1205.97L1108.27 1205.97L1099.92 1229.48L1136.39 1229.18L1136.39 1205.97L1148.47 1205.97L1148.47 1229.09L1182.41 1228.81L1182.41 1205.97L1193.19 1205.97L1193.19 1228.72L1227.77 1228.44L1214.25 1205.97L1227.77 1205.97L1242.36 1228.33L1263.12 1228.33Z" fill="black"/>
<path d="M1265.56 1564.95L1245.39 1529.86L1086.89 1529.86L1066.51 1565.71L1085.64 1565.71L1098.35 1542.6L1110.71 1542.6L1102.36 1566.11L1138.83 1565.81L1138.83 1542.6L1150.9 1542.6L1150.9 1565.71L1184.84 1565.44L1184.84 1542.6L1195.63 1542.6L1195.63 1565.35L1230.21 1565.07L1216.69 1542.6L1230.21 1542.6L1244.8 1564.95L1265.56 1564.95Z" fill="black"/>
<path d="M1363.54 717.765L1323.06 717.837L1243.81 580.575L1264.67 544.997L1274.24 561.57L1260.57 584.138L1266.75 594.837L1282.93 575.847L1300.92 607.585L1280.81 619.193L1286.85 629.647L1306.87 618.088L1323.6 647.618L1303.82 659.039L1309.21 668.382L1328.92 657.004L1345.96 687.086L1319.74 686.615L1326.5 698.324L1353.16 699.784L1363.54 717.765Z" fill="black"/>
<path d="M1646.54 869.869L1606.06 869.941L1526.81 732.68L1547.67 697.102L1557.24 713.674L1543.57 736.242L1549.75 746.941L1565.93 727.952L1583.92 759.689L1563.81 771.297L1569.85 781.752L1589.87 770.193L1606.6 799.723L1586.82 811.144L1592.21 820.486L1611.92 809.109L1628.96 839.191L1602.74 838.72L1609.5 850.428L1636.16 851.889L1646.54 869.869Z" fill="black"/>
<path d="M1645.54 1208.93L1605.06 1209L1525.81 1071.74L1546.67 1036.16L1556.24 1052.74L1542.57 1075.3L1548.75 1086L1564.93 1067.01L1582.92 1098.75L1562.81 1110.36L1568.85 1120.81L1588.87 1109.25L1605.6 1138.78L1585.82 1150.21L1591.21 1159.55L1610.92 1148.17L1627.96 1178.25L1601.74 1177.78L1608.5 1189.49L1635.16 1190.95L1645.54 1208.93Z" fill="black"/>
<path d="M1362.54 1055.54L1322.06 1055.62L1242.81 918.356L1263.67 882.778L1273.24 899.35L1259.57 921.918L1265.75 932.617L1281.93 913.627L1299.92 945.365L1279.81 956.973L1285.85 967.427L1305.87 955.869L1322.6 985.398L1302.82 996.82L1308.21 1006.16L1327.92 994.785L1344.96 1024.87L1318.74 1024.4L1325.5 1036.1L1352.16 1037.56L1362.54 1055.54Z" fill="black"/>
</svg>
