<svg width="98" height="101" viewBox="0 0 98 101" fill="none" xmlns="http://www.w3.org/2000/svg">
<g id="angel">
<g id="angel_2">
<path d="M64.1075 94.3264H36.3007C38.2501 89.5286 42.3835 78.8548 43.3215 74.5416C44.2595 70.2284 44.3917 58.2779 44.3406 52.8418C43.6101 54.4052 42.0777 57.9616 41.7925 59.6795C41.4361 61.8269 41.028 71.9986 39.2442 74.5416C37.4604 77.0845 36.4505 63.5925 35.8798 62.1631C34.8882 59.6795 32.9049 62.438 31.5062 59.6795L30.158 60.1316L30.3378 59.1682L10.2651 41.4964L8.49748 38.2742L11.6732 39.2794L31.0386 56.9759L32.375 56.2783V57.4077L35.0647 58.6058C37.1713 56.0064 41.5374 50.5588 42.149 49.5642C42.9135 48.321 42.9645 39.901 44.3406 39.2794C45.4415 38.7821 46.517 38.5965 47.2136 38.3893C48.8444 37.2433 47.2151 30.1248 50.9662 30.1248C54.7173 30.1248 53.9207 37.7781 55.6205 38.7713C56.1857 38.8655 56.2881 39.1664 57.7448 39.6184C59.2015 40.0705 59.2691 41.9542 59.1208 42.8395L63.7081 45.6452C63.7081 52.377 63.3326 67.8112 63.3326 67.8112L64.1075 69.2366L64.8472 67.8112L65.1546 45.6452L71.0044 43.7239C70.8272 50.4803 70.5051 65.4713 69.7606 67.9478C69.016 70.4244 67.6297 76.6761 64.4949 78.5896C61.4131 76.0903 59.1655 71.1909 58.1551 67.9478C57.1447 64.7048 56.8902 58.3223 56.7351 51.4431L55.9239 44.6281V58.6058H50.1312V59.1682H55.2477C56.3323 59.1682 57.108 71.6372 57.2619 75.3914C57.4159 79.1456 62.3119 90.8423 64.1075 94.3264Z" fill="black"/>
<path d="M42.149 35.1542C42.9235 35.335 43.2534 36.5104 43.3215 37.0755C42.4721 37.6406 40.6101 39.0421 39.9577 40.1271C39.3054 41.2121 39.6859 43.8747 39.9577 45.0703C39.7199 45.4758 38.4695 46.0434 35.3707 45.0703C31.4973 43.854 31.956 39.6184 31.0386 39.6184C30.3047 39.6184 24.7188 37.4711 22.0175 36.3975L25.4323 34.4761L19.0105 34.7587V29.3902L14.6274 29.8423V26.4517L11.9771 24.3608L13.1494 23.2306L10.1933 20.7442L15.3409 19.2749L7.28824 15.4323L6.16699 10.855C12.8096 14.189 26.1662 20.8346 26.4516 20.7442C26.8084 20.6312 31.7009 20.5181 35.8804 20.2921C40.0599 20.0661 44.3406 22.0439 44.3406 25.491C44.3406 28.9381 38.8365 28.26 38.021 31.4245C37.3686 33.9562 37.9191 34.5138 38.2759 34.4761C39.2442 34.6268 41.3746 34.9734 42.149 35.1542Z" fill="black"/>
<path d="M68.8557 42.8395C65.5123 43.9245 63.2834 42.1238 62.5868 41.0878C62.264 40.1836 61.3127 38.3075 60.0895 38.0362C58.5605 37.6971 59.1208 36.3975 58.8153 36.0584C58.5098 35.7193 63.7081 34.4761 64.2687 33.2329C64.8294 31.9897 61.8733 28.7121 60.803 28.7121C59.7327 28.7121 56.318 24.9824 57.3882 23.2306C58.4585 21.4788 63.4023 22.8916 63.7081 23.2306C64.0139 23.5697 67.4796 20.7442 68.8557 19.8966C70.2318 19.0489 72.7801 22.1004 73.3917 22.5525C74.0033 23.0046 76.042 20.2921 79.2019 19.8966C82.3618 19.501 91.2809 16.6755 91.7906 16.7885C92.3003 16.9015 88.121 21.3658 85.9295 22.1004C83.7379 22.8351 88.172 23.2306 89.65 23.2306C91.128 23.2306 85.7256 25.8866 82.9734 25.8301C80.2212 25.7736 85.5727 28.2035 87.1017 28.0905C88.6307 27.9775 80.7309 29.8423 78.0806 30.1248C75.4304 30.4073 79.7115 33.0634 80.7309 33.8545C81.7502 34.6456 77.3161 35.1542 75.3794 35.1542C73.83 35.1542 75.7532 37.3016 76.9084 38.3753C75.6172 39.4113 72.1991 41.7546 68.8557 42.8395Z" fill="black"/>
</g>
</g>
</svg>
