<svg width="98" height="101" viewBox="0 0 98 101" fill="none" xmlns="http://www.w3.org/2000/svg">
<g id="behemoth">
<g id="behemoth_2">
<path d="M22.9763 81.2302H26.2643C26.1181 80.0818 26.118 77.5769 27.2871 76.7436C28.4561 75.9104 32.7914 74.3669 34.8129 73.6992V67.8507C34.0822 66.649 32.1679 64.2935 30.3559 64.4858C28.5438 64.6781 28.0908 65.4205 28.0908 65.7677C27.6281 67.5837 26.6149 71.2957 26.2643 71.6162C25.9137 71.9367 24.7055 72.6043 24.1452 72.8981L17.7152 75.1413L19.0304 80.5091L21.0765 81.9512L22.9763 81.2302Z" fill="#159670"/>
<path d="M86.6167 79.4676L76.9721 80.0284V73.6992C77.8245 72.8179 79.6609 70.6227 80.187 68.8922C80.7132 67.1617 79.5781 65.2336 78.9448 64.4858C80.5523 64.4858 84.1326 64.7422 85.5938 65.7677C87.4203 67.0495 85.0093 69.2928 85.0823 71.6162C85.1408 73.4749 86.1296 77.6249 86.6167 79.4676Z" fill="#159670"/>
<path fill-rule="evenodd" clip-rule="evenodd" d="M18.2275 44.9374C17.3749 44.0561 15.2751 41.3001 13.697 37.3263C12.119 33.3525 11.3835 29.3146 11.213 27.7924C10.8232 30.1692 10.2775 35.5317 11.213 37.9672C12.1485 40.4028 13.2588 42.4003 13.697 43.0947C12.796 42.7742 10.7602 41.3001 9.82499 37.9672C8.88975 34.6344 7.77898 30.5431 7.34051 28.914C6.85344 32.5994 6.17156 40.4669 7.34051 42.4537C8.50946 44.4406 10.7012 47.0204 11.651 48.0619L9.82499 50.3052V57.4355L8.58218 58.1566L9.82499 63.6846C10.8477 64.4591 13.3169 66.0401 15.012 66.1683C16.0019 66.2431 15.4609 65.3912 14.8865 64.4867C14.2313 63.455 13.5326 62.3548 15.012 62.4829C16.4513 62.6075 16.8696 62.2369 17.3051 61.851C17.7097 61.4925 18.1292 61.1209 19.396 61.1209C21.5003 61.1209 23.0005 61.7618 23.4877 62.0823L17.0578 68.0911H12.4547C13.4045 69.1326 16.1226 71.1836 19.396 71.0554C23.4877 70.8951 24.949 67.9308 25.5335 66.1683C26.118 64.4057 28.0177 62.4829 31.3788 62.4829C34.0676 62.4829 36.1524 66.2217 36.8587 68.0911L42.2656 69.3729L36.8587 70.4144L36.055 75.3016C34.0092 76.1561 29.8152 77.9614 29.406 78.346C28.9968 78.7305 28.8945 81.1234 28.8945 82.2717L47.3803 81.4705L48.1109 71.456L48.8416 65.5273L47.3803 62.0823C47.843 62.8568 49.3384 64.5179 51.6181 64.9665C53.8977 65.4152 55.8316 65.5273 56.5135 65.5273C56.4404 67.37 57.0688 71.0554 60.1668 71.0554C61.3908 71.0554 62.7681 70.8953 64.0749 70.7269C64.2616 70.7029 64.4469 70.6786 64.6301 70.6547C67.221 70.3159 69.3934 70.0319 69.3001 71.0554C69.1539 72.6577 68.7155 75.9425 66.3044 76.0226C63.8932 76.1027 58.121 77.7852 58.4863 79.6278C58.7786 81.102 58.6081 82.3251 58.4863 82.7524L75.0723 82.2717C74.8044 79.4676 74.4293 73.6191 75.0723 72.6577C75.317 72.2918 75.7312 72.015 76.1744 71.7187C77.1867 71.0421 78.3506 70.2641 77.9949 68.0911L77.9652 67.9095C77.4686 64.8708 77.0783 62.4829 75.0723 62.4829C73.0264 62.4829 71.1998 60.0794 71.492 59.839C71.6608 59.7003 74.1913 60.3358 76.7364 60.9749C78.6001 61.443 80.4715 61.913 81.429 62.0823C83.6941 62.4829 91.6583 60.48 91.2929 52.7087C91.0007 46.4916 89.1253 42.3736 88.2242 41.0918L91.2929 37.9672L86.6167 39.2491L85.5207 37.3263V26.9912L82.8904 35.3234H80.9176C80.9419 33.2136 80.523 28.5936 78.6525 26.9912C76.782 25.3889 74.2198 24.4542 73.1726 24.1872C74.9992 25.656 78.6525 29.2025 78.6525 31.638C78.6525 34.0736 78.1443 34.4224 77.8902 34.2924C76.9561 33.1943 74.6081 30.6936 72.6893 29.4755C70.7706 28.2575 67.2781 27.3118 65.7717 26.9912C70.2067 29.6187 78.5567 35.206 76.4764 36.5347C74.396 37.8635 72.4789 37.5129 71.7804 37.1715L64.3316 35.3234L63.6009 32.0386L61.482 32.8398L60.1668 30.5965L59.217 27.7924L55.7828 28.914L51.6181 25.8696L52.4949 21.6234L47.3803 24.1872H43.2155L41.3888 19.1398L37.8817 25.8696L35.3974 28.3532L34.886 23.5462L32.1825 29.4755L29.406 31.638L27.2871 28.3532L26.9218 33.8012L24.5106 35.3234V37.9672L21.2226 39.2491L20.7111 43.976V46.2192L18.2275 44.9374ZM19.9074 55.0321H15.7427L19.9074 51.1063V55.0321ZM32.1825 38.8485L34.886 41.9731L36.055 46.6198L36.8587 52.1479C37.6138 50.2251 39.0653 46.2353 38.8315 45.6584C38.5977 45.0816 37.4189 41.9463 36.8587 40.4508L32.1825 37.9672V38.8485ZM52.8603 33.9614C51.5743 33.5127 46.0407 33.454 43.4347 33.4807C45.9434 34.0415 51.5452 35.3875 53.8833 36.2848C56.2214 37.1821 60.2644 39.9167 61.9936 41.1719L58.9979 36.8456C57.4879 36.0711 54.1463 34.41 52.8603 33.9614ZM54.9062 63.7648C54.7601 62.5363 54.9208 59.4865 56.7328 57.1151C58.0351 55.4108 60.6898 53.9979 62.7114 52.9219C64.2061 52.1263 65.3546 51.515 65.3546 51.1063C65.3546 50.3372 63.9907 48.0619 63.3088 47.0204C63.6254 48.3824 63.9372 51.1063 62.6512 51.1063C61.0437 51.1063 55.4177 54.0707 54.3947 55.5929C53.5764 56.8106 54.3947 61.5482 54.9062 63.7648ZM82.5982 55.5929C77.7466 56.1056 75.4621 48.5426 74.9263 44.697L76.9721 42.9345L77.7028 46.5397L80.187 44.697L81.1369 48.142C81.3074 47.5011 82.0722 46.1391 83.7673 45.8186C85.8862 45.4181 86.763 47.7414 87.1283 51.1063C87.1831 51.6112 87.2561 52.0512 87.3199 52.4365C87.6816 54.6191 87.7527 55.0481 82.5982 55.5929Z" fill="#159670"/>
</g>
</g>
</svg>
