<svg width="98" height="101" viewBox="0 0 98 101" fill="none" xmlns="http://www.w3.org/2000/svg">
<g id="centaur">
<path id="centaur_2" d="M29.5722 22.6152L33.2438 23.1048L33.9169 25.0018H31.5915C30.9184 25.0018 29.511 26.9599 29.511 27.3883C29.511 27.8166 28.8379 30.0196 29.511 30.8151C30.0494 31.4515 29.7353 33.8952 29.511 35.0374C30.0211 34.5887 31.1514 33.63 31.5915 33.3852C32.0317 33.1405 33.5295 30.5091 34.2234 29.2241C34.203 30.0196 34.1131 31.7208 33.9169 32.1614C33.6715 32.7121 32.2647 35.0374 31.5915 35.6494C30.9184 36.2613 28.8379 36.8732 28.8379 36.6285C28.8379 36.4327 25.9822 35.2006 24.5543 34.6091C24.6563 34.2827 24.7992 33.5199 24.5543 33.0793C24.3094 32.6387 23.4733 31.9166 23.0858 31.6106V25.5525H24.5543L24.8604 28.551C25.7172 27.0619 27.7779 25.8585 27.7779 23.1048C27.7779 20.3511 26.3683 18.7341 25.5728 17.1635L24.8604 20.963L23.0858 21.3302V19.066L21.4948 18.7601V20.963L17.0893 20.5958L16.4773 16.8019C15.1922 17.6586 12.6465 20.2165 12.7444 23.5943C12.8424 26.9722 15.2738 28.3062 16.4773 28.551C16.8852 27.8778 17.8847 26.5316 18.6188 26.5316H21.4948V31.6106H18.0682C18.0682 32.6101 18.1783 34.8171 18.6188 35.6494C19.0593 36.4816 20.7197 37.1792 21.4948 37.424V42.6866L18.6188 43.2985V46.1134C18.6188 47.5821 20.5361 47.7452 21.4948 47.6432V53.7014H23.0858V47.1537L24.5543 46.7865C25.6354 46.5622 27.92 45.9788 28.4096 45.4403C28.8991 44.9018 28.8991 43.3801 28.8379 42.6866L25.8395 41.0344L24.8604 42.6866H23.0858V37.8523C23.4937 37.9135 24.3585 38.0849 24.5543 38.2807C24.7991 38.5255 29.0826 41.218 29.511 41.4015C29.8536 41.5484 31.2448 41.6667 31.8975 41.7075L36.6706 39.5045C35.8954 40.6468 34.2596 43.0048 33.9169 43.2985C33.5742 43.5923 32.2239 43.7473 31.5915 43.7881V45.4403C31.5915 46.5622 31.7262 48.9038 32.2647 49.2955C32.8032 49.6871 32.8154 50.9681 32.7542 51.5596L31.5915 54.1909C31.5915 55.7207 31.8241 59.4046 32.7542 61.9013C33.9169 65.0221 35.5079 64.043 36.6706 64.7161C37.8332 65.3893 37.8944 67.6534 37.7108 69.3056C37.564 70.6274 36.6706 71.3658 36.2422 71.5698C36.6094 72.4877 37.3437 74.4336 37.3437 74.8742C37.3437 75.3148 36.6094 79.7493 36.2422 81.9114C35.7527 81.9726 34.6022 82.144 33.9169 82.3398C33.0602 82.5846 32.2647 84.5427 31.5915 85.583C30.9184 86.6233 33.9781 89.071 34.3452 89.071C34.7124 89.071 36.5482 88.2143 37.3437 88.2143H42.3003C42.5859 86.5825 43.157 83.2455 43.157 82.9517C43.157 82.5846 42.2391 77.9951 42.3003 77.6279C42.3615 77.2607 43.9526 68.9385 43.5854 67.1639C43.2917 65.7442 42.8103 64.2878 42.6063 63.7371L48.3585 64.4102C50.1331 64.2674 53.9882 63.8472 55.2121 63.3087C56.7419 62.6356 60.0464 62.8804 61.3314 63.3087C62.6165 63.7371 62.1881 68.143 63.5956 69.734C64.7215 71.0068 68.1035 72.1001 69.6537 72.4877C69.6945 73.7116 69.7516 76.3918 69.6537 77.3219C69.5558 78.2521 68.1035 80.198 67.3895 81.0547C66.5328 81.6055 64.3666 82.8293 62.5553 83.3189C60.744 83.8084 60.9847 86.7865 61.3314 88.2143H67.3895C67.3488 87.9696 67.2916 87.3699 67.3895 86.9293C67.5119 86.3785 68.797 85.1547 68.8582 84.5427C68.9071 84.0532 70.0209 82.299 70.5716 81.4831C70.898 80.9731 71.5629 79.7819 71.6119 79.0965C71.6608 78.4112 72.5298 75.425 72.9581 74.0175C73.1417 75.119 73.5089 77.4566 73.5089 77.9951V81.4831C73.0193 81.993 71.8689 83.0741 71.1835 83.3189C70.4982 83.5637 70.2044 86.195 70.1432 87.48H76.0178C75.8954 86.5621 75.7241 84.6896 76.0178 84.5427C76.3115 84.3959 76.8337 83.2577 77.0581 82.7069V71.5698C77.0581 70.8355 75.5078 69.5096 74.7327 68.9385C74.6307 68.1634 74.4145 66.4296 74.3656 65.6952C74.3044 64.7773 74.6103 63.4311 75.6506 63.3087C76.6909 63.1863 76.8133 67.5922 77.0581 68.9385C77.3029 70.2847 78.3431 70.2235 78.8327 70.8967C79.3222 71.5698 79.567 75.3638 79.567 75.7921C79.567 76.1348 83.361 78.1379 85.258 79.0965C84.85 78.7294 83.9484 77.8604 83.6057 77.3219C83.1774 76.6488 83.4834 74.7518 83.1162 72.7937C82.749 70.8355 83.2998 69.8564 83.1162 68.143C82.9326 66.4296 82.3207 62.9415 82.3207 61.9013C82.3207 60.861 81.6476 57.9237 81.2192 56.1491C80.8765 54.7294 78.8735 51.9268 77.9148 50.7029C74.8959 49.1731 68.6991 45.9788 68.0627 45.4403C67.2672 44.7672 63.718 45.4403 62.1881 45.1343C60.6583 44.8284 55.3345 46.1134 54.4166 46.1134C53.4987 46.1134 49.6435 46.4806 48.7256 46.4806C47.8077 46.4806 44.1361 45.6239 43.157 45.4403C42.3738 45.2934 41.362 42.8906 40.9541 41.7075C40.8113 39.5045 40.538 35.0007 40.5869 34.6091C40.6481 34.1195 41.0765 31.0599 41.4436 30.5091C41.8108 29.9584 42.1779 26.5928 42.0556 25.8585C41.9332 25.1241 39.3631 23.4107 38.6899 23.1048C38.0168 22.7988 39.3019 19.7391 39.3631 19.372C39.4243 19.0048 38.8123 17.2302 38.6899 16.8019C38.592 16.4592 37.2213 14.0074 36.5482 12.8243C35.4467 12.8651 33.1214 12.9222 32.6318 12.8243C32.1422 12.7264 31.0408 14.9457 30.5512 16.0676L29.5722 17.5974V22.6152Z" fill="#AD8605"/>
</g>
</svg>
