<svg width="98" height="101" viewBox="0 0 98 101" fill="none" xmlns="http://www.w3.org/2000/svg">
<g id="colossus">
<g id="colossus_2">
<path d="M14.8732 55.6184L17.3692 55.1197C17.3105 59.0352 16.5751 66.9454 14.1032 67.2626C11.0133 67.659 6.04536 45.9933 5.86361 39.329C5.68185 32.6648 6.34812 23.7714 7.01456 21.5627C7.14517 21.1299 7.34089 20.3111 7.58936 19.2717C8.60867 15.0077 10.5157 7.02995 12.4578 6.74353C14.8732 6.3873 15.6411 7.17102 16.1631 8.73844C16.5806 9.99237 16.685 11.2558 16.685 11.7308C15.8334 11.0183 13.991 9.65038 13.4335 9.87836C12.7366 10.1633 11.2557 13.4407 10.8922 15.1506C10.5286 16.8605 10.2863 25.7534 10.1045 35.997C9.92279 46.2405 13.3332 66.3957 14.1032 63.0809C14.7192 60.4291 15.0901 57.7193 15.1986 56.6959L14.8732 55.6184Z" fill="#B21CB2"/>
<path d="M80.0433 25.072H85.1526C84.6572 23.7246 83.7686 20.9643 84.1774 20.7021C84.5862 20.44 85.9889 20.8842 86.6393 21.1391L87.4754 23.2695L92.1668 19.0634L88.0328 14.6389C87.6301 15.6221 86.6576 17.5558 85.9887 17.4247C85.1526 17.2608 84.8277 16.1137 84.8277 15.6767C84.8277 15.2397 84.6881 12.29 82.5514 12.3446C80.842 12.3883 79.7336 15.2397 79.393 16.6599C78.2008 16.5325 75.742 15.8843 75.4447 14.3111C75.0731 12.3446 75.0731 10.3782 75.9092 10.105C76.5781 9.88654 77.2096 9.24923 77.4418 8.95789C74.9955 9.34026 70.0936 11.7 70.0565 18.0801C70.0193 24.4602 74.1286 28.2297 76.1879 29.3169C75.4447 28.0112 74.0419 25.0939 74.3764 23.8703C74.5227 23.3348 74.5324 22.7859 74.5411 22.2986C74.5571 21.3942 74.5693 20.7021 75.4447 20.7021C76.5224 20.7021 78.1543 20.9935 78.8356 21.1391L80.0433 25.072Z" fill="#B21CB2"/>
<path d="M12.4578 15.6221C12.4578 14.8179 13.5319 14.2767 14.8016 13.6371L14.8732 13.6011C15.4771 13.3097 16.685 12.9019 16.685 13.6011C16.685 14.212 17.0194 14.6896 17.3126 15.1082C17.4388 15.2885 17.5574 15.4578 17.6384 15.6221C17.7217 15.7912 17.9471 15.8922 18.2411 16.024C18.8971 16.318 19.8946 16.7652 20.4162 18.4626C20.4617 18.6104 20.5036 18.7454 20.5422 18.8696C20.7545 19.5534 20.8648 19.9085 20.8963 20.2705C20.9304 20.6618 20.8724 21.061 20.7517 21.8917C20.6673 22.4733 20.552 23.2669 20.4162 24.4166C20.0632 27.4056 19.8496 27.2886 19.47 27.0806C19.2668 26.9692 19.0162 26.8319 18.6712 27.1305C17.6815 27.9871 17.0099 28.5134 15.8024 29.3169C14.8486 29.9516 14.967 30.8206 15.1045 31.8309C15.1411 32.0995 15.1791 32.3781 15.1986 32.6649C15.2915 34.0305 15.4773 36.4707 15.8024 36.8404C16.1276 37.2101 16.685 38.7416 16.685 39.329C16.685 39.6322 17.1304 40.31 17.5679 40.9756C17.978 41.5997 18.3812 42.2132 18.4037 42.4972C18.4408 42.9669 17.7295 44.942 17.3692 45.8709C16.9089 46.6278 15.9511 48.1417 15.8024 48.1417C15.746 48.1417 15.7324 48.4632 15.7122 48.9414C15.6659 50.0376 15.5849 51.9567 14.8732 52.712C13.851 53.7967 12.7366 53.0397 12.7366 52.4193C12.7366 52.3248 12.7419 51.9089 12.7502 51.2668C12.7965 47.6899 12.9336 37.096 12.7366 35.997C12.5791 35.1188 12.635 33.5504 12.6874 32.0786C12.7124 31.3777 12.7366 30.6988 12.7366 30.1267C12.7366 28.3532 12.7366 27.7486 13.4335 26.8201C13.991 26.0773 14.6256 25.673 14.8732 25.5637C14.5636 25.0721 13.8422 23.8485 13.4335 22.8872C13.1348 22.1846 13.0582 21.6314 12.9813 21.0748C12.9266 20.6793 12.8716 20.282 12.7366 19.8282C12.443 18.842 12.4523 16.8766 12.4568 15.9008C12.4573 15.7956 12.4578 15.7019 12.4578 15.6221Z" fill="#B21CB2"/>
<path d="M38.7671 28.8521C39.6304 29.0505 40.2783 29.1993 40.2783 28.993C40.2783 28.874 40.3415 28.6332 40.4209 28.3308C40.6615 27.4147 41.0504 25.9334 40.2783 25.5637C39.3592 25.1237 38.5253 23.8964 38.1937 23.4084C38.1548 23.3511 38.1227 23.304 38.0983 23.2695C38.0617 23.2177 38.0275 23.0352 37.9776 22.7688C37.7117 21.3481 36.9993 17.5426 33.0817 18.4626C29.456 19.3139 28.2098 21.2933 27.5719 22.3064C27.3912 22.5933 27.2593 22.8028 27.136 22.8872C27.0484 22.9472 26.9082 23.0372 26.7314 23.1507C25.7812 23.7606 23.7751 25.0484 23.1878 26.0007C22.6304 26.9045 21.9026 28.5881 21.6084 29.3169C23.293 28.7812 26.9372 27.8706 28.0371 28.5134C29.1371 29.1562 31.4983 32.2051 32.5414 33.6492C32.5414 33.6492 33.6391 28.993 35.2095 28.5134C36.104 28.2402 37.6243 28.5896 38.7671 28.8521Z" fill="#B21CB2"/>
<path d="M60.7197 25.072C60.3638 25.5693 59.5033 26.2076 58.7807 26.7436C58.1541 27.2085 57.6312 27.5964 57.6312 27.7486C58.8821 27.5426 61.7421 27.4071 63.1744 28.5134C64.603 29.6168 65.3322 31.6023 65.7034 32.6131C65.7974 32.8691 65.8685 33.0626 65.9221 33.1633C66.0652 33.4321 66.4861 32.7898 67.0037 31.9998C67.4463 31.3244 67.9595 30.5411 68.4304 30.1267C69.248 29.4072 71.5891 29.0711 72.6574 28.993C72.3323 28.7421 71.5054 28.142 70.7994 27.7486C70.1527 27.3883 69.6058 26.1189 69.2134 25.2083C69.0703 24.8762 68.9478 24.5918 68.8485 24.4166C68.5951 23.9696 68.5577 23.0144 68.5153 21.9323C68.4956 21.4277 68.4748 20.8955 68.4304 20.3744C68.3 18.8404 67.1112 18.6945 65.55 18.5029C65.4434 18.4898 65.3351 18.4765 65.2254 18.4626C63.5067 18.2441 62.2438 19.2819 61.9743 19.8282C61.7488 20.2854 61.7052 21.0487 61.6698 21.6698L61.6697 21.6713C61.6628 21.7914 61.6562 21.9069 61.6487 22.0131C61.6022 22.6686 61.3841 24.1434 60.7197 25.072Z" fill="#B21CB2"/>
<path d="M55.4627 27.1305C55.0516 26.9334 54.3972 27.2994 53.5268 27.7863C52.4308 28.3994 50.9921 29.2041 49.2655 29.3169C48.2437 29.2089 46.1451 28.993 45.9247 28.993C45.7872 28.993 45.3751 28.6902 44.8526 28.3064C44.3286 27.9214 43.6935 27.4549 43.1132 27.1305C42.3154 26.6846 42.084 27.3706 41.8406 28.0924C41.7303 28.4191 41.6176 28.7532 41.4488 28.993C40.907 29.7623 40.588 35.1878 41.4488 35.1473C42.1374 35.1149 45.6596 34.9988 47.3346 34.9449L48.6368 33.1633L49.6248 34.3375C51.4672 34.6749 55.295 35.2283 55.8669 34.7424C56.5817 34.1351 56.3916 27.5759 55.4627 27.1305Z" fill="#B21CB2"/>
<path d="M53.5932 55.5574C52.7952 53.9559 51.6578 51.6732 48.1428 51.6272C45.2075 51.5888 44.2618 53.8513 43.6888 55.2223C43.4729 55.739 43.3099 56.1291 43.1132 56.2216C42.215 56.6442 38.1285 57.2777 36.916 57.1721C35.7035 57.0665 35.2095 53.4226 35.2095 52.4193C35.2095 51.6165 36.5567 49.6203 37.2303 48.7226C36.7813 48.5289 35.7485 48.0783 35.2095 47.8248C34.5357 47.5079 34.446 42.3854 35.2095 40.6427C35.6864 39.554 36.7768 39.8049 37.7579 40.0307C38.3473 40.1664 38.8973 40.293 39.2513 40.1146C39.7244 39.8761 40.254 39.0529 40.7438 38.2916C41.2302 37.5354 41.6773 36.8404 41.9906 36.8404C42.4936 36.8404 45.6131 36.594 47.1099 36.4707C47.2148 38.5303 47.4064 42.7551 47.3346 43.1776C47.2627 43.6 43.0234 45.3956 40.9127 46.2405C42.1552 46.2405 44.7748 46.1666 45.3137 45.8709C45.8526 45.5752 46.7357 45.2196 47.1099 45.0787L48.6368 48.1417C48.8314 47.3848 49.2296 45.8181 49.2655 45.6068C49.3014 45.3955 50.6576 44.9203 51.3312 44.7091L50.3882 43.1776L49.6248 36.8404C50.6127 36.8228 53.1635 36.7982 55.4627 36.8404C57.3911 36.8759 58.9151 39.1222 59.9263 40.6126C60.4222 41.3436 60.7948 41.8928 61.0312 41.9102C61.6061 41.9524 63.3664 39.8154 64.1748 38.7416C64.7286 40.1499 65.8004 43.3149 65.6567 44.7091C65.4771 46.4519 62.7826 47.4552 61.9743 47.4552C61.3276 47.4552 57.6332 45.6245 55.8669 44.7091C54.1903 45.1492 51.457 45.9977 53.9359 45.8709C57.0345 45.7125 62.0192 48.9867 62.2438 49.3036C62.4683 49.6204 62.2887 55.1126 61.0312 56.2216C60.0253 57.1088 55.8819 56.5913 53.9359 56.2216C53.8247 56.0221 53.7127 55.7973 53.5932 55.5574Z" fill="#B21CB2"/>
<path d="M39.5207 30.653C39.6105 31.2874 39.7363 32.7747 39.5207 33.6492C39.2513 34.7424 38.6944 36.9288 38.4534 37.2932C38.2123 37.6576 36.0507 38.022 35.6301 37.941C35.2095 37.8601 34.1151 36.4834 34.1151 35.7141C34.1151 34.9448 35.0297 31.9487 35.2095 31.6248C35.3532 31.3656 38.1435 30.869 39.5207 30.653Z" fill="#B21CB2"/>
<path d="M61.0312 30.1267H57.459C57.5164 31.2199 57.6312 33.4549 57.6312 33.6492C57.6312 33.8193 57.918 34.4855 58.1374 34.9948C58.2313 35.213 58.3129 35.4024 58.3542 35.5117C58.4644 35.8032 60.42 38.7018 61.3841 40.1146C61.9809 39.3226 63.2915 37.559 63.7598 36.8404C64.112 36.3 64.1026 35.6503 64.0923 34.9274C64.0854 34.4489 64.078 33.9384 64.1748 33.4063C64.3707 32.3284 63.7787 31.9883 63.398 31.7696C63.3068 31.7172 63.2277 31.6717 63.1744 31.6248C63.1278 31.5836 63.0573 31.5133 62.9688 31.425C62.5351 30.9923 61.6674 30.1267 61.0312 30.1267Z" fill="#B21CB2"/>
<path d="M51.9902 61.5452C52.0382 61.4532 52.081 61.3712 52.1223 61.3032C52.2383 61.1123 52.2371 60.7515 52.2358 60.357C52.2332 59.5798 52.2302 58.6714 53.1208 58.6714C54.195 58.6714 58.4575 58.4285 60.4544 58.307C60.8447 59.1708 61.7835 61.036 62.417 61.5866C63.0505 62.1373 63.3925 63.6246 63.4843 64.2994C60.8676 64.3939 55.5309 64.7529 55.1177 65.4331C54.6013 66.2833 51.9846 71.5874 51.537 72.5591C51.4235 72.8055 51.2547 73.515 51.034 74.4429C50.384 77.1755 49.2834 81.802 47.8185 82.0741C46.0771 82.3974 45.2574 76.9186 45.0467 75.5103C45.0199 75.3315 45.003 75.2183 44.9952 75.1909C44.9899 75.172 44.9782 75.1293 44.9609 75.066C44.7556 74.3161 43.7589 70.6736 43.1132 69.4415C42.8847 69.0056 42.5403 68.3154 42.1678 67.5693C41.3987 66.0282 40.5102 64.2483 40.2783 63.9755C40.1599 63.8363 39.7255 63.3956 39.2064 62.869C38.2156 61.8638 36.916 60.5453 36.916 60.4124C36.916 60.381 36.9057 60.3272 36.8925 60.2578C36.8208 59.8805 36.6619 59.0449 37.5927 58.8739C38.07 58.7862 38.978 58.8048 39.9371 58.8246C41.192 58.8504 42.5343 58.878 43.1132 58.6714C44.0001 58.355 44.5257 60.3896 44.8573 61.6731C44.9075 61.8674 44.9533 62.0449 44.9952 62.194C45.25 63.1009 47.5291 63.4896 48.6368 63.5706C51.0078 63.4281 51.6384 62.2195 51.9902 61.5452Z" fill="#B21CB2"/>
<path d="M46.4613 59.7661C46.1051 59.5567 45.8271 57.632 45.7327 56.6959C46.495 57.3068 48.0885 58.5333 48.3638 58.5523C48.7078 58.5761 50.9543 59.7661 50.7924 59.9803C50.6305 60.1945 48.8495 60.1945 48.3638 60.1945C47.878 60.1945 46.9065 60.0279 46.4613 59.7661Z" fill="#B21CB2"/>
<path d="M45.8767 55.1197L51.1893 58.307C51.3765 56.8922 51.3337 54.0325 49.6645 53.9117C47.9953 53.7909 46.4438 54.6667 45.8767 55.1197Z" fill="#B21CB2"/>
<path d="M53.613 72.5591C52.2528 73.3661 52.5167 75.8232 52.6142 76.7317C52.6246 76.8282 52.6331 76.9072 52.6376 76.965C53.6749 77.8765 55.8781 79.7709 56.3916 80.0558C56.6816 80.2168 57.4393 80.9742 58.3137 81.8481C59.3744 82.9083 60.6068 84.1401 61.3841 84.6869C62.802 85.6843 65.1158 86.6817 65.6567 86.2543C65.8266 86.12 66.1233 85.6577 66.4973 85.0748C67.3141 83.8021 68.4997 81.9548 69.5386 81.6945C70.7503 81.3909 73.6785 81.093 74.9912 80.982C74.7553 80.3167 74.2834 78.8113 74.2834 78.1121C74.2834 77.2381 73.8654 74.7254 73.308 73.6875L73.2901 73.6543C72.7147 72.5829 71.0203 69.4276 69.9171 68.1158C68.8023 66.7902 67.5017 66.2586 63.8321 65.8216C60.8964 65.472 57.4374 66.1858 56.0749 66.5864C56.0594 67.6606 55.9727 69.9512 55.7497 70.5193C55.471 71.2294 55.1177 71.6664 53.613 72.5591Z" fill="#B21CB2"/>
<path d="M76.7482 85.1856C75.9606 89.2466 74.2299 90.8853 73.308 91.5977C72.386 92.3102 69.7203 93.0939 68.5692 93.0939C67.8788 93.0939 66.7305 92.6838 65.5962 92.2787C64.8394 92.0084 64.0887 91.7403 63.4843 91.5977C63.2608 91.545 63.0144 91.4938 62.7533 91.4396C61.2504 91.1275 59.2594 90.714 58.3303 89.3178C57.4579 88.0069 54.4938 84.8293 53.1208 83.4044C52.9567 84.4019 52.727 86.5392 53.1208 87.1092C53.613 87.8217 57.6033 90.244 58.3303 90.6715C59.0573 91.099 61.3841 92.8089 61.3841 93.8064C61.3841 94.6043 52.5566 94.8513 48.1428 94.8751C48.4088 93.0227 49.0856 89.3178 49.6645 89.3178C50.2435 89.3178 50.3882 85.708 50.3882 83.9031L51.1893 79.4859C51.511 78.855 52.251 77.697 52.6376 78.1121C52.7878 78.2734 53.3946 78.7975 54.1598 79.4584C55.8561 80.9236 58.3303 83.0607 58.3303 83.4044C58.3303 83.8034 61.0547 86.0405 62.417 87.1092L64.1748 88.1067V89.8878L65.6567 90.244L66.0852 87.4654C66.5799 86.1593 68.0389 83.4472 69.9171 83.0482C72.2649 82.5495 73.5757 82.4782 74.2834 82.4782C74.5079 82.4782 74.8379 82.4209 75.1838 82.3608C75.9288 82.2314 76.7482 82.089 76.7482 82.4782V85.1856Z" fill="#B21CB2"/>
<path d="M34.1151 78.5067C34.6475 78.7298 36.4241 78.5744 38.4503 78.3973C40.0077 78.2611 41.7126 78.1121 43.1132 78.1121L43.8412 76.0906C43.5985 75.0684 43.0217 72.801 42.6558 71.9089C42.29 71.0168 42.0599 70.6108 41.9906 70.5193L39.5207 71.9089C39.9847 70.3601 40.6343 67.1273 39.5207 66.5864C38.8365 66.254 38.3591 65.5197 37.8917 64.8008C37.4081 64.0572 36.9352 63.3299 36.2551 63.0809C35.0864 62.653 35.1617 60.9355 35.1994 60.0776C35.2048 59.9537 35.2095 59.8477 35.2095 59.7661C35.2095 59.1198 34.1151 58.6714 31.7509 58.6714C29.3867 58.6714 28.5901 58.6714 25.7456 58.8739C23.9148 59.0042 23.6879 59.6041 23.4425 60.2526C23.3066 60.6117 23.1651 60.9857 22.7425 61.3032C22.2616 61.6645 21.4947 61.8793 20.7108 62.0988C19.5622 62.4205 18.377 62.7524 18.0013 63.5706C17.4955 64.6719 17.3692 66.4908 17.3692 67.2626C17.9224 67.9889 19.1552 69.6571 19.6609 70.5193C20.2931 71.5971 22.9799 72.0018 23.9282 71.9089C24.6025 71.8428 24.6774 70.6232 24.7496 69.4473C24.779 68.9695 24.8079 68.4989 24.8764 68.1158C24.9389 67.7664 25.0013 67.3361 25.0667 66.8858C25.2494 65.6277 25.4546 64.214 25.7456 63.9755C26.0617 63.7163 27.405 63.8675 28.0371 63.9755C29.5386 64.8458 32.5414 66.8923 32.5414 68.1158V73.024C32.5414 74.325 33.1736 78.1121 34.1151 78.5067Z" fill="#B21CB2"/>
<path d="M26.2212 77.267C26.8266 77.3508 30.6373 77.5843 30.8153 76.965C30.9934 76.3456 31.4207 74.2098 31.4207 73.4978C31.4207 72.7858 30.8153 70.0757 30.6373 69.4415C30.5056 68.9724 29.5754 67.9097 28.9412 67.1852C28.7179 66.9301 28.5313 66.7169 28.4292 66.5864C28.0371 66.085 26.5417 64.9136 26.5773 65.75C26.6001 66.2851 26.5938 66.8213 26.5862 67.4562C26.582 67.8136 26.5773 68.2023 26.5773 68.6397C26.5773 69.8542 26.0179 71.9089 25.7456 71.9089C25.4733 71.9089 24.583 73.1209 24.583 73.4978C24.583 73.7993 25.6751 76.1362 26.2212 77.267Z" fill="#B21CB2"/>
<path d="M18.6712 75.1909C17.6815 72.7379 17.6384 70.9431 17.6384 69.938C17.9827 70.8117 19.0202 72.5591 20.4162 72.5591C21.8123 72.5591 22.5488 73.1849 22.7425 73.4978C22.7425 74.2656 22.84 75.9352 23.2297 76.4713C23.5155 76.8644 23.9317 77.7188 24.3708 78.6201C24.6802 79.2551 25.0009 79.9133 25.2953 80.4499C25.8651 81.4885 27.3606 83.3117 28.0371 84.0935C27.9185 83.549 27.6813 82.3829 27.6813 82.0741C27.6813 81.7652 27.0878 79.8016 26.791 78.8585C27.99 78.7412 30.4734 78.5067 30.8153 78.5067C31.2427 78.5067 31.7509 78.8166 31.9906 79.4859C32.1198 79.8467 32.4099 80.2083 32.7726 80.6603C33.0827 81.0467 33.4458 81.4993 33.8068 82.0741C34.3633 82.9599 34.4707 83.9054 34.5244 84.379C34.5464 84.5722 34.5594 84.6869 34.5903 84.6869C34.6376 84.6869 34.8592 85.1611 35.1402 85.7625C35.4942 86.5202 35.9425 87.4797 36.2551 87.9464C36.8159 88.7837 37.8311 90.6715 37.938 91.4225C38.0235 92.0233 37.7434 93.9745 37.5927 94.8751L23.2297 95.2336C23.2178 95.0382 23.2012 94.463 23.2297 93.7259C23.2569 93.0223 25.3612 91.3905 26.4493 90.5466C26.7859 90.2856 27.0254 90.0998 27.0759 90.0405C27.2469 89.8394 29.3552 89.0633 30.388 88.7003C29.7351 88.5886 28.2797 88.3234 27.6813 88.1559C26.9855 87.961 26.3204 85.9533 25.9731 84.9047C25.9472 84.8264 25.923 84.7533 25.9007 84.6869C25.6603 83.9697 24.3383 82.6048 23.2416 81.4724C22.8759 81.0949 22.5353 80.7431 22.2681 80.4499L22.1474 80.3175C21.0863 79.155 19.6242 77.553 18.6712 75.1909Z" fill="#B21CB2"/>
<path d="M73.308 31.026C72.1 31.0807 69.8239 32.1662 69.2201 32.6648C68.9967 32.8492 68.678 33.0429 68.3463 33.2446C67.7812 33.5882 67.1782 33.9548 66.944 34.3375C66.5724 34.9449 66.1544 36.6624 66.1544 37.941C66.1544 38.0128 66.1541 38.0913 66.1538 38.1755C66.1485 39.5907 66.1371 42.634 67.4085 43.1776C67.858 43.3697 68.3075 43.5042 68.7328 43.6315C69.5821 43.8856 70.3351 44.111 70.7994 44.7091C71.4962 45.6068 71.8678 46.9798 71.682 48.1417C71.6427 48.387 71.5869 48.6723 71.5268 48.9797C71.3022 50.1282 71.0172 51.5852 71.3104 52.4193C71.682 53.4766 72.7968 56.2216 73.7722 56.2216C74.7477 56.2216 75.6767 56.8397 76.4199 57.5734C77.0145 58.1603 78.0921 59.2798 78.5566 59.7661C78.9592 54.1555 79.6436 42.803 79.1605 42.2786C78.5566 41.6231 77.7205 40.476 77.4418 39.7659C77.1631 39.0558 77.0702 37.0908 77.0702 35.7141C77.0702 34.3375 76.9309 33.4748 76.4199 32.0639C76.0111 30.9352 74.175 30.9017 73.308 31.026Z" fill="#B21CB2"/>
<path d="M18.6712 40.6427C19.3411 41.9017 23.9282 41.077 23.9282 40.9131L26.5773 40.4215C25.9126 41.1498 24.12 42.7207 22.2681 43.1776C20.4162 43.6344 19.7583 43.3679 19.6609 43.1776C19.1077 44.7266 17.8749 48.1206 17.3692 49.3036C16.7372 50.7823 18.6712 53.9117 18.6712 53.0397C18.6712 52.2601 19.1255 51.39 19.5229 50.6288C19.5699 50.5387 19.6163 50.4499 19.6609 50.3631C19.973 49.7562 20.764 49.467 21.7084 49.1217C22.039 49.0009 22.3883 48.8732 22.7425 48.7226C24.1089 48.1416 24.8764 46.9218 25.2953 46.2405C25.4463 45.9949 25.8447 45.4896 26.311 44.8983C27.1381 43.8495 28.1785 42.5301 28.4292 41.9102C28.6758 41.3005 29.9262 41.2145 31.0168 41.1396C31.6602 41.0954 32.2481 41.055 32.5414 40.9131C33.3319 40.5308 33.4998 39.5475 33.4998 38.7416C33.4998 38.2715 32.5865 36.8516 31.79 35.6131C31.221 34.7283 30.7115 33.9361 30.6373 33.6492C30.4592 32.9609 28.9012 31.6248 28.0371 31.026C27.765 30.8375 27.6025 30.6784 27.4704 30.5491C27.183 30.2678 27.0388 30.1267 26.2212 30.1267C25.0276 30.1267 22.7425 30.653 20.9582 31.6248C19.4935 32.4224 18.1965 34.1476 17.4312 35.1657C17.2642 35.3878 17.1225 35.5763 17.0099 35.7141C16.4193 36.437 17.8137 39.041 18.5401 40.3974C18.5868 40.4846 18.6307 40.5666 18.6712 40.6427Z" fill="#B21CB2"/>
<path d="M84.4855 43.3811C83.7254 43.1677 82.9531 42.951 82.5514 42.825C81.8546 42.6065 80.6934 41.5686 80.4147 41.077C80.3024 40.879 79.979 40.7053 79.6329 40.5194C79.1198 40.2439 78.5566 39.9415 78.5566 39.4929V37.6357C78.5566 37.5119 78.5417 37.3332 78.5245 37.1278C78.4811 36.6084 78.4235 35.9179 78.5566 35.5117C78.7053 35.0582 78.6186 33.4248 78.5566 32.6648L79.1605 31.2993C78.7579 30.4981 77.9621 28.8193 77.9992 28.5134C78.0457 28.1311 79.3463 26.547 80.4147 26.3831C81.483 26.2192 81.8546 26.2912 83.0623 26.7109C84.27 27.1305 84.8739 27.7099 85.1526 28.5134C85.247 28.7857 85.2775 29.156 85.309 29.5393C85.3704 30.287 85.4359 31.0841 85.9887 31.2993C86.3468 31.4387 86.7816 31.7092 87.2056 31.9729C87.7713 32.3249 88.3177 32.6648 88.6364 32.6648L88.6523 32.6648C89.2017 32.6646 89.6118 32.6644 89.6118 34.7424C89.6118 36.0506 89.4674 37.3831 89.3586 38.3864C89.2929 38.9921 89.2402 39.478 89.2402 39.7659C89.2402 39.9706 89.3333 40.1283 89.476 40.3699C89.8664 41.0312 90.6278 42.3209 90.866 46.9218C91.1206 51.8399 90.4356 54.2133 89.9478 55.9033C89.8126 56.3719 89.6925 56.788 89.6118 57.1911C89.2402 59.0484 88.0325 60.4124 86.7784 61.3032C85.775 62.0158 83.8829 62.194 83.0623 62.194L82.8765 45.0787L85.9887 43.8082C85.5953 43.6926 85.0437 43.5377 84.4855 43.3811Z" fill="#B21CB2"/>
<path d="M83.0623 87.1092H78.8081L79.4745 62.194L80.4147 43.8082L81.595 44.7091L83.0623 87.1092Z" fill="#B21CB2"/>
<path d="M50.1638 19.4133L51.3763 18.0402H57.2592L52.4541 20.5222L50.3884 22.4762V26.4897C52.4541 26.1201 56.7922 25.2118 57.6185 24.5358C58.6514 23.6908 59.819 22.3178 59.819 21.7897C59.819 21.6987 59.8269 21.3604 59.8388 20.8584C59.8958 18.4455 60.042 12.2531 59.819 11.5974C59.6034 10.9637 58.2622 9.60822 57.6185 9.00969C58.0376 9.87226 58.6873 11.7558 57.9328 12.3895C57.432 12.8102 56.3866 12.5607 55.0186 12.2342C53.8105 11.9458 52.3509 11.5974 50.7926 11.5974C49.1459 11.5974 47.0691 12.3495 45.3109 12.9862C43.5209 13.6345 42.0611 14.1632 41.7213 13.657C41.1824 12.8543 41.1076 10.7172 41.1376 9.74906C40.3442 10.2067 38.7843 11.3756 38.8921 12.3895C38.9999 13.4035 39.6854 14.8892 40.0147 15.5053L39.7453 21.7897L40.5536 23.9021L48.8615 27.1763L48.4573 22.4762L45.9874 20.5222L42.3948 18.4098L47.5143 18.0402L48.8615 19.8357L50.1638 19.4133Z" fill="#B21CB2"/>
</g>
</g>
</svg>
