<svg width="98" height="101" viewBox="0 0 98 101" fill="none" xmlns="http://www.w3.org/2000/svg">
<g id="cyclops">
<path id="cyclops_2" fill-rule="evenodd" clip-rule="evenodd" d="M15.608 71.068C13.3228 66.9685 13.5922 62.8075 14.0125 61.2394L19.892 69.1359L22.5802 70.48V64.3476L19.22 59.6433C18.744 59.5033 17.4895 59.2233 16.2798 59.2233C15.6066 59.2233 15.2997 58.9901 14.9885 58.7537C14.6007 58.4591 14.2062 58.1594 13.0878 58.2992C11.8932 58.4486 12.1144 57.536 12.3006 56.7676C12.4287 56.2392 12.5402 55.779 12.1637 55.779C11.781 55.779 11.7873 55.3901 11.7948 54.9283C11.8054 54.2751 11.8184 53.4762 10.7356 53.427C8.88751 53.3429 9.39154 51.0748 10.2319 49.3107C10.9043 47.8994 11.7999 47.0425 12.1637 46.7905L10.2319 42.9263L13.0878 40.2381L15.608 44.2704C15.8783 44.884 16.707 46.7905 17.6278 48.1758C18.5486 49.5611 16.638 45.2523 16.1546 44.4236C15.6712 43.5949 21.0101 35.4522 21.3203 34.6938C21.9252 33.2153 23.4629 32.4945 24.527 32.6625C25.7871 33.0262 28.1799 34.7967 28.2859 34.464C28.5135 33.7493 25.5237 32.8727 24.7731 32.0896C24.0225 31.3066 26.5286 28.4745 26.5286 27.8894C26.5286 25.9572 32.913 22.261 35.3492 21.589C37.2981 21.0514 40.5855 19.4049 41.9856 18.6488C42.3216 17.1367 44.6906 14.1125 51.4782 14.1125C58.2658 14.1125 59.2907 19.0968 58.9546 21.589C60.4107 22.6531 63.5749 24.9828 64.583 25.7893C65.591 26.5957 65.003 30.3255 64.583 32.0896C64.863 32.3417 65.8767 33.0305 67.6912 33.7697C69.5057 34.509 69.0073 37.2699 68.5312 38.558C69.0073 38.334 70.3289 37.886 71.8074 37.886C73.2859 37.886 74.9436 39.4541 75.5877 40.2381C75.8677 39.9301 76.6629 39.0285 77.6038 37.886C78.5446 36.7435 79.3959 36.8499 79.7039 37.0459V29.2335H75.9237L76.9317 25.3692L73.4035 23.7731L73.0675 21.589H75.2516C75.4476 19.8249 75.8565 16.2127 75.9237 15.8766C75.954 15.725 76.4549 15.6172 77.0827 15.4821C78.1944 15.2428 79.7039 14.9178 79.7039 14.1125C79.7039 13.1045 80.768 12.1804 81.3 11.8444L82.3081 14.7846L86.0043 15.3726C86.2563 16.4367 86.7603 18.8336 86.7603 19.9089C86.7603 20.9841 87.9364 20.3569 88.5245 19.9089V23.7731H86.7603L87.3484 27.8894L83.4841 29.8215V38.558C84.5762 39.118 86.7603 40.4733 86.7603 41.4142V43.5143C87.1524 43.8783 87.9532 44.8752 88.0204 45.9505C88.0876 47.0257 86.7043 47.4626 86.0043 47.5466C86.2563 48.1346 86.6091 49.5123 86.0043 50.3187C85.3995 51.1252 83.6802 50.6547 82.8961 50.3187V55.779H79.7039V51.0748C79.2279 51.4108 78.007 51.8812 76.9317 51.0748C75.8565 50.2683 74.8596 49.5627 74.4956 49.3107C73.9636 49.1427 72.4795 49.1091 70.7994 50.3187C68.6992 51.8308 65.507 49.5627 63.8269 46.7905C62.4829 44.5728 59.5707 41.4982 58.2826 40.2381C58.2826 41.4422 57.913 44.4384 56.4345 46.7905C54.956 49.1427 54.6424 48.2746 54.6704 47.5466C54.4744 48.3306 54.0823 50.3355 54.0823 52.0828C54.0823 53.5075 55.8695 55.2539 57.5087 56.8557C58.3824 57.7095 59.2141 58.5223 59.7107 59.2233C61.1388 61.2394 62.9029 63.7596 62.8189 69.1359C62.7636 72.6759 60.8144 74.2856 59.4894 75.3799C58.802 75.9476 58.2826 76.3766 58.2826 76.8644C58.2826 78.2924 59.5427 80.8966 60.8028 81.5687C61.0115 81.68 61.2457 81.7844 61.4926 81.8945C62.7358 82.4491 64.3026 83.1479 64.583 85.6009C64.8518 87.953 62.6229 87.589 61.4748 87.113C60.8308 87.337 59.2907 87.7682 58.2826 87.701C57.2745 87.6338 56.6305 87.281 56.4345 87.113C56.0145 87.869 54.956 89.4987 54.0823 89.9692C53.1632 90.4641 51.411 88.5193 50.0778 87.0395C49.8269 86.7611 49.5909 86.4991 49.3781 86.2729C48.3028 85.1305 48.93 82.6607 49.3781 81.5687C48.118 81.7087 45.3794 81.6695 44.5058 80.3926C43.676 79.1798 45.4167 77.7245 46.5218 76.8007C46.8711 76.5086 47.1569 76.2697 47.2779 76.1083C47.782 75.4363 49.3781 71.9081 49.9661 70.48C50.5541 69.0519 49.9661 67.6238 49.3781 66.4477C48.9076 65.5069 49.5741 62.5835 49.9661 61.2394C49.154 61.6594 47.0091 62.4323 44.9258 62.1635C43.084 61.9258 42.2883 60.2263 42.0512 59.1195C42.4235 61.3429 43.2226 65.3734 43.9177 66.4477C44.4211 67.2257 43.9522 68.3777 43.5025 69.4825C43.1267 70.4058 42.7642 71.2962 42.9937 71.9081C43.1792 72.4028 43.433 72.7495 43.6796 73.0866C44.1032 73.6653 44.5058 74.2153 44.5058 75.4363C44.5058 77.3684 43.4977 78.0404 42.9937 78.3765C42.6322 78.6174 42.1411 80.3706 41.7993 81.5909C41.6645 82.0722 41.5529 82.4706 41.4816 82.6607C41.2296 83.3328 42.5736 84.1728 44.9258 83.9208C47.234 83.6735 46.9535 86.7429 46.7835 88.6041L46.7739 88.7091C46.665 89.9064 42.5365 89.4465 38.9114 89.0427C36.9412 88.8233 35.1197 88.6204 34.1731 88.7091C31.4849 88.9611 26.5286 86.441 25.9406 85.6009C25.538 85.0258 26.7104 84.0176 27.7594 83.1154C28.2427 82.6998 28.6999 82.3066 28.9648 81.9887C29.6368 81.1822 29.7488 77.7324 29.7208 76.1083C30.7849 75.9683 33.2995 74.7642 34.8452 71.068C36.3909 67.3717 33.5291 64.6556 31.905 63.7596C31.737 61.4074 31.3169 56.5183 30.9809 55.779C30.6449 55.0398 30.2809 45.1104 30.1409 40.2381C29.4408 40.6861 27.8895 41.7334 27.2847 42.3382C26.7382 42.8847 25.5336 45.6692 24.527 47.9957C24.1409 48.8882 23.7839 49.7132 23.5045 50.3187C22.698 52.066 23.8405 54.687 24.5125 55.779L21.9084 56.7031L25.9406 63.1715C26.8367 62.9195 29.0992 63.0203 30.9809 65.4396C33.3331 68.4638 32.409 72.4121 30.9809 73.5041C29.8385 74.3778 27.5367 74.2602 26.5286 74.0922L21.3203 79.6365C20.3684 78.4884 17.8932 75.1674 15.608 71.068ZM51.4782 22.4983C54.9033 22.3822 55.7622 20.5826 55.7622 20.4955C55.7622 20.4258 52.1112 19.9361 52.3652 20.1472C52.6193 20.3583 52.2233 21.5905 51.3873 21.5905C50.5514 21.5905 50.2261 20.6917 50.3536 20.1472C50.4812 19.6026 46.2236 20.4955 46.2236 20.4955C46.2236 20.4955 48.053 22.6144 51.4782 22.4983ZM55.4277 26.1773C53.9222 25.5992 50.3236 26.5076 49.2718 26.5977C48.22 26.6877 47.0406 27.1716 47.0406 27.1716C47.0406 27.1716 53.8064 26.5977 54.8197 27.1716C55.8331 27.7456 55.7622 28.4774 55.7622 28.4774C55.7622 28.4774 56.9332 26.7555 55.4277 26.1773ZM39.7558 40.7177H48.9193L49.5617 39.0729L49.9661 40.7177L57.0647 40.9526L55.7622 40.2381C54.2253 40.4046 51.0888 40.6376 50.8382 40.2381C50.5876 39.8386 49.6895 36.3754 49.2718 34.6938L48.097 39.8562L39.7558 40.7177ZM47.8016 50.3187L42.8476 49.9564L47.4113 49.5361L48.097 48.5753L49.0926 49.5361L53.0558 49.9564L48.5522 50.3187L48.372 49.5361L47.8016 50.3187Z" fill="#03996B"/>
</g>
</svg>
