<svg width="98" height="101" viewBox="0 0 98 101" fill="none" xmlns="http://www.w3.org/2000/svg">
<g id="dragon">
<g id="dragon_2">
<path fill-rule="evenodd" clip-rule="evenodd" d="M28.4259 32.1734C29.2187 32.3195 30.6615 32.98 30.0907 34.453C29.52 35.926 26.2062 38.983 24.6207 40.3274L21.1325 46.114C20.234 46.5524 18.4372 47.5695 18.4372 48.1306C18.4372 48.6917 18.0143 50.9947 17.8029 52.0761C16.3047 51.6782 13.1502 50.7749 12.518 50.3446C11.8859 49.9144 10.9985 47.835 10.6338 46.8491H15.3748L16.712 43.4208L18.4372 42.7486L19.4471 40.3274L23.8233 37.707L17.3806 38.917V41.2025H15.3748L14.3415 45.2358H9.53983C7.8177 44.6084 4.51931 42.6679 5.10281 39.9253C5.83218 36.497 7.16932 32.8123 9.84368 34.453C11.9832 35.7655 14.4225 34.5251 15.3748 33.7409C15.1114 33.0239 14.6089 31.3343 14.7061 30.3126C14.8034 29.2908 15.476 27.1083 15.8002 26.1448L9.29054 20.5204L5.10281 12.8927L15.8002 23.3035L10.176 11.7073L19.8222 22.4274C20.7853 23.8749 22.7674 26.645 22.9911 26.1448C23.2707 25.5197 26.8589 19.0258 26.9055 19.3351C26.9521 19.6443 29.0025 23.8189 29.4219 23.3035C29.7575 22.8912 33.4451 20.2456 35.247 18.9743C34.9518 20.9843 34.6785 24.6641 35.946 23.3035C37.2135 21.9429 40.1711 21.053 41.4914 20.7781C40.5439 22.2212 39.0589 25.1074 40.6992 25.1074C42.3396 25.1074 45.6699 25.799 47.1301 26.1448C46.3379 27.0188 44.8746 28.8285 45.3593 29.0758C45.8439 29.3232 46.7418 31.6528 47.1301 32.7866C47.3167 34.3599 47.2936 37.7886 45.7081 38.917C44.1226 40.0453 43.092 44.6752 42.7749 46.8491C44.0962 46.4984 46.8973 45.4922 47.5315 44.2728C48.1657 43.0534 49.6983 40.1942 50.3854 38.917L52.1295 41.8179L53.3186 37.2587L55.5384 41.2025L58.313 41.8179C59.0001 40.9705 60.2315 38.6268 59.6607 36.0312C59.1661 33.782 58.062 32.2729 57.3518 31.3023C57.0376 30.8727 56.8005 30.5486 56.7275 30.3126C56.5325 29.6815 54.6845 27.6504 53.7636 26.6383C53.5616 26.4163 53.4042 26.2433 53.3186 26.1448C52.843 25.5976 52.288 25.1074 51.3367 25.1074C50.5757 25.1074 50.3854 27.753 50.3854 29.0758C49.0113 26.9866 46.8497 22.3506 49.1963 20.5204C51.5428 18.6903 52.3937 17.7651 52.5259 17.5313C52.8165 18.5277 53.7309 20.5204 55.0627 20.5204C56.7275 20.5204 80.114 19.6958 83.1265 19.3351C85.5365 19.0464 89.9443 22.3962 91.8469 24.1071L86.5354 23.3035C88.8608 24.6524 93.591 28.4375 93.9081 32.7866C94.2252 37.1358 93.5646 45.5295 93.1946 49.1827C92.5075 45.1782 90.6736 36.4835 88.8344 33.7409C86.5354 30.3126 84.2364 27.8391 83.1265 29.0758C82.4872 29.7883 83.321 31.0448 84.3702 32.626C85.1424 33.7897 86.0313 35.1293 86.5354 36.5572C87.4867 39.2517 87.5131 45.0448 87.4074 47.6046C85.2141 41.7327 80.3519 30.8818 78.4492 34.453C76.6361 37.8561 80.0544 43.1842 82.2552 45.7541C79.6381 42.8108 74.3644 37.6905 71.8693 38.2231C68.619 38.917 69.0153 41.2244 70.4423 42.7486C71.5839 43.968 72.8206 45.9904 73.2963 46.8491L75.3574 46.114L76.3088 52.0761L81.9374 50.3446L81.3824 53.9173H85.9012L84.2364 57.1614H88.0417L85.9012 61.2822H92.6397L90.9749 66.3675C92.1904 67.0741 94.4789 69.5315 93.9081 73.7079C93.1946 78.9283 91.7676 83.9996 88.8344 85.342C86.5644 86.3809 76.5107 85.8118 71.0258 85.5014C69.4234 85.4107 68.2108 85.342 67.6965 85.342C67.2405 85.342 66.6432 85.3069 65.9854 85.2681C63.362 85.1137 59.7764 84.9026 60.3551 86.6398C60.9341 88.378 61.5614 89.7274 61.8027 90.1849L53.3186 89.4987L58.313 80.5789L59.6607 82.866H71.8693C72.1343 82.866 72.519 82.8821 72.9931 82.902C76.8914 83.0654 86.8287 83.482 85.9012 77.2625C85.0689 71.6819 80.5864 70.4392 78.4492 70.5155C79.427 71.5447 81.3824 73.9691 81.3824 75.4328C81.3824 76.8966 79.427 79.4734 78.4492 80.5789L60.3551 80.0071L56.7275 78.6348L53.3186 85.342L51.3367 82.4086L48.5675 85.342V81.6081H47.1301L48.5675 78.6348C48.6559 77.7962 49.3334 75.9817 51.3367 75.4328C53.3401 74.8839 58.1837 76.4239 60.3551 77.2625H70.4423C72.0431 76.5415 74.4382 74.9602 71.2121 74.4036C69.2188 74.0597 67.4528 74.3632 66.0391 74.6061C64.5929 74.8546 63.5153 75.0397 62.9401 74.4036C61.8027 73.1457 60.6653 68.5714 61.8027 66.9704C62.7126 65.6896 66.4557 62.6446 68.2135 61.2822C64.9133 62.8733 58.313 66.3986 58.313 67.7709C58.313 69.1432 58.8472 72.3007 59.1143 73.7079L49.8083 72.917L48.5675 67.7709L45.7081 76.462L42.7749 83.7809L41.4914 87.2116H37.0901V89.4987L34.0915 85.342L33.1609 89.4987L30.8861 85.342H28.4259L26.3365 87.2116L25.6127 82.4086C26.3577 80.2358 28.2963 76.1647 30.0907 77.2625C31.8851 78.3604 34.2759 78.6348 35.247 78.6348L37.0901 75.4328L38.6411 72.1165L42.7749 70.5155L42.0533 66.3675L40.6992 69.4863L38.1241 70.5155L35.946 63.0823V71.0872C32.5494 70.9329 25.3697 68.2467 23.8233 58.7367C21.8903 46.8491 29.2953 41.8179 30.0907 41.8179C30.8861 41.8179 38.2343 36.1193 37.0901 34.453C36.7964 34.0252 36.5445 33.5443 36.2938 33.0656C35.5678 31.6795 34.8518 30.3126 33.1609 30.3126C31.3411 30.3126 29.246 31.5531 28.4259 32.1734ZM18.4527 29.8381H21.5207L18.6993 32.1103L18.4527 29.8381ZM35.3868 54.9482C34.3057 55.7728 34.5946 59.037 34.8742 60.5659C34.4548 59.329 33.5694 56.1542 33.383 53.3505C33.1966 50.5468 35.3247 47.5095 36.412 46.3413C36.2877 46.8567 35.9087 48.0524 35.3868 48.7121C34.8649 49.3718 34.9829 51.7013 35.1072 52.7836L41.1186 52.1136C39.6585 52.7149 36.4679 54.1236 35.3868 54.9482Z" fill="#A91922"/>
<path d="M82.5716 46.114C82.4711 45.9983 82.3656 45.8781 82.2552 45.7541C82.3639 45.881 82.4696 46.0012 82.5716 46.114Z" fill="#A91922"/>
<path fill-rule="evenodd" clip-rule="evenodd" d="M23.6482 66.513L27.3706 70.2867C26.1298 71.0491 23.2759 72.5281 21.7869 72.3452C20.6384 72.204 19.5687 70.9743 18.6506 69.9188C18.0809 69.2638 17.5695 68.676 17.1339 68.457C16.2239 67.9996 12.1363 68.2664 10.2062 68.457L9.37895 73.9462L6.48379 67.5422L8.03475 63.311L4.0022 64.7976L5.86345 59.8802L10.2062 58.851V56.3352L6.48379 54.1624H14.2388L15.2728 59.8802L18.2715 62.3961L22.5108 63.311L23.6482 66.513ZM16.1856 62.7634L16.241 62.7635L14.1617 64.2966L12.2717 65.6438V62.9261C12.2717 62.7501 15.6839 62.7617 16.1856 62.7634Z" fill="#A91922"/>
</g>
</g>
</svg>
