<svg width="98" height="101" viewBox="0 0 98 101" fill="none" xmlns="http://www.w3.org/2000/svg">
<g id="gargoyle">
<g id="gargoyle_2">
<path d="M37.5419 80.7034H27.2927C27.2927 79.0919 27.8728 75.8689 30.1935 75.8689C33.0943 75.8689 33.2876 77.6093 35.1247 76.8359C36.5943 76.2171 36.1238 74.4508 35.7048 73.6451C32.9008 72.3559 27.2927 69.5261 27.2927 68.5205C27.2927 67.2635 26.616 62.139 32.4174 62.6224C37.0585 63.0092 39.8303 66.071 40.636 67.5536L41.3129 75.8689L38.2188 76.8359L37.5419 80.7034Z" fill="black"/>
<path d="M61.4814 80.7034H71.7306C71.7306 79.0919 71.1505 75.869 68.8298 75.869C65.929 75.869 65.7357 77.6093 63.8986 76.8359C62.4289 76.2171 62.8995 74.4508 63.3185 73.6451C66.1225 72.3559 71.7306 69.5261 71.7306 68.5205C71.7306 67.2635 72.4072 62.139 66.6059 62.6224C61.9648 63.0092 59.193 66.071 58.3872 67.5536L57.7104 75.869L60.8045 76.8359L61.4814 80.7034Z" fill="black"/>
<path d="M47.6943 81.767H39.6691V78.4795L43.2466 77.5126L44.2135 65.8132L41.3129 62.6224L36.8651 58.6582L37.5419 53.5336L40.636 48.2157C40.636 50.3751 40.7714 54.8486 41.3129 55.4674C41.9897 56.241 43.5367 57.788 44.2135 58.0781C44.7549 58.3101 45.5349 59.6573 45.8572 60.3019V62.6224L52.6255 63.1059V59.2383L56.5897 57.3045V48.2157L58.3872 49.5694C59.0128 51.5031 60.3721 55.5254 60.8045 56.1442C61.2369 56.7631 59.3732 60.0118 58.3872 61.5588L54.656 67.5536V77.5126L56.5897 78.4795L58.3872 81.767H50.4016L49.6281 71.1311H48.4678L47.6943 81.767Z" fill="black"/>
<path d="M44.8623 53.2347L43.1918 51.4974L45.4971 50.495L44.8623 48.0561L42.557 47.1875L42.1561 40.138L45.2298 45.3833H51.2436L54.2504 41.6749L54.656 47.1875L51.6779 47.6552V50.6955L53.8829 51.2969L51.9118 53.2347L50.7424 58.6582H46.9671L44.8623 53.2347Z" fill="black"/>
<path d="M35.7749 48.2157C35.7481 47.9425 32.6678 45.5454 31.1309 44.381C31.2199 42.6326 31.3444 38.2938 31.1309 34.9261C30.864 30.7165 33.9035 26.1059 37.5452 25.3041C40.4585 24.6626 42.5235 29.2242 43.1918 31.5851C43.3031 30.1708 43.4588 26.8142 43.1918 24.7027C42.8581 22.0633 39.1822 20.8606 36.109 20.6602C33.0357 20.4597 30.3621 23.5334 29.6275 25.137C29.0398 26.42 20.6068 30.9949 16.4638 33.122C13.1673 34.269 6.66791 39.9573 7.0421 53.5336C7.41629 67.11 14.4813 72.7114 17.9671 73.815C16.0182 70.1956 12.1203 62.2151 12.1203 59.2484C12.1203 55.5399 12.1872 50.9627 15.8957 50.495C18.8625 50.1208 19.9384 55.3945 20.1055 58.0781C21.286 55.1049 24.0013 49.1519 25.4178 49.1252C26.8344 49.0985 28.8145 50.3391 29.6275 50.9627C29.7945 52.1432 30.1353 54.6178 30.162 55.0721C30.1887 55.5265 32.9573 57.0433 34.3382 57.7449C34.8171 55.9074 35.8417 52.1855 36.109 51.9985C36.4431 51.7646 35.8083 48.5572 35.7749 48.2157Z" fill="black"/>
<path d="M62.1499 51.4974L63.8986 56.9854L67.7198 57.3045C68.0898 55.0347 69.5854 50.495 72.6078 50.495C75.6301 50.495 76.9741 55.5504 77.2683 58.0781C78.0262 55.7063 79.8942 50.9627 81.3037 50.9627C83.0657 50.9627 83.5772 50.6955 86.5327 56.9854C88.8971 62.0172 84.7139 70.6989 82.3268 74.4108C84.2213 72.4474 88.3401 67.979 89.6587 65.8132C91.3069 63.106 90.7386 59.2383 90.9659 52.5856C91.1933 45.9329 86.1917 36.6146 82.8951 34.0001C79.5986 31.3857 74.1992 28.5439 70.6753 28.146C67.1515 27.7481 64.8799 20.3026 61.2973 20.1321C58.4313 19.9957 58.1631 21.9319 58.3872 22.9171C57.6711 23.2391 56.0002 24.1674 55.0453 25.3041C54.0905 26.4407 55.6771 29.965 56.5897 31.5851C56.8706 30.003 57.853 26.7478 59.5354 26.3841C61.6383 25.9294 61.8573 30.3626 63.1729 31.5851C64.4885 32.8076 66.801 39.4902 66.9035 41.6749C66.9855 43.4226 65.5886 46.0782 64.8799 47.1875C64.0773 47.798 62.3491 49.0191 61.8573 49.0191C61.3655 49.0191 62.2959 50.5042 62.1499 51.4974Z" fill="black"/>
</g>
</g>
</svg>
