<svg width="98" height="101" viewBox="0 0 98 101" fill="none" xmlns="http://www.w3.org/2000/svg">
<g id="giant">
<g id="giant_2">
<path d="M22.664 47.4216L21.2459 43.9555C22.2845 42.3233 24.3616 38.9736 24.3616 38.6328C24.3616 38.2068 25.0007 36.7157 27.2728 35.3666C29.0905 34.2874 29.829 31.9348 29.971 30.8934C30.5627 31.9111 31.7603 34.0317 31.8171 34.3726C31.8659 34.6652 31.8476 35.6946 31.8314 36.6097C31.8241 37.0271 31.8171 37.4207 31.8171 37.7098C31.8171 38.4482 33.3319 40.1476 34.0892 40.905V43.9555L52.0533 35.3666V31.8874C51.3906 31.2957 50.264 30.0413 51.0593 29.7573C51.2261 29.6977 51.4029 29.6261 51.5821 29.5536C52.4702 29.1941 53.4143 28.8119 53.4734 29.7573C53.5302 30.6661 53.4971 32.4555 53.4734 33.2365V34.8753L61.1419 31.4614C60.8105 29.5206 60.1478 25.4544 60.1478 24.716C60.1478 24.6388 60.1498 24.5394 60.1522 24.4215C60.1779 23.1289 60.2479 19.6213 58.2307 19.0356C57.2259 18.7439 56.4726 18.4522 55.8763 18.2212C55.1664 17.9463 54.679 17.7575 54.2545 17.7575C53.6991 17.7575 52.2103 18.0447 51.2176 18.2362C50.8143 18.3141 50.4928 18.3761 50.3492 18.3966C49.9516 18.4534 48.6215 17.9942 48.0061 17.7575C48.7161 14.1127 48.7445 6.79447 43.1778 6.68087C37.6111 6.56726 36.456 14.444 36.5744 18.3966C35.178 18.8226 32.2715 19.5469 31.8171 19.0356C31.7395 18.9483 31.6513 18.8372 31.5532 18.7136C30.9334 17.9324 29.919 16.6541 28.6929 17.7575C28.2513 18.155 27.6656 18.5867 27.068 19.0272C25.7438 20.0032 24.3616 21.022 24.3616 21.8048C24.3616 22.9409 22.2315 28.2662 21.9475 28.8342C21.8382 29.0529 21.5185 29.3662 21.0815 29.7944C20.3832 30.4787 19.3855 31.4565 18.4683 32.8105C16.9772 35.0116 15.5569 38.0648 15.4859 38.6328C15.4302 39.0787 15.462 42.6303 15.4782 44.4466C15.4826 44.9444 15.4859 45.3118 15.4859 45.4492C15.4859 45.9605 16.2907 49.4018 16.6931 51.0586L15.4859 52.7627L12.4329 54.1828L13.569 58.301L17.5452 55.3898C18.7523 56.2656 21.8055 57.6336 24.3616 56.0999C26.9178 54.5662 26.9888 53.236 26.7048 52.7627L65.6862 37.7098C65.1418 38.7748 63.8543 40.905 63.059 40.905C62.2638 40.905 58.4674 42.041 56.6686 42.6091C57.1893 43.1771 59.2958 44.3842 63.5561 44.6682C68.0644 44.9687 69.8756 42.9793 71.1438 41.5863C71.3736 41.3339 71.5856 41.101 71.7926 40.905C72.8718 39.8825 72.905 36.124 72.7866 34.3726L75.2008 33.2365L77.8279 39.6269L85.5674 36.0767L83.0112 29.7573L84.2893 28.8342L83.0112 25.639H81.1651L77.8279 18.3966L70.3015 21.8048L72.7866 27.3431C72.1239 26.9171 70.2447 26.1929 68.0293 26.7041C65.814 27.2153 64.3608 29.7099 63.9111 30.8934L28.6929 47.7214C28.1485 47.319 26.8894 46.5001 26.2078 46.4433C25.5261 46.3865 23.5613 47.0718 22.664 47.4216Z" fill="#260C87"/>
<path d="M33.8343 50.5688L54.3278 43.0977C53.8607 45.3844 53.0666 50.3442 53.6271 51.8904C54.1876 53.4365 55.2297 55.1115 55.6806 55.7557C56.1638 56.7623 57.2026 59.0654 57.4925 60.225C57.5789 60.5709 57.741 61.0749 57.9345 61.6763C58.5518 63.5956 59.4883 66.5075 59.3044 68.4389C59.1211 70.3627 59.2158 72.6338 59.2723 73.9878C59.2902 74.4191 59.3044 74.7574 59.3044 74.9617C59.3044 75.3844 58.8514 76.6528 58.3984 77.9211C57.9454 79.1894 57.4925 80.4577 57.4925 80.8805C57.4925 81.3915 58.1543 84.0202 58.6779 86.1003C59.0207 87.462 59.3044 88.5886 59.3044 88.732C59.3044 88.8511 60.1138 89.2575 61.1876 89.7965C63.38 90.8971 66.6743 92.551 66.4311 93.4428C66.1412 94.5058 59.6265 94.4494 56.4053 94.2884C54.7948 94.7716 51.5495 95.5929 51.4529 95.0131C51.3562 94.4333 52.1374 90.5841 52.54 88.732C52.1776 84.9069 51.4529 76.9668 51.4529 75.8072C51.4529 74.6476 50.8892 72.9082 50.6073 72.1835L44.6885 64.9359L43.239 58.4132L41.6687 64.9359C40.7024 65.8217 38.4798 67.9557 37.3202 69.4052C35.8707 71.2171 35.6291 74.8409 35.6291 75.8072C35.6291 76.5803 34.4325 80.5584 33.8343 82.4508V86.5577C33.8343 87.524 34.5477 90.9867 34.9044 92.5973L31.2806 95.0131L28.8646 93.4428C28.1399 93.9663 26.3039 95.0131 24.7578 95.0131H18.5975C18.3962 93.765 18.6702 91.1961 21.3758 90.9062C24.0814 90.6163 25.6437 89.8996 26.0867 89.5775L27.8986 86.5577L27.2946 75.8072C26.892 74.6396 26.0867 72.0143 26.0867 70.8547C26.0867 70.3573 25.9445 69.9595 25.8064 69.5734C25.5422 68.8343 25.2933 68.1381 26.0867 66.8686C26.5044 66.2003 26.9365 65.243 27.3931 64.2317C28.2569 62.3184 29.2081 60.2115 30.3144 59.5003C31.6673 58.6306 33.2247 55.8363 33.8343 54.5478V50.5688Z" fill="#260C87"/>
</g>
</g>
</svg>
