<svg width="98" height="101" viewBox="0 0 98 101" fill="none" xmlns="http://www.w3.org/2000/svg">
<g id="gorgon">
<g id="gorgon_2">
<path d="M37.0053 82.0684H29.5903L30.5349 73.493L33.6613 70.1239L38.1686 69.7563L33.6613 74.8863L35.9877 77.4514L37.0053 82.0684Z" fill="black"/>
<path d="M54.2526 33.333C53.9059 34.0125 53.519 39.4964 53.596 40.0853L59.8449 40.831L65.6864 41.883C65.6864 41.883 64.3279 37.5289 65.6864 34.7062C67.0448 31.8835 71.2653 30.597 71.2653 30.597H74.3082L77.5821 37.266L76.7732 28.7041L73.6148 26.1219L66.8864 24.2674V30.0993L60.6827 26.3445C59.9789 26.8637 57.796 27.5139 56.4035 29.0579C55.0015 30.6125 54.3917 33.0602 54.2526 33.333Z" fill="black"/>
<path d="M73.2297 77.7208L68.4536 74.2325L69.0313 77.4514L67.9529 78.6268L67.6447 82.0684H74.3467L73.2297 77.7208Z" fill="black"/>
<path fill-rule="evenodd" clip-rule="evenodd" d="M9.01598 42.6051L15.7781 30.597L29.5903 22.5599L39.4769 19.1398H55.4698L63.1755 20.5078L66.0834 24.0989V29.0579L60.5585 25.4669L55.4698 27.5189L52.7074 33.333V40.686L59.5408 41.883C61.5278 41.826 66.1706 42.1225 68.8458 43.7641C71.521 45.4057 75.0006 49.3501 76.4061 51.1171L79.4593 57.9572L80.1013 61.0352C80.1013 61.0352 80.7039 62.5742 83.9673 62.5742C87.2307 62.5742 90.3636 57.9572 90.3636 57.9572C90.3636 57.9572 89.5802 62.9992 87.2307 63.949C84.8812 64.8988 76.7732 65.6522 76.7732 65.6522L77.3703 68.7073L78.3333 66.3969L80.1013 65.6522L81.0586 76.4253H74.516L68.8458 68.2173V62.5742L63.9025 65.6522V69.7563H66.0834L66.8103 77.4514L60.5585 82.7524L59.5408 77.4514L63.1755 74.8863L61.867 72.8343L55.4698 71.4663V67.3623H33.6613L25.374 74.8863L23.7747 81.0424H17.8137V74.8863L23.7747 70.6113L25.374 63.6002L29.5903 61.0352V56.0762L23.7747 59.6672L17.0868 65.6522H10.6896C9.62339 63.5432 7.66547 59.1884 8.36334 58.6412C9.23569 57.9572 10.6896 53.1691 10.6896 52.1431C10.6896 51.3223 13.5005 48.3811 14.906 47.0131H28.7181L18.5408 53.8531L14.906 51.1171L12.4344 56.0762L11.562 61.0352H17.0868L25.374 53.8531L31.7713 48.5521H42.094L41.0763 45.1321L33.6613 45.9871L37.0053 40.686L35.2607 36.582L29.5903 37.266L23.7747 41.883L29.5903 33.333L25.374 30.597L17.8137 35.214L9.01598 42.6051ZM42.4161 61.6839C42.2312 61.6839 38.8982 59.8718 37.2548 58.9658C37.7941 60.3249 38.9419 63.0973 39.2192 63.3148C39.5658 63.5866 43.302 63.949 43.9568 63.949C44.4806 63.949 50.4661 61.2913 53.3934 59.9624C51.6602 60.4306 48.1012 61.4302 47.7314 61.6839C47.3436 61.95 44.0265 61.7695 42.8328 61.7046C42.604 61.6921 42.4533 61.6839 42.4161 61.6839Z" fill="black"/>
</g>
</g>
</svg>
