<svg width="98" height="101" viewBox="0 0 98 101" fill="none" xmlns="http://www.w3.org/2000/svg">
<g id="griffon">
<g id="griffon_2">
<path fill-rule="evenodd" clip-rule="evenodd" d="M28.4364 26.4577L23.0676 28.6491H13.097L12.4396 31.9361C11.1248 31.4978 8.49517 31.1691 8.49517 33.3604V38.6197C8.89692 37.4145 9.89763 34.9382 10.6865 34.6753C11.4754 34.4123 12.6222 36.7571 13.097 37.9623H20.9859L17.5893 39.2771C17.2606 40.9571 16.6032 44.5583 16.6032 45.5225C16.6032 46.4867 17.2606 50.5261 17.5893 52.4252C18.7215 53.0096 20.9859 54.4413 20.9859 55.4931C20.9859 56.545 21.8624 58.8532 22.3007 59.8758C23.2868 60.4237 25.3686 61.5632 25.8069 61.7385C26.2451 61.9138 26.7199 66.8517 26.9025 69.2987L20.9859 67.5456L16.6032 71.49L15.9458 74.6675L18.685 71.49H20.438V73.9005L19.2328 78.9406L20.9859 80.9128V78.1737L22.3007 73.9005L25.8069 74.6675L25.1495 77.6258L27.6695 76.6397L29.2035 73.024L26.3547 71.49L29.2035 69.2987V66.5595L33.5862 64.6968C34.2801 62.3229 35.668 57.7064 35.668 58.2323V64.6968L49.2544 65.4638C49.9118 67.9839 51.3362 73.024 51.7744 73.024C52.2127 73.024 56.3397 74.1197 58.3485 74.6675C59.2981 75.2153 61.2849 76.574 61.6355 77.6258C62.0738 78.9406 62.5121 81.132 62.7312 82.3372C62.9065 83.3014 62.0738 84.9303 61.6355 85.6243V88.5826H71.2775V81.6798C71.2775 81.3316 70.713 81.3673 70.076 81.4076C69.3098 81.456 68.4388 81.5111 68.3192 80.9128C68.2281 80.4574 68.3073 79.8695 68.3918 79.2435C68.5104 78.3634 68.6393 77.408 68.3192 76.6397C67.8809 75.5879 67.5522 74.3753 67.4426 73.9005L62.7312 71.49L61.6355 61.7385C65.4339 65.5003 75.0904 73.024 83.3299 73.024C92.3778 73.024 92.2089 69.6416 92.0342 66.1455C92.0101 65.662 91.9858 65.176 91.9858 64.6968C91.9858 61.2914 87.4124 58.4577 85.8099 57.4648C85.5562 57.3076 85.377 57.1965 85.3022 57.1367C84.8639 56.786 80.3716 55.8949 78.1802 55.4931V50.8913C78.1802 51.5049 75.1854 53.3383 73.688 54.1783C73.6149 53.0826 73.3154 50.8913 72.7019 50.8913C72.0883 50.8913 69.5244 50.0878 68.3192 49.686C68.027 50.5991 67.6179 52.4252 68.3192 52.4252C69.0204 52.4252 69.3418 54.4705 69.4148 55.4931C69.8166 55.6758 70.7515 56.2601 71.2775 57.1367C71.8034 58.0132 73.1036 58.2323 73.688 58.2323L75.5506 57.1367L76.0985 58.2323H84.0969C86.0326 59.3645 89.8821 62.3959 89.7944 65.4638C89.789 65.6551 89.7846 65.8392 89.7804 66.0166L89.7803 66.0186C89.7002 69.3952 89.679 70.2903 83.3299 70.3943C78.251 70.4776 74.5007 66.9544 71.2618 63.9116C70.2386 62.9503 69.2661 62.0367 68.3192 61.3002C65.1636 58.8459 61.2338 56.4062 59.6633 55.4931H56.8145C55.4267 55.4201 52.4757 55.0549 51.7744 54.1783C51.488 53.8203 50.8506 53.3453 50.2101 52.868C48.8905 51.8845 47.5578 50.8913 49.2544 50.8913C50.9731 50.8913 52.437 50.3307 53.368 49.9742C53.802 49.8079 54.1203 49.686 54.2945 49.686C54.7327 49.686 56.1571 47.7138 56.8145 46.7277L65.58 45.5225L61.6355 43.7694L62.7312 42.345L78.1802 41.9067C74.0167 41.0302 65.8648 39.2771 66.5661 39.2771C67.2673 39.2771 77.5959 38.4006 82.6725 37.9623C78.3994 36.8666 70.138 34.6753 71.2775 34.6753C72.417 34.6753 83.0743 32.8491 88.2605 31.9361C83.1473 31.4247 73.184 30.2267 74.2358 29.5256C75.2877 28.8244 86.5074 27.1882 91.9858 26.4577C85.9596 26.3116 74.6302 25.8879 77.5228 25.362C81.1386 24.7046 84.8639 23.0611 89.7944 20.2124C93.7389 17.9334 94.8711 14.661 94.9441 13.3096C93.7389 14.3323 91.0216 16.5967 89.7944 17.4732C88.4393 18.4412 86.4 19.0671 83.7523 19.8797C83.403 19.9869 83.0428 20.0975 82.6725 20.2124C80.3586 20.9305 77.7542 20.6027 75.9171 20.3715C75.2315 20.2852 74.6527 20.2124 74.2358 20.2124C73.0086 20.2124 72.7019 18.3863 72.7019 17.4732C69.3053 17.2906 61.9423 17.2541 59.6633 18.5689C57.3843 19.8837 53.4545 20.2124 51.7744 20.2124C50.1674 18.9341 45.9892 16.5967 42.1325 17.4732C37.3115 18.5689 34.6819 19.8837 34.6819 23.4994C34.6819 26.392 38.8454 28.1378 40.9272 28.6491C41.1829 28.3204 41.5408 28.5175 40.9272 31.9361C40.6456 33.5054 41.2505 34.7052 41.8032 35.8015C42.7556 37.6905 43.5531 39.2721 39.3933 41.9067C34.8284 44.7979 32.9049 45.3645 31.8989 45.6609C31.4561 45.7914 31.191 45.8695 30.9566 46.0704C30.343 46.5962 27.9982 46.7277 26.9025 46.7277L30.2991 43.7694V34.6753L26.3547 33.3604L25.1495 30.0735L28.4364 26.4577ZM14.441 30.8434H21.088L14.8183 32.7883L14.441 30.8434Z" fill="#D46814"/>
<path d="M43.9439 66.9642H48.3735C48.8657 67.7087 49.1459 69.3038 49.2064 69.7278C49.2822 70.2579 50.3044 73.2488 50.5315 73.5517C50.6613 73.7247 51.4831 73.9719 52.2697 74.2085C52.86 74.386 53.4304 74.5576 53.6739 74.6874C53.962 74.8411 55.3511 75.3358 56.6847 75.8107C57.9797 76.2718 59.2222 76.7143 59.3528 76.8076C59.6178 76.9969 59.315 79.9878 59.0878 80.5178C58.9061 80.9418 59.6431 81.6536 60.0343 81.9565L59.845 85.3638H51.8188C51.6421 84.8338 51.2963 83.7359 51.3266 83.5844C51.3644 83.3951 53.8632 81.805 54.5446 81.4264C55.2261 81.0479 55.6804 79.1927 55.794 78.6627C55.8849 78.2387 54.0399 76.4921 53.106 75.6718C51.7935 75.4572 49.0702 74.96 48.6764 74.6874C48.4608 74.5382 47.933 74.3091 47.3823 74.07C46.6757 73.7633 45.9314 73.4403 45.7612 73.2488C45.5189 72.9762 44.4487 68.9455 43.9439 66.9642Z" fill="#D46814"/>
<path d="M24.6734 66.169C24.6734 65.2301 24.4715 62.7492 24.4084 62.194L21.2661 61.3611L20.0547 58.6351C19.3606 59.7457 17.9195 62.0123 17.7074 62.194C17.4954 62.3756 14.8932 62.2697 13.6186 62.194C13.9215 61.1212 14.5272 58.8698 14.5272 58.4458C14.5272 57.9157 13.9593 55.7577 13.2778 54.9247C13.1776 54.8023 13.0741 54.6741 12.9689 54.5438C12.3587 53.7878 11.691 52.9605 11.2712 52.7667C10.8774 52.585 9.54231 52.4134 8.92396 52.3503C9.46664 52.9056 10.5899 54.0312 10.7413 54.0918C10.9306 54.1675 11.8771 54.6219 12.0285 55.2276C12.1497 55.7122 12.079 57.1206 12.0285 57.7642L7.90183 54.6219C7.16985 54.5209 5.63774 54.3795 5.36515 54.6219C5.09256 54.8642 4.6206 55.4295 4.41869 55.6819L5.78155 56.0605C6.1601 56.111 7.01566 56.2574 7.40951 56.4391C7.71001 56.5778 8.33481 57.0408 8.79329 57.3806C9.08596 57.5975 9.31085 57.7642 9.34035 57.7642C9.41607 57.7642 9.75681 58.8243 9.71895 59.0136C9.68866 59.165 6.37468 59.3038 4.72148 59.3543L3.35854 60.8687L3.05566 62.5345L4.41869 61.853C4.39344 61.5249 4.63066 60.8687 5.78155 60.8687H8.92396C9.50443 61.6764 10.7259 63.3901 10.9683 63.7839C11.2106 64.1776 11.7761 65.9671 12.0285 66.8126C11.2713 67.0019 9.67346 67.3654 9.34035 67.3048C9.00724 67.2442 8.06574 66.1185 7.63662 65.5633C7.4978 66.0681 7.22017 67.1231 7.22017 67.3048C7.22017 67.532 8.50758 69.0463 8.92396 69.1221C9.22683 69.1771 10.8717 69.1521 12.0375 69.1343C12.4745 69.1277 12.8441 69.1221 13.0505 69.1221C13.8077 69.1221 15.625 68.062 15.3978 67.3048C15.2161 66.6991 14.363 65.109 13.9592 64.3896H18.7673L24.6734 66.169Z" fill="#D46814"/>
</g>
</g>
</svg>
