<svg width="98" height="101" viewBox="0 0 98 101" fill="none" xmlns="http://www.w3.org/2000/svg">
<g id="guardian">
<path id="guardian_2" fill-rule="evenodd" clip-rule="evenodd" d="M55.112 29.5508C56.8306 30.3293 57.6101 30.6823 60.0548 28.9182C62.6076 27.0762 64.2339 24.8632 65.531 23.0983C66.649 21.577 67.5223 20.3887 68.5333 20.0579C69.9253 19.6024 71.6306 19.7276 73.6824 19.8783C74.8493 19.964 76.1283 20.0579 77.5254 20.0579C81.3792 20.0579 83.1777 21.0583 82.9207 21.9158C82.7152 22.6017 81.8931 24.5834 81.5077 25.4885C82.9636 25.6314 86.1322 26.0888 87.1599 26.7747C88.4445 27.6321 89.986 31.7765 90.4999 33.2056C91.0137 34.6347 91.5276 39.0648 91.3991 40.351C91.2963 41.38 90.0717 43.3521 89.4722 44.2096C90.2858 44.9717 91.9643 46.6962 92.1698 47.4965C92.3434 48.1722 92.2825 49.6954 92.2247 51.1415C92.1969 51.8363 92.1698 52.5133 92.1698 53.0699C92.1698 53.2659 92.1715 53.4526 92.1732 53.6336V53.6346C92.1858 55.0364 92.1953 56.0961 91.3991 58.5005C91.1102 59.3729 90.8876 60.3486 90.6673 61.3138C90.2022 63.3526 89.7477 65.3446 88.7014 66.2175C87.4682 67.2465 84.3338 69.2186 82.9207 70.0761C83.4346 67.9324 83.8714 63.9024 81.5077 64.9314C79.6691 65.7318 79.1736 68.0264 78.6901 70.2655C78.3967 71.6245 78.1077 72.9631 77.5254 73.9346C75.9839 76.507 72.9009 79.5081 72.1301 77.9361C71.3594 76.3641 68.5333 76.507 68.5333 77.2215C68.5333 77.7932 66.1353 79.4604 64.9364 80.2226C64.9792 78.1266 64.8079 73.9346 63.7802 73.9346C63.0277 73.9346 61.5699 75.3077 60.3623 76.4452C59.5083 77.2495 58.7794 77.9361 58.5134 77.9361C57.8711 77.9361 54.1457 79.3652 52.6042 80.2226C52.4077 80.3319 52.1925 80.4598 51.9618 80.5968C50.3833 81.5344 48.0867 82.8986 46.1812 81.6517C45.3718 81.122 44.4035 80.7101 43.4726 80.3141C41.8921 79.6418 40.4194 79.0153 40.0152 77.9361C39.5013 76.5641 38.1738 74.6968 37.5743 73.9346C37.6171 74.2681 36.6236 75.1636 32.3073 76.0783C28.6454 76.8542 28.0606 74.536 27.5407 72.4748C27.2946 71.4992 27.0631 70.5811 26.5265 70.0761C24.8566 68.5041 22.6728 69.3615 23.572 71.6481C24.4713 73.9346 23.8288 75.2208 21.5166 74.935C20.1684 74.7683 19.4316 73.873 18.4915 72.7304C17.8191 71.9133 17.0428 70.9699 15.8644 70.0761C13.0383 67.9324 13.0382 65.2172 13.1666 62.6448C13.222 61.5364 12.4187 61.2506 11.5173 60.9297C10.3267 60.506 8.96491 60.0214 9.18424 57.5001C9.56962 53.0699 11.8822 50.3546 13.1666 48.9256C14.4511 47.4965 12.2673 44.6383 9.18424 47.4965C6.1012 50.3547 5.71582 48.0681 5.71582 43.2092C5.71582 39.3221 8.0281 34.9205 9.18424 33.2056C9.05576 32.9197 8.67034 31.662 8.1565 28.9182C7.94763 27.8029 7.56216 27.0654 7.27397 26.514C6.67595 25.3699 6.49688 25.0273 9.18424 23.7736C10.5627 23.1305 11.4178 22.4875 12.1704 21.9214C13.5922 20.8522 14.6484 20.0579 18.1764 20.0579C23.572 20.0579 24.5994 20.7725 27.5539 23.7736C28.7147 24.9526 28.9833 25.6023 29.1621 26.0345C29.4383 26.7025 29.4998 26.8512 32.3073 27.6321C33.9991 28.1026 34.814 28.401 35.3308 28.5902C35.6104 28.6926 35.8027 28.763 35.9994 28.8115C36.4329 28.9182 36.8876 28.9182 38.3446 28.9182C41.0165 28.9182 44.2541 28.0608 45.5388 27.6321C51.029 27.7015 53.4892 28.8158 55.112 29.5508ZM38.93 46.6785C39.182 46.2956 39.6796 45.7894 40.4482 45.2846C39.8503 45.7973 39.3354 46.2749 38.93 46.6785ZM40.4482 45.2846C42.0258 44.2485 44.7454 43.2181 48.8283 43.2713C54.9006 43.3503 58.3422 44.0614 59.3039 44.4071C58.4901 42.794 55.744 39.6073 51.2698 39.7653C47.6021 39.8949 43.1669 42.9531 40.4482 45.2846ZM42.7474 38.018C42.0668 38.6929 40.102 39.9339 37.6874 38.7093C34.802 36.981 34.0475 31.9442 34.0475 31.9442C34.9056 32.7343 36.9327 34.6404 38.1755 35.944C39.4184 37.2476 41.7413 37.8698 42.7474 38.018ZM57.2177 37.0494C59.1708 36.5555 60.7688 32.9343 61.2571 31.2719C60.4285 31.848 58.3096 33.2372 56.4631 34.1853C54.6166 35.1334 51.9357 35.5351 50.826 35.6174C50.826 35.6174 55.2646 37.5432 57.2177 37.0494Z" fill="#B21CB2"/>
</g>
</svg>
