<svg width="98" height="101" viewBox="0 0 98 101" fill="none" xmlns="http://www.w3.org/2000/svg">
<g id="hydra">
<path id="hydra_2" fill-rule="evenodd" clip-rule="evenodd" d="M29.3526 55.8871C29.2431 55.6658 29.1546 55.4871 28.837 55.2805C28.5754 55.1104 28.262 54.916 27.9297 54.7099C26.8634 54.0484 25.6016 53.2657 25.2287 52.7744C24.95 52.4075 24.4334 52.0173 23.9385 51.6435C23.5644 51.361 23.2028 51.0878 22.9658 50.8412C22.5255 50.383 21.6 48.7887 21.1923 48.0488C20.8662 48.025 20.0793 48.2637 19.5411 49.4092C19.003 50.5548 18.2161 51.7482 17.89 52.2017C17.5842 52.4165 16.8381 53.0896 16.2999 54.0634C15.6272 55.2805 12.9975 56.1398 12.6917 56.2114C12.386 56.283 10.7348 56.1399 10.3679 55.7102C10.2642 55.5888 10.141 55.5074 10.0148 55.4241C9.6944 55.2125 9.35476 54.9881 9.267 54.0634C9.16915 53.0322 9.22623 51.7721 9.267 51.2709C8.75741 51.1039 7.67709 50.9702 7.43246 51.7721C7.30387 52.1936 7.16445 52.8051 7.02786 53.4042C6.83964 54.2296 6.65679 55.0316 6.51504 55.2805C6.446 55.4018 6.23081 55.466 5.94785 55.5504C5.22824 55.7652 4.07028 56.1107 3.76301 57.8582C3.33491 60.2927 2.84562 63.1568 3.15141 63.7296C3.39603 64.1878 5.00655 64.3501 5.78123 64.374L8.34982 66.3788C8.32949 65.3525 8.38665 63.1997 8.77792 62.7987C9.267 62.2975 10.7352 60.7939 11.7134 60.7939C12.0418 60.7939 12.384 60.9391 12.7238 61.0833C13.3964 61.3687 14.0596 61.6501 14.5878 60.7939C15.3829 59.5051 16.3002 58.4311 16.6671 58.8607C16.9607 59.2043 21.2335 61.1519 23.3332 62.0827H17.89C17.7474 63.1329 17.4133 65.3478 17.2176 65.806C17.0219 66.2643 15.709 67.7154 15.0771 68.3837C14.486 68.3598 13.2425 68.2405 12.9977 67.9541C12.7529 67.6677 12.0395 66.7846 11.7134 66.3788C11.265 66.8562 10.4414 67.9254 10.7349 68.3837C10.9219 68.6756 11.3471 69.0419 11.7596 69.3974C12.1565 69.7393 12.5417 70.0712 12.6917 70.3169C12.9977 70.8181 13.6093 70.8181 14.5878 70.8181C14.9265 70.8181 15.5728 70.921 16.3062 71.0378C17.6919 71.2585 19.3886 71.5286 19.9085 71.2477C20.3016 71.0353 21.0388 69.9822 21.7946 68.9027C22.567 67.7994 23.3588 66.6684 23.8225 66.3788C24.7398 65.806 25.7795 64.6604 26.3299 63.7296C26.8803 62.7987 27.4919 62.0827 27.9812 62.0827C28.4704 62.0827 32.8126 62.7271 33.9134 63.2284C35.0142 63.7296 38.0109 63.3716 38.439 62.0827C38.7815 61.0517 39.1525 60.3166 39.2952 60.0779C40.4979 60.3166 42.9768 60.7939 43.2704 60.7939C43.6373 60.7939 44.9216 62.942 44.6158 64.374C44.3712 65.5196 43.4131 67.5245 42.9646 68.3837C42.0268 68.5269 39.9801 68.7274 39.2952 68.3837C39.2605 68.3663 39.2233 68.3475 39.1838 68.3274L39.0655 68.2672C38.0698 67.7602 35.9526 66.6822 34.7696 66.88C33.4853 67.0948 30.4274 69.4577 30.5497 71.2477C30.6476 72.6798 30.8351 74.3743 30.9167 75.0426C31.4059 74.0641 32.3845 72.1929 32.3845 72.5366C32.3845 72.8802 33.4037 75.1142 33.9134 76.1882C34.3822 75.3768 35.32 73.8827 35.32 74.3982C35.32 74.4999 35.3108 74.6712 35.2995 74.8831C35.2392 76.0135 35.1172 78.2986 35.9927 77.3339C36.8244 76.4174 37.9701 74.1834 38.439 73.181C41.3949 73.7538 47.429 74.7276 47.9183 74.0402C48.5299 73.181 49.2637 71.1045 49.2637 70.3169C49.2637 69.9177 49.688 69.592 50.1622 69.2281C50.6234 68.874 51.132 68.4837 51.3431 67.9541C51.6176 67.2653 51.9173 66.9888 52.3228 66.6147C52.5496 66.4054 52.8095 66.1656 53.1166 65.806C53.9728 64.8036 54.2786 64.374 54.1563 63.2284C54.0584 62.3119 56.3172 61.2235 57.4588 60.7939C57.3161 59.2187 57.0429 55.8248 57.0918 54.851C57.153 53.6338 57.3976 52.5597 57.948 51.2709C58.1085 50.8951 58.1962 50.5253 58.2778 50.1812C58.4761 49.3453 58.6385 48.6605 59.7216 48.4068C61.2505 48.0488 62.5348 47.6908 63.2687 47.476C63.7565 47.3332 64.5955 47.3803 65.4446 47.4279C65.8729 47.4519 66.3039 47.476 66.6934 47.476C67.623 47.476 69.2009 47.8579 69.8736 48.0488L70.6686 50.8412C68.997 50.3639 65.5559 49.4092 65.1645 49.4092C64.7731 49.4092 62.5144 49.8866 61.4339 50.1252C61.067 50.5787 60.272 51.7433 60.0273 52.7744C59.8848 53.3752 59.7556 53.5715 59.6396 53.7476C59.5068 53.9494 59.3914 54.1246 59.2935 54.851C59.2503 55.1707 59.187 55.4746 59.1247 55.7729C58.9222 56.7439 58.7321 57.6557 59.2935 58.8607C59.7607 59.8636 60.0049 60.6054 60.1995 61.1968C60.3106 61.5342 60.4055 61.8226 60.5166 62.0827C60.6205 62.3261 60.6397 62.6356 60.6605 62.9719C60.7009 63.6251 60.7476 64.3795 61.4339 64.9467C62.2657 65.6342 63.0036 66.1879 63.2687 66.3788L64.7364 67.9541C63.4317 67.6676 60.6022 67.1234 59.7216 67.238C59.552 67.26 59.3665 67.2821 59.1722 67.3052C58.1049 67.4321 56.7718 67.5906 56.3579 67.9541C56.1827 68.1079 55.9056 68.2342 55.6024 68.3724C55.0587 68.6201 54.4311 68.9061 54.1563 69.4576C54.0078 69.7557 53.8372 69.9935 53.6777 70.2157C53.3775 70.6342 53.1166 70.9977 53.1166 71.6057C53.1166 72.1138 52.9162 72.7072 52.7341 73.2462C52.5826 73.6947 52.4439 74.1055 52.4439 74.3982C52.4439 74.9137 53.5855 76.2359 54.1563 76.8326C54.6659 75.7825 55.6974 73.7538 55.7464 74.0402C55.7953 74.3266 56.1745 75.5916 56.3579 76.1882L58.4373 73.6105C58.478 74.5652 58.7064 76.4174 59.2935 76.1882C59.8806 75.9591 60.9651 74.8994 61.4339 74.3982C61.4747 74.1834 61.8009 73.8827 62.7794 74.3982C63.3415 74.6943 63.9553 74.7939 64.5138 74.8845C65.1707 74.991 65.7513 75.0852 66.0819 75.4722C66.3195 75.7505 66.4002 75.8557 66.4674 75.9434C66.5731 76.0814 66.6456 76.176 67.2438 76.8326C67.5518 77.1706 67.672 77.466 67.7721 77.7122C67.9902 78.2484 68.1133 78.551 69.8736 78.551C70.8146 78.551 71.6243 78.6087 72.3538 78.6606C73.6154 78.7505 74.6372 78.8233 75.6835 78.551C77.3347 78.1214 77.9463 75.687 77.9463 75.0426C77.9463 74.5542 77.3139 73.6133 76.9012 72.9993C76.7695 72.8034 76.66 72.6405 76.6008 72.5366C76.5616 72.4677 76.5114 72.3859 76.4547 72.2936C76.1578 71.8102 75.6835 71.0382 75.6835 70.3169C75.6835 69.899 75.4809 69.498 75.2869 69.114C75.0821 68.7085 74.8868 68.3218 74.9496 67.9541C74.9904 67.7154 75.0447 67.4926 75.0991 67.2698C75.2078 66.8243 75.3165 66.3788 75.3165 65.806C75.3165 65.1186 75.5612 63.5147 75.6835 62.7987C75.7446 63.3238 75.9403 64.6604 76.2339 65.806C76.3841 66.3923 76.4319 67.1706 76.4778 67.9199C76.5441 69.0006 76.6066 70.0209 76.9678 70.3169C77.2002 70.5074 77.459 70.6564 77.7075 70.7995C78.1129 71.033 78.4906 71.2505 78.6802 71.6057C78.7372 71.7125 78.7985 71.8144 78.8613 71.9187C79.135 72.3737 79.4369 72.8753 79.5364 74.0402C79.5529 74.234 79.6233 74.5368 79.7119 74.9183C80.2781 77.3548 81.5905 83.0022 74.3992 83.9927C69.9205 84.6096 66.9136 82.6728 64.1945 80.9214C61.864 79.4203 59.745 78.0553 57.0918 78.551C53.1169 79.2936 51.4811 80.8578 50.0009 82.2731C49.3404 82.9047 48.7109 83.5067 47.9183 83.9927C46.456 84.8895 45.5289 84.2547 44.4487 83.5152C43.6314 82.9556 42.7264 82.336 41.4357 82.2743C39.0383 82.1597 37.9497 85.7112 37.7051 87.5012C38.1536 86.0214 39.4419 83.2481 41.0076 83.9927C41.6478 84.2972 42.0458 84.8546 42.4437 85.4117C43.2619 86.5575 44.0793 87.7019 47.0009 86.642C48.7642 86.0023 50.1543 85.0203 51.4047 84.1369C53.2335 82.8449 54.7635 81.764 56.7249 82.2743C57.7446 82.5396 58.9218 83.6173 60.3555 84.9299C63.5647 87.868 68.0592 91.9827 74.9496 90.7949C84.9182 89.0764 85.0405 88.9332 87.6702 83.3483C89.3683 79.7421 89.6129 76.2852 89.7542 74.2883C89.8317 73.1926 89.8782 72.5366 90.1165 72.5366C90.7892 72.5366 93.9694 72.1786 94.2752 70.8181C94.5809 69.4576 95.376 65.5196 94.6421 62.7987C94.5199 62.3456 94.418 61.966 94.33 61.638C93.8896 59.9964 93.7962 59.6484 93.2355 57.8582C93.0897 57.3926 92.9611 57.0279 92.8516 56.7175L92.8512 56.7163C92.456 55.5955 92.3101 55.1818 92.5016 53.2757C92.563 52.6652 92.6358 52.1493 92.7 51.6952C92.8916 50.339 93.0055 49.5332 92.5016 48.4068C92.2754 47.9013 92.2221 47.4848 92.1742 47.111C92.0797 46.3731 92.0065 45.802 90.6669 45.0415C90.4207 44.9018 90.1864 44.7706 89.9633 44.6457C88.3578 43.7467 87.336 43.1745 86.6917 42.1059C86.2469 41.3682 85.7347 39.5521 85.3186 38.0764C85.0481 37.1175 84.8181 36.3018 84.6735 36.0198C84.3066 35.3038 84.062 34.9457 82.7777 34.7309C82.4886 34.6826 82.246 34.6487 82.0254 34.6179C81.2662 34.512 80.7685 34.4426 79.5364 33.9433C79.2304 33.8193 78.9606 33.7218 78.7218 33.6355C77.72 33.2734 77.2641 33.1086 76.9678 32.01C76.7843 31.3298 76.7843 30.9002 76.7843 30.3989C76.7843 29.8977 76.7843 29.3249 76.6008 28.3583C76.4898 27.7731 76.5132 27.2207 76.5337 26.7369C76.5809 25.6223 76.6128 24.8715 74.9496 24.9215C74.0499 24.9485 73.333 25.1079 72.7462 25.2384C71.7775 25.4539 71.1638 25.5904 70.6686 24.9215C70.0326 24.0622 69.8736 23.2746 69.8736 22.9882C70.5667 21.1982 71.6961 17.8615 70.6686 18.8353C70.0658 19.4067 69.4899 20.0411 68.8903 20.7017C68.2127 21.4482 67.5045 22.2285 66.6934 22.9882C65.1645 24.4202 63.7579 25.4943 63.2687 25.4943C62.8772 25.4943 64.3695 21.5323 65.1645 19.5513C64.0637 19.8616 61.7764 20.8258 61.4339 22.2006C61.0059 23.919 60.3331 25.6375 60.0273 26.2103C59.7827 26.6685 59.1508 27.3559 58.8654 27.6423C58.2742 27.4514 57.0918 26.9836 57.0918 26.6399C57.0918 26.2962 57.3364 23.5371 57.4588 22.2006C56.6841 23.1314 54.988 25.5229 54.4009 27.6423C53.8138 29.7617 52.8516 32.1055 52.4439 33.0124L50.915 32.01C50.8946 30.5302 50.7804 27.7282 50.4869 28.3583C50.1199 29.1459 49.2637 32.0816 49.0191 33.0124C48.7745 33.9433 45.472 33.9433 45.0439 33.9433C44.9034 33.9433 44.7563 33.8584 44.607 33.7723C44.3013 33.596 43.9861 33.4141 43.6985 33.9433L43.5774 34.1654C43.1157 35.0113 42.3161 36.4765 41.9249 37.5233C41.8643 37.6856 41.7951 37.8823 41.7171 38.104C41.2444 39.4473 40.4499 41.7055 39.2952 42.7502C38.66 43.3249 38.461 43.6921 38.2927 44.0025C38.1046 44.3496 37.955 44.6258 37.277 45.0415C37.1952 45.0917 37.1172 45.1398 37.0425 45.1858C35.944 45.8629 35.5713 46.0927 34.7696 45.7575C33.9134 45.3995 32.3845 44.7551 32.3845 44.3971C32.3845 44.2936 32.2722 44.1245 32.1346 43.9173C31.796 43.4071 31.304 42.666 31.9564 42.1059C32.0891 41.9919 32.2078 41.8838 32.3187 41.7829C32.974 41.1866 33.3574 40.8377 34.7696 40.9602C35.3346 41.0092 35.7923 41.2091 36.2013 41.3878C36.9875 41.7313 37.5942 41.9964 38.439 40.9602C39.7233 39.3849 40.0291 38.4541 40.396 36.8789C40.5132 36.3759 40.543 35.8509 40.5732 35.3204C40.6376 34.1896 40.7033 33.0335 41.6191 32.01C41.8072 31.7998 41.975 31.6162 42.1256 31.4514C43.0525 30.4369 43.3302 30.133 43.6985 28.7163C44.1266 27.0695 42.8423 19.1217 41.6191 17.8329C40.396 16.5441 37.7663 14.8257 36.5431 14.1812C35.5646 13.6657 34.5861 11.7707 34.2192 10.8876C33.7503 11.4843 32.7269 12.7922 32.3845 13.2505C32.2277 13.4602 31.7841 13.4588 31.2367 13.457C30.2888 13.454 29.0295 13.45 28.4093 14.5393C27.8747 15.4781 27.5957 16.3741 27.4026 16.9939C27.2423 17.5087 27.1414 17.8329 27.0027 17.8329C26.6969 17.8329 23.7007 16.6157 23.3332 16.3293C23.2817 16.2891 23.2193 16.2433 23.1489 16.1916C22.7181 15.875 21.9892 15.3394 21.6209 14.5393C21.3793 14.0145 21.5463 13.1256 21.6612 12.5141C21.7501 12.041 21.8078 11.7339 21.6209 11.89C21.4163 12.0609 20.989 12.6886 20.5318 13.3603C20.031 14.0959 19.4942 14.8843 19.1746 15.1837C18.6853 15.642 16.8506 16.1384 15.9944 16.3293C15.444 16.4964 14.3065 17.031 14.1597 17.8329C14.0598 18.3786 13.7243 18.9031 13.4394 19.3486C13.2009 19.7215 12.9977 20.0391 12.9977 20.2674V21.4846C12.9977 22.2006 19.4192 23.7758 21.6209 22.9882C23.8225 22.2006 26.0241 22.2006 27.0027 22.2006C27.7855 22.2006 22.5994 24.0145 19.9085 24.9215C18.9094 24.8737 17.1069 24.9214 17.89 25.4943C18.4634 25.9137 18.8898 26.3333 19.2431 26.6808C19.4927 26.9265 19.7058 27.1361 19.9085 27.2844C20.1874 27.4884 20.8634 27.2504 21.5519 27.008C22.0712 26.8252 22.5975 26.6399 22.9658 26.6399C23.6512 26.6399 25.9426 25.4943 27.0027 24.9215C26.7784 25.2794 26.6602 26.1243 27.9812 26.6399C29.0744 27.0666 29.9801 26.9283 30.911 26.786C31.3861 26.7135 31.8678 26.6399 32.3845 26.6399C33.6076 26.6399 35.9519 25.4943 36.9712 24.9215C37.1139 25.4704 37.3137 26.7831 36.9712 27.6423C36.6287 28.5015 35.3608 30.3393 34.7696 31.1509C34.688 31.843 34.4638 33.2989 34.2192 33.5853C33.9134 33.9433 32.996 34.7309 31.9564 34.7309C30.9167 34.7309 29.9993 34.3012 29.5712 33.9433C29.41 33.8085 29.006 33.6432 28.565 33.4628C27.8347 33.1641 27.0027 32.8238 27.0027 32.5113C27.0027 32.1103 25.82 29.5755 25.2287 28.3583C24.923 28.0241 24.2139 27.5563 23.8225 28.3583C23.4311 29.1603 22.1916 30.0768 21.6209 30.4348C21.417 29.8143 20.8992 28.7021 20.4589 29.2176C20.2397 29.4742 20.2531 29.9692 20.2676 30.5036C20.2895 31.3115 20.3139 32.2097 19.5411 32.5113C18.2572 33.0124 15.5663 33.5853 15.0771 33.5853C14.5878 33.5853 13.2419 33.0126 12.6917 32.5113C12.5062 32.3423 12.2929 32.2628 12.0916 32.1878C11.6958 32.0404 11.3465 31.9103 11.3465 31.1509C11.3465 30.2344 11.5911 28.1913 11.7134 27.2844C11.3668 27.6424 10.3921 28.5302 9.267 29.2176C7.86056 30.0768 7.43246 32.0816 7.43246 33.0124C7.43246 33.3666 7.12256 33.5342 6.74196 33.74C6.12231 34.0752 5.31525 34.5117 5.35313 36.0198C5.37559 36.9136 5.15894 37.682 4.97868 38.3213C4.66799 39.4233 4.46537 40.1419 5.78123 40.459C6.39004 40.6058 6.94642 40.8139 7.47953 41.0133C8.76724 41.495 9.91923 41.9259 11.3465 41.3183C12.4601 40.8442 13.3874 40.2829 14.2005 39.7908C14.861 39.391 15.4462 39.0369 15.9944 38.8122C16.4644 38.6196 16.808 38.4059 17.0876 38.2319C17.5357 37.9532 17.8195 37.7766 18.1961 37.953C18.3682 38.0336 18.5647 38.1767 18.7744 38.3294C19.3098 38.7193 19.9319 39.1723 20.4589 38.8122C21.0456 38.4112 22.6196 37.7859 23.3332 37.5233C23.4349 38.5019 23.5036 40.459 22.9658 40.459H19.9085C19.1606 40.459 18.961 39.9947 18.7951 39.6088C18.5811 39.1111 18.4232 38.7438 17.2176 39.6714C16.2416 40.4223 15.6471 40.9945 15.2311 41.3949C14.7347 41.8727 14.4924 42.1059 14.1597 42.1059C13.7062 42.1059 12.1087 42.6572 11.1141 43.0006C10.7676 43.1202 10.4942 43.2145 10.3679 43.2515C10.1731 43.3085 9.81332 43.2293 9.45092 43.1494C8.90341 43.0288 8.34982 42.9068 8.34982 43.2515C8.34982 43.8243 10.0013 45.7575 11.3465 45.7575C12.6917 45.7575 15.3823 45.5426 16.2999 44.3971C16.4787 44.1739 16.6505 43.9507 16.8158 43.7359C17.4989 42.8486 18.0706 42.1059 18.563 42.1059C18.6966 42.1059 18.7747 42.0956 18.8287 42.0886C18.8683 42.0834 18.8949 42.0799 18.9207 42.0834C18.9735 42.0906 19.0233 42.127 19.1745 42.2374C19.311 42.3371 19.5302 42.497 19.9085 42.7502C21.1923 43.6095 24.9224 43.3946 25.2287 42.7502C25.3559 42.4825 25.3564 42.7339 25.3573 43.2478C25.3586 43.9706 25.3609 45.2125 25.7184 46.2588C25.9031 46.7995 25.9483 47.3925 25.9923 47.9687C26.0938 49.2999 26.1885 50.5414 27.9812 50.8412C29.1845 51.0425 30.2537 51.3538 31.1949 51.6279C32.2626 51.9388 33.1658 52.2017 33.9134 52.2017C35.32 52.2017 37.2158 52.3449 35.9927 55.2805C35.0142 57.6291 34.2192 59.505 31.5278 57.8582C29.8072 56.8053 29.5467 56.2792 29.3526 55.8871ZM20.2142 54.4214H23.0886L22.5382 56.7126L20.2142 54.4214ZM23.5167 32.1533L21.2538 33.8001L23.8836 34.3729L23.5167 32.1533ZM30.4275 17.7613C31.2102 17.3604 32.3844 16.3532 32.8736 15.8997L33.3629 19.3366L30.4275 17.7613Z" fill="#D46814"/>
</g>
</svg>
