<svg width="98" height="101" viewBox="0 0 98 101" fill="none" xmlns="http://www.w3.org/2000/svg">
<g id="lion">
<g id="lion_2">
<path fill-rule="evenodd" clip-rule="evenodd" d="M11.1418 29.3882C8.99505 31.0536 8.19332 34.3187 8.06081 35.7431C10.031 36.2525 14.3978 37.0509 16.104 36.1685C17.8102 35.2861 18.8511 32.5304 19.1583 31.2629C19.8204 29.9558 22.0064 27.6149 25.4539 28.7086C29.7632 30.0756 28.5319 32.5691 27.347 33.4399C27.1288 33.6003 26.7355 33.8956 26.2235 34.2801C23.9552 35.9831 19.3559 39.4362 17.3152 40.6676C14.8138 42.177 8.38928 48.8242 7.94167 49.5498C7.49405 50.2755 7.67837 52.4815 8.38928 54.4553C9.1002 56.4292 12.8918 60.0865 16.341 60.2317C19.0308 60.3449 22.4862 57.9594 24.822 56.3469C25.4816 55.8916 26.0519 55.4978 26.4905 55.2394C28.4824 54.0658 29.8561 55.6559 30.749 57.0188C31.6419 58.3817 30.3369 63.4928 29.8561 64.0985C29.632 64.3809 28.8855 64.6304 28.0655 64.9044C27.1262 65.2183 26.0903 65.5645 25.632 66.0294C25.119 66.5497 24.9493 68.408 24.8152 69.8762C24.7249 70.8653 24.6507 71.6774 24.4987 71.784C24.1209 72.0491 23.2623 73.7149 23.0906 75.3428C23.0018 76.1846 22.6559 76.8341 22.3093 77.4849C21.9856 78.0927 21.6613 78.7016 21.5452 79.4695C21.3529 80.7416 22.3481 82.7002 22.8698 83.5205H30.3369C30.6345 83.6089 31.2504 83.4827 31.3328 82.2711C31.4117 81.112 30.2028 80.4852 29.1694 79.9493C28.8526 79.7851 28.5523 79.6294 28.3107 79.4695C27.663 79.0411 27.9246 77.6851 28.251 75.9939C28.4437 74.995 28.659 73.8791 28.7228 72.7684C28.8677 70.2446 31.8735 69.2574 34.3564 68.4419C34.8159 68.291 35.2577 68.1459 35.66 67.9981C37.7205 67.2409 40.7541 61.726 42.0133 59.0632L54.0332 57.3974C55.922 58.5458 59.8852 60.9638 60.627 61.4484C61.3688 61.933 65.4464 63.2152 67.3924 63.7957C67.6328 64.5529 68.3265 66.0597 69.1782 66.0294C70.2429 65.9915 77.4204 63.8714 77.3174 60.8426C77.2144 57.8139 71.5822 57.6246 69.5904 57.7003C67.5985 57.776 64.1299 54.5958 64.0269 52.9678C63.9444 51.6655 67.8389 51.2137 69.7964 51.1506C70.1856 52.6271 71.1632 55.5953 71.96 55.6559C72.9559 55.7316 83.8081 56.413 84.8787 56.1102C85.9492 55.8073 89.8524 50.8098 90.2645 48.5339C90.6766 46.2579 87.4828 45.457 86.4525 45.457C85.7868 45.457 84.5477 46.8224 83.6614 47.7989C83.1759 48.3338 82.7964 48.752 82.6748 48.7654C82.4001 48.7957 78.588 48.6237 76.7163 48.5339C76.6636 47.8469 76.5636 46.2698 76.5846 45.457C76.611 44.4411 77.7168 41.3643 78.928 41.132C79.5308 41.0165 80.2379 41.5551 81.0007 42.1362C81.7706 42.7227 82.5972 43.3524 83.4305 43.3961C85.0893 43.4832 85.8266 41.3062 85.5369 40.8998C85.3052 40.5747 85.0015 39.1195 84.8787 38.4326C84.4574 38.6841 83.341 39.2569 82.2456 39.5356C80.8765 39.8839 80.9555 38.0842 81.7717 35.9072C82.4247 34.1656 84.1151 34.7558 84.8787 35.2686L86.0109 37.6198C86.0674 37.2134 86.3794 36.4662 87.1745 36.7292C88.1684 37.0579 89.5598 34.7569 89.5598 32.1273C89.5598 30.0236 83.464 24.4576 80.416 21.9375L78.7264 20.5131C78.7264 20.5131 76.4405 19.1983 75.8441 19.1983C75.3671 19.1983 74.5189 18.8331 74.1545 18.6505L67.4954 17.9931L66.0046 19.1983H62.3272C61.2936 19.1983 61.1677 20.0749 61.2339 20.5131L59.7431 21.9375L56.7614 22.5949C55.8669 23.8002 53.9587 26.3641 53.4816 26.9777C53.0045 27.5912 51.5601 27.8177 50.8975 27.8542V33.4421C48.2802 36.51 42.5289 42.9307 40.4616 44.0702C38.3943 45.2097 34.5645 45.2024 32.908 45.0563C32.1129 46.079 28.9921 49.2637 22.8698 53.8217C16.4206 58.623 15.1944 57.3553 12.4107 54.4771C11.8911 53.9399 11.3172 53.3465 10.6449 52.7261C7.90466 50.197 16.401 43.9291 23.3488 38.8036C27.237 35.9353 30.6402 33.4247 31.3178 32.1273C33.0936 28.7272 29.2445 27.8462 26.0518 27.1155C25.8493 27.0691 25.6495 27.0234 25.4539 26.9777C22.83 26.3641 19.1261 27.9638 17.6021 28.8403C16.3432 28.329 13.2886 27.7227 11.1418 29.3882ZM78.5033 26.2802H81.5413L79.6133 28.8565L78.5033 26.2802Z" fill="#A91922"/>
<path d="M49.2698 83.8991H40.5125C40.0431 83.8991 39.0632 83.7401 38.8984 83.1041C38.7329 82.4658 39.4307 79.3389 39.7834 77.7582C39.87 77.3701 39.9359 77.0748 39.963 76.9329C40.1003 76.2136 39.4478 74.0935 38.2459 74.0935C37.2843 74.0935 36.5401 71.7462 36.2883 70.5725C37.3186 69.4746 39.5646 67.0592 40.3064 66.1808C41.0482 65.3025 42.3784 62.3065 42.9508 60.9183L47.8274 60.1233C48.3082 60.8174 49.2698 62.6902 49.2698 64.6286C49.2698 67.0516 47.4153 69.0582 46.5567 69.626L46.5304 69.6435C45.6554 70.2221 43.5627 71.6062 42.9508 72.7305C42.4126 73.7193 42.9676 75.1672 43.3922 76.2749C43.4553 76.4394 43.5156 76.5967 43.5689 76.7436C43.981 77.8794 46.1446 79.9239 48.0678 80.2267C49.6063 80.469 49.5102 82.776 49.2698 83.8991Z" fill="#A91922"/>
</g>
</g>
</svg>
