<svg width="98" height="101" viewBox="0 0 98 101" fill="none" xmlns="http://www.w3.org/2000/svg">
<g id="minotaur">
<g id="minotaur_2">
<path d="M83.5379 50.4226C83.5334 50.423 83.5288 50.4235 83.5242 50.4239C83.5275 50.4236 83.5302 50.4234 83.5323 50.4232C83.5356 50.423 83.5374 50.4228 83.5379 50.4226Z" fill="#6F3623"/>
<path fill-rule="evenodd" clip-rule="evenodd" d="M22.8615 35.5609C24.6074 33.9069 28.0577 29.7441 27.8924 26.3257C27.6858 22.0526 23.8952 15.9876 21.9654 16.2633C20.4216 16.4839 20.3113 16.3552 20.4492 16.2633L16.107 12.9552L14.246 10.8876L12.523 13.6444C11.8339 13.7133 10.3729 14.0303 10.0421 14.7471C9.71127 15.4638 9.58266 17.1133 9.5597 17.8485L7.69897 19.2269L10.0421 20.0539C10.2947 21.1796 11.1446 23.3896 12.523 23.2242C13.9014 23.0588 14.246 24.9932 14.246 25.981L15.349 23.2242C16.1531 23.9364 17.8163 24.9335 18.0369 23.2242C18.2574 21.515 19.4153 19.8472 19.9667 19.2269C20.6098 18.9053 21.9927 18.3585 22.3789 18.7444C22.8615 19.2269 26.1695 23.7756 26.1005 25.981C26.0454 27.7454 23.0451 32.092 21.5518 34.0447C20.1504 33.769 17.0994 33.3004 16.107 33.6312C15.1147 33.962 13.3042 36.8015 12.523 38.1799C12.2932 39.4205 11.9714 42.0394 12.523 42.5908C13.0746 43.1421 12.7528 44.0611 12.523 44.4516C12.2704 45.3246 12.0546 47.1395 13.2125 47.4152C14.2062 47.6518 15.6546 48.1807 16.6212 48.5337C17.0624 48.6948 17.4032 48.8193 17.5545 48.8625C17.8743 48.9539 18.7999 49.4087 19.6887 49.8456C20.1406 50.0676 20.5831 50.2851 20.9315 50.4477C21.1478 50.5486 21.4122 50.6826 21.7085 50.8328C22.8289 51.4008 24.4045 52.1995 25.5492 52.3085C25.8139 52.3337 26.1732 52.3843 26.5958 52.4438C28.4836 52.7095 31.6351 53.1532 33.2682 52.3085C35.2669 51.2747 36.025 50.9301 37.5413 50.4477C39.0575 49.9652 40.9873 49.2071 41.7454 48.3111C42.3519 47.5944 43.2846 45.6692 43.6752 44.7962C44.64 46.4503 46.7076 49.8963 47.259 50.4477C47.3132 50.5019 47.3726 50.5595 47.4352 50.6204C48.1689 51.333 49.356 52.4859 48.086 53.7558C47.5093 54.3326 46.7756 54.8008 46.0619 55.2563C45.0698 55.8893 44.1161 56.498 43.6752 57.3397C43.4261 57.8151 43.0506 58.4394 42.6562 59.0951C41.8499 60.4353 40.9646 61.9071 40.9184 62.5087C40.893 62.838 40.9422 63.1208 40.994 63.4186C41.083 63.931 41.1799 64.488 40.9184 65.4033C40.5048 66.8506 39.9535 67.8844 39.3332 68.229C39.0439 68.3897 38.38 68.5204 37.6909 68.6561C36.9022 68.8114 36.0804 68.9732 35.7493 69.1939C35.1291 69.6074 34.5088 70.2966 34.2331 70.9858C34.0126 71.5372 32.7169 72.8237 32.0966 73.398L28.7195 74.6386C28.4438 74.7994 27.8924 75.19 27.8924 75.4656C27.8924 75.5274 27.8659 75.7308 27.827 76.0282C27.6491 77.3906 27.2135 80.7263 27.8924 81.4617C28.506 82.1264 28.2092 84.4599 28.0151 85.9863C27.9475 86.5174 27.8924 86.9508 27.8924 87.1821C27.8924 88.078 27.9614 90.5591 29.133 90.7659C30.3047 90.9727 39.3332 91.1794 39.3332 90.7659C39.3332 90.3524 37.2656 82.909 35.7493 85.0455C34.5364 86.7548 33.5899 86.5848 33.2682 86.2861C33.0844 85.6888 32.9512 84.3563 33.8885 83.805C34.2191 83.6105 34.5112 83.4655 34.8006 83.3218C35.5368 82.9562 36.2549 82.5996 37.5413 81.4617C38.2691 80.8178 38.5649 80.1399 38.8211 79.5525C39.1957 78.6938 39.4859 78.0286 40.9184 77.9468C42.8481 77.8365 44.2035 77.3035 44.64 77.0508C45.559 76.5454 47.5347 75.3554 48.086 74.6386C48.2488 74.427 48.423 74.2155 48.5943 74.0076C49.1484 73.3349 49.6712 72.7002 49.6712 72.2264C49.6712 71.7302 47.3739 69.3547 46.2252 68.229C45.3292 67.6088 43.7579 66.3682 44.64 66.3682H48.086L50.4982 70.9858C50.9347 70.9399 51.9731 70.724 52.6348 70.2277C53.1582 69.8351 53.6265 69.1388 53.9347 68.6805C54.1134 68.4147 54.2382 68.229 54.2888 68.229C54.3313 68.229 54.3476 68.34 54.3719 68.5057C54.4267 68.8784 54.5222 69.528 55.047 69.8142C55.8051 70.2277 57.0456 67.3331 57.1835 66.8506C57.2144 66.7425 57.2557 66.5651 57.3066 66.3463C57.4828 65.5893 57.7741 64.3373 58.1484 63.7492C58.5343 63.1427 59.7795 62.1181 60.3538 61.6816C59.9862 62.9222 59.2373 65.4033 59.1822 65.4033C59.1396 65.4033 59.1496 65.5876 59.1635 65.8423C59.1721 65.9997 59.1822 66.1839 59.1822 66.3682C59.1822 66.8506 62.2147 67.2642 62.5593 67.2642H66.2809C66.0742 67.3101 65.7847 67.7604 66.2809 69.1939C66.552 69.9771 66.8626 70.4706 67.1321 70.8989C67.4793 71.4506 67.7584 71.8941 67.7972 72.7088C67.8562 73.9483 68.1174 75.5921 68.2778 76.6014L68.307 76.7857C68.3223 76.882 68.3362 76.9708 68.3485 77.0508C68.4588 77.7676 68.3945 79.6927 68.3485 80.5657L65.7985 83.3915C65.9593 83.9888 66.2809 85.335 66.2809 85.9415C66.2809 86.6996 68.6931 88.1469 69.0377 88.078C69.1302 88.0595 69.3467 87.922 69.6206 87.7479C70.3678 87.2731 71.5424 86.5266 71.7945 87.1821C72.1391 88.078 73.104 89.5253 73.4486 89.9389C73.5875 90.1055 74.1066 90.0036 74.7537 89.8766C75.7129 89.6884 76.9531 89.445 77.6527 89.9389C78.8244 90.7659 81.5123 90.7659 82.5461 90.7659C83.3731 90.7659 85.4177 90.2145 86.3367 89.9389C86.2678 88.1699 85.9507 84.7974 85.234 85.4591C84.7605 85.8961 84.2292 85.2168 83.7318 84.5807C83.288 84.0131 82.871 83.48 82.5461 83.805C81.8569 84.4942 79.9271 84.2185 79.5825 83.805C79.3068 83.4742 77.6757 81.5076 76.8946 80.5657C76.2973 80.1063 75.2819 79.0633 75.9987 78.567C76.5866 78.16 76.9371 75.2007 77.2255 72.7662C77.3765 71.4907 77.5106 70.3592 77.6527 69.8142C77.9836 68.5461 78.1582 67.3101 78.2041 66.8506L75.9987 66.0236L78.8244 64.9209C79.0311 64.3236 79.3206 62.8946 78.8244 61.9573C78.3671 61.0935 76.8607 59.9299 75.8246 59.1295C75.4555 58.8444 75.1459 58.6053 74.9649 58.4424C74.6158 58.1283 73.5598 57.6904 72.4859 57.2452C71.4394 56.8113 70.3759 56.3703 69.9337 56.0302C69.7767 55.9094 69.5879 55.7611 69.3811 55.5987C68.408 54.8341 67.0354 53.7558 66.6945 53.7558C66.567 53.7558 66.2759 53.6511 65.918 53.5223C65.1146 53.2332 63.9745 52.823 63.5931 53.2045C63.1673 53.6302 61.4266 54.1792 60.4016 54.5025C60.0992 54.5979 59.8591 54.6736 59.7335 54.7207C59.2924 54.8861 57.574 55.295 56.77 55.4788L56.2186 57.3397C56.2186 56.4897 55.9843 54.8585 55.047 55.1342C54.1096 55.4099 51.9915 55.2491 51.0496 55.1342L56.2186 53.2045L57.1835 47.4152L58.6308 53.2045C59.1822 52.722 60.4365 51.7571 61.043 51.7571C61.6495 51.7571 62.6741 50.8842 63.1106 50.4477C63.1566 48.2652 63.3174 43.7211 63.5931 43.0043C63.9377 42.1083 64.9025 40.661 65.7985 41.6259C66.0836 41.9329 66.4245 42.3586 66.7857 42.8096C67.5595 43.7758 68.427 44.8589 69.0377 45.1408C69.7382 45.4641 71.1128 47.0513 72.0415 48.1237C72.3006 48.4229 72.5251 48.6821 72.6905 48.8625C72.9462 49.1414 73.2175 49.6163 73.5283 50.1603C74.1392 51.2292 74.9024 52.565 75.9987 53.2045C77.5121 54.0873 79.3141 54.6817 80.4015 55.0403C80.5025 55.0737 80.5974 55.1049 80.6852 55.1342C80.9982 55.2385 81.1975 55.3808 81.3748 55.5073C81.7833 55.7989 82.0756 56.0075 83.3731 55.4788C85.234 54.7207 87.9845 52.0328 89.2079 50.4477C90.0939 49.2996 90.0976 48.9538 90.1484 44.203C90.1678 42.3941 90.194 39.9463 90.2783 36.5728C90.515 27.1066 88.8289 22.0282 87.9831 19.4805C87.7358 18.7356 87.5603 18.2071 87.5257 17.8485C87.3728 16.2633 85.5096 13.6444 82.5461 13.6444C79.5825 13.6444 75.9987 25.4454 75.9987 29.5383V41.6259C75.4014 40.2475 74.0551 37.1048 73.4486 35.5609C72.8421 34.0171 72.6905 30.9026 72.6905 29.5383C72.0702 28.9266 70.6505 27.7644 69.9337 28.0091C69.2169 28.2537 67.1999 32.1348 66.2809 34.0447C65.7296 34.2128 64.4201 34.7515 63.5931 35.5609C62.766 36.3704 61.5484 37.0826 61.043 37.3374L60.3538 42.5908L47.259 41.6259L45.2401 38.7794C46.3094 39.99 47.7149 41.197 48.8237 41.197C49.6695 41.197 51.2126 41.2794 52.9462 41.372C55.1683 41.4906 57.7034 41.6259 59.4843 41.6259C59.4768 41.4763 59.5714 41.0333 59.689 40.483C59.9319 39.3456 60.2728 37.7497 60.0127 37.3374C59.5302 36.5728 55.047 34.0447 53.9888 34.5033C52.9307 34.9619 50.6846 35.2772 48.8237 33.6312C47.63 32.5752 47.3239 31.2759 47.1234 30.4247C47.0113 29.949 46.9323 29.6133 46.7497 29.5383C46.6738 29.5071 46.5098 29.3879 46.2733 29.2161C44.9213 28.2336 41.203 25.5315 38.0838 27.7397C36.4937 28.8653 35.7493 32.5284 35.7493 34.0447C35.7493 34.4364 35.8246 34.9067 35.9052 35.4099C36.1364 36.8547 36.4111 38.571 35.0728 39.4784C34.6869 39.74 34.3461 39.9879 34.0324 40.216C32.8795 41.0547 32.0942 41.6259 30.7909 41.6259C29.4646 41.6259 26.7438 42.2692 25.5492 42.5908L22.8615 39.4784L24.521 37.3374L22.8615 35.5609ZM84.6644 18.2425C83.1757 18.1071 81.5892 19.1664 80.4268 21.5435C79.2557 23.9384 78.3958 27.8574 78.3596 33.9915C78.3145 41.6338 79.1705 46.0975 80.2193 48.6719C80.745 49.9623 81.3341 50.8151 81.9176 51.3493C82.4866 51.8703 83.1131 52.1387 83.6754 52.0876C85.081 51.9598 85.9407 51.3691 86.5466 50.6646C86.8196 50.3473 87.0368 50.0115 87.2134 49.7385L87.2333 49.7077C87.4266 49.4091 87.5656 49.2003 87.7162 49.039C88.0309 48.7017 88.0127 48.1731 87.6754 47.8584C87.3382 47.5437 86.8096 47.5619 86.4948 47.8992C86.2305 48.1824 86.0162 48.5135 85.84 48.7859L85.8308 48.8C85.6397 49.0953 85.4766 49.3468 85.2801 49.5752C84.9282 49.9843 84.4574 50.336 83.5379 50.4226C83.538 50.4226 83.5379 50.4226 83.5379 50.4226C83.538 50.4223 83.5363 50.4218 83.5326 50.421C83.5005 50.4138 83.3275 50.3751 83.0457 50.1172C82.6965 49.7974 82.2294 49.1782 81.7664 48.0416C80.8375 45.7617 79.9856 41.5508 80.0302 34.0013C80.0657 27.982 80.9141 24.35 81.9276 22.2773C82.9499 20.1867 84.0244 19.8617 84.5131 19.9062C85.1699 19.9659 85.6017 20.3443 85.8979 20.78C86.0462 20.998 86.1488 21.2158 86.2141 21.38C86.2463 21.4611 86.2683 21.5263 86.2815 21.5684C86.288 21.5893 86.2923 21.6043 86.2946 21.6123L86.2963 21.6186C86.4101 22.0634 86.862 22.3334 87.3081 22.2218C87.7556 22.11 88.0277 21.6565 87.9159 21.2089L87.1055 21.4115C87.9159 21.2089 87.9159 21.2093 87.9159 21.2089L87.9155 21.2075L87.9151 21.2058L87.9141 21.2019L87.9114 21.1918L87.9034 21.1622C87.8967 21.1385 87.8875 21.1069 87.8755 21.0685C87.8515 20.9919 87.8159 20.8872 87.7666 20.7632C87.6689 20.5173 87.5131 20.1844 87.2794 19.8407C86.8116 19.1527 85.985 18.3625 84.6644 18.2425Z" fill="#6F3623"/>
<path d="M13.7777 48.9392C13.7206 49.0344 13.6055 49.2851 13.4899 49.5486C13.361 49.8425 13.1978 50.2309 13.0353 50.6521C12.8733 51.072 12.7086 51.5333 12.5791 51.9709C12.4537 52.3951 12.3452 52.8497 12.3243 53.2374C12.2412 54.7789 13.2619 56.1578 14.3576 57.0875C14.5975 57.2911 14.887 57.5088 15.1694 57.7212L15.3093 57.8265C15.646 58.0805 15.978 58.336 16.2772 58.6013C16.9219 59.1732 17.2103 59.6192 17.2326 59.9539C17.2781 60.637 17.2866 61.3467 17.169 61.9416C17.0496 62.5449 16.834 62.8717 16.5666 63.0235C15.9777 63.3577 15.3539 63.9807 14.8531 64.5434C14.3334 65.1275 13.8682 65.7368 13.5936 66.1266L14.9595 67.0885C15.2027 66.7432 15.6289 66.1846 16.1011 65.654C16.5921 65.1022 17.0607 64.6639 17.3912 64.4763C18.273 63.9758 18.6476 63.0757 18.8078 62.2657C18.9697 61.4473 18.9471 60.5574 18.8995 59.8428C18.8286 58.7797 18.0455 57.9367 17.3857 57.3515C17.0326 57.0384 16.6541 56.7484 16.3153 56.4928L16.1673 56.3813C15.8812 56.166 15.6376 55.9827 15.4384 55.8136C14.4841 55.0039 13.9517 54.0843 13.9925 53.3273C14.0025 53.1404 14.0649 52.8378 14.1811 52.4447C14.2934 52.0651 14.4413 51.6489 14.5939 51.2534C14.7459 50.8593 14.8992 50.4944 15.0198 50.2196C15.1094 50.0153 15.1692 49.8879 15.1958 49.8312C15.2088 49.8034 15.214 49.7924 15.2105 49.7982L13.7777 48.9392Z" fill="#6F3623"/>
<path fill-rule="evenodd" clip-rule="evenodd" d="M42.7334 25.2562C43.5612 25.8374 45.2909 27.0739 45.5867 27.3698C46.5556 27.7925 48.4934 28.7119 48.4934 29.0078C48.4934 29.3777 48.8633 31.2271 49.1803 31.4913C49.2531 31.552 49.3899 31.6905 49.5651 31.8681C50.1534 32.4641 51.1753 33.4993 51.6638 33.4993C51.9577 33.4993 52.5352 33.3858 53.1282 33.2693C53.8149 33.1344 54.5224 32.9954 54.8343 33.0237C55.3216 33.068 56.9604 34.1152 57.9755 34.7639C58.1712 34.8889 58.3437 34.9991 58.4803 35.0845C59.3258 35.6129 60.5939 35.6129 61.3337 35.4544C62.0735 35.2959 64.0286 33.8163 64.3985 33.4993C64.4686 33.4392 64.6014 33.3316 64.7706 33.1945C65.4939 32.6085 66.882 31.484 66.882 31.2271C66.882 30.9101 66.882 29.6948 67.3047 29.4306C67.6035 29.2438 68.1135 28.0012 68.5361 26.9713C68.7114 26.5442 68.8717 26.1536 68.9956 25.8902C69.2534 25.3424 69.8649 25.109 70.3747 24.9145C70.7009 24.7899 70.9855 24.6813 71.1092 24.5164C71.2862 24.2804 70.5903 23.6985 69.8766 23.1017C69.312 22.6296 68.7363 22.1482 68.5729 21.8215C68.4629 21.6015 68.3108 21.3908 68.1695 21.195C67.8356 20.7326 67.5619 20.3533 68.0445 20.1306C68.7314 19.8135 70.3166 18.2812 70.7922 16.4846C71.1726 15.0473 65.1382 12.8209 62.0735 11.8874C63.007 12.4511 65.0643 13.7686 65.8252 14.5295C66.7763 15.4806 66.882 15.9562 66.882 17.2243C66.882 18.4925 63.2888 18.7039 62.0735 18.5982C60.8581 18.4925 59.4843 17.8056 58.4803 17.2243C57.6377 16.7365 56.0135 16.807 55.2008 16.8422C55.0451 16.849 54.9192 16.8545 54.8343 16.8545C54.3059 16.8545 50.1315 17.6999 49.1803 18.2812C48.2292 18.8624 47.4366 18.7039 45.5867 16.4846C44.1069 14.7091 47.1545 12.68 48.8633 11.8874C48.282 11.6761 46.7391 11.3802 45.2173 11.8874C43.6058 12.4246 43.1318 13.4547 42.2536 15.3633C42.0951 15.7076 41.9234 16.0808 41.7296 16.4846C40.7232 18.5812 43.1776 19.5132 44.2338 19.9142C44.5085 20.0185 44.6887 20.0869 44.6887 20.1306C44.6887 20.181 44.6947 20.2765 44.7024 20.3992C44.7271 20.7908 44.7691 21.4594 44.6887 21.8215C44.583 22.2971 43.7902 23.301 42.7334 24.5164C41.8879 25.4886 42.3811 25.4147 42.7334 25.2562ZM50.2901 21.9272H55.2044L56.3667 23.5652L56.9479 25.0976L55.5212 26.1544L52.0866 24.6749L51.3996 23.5652L50.2901 21.9272ZM61.3946 24.8863C60.8134 24.1993 59.5345 22.6247 59.0694 21.8215H64.1951C64.1246 22.3675 63.952 23.5124 63.8252 23.7238C63.7029 23.9275 63.0151 24.8225 62.634 25.3184C62.521 25.4655 62.4347 25.5777 62.3985 25.626C62.2717 25.7951 61.6764 25.2033 61.3946 24.8863Z" fill="#6F3623"/>
</g>
</g>
</svg>
