<svg width="98" height="101" viewBox="0 0 98 101" fill="none" xmlns="http://www.w3.org/2000/svg">
<g id="ogre">
<g id="ogre_2">
<path d="M43.0708 14.1235C43.1843 12.9498 47.9168 11.8519 52.4599 12.2305C57.0031 12.6091 60.2288 16.8342 60.4105 17.5308C60.5658 18.1264 62.988 19.3949 64.8911 20.3916C65.7707 20.8522 66.5394 21.2548 66.9223 21.5061C67.7793 22.0685 69.2614 23.2181 70.1359 23.8964C70.4976 24.177 70.7554 24.377 70.8219 24.4213C70.9437 24.5025 70.3901 24.6709 69.7805 24.8563C69.2538 25.0166 68.6852 25.1895 68.4746 25.3299C68.1319 25.5584 68.5001 26.5193 68.7504 27.1726C68.8319 27.3854 68.901 27.5656 68.9289 27.6772C69.0198 28.0407 68.6639 29.2926 68.4746 29.8731C67.2378 28.6742 64.4539 26.0871 63.2121 25.3299C61.6598 24.3834 58.8961 22.7176 57.6467 22.074C56.3974 21.4304 54.6558 20.9382 54.2015 20.9003C54.0744 20.8898 53.6779 20.9947 53.1047 21.1463C51.6282 21.5369 48.9794 22.2376 46.7432 22.074C43.6387 21.8468 43.0708 20.5218 42.6545 19.4617C42.349 18.6839 42.6548 16.8057 42.8842 15.397C42.9674 14.8856 43.0406 14.4361 43.0708 14.1235Z" fill="#672E1A"/>
<path fill-rule="evenodd" clip-rule="evenodd" d="M44.5791 27.6108C44.6563 27.5207 44.7288 27.42 44.8061 27.3126C45.3874 26.5054 46.2459 25.3134 51.4816 25.3098C57.4142 25.3058 59.6824 29.1797 59.6824 29.7581C59.6824 30.481 61.4465 32.1942 63.0426 32.1942C64.6387 32.1942 65.8148 34.3784 65.9828 37.4719C66.0736 39.1438 65.5264 40.0679 65.0573 40.86C64.6585 41.5335 64.3163 42.1116 64.4707 42.9727C64.7023 44.2642 65.6921 43.5636 66.6424 42.891C67.071 42.5877 67.4915 42.29 67.8309 42.1833C68.7045 41.9084 69.315 39.8897 69.511 38.9146C69.511 37.9906 69.4102 36.0417 69.007 35.6384C68.6037 35.2352 68.8389 33.8439 69.007 33.1987C69.175 32.6679 69.511 31.5222 69.511 31.1862C69.511 30.8502 73.3752 31.0462 75.3073 31.1862V29.0351H71.5271C70.4371 29.0351 70.5139 28.6322 70.6335 28.0051C70.6983 27.6657 70.7756 27.2605 70.6871 26.8179C70.5584 26.1745 71.4153 26.2101 72.4638 26.2536C73.4687 26.2953 74.6496 26.3443 75.3073 25.8098C75.9754 25.267 76.5605 25.9695 77.1554 26.6839C77.7574 27.4066 78.3694 28.1415 79.0876 27.6108C80.23 26.7665 80.5157 29.3626 80.5157 30.7661C81.0197 31.0742 82.0278 31.9919 82.0278 33.1987C82.0278 34.2067 81.6526 35.4822 81.3787 36.4136C81.2427 36.876 81.1316 37.2538 81.1037 37.4719C81.0624 37.7947 82.2975 38.9366 83.5652 40.1088C84.879 41.3236 86.228 42.5709 86.228 42.9727C86.228 43.7501 84.8427 44.5194 84.0786 44.9437L84.0439 44.963C83.439 45.299 80.9917 42.1506 79.8436 40.5344C79.2836 40.7225 78.0627 41.0988 77.6595 41.0988C77.1555 41.0988 76.7354 42.1833 76.7354 43.5822C76.7354 44.9812 76.3154 45.6894 75.3073 46.6431C74.7237 47.1953 74.3372 47.7276 73.8869 48.3476C73.5595 48.7985 73.1983 49.2959 72.7032 49.881C71.5271 51.2708 70.519 51.7674 69.511 52.1875C68.9353 52.4273 68.4966 52.2562 68.0071 52.0653C67.6395 51.922 67.2432 51.7674 66.7388 51.7674C65.7416 51.7674 64.3217 51.1031 63.452 50.6962C63.296 50.6232 63.1575 50.5584 63.0426 50.5074C62.4377 50.2385 61.2225 49.0513 60.6904 48.4912L57.4142 42.9727L57.8343 45.6894C57.4702 46.0073 56.4566 46.8111 55.3141 47.4832C54.5881 47.9103 54.2094 48.3174 53.836 48.7189C53.4749 49.1072 53.1187 49.4902 52.4579 49.881L52.3296 49.9569C51.0923 50.6878 50.7778 50.8735 50.7778 51.7674C50.7778 52.6915 50.7778 54.0166 50.0218 54.5644C49.417 55.0027 46.4096 54.3818 44.9815 54.0166C46.2976 54.5279 48.8961 55.6532 48.7617 56.0637C48.5937 56.577 50.0218 58.2897 51.4816 58.2897C52.2635 58.2897 52.4879 58.4912 52.8762 58.8397C53.2129 59.1419 53.6728 59.5548 54.7261 60.0428C56.3631 60.8013 56.6873 62.2367 56.9937 63.5929C57.1118 64.1158 57.2272 64.6269 57.4142 65.0829C58.0863 66.7217 56.7422 68.4845 54.7261 68.9178C53.4669 69.1884 53.158 70.1972 52.8374 71.244C52.6448 71.8732 52.4479 72.5161 52.0379 73.0207C50.9458 74.3648 50.7778 75.6249 51.4816 75.6249C52.1853 75.6249 53.802 75.6249 55.3141 77.137C56.1234 77.9463 56.4755 78.8037 56.731 79.4259C56.9529 79.9663 57.1019 80.3292 57.4142 80.3292C58.0863 80.3292 59.0103 80.3292 59.6824 79.9092C60.0998 79.6483 60.3876 80.2625 60.727 80.9869C60.934 81.4286 61.1601 81.9113 61.4465 82.2613C62.2025 83.1854 61.5305 84.2774 60.6904 84.6975C60.0184 85.0335 59.0103 84.8375 58.5903 84.6975C58.1703 85.2015 57.2126 86.2096 56.7422 86.2096H52.4579C51.3118 86.2096 50.9475 85.7404 50.5918 85.2822C50.426 85.0688 50.2621 84.8577 50.0218 84.6975C49.7401 84.5096 49.3767 84.3335 48.9925 84.1473C48.3458 83.8338 47.6399 83.4916 47.1656 83.0174C46.712 82.5637 46.4701 82.1706 46.2765 81.8561C46.1475 81.6464 46.0399 81.4717 45.9055 81.3373C45.8387 81.2704 45.7459 81.137 45.6248 80.9629C45.1373 80.262 44.1911 78.9015 42.6293 78.5651C41.3442 78.2882 41.3153 77.9384 41.2524 77.1788C41.2199 76.7859 41.1783 76.2835 40.9492 75.6249C40.4116 74.0792 42.6853 71.6207 43.8894 70.5846L47.1656 67.3924L50.7778 65.6308H47.9217C48.0057 65.1539 47.9721 64.049 47.1656 63.4442C46.3592 62.8393 44.0854 62.1663 43.0494 61.9055L38.4012 61.344V65.6308C38.4012 66.8093 39.1851 68.4845 39.6892 68.9178C40.1932 69.3511 40.1932 72.2647 40.1932 73.0207C40.1932 73.3716 40.0846 73.9215 39.9683 74.5109C39.8339 75.1915 39.6892 75.9247 39.6892 76.465C39.6892 77.2333 38.2249 77.9041 37.3798 78.2912C37.1162 78.412 36.9129 78.5052 36.833 78.5651C36.5642 78.7667 33.6834 79.8252 32.2766 80.3292C33.2442 80.1892 35.3938 79.9092 36.2517 79.9092C36.772 79.9092 36.9638 80.2452 37.1832 80.6296C37.4162 81.0377 37.6802 81.5003 38.4012 81.6733C39.3336 81.897 39.5953 82.3815 40.0381 83.201C40.2604 83.6123 40.5282 84.108 40.9492 84.6975C41.9331 86.0748 42.0975 86.5304 42.3623 87.2637C42.4366 87.4696 42.5188 87.6974 42.6293 87.9737C43.0326 88.9817 40.8372 89.5698 39.6892 89.7378L38.4012 87.3856C37.3273 88.1697 34.9774 89.7378 34.1698 89.7378C33.3621 89.7378 32.9969 88.1697 32.9152 87.3856C32.7023 87.8057 32.0286 88.6961 31.0366 88.8977C30.3386 89.0396 29.7527 88.6224 29.1394 88.1857C28.6631 87.8466 28.1704 87.4958 27.5957 87.3856C26.5438 87.184 26.1348 86.5176 26.0617 86.2096C26.3174 84.8375 26.8287 81.9421 26.8287 81.3373V74.3648C27.0844 73.9168 27.8587 72.8695 28.9105 72.2647C30.2253 71.5086 31.0366 70.0806 31.0366 68.9178C31.0366 67.9938 31.514 65.8246 31.9529 63.8304C32.0663 63.315 32.1772 62.8112 32.2766 62.3437C32.6074 60.7876 32.4452 58.75 32.3373 57.3938C32.2874 56.766 32.249 56.2842 32.2766 56.0637C32.3637 55.3671 32.6249 54.3802 32.9152 53.6255C33.2054 52.8708 33.6989 50.9841 33.8731 49.881C34.0124 48.9986 33.6989 45.5502 33.5247 43.9363L35.1793 42.9727L38.4012 43.5822L35.5276 39.8378C34.918 40.041 33.6641 40.4647 33.5247 40.5344C33.3854 40.6041 33.8967 41.6627 34.1698 42.1833C32.7454 42.585 29.4365 43.4981 27.5957 43.9363C26.3579 44.231 26.4518 45.1281 26.5641 46.2012C26.6605 47.123 26.7706 48.1747 26.0617 49.086C24.5941 50.973 25.7343 53.7627 26.0275 54.4802C26.0408 54.5126 26.0523 54.5407 26.0617 54.5644C26.2371 55.0027 28.034 57.2306 28.9105 58.2897L27.5957 60.8098C27.4131 61.8689 27.004 64.316 26.8287 65.6308C26.6189 67.2044 24.9024 67.874 22.5449 68.7936L22.2269 68.9178C20.2109 69.7067 19.926 68.5891 20.0355 67.9317C20.9486 67.2012 22.95 65.6089 23.6513 65.0829C24.3525 64.557 23.3591 62.7455 22.7747 61.9055C22.0443 62.4898 20.4739 63.9434 20.0355 65.0829C19.7164 65.9124 19.3602 65.7758 18.6856 65.517C18.2017 65.3314 17.5541 65.0829 16.6389 65.0829C14.8858 65.0829 13.9362 62.9646 13.6805 61.9055C14.1188 62.1611 15.6309 62.6067 18.1728 62.3437C20.7147 62.0808 19.2319 59.5315 18.1728 58.2897C16.8945 58.8741 14.2064 60.0428 13.6805 60.0428C13.023 60.0428 11.4891 55.0027 11.8178 55.5505C12.0808 55.9888 14.0458 56.9019 14.9954 57.3036C15.6163 56.9384 17.121 55.7697 18.1728 54.0166C19.4876 51.8252 20.2548 47.6617 20.5835 45.6894C20.9122 43.7172 22.7747 40.3206 24.7469 37.4719C26.1042 35.5113 27.5135 34.6924 28.6175 34.051C29.1176 33.7604 29.5551 33.5062 29.8967 33.1987C30.9924 32.2126 33.8412 30.4595 36.2517 29.0351C38.1801 27.8956 42.6068 27.6108 44.5791 27.6108ZM56.8301 32.3655C56.9713 32.7424 57.2442 33.4709 56.9284 33.6815C56.6009 33.8999 55.2678 33.7725 54.6421 33.6815C54.6023 33.0957 54.5703 31.9241 54.7614 31.9241C54.9525 31.9241 56.1721 32.0719 56.758 32.1459C56.758 32.1732 56.7883 32.2539 56.8301 32.3655ZM48.7044 31.5487C48.9445 31.6635 49.5293 31.8549 49.9902 32.0058C50.2828 32.1016 50.5254 32.181 50.5983 32.2141C50.2569 32.8057 49.5332 34.0194 49.3694 34.1422C49.1647 34.2958 48.5845 33.7668 48.4139 33.5962C48.3352 33.5175 47.8603 33.5659 47.3717 33.6158C46.8018 33.674 46.2131 33.734 46.2131 33.5962C46.2131 33.5295 46.2062 33.4035 46.1977 33.2502C46.1736 32.8156 46.1374 32.1607 46.2131 32.0094C46.2951 31.8456 46.2473 30.7354 46.2131 30.2008C46.4293 30.3031 46.9059 30.5488 47.0834 30.7126C47.2634 30.8788 47.9605 31.2024 48.4266 31.4187C48.5347 31.4689 48.6305 31.5134 48.7044 31.5487ZM47.9548 36.3849V40.0952C47.9548 40.8943 48.5565 40.2292 49.03 39.7059C49.207 39.5102 49.3661 39.3344 49.4692 39.2623C49.7265 39.0821 50.5085 39.1469 51.2328 39.2068C51.5741 39.2351 51.9025 39.2623 52.1572 39.2623C52.8694 39.2623 54.4933 39.5965 55.096 39.7206C55.166 39.735 55.2223 39.7465 55.2617 39.7544C55.5645 39.815 54.4035 38.2401 53.7851 37.445L51.8543 37.8993L51.665 36.3849H47.9548Z" fill="#672E1A"/>
</g>
</g>
</svg>
