<svg width="98" height="101" viewBox="0 0 98 101" fill="none" xmlns="http://www.w3.org/2000/svg">
<g id="ranger">
<g id="ranger_2">
<path d="M55.6198 30.7746L48.8776 32.6062C49.0678 31.4314 49.4983 28.9486 49.6981 28.4161C49.9478 27.7503 51.7671 27.0063 52.3379 26.458C52.9087 25.9098 55.8339 26.8105 56.556 27.0063C57.2781 27.2021 61.0986 26.458 61.5773 26.458C62.056 26.458 64.5739 23.3644 64.6809 23.1686C64.7879 22.9728 64.6095 25.9013 64.3955 26.458C64.1814 27.0148 63.5037 27.2613 62.9569 27.2613C62.4101 27.2613 61.613 27.4762 61.3633 27.5937C61.1135 27.7112 59.1872 29.4146 58.7234 29.4146C58.3524 29.4146 57.1239 28.9317 56.556 28.6902L55.6198 30.7746Z" fill="#B21CB2"/>
<path d="M56.9398 74.1945C56.6901 73.8812 57.7602 72.7064 57.9743 71.4533C58.5926 71.5186 59.1729 72.1514 59.6866 72.5941C60.3287 73.1475 60.8282 74.6644 61.0986 75.056C61.369 75.4476 63.2539 78.9721 63.6107 79.2807C63.9674 79.5893 63.2539 79.7945 62.3264 80.1469C61.3989 80.4993 61.4703 80.7735 61.4703 81.094C61.4703 81.4146 60.6141 83.4755 60.4357 84.154C60.2931 84.6968 59.8769 86.3446 59.6866 87.1006C57.2608 87.1976 52.4092 87.3334 52.4092 87.1006C52.4092 86.8097 52.9443 85.174 53.3368 84.154C53.7292 83.134 55.0491 82.4182 55.6268 81.9091C56.2045 81.4 57.1895 80.6168 57.9743 80.1469C58.7591 79.677 59.5439 78.2672 59.8597 77.8074C60.1754 77.3476 59.8597 76.505 59.2229 75.8807C58.586 75.2565 57.1895 74.5078 56.9398 74.1945Z" fill="#B21CB2"/>
<path d="M33.4955 35.0967H34.7717L33.843 36.4412L33.4955 35.0967Z" fill="#B21CB2"/>
<path fill-rule="evenodd" clip-rule="evenodd" d="M30.0223 48.5319C29.2791 47.6251 26.6155 44.4518 25.3767 42.9785L20.5243 41.7318L18.1499 39.6918L16.7047 41.7318C15.9819 41.7696 14.2474 42.0718 13.0911 42.9785C11.9348 43.8852 8.82394 44.8674 7.41304 45.2451C7.17219 45.094 6.58724 45.0185 6.17428 45.9251C5.65807 47.0585 5.45166 48.8718 5.45166 50.4584C5.45166 51.7277 7.17228 53.1028 8.03259 53.6317C8.61763 52.7629 9.91158 51.0704 10.4071 51.2518C10.6071 51.3249 10.8932 51.5044 11.2272 51.714C11.9276 52.1534 12.8386 52.725 13.6076 52.725C14.1889 52.725 15.0947 52.339 15.9789 51.9621C16.8221 51.6028 17.6458 51.2518 18.1499 51.2518C18.2565 51.2518 18.3664 51.2493 18.4784 51.2469C19.452 51.2255 20.5887 51.2005 21.1442 52.725C21.4539 53.5751 21.712 54.1418 21.9443 54.6518C22.1766 55.1617 22.3831 55.6151 22.5895 56.2384C22.8409 56.9971 23.054 57.8399 23.2754 58.7154C23.4178 59.2785 23.5636 59.8551 23.7252 60.4317C23.902 61.0625 24.0032 61.5687 24.1097 62.1014C24.2519 62.8129 24.4036 63.5718 24.7576 64.7383C25.3767 66.7783 25.9965 67.7983 26.8224 68.2516C27.4831 68.6143 29.231 68.7805 30.0223 68.8183C29.231 68.9316 27.4831 69.3849 26.8224 70.2916C26.6631 70.5102 26.5268 70.6908 26.4032 70.8547C25.8861 71.5403 25.5909 71.9317 24.7576 73.5782C24.3897 74.3052 24.0086 74.9171 23.6706 75.4599C23.06 76.4404 22.5895 77.1958 22.5895 77.9982C22.5895 78.432 22.452 78.7973 22.3205 79.1464C22.0742 79.8005 21.8491 80.3981 22.5895 81.2848C22.9682 81.7383 23.2434 82.1917 23.4957 82.6073C24.0002 83.4383 24.4129 84.1182 25.3767 84.3448C26.1693 84.5312 26.3101 84.5132 26.735 84.4589C27.0851 84.4142 27.628 84.3448 28.8872 84.3448H33.8428C34.5857 84.3448 31.6054 80.1137 30.0223 77.9982H26.0997C25.8932 77.0915 26.1617 75.2329 28.8872 75.0515C30.1756 74.9658 31.1982 74.7343 31.9718 74.5591C33.2439 74.271 33.8428 74.1354 33.8428 75.0515C33.8428 75.8557 34.1194 76.5924 34.3708 77.2615C34.5799 77.8183 34.7714 78.3283 34.7714 78.7915C34.7714 79.0947 34.6985 79.2778 34.6366 79.4329C34.4905 79.7997 34.4064 80.0106 35.4946 81.2848C36.1204 82.0176 36.527 82.7318 36.8848 83.3602C37.4124 84.287 37.8338 85.0271 38.6951 85.3648L38.7959 85.4043C40.1935 85.9525 41.3026 86.3874 42.4117 86.4981C42.8427 86.5411 43.4817 86.78 44.1146 87.0165C45.1494 87.4032 46.1676 87.7837 46.2316 87.2914C46.3349 86.4981 45.8187 79.2448 43.5474 79.4715C43.1605 79.5101 42.7615 79.5553 42.3639 79.6004C40.4274 79.8197 38.5215 80.0357 38.1789 79.4715C37.7659 78.7915 37.1465 77.0915 37.1465 76.0715V72.7849L39.7275 75.0515C40.2437 75.316 41.5032 75.6862 42.4117 75.0515C42.8646 74.7352 43.0548 74.1123 43.2508 73.4706C43.5462 72.5033 43.8547 71.493 45.096 71.4249C46.3679 71.3551 47.2872 71.3713 48.5778 71.394C49.3825 71.4082 50.3315 71.4249 51.6002 71.4249H55.6266C56.2558 71.4249 56.54 70.9587 56.8027 70.5278C57.2728 69.7567 57.674 69.0986 59.8594 71.4249C61.3066 72.9654 62.1763 74.3833 62.8642 75.5047C63.7957 77.0232 64.3938 77.9982 65.6409 77.9982C66.483 77.9982 67.2472 77.8785 67.8852 77.7786C68.8897 77.6213 69.5811 77.513 69.7705 77.9982C69.8768 78.2704 70.214 78.6894 70.6362 79.214C71.4445 80.2182 72.5641 81.6093 72.971 83.0981C73.0606 83.4262 73.1524 83.7779 73.247 84.1404C73.8061 86.2824 74.4625 88.7976 75.3455 88.9914C76.3779 89.2181 82.9853 89.7848 82.8821 88.9914C82.7995 88.3568 80.9205 84.7981 79.9914 83.0981C79.4063 83.1737 78.1124 83.1208 77.6168 82.3048C77.3933 81.9368 77.4117 81.6574 77.4345 81.3121C77.4747 80.7002 77.5286 79.8818 76.2747 77.9982C74.5903 75.468 74.2001 73.9405 73.9927 73.1288C73.9585 72.9952 73.9293 72.881 73.9002 72.7849C73.808 72.4813 73.1806 72.4036 72.4224 72.3097C71.4826 72.1934 70.3419 72.0522 69.7705 71.4249C69.567 71.2015 69.3997 71.0442 69.2628 70.9156C68.7055 70.3917 68.6552 70.3445 68.7381 68.2516C68.8207 66.1663 68.7725 63.6805 68.7381 62.6983C69.8394 62.6983 72.2277 62.9023 72.971 63.7183C73.1537 63.9189 73.3285 64.3256 73.5511 64.8435C74.46 66.9587 76.1661 70.9289 82.4691 70.2916C89.7985 69.5505 90.2814 68.5128 90.9022 67.1784C90.946 67.0842 90.9905 66.9887 91.0381 66.8916C91.2573 66.4448 91.5239 65.9772 91.7718 65.5424C92.3413 64.5436 92.8118 63.7183 92.3802 63.7183C92.3186 63.7183 92.2325 63.7161 92.1245 63.7133C91.1467 63.6878 88.376 63.6157 85.7728 64.7383C83.3976 65.7626 82.4861 64.262 81.4921 62.6254C81.2763 62.2702 81.0566 61.9086 80.8173 61.565C79.574 59.7802 79.0394 59.6488 77.9005 59.3688C77.8099 59.3466 77.7156 59.3234 77.6168 59.2983C77.1425 59.1782 76.6167 59.2137 76.0074 59.2549C74.8924 59.3302 73.4981 59.4245 71.6289 58.6184C68.9733 57.4731 68.3216 57.4756 66.2321 57.4836C66.0471 57.4843 65.8508 57.485 65.6409 57.485C64.6105 57.485 63.8763 57.6837 63.2872 57.8431C62.4006 58.083 61.8426 58.234 61.0983 57.485C59.8594 56.2384 58.1043 53.0651 59.8594 52.1584C61.2635 51.4331 62.5093 51.2518 62.9566 51.2518C61.7178 50.874 59.6116 49.9597 61.0983 49.3251C62.0593 48.9149 62.9098 49.1411 63.6784 49.3454C64.3962 49.5363 65.0426 49.7082 65.6409 49.3251C66.0992 49.0317 66.3173 48.6607 66.5304 48.2982C66.8935 47.6807 67.242 47.0879 68.7381 46.9451C70.6378 46.7638 71.4568 45.7362 71.6289 45.2451C69.7017 44.4896 66.4255 42.9785 68.7381 42.9785H72.971C75.3455 42.9785 76.9974 42.865 78.133 41.7318C79.0415 40.8252 80.3011 39.994 80.8173 39.6918L73.9002 40.2585L81.54 37.8785L76.2747 37.1986C77.7201 36.5942 80.7966 35.272 81.54 34.8187C81.8712 34.6166 82.2943 34.4578 82.739 34.2909C83.5419 33.9895 84.4154 33.6616 84.9469 33.0053C85.0499 32.8781 85.185 32.7156 85.339 32.5305C86.4199 31.2308 88.4319 28.8118 86.8052 29.6054C86.1905 29.9053 85.3384 30.3789 84.4397 30.8784C82.6218 31.8888 80.6131 33.0053 79.9914 33.0053C79.248 33.0053 77.2039 33.3075 76.2747 33.4586C76.2747 32.8542 76.6464 31.5093 78.133 30.9653C78.8829 30.6909 79.6328 30.6195 80.3623 30.5501C81.4407 30.4474 82.4746 30.349 83.3983 29.6054C84.1399 29.0084 84.7394 28.2555 85.2649 27.5956C85.8368 26.8773 86.321 26.2692 86.8052 26.092C87.7344 25.752 88.8701 24.5054 89.1798 23.9387C89.4276 23.4854 90.1089 21.9365 90.4187 21.2187C90.0057 20.3121 89.1798 18.5895 89.1798 18.9521C89.1798 19.4055 86.4955 22.4654 84.9469 23.9387C83.708 25.1174 81.127 26.7721 79.9914 27.4521C79.716 26.9232 79.3306 25.7521 79.9914 25.2988L80.1724 25.175C80.9249 24.6616 81.6084 24.1953 82.4691 23.1455C82.9648 22.5409 83.5779 22.0331 84.1989 21.5188C84.742 21.069 85.2911 20.6143 85.7728 20.0855C86.5988 19.1788 89.2142 14.6455 90.4187 12.4922C88.698 14.6456 84.885 19.1789 83.3983 20.0855C82.6577 20.5371 81.7532 21.1867 80.7827 21.8837C79.3179 22.9357 77.7029 24.0956 76.2747 24.8454C73.9002 26.092 70.6997 27.452 68.7381 28.2454C67.9073 28.5814 66.5392 28.6328 65.1833 28.6837C63.3379 28.753 61.5149 28.8215 61.0983 29.6054C60.5575 30.6231 60.1323 30.7523 58.5682 31.2278C58.0421 31.3877 57.3872 31.5868 56.5557 31.872C55.1718 32.3467 53.3893 32.8215 51.7319 33.2629C49.4327 33.8753 47.3743 34.4235 46.9543 34.8187C46.8103 34.9542 42.9844 36.7745 42.7565 36.9497C41.1872 37.403 40.6911 37.1986 40.2437 37.1986C39.9684 36.1031 39.5829 33.8213 40.2437 33.4586C40.4662 33.3365 40.6138 33.2308 40.7631 33.1239C41.1681 32.8338 41.5862 32.5344 43.5474 31.872C45.6948 31.1467 46.2316 30.0587 46.2316 29.6054C44.5798 29.7565 40.9664 30.24 39.7275 30.9653C39.3051 31.2126 39.0441 31.3924 38.8542 31.5232C38.6805 31.6429 38.5663 31.7215 38.4429 31.7731C38.2064 31.872 37.9357 31.872 37.1465 31.872H33.0168L31.8812 34.8187H35.4946L34.7714 37.1986L36.3205 37.8785V39.6918C35.2881 39.9184 32.9549 40.2356 31.8812 39.6918C30.8075 39.1479 28.6119 36.972 27.6483 35.952L26.0997 34.0253C26.0653 33.3075 26.1617 31.872 26.8224 31.872C27.2123 31.872 29.3053 30.5836 31.5149 29.2233C33.9853 27.7026 36.6015 26.092 37.1465 26.092C37.4772 26.092 38.1789 25.9641 39.1326 25.7902C41.1557 25.4212 44.3131 24.8454 47.4705 24.8454H54.6974C50.1548 24.241 40.5947 23.2134 38.6951 23.9387C37.686 24.324 36.4532 24.6274 35.3057 24.9099C33.7529 25.2921 32.3561 25.6358 31.8812 26.092C31.2205 26.7267 28.2334 28.6987 26.8224 29.6054C24.9297 29.3787 21.1442 29.3334 21.1442 30.9653C21.1442 32.5973 22.1077 34.9697 22.5895 35.952L24.7576 34.8187C25.1705 35.9143 26.1617 38.2641 26.8224 38.8986C27.4831 39.5331 28.1989 40.0696 28.4743 40.2585V42.9785C28.9903 43.5074 30.0223 44.7011 30.0223 45.2451C30.0223 45.9251 32.1909 46.9451 33.8428 46.9451C34.6687 46.9451 35.4946 46.4351 36.1141 46.0526C36.7335 45.6701 37.1465 45.4151 37.1465 45.9251C37.1465 46.4217 37.3912 46.972 37.6423 47.5368C37.907 48.1321 38.1789 48.7435 38.1789 49.3251C38.1789 50.4584 37.9724 51.5918 37.1465 52.1584C36.4857 52.6117 35.2878 52.725 34.7714 52.725C34.4824 52.3548 33.6309 51.6636 32.7106 50.9165C31.6592 50.0629 30.5178 49.1363 30.0223 48.5319ZM47.4705 45.9251C47.9867 44.9051 47.4705 42.9785 46.9543 41.7318C46.8151 41.3955 46.6984 41.0429 46.58 40.6848C46.2592 39.7152 45.9254 38.7063 45.096 37.8785C45.0652 37.8478 45.0552 37.948 45.0462 38.0381C45.0385 38.1154 45.0316 38.1853 45.0128 38.1587C45.0721 38.3721 45.2679 38.8087 45.5214 39.3739C46.2116 40.9125 47.3291 43.404 47.2827 44.942L45.096 50.4584C45.7154 49.2873 47.0576 46.7411 47.4705 45.9251ZM15.3956 45.6802V44.4543L14.9303 44.0968L18.1499 43.4328L15.3956 45.6802Z" fill="#B21CB2"/>
</g>
</g>
</svg>
