<svg width="98" height="101" viewBox="0 0 98 101" fill="none" xmlns="http://www.w3.org/2000/svg">
<g id="titan">
<g id="titan_2">
<path d="M58.5803 56.4044H62.9452L60.7558 49.362L58.5803 56.4044Z" fill="black"/>
<path fill-rule="evenodd" clip-rule="evenodd" d="M5.93455 96.0033C10.5324 94.1253 25.2068 90.3693 47.1212 90.3693C69.0357 90.3693 84.6167 95.4205 89.6679 97.9461C91.6754 96.5214 95.3019 91.4184 93.7477 82.404C92.8751 77.343 90.0822 71.9685 87.2171 67.2311L92.2632 67.2311V40.418H80.8737V43.9963L78.8397 40.418L72.5355 40.418C71.0698 37.884 69.7666 35.5334 69.0745 33.8348C67.3649 29.6384 66.1604 22.8906 65.7718 20.0412C64.7921 20.6096 62.7504 22.0038 62.421 23.0332C62.0092 24.3199 59.7961 26.8418 58.0462 26.0183C56.2963 25.1948 55.6787 24.8346 56.8624 23.5479C57.8095 22.5185 59.5559 21.4034 60.3108 20.9745C59.9677 20.6634 58.9623 20.0412 57.6859 20.0412C56.4095 20.0412 54.615 22.379 53.8773 23.5479V20.6657C53.8773 18.9363 54.7694 17.0286 55.2155 16.2909C56.159 16.085 58.0462 15.2924 58.0462 13.7689C58.0462 12.2455 56.5022 10.4235 55.7301 9.70297C56.1762 11.0583 56.7492 13.7689 55.4728 13.7689C54.7402 13.7689 54.2246 13.4759 53.6669 13.159C53.0101 12.7857 52.2949 12.3793 51.098 12.3793C49.8921 12.3793 49.0683 12.9141 48.3184 13.4009C47.692 13.8076 47.1172 14.1807 46.4144 14.1807C45.1792 14.1807 45.6939 11.4014 46.1056 10.0118C45.0077 10.8524 42.8529 12.8631 43.0176 14.1807C43.1823 15.4983 45.3508 16.1365 46.4144 16.2909C46.6032 17.2173 47.0424 19.3892 47.2894 20.6657C47.5364 21.9421 47.0835 23.6336 46.8262 24.3199C46.1228 22.7758 44.3763 19.5848 43.0176 19.1731C41.6588 18.7613 40.3927 19.5802 39.9295 20.0412C41.3706 20.2665 44.0572 21.2833 43.2749 23.5479C42.297 26.3786 39.6207 26.0183 38.4884 24.7831C37.9341 24.1784 37.5401 22.9076 37.1737 21.7256C36.7915 20.4931 36.4393 19.357 35.9664 19.1731C35.2253 18.8849 34.2852 18.7442 33.9077 18.7099C34.9371 20.2196 36.5738 23.7949 34.8856 26.0183C34.5331 26.4826 33.9122 27.2508 33.114 28.2385C30.7846 31.1207 26.9426 35.8743 23.835 40.418H5.73641V50.7059H11.7189V60.6444C8.43753 65.2928 5.13416 70.1048 4.24982 73.0105C3.45818 75.6116 4.06283 79.5455 4.75863 84.0725C5.32947 87.7864 5.96166 91.8995 5.93455 96.0033ZM52.8583 15.8217H48.0047V17.4001H49.7409V21.9775H51.098V17.4001H52.8583V15.8217ZM25.9623 47.4515H19.8682V63.9767H14.9734V47.4515H8.99082V43.6723H25.9623V47.4515ZM33.2556 63.9767H28.3748V43.6723H33.2556V63.9767ZM46.0853 47.4515H52.1794V43.6723H35.208V47.4515H41.1905V63.9767H46.0853V47.4515ZM64.1166 60.1836H57.4089L56.2375 63.9767H51.008L58.4548 43.6723H63.0567L70.5593 63.9767H65.3019L64.1166 60.1836ZM84.142 63.9767H89.0089V43.6723H84.1281V56.3068L76.9463 43.6723H72.0515V63.9767H76.9463V51.3423L84.142 63.9767Z" fill="black"/>
</g>
</g>
</svg>
