<svg width="98" height="101" viewBox="0 0 98 101" fill="none" xmlns="http://www.w3.org/2000/svg">
<g id="titan">
<path id="serpent" fill-rule="evenodd" clip-rule="evenodd" d="M6.02859 57.0691C4.91599 42.5142 14.0313 34.5894 24.1779 34.5894C29.0772 34.5894 37.0083 35.1941 44.7861 35.7872C53.1165 36.4223 61.271 37.0441 65.3358 36.8951C73.1958 36.6068 78.4834 36.1746 78.1976 28.6814C77.9118 21.1882 69.6231 18.3061 65.3358 18.0179C61.906 17.7873 55.1416 17.9218 52.1882 18.0179C52.2834 19.6029 51.9595 23.2053 49.9016 24.9345C47.3293 27.096 40.6125 30.1221 37.4685 30.9867C34.9533 31.6784 32.2285 31.8513 31.1805 31.8513L29.6085 26.0873L32.6096 27.6724L35.0391 24.9345H38.0402L41.7558 23.3494L43.7565 19.7469C42.8714 19.2752 41.1164 18.3777 41.1769 18.5609C41.2375 18.7442 40.3188 20.1897 39.8519 20.8896L37.4685 18.2174L35.6116 21.1568L34.0215 18.0179H31.712L31.1805 20.8896V21.8058C30.5879 20.7242 29.2815 18.5609 28.7969 18.5609C28.1911 18.5609 25.8438 18.9045 25.7302 19.0572C25.6394 19.1794 26.6262 20.3297 27.131 20.8896C26.1719 19.9989 24.0038 18.2174 23.0043 18.2174C21.755 18.2174 20.4678 18.5991 20.7706 19.5535C20.9521 20.1253 21.1743 20.3956 21.4862 20.7749C21.6948 21.0288 21.9436 21.3314 22.2472 21.8058C22.8529 22.7526 24.5692 23.2294 25.3516 23.3494C24.0897 23.5458 21.4067 23.8208 20.7706 23.3494C20.1346 22.878 18.7893 20.7513 18.1962 19.7469C17.2749 19.1353 15.4476 17.5836 15.5081 16.2704C15.5839 14.6289 15.9246 12.262 18.8398 12.4528C21.755 12.6437 25.7681 12.3001 26.2603 11.7275C26.7524 11.1549 28.609 10.1623 29.8948 10.0478C30.6054 9.98446 32.1149 10.5042 33.5021 10.9819C34.6248 11.3685 35.6674 11.7275 36.1416 11.7275C36.8051 11.7275 40.0496 11.3834 42.477 11.126C43.9276 10.9722 45.0863 10.8493 45.2279 10.8493C45.6065 10.8493 50.7933 11.4986 52.5727 11.7275C54.3521 11.9564 61.924 12.0331 62.9462 11.7275C63.2225 11.6449 63.6868 11.501 64.2227 11.3349C65.6693 10.8865 67.6367 10.2767 67.8301 10.2767C67.8612 10.2767 67.9681 10.2719 68.1316 10.2647C69.3603 10.2102 73.7875 10.0138 73.3197 10.6202C72.8957 11.17 72.0073 12.529 71.6161 13.1398C75.7427 13.0125 83.9583 12.8344 83.8068 13.1398C83.6554 13.4452 82.3051 14.7941 81.6488 15.4303C85.195 17.0846 92.2419 22.5461 92.0602 31.1584C91.8331 41.9238 85.3969 48.9098 71.7675 48.8717C64.7926 48.8521 57.5203 48.0728 51.1785 47.3932C45.1278 46.7447 39.9241 46.1871 36.6338 46.4666C29.8948 47.0393 24.5187 47.5737 23.7237 53.5672C22.9286 59.5607 26.4117 61.5458 30.1219 59.7134C31.2126 59.1748 32.277 58.115 33.5153 56.8821C36.4896 53.9207 40.4669 49.9608 48.2188 49.826C59.1981 49.6352 66.0128 49.7497 68.8902 51.1622C69.1126 51.2714 69.3527 51.3842 69.606 51.5033C72.6287 52.924 77.5276 55.2266 76.6892 62.7292C75.7806 70.8605 72.0704 74.4108 66.3157 74.3344C64.4222 74.3093 61.6598 73.594 58.7055 72.829C52.6809 71.2689 45.8583 69.5022 43.9785 72.9602C41.1769 78.1138 38.6782 83.6873 45.5308 84.6417C52.3834 85.5961 57.078 84.909 57.873 83.7637C57.9387 83.6691 58.0233 83.5439 58.1247 83.3938C59.251 81.7273 62.4584 76.9815 65.0285 76.7013C67.2698 76.457 68.562 78.6864 68.928 79.8317C68.4358 79.2972 67.1562 78.2894 65.975 78.5337C65.531 78.6255 65.0871 79.6664 64.4671 81.1199C63.0253 84.5006 60.6314 90.1133 55.0714 91.2078C47.1209 92.773 38.0725 91.3987 34.5137 87.9248C30.9549 84.4508 29.5919 80.9387 30.917 77.4266C32.2421 73.9145 35.8009 66.814 37.6939 65.7451C39.5868 64.6762 42.237 63.5691 43.6378 63.6073C44.204 63.6227 45.9451 63.7441 47.9414 63.8833C50.8846 64.0886 54.3825 64.3326 55.4879 64.3326C57.343 64.3326 63.7791 63.7981 63.5141 62.3857C63.2491 60.9732 61.5075 58.2627 59.9174 59.1408C59.4428 59.4028 59.201 59.8281 58.9401 60.2868C58.3271 61.3647 57.6093 62.6267 53.5192 62.3857C50.9577 62.2347 49.0173 61.8996 47.4349 61.6262C45.4154 61.2774 43.9787 61.0292 42.5777 61.3931C40.079 62.0421 35.763 64.1035 34.2108 66.0123C33.76 66.5666 33.3986 66.9568 33.0923 67.2874C32.3439 68.0953 31.9245 68.5481 31.3334 70.1734C30.6671 72.0058 30.0967 75.0598 29.8948 76.3577C27.598 76.3323 22.3304 76.2203 19.6348 75.976C16.9392 75.7317 7.14118 71.624 6.02859 57.0691ZM26.412 15.1249H33.151V12.6817L26.412 15.1249Z" fill="#D46814"/>
</g>
</svg>
