<svg width="98" height="101" viewBox="0 0 98 101" fill="none" xmlns="http://www.w3.org/2000/svg">
<g id="titan">
<g id="archangel">
<path d="M67.302 41.4257L63.0461 26.033C63.3662 24.8758 64.0875 23.7122 64.7135 22.7024C65.2898 21.7726 65.7853 20.9732 65.8125 20.4291C65.8693 19.2942 65.2687 17.4499 64.9613 16.6696C63.7791 16.2204 61.2728 14.6551 60.7053 11.9881C59.996 8.65425 64.4648 7.51923 69.4302 7.23549C74.3955 6.95176 75.1758 7.94487 75.8852 8.86702C76.1986 9.27449 76.6644 9.7235 77.1479 10.1896C77.7585 10.7783 78.3975 11.3942 78.7933 11.9881C79.3457 12.8167 80.9737 13.8174 82.7727 14.9232C83.2835 15.2372 83.8086 15.56 84.3263 15.8894C85.916 16.901 86.0663 19.9733 86.1989 22.6852C86.2616 23.9668 86.3204 25.168 86.5253 26.033C87.1636 28.7285 87.6602 30.7146 88.2986 32.2752C88.937 33.8357 91.9873 43.6246 91.9163 45.6817C91.9045 46.0252 91.8867 46.7703 91.862 47.8055L91.862 47.8067C91.7387 52.9718 91.4431 65.3567 90.8523 71.147C90.2848 76.7082 84.7046 86.6578 81.9854 90.9375C83.4277 86.6106 86.4543 77.3466 87.0218 74.9065C87.7311 71.8563 87.5892 64.1954 87.0218 62.4221C86.5678 61.0034 86.076 62.2566 85.8869 63.0605C85.6504 64.7866 85.1207 68.4799 84.8937 69.4446C84.6667 70.4093 82.0091 75.5212 80.7086 77.9566C81.2761 74.5282 82.5387 67.2314 83.0494 65.4723C83.4177 64.2039 83.4319 61.6139 83.446 59.0364C83.4564 57.1453 83.4667 55.2609 83.6168 53.91C83.9715 50.718 82.1272 50.718 81.9854 52.0657C81.8719 53.1439 79.1007 64.8575 77.7293 70.5795C78.0131 68.7116 78.6231 64.8197 78.7933 64.1954C79.0061 63.4152 80.0702 46.391 78.084 45.6817C76.4951 45.1142 75.2467 53.0588 74.8211 57.1021L73.8281 42.3478L71.7 52.9879L70.2104 44.4049L67.302 41.4257Z" fill="#D46814"/>
<path d="M30.6981 41.4257L34.954 26.033C34.6339 24.8758 33.9126 23.7122 33.2866 22.7024C32.7103 21.7726 32.2147 20.9732 32.1875 20.4291C32.1308 19.2942 32.7314 17.4499 33.0387 16.6696C34.221 16.2204 36.7273 14.6551 37.2948 11.9881C38.0041 8.65426 33.5353 7.51923 28.5699 7.2355C23.6045 6.95176 22.8243 7.94488 22.1149 8.86702C21.8015 9.27449 21.3357 9.7235 20.8522 10.1896C20.2416 10.7783 19.6026 11.3942 19.2067 11.9881C18.6543 12.8167 17.0264 13.8174 15.2274 14.9232C14.7164 15.2373 14.1916 15.5599 13.6738 15.8894C12.0841 16.901 11.9338 19.9733 11.8011 22.6853C11.7385 23.9669 11.6797 25.1679 11.4748 26.033C10.8364 28.7285 10.3398 30.7146 9.70143 32.2752C9.06303 33.8357 6.0128 43.6246 6.08374 45.6817C6.09558 46.0252 6.11336 46.7703 6.13807 47.8057C6.26132 52.9702 6.55692 65.3563 7.1478 71.147C7.71527 76.7082 13.2955 86.6578 16.0147 90.9375C14.5723 86.6105 11.5457 77.3466 10.9783 74.9065C10.269 71.8563 10.4108 64.1954 10.9783 62.4221C11.4323 61.0034 11.9241 62.2566 12.1132 63.0605C12.3497 64.7866 12.8794 68.4798 13.1064 69.4445C13.3334 70.4092 15.991 75.5212 17.2915 77.9566C16.724 74.5281 15.4614 67.2314 14.9506 65.4723C14.5824 64.2039 14.5682 61.6139 14.5541 59.0364C14.5437 57.1453 14.5334 55.2609 14.3833 53.91C14.0286 50.718 15.8728 50.718 16.0147 52.0657C16.1282 53.1439 18.8994 64.8575 20.2707 70.5795C19.987 68.7116 19.377 64.8197 19.2067 64.1954C18.9939 63.4152 17.9299 46.391 19.9161 45.6817C21.505 45.1142 22.7534 53.0588 23.1789 57.102L24.172 42.3478L26.3001 52.9879L27.7897 44.4049L30.6981 41.4257Z" fill="#D46814"/>
<path d="M52.0494 41.6613C52.0493 41.9171 45.3678 42.6843 44.9204 41.6613C44.4729 40.6383 47.5099 35.6767 49.0444 35.5233C50.9625 35.3314 52.0494 41.3415 52.0494 41.6613Z" fill="#D46814"/>
<path d="M50.3466 81.7159L48.0059 91.8596L45.3103 81.7159L46.6581 50.3632H43.8917V47.8805L46.6581 46.8874L47.1546 44.6885H49.7083V46.8874L52.9003 47.4549V49.8666H49.7083L50.3466 81.7159Z" fill="#D46814"/>
<path fill-rule="evenodd" clip-rule="evenodd" d="M43.8208 26.955C43.6789 23.7393 44.3313 17.3079 48.0767 17.308C51.8221 17.3081 52.853 23.4084 52.9003 26.4586C53.586 27.097 55.1844 28.2886 56.0923 27.9482C57.0003 27.6077 58.5987 27.428 59.2844 27.3807C60.2302 28.3501 62.1643 30.3599 62.3345 30.6437C62.5473 30.9983 66.3068 46.9585 64.8882 47.5259C63.7532 47.9799 61.2469 46.3437 60.1356 45.4688C60.8686 51.4746 62.3345 63.6279 62.3345 64.1954C62.3345 64.7629 61.6725 68.7825 61.3415 70.7213C61.9326 72.8257 63.1716 77.3749 63.3985 78.7369C63.5642 79.7307 63.6331 82.2234 63.69 84.2814C63.7306 85.7487 63.7651 86.9951 63.8241 87.3199C63.8781 87.6168 64.7231 88.2425 65.7375 88.9936C67.3887 90.2162 69.4888 91.7712 69.357 92.7818C69.1589 94.3002 55.8729 93.9753 49.0575 93.8086L49.0528 93.8085C48.5473 93.7961 48.0774 93.7847 47.6512 93.7749C44.4253 93.7007 38.8541 94.053 34.2305 94.3453C30.009 94.6122 26.5774 94.8292 26.442 94.6261C26.2843 94.3895 26.8716 93.7804 27.595 93.0302C28.1731 92.4307 28.8381 91.741 29.2793 91.0794C30.2723 89.5897 31.691 81.0067 31.691 80.4393C31.691 80.1251 32.365 78.1368 33.0149 76.2198C33.5388 74.6742 34.0471 73.1748 34.1737 72.6365C34.4574 71.4307 36.5855 62.2802 36.7983 59.8684C36.9617 58.0165 36.6589 50.7881 36.467 46.9906C36.4193 47.9122 35.8288 49.3161 33.6772 49.9377C30.4851 50.8598 31.4782 44.5467 32.1166 43.6955C32.755 42.8443 34.7412 35.8218 34.7412 34.9706C34.7412 34.4717 35.2043 33.2659 35.659 32.082C35.98 31.2461 36.2968 30.4211 36.4436 29.8634C36.4884 29.6932 36.5252 29.5411 36.5586 29.4034C36.7895 28.4509 36.8536 28.1863 38.2169 27.3807C39.4654 26.643 42.4731 26.7895 43.8208 26.955ZM50.8684 91.2041C52.1154 88.7504 54.5853 83.6259 54.4887 82.757C54.4416 82.3332 54.2658 82.0932 54.0619 81.8146C53.7431 81.3793 53.3555 80.8498 53.2819 79.3782C53.2242 78.2233 54.3547 76.5434 55.5626 74.7483C56.8789 72.7922 58.2872 70.6994 58.3502 69.0004C58.3929 67.8478 58.6621 66.9066 58.9014 66.07C59.3385 64.5417 59.6759 63.3624 58.3502 61.8807C56.9338 60.2977 56.2078 59.1749 55.4968 58.0755C55.1781 57.5826 54.8623 57.0942 54.4887 56.5712C54.2376 56.2198 53.9866 55.9153 53.7572 55.6372C52.8843 54.5786 52.3262 53.9019 53.2819 52.4684C53.8832 51.5666 54.5742 50.7846 55.1462 50.1374C55.7223 49.4855 56.1776 48.9702 56.2987 48.6069C56.4718 48.0878 56.3967 46.1416 56.3403 44.6813C56.3181 44.1053 56.2987 43.6046 56.2987 43.2974C56.2987 43.1911 56.2999 43.0837 56.3011 42.9746L56.3011 42.9731C56.312 41.9672 56.3244 40.8146 55.454 39.0738C55.3239 38.8135 55.1784 38.4873 55.0137 38.1182C53.9568 35.7493 52.1092 31.6083 48.455 31.7127C44.2315 31.8334 40.3699 35.2122 40.2493 37.143C40.1874 38.1335 40.9511 39.378 41.6608 40.5345C42.3346 41.6324 42.9596 42.6509 42.7833 43.2974C42.6159 43.9111 42.0615 44.5765 41.5138 45.2338C40.877 45.998 40.2493 46.7514 40.2493 47.4001C40.2493 47.7596 40.0244 48.301 39.7757 48.9001C39.1893 50.3123 38.47 52.0448 40.2493 52.4684C42.7833 53.0717 42.7833 53.7958 42.7833 54.8818C42.7833 55.4249 42.0593 56.33 41.2749 57.3105C40.4905 58.2909 39.6458 59.3468 39.4045 60.1914C38.9218 61.8807 37.7151 68.2764 38.5598 69.6038C38.797 69.9765 39.2339 70.4729 39.7398 71.0475C41.0355 72.5195 42.7833 74.505 42.7833 76.2408C42.7833 77.6853 41.573 79.3458 40.6011 80.6792C39.9492 81.5737 39.4045 82.3209 39.4045 82.757C39.4045 83.6259 41.657 87.946 42.7833 89.9975C43.3867 91.0031 45.2209 93.0143 47.7309 93.0143C50.2409 93.0143 50.8684 91.8075 50.8684 91.2041Z" fill="#D46814"/>
</g>
</g>
</svg>
