<svg width="98" height="101" viewBox="0 0 98 101" fill="none" xmlns="http://www.w3.org/2000/svg">
<g id="troll">
<g id="troll_2">
<path fill-rule="evenodd" clip-rule="evenodd" d="M26.7347 22.0523C27.1568 21.6302 32.9614 16.4589 36.0222 16.3534H40.7711C41.4466 16.3534 43.6558 16.8459 44.676 17.0922L46.259 13.3984C48.6512 13.3632 53.921 13.3139 55.8629 13.3984C57.8047 13.4828 58.8531 15.4035 59.1345 16.3534V23.3188L61.4563 25.6406L59.6622 26.1683V27.5403L55.8629 26.696L52.3801 28.9123C54.5964 29.1233 59.1556 29.5877 59.6622 29.7565C60.1688 29.9254 60.225 34.4705 60.1899 36.722H55.2296C54.702 37.3552 53.1189 39.0227 51.0082 40.6268C49.5353 41.7462 49.7069 41.9447 50.1459 42.4525C50.4933 42.8543 51.0082 43.4497 51.0082 44.8483C51.0082 45.7283 51.0489 46.4453 51.0829 47.0422C51.1711 48.5929 51.2132 49.3338 50.375 50.0196C49.2141 50.9694 49.003 53.9244 49.003 56.0352C49.003 57.3594 49.543 57.8944 50.1018 58.448C50.4337 58.7768 50.7722 59.1122 51.0082 59.6234C51.3706 60.4086 52.3551 61.3666 53.1311 62.1216C53.7109 62.6858 54.1743 63.1367 54.1743 63.3172C54.1743 63.4357 54.2991 63.7789 54.4809 64.2789C54.9467 65.5598 55.787 67.8703 55.8629 70.0715C55.9381 72.2532 55.5843 72.6116 54.9926 73.2109C54.7543 73.4524 54.4773 73.7329 54.1743 74.1875C53.5699 75.094 52.5848 76.3467 51.8731 77.2518C51.342 77.9271 50.9631 78.4089 51.0082 78.4089C51.0545 78.4089 51.5286 78.9385 52.1083 79.586C52.8481 80.4124 53.7601 81.4311 54.1743 81.7861C54.7653 82.2927 56.672 82.4193 57.5514 82.4193H62.7227C64.0736 82.4193 63.2856 86.0076 62.7227 87.8017H55.2296L50.375 86.5353L49.003 82.4193L46.8922 80.5197L42.5652 79.5698L43.1985 76.1927C43.691 75.3484 44.676 73.3432 44.676 72.0767C44.676 70.8103 44.0428 69.368 43.7261 68.8051C43.3392 67.9256 42.5652 65.9978 42.5652 65.3224C42.5652 64.647 40.8063 62.7895 39.9268 61.9452C39.7157 63.0709 39.4202 65.3224 39.9268 65.3224C40.3732 65.3224 41.0818 67.1579 41.7569 68.9066C42.0394 69.6386 42.3161 70.3553 42.5652 70.9158C43.0517 72.0104 42.1016 73.3853 41.2089 74.6771C40.5523 75.6273 39.9268 76.5324 39.9268 77.248C39.9268 78.9366 39.9268 80.0975 40.7711 81.1529C41.2699 81.7764 41.474 81.6263 41.7535 81.4209C41.947 81.2786 42.1766 81.1097 42.5652 81.1529C43.0871 81.2109 43.8321 81.4601 44.6775 81.7428C45.3707 81.9747 46.1315 82.2291 46.8922 82.4193C48.2122 82.7493 48.5648 84.498 48.8071 85.6995C48.8748 86.035 48.9339 86.3279 49.003 86.5353C49.2563 87.2951 48.4753 88.1887 48.0531 88.5405L39.9268 87.8017C36.1627 87.8369 28.5289 87.8861 28.1067 87.8017C28.0134 87.783 27.7848 87.7479 27.4716 87.6997C26.0135 87.4755 22.7242 86.9696 22.7242 86.5353V83.6858C22.7242 83.3731 23.1212 82.6257 23.5792 81.7634C24.2033 80.5884 24.9406 79.2003 24.9406 78.4089C24.9406 77.037 24.9406 76.6148 25.7849 75.5595C26.6292 74.5041 27.4735 71.9712 27.4735 70.0715V65.3224C27.4735 64.2519 25.9315 63.3742 24.552 62.5889C24.1635 62.3678 23.7878 62.1539 23.4632 61.9452C21.9857 60.9954 20.8247 58.2514 20.4025 56.7739C20.0648 55.5919 20.5433 52.5525 20.8247 51.1805C21.4579 52.5876 22.872 55.5286 23.4632 56.0352C24.2021 56.6684 25.7849 57.6182 27.4735 58.2514C28.8244 58.758 31.2728 58.0404 32.3282 57.6182L36.5497 53.9244C37.4643 53.0098 39.4202 50.9483 39.9268 50.0196C40.4334 49.0909 39.7157 47.3812 39.2936 46.6424C38.7307 46.1499 37.3939 45.1016 36.5497 44.8483C35.923 44.6603 35.6312 43.5792 35.3429 42.511C35.1457 41.7803 34.9501 41.0555 34.65 40.6268C34.059 39.7825 34.4037 37.6718 34.65 36.722C34.2982 36.9682 33.3413 37.6929 32.3282 38.6216C31.3849 39.4863 31.5541 40.2925 31.7018 40.9965C31.7524 41.2376 31.8005 41.4668 31.8005 41.6822C31.8005 42.5265 32.6448 43.5818 33.5946 44.2151C34.5445 44.8483 36.0222 46.0092 36.5497 46.6424C37.0771 47.2756 38.4493 48.9642 38.4493 50.0196C38.4493 50.8639 36.4089 52.271 35.3887 52.8691C34.2982 53.9244 31.8005 56.1829 30.5341 56.7739C29.2676 57.3649 26.2774 56.5277 24.9406 56.0352L23.4632 51.1805C22.3023 49.9844 19.7694 47.4023 18.925 46.6424C17.8695 45.6926 18.5029 41.4711 18.925 39.7825C19.2225 38.5926 20.7777 36.6166 21.818 35.2948C22.254 34.7408 22.5996 34.3017 22.7242 34.0835C23.1464 33.3448 23.4632 30.6008 23.4632 28.9123C23.4632 27.2237 26.3126 22.4745 26.7347 22.0523ZM51.9541 21.5567H56.5953C56.5953 22.0973 56.5617 23.1951 56.4275 23.2622C56.2934 23.3293 53.3893 22.1532 51.9541 21.5567Z" fill="#260C87"/>
<path d="M54.4353 39.4063C54.2196 40.1885 53.6587 41.9309 53.1408 42.6429C52.6229 43.3549 52.3856 45.5288 52.3316 46.5268C52.6014 47.282 53.1408 48.9219 53.1408 49.4397C53.1408 49.8232 52.7432 50.6611 52.3854 51.415C52.1393 51.9336 51.9121 52.4125 51.8461 52.6763C51.6843 53.3236 51.8463 55.9129 53.1408 56.3984C54.1764 56.7868 56.1614 58.0167 57.0245 58.5831L59.7756 59.3113L62.1221 59.9586L60.8275 67.6455H63.5785L65.1968 60.7678C66.2218 61.4151 68.4011 62.5964 68.9189 62.1433C69.5662 61.5769 70.6181 60.0395 70.2945 59.3113C69.9708 58.5831 69.4853 56.722 70.2945 57.0457C71.1036 57.3693 72.7219 57.0457 72.5601 56.3984C72.4983 56.1514 72.1774 55.8808 71.8446 55.6002C71.3051 55.1454 70.7341 54.664 71.1845 54.2137C71.4319 53.9662 71.67 53.7842 71.8766 53.6263C72.2779 53.3194 72.5601 53.1037 72.5601 52.6763C72.5601 52.1584 71.643 50.8422 71.1845 50.2489L69.4044 47.7405L71.9937 37.5453H76.0394C77.1722 37.5453 79.0332 36.898 78.7905 36.0079C78.5477 35.1178 79.3569 31.3149 79.5996 30.6675C79.8424 30.0202 79.1951 27.6737 78.7905 27.1882C78.4668 26.7998 76.8216 26.2172 76.0394 25.9745V22.8188H73.9356L73.2074 24.5989L68.9189 25.0035C68.6492 25.3002 68.0127 26.1525 67.6243 27.1882C67.4584 27.6304 67.2454 28.101 67.04 28.5547C66.644 29.4293 66.2764 30.2413 66.3296 30.6675C66.3497 30.8282 66.3698 31.0585 66.3936 31.3314C66.4657 32.1584 66.5718 33.3761 66.8151 34.2278C66.9901 34.8402 67.7328 35.3817 68.3781 35.8523C68.9264 36.2521 69.4044 36.6006 69.4044 36.898C69.4044 37.4158 67.6782 43.9105 66.8151 47.0932H63.5785L61.7175 48.6306V46.0413C60.5038 45.7176 58.044 44.957 57.9145 44.5039C57.8551 44.2959 57.8284 43.9022 57.7984 43.4593C57.7466 42.6965 57.685 41.7875 57.429 41.4292C57.1054 40.976 55.2983 39.8918 54.4353 39.4063Z" fill="#260C87"/>
</g>
</g>
</svg>
