<svg width="98" height="101" viewBox="0 0 98 101" fill="none" xmlns="http://www.w3.org/2000/svg">
<g id="unicorn">
<g id="unicorn_2">
<path fill-rule="evenodd" clip-rule="evenodd" d="M26.2759 35.846L23.2064 38.1235C22.2823 37.8594 20.2954 37.3511 19.7409 37.4303C19.3953 37.4797 19.1974 37.923 18.8894 38.6128C18.5797 39.3065 18.1588 40.2494 17.3645 41.2919C16.0971 42.9554 15.2521 42.9092 14.988 42.6782L13.9979 40.4998L11.5224 39.4106C10.8293 38.6845 9.36388 36.955 9.04703 35.846C8.65096 34.4598 10.7303 33.1726 11.5224 32.8755C12.3145 32.5785 13.8 31.4892 14.988 30.202C15.7917 29.3314 16.9124 28.4154 17.6762 27.7912C18.0416 27.4926 18.3253 27.2607 18.4535 27.1326C18.7704 26.8157 18.5855 25.3503 18.4535 24.6572L6.76953 10.9928L21.226 22.5778C21.8531 21.8517 23.2657 20.6965 23.8994 21.8847C24.0573 22.1806 24.1954 22.4687 24.3257 22.7402C24.8493 23.8318 25.2452 24.6572 26.2759 24.6572C27.3056 24.6572 29.0813 24.3271 29.8404 24.1621C30.0715 24.4921 30.7316 25.3503 31.5237 26.1424C32.3159 26.9345 33.306 27.7927 33.7021 28.1227C34.2962 28.9149 35.524 30.7368 35.6824 31.6873C35.7362 32.0098 35.9431 32.5073 36.2021 33.1303C36.8978 34.803 37.9697 37.3806 37.4647 39.9057C36.9102 42.6782 36.0455 45.8797 35.6824 47.134C37.1017 48.1571 40.3758 50.1639 42.1185 50.0054C42.9316 49.9315 44.0481 49.7611 45.19 49.5867C47.1077 49.2939 49.0971 48.9902 49.8418 49.1143C51.03 49.3123 55.9809 49.9064 57.1691 49.1143C58.0089 48.5544 60.1842 48.786 61.912 48.9699C62.6289 49.0462 63.2687 49.1143 63.7042 49.1143C65.0165 49.1143 68.8027 51.5108 70.0079 52.2736C70.1667 52.3741 70.2807 52.4463 70.3383 52.4809C70.4735 52.562 70.9559 52.6579 71.5939 52.7847C73.2915 53.1222 76.0904 53.6787 76.3783 54.7582C76.5427 55.3747 76.98 56.3494 77.4637 57.4274C78.1454 58.9467 78.9191 60.6712 79.1508 61.8875C79.5468 63.9668 81.6262 66.8383 82.6164 66.5412C82.7858 66.4904 82.9408 66.4512 83.0852 66.4146C83.7847 66.2375 84.2372 66.1229 84.8937 65.056C85.6859 63.7688 86.28 61.9865 86.28 61.2934V58.3228L87.2701 61.2934C87.4022 61.7884 87.785 63.2341 88.2603 65.056C88.8016 68.0719 87.2896 67.8869 86.6013 67.8027C86.4082 67.7791 86.28 67.7634 86.28 67.8285C86.28 68.0661 83.8376 68.9176 82.6164 69.3137C83.5075 69.7098 85.4878 70.3831 86.28 69.9078C87.0721 69.4325 89.9106 67.4654 91.2308 66.5412C90.6367 67.8285 89.3297 70.5019 88.8544 70.898C88.3791 71.294 86.61 71.7231 85.7849 71.8881L88.8544 72.7793C88.1613 73.4724 86.676 74.9379 86.28 75.2547C85.9434 75.524 84.6459 75.4271 83.4451 75.3375C82.8795 75.2953 82.3354 75.2547 81.9232 75.2547C80.636 75.2547 79.7449 74.6606 78.0616 72.7793C77.5406 72.197 77.143 71.8519 76.8392 71.5883C76.1616 71.0002 75.9516 70.8179 75.8832 69.3137C75.8297 68.1366 75.6605 66.9883 75.5163 66.0096C75.3937 65.1773 75.2891 64.4673 75.2891 63.9668C75.2891 63.866 75.2917 63.7286 75.2947 63.5642C75.3246 61.952 75.4028 57.7324 73.6058 59.7091C71.6255 61.8875 71.0314 65.155 71.0314 65.8481C71.0314 66.0528 70.9105 66.5857 70.7579 67.258C70.394 68.8622 69.8499 71.2602 70.3383 71.8881C71.0314 72.7793 71.8235 73.8685 71.9226 76.74C71.9836 78.5112 71.6303 80.1694 71.3505 81.4823C71.1768 82.2977 71.0314 82.9799 71.0314 83.4731C71.0314 84.5029 70.5693 86.7407 70.3383 87.7308C69.5462 87.8298 67.9223 88.1467 67.7639 88.622C67.6054 89.0973 67.0377 90.3383 66.7737 90.8994H60.6346C60.6676 89.0841 61.0901 85.3544 62.516 84.9584C63.9418 84.5623 65.9485 83.4071 66.7737 82.879V78.9183C66.7737 78.7623 66.9035 78.6062 67.0393 78.443C67.4205 77.9848 67.8487 77.47 65.5855 76.74C63.1299 75.9478 60.6016 73.7695 59.6445 72.7793L58.1592 69.3137C58.3573 71.129 59.1296 74.9577 60.6346 75.7498C62.1397 76.5419 62.516 77.3341 62.516 77.6311L61.3278 80.7006L59.6445 86.7407L57.1691 87.7308V89.5131L49.8418 88.622C49.7098 87.8959 49.7428 86.1466 50.931 84.9584C52.4163 83.4731 54.5946 82.879 55.1887 82.879C55.7828 82.879 58.1592 81.7898 58.1592 80.7006V76.74C58.1592 76.4759 57.8622 75.8092 56.674 75.2547C55.1887 74.5616 54.1986 72.8783 54.0005 71.8881C53.8421 71.096 53.6045 70.2379 53.5054 69.9078L58.1592 67.8285H51.9212C51.3931 68.3235 49.9012 69.3137 48.1585 69.3137C47.2638 69.3137 46.1853 69.5142 45.1358 69.7092C43.6301 69.9891 42.1839 70.2579 41.4254 69.9078C40.3956 69.4325 37.4977 67.4654 36.1775 66.5412V69.9078H29.2463C28.5493 69.9078 27.6314 69.704 26.746 69.5075C25.4933 69.2294 24.3054 68.9656 23.8994 69.3137C23.734 69.4555 23.5686 69.5635 23.422 69.6591C22.9546 69.9642 22.6789 70.1442 23.2064 70.898C23.476 71.2831 24.0003 71.6983 24.5404 72.1259C25.3887 72.7976 26.2759 73.5 26.2759 74.1655V82.1859C24.8237 82.1529 21.6419 81.4532 20.5329 78.9183L18.4535 74.1655V70.898C18.4535 70.5715 18.3782 70.1912 18.302 69.8068C18.1471 69.0253 17.9889 68.2267 18.4535 67.8285C19.008 67.3532 20.0708 66.3102 20.5329 65.8481L27.5631 65.056C25.9128 64.2309 22.1964 62.6202 20.5329 62.7786C19.6343 62.8642 18.7913 62.6539 18.1075 62.4834C17.209 62.2593 16.5856 62.1039 16.4732 62.7786C16.3148 63.7292 15.4171 65.6831 14.988 66.5412L16.4732 70.4029C16.5393 71.4921 16.3348 73.7695 14.988 74.1655C13.6413 74.5616 10.4662 74.7266 9.04703 74.7596V67.8285L11.5224 65.056C11.8855 63.0096 13.0869 58.7981 14.988 58.3228C16.8892 57.8476 19.4767 57.7287 20.5329 57.7287L24.4935 58.3228L21.226 56.3425C20.9949 54.5272 20.5329 50.7184 20.5329 50.0054C20.5329 49.6089 20.6701 48.6633 20.8225 47.6138C21.0125 46.3047 21.226 44.8338 21.226 44.0644C21.226 43.5349 21.0382 43.121 20.8778 42.7675C20.6182 42.1954 20.4304 41.7815 21.226 41.2919C21.7049 40.9972 22.1564 40.8396 22.5805 40.6915C23.2963 40.4415 23.934 40.2189 24.4935 39.4106C25.2065 38.3809 25.9788 36.6052 26.2759 35.846ZM19.6022 28.666V30.8782L21.4525 29.6715L19.6022 28.666Z" fill="#D46814"/>
<path d="M48.989 43.2575C48.0711 43.7397 47.0155 44.2167 46.2375 44.3031C45.8427 44.347 45.3578 44.4113 44.7979 44.4856L44.7965 44.4858C43.1983 44.6979 40.9887 44.9911 38.5137 45.1214L38.4396 43.7125C40.852 43.5856 42.9618 43.3056 44.555 43.0942C45.1361 43.017 45.6485 42.9491 46.0817 42.9009C46.5609 42.8477 47.397 42.5002 48.3328 42.0085C49.2342 41.535 50.1209 40.9865 50.6575 40.6288L51.44 41.8027C50.8707 42.1822 49.9415 42.7571 48.989 43.2575Z" fill="#D46814"/>
<path d="M49.0537 38.9508C49.3778 38.7346 49.4654 38.2967 49.2493 37.9725C49.0332 37.6484 48.5952 37.5608 48.2711 37.7769C48.145 37.8609 47.9731 37.9536 47.7953 38.0232C47.6093 38.096 47.4665 38.124 47.3851 38.124C47.0717 38.124 46.7751 38.1765 46.5428 38.2177L46.5391 38.2183C46.2869 38.263 46.1038 38.2951 45.925 38.2988C45.8889 38.2995 45.8436 38.2981 45.7753 38.295L45.7458 38.2936C45.6884 38.2909 45.6163 38.2875 45.5454 38.2864C45.3862 38.2839 45.1363 38.289 44.8876 38.3833C44.7121 38.4499 44.5541 38.5346 44.4312 38.6022L44.3571 38.6431C44.2606 38.6965 44.1881 38.7367 44.1119 38.7723C44.0578 38.7975 43.9896 38.8124 43.8095 38.8386L43.7833 38.8424C43.6306 38.8643 43.3739 38.9012 43.1236 39.019C43.0047 39.0749 42.9528 39.0949 42.8784 39.1119C42.0139 39.31 41.1321 39.4055 40.2078 39.5056L40.2065 39.5058L40.2043 39.506C39.9729 39.5311 39.7389 39.5564 39.5017 39.5838C39.1147 39.6284 38.8371 39.9783 38.8817 40.3653C38.9263 40.7524 39.2763 41.0299 39.6633 40.9853C39.8784 40.9605 40.0978 40.9368 40.3203 40.9128L40.3219 40.9127C41.2538 40.8121 42.2399 40.7057 43.1935 40.4871C43.4138 40.4366 43.5723 40.3671 43.7244 40.2955C43.7674 40.2752 43.8261 40.2619 44.0128 40.2347L44.0325 40.2319C44.19 40.2091 44.4496 40.1716 44.7085 40.0507C44.8334 39.9924 44.958 39.9233 45.0562 39.8688L45.1113 39.8383C45.2284 39.7739 45.3122 39.7312 45.388 39.7024L45.3854 39.7034C45.3855 39.7039 45.42 39.6954 45.5235 39.697C45.5701 39.6978 45.6163 39.6999 45.6739 39.7026L45.7106 39.7043C45.7789 39.7075 45.8663 39.7112 45.9544 39.7093C46.2465 39.7032 46.527 39.6534 46.7485 39.614L46.8091 39.6033C46.6437 39.6925 46.5082 39.7903 46.4007 39.8679C46.3674 39.8919 46.3368 39.9141 46.3088 39.9334C46.273 39.958 46.1712 39.9983 45.9247 40.0278C45.8339 40.0387 45.7438 40.0464 45.642 40.055L45.5562 40.0623C45.4275 40.0735 45.2762 40.0879 45.1304 40.1138C44.303 40.2613 43.5725 40.4701 42.7872 40.7929C42.4481 40.9322 42.1301 41.1008 41.8455 41.2521L41.8297 41.2605C41.5419 41.4136 41.2876 41.5488 41.0271 41.6594C40.5037 41.8816 39.941 41.9677 39.291 42.0672C39.1228 42.0929 38.9487 42.1195 38.768 42.1497C38.3838 42.2137 38.1241 42.5772 38.1882 42.9614C38.2522 43.3457 38.6157 43.6053 39 43.5413C39.134 43.519 39.2764 43.4975 39.4249 43.4751C40.0891 43.3751 40.8746 43.2568 41.5784 42.958C41.8969 42.8228 42.1995 42.6618 42.4715 42.5171L42.5079 42.4978C42.7991 42.343 43.0583 42.2068 43.3235 42.0978C44.0125 41.8146 44.6458 41.6333 45.3779 41.5028C45.4555 41.489 45.5509 41.4789 45.6784 41.4679L45.7491 41.4618C45.8534 41.453 45.9749 41.4428 46.0928 41.4286C46.3685 41.3955 46.7709 41.3285 47.1098 41.0948C47.1671 41.0552 47.2163 41.0208 47.2593 40.9908C47.471 40.8428 47.5301 40.8014 47.6585 40.7771C47.9694 40.7183 48.1981 40.6439 48.4746 40.5254C48.8327 40.372 48.9986 39.9573 48.8451 39.5992C48.7774 39.4414 48.6591 39.3209 48.5171 39.2486C48.7147 39.1578 48.8991 39.0538 49.0537 38.9508Z" fill="#D46814"/>
<path d="M47.0958 36.0517C47.3119 36.3759 47.2243 36.8139 46.9001 37.03C46.7426 37.135 46.5838 37.1836 46.4324 37.2002C46.3671 37.2073 46.3096 37.2078 46.2723 37.2076L46.2217 37.207L46.1855 37.2067C46.0921 37.2067 46.0128 37.2269 45.8531 37.2677C45.7992 37.2814 45.7361 37.2975 45.6602 37.316L45.6492 37.3187C45.3394 37.3941 45.0031 37.4759 44.6715 37.5422C43.2259 37.8313 41.8134 38.1038 40.2642 38.1949C39.8753 38.2178 39.5415 37.921 39.5186 37.5321C39.4957 37.1432 39.7924 36.8094 40.1814 36.7865C41.6216 36.7018 42.9467 36.4484 44.3948 36.1587C44.6969 36.0983 45.0084 36.0226 45.3268 35.9451C45.3515 35.9391 45.3813 35.9313 45.4153 35.9223C45.5954 35.8747 45.8937 35.7958 46.1855 35.7958C46.2006 35.7958 46.2149 35.796 46.2273 35.7961C46.5346 35.6619 46.9033 35.7629 47.0958 36.0517Z" fill="#D46814"/>
<path d="M39.7571 34.3989C39.3675 34.3989 39.0516 34.7147 39.0516 35.1043C39.0516 35.4939 39.3675 35.8097 39.7571 35.8097H44.2388C44.6284 35.8097 44.9442 35.4939 44.9442 35.1043C44.9442 34.7147 44.6284 34.3989 44.2388 34.3989H39.7571Z" fill="#D46814"/>
<path d="M44.0861 31.2113C44.4681 31.2877 44.7159 31.6593 44.6395 32.0413C44.5669 32.4041 44.3557 32.6878 44.1458 32.8916C43.9317 33.0996 43.6746 33.2679 43.4231 33.3989C42.9375 33.6519 42.3432 33.8307 41.8847 33.8307C41.3255 33.8307 40.7811 33.7438 40.2849 33.6535C40.1782 33.6341 40.0745 33.6147 39.973 33.5958C39.5844 33.5231 39.2288 33.4567 38.8696 33.4195C38.4821 33.3794 38.2004 33.0328 38.2405 32.6453C38.2806 32.2577 38.6272 31.9761 39.0148 32.0162C39.4372 32.0599 39.8651 32.14 40.2594 32.2139C40.3541 32.2316 40.447 32.249 40.5373 32.2654C41.0223 32.3536 41.4608 32.4199 41.8847 32.4199C42.0472 32.4199 42.4153 32.3331 42.7714 32.1476C42.9408 32.0594 43.0744 31.9654 43.163 31.8794C43.2355 31.809 43.2536 31.7681 43.2564 31.7617C43.3345 31.3818 43.7053 31.1351 44.0861 31.2113Z" fill="#D46814"/>
<path d="M38.0708 30.1524C37.6826 30.1194 37.3411 30.4073 37.3081 30.7955C37.2751 31.1837 37.563 31.5251 37.9511 31.5582C38.1338 31.5737 38.3392 31.5822 38.5242 31.5899C38.619 31.5938 38.7091 31.5976 38.7874 31.6019C39.0467 31.6162 39.266 31.6391 39.4631 31.6884C39.7707 31.7653 40.0225 31.7935 40.3391 31.7935C40.7287 31.7935 41.0446 31.4777 41.0446 31.0881C41.0446 30.6985 40.7287 30.3827 40.3391 30.3827C40.1287 30.3827 39.9924 30.3665 39.8053 30.3197C39.4775 30.2377 39.1527 30.2091 38.8652 30.1932C38.7419 30.1864 38.6332 30.182 38.531 30.1779C38.3716 30.1716 38.2282 30.1658 38.0708 30.1524Z" fill="#D46814"/>
<path d="M36.8685 28.2117C36.9784 27.838 37.3705 27.6241 37.7443 27.734C37.8088 27.753 37.8805 27.7727 37.9573 27.7938C38.2694 27.8795 38.6674 27.9889 39.0233 28.1703C39.0462 28.182 39.0763 28.1957 39.1294 28.2194L39.1348 28.2218C39.181 28.2424 39.2438 28.2704 39.3065 28.3017C39.4163 28.3566 39.638 28.4732 39.7975 28.686C40.0313 28.9976 39.9681 29.4398 39.6564 29.6736C39.3617 29.8946 38.9503 29.8501 38.7088 29.5811C38.7005 29.5764 38.6897 29.5707 38.676 29.5638C38.6431 29.5474 38.6064 29.5309 38.5545 29.5078L38.5488 29.5052C38.5038 29.4851 38.4415 29.4574 38.3825 29.4273C38.1666 29.3172 37.9517 29.2575 37.6642 29.1777C37.5673 29.1508 37.4623 29.1217 37.3462 29.0875C36.9724 28.9776 36.7586 28.5855 36.8685 28.2117Z" fill="#D46814"/>
<path d="M36.2172 25.8162C36.0058 25.4889 35.5691 25.3951 35.2419 25.6065C34.9146 25.8179 34.8208 26.2546 35.0322 26.5818C35.2589 26.9327 35.5189 27.202 35.8881 27.3599C36.1992 27.4929 36.5391 27.5188 36.8166 27.54L36.8511 27.5426C37.2395 27.5725 37.5787 27.2818 37.6085 26.8934C37.6384 26.5049 37.3478 26.1658 36.9593 26.1359C36.6151 26.1094 36.5113 26.0919 36.4427 26.0626C36.4185 26.0523 36.3512 26.0236 36.2172 25.8162Z" fill="#D46814"/>
<path d="M38.783 45.9234C38.3935 45.9149 38.0709 46.2238 38.0624 46.6133C38.0539 47.0028 38.3628 47.3254 38.7523 47.3339C39.1777 47.3431 39.6011 47.3657 40.0375 47.389L40.2361 47.3995C40.7381 47.4259 41.2561 47.4505 41.7814 47.4505H43.2494C43.639 47.4505 43.9548 47.1346 43.9548 46.745C43.9548 46.3555 43.639 46.0396 43.2494 46.0396H41.7814C41.2964 46.0396 40.8108 46.0169 40.3102 45.9906L40.1146 45.9802C39.6799 45.957 39.2323 45.9332 38.783 45.9234Z" fill="#D46814"/>
</g>
</g>
</svg>
