<svg width="98" height="101" viewBox="0 0 98 101" fill="none" xmlns="http://www.w3.org/2000/svg">
<g id="warbear">
<g id="warbear_2">
<path fill-rule="evenodd" clip-rule="evenodd" d="M51.0151 18.8717C56.6314 18.9748 62.5009 23.2084 64.7337 25.3124C66.6659 26.6005 70.7106 29.2927 71.432 29.7564C71.9525 30.091 72.9238 31.3272 73.7759 32.4116L73.7766 32.4125C74.4002 33.2061 74.9598 33.9183 75.232 34.136C75.4019 34.272 75.8545 34.5739 76.4333 34.9601C78.048 36.0374 80.6457 37.7706 80.8353 38.3869C81.093 39.2241 82.5743 41.8648 83.154 42.058C83.7336 42.2513 86.1811 45.9868 86.1811 46.4377C86.1811 46.6721 86.6512 47.1503 87.1207 47.6279C87.5542 48.0687 87.987 48.509 88.0489 48.7563C88.0857 48.9036 88.27 48.9983 88.5158 49.1246C89.1299 49.4401 90.1283 49.953 90.1743 51.9766C90.1893 52.6372 90.1763 53.3818 90.163 54.1402V54.1414C90.1195 56.6361 90.0733 59.2803 91.0116 59.5766C92.2353 59.963 91.5268 65.824 90.5607 66.3393C89.7878 66.7515 87.3189 67.7562 86.1811 68.207L85.6014 65.3732C84.9359 65.0511 83.5146 64.6003 83.154 65.3732C82.7933 66.146 83.6478 67.5844 84.1201 68.207C83.7122 69.1731 82.4841 71.0409 80.8353 70.7833C78.7743 70.4613 74.0727 65.502 73.9438 64.7935C73.815 64.085 69.5642 61.702 68.9201 61.5732C68.4956 61.4883 66.6716 61.9071 65.3854 62.2025C64.7206 62.3552 64.1994 62.4749 64.0897 62.4749C63.9422 62.4749 63.4298 62.1641 62.8745 61.8272C62.2174 61.4286 61.5001 60.9935 61.2558 60.9935C60.8049 60.9935 55.588 64.2138 55.588 64.7935C55.588 65.3732 55.1372 69.5596 54.5575 70.7833C54.1388 71.6673 54.325 72.9545 54.4607 73.8924C54.5128 74.2529 54.5575 74.5619 54.5575 74.7765V78.0612C54.7293 78.1471 55.4077 78.525 56.7473 79.3494C58.087 80.1738 59.066 82.1403 59.388 83.0205H45.1542C44.6174 82.3979 43.4151 80.8822 42.8999 79.8002C42.256 78.448 42.256 74.4564 42.256 73.8752C42.256 73.2956 41.1609 69.4952 40.9677 68.8511C40.9239 68.7052 40.8537 68.4933 40.7706 68.2422C40.4866 67.3847 40.0514 66.0706 40.0016 65.3732C39.95 64.6518 40.6242 62.1528 40.9677 60.9935C40.0016 63.0975 37.8375 67.1121 36.91 66.3393C36.199 65.7467 34.3492 65.8083 32.9359 65.8554C32.0449 65.8851 31.3273 65.909 31.1779 65.7596C30.8687 65.4505 29.7609 63.441 29.2456 62.4749L23.9644 68.8511V77.1595C23.9644 77.6482 25.0616 78.1936 26.0667 78.6933C26.9162 79.1156 27.6999 79.5052 27.6999 79.8002V83.0205H17.0084C15.6774 82.9561 12.9508 82.3507 12.6931 80.4443C12.4472 78.6239 12.577 76.0519 12.652 74.5656C12.6752 74.1062 12.6931 73.7505 12.6931 73.5528C12.6931 73.3314 12.5581 73.1371 12.3666 72.8614C11.8336 72.0944 10.8633 70.698 11.1476 66.3393C11.534 60.4139 10.8257 58.9325 10.3105 58.0308L10.2892 57.9936C9.74414 57.0402 7.86122 53.7466 7.73412 51.2682C7.69317 50.4696 7.33981 49.7622 6.99888 49.0797C6.2674 47.6154 5.59319 46.2657 8.18515 44.3767C11.5804 41.9022 11.2734 40.6617 11.1695 40.2418C11.1571 40.1917 11.1476 40.1533 11.1476 40.1258C11.1476 39.8682 14.6259 36.3903 16.0429 35.875C17.4598 35.3598 20.2293 33.814 21.6462 32.9123C21.9785 32.7009 22.5481 32.3548 23.2312 31.9397C25.4609 30.585 28.9 28.4953 29.2456 27.953C29.6137 27.3753 32.0373 25.8553 33.513 24.9298C33.8466 24.7206 34.1324 24.5413 34.3343 24.4107C35.2102 23.8439 39.5942 21.2548 41.6766 20.031L45.1542 18.8717H51.0151ZM82.8968 53.136H85.4729L84.9578 55.841H82.8968V53.136ZM24.9052 47.9871C24.7472 47.8686 23.0617 45.9296 22.2387 44.9749C23.5884 45.5345 26.6137 46.8118 27.9174 47.4439C29.221 48.0759 27.7692 50.7688 26.8804 52.0362C26.831 51.4437 26.7125 50.1697 26.6335 49.8141C26.5347 49.3697 25.1027 48.1352 24.9052 47.9871ZM39.0149 56.1332C39.0651 55.6024 39.1347 54.8666 39.382 54.4214C39.7607 53.7399 41.01 52.4527 41.7672 52.112C42.5244 51.7713 45.1367 50.5219 45.2882 50.3326C45.4396 50.1433 41.9944 50.1433 40.9343 50.7491C40.5753 50.9542 40.0426 51.2288 39.4921 51.5126C38.4171 52.0668 37.2742 52.656 37.2241 52.8313C37.1635 53.0433 37.1988 56.5289 37.2241 58.2452L38.9277 56.7308C38.9671 56.6389 38.9883 56.415 39.0149 56.1332Z" fill="#AD8605"/>
<path d="M26.2564 76.0092C26.2495 76.2778 26.2449 76.4526 26.2449 76.4936C26.2449 76.7586 27.7215 77.8187 27.9108 77.8944C28.0623 77.9549 29.0088 79.3583 29.4631 80.0524L38.9276 80.2417C38.6501 78.8409 37.8149 76.0847 36.6943 76.2664C35.2934 76.4936 34.6877 74.222 34.6877 73.7677C34.6877 73.4042 34.2081 69.275 33.9684 67.2558H30.9775C30.5231 67.2558 29.4505 66.3472 28.9709 65.8929L26.2449 69.7546C26.405 70.2666 26.2944 74.5399 26.2564 76.0092Z" fill="#AD8605"/>
<path d="M61 63.8106L57.7061 66.5744C57.8576 68.4169 58.1606 72.2457 58.1606 72.8212C58.1606 73.2966 58.4252 74.2681 58.6046 74.9269C58.6967 75.2649 58.7664 75.5208 58.7664 75.585C58.7664 75.7364 58.0595 76.91 57.7061 77.4779L60.0536 79.8252C61.3534 79.8505 64.1727 79.8858 65.0511 79.8252C66.149 79.7495 68.2691 77.9323 68.042 77.4779C67.9181 77.2301 67.7942 76.4416 67.6703 75.6532C67.567 74.9961 67.4638 74.339 67.3605 73.9949C67.2075 73.4849 67.982 72.4081 68.5734 71.5858C68.86 71.1873 69.1036 70.8486 69.1778 70.6632C69.4049 70.0953 69.4049 67.218 69.1778 66.8773C69.1171 66.7862 68.9969 66.5248 68.8432 66.1907C68.4219 65.2743 67.7489 63.8106 67.3605 63.8106C67.1267 63.8106 66.5615 64.0169 65.9475 64.2409C65.1694 64.5248 64.3129 64.8373 63.9531 64.795C63.4382 64.7344 61.7698 64.1135 61 63.8106Z" fill="#AD8605"/>
</g>
</g>
</svg>
