<svg width="98" height="101" viewBox="0 0 98 101" fill="none" xmlns="http://www.w3.org/2000/svg">
<g id="warlock">
<g id="warlock_2">
<path d="M29.7245 25.6549L28.2618 25.5741C28.2729 25.3738 28.2785 25.1719 28.2785 24.9686C28.2785 24.7652 28.2729 24.5633 28.2618 24.3631L29.7245 24.2822C29.7371 24.5094 29.7435 24.7382 29.7435 24.9686C29.7435 25.1989 29.7371 25.4277 29.7245 25.6549Z" fill="#D46814"/>
<path d="M29.5724 22.9181L28.1279 23.1619C28.0603 22.7615 27.9707 22.3688 27.8603 21.9851L29.2682 21.5801C29.3937 22.0166 29.4956 22.4631 29.5724 22.9181Z" fill="#D46814"/>
<path d="M28.8151 20.2852L27.4619 20.8463C27.307 20.473 27.1317 20.1101 26.9373 19.7591L28.2189 19.0493C28.4398 19.4482 28.639 19.8606 28.8151 20.2852Z" fill="#D46814"/>
<path d="M27.4877 17.8881L26.2937 18.7368C26.0599 18.4079 25.808 18.0926 25.5396 17.7924L26.6316 16.8158C26.9363 17.1566 27.2222 17.5146 27.4877 17.8881Z" fill="#D46814"/>
<path d="M25.6613 15.8456L24.6848 16.9376C24.3845 16.6691 24.0692 16.4172 23.7403 16.1834L24.589 14.9894C24.9625 15.2549 25.3205 15.5408 25.6613 15.8456Z" fill="#D46814"/>
<path d="M23.4278 14.2583L22.718 15.5398C22.3671 15.3454 22.0042 15.1701 21.6308 15.0153L22.1919 13.6621C22.6165 13.8381 23.029 14.0374 23.4278 14.2583Z" fill="#D46814"/>
<path d="M20.897 13.2089L20.4921 14.6168C20.1083 14.5064 19.7156 14.4168 19.3153 14.3492L19.559 12.9047C20.014 12.9815 20.4605 13.0834 20.897 13.2089Z" fill="#D46814"/>
<path d="M18.195 12.7526L18.1141 14.2153C17.9138 14.2042 17.7119 14.1986 17.5086 14.1986C17.3052 14.1986 17.1033 14.2042 16.9031 14.2153L16.8222 12.7526C17.0494 12.74 17.2782 12.7337 17.5086 12.7337C17.7389 12.7337 17.9678 12.74 18.195 12.7526Z" fill="#D46814"/>
<path d="M15.4581 12.9047L15.7019 14.3492C15.3015 14.4168 14.9089 14.5064 14.5251 14.6168L14.1201 13.2089C14.5566 13.0834 15.0031 12.9815 15.4581 12.9047Z" fill="#D46814"/>
<path d="M12.8252 13.6621L13.3864 15.0153C13.013 15.1701 12.6501 15.3454 12.2991 15.5398L11.5893 14.2583C11.9882 14.0374 12.4007 13.8381 12.8252 13.6621Z" fill="#D46814"/>
<path d="M10.4281 14.9894L11.2768 16.1834C10.9479 16.4172 10.6326 16.6691 10.3324 16.9376L9.35587 15.8456C9.69665 15.5408 10.0546 15.2549 10.4281 14.9894Z" fill="#D46814"/>
<path d="M8.38559 16.8158L9.47758 17.7924C9.2091 18.0926 8.95725 18.4079 8.72345 18.7368L7.52941 17.8881C7.79491 17.5146 8.08084 17.1566 8.38559 16.8158Z" fill="#D46814"/>
<path d="M6.79829 19.0493L8.0798 19.7591C7.8854 20.1101 7.71011 20.473 7.55528 20.8463L6.20207 20.2852C6.37812 19.8606 6.57739 19.4482 6.79829 19.0493Z" fill="#D46814"/>
<path d="M5.74896 21.5801L7.15682 21.9851C7.04644 22.3688 6.95682 22.7615 6.88926 23.1619L5.44474 22.9181C5.52152 22.4631 5.62342 22.0166 5.74896 21.5801Z" fill="#D46814"/>
<path d="M5.29261 24.2822C5.28005 24.5094 5.27368 24.7382 5.27368 24.9686C5.27368 25.1989 5.28005 25.4277 5.29261 25.6549L6.75532 25.5741C6.74424 25.3738 6.73862 25.1719 6.73862 24.9686C6.73862 24.7652 6.74424 24.5633 6.75532 24.3631L5.29261 24.2822Z" fill="#D46814"/>
<path d="M5.44474 27.019L6.88927 26.7752C6.95682 27.1756 7.04644 27.5683 7.15682 27.9521L5.74896 28.357C5.62342 27.9205 5.52152 27.474 5.44474 27.019Z" fill="#D46814"/>
<path d="M6.20207 29.6519L7.55528 29.0908C7.71011 29.4642 7.8854 29.827 8.0798 30.178L6.79829 30.8878C6.57739 30.489 6.37812 30.0765 6.20207 29.6519Z" fill="#D46814"/>
<path d="M7.52941 32.049L8.72345 31.2003C8.95725 31.5292 9.2091 31.8445 9.47758 32.1447L8.38559 33.1213C8.08084 32.7805 7.79491 32.4225 7.52941 32.049Z" fill="#D46814"/>
<path d="M9.35587 34.0915L10.3324 32.9995C10.6326 33.268 10.9479 33.5199 11.2768 33.7537L10.4281 34.9477C10.0546 34.6822 9.69665 34.3963 9.35587 34.0915Z" fill="#D46814"/>
<path d="M11.5893 35.6788L12.2991 34.3973C12.6501 34.5917 13.013 34.767 13.3864 34.9219L12.8252 36.2751C12.4007 36.099 11.9882 35.8997 11.5893 35.6788Z" fill="#D46814"/>
<path d="M14.1201 36.7282L14.5251 35.3203C14.9089 35.4307 15.3015 35.5203 15.7019 35.5879L15.4581 37.0324C15.0031 36.9556 14.5566 36.8537 14.1201 36.7282Z" fill="#D46814"/>
<path d="M16.8222 37.1845L16.9031 35.7218C17.1033 35.7329 17.3052 35.7385 17.5086 35.7385C17.7119 35.7385 17.9138 35.7329 18.1141 35.7218L18.195 37.1845C17.9678 37.1971 17.7389 37.2035 17.5086 37.2035C17.2782 37.2035 17.0494 37.1971 16.8222 37.1845Z" fill="#D46814"/>
<path d="M24.589 34.9477L23.7403 33.7537C24.0692 33.5199 24.3845 33.268 24.6848 32.9995L25.6613 34.0915C25.3205 34.3963 24.9625 34.6822 24.589 34.9477Z" fill="#D46814"/>
<path d="M26.6316 33.1213L25.5396 32.1447C25.808 31.8445 26.0599 31.5292 26.2937 31.2003L27.4877 32.049C27.2222 32.4225 26.9363 32.7805 26.6316 33.1213Z" fill="#D46814"/>
<path d="M28.2189 30.8878L26.9373 30.178C27.1317 29.827 27.307 29.4642 27.4619 29.0908L28.8151 29.6519C28.639 30.0765 28.4398 30.489 28.2189 30.8878Z" fill="#D46814"/>
<path d="M29.2682 28.357L27.8603 27.9521C27.9707 27.5683 28.0603 27.1756 28.1279 26.7752L29.5724 27.019C29.4956 27.474 29.3937 27.9205 29.2682 28.357Z" fill="#D46814"/>
<path d="M45.8358 30.9897V23.3459C45.8358 22.3805 43.869 18.7419 42.8856 17.0433L46.9086 18.1161L51.3339 23.3459L54.2841 26.028L48.786 26.6985L52.2726 28.5759V31.9284C52.7643 31.9284 54.1232 31.7406 55.6251 30.9897C56.3008 30.6519 56.8548 30.2099 57.3123 29.8449C58.1261 29.1958 58.6343 28.7904 58.9776 29.6487C59.4068 30.7215 61.0338 32.3307 61.7937 33.0012L68.4987 30.9897L71.5831 29.6487C72.5218 28.4418 74.5869 26.028 75.3379 26.028C76.19 26.028 78.8102 23.3759 79.8882 22.2848C79.9977 22.174 80.0913 22.0792 80.1655 22.005C80.9701 21.2004 81.7747 20.6639 82.4452 23.3459C82.9816 25.4916 82.6687 28.4418 82.4452 29.6487C81.5959 28.2183 79.7632 25.4916 79.2268 26.028C78.6904 26.5644 76.4107 27.9501 75.3379 28.5759L72.79 31.9284C72.1642 36.8007 70.6712 47.2695 69.7057 50.1661C68.9888 52.3166 67.8934 49.4996 66.7568 46.5765C65.9799 44.5783 65.1836 42.5304 64.4757 41.9859C63.0811 40.9131 60.2292 39.2145 58.9776 38.4993V50.1661L46.9086 51.6412H58.9776V54.3232C58.9776 54.5056 58.9644 54.6058 58.943 54.6473C59.1233 55.2229 59.3923 56.1378 59.7822 57.5416C61.7937 64.783 63.4029 68.4037 64.4757 70.147C65.1192 71.1927 65.4733 73.7823 65.7693 75.9479C65.9668 77.3926 66.1385 78.6488 66.3531 79.1317L66.3992 79.2349C67.0133 80.6111 69.2505 85.6248 67.2918 87.7141C65.2803 89.8597 58.9776 89.0551 57.7707 88.7869C56.5638 88.5187 48.9201 87.7141 46.9086 87.7141C45.2994 87.7141 42.8409 88.4293 41.8128 88.7869C40.0248 88.0717 36.2074 86.8559 35.2419 87.7141C34.2764 88.5723 31.353 88.7869 30.012 88.7869L31.8895 84.3616L27.0619 88.7869L22.3683 87.7141C21.7872 86.5966 20.9736 84.3616 22.3683 84.3616C23.8487 84.3616 27.843 81.7508 29.425 80.7169L29.4269 80.7156C29.7068 80.5327 29.9111 80.3991 30.012 80.3386C30.2317 80.2068 30.4658 80.2189 30.7473 80.2335C31.3249 80.2635 32.1023 80.3038 33.3645 79.1317C34.5041 78.0735 35.4955 76.4223 36.3386 75.0181C36.8845 74.1089 37.3682 73.3033 37.7898 72.829C38.429 72.11 38.8777 69.7728 39.2778 67.6888C39.5493 66.2746 39.7985 64.977 40.0695 64.3807C40.6059 63.2006 41.4552 57.184 41.8128 54.3232H47.9815C45.5676 53.5633 40.9546 51.8557 41.8128 51.1048C42.671 50.3538 42.1704 47.7523 41.8128 46.5454C41.5446 47.6182 40.6864 50.032 39.399 51.1048C37.7898 52.4458 37.7898 54.9937 37.7898 57.5416C37.7898 59.5799 30.6379 51.0601 27.0619 46.5454C26.2126 46.2772 24.2994 45.7408 23.4411 45.7408C22.5829 45.7408 21.3849 44.7573 20.8932 44.2656C20.625 43.9974 20.2496 43.3806 20.8932 43.0588C21.5368 42.7369 22.1448 39.2592 22.3683 37.5606C23.2175 37.8288 25.1305 38.6066 25.9889 39.5721C26.8473 40.5377 26.3466 41.5836 25.9889 41.9859C28.5369 42.4776 33.9546 43.166 35.2419 41.9859C35.6382 41.6226 36.0508 41.2268 36.4576 40.8365C37.7026 39.642 38.8937 38.4993 39.399 38.4993C40.0695 38.4993 41.8128 36.2196 41.8128 35.5491C41.8128 35.0127 41.3657 33.627 41.1422 33.0012H48.786L45.8358 30.9897Z" fill="#D46814"/>
<path d="M27.598 49.7637C27.598 50.8365 32.1574 66.7497 34.4372 74.5723L33.3644 76.1815L25.0501 47.2158C25.8994 47.6181 27.598 48.6909 27.598 49.7637Z" fill="#D46814"/>
<path d="M20.3467 37.2035C19.7444 34.7168 18.484 29.6599 18.2616 29.3263C18.0534 29.0139 17.2993 28.6496 16.7197 28.3695C16.5254 28.2757 16.3507 28.1913 16.2228 28.1215C15.7131 27.8435 14.6937 27.0557 14.6473 26.2217C14.6172 25.6789 14.6263 25.1165 14.6363 24.4962C14.6417 24.1633 14.6473 23.8137 14.6473 23.4415C14.6473 22.5889 14.9253 19.6574 15.0643 18.2982L16.2228 19.7809C16.4081 20.0126 16.7231 20.5872 16.5008 21.032C16.3091 21.4154 17.0645 22.019 17.6585 22.4936C17.9261 22.7074 18.1609 22.895 18.2616 23.0245C18.5859 23.4415 19.1882 26.0363 18.7249 26.2217C18.3543 26.37 19.0647 27.55 19.4663 28.1215L21.1344 36.2304L20.3467 37.2035Z" fill="#D46814"/>
<path d="M91.2448 25.5741L92.7075 25.6549C92.72 25.4277 92.7264 25.1989 92.7264 24.9686C92.7264 24.7382 92.72 24.5094 92.7075 24.2822L91.2448 24.3631C91.2558 24.5633 91.2615 24.7652 91.2615 24.9686C91.2615 25.1719 91.2558 25.3738 91.2448 25.5741Z" fill="#D46814"/>
<path d="M91.1108 23.1619L92.5553 22.9181C92.4786 22.4631 92.3767 22.0166 92.2511 21.5801L90.8433 21.9851C90.9536 22.3688 91.0433 22.7615 91.1108 23.1619Z" fill="#D46814"/>
<path d="M90.4448 20.8463L91.798 20.2852C91.622 19.8606 91.4227 19.4482 91.2018 19.0493L89.9203 19.7591C90.1147 20.1101 90.29 20.473 90.4448 20.8463Z" fill="#D46814"/>
<path d="M89.2766 18.7368L90.4707 17.8881C90.2052 17.5146 89.9192 17.1566 89.6145 16.8158L88.5225 17.7924C88.791 18.0926 89.0428 18.4079 89.2766 18.7368Z" fill="#D46814"/>
<path d="M87.6677 16.9376L88.6442 15.8456C88.3034 15.5408 87.9455 15.2549 87.572 14.9894L86.7232 16.1834C87.0522 16.4172 87.3675 16.6691 87.6677 16.9376Z" fill="#D46814"/>
<path d="M85.701 15.5398L86.4107 14.2583C86.0119 14.0374 85.5994 13.8381 85.1749 13.6621L84.6137 15.0153C84.9871 15.1701 85.35 15.3454 85.701 15.5398Z" fill="#D46814"/>
<path d="M83.475 14.6168L83.8799 13.2089C83.4435 13.0834 82.997 12.9815 82.5419 12.9047L82.2982 14.3492C82.6985 14.4168 83.0912 14.5064 83.475 14.6168Z" fill="#D46814"/>
<path d="M81.097 14.2153L81.1779 12.7526C80.9507 12.74 80.7218 12.7337 80.4915 12.7337C80.2612 12.7337 80.0323 12.74 79.8051 12.7526L79.886 14.2153C80.0863 14.2042 80.2882 14.1986 80.4915 14.1986C80.6948 14.1986 80.8967 14.2042 81.097 14.2153Z" fill="#D46814"/>
<path d="M78.6848 14.3492L78.4411 12.9047C77.986 12.9815 77.5396 13.0834 77.1031 13.2089L77.508 14.6168C77.8918 14.5064 78.2845 14.4168 78.6848 14.3492Z" fill="#D46814"/>
<path d="M76.3693 15.0153L75.8081 13.6621C75.3836 13.8381 74.9711 14.0374 74.5723 14.2583L75.282 15.5398C75.633 15.3454 75.9959 15.1701 76.3693 15.0153Z" fill="#D46814"/>
<path d="M74.2598 16.1834L73.411 14.9894C73.0375 15.2549 72.6796 15.5408 72.3388 15.8456L73.3153 16.9376C73.6155 16.6691 73.9308 16.4172 74.2598 16.1834Z" fill="#D46814"/>
<path d="M72.4605 17.7924L71.3685 16.8158C71.0638 17.1566 70.7778 17.5146 70.5123 17.8881L71.7064 18.7368C71.9402 18.4079 72.192 18.0926 72.4605 17.7924Z" fill="#D46814"/>
<path d="M71.0627 19.7591L69.7812 19.0493C69.5603 19.4482 69.361 19.8606 69.185 20.2852L70.5382 20.8463C70.693 20.473 70.8683 20.1101 71.0627 19.7591Z" fill="#D46814"/>
<path d="M70.1397 21.9851L68.7319 21.5801C68.6063 22.0166 68.5044 22.4631 68.4277 22.9181L69.8722 23.1619C69.9397 22.7615 70.0294 22.3688 70.1397 21.9851Z" fill="#D46814"/>
<path d="M68.2566 24.9686C68.2566 24.7382 68.263 24.5094 68.2755 24.2822L69.7382 24.3631C69.7272 24.5633 69.7215 24.7652 69.7215 24.9686C69.7215 25.1719 69.7272 25.3738 69.7382 25.5741L68.2755 25.6549C68.263 25.4277 68.2566 25.1989 68.2566 24.9686Z" fill="#D46814"/>
<path d="M69.8722 26.7752L68.4277 27.019C68.5044 27.474 68.6063 27.9205 68.7319 28.357L70.1397 27.9521C70.0294 27.5683 69.9397 27.1756 69.8722 26.7752Z" fill="#D46814"/>
<path d="M75.282 34.3973L74.5723 35.6788C74.9711 35.8997 75.3836 36.099 75.8081 36.2751L76.3693 34.9219C75.9959 34.767 75.633 34.5917 75.282 34.3973Z" fill="#D46814"/>
<path d="M77.508 35.3203L77.1031 36.7282C77.5396 36.8537 77.9861 36.9556 78.4411 37.0324L78.6848 35.5879C78.2845 35.5203 77.8918 35.4307 77.508 35.3203Z" fill="#D46814"/>
<path d="M79.886 35.7218L79.8051 37.1845C80.0323 37.1971 80.2612 37.2035 80.4915 37.2035C80.7218 37.2035 80.9507 37.1971 81.1779 37.1845L81.097 35.7218C80.8967 35.7329 80.6948 35.7385 80.4915 35.7385C80.2882 35.7385 80.0863 35.7329 79.886 35.7218Z" fill="#D46814"/>
<path d="M82.2982 35.5879L82.5419 37.0324C82.997 36.9556 83.4435 36.8537 83.8799 36.7282L83.475 35.3203C83.0912 35.4307 82.6985 35.5203 82.2982 35.5879Z" fill="#D46814"/>
<path d="M84.6137 34.9219L85.1749 36.2751C85.5994 36.099 86.0119 35.8997 86.4107 35.6788L85.701 34.3973C85.35 34.5917 84.9871 34.767 84.6137 34.9219Z" fill="#D46814"/>
<path d="M86.7232 33.7537L87.572 34.9477C87.9455 34.6822 88.3034 34.3963 88.6442 34.0915L87.6677 32.9995C87.3675 33.268 87.0522 33.5199 86.7232 33.7537Z" fill="#D46814"/>
<path d="M88.5225 32.1447L89.6145 33.1213C89.9192 32.7805 90.2052 32.4225 90.4707 32.049L89.2766 31.2003C89.0428 31.5292 88.791 31.8445 88.5225 32.1447Z" fill="#D46814"/>
<path d="M89.9203 30.178L91.2018 30.8878C91.4227 30.489 91.622 30.0765 91.798 29.6519L90.4448 29.0908C90.29 29.4642 90.1147 29.827 89.9203 30.178Z" fill="#D46814"/>
<path d="M90.8433 27.9521L92.2511 28.357C92.3767 27.9205 92.4786 27.474 92.5553 27.019L91.1108 26.7752C91.0433 27.1756 90.9536 27.5683 90.8433 27.9521Z" fill="#D46814"/>
</g>
</g>
</svg>
