<svg width="98" height="101" viewBox="0 0 98 101" fill="none" xmlns="http://www.w3.org/2000/svg">
<g id="wyvern">
<path id="wyvern_2" fill-rule="evenodd" clip-rule="evenodd" d="M15.6189 26.6236C20.6636 30.5122 21.1276 32.3541 21.3492 33.234C21.3666 33.3029 21.3825 33.3659 21.399 33.4236C22.3811 33.7397 24.9122 33.6671 27.1788 30.8477C28.8806 28.0283 32.9501 28.8557 34.7721 29.6218C34.1358 29.3824 32.4742 29.2923 30.9188 30.8477C29.3634 32.4031 29.2196 34.1177 29.3421 34.7806C30.9936 34.9327 34.5723 35.2369 35.6756 35.2369C36.2256 35.2369 36.6862 34.7743 37.2401 34.2182C38.075 33.3799 39.1216 32.3289 41.0054 32.3289C43.5122 32.3289 45.5793 35.1552 46.2996 36.5683C45.925 35.9724 44.6345 34.7806 42.4688 34.7806C39.7617 34.7806 39.302 35.9043 39.302 37.4366C39.302 38.6524 40.9981 38.5518 42.5728 38.4583C42.9827 38.434 43.3843 38.4102 43.7457 38.4102C45.1456 38.4102 46.8843 42.5283 47.5787 44.5873C47.2034 43.8127 46.0748 42.2635 44.563 42.2635C42.6731 42.2635 41.9959 42.2635 41.0054 43.8723C40.0148 45.4811 41.0054 45.6635 43.286 46.0686C45.1106 46.3927 45.6991 49.8624 45.7654 51.5567C45.1092 50.9999 43.4366 49.8862 41.9959 49.8862C40.1951 49.8862 38.8521 50.0834 38.8521 53.03C38.8521 55.9766 44.7454 54.9567 47.5787 53.03C49.8453 51.4887 50.8653 45.2101 51.092 42.2635V31.7235C50.6009 31.4969 49.2107 30.6809 47.5787 29.2303C46.8242 28.5596 46.7518 27.5479 46.6792 26.5334C46.5556 24.8049 46.4314 23.0684 42.932 22.9969C38.4894 22.9063 39.7965 27.9458 41.0054 30.4769C39.7965 29.608 37.3788 27.1222 37.3788 24.1303C37.3788 20.3903 38.8521 18.0103 45.7654 18.0103C51.296 18.0103 52.452 19.3703 52.3386 20.0503L63.1052 18.577C63.1052 17.8677 64.1025 16.4491 68.0918 16.4491C70.5853 16.4491 73.0316 17.059 74.8661 17.5164C75.9665 17.7908 76.8468 18.0103 77.3851 18.0103C75.9873 18.3125 72.7838 19.3024 71.1518 20.8437C70.2678 21.6786 73.4062 21.9176 77.5604 22.2339C82.9925 22.6476 90.1615 23.1935 92.3449 25.377C95.4276 28.4596 95.1405 35.8035 94.6116 39.0902C93.516 35.1613 90.1236 27.3036 85.3183 27.3036C79.3117 27.3036 78.1784 28.2103 77.3851 29.2303C76.863 29.9016 77.9117 30.5728 79.4651 31.5672C80.272 32.0837 81.2152 32.6874 82.145 33.4236C84.321 35.1462 85.1672 40.0346 85.3183 42.2635C82.9006 39.3169 76.9544 33.4236 72.5118 33.4236C66.9585 33.4236 67.1852 37.5035 70.5851 39.0902C73.3051 40.3595 75.0429 43.6235 75.5718 45.0968C72.7573 43.7557 66.3238 41.8782 63.1052 45.0968C59.8866 48.3154 60.4041 52.4823 61.0652 54.1634C62.5008 52.8034 67.4118 50.0834 75.5718 50.0834C85.7717 50.0834 90.1916 56.09 91.325 61.6433C92.2316 66.0859 90.3427 69.6144 89.285 70.8232C89.4739 72.9388 89.5796 77.5779 88.4916 79.2098C87.4037 80.8418 85.0917 80.3432 84.0717 79.8898C81.5406 80.3054 75.4131 81.1365 71.1518 81.1365C66.8905 81.1365 64.7674 76.8299 64.2385 74.6765C65.0319 75.281 66.9132 76.8299 68.0918 78.1898C69.2705 79.5498 73.5696 78.7565 75.5718 78.1898C75.4584 76.5654 75.6624 73.0446 77.3851 71.9566C78.2973 71.3804 79.8807 70.8653 81.515 70.3337C83.7384 69.6103 86.0558 68.8564 86.905 67.8766C88.3783 66.1766 89.8516 57.11 76.4784 57.11C63.847 57.11 60.2142 68.2319 59.4681 70.5163C59.4242 70.6504 59.3904 70.7541 59.3652 70.8232C59.1921 71.2994 59.052 71.6268 58.9323 71.9064C58.7387 72.3588 58.5987 72.6862 58.4586 73.3166C58.2772 74.1325 57.8541 76.2254 57.6652 77.1699C52.4897 76.9432 42.0254 76.4899 41.5721 76.4899C41.0054 76.4899 41.0054 78.9832 41.0054 80.4565C41.0054 81.5773 44.088 82.3702 45.3136 82.6854C45.6991 82.7846 45.9009 82.8365 45.7654 82.8365C45.6493 82.8365 45.386 82.8745 45.0211 82.9272C43.6039 83.1317 40.6546 83.5575 38.8521 82.8365C36.9158 82.062 37.2125 79.6335 37.3401 78.5887C37.3619 78.4104 37.3788 78.2724 37.3788 78.1898C37.3788 77.6232 34.7721 78.6432 34.7721 81.1365C34.7721 83.1311 36.5099 84.8387 37.3788 85.4431C36.5099 85.2542 34.4321 84.8085 33.0721 84.5365C31.5511 84.2322 31.5724 82.3857 31.5938 80.5391C31.5963 80.3218 31.5988 80.1046 31.5988 79.8898C31.5988 77.8498 34.7721 74.6765 36.2454 74.1099C37.1186 73.7741 35.4443 74.0353 33.723 74.3039C32.5398 74.4885 31.3343 74.6765 30.9188 74.6765C30.5283 74.6765 30.4368 74.4606 30.3454 74.245C30.1981 73.8973 30.0511 73.5503 28.6522 74.1099C26.3855 75.0165 25.4789 75.1299 24.3455 74.6765C23.2122 74.2232 21.399 74.7899 22.6456 77.1699C23.6428 79.0738 25.5544 79.7765 26.3855 79.8898C25.7055 80.532 24.1642 81.8391 23.4389 81.9298C22.5322 82.0431 18.7922 79.3232 18.7922 76.4899C18.7922 74.7179 19.8117 73.7882 20.8805 72.8136C21.5207 72.2298 22.1786 71.6299 22.6456 70.8232C23.4261 69.4749 22.0739 69.8151 20.3138 70.2579C19.263 70.5223 18.0667 70.8232 17.0923 70.8232C15.007 70.8232 15.77 73.0143 16.4122 74.1099C15.9211 73.6566 14.939 72.3646 14.939 70.8232C14.939 70.3381 14.7665 69.8602 14.6025 69.4058C14.1153 68.0553 13.7028 66.9121 18.1123 66.4033C22.8679 65.8546 23.6383 67.8888 24.0563 68.9924C24.1563 69.2564 24.2361 69.4672 24.3455 69.5766C24.9122 70.1433 27.1788 66.4033 24.3455 65.4966C22.0789 64.7713 20.7567 64.59 20.3789 64.59C20.3789 64.0989 21.1722 63.094 24.3455 63.0033C27.5188 62.9126 28.5388 68.1788 28.6522 70.8232H36.2454C36.5099 70.4833 37.1068 69.4179 37.3788 67.8766C37.5288 67.0262 35.5594 65.5576 33.166 63.773C30.1368 61.5142 26.4285 58.7491 25.4789 56.09C24.6274 53.7058 26.6193 52.5727 28.9907 51.2237C31.3536 49.8795 34.0933 48.321 34.7721 45.0968C36.0081 39.2257 34.9975 39.065 31.9102 38.574C31.6006 38.5247 31.2701 38.4722 30.9188 38.4102C27.8362 37.8662 25.2522 38.6369 24.3455 39.0902C24.7233 39.0902 25.8189 39.7249 27.1788 42.2635C28.4081 44.5581 27.2078 45.312 26.2774 45.8964C25.9211 46.1201 25.6044 46.3191 25.4789 46.5701C25.1744 47.179 24.6144 47.379 23.1811 47.8909C22.48 48.1412 21.5701 48.4662 20.3789 48.9501C18.3174 49.7876 17.0615 50.0392 16.2365 50.2044C15.6103 50.3299 15.2324 50.4055 14.939 50.6501C14.395 51.1034 14.7123 53.1812 14.939 54.1634L12.2189 50.0834C13.0123 49.6679 15.1883 48.7234 17.5456 48.2701C19.9029 47.8168 20.4167 45.9657 20.3789 45.0968C20.1522 45.2857 19.2682 45.6635 17.5456 45.6635C15.8229 45.6635 15.5434 46.2679 15.6189 46.5701C14.4856 47.099 11.7203 48.0208 9.72567 47.4768C8.25363 47.0753 8.51981 47.701 8.98481 48.794C9.30739 49.5523 9.72567 50.5355 9.72567 51.5567C9.72567 53.5514 11.3878 54.1256 12.2189 54.1634C12.2189 54.6923 11.2669 55.3194 7.45895 53.5967C2.699 51.4434 2.92565 47.5901 3.15231 45.0968C3.33364 43.1022 9.27226 40.2613 12.2189 39.0902C11.8411 37.8058 11.1536 34.8742 11.4256 33.4236C11.703 31.9442 14.3188 33.7839 15.7036 34.7578C16.0162 34.9777 16.2661 35.1534 16.4122 35.2369C17.2055 35.6902 18.2255 34.4436 18.7922 33.4236C19.2455 32.6076 11.4256 25.7547 7.45895 22.4303C8.36561 22.4303 11.2669 23.2689 15.6189 26.6236ZM21.399 38.1006C20.8633 38.1006 15.8397 38.5412 15.6189 38.8157C15.4423 39.0353 15.092 40.9843 14.939 41.9314H19.4332L18.1123 40.7055L21.399 38.1006ZM51.4324 73.8983H43.1696L42.7388 70.0998C43.9397 70.4522 46.6549 71.1728 47.908 71.2354C49.1611 71.2981 50.7797 73.0368 51.4324 73.8983Z" fill="#B21CB2"/>
</g>
</svg>
