<svg width="72" height="76" viewBox="0 0 72 76" fill="none" xmlns="http://www.w3.org/2000/svg">
<g filter="url(#filter0_d)">
<rect x="4.5" y="2.18291" width="63" height="66" fill="white" stroke="#C6C6C6"/>
<path d="M22.2568 10.0334H21.5439V12.6311H20.1083V5.52171H22.3984C23.1178 5.52171 23.6728 5.70889 24.0634 6.08324C24.4573 6.45433 24.6542 6.9833 24.6542 7.67015C24.6542 8.61416 24.3108 9.27497 23.624 9.65257L24.8691 12.5627V12.6311H23.3261L22.2568 10.0334ZM21.5439 8.83714H22.3593C22.6458 8.83714 22.8606 8.74274 23.0039 8.55394C23.1471 8.36188 23.2187 8.10635 23.2187 7.78734C23.2187 7.07445 22.9404 6.718 22.3837 6.718H21.5439V8.83714ZM28.8341 11.176H26.8761L26.4953 12.6311H24.9767L27.1984 5.52171H28.5119L30.7482 12.6311H29.215L28.8341 11.176ZM27.1886 9.97972H28.5167L27.8527 7.44554L27.1886 9.97972ZM36.1878 12.6311H34.7523L32.6527 7.968V12.6311H31.2171V5.52171H32.6527L34.7572 10.1897V5.52171H36.1878V12.6311ZM41.9742 11.8254C41.6975 12.1249 41.3573 12.3511 40.9537 12.5041C40.5533 12.6539 40.1138 12.7287 39.6353 12.7287C38.8182 12.7287 38.1835 12.4765 37.731 11.9719C37.2785 11.4641 37.0458 10.7268 37.0328 9.75999V8.4807C37.0328 7.50088 37.246 6.7473 37.6724 6.21996C38.1021 5.68936 38.7271 5.42406 39.5474 5.42406C40.3189 5.42406 40.9 5.61449 41.2906 5.99535C41.6845 6.37621 41.9123 6.97354 41.9742 7.78734H40.5777C40.5386 7.33486 40.4442 7.02725 40.2945 6.86449C40.1447 6.69847 39.9104 6.61546 39.5914 6.61546C39.204 6.61546 38.9224 6.75706 38.7466 7.04027C38.5708 7.32347 38.4797 7.77432 38.4732 8.39281V9.68187C38.4732 10.3297 38.5692 10.8017 38.7613 11.0979C38.9566 11.3909 39.2756 11.5373 39.7183 11.5373C40.0015 11.5373 40.231 11.4804 40.4068 11.3664L40.5337 11.2785V9.97484H39.5279V8.89085H41.9742V11.8254ZM46.4617 9.55492H44.2253V11.4397H46.8718V12.6311H42.7898V5.52171H46.8621V6.718H44.2253V8.39769H46.4617V9.55492ZM49.6552 10.0334H48.9423V12.6311H47.5068V5.52171H49.7968C50.5162 5.52171 51.0712 5.70889 51.4619 6.08324C51.8557 6.45433 52.0527 6.9833 52.0527 7.67015C52.0527 8.61416 51.7093 9.27497 51.0224 9.65257L52.2675 12.5627V12.6311H50.7246L49.6552 10.0334ZM48.9423 8.83714H49.7578C50.0442 8.83714 50.2591 8.74274 50.4023 8.55394C50.5455 8.36188 50.6171 8.10635 50.6171 7.78734C50.6171 7.07445 50.3388 6.718 49.7822 6.718H48.9423V8.83714Z" fill="black"/>
<path d="M40.2369 19.7234L36.3637 20.682C36.473 20.0672 36.7203 18.7679 36.835 18.4892C36.9785 18.1408 38.0236 17.7514 38.3515 17.4645C38.6794 17.1776 40.3599 17.649 40.7747 17.7514C41.1895 17.8539 43.3842 17.4645 43.6593 17.4645C43.9343 17.4645 45.3807 15.8456 45.4422 15.7431C45.5036 15.6406 45.4012 17.1732 45.2782 17.4645C45.1553 17.7559 44.7659 17.8849 44.4518 17.8849C44.1377 17.8849 43.6798 17.9974 43.5363 18.0588C43.3928 18.1203 42.2862 19.0117 42.0198 19.0117C41.8067 19.0117 41.1009 18.759 40.7747 18.6327L40.2369 19.7234Z" fill="#B21CB2"/>
<path d="M40.9952 42.4456C40.8517 42.2817 41.4665 41.6669 41.5895 41.0111C41.9447 41.0453 42.278 41.3764 42.5731 41.6081C42.942 41.8977 43.2289 42.6916 43.3842 42.8965C43.5396 43.1014 44.6224 44.9458 44.8274 45.1073C45.0323 45.2688 44.6224 45.3762 44.0896 45.5606C43.5568 45.745 43.5978 45.8885 43.5978 46.0562C43.5978 46.224 43.1059 47.3025 43.0035 47.6576C42.9215 47.9416 42.6824 48.8039 42.5731 49.1996C41.1796 49.2503 38.3925 49.3214 38.3925 49.1996C38.3925 49.0473 38.6999 48.1913 38.9253 47.6576C39.1508 47.1238 39.909 46.7492 40.2409 46.4828C40.5728 46.2164 41.1386 45.8065 41.5895 45.5606C42.0403 45.3147 42.4912 44.5769 42.6725 44.3363C42.8539 44.0957 42.6725 43.6547 42.3067 43.3281C41.9409 43.0014 41.1386 42.6096 40.9952 42.4456Z" fill="#B21CB2"/>
<path d="M27.5272 21.9853H28.2603L27.7269 22.6889L27.5272 21.9853Z" fill="#B21CB2"/>
<path fill-rule="evenodd" clip-rule="evenodd" d="M25.532 29.0161C25.1051 28.5416 23.5749 26.8809 22.8632 26.1099L20.0757 25.4575L18.7117 24.3899L17.8815 25.4575C17.4663 25.4773 16.4699 25.6354 15.8056 26.1099C15.1413 26.5844 13.3543 27.0984 12.5437 27.2961C12.4054 27.217 12.0693 27.1775 11.8321 27.6519C11.5356 28.245 11.417 29.1939 11.417 30.0243C11.417 30.6885 12.4054 31.4081 12.8997 31.6849C13.2357 31.2302 13.9791 30.3445 14.2637 30.4394C14.3786 30.4777 14.543 30.5716 14.7348 30.6813C15.1372 30.9113 15.6605 31.2104 16.1023 31.2104C16.4362 31.2104 16.9566 31.0084 17.4645 30.8112C17.9489 30.6231 18.4221 30.4394 18.7117 30.4394C18.7729 30.4394 18.8361 30.4381 18.9004 30.4369C19.4597 30.4257 20.1127 30.4126 20.4318 31.2104C20.6097 31.6552 20.758 31.9518 20.8915 32.2187C21.0249 32.4856 21.1435 32.7228 21.2621 33.049C21.4065 33.446 21.5289 33.887 21.6561 34.3453C21.7379 34.6399 21.8217 34.9416 21.9145 35.2434C22.0161 35.5735 22.0742 35.8384 22.1354 36.1172C22.2171 36.4895 22.3042 36.8866 22.5076 37.4971C22.8632 38.5646 23.2193 39.0984 23.6938 39.3356C24.0733 39.5254 25.0774 39.6124 25.532 39.6322C25.0774 39.6915 24.0733 39.9287 23.6938 40.4032C23.6022 40.5176 23.524 40.6121 23.453 40.6979C23.1559 41.0567 22.9863 41.2615 22.5076 42.1231C22.2962 42.5036 22.0773 42.8238 21.8831 43.1078C21.5324 43.6209 21.2621 44.0163 21.2621 44.4362C21.2621 44.6632 21.1831 44.8543 21.1076 45.037C20.9661 45.3793 20.8368 45.6921 21.2621 46.1561C21.4796 46.3934 21.6378 46.6307 21.7827 46.8482C22.0725 47.283 22.3096 47.6388 22.8632 47.7574C23.3186 47.855 23.3995 47.8455 23.6436 47.8171C23.8447 47.7937 24.1566 47.7574 24.8799 47.7574H27.7267C28.1535 47.7574 26.4414 45.5432 25.532 44.4362H23.2786C23.16 43.9617 23.3142 42.989 24.8799 42.8941C25.62 42.8493 26.2075 42.7281 26.6519 42.6364C27.3827 42.4857 27.7267 42.4147 27.7267 42.8941C27.7267 43.315 27.8857 43.7005 28.03 44.0506C28.1502 44.342 28.2602 44.6089 28.2602 44.8513C28.2602 45.01 28.2183 45.1058 28.1828 45.187C28.0988 45.3789 28.0505 45.4893 28.6756 46.1561C29.0351 46.5395 29.2687 46.9133 29.4743 47.2422C29.7773 47.7272 30.0194 48.1145 30.5142 48.2912L30.5721 48.3119C31.375 48.5987 32.0122 48.8264 32.6493 48.8843C32.8969 48.9068 33.264 49.0318 33.6275 49.1555C34.222 49.3579 34.8069 49.5571 34.8437 49.2994C34.903 48.8843 34.6065 45.0885 33.3017 45.2072C33.0794 45.2274 32.8502 45.251 32.6218 45.2746C31.5094 45.3894 30.4145 45.5024 30.2177 45.2072C29.9804 44.8513 29.6246 43.9617 29.6246 43.4279V41.708L31.1073 42.8941C31.4038 43.0325 32.1274 43.2263 32.6493 42.8941C32.9095 42.7286 33.0187 42.4026 33.1313 42.0668C33.301 41.5606 33.4782 41.0319 34.1913 40.9963C34.922 40.9597 35.4501 40.9682 36.1915 40.9801C36.6538 40.9875 37.1989 40.9963 37.9277 40.9963H40.2408C40.6023 40.9963 40.7655 40.7523 40.9164 40.5268C41.1865 40.1233 41.4169 39.7789 42.6724 40.9963C43.5038 41.8024 44.0034 42.5444 44.3986 43.1313C44.9337 43.9259 45.2772 44.4362 45.9937 44.4362C46.4774 44.4362 46.9164 44.3735 47.2829 44.3212C47.86 44.2389 48.2572 44.1822 48.366 44.4362C48.427 44.5786 48.6208 44.7979 48.8633 45.0724C49.3276 45.5979 49.9708 46.3259 50.2045 47.105C50.256 47.2767 50.3088 47.4608 50.3631 47.6504C50.6843 48.7714 51.0614 50.0876 51.5686 50.1891C52.1617 50.3077 55.9574 50.6042 55.8981 50.1891C55.8507 49.8569 54.7713 47.9947 54.2375 47.105C53.9014 47.1446 53.1581 47.1169 52.8734 46.6899C52.745 46.4973 52.7556 46.351 52.7687 46.1703C52.7918 45.8502 52.8227 45.4219 52.1024 44.4362C51.1348 43.1121 50.9106 42.3127 50.7915 41.8879C50.7719 41.818 50.7551 41.7583 50.7383 41.708C50.6854 41.5491 50.3249 41.5084 49.8894 41.4593C49.3495 41.3984 48.6943 41.3245 48.366 40.9963C48.2491 40.8794 48.1529 40.797 48.0743 40.7297C47.7541 40.4556 47.7253 40.4309 47.7729 39.3356C47.8204 38.2444 47.7927 36.9435 47.7729 36.4295C48.4055 36.4295 49.7775 36.5363 50.2045 36.9633C50.3095 37.0683 50.4099 37.2811 50.5378 37.5522C51.06 38.6591 52.0401 40.7367 55.6609 40.4032C59.8714 40.0154 60.1488 39.4723 60.5054 38.774C60.5306 38.7248 60.5561 38.6747 60.5835 38.6239C60.7094 38.3901 60.8626 38.1454 61.005 37.9179C61.3321 37.3952 61.6024 36.9633 61.3545 36.9633C61.3191 36.9633 61.2696 36.9621 61.2076 36.9607C60.6459 36.9473 59.0542 36.9096 57.5588 37.4971C56.1943 38.0331 55.6707 37.2478 55.0996 36.3914C54.9757 36.2055 54.8495 36.0163 54.712 35.8365C53.9977 34.9024 53.6907 34.8337 53.0364 34.6872C52.9844 34.6755 52.9302 34.6634 52.8734 34.6503C52.601 34.5874 52.2989 34.606 51.9488 34.6276C51.3083 34.667 50.5073 34.7163 49.4335 34.2944C47.908 33.6951 47.5336 33.6964 46.3333 33.7006C46.227 33.701 46.1143 33.7014 45.9937 33.7014C45.4018 33.7014 44.98 33.8053 44.6416 33.8887C44.1322 34.0143 43.8117 34.0933 43.3841 33.7014C42.6724 33.049 41.6642 31.3883 42.6724 30.9139C43.479 30.5343 44.1946 30.4394 44.4516 30.4394C43.7399 30.2417 42.5301 29.7633 43.3841 29.4312C43.9361 29.2165 44.4247 29.3349 44.8663 29.4418C45.2787 29.5417 45.65 29.6316 45.9937 29.4312C46.2569 29.2776 46.3822 29.0835 46.5047 28.8938C46.7132 28.5706 46.9134 28.2604 47.7729 28.1857C48.8642 28.0908 49.3347 27.5531 49.4335 27.2961C48.3265 26.9007 46.4444 26.1099 47.7729 26.1099H50.2045C51.5686 26.1099 52.5176 26.0505 53.17 25.4575C53.6919 24.983 54.4154 24.5481 54.712 24.3899L50.7383 24.6865L55.1271 23.441L52.1024 23.0852C52.9327 22.7689 54.7001 22.077 55.1271 21.8398C55.3174 21.734 55.5605 21.6509 55.816 21.5636C56.2772 21.4059 56.779 21.2343 57.0843 20.8908C57.1435 20.8242 57.2211 20.7392 57.3095 20.6423C57.9305 19.9622 59.0863 18.6963 58.1519 19.1116C57.7987 19.2685 57.3092 19.5164 56.7929 19.7778C55.7486 20.3065 54.5947 20.8908 54.2375 20.8908C53.8105 20.8908 52.6362 21.049 52.1024 21.128C52.1024 20.8117 52.3159 20.1079 53.17 19.8233C53.6007 19.6797 54.0315 19.6423 54.4506 19.606C55.0701 19.5522 55.664 19.5007 56.1947 19.1116C56.6207 18.7992 56.9651 18.4052 57.267 18.0598C57.5955 17.684 57.8737 17.3657 58.1519 17.273C58.6856 17.0951 59.338 16.4427 59.5159 16.1462C59.6583 15.9089 60.0497 15.0984 60.2276 14.7228C59.9904 14.2483 59.5159 13.3468 59.5159 13.5366C59.5159 13.7738 57.9739 15.3751 57.0843 16.1462C56.3726 16.763 54.8899 17.6289 54.2375 17.9847C54.0794 17.708 53.8579 17.0951 54.2375 16.8579L54.3415 16.7931C54.7738 16.5244 55.1665 16.2804 55.6609 15.731C55.9456 15.4147 56.2979 15.1489 56.6546 14.8798C56.9666 14.6444 57.2821 14.4064 57.5588 14.1297C58.0332 13.6552 59.5357 11.2829 60.2276 10.1561C59.2392 11.2829 57.0487 13.6553 56.1947 14.1297C55.7692 14.366 55.2496 14.706 54.6921 15.0707C53.8507 15.6213 52.9229 16.2282 52.1024 16.6206C50.7383 17.273 48.8998 17.9847 47.7729 18.3999C47.2956 18.5757 46.5097 18.6026 45.7308 18.6293C44.6707 18.6655 43.6234 18.7013 43.3841 19.1116C43.0734 19.6441 42.8292 19.7118 41.9306 19.9606C41.6284 20.0443 41.2522 20.1485 40.7745 20.2977C39.9795 20.5462 38.9555 20.7946 38.0034 21.0256C36.6826 21.3461 35.5001 21.633 35.2589 21.8398C35.1761 21.9107 32.9783 22.8633 32.8473 22.955C31.9459 23.1922 31.6608 23.0852 31.4038 23.0852C31.2457 22.5119 31.0243 21.3179 31.4038 21.128C31.5316 21.0641 31.6164 21.0088 31.7022 20.9529C31.9349 20.8011 32.1751 20.6444 33.3017 20.2977C34.5353 19.9182 34.8437 19.3488 34.8437 19.1116C33.8948 19.1907 31.819 19.4437 31.1073 19.8233C30.8647 19.9527 30.7147 20.0468 30.6056 20.1152C30.5058 20.1778 30.4402 20.219 30.3693 20.246C30.2335 20.2977 30.0779 20.2977 29.6246 20.2977H27.2523L26.5999 21.8398H28.6756L28.2602 23.0852L29.1501 23.441V24.3899C28.557 24.5085 27.2167 24.6745 26.5999 24.3899C25.9831 24.1053 24.7218 22.9666 24.1682 22.4328L23.2786 21.4246C23.2588 21.049 23.3142 20.2977 23.6938 20.2977C23.9178 20.2977 25.1201 19.6235 26.3894 18.9117C27.8086 18.1158 29.3115 17.273 29.6246 17.273C29.8146 17.273 30.2177 17.206 30.7655 17.115C31.9278 16.922 33.7416 16.6206 35.5554 16.6206H39.707C37.0974 16.3043 31.6055 15.7666 30.5142 16.1462C29.9345 16.3478 29.2263 16.5066 28.5671 16.6544C27.6751 16.8544 26.8727 17.0343 26.5999 17.273C26.2203 17.6051 24.5043 18.6371 23.6938 19.1116C22.6064 18.993 20.4318 18.9692 20.4318 19.8233C20.4318 20.6773 20.9853 21.9188 21.2621 22.4328L22.5076 21.8398C22.7448 22.4131 23.3142 23.6428 23.6938 23.9749C24.0733 24.3069 24.4845 24.5876 24.6427 24.6865V26.1099C24.9391 26.3867 25.532 27.0114 25.532 27.2961C25.532 27.6519 26.7778 28.1857 27.7267 28.1857C28.2012 28.1857 28.6756 27.9188 29.0315 27.7186C29.3873 27.5185 29.6246 27.385 29.6246 27.6519C29.6246 27.9118 29.7651 28.1997 29.9094 28.4953C30.0615 28.8068 30.2177 29.1268 30.2177 29.4312C30.2177 30.0243 30.099 30.6174 29.6246 30.9139C29.245 31.1511 28.5568 31.2104 28.2602 31.2104C28.0941 31.0166 27.605 30.6549 27.0763 30.2639C26.4723 29.8172 25.8166 29.3323 25.532 29.0161ZM35.5554 27.6519C35.8519 27.1181 35.5554 26.1099 35.2589 25.4575C35.1789 25.2815 35.1119 25.097 35.0438 24.9096C34.8595 24.4022 34.6678 23.8742 34.1913 23.441C34.1736 23.425 34.1679 23.4774 34.1627 23.5245C34.1583 23.565 34.1543 23.6015 34.1435 23.5876C34.1776 23.6993 34.2901 23.9278 34.4357 24.2236C34.8322 25.0287 35.4742 26.3326 35.4475 27.1374L34.1913 30.0243C34.5472 29.4114 35.3182 28.0789 35.5554 27.6519ZM17.1294 27.5237V26.8822L16.8621 26.6951L18.7117 26.3476L17.1294 27.5237Z" fill="#B21CB2"/>
<g filter="url(#filter1_d)">
<rect x="25.271" y="27.5857" width="22.0002" height="14.5981" rx="7.29905" fill="#CF0000"/>
<rect x="25.771" y="28.0857" width="21.0002" height="13.5981" rx="6.79905" stroke="black" stroke-opacity="0.15"/>
</g>
<path d="M34.1675 35.8679H31.541V34.6003H34.1675V35.8679ZM36.5203 33.9827H37.2561C37.5354 33.9827 37.7395 33.886 37.8684 33.6926C38.0009 33.4957 38.0671 33.2343 38.0671 32.9084C38.0671 32.5969 37.9991 32.3552 37.863 32.1833C37.7305 32.0079 37.5515 31.9202 37.3259 31.9202C37.1147 31.9202 36.941 32.0025 36.8049 32.1672C36.6724 32.3319 36.6062 32.5396 36.6062 32.7903H35.0862C35.0862 32.3821 35.1793 32.0168 35.3655 31.6946C35.5552 31.3687 35.8184 31.1145 36.155 30.9319C36.4952 30.7493 36.8712 30.6579 37.2829 30.6579C38.0027 30.6579 38.5666 30.8567 38.9748 31.2541C39.383 31.6516 39.5871 32.1959 39.5871 32.8869C39.5871 33.2414 39.494 33.5709 39.3078 33.8752C39.1252 34.176 38.8835 34.407 38.5828 34.5681C38.9516 34.7257 39.2255 34.962 39.4045 35.2771C39.5871 35.5922 39.6785 35.9646 39.6785 36.3943C39.6785 37.0889 39.4564 37.6457 39.0124 38.0647C38.572 38.4836 37.9919 38.6931 37.2722 38.6931C36.6026 38.6931 36.0583 38.4872 35.6394 38.0754C35.224 37.6601 35.0163 37.1158 35.0163 36.4426H36.5364C36.5364 36.7219 36.6098 36.9564 36.7566 37.1462C36.9034 37.336 37.0896 37.4309 37.3152 37.4309C37.5766 37.4309 37.7825 37.3342 37.9328 37.1409C38.0868 36.9475 38.1638 36.6897 38.1638 36.3674C38.1638 35.5976 37.8648 35.2108 37.2668 35.2073H36.5203V33.9827Z" fill="white"/>
<path d="M12.3372 55.7337H13.0032V56.9959H12.3372V58.6878H10.8171V56.9959H8.22827L8.15845 56.013L10.8118 50.8675H12.3372V55.7337ZM9.6355 55.7337H10.8171V53.118L10.7849 53.177L9.6355 55.7337Z" fill="black"/>
<path d="M62.1953 55.7337H62.8613V56.9959H62.1953V58.6878H60.6752V56.9959H58.0864L58.0165 56.013L60.6699 50.8675H62.1953V55.7337ZM59.4936 55.7337H60.6752V53.118L60.643 53.177L59.4936 55.7337Z" fill="black"/>
<path d="M27.8487 51.9989L20.7551 57.8932L26.2188 55.2103L27.8487 57.8933L33.7728 51.9989L28.5991 54.5993L27.8487 51.9989Z" fill="black"/>
<path d="M46.6488 51.3464L47.3653 53.6371L47.4239 53.8244H47.6202H49.9665L48.0596 55.2634L47.9095 55.3768L47.9656 55.5563L48.6886 57.8676L46.8097 56.4496L46.6488 56.3282L46.488 56.4496L44.609 57.8676L45.332 55.5563L45.3881 55.3768L45.238 55.2634L43.3312 53.8244H45.6775H45.8737L45.9323 53.6371L46.6488 51.3464Z" fill="black" stroke="black" stroke-width="0.534015"/>
<rect x="4.98047" y="63.016" width="62.0196" height="4.64585" fill="#CF0000"/>
</g>
<defs>
<filter id="filter0_d" x="0" y="0.682907" width="72" height="75" filterUnits="userSpaceOnUse" color-interpolation-filters="sRGB">
<feFlood flood-opacity="0" result="BackgroundImageFix"/>
<feColorMatrix in="SourceAlpha" type="matrix" values="0 0 0 0 0 0 0 0 0 0 0 0 0 0 0 0 0 0 127 0"/>
<feOffset dy="3"/>
<feGaussianBlur stdDeviation="2"/>
<feColorMatrix type="matrix" values="0 0 0 0 0 0 0 0 0 0 0 0 0 0 0 0 0 0 0.55 0"/>
<feBlend mode="normal" in2="BackgroundImageFix" result="effect1_dropShadow"/>
<feBlend mode="normal" in="SourceGraphic" in2="effect1_dropShadow" result="shape"/>
</filter>
<filter id="filter1_d" x="21.271" y="27.5857" width="30.0002" height="22.5981" filterUnits="userSpaceOnUse" color-interpolation-filters="sRGB">
<feFlood flood-opacity="0" result="BackgroundImageFix"/>
<feColorMatrix in="SourceAlpha" type="matrix" values="0 0 0 0 0 0 0 0 0 0 0 0 0 0 0 0 0 0 127 0"/>
<feOffset dy="4"/>
<feGaussianBlur stdDeviation="2"/>
<feColorMatrix type="matrix" values="0 0 0 0 0 0 0 0 0 0 0 0 0 0 0 0 0 0 0.25 0"/>
<feBlend mode="normal" in2="BackgroundImageFix" result="effect1_dropShadow"/>
<feBlend mode="normal" in="SourceGraphic" in2="effect1_dropShadow" result="shape"/>
</filter>
</defs>
</svg>
