<svg width="73" height="76" viewBox="0 0 73 76" fill="none" xmlns="http://www.w3.org/2000/svg">
<g filter="url(#filter0_d)">
<rect x="5.04175" y="2.18291" width="63" height="66" fill="white" stroke="#C6C6C6"/>
<path d="M22.7985 10.0334H22.0856V12.6311H20.6501V5.52171H22.9401C23.6595 5.52171 24.2146 5.70889 24.6052 6.08324C24.9991 6.45433 25.196 6.9833 25.196 7.67015C25.196 8.61416 24.8526 9.27497 24.1657 9.65257L25.4108 12.5627V12.6311H23.8679L22.7985 10.0334ZM22.0856 8.83714H22.9011C23.1875 8.83714 23.4024 8.74274 23.5456 8.55394C23.6888 8.36188 23.7604 8.10635 23.7604 7.78734C23.7604 7.07445 23.4821 6.718 22.9255 6.718H22.0856V8.83714ZM29.3759 11.176H27.4179L27.037 12.6311H25.5185L27.7401 5.52171H29.0536L31.2899 12.6311H29.7567L29.3759 11.176ZM27.7304 9.97972H29.0585L28.3944 7.44554L27.7304 9.97972ZM36.7296 12.6311H35.294L33.1944 7.968V12.6311H31.7589V5.52171H33.1944L35.2989 10.1897V5.52171H36.7296V12.6311ZM42.5159 11.8254C42.2392 12.1249 41.8991 12.3511 41.4954 12.5041C41.095 12.6539 40.6556 12.7287 40.177 12.7287C39.36 12.7287 38.7252 12.4765 38.2728 11.9719C37.8203 11.4641 37.5875 10.7268 37.5745 9.75999V8.4807C37.5745 7.50088 37.7877 6.7473 38.2142 6.21996C38.6438 5.68936 39.2688 5.42406 40.0892 5.42406C40.8606 5.42406 41.4417 5.61449 41.8323 5.99535C42.2262 6.37621 42.4541 6.97354 42.5159 7.78734H41.1194C41.0804 7.33486 40.986 7.02725 40.8362 6.86449C40.6865 6.69847 40.4521 6.61546 40.1331 6.61546C39.7457 6.61546 39.4642 6.75706 39.2884 7.04027C39.1126 7.32347 39.0215 7.77432 39.0149 8.39281V9.68187C39.0149 10.3297 39.111 10.8017 39.303 11.0979C39.4983 11.3909 39.8173 11.5373 40.2601 11.5373C40.5433 11.5373 40.7728 11.4804 40.9485 11.3664L41.0755 11.2785V9.97484H40.0696V8.89085H42.5159V11.8254ZM47.0034 9.55492H44.7671V11.4397H47.4136V12.6311H43.3315V5.52171H47.4038V6.718H44.7671V8.39769H47.0034V9.55492ZM50.197 10.0334H49.4841V12.6311H48.0485V5.52171H50.3386C51.058 5.52171 51.613 5.70889 52.0036 6.08324C52.3975 6.45433 52.5944 6.9833 52.5944 7.67015C52.5944 8.61416 52.251 9.27497 51.5642 9.65257L52.8093 12.5627V12.6311H51.2663L50.197 10.0334ZM49.4841 8.83714H50.2995C50.586 8.83714 50.8008 8.74274 50.944 8.55394C51.0873 8.36188 51.1589 8.10635 51.1589 7.78734C51.1589 7.07445 50.8806 6.718 50.3239 6.718H49.4841V8.83714Z" fill="black"/>
<path d="M40.7787 19.7234L36.9054 20.682C37.0147 20.0672 37.262 18.7679 37.3768 18.4892C37.5202 18.1408 38.5654 17.7514 38.8933 17.4645C39.2212 17.1776 40.9016 17.649 41.3164 17.7514C41.7312 17.8539 43.926 17.4645 44.201 17.4645C44.476 17.4645 45.9224 15.8456 45.9839 15.7431C46.0454 15.6406 45.9429 17.1732 45.82 17.4645C45.697 17.7559 45.3076 17.8849 44.9935 17.8849C44.6794 17.8849 44.2215 17.9974 44.078 18.0588C43.9346 18.1203 42.828 19.0117 42.5616 19.0117C42.3484 19.0117 41.6427 18.759 41.3164 18.6327L40.7787 19.7234Z" fill="#B8B8B8"/>
<path d="M41.5369 42.4456C41.3935 42.2817 42.0082 41.6669 42.1312 41.0111C42.4864 41.0453 42.8198 41.3764 43.1149 41.6081C43.4837 41.8977 43.7707 42.6916 43.926 42.8965C44.0813 43.1014 45.1642 44.9458 45.3691 45.1073C45.574 45.2688 45.1642 45.3762 44.6314 45.5606C44.0985 45.745 44.1395 45.8885 44.1395 46.0562C44.1395 46.224 43.6477 47.3025 43.5452 47.6576C43.4633 47.9416 43.2242 48.8039 43.1149 49.1996C41.7213 49.2503 38.9343 49.3214 38.9343 49.1996C38.9343 49.0473 39.2417 48.1913 39.4671 47.6576C39.6925 47.1238 40.4508 46.7492 40.7827 46.4828C41.1145 46.2164 41.6804 45.8065 42.1312 45.5606C42.5821 45.3147 43.0329 44.5769 43.2143 44.3363C43.3957 44.0957 43.2143 43.6547 42.8485 43.3281C42.4826 43.0014 41.6804 42.6096 41.5369 42.4456Z" fill="#B8B8B8"/>
<path d="M28.0689 21.9853H28.8021L28.2686 22.6889L28.0689 21.9853Z" fill="#B8B8B8"/>
<path fill-rule="evenodd" clip-rule="evenodd" d="M26.0738 29.0161C25.6468 28.5416 24.1167 26.8809 23.405 26.1099L20.6174 25.4575L19.2534 24.3899L18.4232 25.4575C18.008 25.4773 17.0116 25.6354 16.3473 26.1099C15.6831 26.5844 13.896 27.0984 13.0855 27.2961C12.9471 27.217 12.6111 27.1775 12.3739 27.6519C12.0773 28.245 11.9587 29.1939 11.9587 30.0243C11.9587 30.6885 12.9472 31.4081 13.4414 31.6849C13.7775 31.2302 14.5208 30.3445 14.8055 30.4394C14.9204 30.4777 15.0847 30.5716 15.2766 30.6813C15.6789 30.9113 16.2023 31.2104 16.644 31.2104C16.978 31.2104 17.4983 31.0084 18.0063 30.8112C18.4907 30.6231 18.9639 30.4394 19.2534 30.4394C19.3147 30.4394 19.3778 30.4381 19.4422 30.4369C20.0014 30.4257 20.6544 30.4126 20.9735 31.2104C21.1515 31.6552 21.2998 31.9518 21.4332 32.2187C21.5666 32.4856 21.6853 32.7228 21.8039 33.049C21.9483 33.446 22.0707 33.887 22.1979 34.3453C22.2797 34.6399 22.3634 34.9416 22.4563 35.2434C22.5578 35.5735 22.616 35.8384 22.6771 36.1172C22.7588 36.4895 22.846 36.8866 23.0493 37.4971C23.405 38.5646 23.761 39.0984 24.2355 39.3356C24.6151 39.5254 25.6192 39.6124 26.0738 39.6322C25.6192 39.6915 24.6151 39.9287 24.2355 40.4032C24.144 40.5176 24.0657 40.6121 23.9947 40.6979C23.6976 41.0567 23.528 41.2615 23.0493 42.1231C22.838 42.5036 22.6191 42.8238 22.4249 43.1078C22.0741 43.6209 21.8039 44.0163 21.8039 44.4362C21.8039 44.6632 21.7249 44.8543 21.6493 45.037C21.5078 45.3793 21.3785 45.6921 21.8039 46.1561C22.0214 46.3934 22.1795 46.6307 22.3244 46.8482C22.6142 47.283 22.8513 47.6388 23.405 47.7574C23.8603 47.855 23.9412 47.8455 24.1853 47.8171C24.3864 47.7937 24.6983 47.7574 25.4217 47.7574H28.2685C28.6952 47.7574 26.9832 45.5432 26.0738 44.4362H23.8203C23.7017 43.9617 23.8559 42.989 25.4217 42.8941C26.1618 42.8493 26.7492 42.7281 27.1937 42.6364C27.9245 42.4857 28.2685 42.4147 28.2685 42.8941C28.2685 43.315 28.4274 43.7005 28.5718 44.0506C28.6919 44.342 28.8019 44.6089 28.8019 44.8513C28.8019 45.01 28.76 45.1058 28.7245 45.187C28.6405 45.3789 28.5923 45.4893 29.2174 46.1561C29.5769 46.5395 29.8105 46.9133 30.016 47.2422C30.3191 47.7272 30.5612 48.1145 31.056 48.2912L31.1139 48.3119C31.9168 48.5987 32.5539 48.8264 33.1911 48.8843C33.4386 48.9068 33.8057 49.0318 34.1693 49.1555C34.7638 49.3579 35.3487 49.5571 35.3855 49.2994C35.4448 48.8843 35.1482 45.0885 33.8434 45.2072C33.6212 45.2274 33.392 45.251 33.1636 45.2746C32.0511 45.3894 30.9562 45.5024 30.7594 45.2072C30.5222 44.8513 30.1663 43.9617 30.1663 43.4279V41.708L31.649 42.8941C31.9456 43.0325 32.6691 43.2263 33.1911 42.8941C33.4512 42.7286 33.5605 42.4026 33.673 42.0668C33.8427 41.5606 34.02 41.0319 34.7331 40.9963C35.4637 40.9597 35.9918 40.9682 36.7333 40.9801C37.1955 40.9875 37.7407 40.9963 38.4695 40.9963H40.7825C41.144 40.9963 41.3073 40.7523 41.4582 40.5268C41.7282 40.1233 41.9587 39.7789 43.2141 40.9963C44.0455 41.8024 44.5451 42.5444 44.9403 43.1313C45.4754 43.9259 45.819 44.4362 46.5354 44.4362C47.0192 44.4362 47.4582 44.3735 47.8247 44.3212C48.4017 44.2389 48.7989 44.1822 48.9077 44.4362C48.9688 44.5786 49.1625 44.7979 49.4051 45.0724C49.8694 45.5979 50.5126 46.3259 50.7463 47.105C50.7978 47.2767 50.8505 47.4608 50.9049 47.6504C51.226 48.7714 51.6031 50.0876 52.1104 50.1891C52.7035 50.3077 56.4992 50.6042 56.4399 50.1891C56.3924 49.8569 55.313 47.9947 54.7793 47.105C54.4432 47.1446 53.6998 47.1169 53.4152 46.6899C53.2868 46.4973 53.2974 46.351 53.3104 46.1703C53.3335 45.8502 53.3645 45.4219 52.6442 44.4362C51.6766 43.1121 51.4524 42.3127 51.3332 41.8879C51.3136 41.818 51.2968 41.7583 51.2801 41.708C51.2271 41.5491 50.8667 41.5084 50.4312 41.4593C49.8913 41.3984 49.236 41.3245 48.9077 40.9963C48.7908 40.8794 48.6947 40.797 48.6161 40.7297C48.2959 40.4556 48.267 40.4309 48.3147 39.3356C48.3621 38.2444 48.3344 36.9435 48.3147 36.4295C48.9473 36.4295 50.3193 36.5363 50.7463 36.9633C50.8513 37.0683 50.9517 37.2811 51.0795 37.5522C51.6017 38.6591 52.5818 40.7367 56.2027 40.4032C60.4132 40.0154 60.6905 39.4723 61.0472 38.774C61.0723 38.7248 61.0979 38.6747 61.1252 38.6239C61.2511 38.3901 61.4043 38.1454 61.5467 37.9179C61.8739 37.3952 62.1442 36.9633 61.8963 36.9633C61.8609 36.9633 61.8114 36.9621 61.7493 36.9607C61.1876 36.9473 59.596 36.9096 58.1005 37.4971C56.736 38.0331 56.2124 37.2478 55.6414 36.3914C55.5174 36.2055 55.3912 36.0163 55.2537 35.8365C54.5395 34.9024 54.2324 34.8337 53.5781 34.6872C53.5261 34.6755 53.4719 34.6634 53.4152 34.6503C53.1427 34.5874 52.8406 34.606 52.4906 34.6276C51.8501 34.667 51.0491 34.7163 49.9753 34.2944C48.4497 33.6951 48.0754 33.6964 46.8751 33.7006C46.7688 33.701 46.656 33.7014 46.5354 33.7014C45.9435 33.7014 45.5217 33.8053 45.1833 33.8887C44.674 34.0143 44.3534 34.0933 43.9258 33.7014C43.2141 33.049 42.2059 31.3883 43.2141 30.9139C44.0207 30.5343 44.7364 30.4394 44.9934 30.4394C44.2817 30.2417 43.0718 29.7633 43.9258 29.4312C44.4779 29.2165 44.9665 29.3349 45.408 29.4418C45.8204 29.5417 46.1917 29.6316 46.5354 29.4312C46.7987 29.2776 46.924 29.0835 47.0464 28.8938C47.255 28.5706 47.4552 28.2604 48.3147 28.1857C49.4059 28.0908 49.8764 27.5531 49.9753 27.2961C48.8682 26.9007 46.9862 26.1099 48.3147 26.1099H50.7463C52.1104 26.1099 53.0593 26.0505 53.7117 25.4575C54.2336 24.983 54.9572 24.5481 55.2537 24.3899L51.2801 24.6865L55.6689 23.441L52.6442 23.0852C53.4745 22.7689 55.2419 22.077 55.6689 21.8398C55.8592 21.734 56.1022 21.6509 56.3577 21.5636C56.8189 21.4059 57.3207 21.2343 57.6261 20.8908C57.6852 20.8242 57.7628 20.7392 57.8513 20.6423C58.4722 19.9622 59.628 18.6963 58.6936 19.1116C58.3404 19.2685 57.851 19.5164 57.3347 19.7778C56.2904 20.3065 55.1364 20.8908 54.7793 20.8908C54.3522 20.8908 53.1779 21.049 52.6442 21.128C52.6442 20.8117 52.8577 20.1079 53.7117 19.8233C54.1425 19.6797 54.5733 19.6423 54.9923 19.606C55.6118 19.5522 56.2058 19.5007 56.7364 19.1116C57.1624 18.7992 57.5068 18.4052 57.8087 18.0598C58.1373 17.684 58.4154 17.3657 58.6936 17.273C59.2274 17.0951 59.8798 16.4427 60.0577 16.1462C60.2 15.9089 60.5915 15.0984 60.7694 14.7228C60.5322 14.2483 60.0577 13.3468 60.0577 13.5366C60.0577 13.7738 58.5157 15.3751 57.6261 16.1462C56.9144 16.763 55.4316 17.6289 54.7793 17.9847C54.6211 17.708 54.3997 17.0951 54.7793 16.8579L54.8833 16.7931C55.3156 16.5244 55.7082 16.2804 56.2027 15.731C56.4874 15.4147 56.8396 15.1489 57.1963 14.8798C57.5084 14.6444 57.8238 14.4064 58.1005 14.1297C58.575 13.6552 60.0775 11.2829 60.7694 10.1561C59.7809 11.2829 57.5905 13.6553 56.7364 14.1297C56.311 14.366 55.7914 14.706 55.2339 15.0707C54.3924 15.6213 53.4646 16.2282 52.6442 16.6206C51.2801 17.273 49.4415 17.9847 48.3147 18.3999C47.8374 18.5757 47.0515 18.6026 46.2725 18.6293C45.2124 18.6655 44.1652 18.7013 43.9258 19.1116C43.6152 19.6441 43.3709 19.7118 42.4724 19.9606C42.1702 20.0443 41.7939 20.1485 41.3163 20.2977C40.5213 20.5462 39.4973 20.7946 38.5451 21.0256C37.2244 21.3461 36.0419 21.633 35.8006 21.8398C35.7178 21.9107 33.52 22.8633 33.3891 22.955C32.4876 23.1922 32.2026 23.0852 31.9456 23.0852C31.7874 22.5119 31.566 21.3179 31.9456 21.128C32.0734 21.0641 32.1582 21.0088 32.244 20.9529C32.4766 20.8011 32.7168 20.6444 33.8434 20.2977C35.0771 19.9182 35.3855 19.3488 35.3855 19.1116C34.4365 19.1907 32.3607 19.4437 31.649 19.8233C31.4064 19.9527 31.2564 20.0468 31.1473 20.1152C31.0476 20.1778 30.982 20.219 30.9111 20.246C30.7752 20.2977 30.6197 20.2977 30.1663 20.2977H27.794L27.1416 21.8398H29.2174L28.8019 23.0852L29.6919 23.441V24.3899C29.0988 24.5085 27.7584 24.6745 27.1416 24.3899C26.5248 24.1053 25.2635 22.9666 24.71 22.4328L23.8203 21.4246C23.8006 21.049 23.8559 20.2977 24.2355 20.2977C24.4595 20.2977 25.6618 19.6235 26.9312 18.9117C28.3503 18.1158 29.8533 17.273 30.1663 17.273C30.3563 17.273 30.7594 17.206 31.3073 17.115C32.4695 16.922 34.2833 16.6206 36.0972 16.6206H40.2487C37.6392 16.3043 32.1472 15.7666 31.056 16.1462C30.4763 16.3478 29.7681 16.5066 29.1089 16.6544C28.2168 16.8544 27.4144 17.0343 27.1416 17.273C26.762 17.6051 25.046 18.6371 24.2355 19.1116C23.1482 18.993 20.9735 18.9692 20.9735 19.8233C20.9735 20.6773 21.5271 21.9188 21.8039 22.4328L23.0493 21.8398C23.2866 22.4131 23.8559 23.6428 24.2355 23.9749C24.6151 24.3069 25.0263 24.5876 25.1844 24.6865V26.1099C25.4809 26.3867 26.0738 27.0114 26.0738 27.2961C26.0738 27.6519 27.3195 28.1857 28.2685 28.1857C28.7429 28.1857 29.2174 27.9188 29.5732 27.7186C29.9291 27.5185 30.1663 27.385 30.1663 27.6519C30.1663 27.9118 30.3069 28.1997 30.4512 28.4953C30.6032 28.8068 30.7594 29.1268 30.7594 29.4312C30.7594 30.0243 30.6408 30.6174 30.1663 30.9139C29.7868 31.1511 29.0986 31.2104 28.8019 31.2104C28.6359 31.0166 28.1468 30.6549 27.6181 30.2639C27.0141 29.8172 26.3584 29.3323 26.0738 29.0161ZM36.0972 27.6519C36.3937 27.1181 36.0972 26.1099 35.8006 25.4575C35.7206 25.2815 35.6536 25.097 35.5856 24.9096C35.4013 24.4022 35.2095 23.8742 34.7331 23.441C34.7154 23.425 34.7096 23.4774 34.7045 23.5245C34.7 23.565 34.696 23.6015 34.6853 23.5876C34.7193 23.6993 34.8318 23.9278 34.9775 24.2236C35.3739 25.0287 36.0159 26.3326 35.9893 27.1374L34.7331 30.0243C35.0889 29.4114 35.8599 28.0789 36.0972 27.6519ZM17.6712 27.5237V26.8822L17.4039 26.6951L19.2534 26.3476L17.6712 27.5237Z" fill="#B8B8B8"/>
<path d="M12.8789 55.7337H13.5449V56.9959H12.8789V58.6878H11.3589V56.9959H8.77002L8.7002 56.013L11.3535 50.8675H12.8789V55.7337ZM10.1772 55.7337H11.3589V53.118L11.3267 53.177L10.1772 55.7337Z" fill="black"/>
<path d="M62.737 55.7337H63.403V56.9959H62.737V58.6878H61.217V56.9959H58.6281L58.5583 56.013L61.2116 50.8675H62.737V55.7337ZM60.0353 55.7337H61.217V53.118L61.1848 53.177L60.0353 55.7337Z" fill="black"/>
<path d="M28.3905 51.9989L21.2969 57.8932L26.7606 55.2103L28.3905 57.8933L34.3146 51.9989L29.1408 54.5993L28.3905 51.9989Z" fill="black"/>
<path d="M47.1906 51.3464L47.9071 53.6371L47.9657 53.8244H48.1619H50.5082L48.6014 55.2634L48.4512 55.3768L48.5074 55.5563L49.2304 57.8676L47.3514 56.4496L47.1906 56.3282L47.0297 56.4496L45.1507 57.8676L45.8737 55.5563L45.9299 55.3768L45.7797 55.2634L43.8729 53.8244H46.2192H46.4155L46.474 53.6371L47.1906 51.3464Z" fill="black" stroke="black" stroke-width="0.534015"/>
<rect x="5.52222" y="63.016" width="62.0196" height="4.64585" fill="#CF0000"/>
</g>
<defs>
<filter id="filter0_d" x="0.541748" y="0.682907" width="72" height="75" filterUnits="userSpaceOnUse" color-interpolation-filters="sRGB">
<feFlood flood-opacity="0" result="BackgroundImageFix"/>
<feColorMatrix in="SourceAlpha" type="matrix" values="0 0 0 0 0 0 0 0 0 0 0 0 0 0 0 0 0 0 127 0"/>
<feOffset dy="3"/>
<feGaussianBlur stdDeviation="2"/>
<feColorMatrix type="matrix" values="0 0 0 0 0 0 0 0 0 0 0 0 0 0 0 0 0 0 0.55 0"/>
<feBlend mode="normal" in2="BackgroundImageFix" result="effect1_dropShadow"/>
<feBlend mode="normal" in="SourceGraphic" in2="effect1_dropShadow" result="shape"/>
</filter>
</defs>
</svg>
