<svg width="73" height="76" viewBox="0 0 73 76" fill="none" xmlns="http://www.w3.org/2000/svg">
<g filter="url(#filter0_d)">
<rect x="4.95825" y="2.18291" width="63" height="66" fill="white" stroke="#C6C6C6"/>
<path d="M22.715 10.0334H22.0021V12.6311H20.5666V5.52171H22.8566C23.576 5.52171 24.1311 5.70889 24.5217 6.08324C24.9156 6.45433 25.1125 6.9833 25.1125 7.67015C25.1125 8.61416 24.7691 9.27497 24.0822 9.65257L25.3273 12.5627V12.6311H23.7844L22.715 10.0334ZM22.0021 8.83714H22.8176C23.104 8.83714 23.3189 8.74274 23.4621 8.55394C23.6053 8.36188 23.677 8.10635 23.677 7.78734C23.677 7.07445 23.3986 6.718 22.842 6.718H22.0021V8.83714ZM29.2924 11.176H27.3344L26.9535 12.6311H25.435L27.6566 5.52171H28.9701L31.2064 12.6311H29.6732L29.2924 11.176ZM27.6469 9.97972H28.975L28.3109 7.44554L27.6469 9.97972ZM36.6461 12.6311H35.2105L33.1109 7.968V12.6311H31.6754V5.52171H33.1109L35.2154 10.1897V5.52171H36.6461V12.6311ZM42.4324 11.8254C42.1557 12.1249 41.8156 12.3511 41.4119 12.5041C41.0115 12.6539 40.5721 12.7287 40.0936 12.7287C39.2765 12.7287 38.6417 12.4765 38.1893 11.9719C37.7368 11.4641 37.504 10.7268 37.491 9.75999V8.4807C37.491 7.50088 37.7042 6.7473 38.1307 6.21996C38.5604 5.68936 39.1854 5.42406 40.0057 5.42406C40.7771 5.42406 41.3582 5.61449 41.7488 5.99535C42.1427 6.37621 42.3706 6.97354 42.4324 7.78734H41.0359C40.9969 7.33486 40.9025 7.02725 40.7527 6.86449C40.603 6.69847 40.3686 6.61546 40.0496 6.61546C39.6622 6.61546 39.3807 6.75706 39.2049 7.04027C39.0291 7.32347 38.938 7.77432 38.9314 8.39281V9.68187C38.9314 10.3297 39.0275 10.8017 39.2195 11.0979C39.4148 11.3909 39.7339 11.5373 40.1766 11.5373C40.4598 11.5373 40.6893 11.4804 40.865 11.3664L40.992 11.2785V9.97484H39.9861V8.89085H42.4324V11.8254ZM46.9199 9.55492H44.6836V11.4397H47.3301V12.6311H43.248V5.52171H47.3203V6.718H44.6836V8.39769H46.9199V9.55492ZM50.1135 10.0334H49.4006V12.6311H47.965V5.52171H50.2551C50.9745 5.52171 51.5295 5.70889 51.9201 6.08324C52.314 6.45433 52.5109 6.9833 52.5109 7.67015C52.5109 8.61416 52.1675 9.27497 51.4807 9.65257L52.7258 12.5627V12.6311H51.1828L50.1135 10.0334ZM49.4006 8.83714H50.216C50.5025 8.83714 50.7173 8.74274 50.8605 8.55394C51.0038 8.36188 51.0754 8.10635 51.0754 7.78734C51.0754 7.07445 50.7971 6.718 50.2404 6.718H49.4006V8.83714Z" fill="black"/>
<path d="M40.6952 19.7234L36.8219 20.682C36.9312 20.0672 37.1785 18.7679 37.2933 18.4892C37.4367 18.1408 38.4819 17.7514 38.8098 17.4645C39.1377 17.1776 40.8181 17.649 41.2329 17.7514C41.6477 17.8539 43.8425 17.4645 44.1175 17.4645C44.3925 17.4645 45.8389 15.8456 45.9004 15.7431C45.9619 15.6406 45.8594 17.1732 45.7365 17.4645C45.6135 17.7559 45.2241 17.8849 44.91 17.8849C44.5959 17.8849 44.138 17.9974 43.9946 18.0588C43.8511 18.1203 42.7445 19.0117 42.4781 19.0117C42.2649 19.0117 41.5592 18.759 41.2329 18.6327L40.6952 19.7234Z" fill="#B21CB2"/>
<path d="M41.4534 42.4456C41.31 42.2817 41.9247 41.6669 42.0477 41.0111C42.4029 41.0453 42.7363 41.3764 43.0314 41.6081C43.4003 41.8977 43.6872 42.6916 43.8425 42.8965C43.9978 43.1014 45.0807 44.9458 45.2856 45.1073C45.4906 45.2688 45.0807 45.3762 44.5479 45.5606C44.015 45.745 44.056 45.8885 44.056 46.0562C44.056 46.224 43.5642 47.3025 43.4617 47.6576C43.3798 47.9416 43.1407 48.8039 43.0314 49.1996C41.6378 49.2503 38.8508 49.3214 38.8508 49.1996C38.8508 49.0473 39.1582 48.1913 39.3836 47.6576C39.609 47.1238 40.3673 46.7492 40.6992 46.4828C41.031 46.2164 41.5969 45.8065 42.0477 45.5606C42.4986 45.3147 42.9494 44.5769 43.1308 44.3363C43.3122 44.0957 43.1308 43.6547 42.765 43.3281C42.3991 43.0014 41.5969 42.6096 41.4534 42.4456Z" fill="#B21CB2"/>
<path d="M27.9854 21.9853H28.7186L28.1851 22.6889L27.9854 21.9853Z" fill="#B21CB2"/>
<path fill-rule="evenodd" clip-rule="evenodd" d="M25.9903 29.0161C25.5633 28.5416 24.0332 26.8809 23.3215 26.1099L20.5339 25.4575L19.1699 24.3899L18.3397 25.4575C17.9245 25.4773 16.9281 25.6354 16.2639 26.1099C15.5996 26.5844 13.8125 27.0984 13.002 27.2961C12.8636 27.217 12.5276 27.1775 12.2904 27.6519C11.9938 28.245 11.8752 29.1939 11.8752 30.0243C11.8752 30.6885 12.8637 31.4081 13.3579 31.6849C13.694 31.2302 14.4373 30.3445 14.722 30.4394C14.8369 30.4777 15.0012 30.5716 15.1931 30.6813C15.5955 30.9113 16.1188 31.2104 16.5605 31.2104C16.8945 31.2104 17.4148 31.0084 17.9228 30.8112C18.4072 30.6231 18.8804 30.4394 19.1699 30.4394C19.2312 30.4394 19.2943 30.4381 19.3587 30.4369C19.9179 30.4257 20.5709 30.4126 20.8901 31.2104C21.068 31.6552 21.2163 31.9518 21.3497 32.2187C21.4831 32.4856 21.6018 32.7228 21.7204 33.049C21.8648 33.446 21.9872 33.887 22.1144 34.3453C22.1962 34.6399 22.2799 34.9416 22.3728 35.2434C22.4743 35.5735 22.5325 35.8384 22.5936 36.1172C22.6753 36.4895 22.7625 36.8866 22.9658 37.4971C23.3215 38.5646 23.6775 39.0984 24.152 39.3356C24.5316 39.5254 25.5357 39.6124 25.9903 39.6322C25.5357 39.6915 24.5316 39.9287 24.152 40.4032C24.0605 40.5176 23.9822 40.6121 23.9112 40.6979C23.6141 41.0567 23.4445 41.2615 22.9658 42.1231C22.7545 42.5036 22.5356 42.8238 22.3414 43.1078C21.9906 43.6209 21.7204 44.0163 21.7204 44.4362C21.7204 44.6632 21.6414 44.8543 21.5658 45.037C21.4243 45.3793 21.295 45.6921 21.7204 46.1561C21.9379 46.3934 22.096 46.6307 22.241 46.8482C22.5307 47.283 22.7678 47.6388 23.3215 47.7574C23.7768 47.855 23.8577 47.8455 24.1018 47.8171C24.3029 47.7937 24.6148 47.7574 25.3382 47.7574H28.185C28.6118 47.7574 26.8997 45.5432 25.9903 44.4362H23.7368C23.6182 43.9617 23.7724 42.989 25.3382 42.8941C26.0783 42.8493 26.6658 42.7281 27.1102 42.6364C27.841 42.4857 28.185 42.4147 28.185 42.8941C28.185 43.315 28.3439 43.7005 28.4883 44.0506C28.6084 44.342 28.7184 44.6089 28.7184 44.8513C28.7184 45.01 28.6765 45.1058 28.641 45.187C28.5571 45.3789 28.5088 45.4893 29.1339 46.1561C29.4934 46.5395 29.727 46.9133 29.9325 47.2422C30.2356 47.7272 30.4777 48.1145 30.9725 48.2912L31.0304 48.3119C31.8333 48.5987 32.4704 48.8264 33.1076 48.8843C33.3551 48.9068 33.7222 49.0318 34.0858 49.1555C34.6803 49.3579 35.2652 49.5571 35.302 49.2994C35.3613 48.8843 35.0647 45.0885 33.7599 45.2072C33.5377 45.2274 33.3085 45.251 33.0801 45.2746C31.9676 45.3894 30.8727 45.5024 30.6759 45.2072C30.4387 44.8513 30.0828 43.9617 30.0828 43.4279V41.708L31.5655 42.8941C31.8621 43.0325 32.5856 43.2263 33.1076 42.8941C33.3677 42.7286 33.477 42.4026 33.5896 42.0668C33.7592 41.5606 33.9365 41.0319 34.6496 40.9963C35.3802 40.9597 35.9083 40.9682 36.6498 40.9801C37.112 40.9875 37.6572 40.9963 38.386 40.9963H40.699C41.0605 40.9963 41.2238 40.7523 41.3747 40.5268C41.6447 40.1233 41.8752 39.7789 43.1306 40.9963C43.962 41.8024 44.4616 42.5444 44.8568 43.1313C45.3919 43.9259 45.7355 44.4362 46.4519 44.4362C46.9357 44.4362 47.3747 44.3735 47.7412 44.3212C48.3182 44.2389 48.7154 44.1822 48.8242 44.4362C48.8853 44.5786 49.079 44.7979 49.3216 45.0724C49.7859 45.5979 50.4291 46.3259 50.6628 47.105C50.7143 47.2767 50.767 47.4608 50.8214 47.6504C51.1425 48.7714 51.5196 50.0876 52.0269 50.1891C52.62 50.3077 56.4157 50.6042 56.3564 50.1891C56.3089 49.8569 55.2295 47.9947 54.6958 47.105C54.3597 47.1446 53.6164 47.1169 53.3317 46.6899C53.2033 46.4973 53.2139 46.351 53.2269 46.1703C53.25 45.8502 53.281 45.4219 52.5607 44.4362C51.5931 43.1121 51.3689 42.3127 51.2497 41.8879C51.2301 41.818 51.2133 41.7583 51.1966 41.708C51.1436 41.5491 50.7832 41.5084 50.3477 41.4593C49.8078 41.3984 49.1525 41.3245 48.8242 40.9963C48.7073 40.8794 48.6112 40.797 48.5326 40.7297C48.2124 40.4556 48.1835 40.4309 48.2312 39.3356C48.2786 38.2444 48.2509 36.9435 48.2312 36.4295C48.8638 36.4295 50.2358 36.5363 50.6628 36.9633C50.7678 37.0683 50.8682 37.2811 50.996 37.5522C51.5182 38.6591 52.4983 40.7367 56.1192 40.4032C60.3297 40.0154 60.607 39.4723 60.9637 38.774C60.9889 38.7248 61.0144 38.6747 61.0417 38.6239C61.1676 38.3901 61.3208 38.1454 61.4632 37.9179C61.7904 37.3952 62.0607 36.9633 61.8128 36.9633C61.7774 36.9633 61.7279 36.9621 61.6658 36.9607C61.1041 36.9473 59.5125 36.9096 58.017 37.4971C56.6526 38.0331 56.1289 37.2478 55.5579 36.3914C55.4339 36.2055 55.3077 36.0163 55.1702 35.8365C54.456 34.9024 54.1489 34.8337 53.4946 34.6872C53.4426 34.6755 53.3884 34.6634 53.3317 34.6503C53.0592 34.5874 52.7571 34.606 52.4071 34.6276C51.7666 34.667 50.9656 34.7163 49.8918 34.2944C48.3662 33.6951 47.9919 33.6964 46.7916 33.7006C46.6853 33.701 46.5725 33.7014 46.4519 33.7014C45.86 33.7014 45.4382 33.8053 45.0998 33.8887C44.5905 34.0143 44.2699 34.0933 43.8423 33.7014C43.1306 33.049 42.1224 31.3883 43.1306 30.9139C43.9372 30.5343 44.6529 30.4394 44.9099 30.4394C44.1982 30.2417 42.9883 29.7633 43.8423 29.4312C44.3944 29.2165 44.883 29.3349 45.3245 29.4418C45.7369 29.5417 46.1082 29.6316 46.4519 29.4312C46.7152 29.2776 46.8405 29.0835 46.9629 28.8938C47.1715 28.5706 47.3717 28.2604 48.2312 28.1857C49.3224 28.0908 49.7929 27.5531 49.8918 27.2961C48.7847 26.9007 46.9027 26.1099 48.2312 26.1099H50.6628C52.0269 26.1099 52.9758 26.0505 53.6282 25.4575C54.1501 24.983 54.8737 24.5481 55.1702 24.3899L51.1966 24.6865L55.5854 23.441L52.5607 23.0852C53.391 22.7689 55.1584 22.077 55.5854 21.8398C55.7757 21.734 56.0187 21.6509 56.2742 21.5636C56.7354 21.4059 57.2372 21.2343 57.5426 20.8908C57.6017 20.8242 57.6793 20.7392 57.7678 20.6423C58.3887 19.9622 59.5445 18.6963 58.6101 19.1116C58.2569 19.2685 57.7675 19.5164 57.2512 19.7778C56.2069 20.3065 55.053 20.8908 54.6958 20.8908C54.2687 20.8908 53.0944 21.049 52.5607 21.128C52.5607 20.8117 52.7742 20.1079 53.6282 19.8233C54.059 19.6797 54.4898 19.6423 54.9089 19.606C55.5283 19.5522 56.1223 19.5007 56.6529 19.1116C57.0789 18.7992 57.4233 18.4052 57.7252 18.0598C58.0538 17.684 58.3319 17.3657 58.6101 17.273C59.1439 17.0951 59.7963 16.4427 59.9742 16.1462C60.1165 15.9089 60.508 15.0984 60.6859 14.7228C60.4487 14.2483 59.9742 13.3468 59.9742 13.5366C59.9742 13.7738 58.4322 15.3751 57.5426 16.1462C56.8309 16.763 55.3482 17.6289 54.6958 17.9847C54.5376 17.708 54.3162 17.0951 54.6958 16.8579L54.7998 16.7931C55.2321 16.5244 55.6247 16.2804 56.1192 15.731C56.4039 15.4147 56.7561 15.1489 57.1129 14.8798C57.4249 14.6444 57.7403 14.4064 58.017 14.1297C58.4915 13.6552 59.994 11.2829 60.6859 10.1561C59.6974 11.2829 57.507 13.6553 56.6529 14.1297C56.2275 14.366 55.7079 14.706 55.1504 15.0707C54.3089 15.6213 53.3811 16.2282 52.5607 16.6206C51.1966 17.273 49.358 17.9847 48.2312 18.3999C47.7539 18.5757 46.968 18.6026 46.189 18.6293C45.1289 18.6655 44.0817 18.7013 43.8423 19.1116C43.5317 19.6441 43.2874 19.7118 42.3889 19.9606C42.0867 20.0443 41.7104 20.1485 41.2328 20.2977C40.4378 20.5462 39.4138 20.7946 38.4616 21.0256C37.1409 21.3461 35.9584 21.633 35.7171 21.8398C35.6344 21.9107 33.4365 22.8633 33.3056 22.955C32.4041 23.1922 32.1191 23.0852 31.8621 23.0852C31.7039 22.5119 31.4825 21.3179 31.8621 21.128C31.9899 21.0641 32.0747 21.0088 32.1605 20.9529C32.3932 20.8011 32.6333 20.6444 33.7599 20.2977C34.9936 19.9182 35.302 19.3488 35.302 19.1116C34.353 19.1907 32.2772 19.4437 31.5655 19.8233C31.3229 19.9527 31.1729 20.0468 31.0638 20.1152C30.9641 20.1778 30.8985 20.219 30.8276 20.246C30.6917 20.2977 30.5362 20.2977 30.0828 20.2977H27.7105L27.0581 21.8398H29.1339L28.7184 23.0852L29.6084 23.441V24.3899C29.0153 24.5085 27.6749 24.6745 27.0581 24.3899C26.4413 24.1053 25.18 22.9666 24.6265 22.4328L23.7368 21.4246C23.7171 21.049 23.7724 20.2977 24.152 20.2977C24.376 20.2977 25.5784 19.6235 26.8477 18.9117C28.2669 18.1158 29.7698 17.273 30.0828 17.273C30.2728 17.273 30.6759 17.206 31.2238 17.115C32.386 16.922 34.1998 16.6206 36.0137 16.6206H40.1652C37.5557 16.3043 32.0637 15.7666 30.9725 16.1462C30.3928 16.3478 29.6846 16.5066 29.0254 16.6544C28.1333 16.8544 27.331 17.0343 27.0581 17.273C26.6785 17.6051 24.9626 18.6371 24.152 19.1116C23.0647 18.993 20.8901 18.9692 20.8901 19.8233C20.8901 20.6773 21.4436 21.9188 21.7204 22.4328L22.9658 21.8398C23.2031 22.4131 23.7724 23.6428 24.152 23.9749C24.5316 24.3069 24.9428 24.5876 25.1009 24.6865V26.1099C25.3974 26.3867 25.9903 27.0114 25.9903 27.2961C25.9903 27.6519 27.236 28.1857 28.185 28.1857C28.6594 28.1857 29.1339 27.9188 29.4898 27.7186C29.8456 27.5185 30.0828 27.385 30.0828 27.6519C30.0828 27.9118 30.2234 28.1997 30.3677 28.4953C30.5197 28.8068 30.6759 29.1268 30.6759 29.4312C30.6759 30.0243 30.5573 30.6174 30.0828 30.9139C29.7033 31.1511 29.0151 31.2104 28.7184 31.2104C28.5524 31.0166 28.0633 30.6549 27.5346 30.2639C26.9306 29.8172 26.2749 29.3323 25.9903 29.0161ZM36.0137 27.6519C36.3102 27.1181 36.0137 26.1099 35.7171 25.4575C35.6371 25.2815 35.5701 25.097 35.5021 24.9096C35.3178 24.4022 35.126 23.8742 34.6496 23.441C34.6319 23.425 34.6261 23.4774 34.621 23.5245C34.6166 23.565 34.6125 23.6015 34.6018 23.5876C34.6358 23.6993 34.7483 23.9278 34.894 24.2236C35.2904 25.0287 35.9324 26.3326 35.9058 27.1374L34.6496 30.0243C35.0054 29.4114 35.7764 28.0789 36.0137 27.6519ZM17.5877 27.5237V26.8822L17.3204 26.6951L19.1699 26.3476L17.5877 27.5237Z" fill="#B21CB2"/>
<path d="M12.7954 55.7337H13.4614V56.9959H12.7954V58.6878H11.2754V56.9959H8.68652L8.6167 56.013L11.27 50.8675H12.7954V55.7337ZM10.0938 55.7337H11.2754V53.118L11.2432 53.177L10.0938 55.7337Z" fill="black"/>
<path d="M62.6535 55.7337H63.3195V56.9959H62.6535V58.6878H61.1335V56.9959H58.5446L58.4748 56.013L61.1281 50.8675H62.6535V55.7337ZM59.9519 55.7337H61.1335V53.118L61.1013 53.177L59.9519 55.7337Z" fill="black"/>
<path d="M28.307 51.9989L21.2134 57.8932L26.6771 55.2103L28.307 57.8933L34.2311 51.9989L29.0573 54.5993L28.307 51.9989Z" fill="black"/>
<path d="M47.1071 51.3464L47.8236 53.6371L47.8822 53.8244H48.0784H50.4247L48.5179 55.2634L48.3677 55.3768L48.4239 55.5563L49.1469 57.8676L47.2679 56.4496L47.1071 56.3282L46.9462 56.4496L45.0672 57.8676L45.7902 55.5563L45.8464 55.3768L45.6962 55.2634L43.7894 53.8244H46.1357H46.332L46.3906 53.6371L47.1071 51.3464Z" fill="black" stroke="black" stroke-width="0.534015"/>
<rect x="5.43872" y="63.016" width="62.0196" height="4.64585" fill="#CF0000"/>
</g>
<defs>
<filter id="filter0_d" x="0.458252" y="0.682907" width="72" height="75" filterUnits="userSpaceOnUse" color-interpolation-filters="sRGB">
<feFlood flood-opacity="0" result="BackgroundImageFix"/>
<feColorMatrix in="SourceAlpha" type="matrix" values="0 0 0 0 0 0 0 0 0 0 0 0 0 0 0 0 0 0 127 0"/>
<feOffset dy="3"/>
<feGaussianBlur stdDeviation="2"/>
<feColorMatrix type="matrix" values="0 0 0 0 0 0 0 0 0 0 0 0 0 0 0 0 0 0 0.55 0"/>
<feBlend mode="normal" in2="BackgroundImageFix" result="effect1_dropShadow"/>
<feBlend mode="normal" in="SourceGraphic" in2="effect1_dropShadow" result="shape"/>
</filter>
</defs>
</svg>
