<svg width="369" height="139" viewBox="0 0 369 139" fill="none" xmlns="http://www.w3.org/2000/svg">
<rect x="135.896" y="1.13531" width="119" height="119" rx="1.5" fill="#F2F2F2" stroke="black"/>
<path d="M164.754 19.0379V6.24103H168.138C169.632 6.24103 170.821 6.71564 171.706 7.66486C172.597 8.61407 173.051 9.91486 173.068 11.5672V13.6414C173.068 15.3231 172.623 16.6443 171.732 17.6053C170.848 18.5604 169.626 19.0379 168.067 19.0379H164.754ZM167.338 8.39435V16.8934H168.111C168.973 16.8934 169.579 16.6678 169.931 16.2166C170.282 15.7596 170.467 14.9744 170.484 13.8611V11.6375C170.484 10.4422 170.317 9.61017 169.983 9.14142C169.649 8.66681 169.081 8.41779 168.278 8.39435H167.338ZM178.808 14.3621H177.524V19.0379H174.941V6.24103H179.063C180.357 6.24103 181.357 6.57794 182.06 7.25177C182.769 7.91974 183.123 8.87189 183.123 10.1082C183.123 11.8074 182.505 12.9969 181.269 13.6766L183.51 18.9149V19.0379H180.732L178.808 14.3621ZM177.524 12.2088H178.992C179.508 12.2088 179.895 12.0389 180.152 11.699C180.41 11.3533 180.539 10.8934 180.539 10.3192C180.539 9.03595 180.038 8.39435 179.036 8.39435H177.524V12.2088ZM191.007 16.4188H187.482L186.797 19.0379H184.064L188.063 6.24103H190.427L194.452 19.0379H191.692L191.007 16.4188ZM188.045 14.2654H190.436L189.24 9.70392L188.045 14.2654ZM204.164 17.5877C203.666 18.1268 203.054 18.534 202.327 18.8094C201.607 19.0789 200.816 19.2137 199.954 19.2137C198.483 19.2137 197.341 18.7596 196.526 17.8514C195.712 16.9373 195.293 15.6102 195.27 13.8699V11.5672C195.27 9.80353 195.653 8.44708 196.421 7.49786C197.194 6.54279 198.319 6.06525 199.796 6.06525C201.185 6.06525 202.231 6.40802 202.934 7.09357C203.643 7.77911 204.053 8.85431 204.164 10.3192H201.65C201.58 9.5047 201.41 8.95099 201.141 8.65802C200.871 8.35919 200.449 8.20978 199.875 8.20978C199.178 8.20978 198.671 8.46466 198.355 8.97443C198.038 9.48419 197.874 10.2957 197.862 11.409V13.7293C197.862 14.8953 198.035 15.7449 198.381 16.2781C198.732 16.8055 199.307 17.0692 200.104 17.0692C200.613 17.0692 201.026 16.9666 201.343 16.7615L201.571 16.6033V14.2567H199.761V12.3055H204.164V17.5877ZM215.001 13.7908C215.001 15.5076 214.594 16.8406 213.779 17.7899C212.971 18.7391 211.846 19.2137 210.404 19.2137C208.969 19.2137 207.841 18.7449 207.021 17.8074C206.2 16.8641 205.784 15.5457 205.773 13.8524V11.6639C205.773 9.90607 206.18 8.53497 206.994 7.5506C207.809 6.56036 208.94 6.06525 210.387 6.06525C211.811 6.06525 212.933 6.55157 213.753 7.52423C214.573 8.49103 214.989 9.8504 215.001 11.6024V13.7908ZM212.408 11.6463C212.408 10.492 212.244 9.63361 211.916 9.07111C211.588 8.50861 211.078 8.22736 210.387 8.22736C209.701 8.22736 209.194 8.49982 208.866 9.04474C208.538 9.5838 208.368 10.407 208.357 11.5145V13.7908C208.357 14.91 208.524 15.7361 208.857 16.2693C209.191 16.7967 209.707 17.0604 210.404 17.0604C211.078 17.0604 211.579 16.8026 211.907 16.2869C212.235 15.7654 212.402 14.9598 212.408 13.8699V11.6463ZM225.803 19.0379H223.219L219.44 10.6443V19.0379H216.856V6.24103H219.44L223.228 14.6434V6.24103H225.803V19.0379Z" fill="black"/>
<path d="M152.312 109.581C151.689 110.24 150.961 110.57 150.128 110.57C149.148 110.57 148.366 110.227 147.784 109.543C147.202 108.853 146.91 107.949 146.91 106.83C146.91 106.095 147.059 105.428 147.355 104.831C147.651 104.233 148.072 103.768 148.619 103.436C149.166 103.104 149.799 102.938 150.519 102.938C151.643 102.938 152.534 103.357 153.193 104.195C153.852 105.032 154.182 106.154 154.182 107.558V108.079C154.182 110.092 153.727 111.627 152.818 112.684C151.909 113.742 150.552 114.278 148.749 114.293H148.527V112.753H148.795C149.893 112.738 150.736 112.475 151.324 111.964C151.911 111.448 152.241 110.654 152.312 109.581ZM150.519 109.114C150.892 109.114 151.242 109.006 151.569 108.792C151.896 108.577 152.149 108.281 152.327 107.903V107.175C152.327 106.353 152.159 105.691 151.822 105.191C151.485 104.69 151.048 104.44 150.512 104.44C149.975 104.44 149.546 104.662 149.224 105.106C148.908 105.546 148.749 106.103 148.749 106.777C148.749 107.477 148.91 108.041 149.232 108.47C149.554 108.899 149.983 109.114 150.519 109.114ZM175.769 116.444C175.664 116.444 175.612 116.392 175.612 116.287C175.612 116.235 175.622 116.204 175.643 116.193L181.088 110.262L175.549 108.63C175.486 108.609 175.455 108.562 175.455 108.488C175.455 108.415 175.476 108.373 175.518 108.363L187.899 100.799C187.92 100.789 187.946 100.784 187.977 100.784C188.008 100.784 188.04 100.794 188.071 100.815C188.113 100.836 188.134 100.873 188.134 100.925C188.134 100.967 188.118 101.003 188.087 101.035L182.658 106.951L188.212 108.347C188.286 108.368 188.322 108.405 188.322 108.457C188.322 108.53 188.296 108.583 188.244 108.614L175.847 116.413C175.826 116.434 175.8 116.444 175.769 116.444ZM204.013 114.514L205.692 109.524L201.644 106.809H206.602L208.376 101.458L210.18 106.809H215.107L211.059 109.524L212.769 114.514L208.376 111.329L204.013 114.514ZM238.434 107.819H239.568C240.14 107.814 240.592 107.666 240.924 107.374C241.261 107.083 241.429 106.662 241.429 106.11C241.429 105.579 241.289 105.168 241.008 104.877C240.732 104.58 240.308 104.432 239.736 104.432C239.236 104.432 238.824 104.578 238.502 104.869C238.181 105.155 238.02 105.53 238.02 105.995H236.158C236.158 105.423 236.309 104.902 236.61 104.432C236.916 103.962 237.34 103.597 237.882 103.337C238.428 103.071 239.039 102.938 239.713 102.938C240.827 102.938 241.7 103.219 242.334 103.781C242.972 104.338 243.291 105.114 243.291 106.11C243.291 106.611 243.13 107.083 242.809 107.528C242.492 107.967 242.081 108.299 241.575 108.524C242.188 108.733 242.653 109.063 242.969 109.512C243.291 109.962 243.452 110.498 243.452 111.121C243.452 112.122 243.107 112.919 242.418 113.512C241.733 114.104 240.832 114.401 239.713 114.401C238.64 114.401 237.762 114.115 237.077 113.542C236.393 112.97 236.051 112.209 236.051 111.259H237.913C237.913 111.749 238.076 112.148 238.403 112.454C238.735 112.761 239.179 112.914 239.736 112.914C240.313 112.914 240.768 112.761 241.1 112.454C241.432 112.148 241.598 111.704 241.598 111.121C241.598 110.534 241.424 110.082 241.077 109.765C240.73 109.448 240.214 109.29 239.529 109.29H238.434V107.819Z" fill="black"/>
<path fill-rule="evenodd" clip-rule="evenodd" d="M173.899 43.5665C174.696 43.6993 176.147 44.2997 175.573 45.6386C174.999 46.9775 171.668 49.7562 170.074 50.9782L166.567 56.2382C165.664 56.6367 163.857 57.5612 163.857 58.0712C163.857 58.5813 163.432 60.6747 163.22 61.6576C161.714 61.2959 158.542 60.4748 157.907 60.0837C157.272 59.6927 156.379 57.8026 156.013 56.9064H160.779L162.123 53.7901L163.857 53.1791L164.873 50.9782L169.272 48.5964L162.795 49.6962V51.7737H160.779L159.74 55.4399H154.913C153.182 54.8696 149.866 53.1058 150.452 50.6128C151.186 47.4965 152.53 44.1473 155.218 45.6386C157.369 46.8316 159.822 45.7042 160.779 44.9913C160.514 44.3395 160.009 42.8038 160.107 41.8751C160.204 40.9463 160.881 38.9625 161.207 38.0867L154.662 32.9742L150.452 26.0408L161.207 35.504L155.553 24.9633L165.25 34.7076C166.218 36.0234 168.211 38.5413 168.436 38.0867C168.717 37.5184 172.324 31.6157 172.371 31.8967C172.418 32.1778 174.479 35.9725 174.9 35.504C175.238 35.1292 178.945 32.7244 180.756 31.5688C180.46 33.3959 180.185 36.7408 181.459 35.504C182.733 34.2672 185.707 33.4583 187.034 33.2085C186.081 34.5202 184.589 37.1436 186.238 37.1436C187.887 37.1436 191.235 37.7723 192.703 38.0867C191.906 38.8811 190.435 40.526 190.922 40.7509C191.41 40.9758 192.312 43.0933 192.703 44.1239C192.89 45.554 192.867 48.6706 191.273 49.6962C189.679 50.7218 188.643 54.9303 188.324 56.9064C189.652 56.5876 192.468 55.673 193.106 54.5646C193.744 53.4562 195.284 50.8572 195.975 49.6962L197.728 52.3331L198.924 48.1889L201.155 51.7737L203.945 52.3331C204.635 51.5628 205.873 49.4325 205.3 47.0731C204.802 45.0287 203.692 43.6569 202.978 42.7747C202.662 42.3842 202.424 42.0896 202.351 41.8751C202.155 41.3014 200.297 39.4552 199.371 38.5352L199.371 38.5349C199.168 38.3332 199.01 38.1761 198.924 38.0867C198.446 37.5892 197.888 37.1436 196.931 37.1436C196.166 37.1436 195.975 39.5485 195.975 40.7509C194.594 38.8518 192.421 34.6378 194.78 32.9742C197.139 31.3106 197.994 30.4697 198.127 30.2572C198.419 31.1629 199.338 32.9742 200.677 32.9742C202.351 32.9742 225.861 32.2247 228.89 31.8967C231.312 31.6344 235.744 34.6792 237.656 36.2344L232.317 35.504C234.654 36.7301 239.41 40.1706 239.728 44.1239C240.047 48.0772 239.383 55.7069 239.011 59.0276C238.32 55.3876 236.477 47.4843 234.628 44.9913C232.317 41.8751 230.005 39.6267 228.89 40.7509C228.247 41.3985 229.085 42.5406 230.14 43.9779C230.916 45.0357 231.81 46.2534 232.317 47.5513C233.273 50.0005 233.3 55.2663 233.193 57.5931C230.988 52.2557 226.1 42.3925 224.188 45.6386C222.365 48.732 225.801 53.575 228.014 55.911C225.383 53.2357 220.081 48.5814 217.573 49.0655C214.305 49.6962 214.704 51.7936 216.138 53.1791C217.286 54.2875 218.529 56.1258 219.007 56.9064L221.079 56.2382L222.036 61.6576L227.694 60.0837L227.136 63.3312H231.679L230.005 66.28H233.831L231.679 70.0257H238.453L236.78 74.6481C238.002 75.2904 240.302 77.5242 239.728 81.3204C239.011 86.0657 237.577 90.6753 234.628 91.8955C232.346 92.8399 222.239 92.3226 216.725 92.0404H216.725C215.114 91.9579 213.895 91.8955 213.378 91.8955C212.919 91.8955 212.319 91.8636 211.658 91.8284H211.658C209.02 91.688 205.416 91.4961 205.998 93.0752C206.58 94.6552 207.21 95.8818 207.453 96.2976L198.924 95.6739L203.945 87.566L205.3 89.6449H217.573C217.839 89.6449 218.226 89.6596 218.702 89.6776L218.703 89.6776C222.622 89.8262 232.612 90.2049 231.679 84.5515C230.842 79.4788 226.336 78.3492 224.188 78.4185C225.171 79.3541 227.136 81.5578 227.136 82.8883C227.136 84.2188 225.171 86.5611 224.188 87.566L205.998 87.0462L202.351 85.7988L198.924 91.8955L196.931 89.2291L194.148 91.8955V88.5015H192.703L194.148 85.7988C194.236 85.0366 194.917 83.3873 196.931 82.8883C198.945 82.3894 203.815 83.7892 205.998 84.5515H216.138C217.748 83.896 220.155 82.4587 216.912 81.9528C214.908 81.6402 213.133 81.916 211.712 82.1368C210.258 82.3627 209.175 82.531 208.596 81.9528C207.453 80.8093 206.309 76.6514 207.453 75.1962C208.368 74.0319 212.131 71.2641 213.898 70.0257C210.58 71.472 203.945 74.6764 203.945 75.9238C203.945 77.1712 204.482 80.0413 204.75 81.3204L195.395 80.6015L194.148 75.9238L191.273 83.8238L188.324 90.4765L187.034 93.5949H182.609V95.6739L179.595 91.8955L178.659 95.6739L176.372 91.8955H173.899L171.799 93.5949L171.071 89.2291C171.82 87.2541 173.769 83.5536 175.573 84.5515C177.377 85.5494 179.78 85.7988 180.756 85.7988L182.609 82.8883L184.169 79.8738L188.324 78.4185L187.599 74.6481L186.238 77.483L183.649 78.4185L181.459 71.6619V78.9383C178.045 78.798 170.827 76.3563 169.272 67.7119C167.329 56.9064 174.773 52.3331 175.573 52.3331C176.372 52.3331 183.76 47.1533 182.609 45.6386C182.314 45.2498 182.061 44.8126 181.809 44.3775C181.079 43.1175 180.359 41.8751 178.659 41.8751C176.83 41.8751 174.724 43.0027 173.899 43.5665ZM228.332 56.2382C228.231 56.133 228.125 56.0238 228.014 55.911C228.123 56.0264 228.229 56.1356 228.332 56.2382ZM163.873 41.4438H166.957L164.121 43.5091L163.873 41.4438ZM180.897 64.2683C179.81 65.0179 180.101 67.9849 180.382 69.3747C179.96 68.2503 179.07 65.3645 178.882 62.816C178.695 60.2675 180.834 57.5067 181.928 56.4448C181.803 56.9133 181.422 58.0001 180.897 58.5998C180.372 59.1994 180.491 61.3169 180.616 62.3007L186.659 61.6917C185.191 62.2383 181.984 63.5188 180.897 64.2683ZM169.096 74.7803L172.838 78.2105C171.591 78.9035 168.722 80.2479 167.225 80.0816C166.07 79.9533 164.995 78.8355 164.072 77.8761L164.072 77.8761C163.499 77.2807 162.985 76.7464 162.547 76.5474C161.633 76.1316 157.523 76.3741 155.583 76.5474L154.751 81.5369L151.841 75.7158L153.4 71.8697L149.346 73.221L151.217 68.7513L155.583 67.8158V65.5289L151.841 63.5539H159.637L160.676 68.7513L163.691 71.0381L167.953 71.8697L169.096 74.7803ZM161.594 71.3721H161.594L161.65 71.3722L159.559 72.7657L157.659 73.9903V71.52C157.659 71.36 161.089 71.3705 161.594 71.3721Z" fill="black"/>
<path d="M81.3934 7.07356H77.9148V16.6664H75.9916V7.07356H72.5437V5.5105H81.3934V7.07356ZM84.9562 14.0001L86.6419 8.37611H88.6264L85.3317 17.923C84.826 19.3175 83.9678 20.0148 82.7572 20.0148C82.4865 20.0148 82.1877 19.9688 81.8608 19.8768V18.4364L82.2132 18.4594C82.6832 18.4594 83.0356 18.3725 83.2706 18.1989C83.5107 18.0303 83.6997 17.7442 83.8376 17.3407L84.1058 16.6281L81.1942 8.37611H83.2016L84.9562 14.0001ZM96.9627 12.6056C96.9627 13.8877 96.6715 14.9118 96.0892 15.678C95.5069 16.4391 94.7253 16.8197 93.7446 16.8197C92.8354 16.8197 92.1075 16.5209 91.5609 15.9232V19.8539H89.699V8.37611H91.4153L91.492 9.21893C92.0385 8.55489 92.7817 8.22287 93.7216 8.22287C94.733 8.22287 95.5248 8.60086 96.0969 9.35685C96.6741 10.1077 96.9627 11.1523 96.9627 12.4906V12.6056ZM95.1085 12.4447C95.1085 11.6172 94.9424 10.9608 94.6104 10.4755C94.2835 9.99025 93.8136 9.74762 93.2006 9.74762C92.4395 9.74762 91.8929 10.0618 91.5609 10.69V14.3678C91.8981 15.0114 92.4497 15.3332 93.2159 15.3332C93.8085 15.3332 94.2707 15.0957 94.6028 14.6207C94.9399 14.1405 95.1085 13.4152 95.1085 12.4447ZM102.196 16.8197C101.016 16.8197 100.058 16.4494 99.3226 15.7087C98.5921 14.9629 98.2269 13.972 98.2269 12.7358V12.506C98.2269 11.6785 98.3853 10.9403 98.702 10.2916C99.0238 9.63779 99.4733 9.12954 100.05 8.76687C100.628 8.4042 101.271 8.22287 101.981 8.22287C103.11 8.22287 103.981 8.58298 104.594 9.30322C105.212 10.0234 105.521 11.0425 105.521 12.3604V13.1113H100.104C100.16 13.7957 100.388 14.3372 100.786 14.7356C101.19 15.134 101.695 15.3332 102.303 15.3332C103.156 15.3332 103.851 14.9885 104.387 14.2989L105.391 15.2566C105.059 15.7521 104.614 16.1378 104.058 16.4136C103.506 16.6843 102.885 16.8197 102.196 16.8197ZM101.974 9.71697C101.463 9.71697 101.049 9.89575 100.732 10.2533C100.421 10.6109 100.222 11.1089 100.135 11.7474H103.682V11.6095C103.641 10.9863 103.475 10.5164 103.184 10.1997C102.893 9.87787 102.49 9.71697 101.974 9.71697Z" fill="black"/>
<path d="M17.5158 74.4901V78.6353H15.5773V67.4793H19.845C21.0914 67.4793 22.0798 67.8037 22.8102 68.4524C23.5458 69.1011 23.9136 69.9593 23.9136 71.0268C23.9136 72.12 23.5534 72.9704 22.8332 73.5783C22.1181 74.1862 21.1144 74.4901 19.822 74.4901H17.5158ZM17.5158 72.9347H19.845C20.5346 72.9347 21.0607 72.7738 21.4234 72.452C21.7861 72.1251 21.9674 71.6551 21.9674 71.0422C21.9674 70.4394 21.7835 69.9593 21.4157 69.6017C21.048 69.239 20.5423 69.0526 19.8987 69.0424H17.5158V72.9347ZM24.9786 74.4135C24.9786 73.6013 25.1395 72.8708 25.4613 72.2221C25.7831 71.5683 26.2352 71.0677 26.8175 70.7204C27.3998 70.3679 28.0689 70.1917 28.8249 70.1917C29.9436 70.1917 30.8503 70.5518 31.545 71.272C32.2448 71.9923 32.6228 72.9475 32.6789 74.1376L32.6866 74.5744C32.6866 75.3917 32.5283 76.1221 32.2116 76.7657C31.9 77.4093 31.4505 77.9074 30.863 78.2598C30.2807 78.6123 29.6065 78.7885 28.8403 78.7885C27.6705 78.7885 26.7332 78.4003 26.0283 77.6239C25.3285 76.8423 24.9786 75.8029 24.9786 74.5054V74.4135ZM26.8405 74.5744C26.8405 75.4274 27.0167 76.0966 27.3691 76.5818C27.7216 77.062 28.212 77.3021 28.8403 77.3021C29.4685 77.3021 29.9564 77.0569 30.3037 76.5665C30.6562 76.0761 30.8324 75.3585 30.8324 74.4135C30.8324 73.5757 30.6511 72.9117 30.2884 72.4213C29.9308 71.931 29.443 71.6858 28.8249 71.6858C28.2171 71.6858 27.7344 71.9284 27.3768 72.4137C27.0192 72.8938 26.8405 73.6141 26.8405 74.5744ZM41.5439 76.0685L42.8618 70.3449H44.6777L42.4174 78.6353H40.885L39.1074 72.9424L37.3605 78.6353H35.828L33.5601 70.3449H35.376L36.7168 76.0072L38.4178 70.3449H39.82L41.5439 76.0685ZM49.5738 78.7885C48.3938 78.7885 47.436 78.4182 46.7005 77.6775C45.97 76.9317 45.6048 75.9408 45.6048 74.7046V74.4748C45.6048 73.6473 45.7632 72.9092 46.0799 72.2604C46.4017 71.6066 46.8512 71.0984 47.4284 70.7357C48.0056 70.373 48.6492 70.1917 49.3592 70.1917C50.4881 70.1917 51.359 70.5518 51.972 71.272C52.59 71.9923 52.8991 73.0113 52.8991 74.3292V75.0801H47.482C47.5382 75.7645 47.7655 76.306 48.1639 76.7044C48.5675 77.1028 49.0732 77.3021 49.681 77.3021C50.5341 77.3021 51.2288 76.9573 51.7651 76.2677L52.7688 77.2254C52.4368 77.7209 51.9924 78.1066 51.4356 78.3824C50.884 78.6531 50.2633 78.7885 49.5738 78.7885ZM49.3516 71.6858C48.8408 71.6858 48.427 71.8646 48.1103 72.2221C47.7987 72.5797 47.5995 73.0777 47.5127 73.7162H51.0602V73.5783C51.0193 72.9551 50.8533 72.4852 50.5622 72.1685C50.271 71.8467 49.8675 71.6858 49.3516 71.6858ZM58.6916 72.0459C58.4464 72.005 58.1936 71.9846 57.933 71.9846C57.08 71.9846 56.5054 72.3115 56.2091 72.9653V78.6353H54.3472V70.3449H56.1248L56.1708 71.272C56.6203 70.5518 57.2435 70.1917 58.0403 70.1917C58.3059 70.1917 58.5256 70.2274 58.6993 70.2989L58.6916 72.0459ZM63.4804 74.6433H59.4578V73.1416H63.4804V74.6433ZM65.6717 78.6353V71.7241H64.4075V70.3449H65.6717V69.5864C65.6717 68.6669 65.9271 67.9569 66.4379 67.4563C66.9487 66.9557 67.6638 66.7054 68.5833 66.7054C68.9102 66.7054 69.2576 66.7514 69.6253 66.8434L69.5794 68.2992C69.375 68.2583 69.1375 68.2379 68.8668 68.2379C67.978 68.2379 67.5336 68.695 67.5336 69.6094V70.3449H69.2192V71.7241H67.5336V78.6353H65.6717ZM75.5328 78.6353C75.451 78.4769 75.3795 78.2189 75.3182 77.8614C74.7257 78.4795 74.0004 78.7885 73.1422 78.7885C72.3096 78.7885 71.6302 78.551 71.1041 78.0759C70.578 77.6009 70.3149 77.0135 70.3149 76.3137C70.3149 75.43 70.6418 74.7532 71.2957 74.2832C71.9546 73.8082 72.8945 73.5706 74.1153 73.5706H75.2569V73.0266C75.2569 72.5976 75.1369 72.2553 74.8968 71.9999C74.6567 71.7394 74.2915 71.6092 73.8011 71.6092C73.3772 71.6092 73.0298 71.7164 72.7591 71.931C72.4884 72.1404 72.353 72.4086 72.353 72.7355H70.4911C70.4911 72.2809 70.6418 71.8569 70.9432 71.4636C71.2446 71.0652 71.6532 70.7536 72.1691 70.5288C72.6901 70.3041 73.2699 70.1917 73.9084 70.1917C74.8789 70.1917 75.6528 70.4369 76.23 70.9272C76.8072 71.4125 77.1035 72.097 77.1188 72.9807V76.7197C77.1188 77.4655 77.2235 78.0606 77.433 78.505V78.6353H75.5328ZM73.487 77.2944C73.8548 77.2944 74.1996 77.205 74.5214 77.0262C74.8483 76.8474 75.0935 76.6074 75.2569 76.306V74.7429H74.2532C73.5636 74.7429 73.0452 74.863 72.6978 75.1031C72.3505 75.3431 72.1768 75.6828 72.1768 76.1221C72.1768 76.4797 72.2943 76.7657 72.5292 76.9803C72.7693 77.1897 73.0886 77.2944 73.487 77.2944ZM82.4746 77.3021C82.9394 77.3021 83.3251 77.1667 83.6315 76.896C83.938 76.6252 84.1015 76.2907 84.1219 75.8922H85.8765C85.8561 76.4082 85.6952 76.8909 85.3938 77.3404C85.0924 77.7848 84.6838 78.1372 84.1679 78.3977C83.652 78.6582 83.0952 78.7885 82.4976 78.7885C81.338 78.7885 80.4186 78.4131 79.7392 77.6622C79.0599 76.9113 78.7202 75.8744 78.7202 74.5514V74.3598C78.7202 73.0981 79.0573 72.0893 79.7316 71.3333C80.4058 70.5722 81.3253 70.1917 82.4899 70.1917C83.4758 70.1917 84.2777 70.4803 84.8958 71.0575C85.519 71.6296 85.8459 72.383 85.8765 73.3178H84.1219C84.1015 72.8427 83.938 72.452 83.6315 72.1455C83.3302 71.839 82.9445 71.6858 82.4746 71.6858C81.8718 71.6858 81.407 71.9054 81.0801 72.3447C80.7532 72.7789 80.5872 73.4404 80.5821 74.3292V74.628C80.5821 75.527 80.743 76.1987 81.0648 76.6431C81.3917 77.0824 81.8616 77.3021 82.4746 77.3021ZM89.6156 68.3298V70.3449H91.0791V71.7241H89.6156V76.352C89.6156 76.6687 89.6769 76.8985 89.7995 77.0415C89.9272 77.1795 90.152 77.2484 90.4738 77.2484C90.6883 77.2484 90.9054 77.2229 91.125 77.1718V78.6123C90.7011 78.7298 90.2924 78.7885 89.8991 78.7885C88.4689 78.7885 87.7537 77.9993 87.7537 76.4209V71.7241H86.3899V70.3449H87.7537V68.3298H89.6156ZM91.9295 74.4135C91.9295 73.6013 92.0904 72.8708 92.4123 72.2221C92.7341 71.5683 93.1861 71.0677 93.7684 70.7204C94.3507 70.3679 95.0199 70.1917 95.7759 70.1917C96.8945 70.1917 97.8012 70.5518 98.4959 71.272C99.1957 71.9923 99.5737 72.9475 99.6299 74.1376L99.6376 74.5744C99.6376 75.3917 99.4792 76.1221 99.1625 76.7657C98.8509 77.4093 98.4014 77.9074 97.814 78.2598C97.2317 78.6123 96.5574 78.7885 95.7912 78.7885C94.6215 78.7885 93.6842 78.4003 92.9792 77.6239C92.2794 76.8423 91.9295 75.8029 91.9295 74.5054V74.4135ZM93.7914 74.5744C93.7914 75.4274 93.9676 76.0966 94.3201 76.5818C94.6726 77.062 95.1629 77.3021 95.7912 77.3021C96.4195 77.3021 96.9073 77.0569 97.2547 76.5665C97.6071 76.0761 97.7833 75.3585 97.7833 74.4135C97.7833 73.5757 97.602 72.9117 97.2393 72.4213C96.8818 71.931 96.394 71.6858 95.7759 71.6858C95.168 71.6858 94.6853 71.9284 94.3278 72.4137C93.9702 72.8938 93.7914 73.6141 93.7914 74.5744ZM105.553 72.0459C105.307 72.005 105.055 71.9846 104.794 71.9846C103.941 71.9846 103.366 72.3115 103.07 72.9653V78.6353H101.208V70.3449H102.986L103.032 71.272C103.481 70.5518 104.105 70.1917 104.901 70.1917C105.167 70.1917 105.387 70.2274 105.56 70.2989L105.553 72.0459Z" fill="black"/>
<path d="M298.551 75.762C298.551 75.2716 298.377 74.8936 298.03 74.628C297.688 74.3624 297.067 74.0942 296.168 73.8235C295.269 73.5528 294.554 73.2514 294.023 72.9194C293.006 72.2809 292.498 71.4483 292.498 70.4215C292.498 69.5225 292.863 68.7819 293.594 68.1995C294.329 67.6172 295.282 67.3261 296.451 67.3261C297.228 67.3261 297.92 67.4691 298.528 67.7551C299.136 68.0412 299.613 68.4498 299.961 68.9811C300.308 69.5072 300.482 70.0921 300.482 70.7357H298.551C298.551 70.1534 298.367 69.6988 297.999 69.3718C297.637 69.0398 297.115 68.8738 296.436 68.8738C295.803 68.8738 295.31 69.0092 294.957 69.2799C294.61 69.5506 294.436 69.9286 294.436 70.4139C294.436 70.8225 294.625 71.1648 295.003 71.4406C295.381 71.7113 296.004 71.9769 296.873 72.2374C297.741 72.4928 298.438 72.7866 298.965 73.1186C299.491 73.4455 299.876 73.8235 300.122 74.2526C300.367 74.6765 300.489 75.1746 300.489 75.7467C300.489 76.6763 300.132 77.417 299.417 77.9687C298.707 78.5152 297.741 78.7885 296.52 78.7885C295.713 78.7885 294.97 78.6404 294.291 78.3441C293.616 78.0427 293.09 77.629 292.712 77.1028C292.339 76.5767 292.153 75.9638 292.153 75.264H294.092C294.092 75.8973 294.301 76.3877 294.72 76.7351C295.139 77.0824 295.739 77.2561 296.52 77.2561C297.195 77.2561 297.7 77.1207 298.037 76.85C298.38 76.5742 298.551 76.2115 298.551 75.762ZM304.703 75.0801L303.876 75.9306V78.6353H302.014V66.8664H303.876V73.6549L304.458 72.927L306.749 70.3449H308.987L305.906 73.8005L309.316 78.6353H307.163L304.703 75.0801ZM312.189 78.6353H310.327V70.3449H312.189V78.6353ZM310.212 68.1919C310.212 67.9058 310.302 67.6683 310.481 67.4793C310.665 67.2903 310.925 67.1958 311.262 67.1958C311.599 67.1958 311.86 67.2903 312.044 67.4793C312.228 67.6683 312.32 67.9058 312.32 68.1919C312.32 68.4728 312.228 68.7078 312.044 68.8968C311.86 69.0807 311.599 69.1726 311.262 69.1726C310.925 69.1726 310.665 69.0807 310.481 68.8968C310.302 68.7078 310.212 68.4728 310.212 68.1919ZM316.204 78.6353H314.342V66.8664H316.204V78.6353ZM320.219 78.6353H318.357V66.8664H320.219V78.6353ZM325.866 74.6433H321.843V73.1416H325.866V74.6433ZM328.057 78.6353V71.7241H326.793V70.3449H328.057V69.5864C328.057 68.6669 328.313 67.9569 328.824 67.4563C329.334 66.9557 330.05 66.7054 330.969 66.7054C331.296 66.7054 331.643 66.7514 332.011 66.8434L331.965 68.2992C331.761 68.2583 331.523 68.2379 331.252 68.2379C330.364 68.2379 329.919 68.695 329.919 69.6094V70.3449H331.605V71.7241H329.919V78.6353H328.057ZM337.918 78.6353C337.837 78.4769 337.765 78.2189 337.704 77.8614C337.111 78.4795 336.386 78.7885 335.528 78.7885C334.695 78.7885 334.016 78.551 333.49 78.0759C332.964 77.6009 332.701 77.0135 332.701 76.3137C332.701 75.43 333.027 74.7532 333.681 74.2832C334.34 73.8082 335.28 73.5706 336.501 73.5706H337.643V73.0266C337.643 72.5976 337.523 72.2553 337.282 71.9999C337.042 71.7394 336.677 71.6092 336.187 71.6092C335.763 71.6092 335.416 71.7164 335.145 71.931C334.874 72.1404 334.739 72.4086 334.739 72.7355H332.877C332.877 72.2809 333.027 71.8569 333.329 71.4636C333.63 71.0652 334.039 70.7536 334.555 70.5288C335.076 70.3041 335.656 70.1917 336.294 70.1917C337.265 70.1917 338.038 70.4369 338.616 70.9272C339.193 71.4125 339.489 72.097 339.504 72.9807V76.7197C339.504 77.4655 339.609 78.0606 339.819 78.505V78.6353H337.918ZM335.873 77.2944C336.24 77.2944 336.585 77.205 336.907 77.0262C337.234 76.8474 337.479 76.6074 337.643 76.306V74.7429H336.639C335.949 74.7429 335.431 74.863 335.083 75.1031C334.736 75.3431 334.562 75.6828 334.562 76.1221C334.562 76.4797 334.68 76.7657 334.915 76.9803C335.155 77.1897 335.474 77.2944 335.873 77.2944ZM344.86 77.3021C345.325 77.3021 345.711 77.1667 346.017 76.896C346.324 76.6252 346.487 76.2907 346.508 75.8922H348.262C348.242 76.4082 348.081 76.8909 347.779 77.3404C347.478 77.7848 347.069 78.1372 346.554 78.3977C346.038 78.6582 345.481 78.7885 344.883 78.7885C343.724 78.7885 342.804 78.4131 342.125 77.6622C341.446 76.9113 341.106 75.8744 341.106 74.5514V74.3598C341.106 73.0981 341.443 72.0893 342.117 71.3333C342.792 70.5722 343.711 70.1917 344.876 70.1917C345.861 70.1917 346.663 70.4803 347.281 71.0575C347.905 71.6296 348.232 72.383 348.262 73.3178H346.508C346.487 72.8427 346.324 72.452 346.017 72.1455C345.716 71.839 345.33 71.6858 344.86 71.6858C344.258 71.6858 343.793 71.9054 343.466 72.3447C343.139 72.7789 342.973 73.4404 342.968 74.3292V74.628C342.968 75.527 343.129 76.1987 343.45 76.6431C343.777 77.0824 344.247 77.3021 344.86 77.3021ZM352.001 68.3298V70.3449H353.465V71.7241H352.001V76.352C352.001 76.6687 352.063 76.8985 352.185 77.0415C352.313 77.1795 352.538 77.2484 352.859 77.2484C353.074 77.2484 353.291 77.2229 353.511 77.1718V78.6123C353.087 78.7298 352.678 78.7885 352.285 78.7885C350.855 78.7885 350.139 77.9993 350.139 76.4209V71.7241H348.776V70.3449H350.139V68.3298H352.001ZM354.315 74.4135C354.315 73.6013 354.476 72.8708 354.798 72.2221C355.12 71.5683 355.572 71.0677 356.154 70.7204C356.736 70.3679 357.406 70.1917 358.162 70.1917C359.28 70.1917 360.187 70.5518 360.882 71.272C361.581 71.9923 361.959 72.9475 362.016 74.1376L362.023 74.5744C362.023 75.3917 361.865 76.1221 361.548 76.7657C361.237 77.4093 360.787 77.9074 360.2 78.2598C359.617 78.6123 358.943 78.7885 358.177 78.7885C357.007 78.7885 356.07 78.4003 355.365 77.6239C354.665 76.8423 354.315 75.8029 354.315 74.5054V74.4135ZM356.177 74.5744C356.177 75.4274 356.353 76.0966 356.706 76.5818C357.058 77.062 357.549 77.3021 358.177 77.3021C358.805 77.3021 359.293 77.0569 359.64 76.5665C359.993 76.0761 360.169 75.3585 360.169 74.4135C360.169 73.5757 359.988 72.9117 359.625 72.4213C359.267 71.931 358.78 71.6858 358.162 71.6858C357.554 71.6858 357.071 71.9284 356.713 72.4137C356.356 72.8938 356.177 73.6141 356.177 74.5744ZM367.938 72.0459C367.693 72.005 367.44 71.9846 367.18 71.9846C366.327 71.9846 365.752 72.3115 365.456 72.9653V78.6353H363.594V70.3449H365.372L365.418 71.272C365.867 70.5518 366.49 70.1917 367.287 70.1917C367.553 70.1917 367.772 70.2274 367.946 70.2989L367.938 72.0459Z" fill="black"/>
<path d="M10.0454 108.62C9.93299 109.81 9.4937 110.739 8.72749 111.409C7.96129 112.073 6.94224 112.405 5.67034 112.405C4.78154 112.405 3.99746 112.195 3.31809 111.776C2.64383 111.352 2.12281 110.752 1.75503 109.976C1.38725 109.199 1.1957 108.298 1.18038 107.271V106.229C1.18038 105.177 1.36682 104.25 1.73971 103.448C2.11259 102.646 2.64638 102.028 3.34108 101.594C4.04088 101.159 4.84794 100.942 5.76228 100.942C6.99332 100.942 7.98427 101.277 8.73516 101.946C9.48604 102.615 9.92277 103.56 10.0454 104.781H8.11453C8.02259 103.979 7.78762 103.402 7.40962 103.049C7.03674 102.692 6.48762 102.513 5.76228 102.513C4.91946 102.513 4.27074 102.822 3.81612 103.44C3.36662 104.053 3.13675 104.955 3.12654 106.145V107.133C3.12654 108.339 3.34108 109.258 3.77015 109.892C4.20433 110.525 4.83773 110.842 5.67034 110.842C6.43143 110.842 7.00353 110.671 7.38664 110.328C7.76974 109.986 8.01237 109.417 8.11453 108.62H10.0454ZM16.5581 112.251C16.4764 112.093 16.4049 111.835 16.3436 111.478C15.751 112.096 15.0257 112.405 14.1675 112.405C13.3349 112.405 12.6556 112.167 12.1294 111.692C11.6033 111.217 11.3403 110.63 11.3403 109.93C11.3403 109.046 11.6672 108.369 12.321 107.899C12.9799 107.424 13.9198 107.187 15.1406 107.187H16.2823V106.643C16.2823 106.214 16.1622 105.872 15.9222 105.616C15.6821 105.356 15.3169 105.225 14.8265 105.225C14.4025 105.225 14.0552 105.333 13.7844 105.547C13.5137 105.757 13.3784 106.025 13.3784 106.352H11.5165C11.5165 105.897 11.6672 105.473 11.9685 105.08C12.2699 104.681 12.6786 104.37 13.1945 104.145C13.7155 103.92 14.2952 103.808 14.9338 103.808C15.9043 103.808 16.6781 104.053 17.2554 104.543C17.8326 105.029 18.1288 105.713 18.1441 106.597V110.336C18.1441 111.082 18.2489 111.677 18.4583 112.121V112.251H16.5581ZM14.5123 110.911C14.8801 110.911 15.2249 110.821 15.5467 110.642C15.8736 110.464 16.1188 110.224 16.2823 109.922V108.359H15.2785C14.589 108.359 14.0705 108.479 13.7231 108.719C13.3758 108.959 13.2021 109.299 13.2021 109.738C13.2021 110.096 13.3196 110.382 13.5546 110.596C13.7947 110.806 14.1139 110.911 14.5123 110.911ZM21.8219 103.961L21.8756 104.919C22.4885 104.178 23.293 103.808 24.2891 103.808C26.0156 103.808 26.8942 104.796 26.9249 106.773V112.251H25.063V106.88C25.063 106.354 24.948 105.966 24.7182 105.716C24.4934 105.46 24.1231 105.333 23.6072 105.333C22.8563 105.333 22.297 105.672 21.9292 106.352V112.251H20.0673V103.961H21.8219ZM37.0771 105.662C36.8319 105.621 36.579 105.601 36.3185 105.601C35.4655 105.601 34.8908 105.928 34.5946 106.582V112.251H32.7327V103.961H34.5103L34.5562 104.888C35.0058 104.168 35.6289 103.808 36.4258 103.808C36.6914 103.808 36.9111 103.844 37.0847 103.915L37.0771 105.662ZM42.9768 112.251C42.8951 112.093 42.8236 111.835 42.7623 111.478C42.1698 112.096 41.4444 112.405 40.5863 112.405C39.7537 112.405 39.0743 112.167 38.5482 111.692C38.022 111.217 37.759 110.63 37.759 109.93C37.759 109.046 38.0859 108.369 38.7397 107.899C39.3987 107.424 40.3385 107.187 41.5594 107.187H42.701V106.643C42.701 106.214 42.581 105.872 42.3409 105.616C42.1008 105.356 41.7356 105.225 41.2452 105.225C40.8212 105.225 40.4739 105.333 40.2032 105.547C39.9325 105.757 39.7971 106.025 39.7971 106.352H37.9352C37.9352 105.897 38.0859 105.473 38.3873 105.08C38.6886 104.681 39.0973 104.37 39.6132 104.145C40.1342 103.92 40.714 103.808 41.3525 103.808C42.323 103.808 43.0969 104.053 43.6741 104.543C44.2513 105.029 44.5476 105.713 44.5629 106.597V110.336C44.5629 111.082 44.6676 111.677 44.877 112.121V112.251H42.9768ZM40.9311 110.911C41.2989 110.911 41.6436 110.821 41.9654 110.642C42.2924 110.464 42.5375 110.224 42.701 109.922V108.359H41.6973C41.0077 108.359 40.4892 108.479 40.1419 108.719C39.7945 108.959 39.6209 109.299 39.6209 109.738C39.6209 110.096 39.7383 110.382 39.9733 110.596C40.2134 110.806 40.5326 110.911 40.9311 110.911ZM48.2407 103.961L48.2943 104.919C48.9073 104.178 49.7118 103.808 50.7078 103.808C52.4344 103.808 53.3129 104.796 53.3436 106.773V112.251H51.4817V106.88C51.4817 106.354 51.3668 105.966 51.1369 105.716C50.9122 105.46 50.5418 105.333 50.0259 105.333C49.275 105.333 48.7157 105.672 48.3479 106.352V112.251H46.4861V103.961H48.2407ZM54.922 108.045C54.922 106.758 55.2233 105.731 55.8261 104.965C56.4339 104.194 57.2385 103.808 58.2396 103.808C59.1846 103.808 59.9278 104.137 60.4693 104.796L60.5536 103.961H62.2316V111.999C62.2316 113.087 61.8919 113.945 61.2125 114.573C60.5382 115.201 59.6265 115.515 58.4772 115.515C57.8693 115.515 57.2742 115.388 56.6919 115.132C56.1147 114.882 55.6754 114.553 55.374 114.144L56.2552 113.025C56.8273 113.705 57.5322 114.044 58.3699 114.044C58.988 114.044 59.4758 113.876 59.8333 113.539C60.1909 113.207 60.3697 112.716 60.3697 112.068V111.508C59.8333 112.106 59.1182 112.405 58.2243 112.405C57.2538 112.405 56.4595 112.019 55.8414 111.248C55.2285 110.476 54.922 109.409 54.922 108.045ZM56.7762 108.206C56.7762 109.039 56.9447 109.695 57.2819 110.175C57.6241 110.65 58.0966 110.888 58.6994 110.888C59.4502 110.888 60.007 110.566 60.3697 109.922V106.275C60.0172 105.647 59.4656 105.333 58.7147 105.333C58.1017 105.333 57.6241 105.575 57.2819 106.061C56.9447 106.546 56.7762 107.261 56.7762 108.206ZM67.8019 112.405C66.6219 112.405 65.6642 112.034 64.9286 111.294C64.1982 110.548 63.8329 109.557 63.8329 108.321V108.091C63.8329 107.263 63.9913 106.525 64.308 105.877C64.6298 105.223 65.0793 104.715 65.6565 104.352C66.2337 103.989 66.8773 103.808 67.5873 103.808C68.7162 103.808 69.5871 104.168 70.2001 104.888C70.8182 105.608 71.1272 106.628 71.1272 107.945V108.696H65.7101C65.7663 109.381 65.9936 109.922 66.3921 110.321C66.7956 110.719 67.3013 110.918 67.9091 110.918C68.7622 110.918 69.4569 110.573 69.9932 109.884L70.9969 110.842C70.6649 111.337 70.2205 111.723 69.6637 111.999C69.1121 112.269 68.4915 112.405 67.8019 112.405ZM67.5797 105.302C67.0689 105.302 66.6551 105.481 66.3384 105.838C66.0268 106.196 65.8276 106.694 65.7408 107.332H69.2883V107.195C69.2474 106.571 69.0814 106.101 68.7903 105.785C68.4991 105.463 68.0956 105.302 67.5797 105.302ZM77.2262 109.999C77.2262 109.667 77.0883 109.414 76.8124 109.24C76.5417 109.067 76.0896 108.913 75.4563 108.781C74.8229 108.648 74.2942 108.479 73.8702 108.275C72.9405 107.825 72.4757 107.174 72.4757 106.321C72.4757 105.606 72.7771 105.008 73.3798 104.528C73.9826 104.048 74.7488 103.808 75.6785 103.808C76.6694 103.808 77.4688 104.053 78.0767 104.543C78.6896 105.034 78.9961 105.67 78.9961 106.451H77.1342C77.1342 106.094 77.0014 105.797 76.7358 105.562C76.4702 105.322 76.1177 105.202 75.6785 105.202C75.2698 105.202 74.9352 105.297 74.6747 105.486C74.4193 105.675 74.2916 105.928 74.2916 106.244C74.2916 106.53 74.4117 106.753 74.6517 106.911C74.8918 107.069 75.3771 107.23 76.1075 107.394C76.838 107.552 77.4101 107.744 77.8238 107.968C78.2427 108.188 78.5517 108.454 78.7509 108.765C78.9553 109.077 79.0574 109.455 79.0574 109.899C79.0574 110.645 78.7484 111.25 78.1303 111.715C77.5122 112.175 76.7026 112.405 75.7014 112.405C75.0221 112.405 74.4168 112.282 73.8855 112.037C73.3543 111.792 72.9405 111.455 72.6443 111.026C72.348 110.596 72.1999 110.134 72.1999 109.639H74.0081C74.0337 110.078 74.1997 110.418 74.5062 110.658C74.8126 110.893 75.2187 111.01 75.7244 111.01C76.2148 111.01 76.5877 110.918 76.8431 110.734C77.0985 110.545 77.2262 110.3 77.2262 109.999ZM83.0187 101.946V103.961H84.4821V105.34H83.0187V109.968C83.0187 110.285 83.08 110.515 83.2026 110.658C83.3303 110.796 83.555 110.865 83.8768 110.865C84.0914 110.865 84.3085 110.839 84.5281 110.788V112.228C84.1041 112.346 83.6955 112.405 83.3022 112.405C81.8719 112.405 81.1568 111.616 81.1568 110.037V105.34H79.793V103.961H81.1568V101.946H83.0187ZM90.2517 105.662C90.0065 105.621 89.7536 105.601 89.4931 105.601C88.6401 105.601 88.0654 105.928 87.7692 106.582V112.251H85.9073V103.961H87.6849L87.7309 104.888C88.1804 104.168 88.8035 103.808 89.6004 103.808C89.866 103.808 90.0857 103.844 90.2593 103.915L90.2517 105.662ZM93.4084 112.251H91.5465V103.961H93.4084V112.251ZM91.4316 101.808C91.4316 101.522 91.521 101.285 91.6998 101.096C91.8837 100.907 92.1442 100.812 92.4813 100.812C92.8184 100.812 93.079 100.907 93.2628 101.096C93.4467 101.285 93.5387 101.522 93.5387 101.808C93.5387 102.089 93.4467 102.324 93.2628 102.513C93.079 102.697 92.8184 102.789 92.4813 102.789C92.1442 102.789 91.8837 102.697 91.6998 102.513C91.521 102.324 91.4316 102.089 91.4316 101.808ZM98.1359 108.696L97.3084 109.547V112.251H95.4465V100.483H97.3084V107.271L97.8907 106.543L100.182 103.961H102.419L99.3388 107.417L102.748 112.251H100.595L98.1359 108.696ZM107.139 112.405C105.959 112.405 105.001 112.034 104.266 111.294C103.535 110.548 103.17 109.557 103.17 108.321V108.091C103.17 107.263 103.328 106.525 103.645 105.877C103.967 105.223 104.416 104.715 104.993 104.352C105.571 103.989 106.214 103.808 106.924 103.808C108.053 103.808 108.924 104.168 109.537 104.888C110.155 105.608 110.464 106.628 110.464 107.945V108.696H105.047C105.103 109.381 105.331 109.922 105.729 110.321C106.133 110.719 106.638 110.918 107.246 110.918C108.099 110.918 108.794 110.573 109.33 109.884L110.334 110.842C110.002 111.337 109.557 111.723 109.001 111.999C108.449 112.269 107.828 112.405 107.139 112.405ZM106.917 105.302C106.406 105.302 105.992 105.481 105.675 105.838C105.364 106.196 105.165 106.694 105.078 107.332H108.625V107.195C108.584 106.571 108.418 106.101 108.127 105.785C107.836 105.463 107.433 105.302 106.917 105.302Z" fill="black"/>
<path d="M301.02 110.448C300.907 111.638 300.468 112.567 299.702 113.237C298.936 113.901 297.917 114.233 296.645 114.233C295.756 114.233 294.972 114.023 294.293 113.604C293.618 113.18 293.097 112.58 292.729 111.804C292.362 111.027 292.17 110.126 292.155 109.099V108.057C292.155 107.005 292.341 106.078 292.714 105.276C293.087 104.474 293.621 103.856 294.316 103.422C295.015 102.987 295.822 102.77 296.737 102.77C297.968 102.77 298.959 103.105 299.71 103.774C300.46 104.443 300.897 105.388 301.02 106.609H299.089C298.997 105.807 298.762 105.23 298.384 104.877C298.011 104.52 297.462 104.341 296.737 104.341C295.894 104.341 295.245 104.65 294.791 105.268C294.341 105.881 294.111 106.783 294.101 107.973V108.961C294.101 110.167 294.316 111.086 294.745 111.72C295.179 112.353 295.812 112.67 296.645 112.67C297.406 112.67 297.978 112.499 298.361 112.156C298.744 111.814 298.987 111.245 299.089 110.448H301.02ZM307.533 114.079C307.451 113.921 307.379 113.663 307.318 113.306C306.725 113.924 306 114.233 305.142 114.233C304.309 114.233 303.63 113.995 303.104 113.52C302.578 113.045 302.315 112.458 302.315 111.758C302.315 110.874 302.642 110.197 303.295 109.727C303.954 109.252 304.894 109.015 306.115 109.015H307.257V108.471C307.257 108.042 307.137 107.7 306.897 107.444C306.657 107.184 306.291 107.053 305.801 107.053C305.377 107.053 305.03 107.161 304.759 107.375C304.488 107.585 304.353 107.853 304.353 108.18H302.491C302.491 107.725 302.642 107.301 302.943 106.908C303.244 106.509 303.653 106.198 304.169 105.973C304.69 105.748 305.27 105.636 305.908 105.636C306.879 105.636 307.653 105.881 308.23 106.371C308.807 106.857 309.103 107.541 309.119 108.425V112.164C309.119 112.91 309.223 113.505 309.433 113.949V114.079H307.533ZM305.487 112.739C305.855 112.739 306.199 112.649 306.521 112.47C306.848 112.292 307.093 112.052 307.257 111.75V110.187H306.253C305.563 110.187 305.045 110.307 304.698 110.547C304.35 110.787 304.177 111.127 304.177 111.566C304.177 111.924 304.294 112.21 304.529 112.424C304.769 112.634 305.088 112.739 305.487 112.739ZM312.796 105.789L312.85 106.747C313.463 106.006 314.267 105.636 315.264 105.636C316.99 105.636 317.869 106.624 317.899 108.601V114.079H316.037V108.708C316.037 108.182 315.922 107.794 315.693 107.544C315.468 107.288 315.098 107.161 314.582 107.161C313.831 107.161 313.271 107.5 312.904 108.18V114.079H311.042V105.789H312.796ZM330.319 109.352H325.83V114.079H323.891V102.924H330.978V104.487H325.83V107.804H330.319V109.352ZM334.319 114.079H332.457V102.311H334.319V114.079ZM339.253 111.413L340.939 105.789H342.924L339.629 115.336C339.123 116.731 338.265 117.428 337.054 117.428C336.784 117.428 336.485 117.382 336.158 117.29V115.849L336.51 115.872C336.98 115.872 337.333 115.786 337.568 115.612C337.808 115.443 337.997 115.157 338.135 114.754L338.403 114.041L335.491 105.789H337.499L339.253 111.413Z" fill="black"/>
<path d="M300.748 16.762C300.748 16.2717 300.574 15.8937 300.227 15.6281C299.885 15.3624 299.264 15.0943 298.365 14.8236C297.466 14.5528 296.751 14.2515 296.22 13.9194C295.203 13.2809 294.695 12.4483 294.695 11.4216C294.695 10.5226 295.06 9.78192 295.791 9.19961C296.526 8.61729 297.479 8.32614 298.648 8.32614C299.425 8.32614 300.117 8.46916 300.725 8.75521C301.333 9.04126 301.81 9.4499 302.158 9.98114C302.505 10.5073 302.679 11.0921 302.679 11.7357H300.748C300.748 11.1534 300.564 10.6988 300.196 10.3719C299.834 10.0399 299.313 9.87387 298.633 9.87387C298 9.87387 297.507 10.0092 297.154 10.28C296.807 10.5507 296.633 10.9287 296.633 11.4139C296.633 11.8226 296.822 12.1648 297.2 12.4407C297.578 12.7114 298.202 12.977 299.07 13.2375C299.938 13.4929 300.636 13.7866 301.162 14.1186C301.688 14.4456 302.073 14.8236 302.319 15.2526C302.564 15.6766 302.686 16.1746 302.686 16.7467C302.686 17.6764 302.329 18.417 301.614 18.9687C300.904 19.5153 299.938 19.7886 298.717 19.7886C297.91 19.7886 297.167 19.6404 296.488 19.3442C295.814 19.0428 295.287 18.629 294.909 18.1029C294.537 17.5768 294.35 16.9638 294.35 16.264H296.289C296.289 16.8974 296.498 17.3878 296.917 17.7351C297.336 18.0825 297.936 18.2561 298.717 18.2561C299.392 18.2561 299.897 18.1208 300.235 17.8501C300.577 17.5742 300.748 17.2116 300.748 16.762ZM306.188 19.6353H304.326V11.345H306.188V19.6353ZM304.211 9.19195C304.211 8.9059 304.301 8.66837 304.479 8.47938C304.663 8.29038 304.924 8.19588 305.261 8.19588C305.598 8.19588 305.858 8.29038 306.042 8.47938C306.226 8.66837 306.318 8.9059 306.318 9.19195C306.318 9.47289 306.226 9.70786 306.042 9.89685C305.858 10.0807 305.598 10.1727 305.261 10.1727C304.924 10.1727 304.663 10.0807 304.479 9.89685C304.301 9.70786 304.211 9.47289 304.211 9.19195ZM310.203 19.6353H308.341V7.86641H310.203V19.6353ZM314.072 12.2491C314.68 11.5442 315.449 11.1917 316.378 11.1917C318.146 11.1917 319.042 12.2006 319.068 14.2182V19.6353H317.206V14.2872C317.206 13.7151 317.081 13.3116 316.831 13.0766C316.585 12.8365 316.223 12.7165 315.743 12.7165C314.997 12.7165 314.44 13.0485 314.072 13.7126V19.6353H312.21V7.86641H314.072V12.2491ZM320.608 15.4135C320.608 14.6014 320.769 13.8709 321.091 13.2222C321.412 12.5684 321.864 12.0678 322.447 11.7204C323.029 11.368 323.698 11.1917 324.454 11.1917C325.573 11.1917 326.48 11.5519 327.174 12.2721C327.874 12.9923 328.252 13.9475 328.308 15.1377L328.316 15.5744C328.316 16.3917 328.158 17.1222 327.841 17.7658C327.529 18.4094 327.08 18.9074 326.492 19.2599C325.91 19.6123 325.236 19.7886 324.47 19.7886C323.3 19.7886 322.363 19.4003 321.658 18.6239C320.958 17.8424 320.608 16.8029 320.608 15.5055V15.4135ZM322.47 15.5744C322.47 16.4275 322.646 17.0966 322.998 17.5819C323.351 18.062 323.841 18.3021 324.47 18.3021C325.098 18.3021 325.586 18.0569 325.933 17.5666C326.285 17.0762 326.462 16.3585 326.462 15.4135C326.462 14.5758 326.28 13.9118 325.918 13.4214C325.56 12.931 325.072 12.6858 324.454 12.6858C323.846 12.6858 323.364 12.9285 323.006 13.4137C322.649 13.8939 322.47 14.6141 322.47 15.5744ZM334.913 18.8231C334.366 19.4667 333.59 19.7886 332.584 19.7886C331.685 19.7886 331.003 19.5255 330.538 18.9994C330.078 18.4732 329.848 17.7121 329.848 16.7161V11.345H331.71V16.6931C331.71 17.7453 332.147 18.2715 333.02 18.2715C333.925 18.2715 334.535 17.9471 334.852 17.2984V11.345H336.714V19.6353H334.959L334.913 18.8231ZM342.261 19.7886C341.081 19.7886 340.123 19.4182 339.388 18.6776C338.657 17.9318 338.292 16.9408 338.292 15.7047V15.4748C338.292 14.6473 338.45 13.9092 338.767 13.2605C339.089 12.6067 339.538 12.0984 340.115 11.7357C340.693 11.3731 341.336 11.1917 342.046 11.1917C343.175 11.1917 344.046 11.5519 344.659 12.2721C345.277 12.9923 345.586 14.0114 345.586 15.3292V16.0801H340.169C340.225 16.7646 340.453 17.3061 340.851 17.7045C341.255 18.1029 341.76 18.3021 342.368 18.3021C343.221 18.3021 343.916 17.9573 344.452 17.2677L345.456 18.2255C345.124 18.721 344.68 19.1066 344.123 19.3825C343.571 19.6532 342.95 19.7886 342.261 19.7886ZM342.039 12.6858C341.528 12.6858 341.114 12.8646 340.797 13.2222C340.486 13.5797 340.287 14.0778 340.2 14.7163H343.747V14.5784C343.706 13.9552 343.54 13.4852 343.249 13.1685C342.958 12.8467 342.555 12.6858 342.039 12.6858ZM349.371 9.32986V11.345H350.835V12.7241H349.371V17.352C349.371 17.6687 349.433 17.8986 349.555 18.0416C349.683 18.1795 349.908 18.2485 350.229 18.2485C350.444 18.2485 350.661 18.2229 350.881 18.1719V19.6123C350.457 19.7298 350.048 19.7886 349.655 19.7886C348.224 19.7886 347.509 18.9994 347.509 17.421V12.7241H346.146V11.345H347.509V9.32986H349.371ZM354.597 9.32986V11.345H356.06V12.7241H354.597V17.352C354.597 17.6687 354.658 17.8986 354.781 18.0416C354.908 18.1795 355.133 18.2485 355.455 18.2485C355.669 18.2485 355.887 18.2229 356.106 18.1719V19.6123C355.682 19.7298 355.274 19.7886 354.88 19.7886C353.45 19.7886 352.735 18.9994 352.735 17.421V12.7241H351.371V11.345H352.735V9.32986H354.597ZM361.14 19.7886C359.96 19.7886 359.002 19.4182 358.267 18.6776C357.536 17.9318 357.171 16.9408 357.171 15.7047V15.4748C357.171 14.6473 357.33 13.9092 357.646 13.2605C357.968 12.6067 358.418 12.0984 358.995 11.7357C359.572 11.3731 360.216 11.1917 360.926 11.1917C362.054 11.1917 362.925 11.5519 363.538 12.2721C364.156 12.9923 364.465 14.0114 364.465 15.3292V16.0801H359.048C359.105 16.7646 359.332 17.3061 359.73 17.7045C360.134 18.1029 360.64 18.3021 361.247 18.3021C362.1 18.3021 362.795 17.9573 363.331 17.2677L364.335 18.2255C364.003 18.721 363.559 19.1066 363.002 19.3825C362.45 19.6532 361.83 19.7886 361.14 19.7886ZM360.918 12.6858C360.407 12.6858 359.993 12.8646 359.677 13.2222C359.365 13.5797 359.166 14.0778 359.079 14.7163H362.627V14.5784C362.586 13.9552 362.42 13.4852 362.129 13.1685C361.837 12.8467 361.434 12.6858 360.918 12.6858Z" fill="black"/>
<path d="M213.483 123.628L213.383 135.174L223.433 129.488L213.483 123.628ZM283.531 110.629L284.344 110.046L283.179 108.42L282.366 109.003L283.531 110.629ZM230.951 136.033C225.058 136.033 221.176 133.547 218.653 130.785L217.176 132.134C220.016 135.243 224.41 138.033 230.951 138.033V136.033ZM230.951 138.033C234.695 138.033 239.873 136.241 245.407 133.688C250.987 131.115 257.084 127.691 262.723 124.28C268.365 120.867 273.565 117.455 277.354 114.897C279.249 113.618 280.792 112.552 281.861 111.805C282.396 111.432 282.813 111.138 283.096 110.938C283.238 110.837 283.346 110.76 283.419 110.708C283.456 110.682 283.483 110.663 283.502 110.649C283.511 110.643 283.518 110.637 283.523 110.634C283.526 110.632 283.527 110.631 283.529 110.63C283.529 110.63 283.53 110.629 283.53 110.629C283.531 110.629 283.531 110.629 282.948 109.816C282.366 109.003 282.366 109.003 282.366 109.003C282.365 109.003 282.365 109.004 282.364 109.004C282.363 109.005 282.362 109.006 282.359 109.008C282.355 109.011 282.348 109.015 282.339 109.022C282.321 109.035 282.294 109.054 282.259 109.079C282.187 109.13 282.081 109.206 281.941 109.305C281.661 109.503 281.248 109.795 280.716 110.165C279.654 110.907 278.12 111.967 276.235 113.24C272.464 115.785 267.293 119.178 261.688 122.569C256.079 125.962 250.053 129.343 244.569 131.872C239.04 134.423 234.215 136.033 230.951 136.033V138.033Z" fill="black"/>
<path d="M169.001 124.237L167.095 135.625L158.185 128.28L169.001 124.237ZM116.01 109.006L115.398 108.215L116.98 106.991L117.592 107.782L116.01 109.006ZM149.396 136.444C154.393 136.931 159.057 133.867 162.581 130.463L163.97 131.901C160.348 135.401 155.115 139.011 149.202 138.435L149.396 136.444ZM149.202 138.435C146.178 138.14 142.592 136.022 139.028 133.243C135.417 130.427 131.655 126.789 128.255 123.208C124.852 119.623 121.792 116.074 119.584 113.423C118.48 112.097 117.588 110.995 116.971 110.223C116.663 109.837 116.423 109.534 116.26 109.326C116.179 109.223 116.117 109.143 116.075 109.089C116.054 109.062 116.038 109.041 116.027 109.028C116.021 109.021 116.017 109.015 116.015 109.012C116.013 109.01 116.012 109.008 116.011 109.007C116.011 109.007 116.011 109.007 116.01 109.006C116.01 109.006 116.01 109.006 116.801 108.394C117.592 107.782 117.592 107.782 117.592 107.782C117.592 107.783 117.593 107.783 117.593 107.783C117.593 107.784 117.594 107.785 117.596 107.787C117.598 107.79 117.602 107.795 117.607 107.801C117.617 107.814 117.632 107.834 117.652 107.86C117.693 107.912 117.754 107.989 117.833 108.091C117.993 108.294 118.229 108.593 118.534 108.974C119.143 109.737 120.027 110.829 121.121 112.144C123.311 114.773 126.341 118.287 129.706 121.831C133.074 125.379 136.758 128.937 140.258 131.666C143.805 134.432 146.994 136.21 149.396 136.444L149.202 138.435Z" fill="black"/>
<path d="M285.378 75.4989L286.175 74.8957L284.969 73.3005L284.171 73.9037L285.378 75.4989ZM248.013 102.504L259.471 101.077L252.506 91.8669L248.013 102.504ZM284.171 73.9037L254.588 96.2774L255.794 97.8725L285.378 75.4989L284.171 73.9037Z" fill="black"/>
<path d="M112.05 74.0906L111.319 73.409L109.955 74.8723L110.687 75.554L112.05 74.0906ZM144.288 105.491L140.907 94.4504L133.036 102.899L144.288 105.491ZM110.687 75.554L137.021 100.088L138.385 98.6247L112.05 74.0906L110.687 75.554Z" fill="black"/>
<path d="M113.921 13.3721L112.921 13.4093L112.996 15.408L113.995 15.3708L113.921 13.3721ZM156.559 12.7852L146.351 7.3878L146.781 18.9268L156.559 12.7852ZM113.995 15.3708L147.602 14.1194L147.528 12.1208L113.921 13.3721L113.995 15.3708Z" fill="black"/>
<path d="M285.965 16.8518L286.892 16.4753L286.139 14.6225L285.212 14.999L285.965 16.8518ZM239.482 34.6637L250.92 36.2473L246.572 25.55L239.482 34.6637ZM285.212 14.999L247.443 30.3487L248.196 32.2016L285.965 16.8518L285.212 14.999Z" fill="black"/>
</svg>
