<svg width="109" height="109" viewBox="0 0 109 109" fill="none" xmlns="http://www.w3.org/2000/svg">
<mask id="path-1-inside-1" fill="white">
<rect x="0.623932" y="0.799072" width="107.571" height="107.571" rx="4"/>
</mask>
<rect x="0.623932" y="0.799072" width="107.571" height="107.571" rx="4" fill="black" stroke="white" stroke-width="14" mask="url(#path-1-inside-1)"/>
<rect x="1.12393" y="1.29907" width="106.571" height="106.571" rx="3.5" stroke="black"/>
<path d="M69.6779 82.3405C69.678 78.4856 62.4706 72.6194 53.9227 72.787C45.3748 72.9546 38.9052 79.2566 39.1734 82.3405C39.5086 86.1955 44.3692 91.3913 55.096 91.3913C65.8228 91.3913 69.6777 86.1955 69.6779 82.3405Z" fill="white"/>
<path d="M70.8515 75.1335C64.8177 74.6307 66.6613 67.9264 53.9227 67.9264C52.4109 67.9264 48.7569 68.1538 46.2348 69.0632C43.0823 70.1999 44.5919 73.4146 38.0647 73.4146C31.5374 73.4146 30.2499 65.2446 30.1611 62.092C30.0723 58.9394 34.2461 57.6962 38.0647 55.0764C41.8833 52.4567 42.5937 52.7675 46.5011 52.4567C50.4085 52.1459 52.5842 49.1265 56.9357 49.1265C61.2871 49.1265 62.974 49.4897 66.8289 49.9925C70.6839 50.4954 74.3712 58.5405 78.8966 59.0433C83.4219 59.5461 81.0755 61.725 80.7402 64.4067C80.405 67.0884 76.8853 75.6363 70.8515 75.1335Z" fill="white"/>
<path d="M82.2896 45.1303C82.334 47.2616 82.9556 53.1671 77.3609 53.1227C71.7662 53.0783 70.3187 48.0875 70.2121 43.9314C70.0789 38.7363 73.8087 38.0703 75.3184 35.3617C76.5262 33.1949 75.8216 28.3314 75.3184 26.1704C75.9992 26.8069 77.5829 28.506 78.471 30.2111C79.581 32.3424 79.2258 33.9853 79.4034 38.0703C79.581 42.1553 82.2452 42.999 82.2896 45.1303Z" fill="white"/>
<path d="M67.9476 37.2267C67.9032 41.2673 66.4379 45.4411 60.6656 46.1071C54.8933 46.7732 54.5825 39.8642 54.4049 36.9158C54.1829 33.2304 57.6018 29.4118 59.2891 28.7902C60.9764 28.1686 60.6656 17.6896 61.9089 17.7784C63.1521 17.8672 63.685 22.9735 64.4398 27.7245C65.1947 32.4756 67.992 33.186 67.9476 37.2267Z" fill="white"/>
<path d="M51.5631 40.6456C51.7407 44.8728 48.8102 49.1265 43.7483 49.1265C38.6864 49.1265 38.793 44.0202 38.6864 41.3561C38.5532 38.0259 39.1748 35.0509 40.9953 33.8965C42.8158 32.742 43.7483 30.2111 43.3931 27.0585C43.0379 23.9059 48.3217 20.5313 48.7658 21.7746C49.2098 23.0179 46.146 25.6376 46.9897 29.5894C47.8333 33.5413 51.3411 35.3617 51.5631 40.6456Z" fill="white"/>
<path d="M36.9991 46.9508C36.9991 50.8937 34.4239 54.366 31.0048 54.5436C27.6146 54.7197 27.2543 51.936 26.6251 47.0757L26.609 46.9508C25.8097 40.7789 29.1843 38.0703 30.1611 36.0722C31.1378 34.0741 36.9991 26.5701 38.0647 27.0585C39.1302 27.5469 38.0647 28.1242 35.6227 31.6764C33.1806 35.2285 35.0454 38.3367 34.8678 39.6244C34.6902 40.9121 36.9991 42.0221 36.9991 46.9508Z" fill="white"/>
</svg>
