<svg width="96" height="81" viewBox="0 0 96 81" fill="none" xmlns="http://www.w3.org/2000/svg">
<path d="M65.1166 80.7202H35.5002C37.5765 76.1115 41.9789 65.8583 42.9779 61.7151C43.977 57.5718 44.1178 46.0922 44.0633 40.8703C43.2853 42.3722 41.6532 45.7884 41.3494 47.4386C40.9698 49.5013 40.5352 59.2723 38.6353 61.7151C36.7354 64.1578 35.6598 51.1974 35.0519 49.8243C33.9958 47.4386 31.8834 50.0884 30.3937 47.4386L28.9578 47.8728L29.1492 46.9475L7.77029 29.9719L5.88766 26.8768L9.27 27.8424L29.8957 44.8415L31.319 44.1714V45.2563L34.1838 46.4072C36.4275 43.9102 41.0777 38.6773 41.7291 37.7219C42.5434 36.5277 42.5977 28.4395 44.0633 27.8424C45.2358 27.3647 46.3814 27.1864 47.1233 26.9873C48.8603 25.8864 47.1249 19.0485 51.1201 19.0485C55.1154 19.0485 54.2669 26.4002 56.0773 27.3543C56.6793 27.4448 56.7883 27.7338 58.3398 28.168C59.8913 28.6023 59.9633 30.4117 59.8054 31.2622L64.6912 33.9573C64.6912 40.4239 64.2913 55.2498 64.2913 55.2498L65.1166 56.6191L65.9044 55.2498L66.2318 33.9573L72.4624 32.1117C72.2736 38.6018 71.9305 53.0022 71.1375 55.3811C70.3446 57.7601 68.868 63.7654 65.5293 65.6036C62.2468 63.2027 59.853 58.4964 58.7768 55.3811C57.7006 52.2659 57.4297 46.1348 57.2645 39.5267L56.4004 32.9803V46.4072H50.2307V46.9475H55.6802C56.8354 46.9475 57.6616 58.9251 57.8256 62.5314C57.9895 66.1376 63.2041 77.3735 65.1166 80.7202Z" fill="black"/>
<path d="M41.7291 23.8797C42.554 24.0534 42.9054 25.1825 42.9779 25.7253C42.0732 26.2681 40.0901 27.6144 39.3952 28.6566C38.7004 29.6989 39.1057 32.2566 39.3952 33.4051C39.1419 33.7946 37.8102 34.3398 34.5098 33.4051C30.3842 32.2367 30.8728 28.168 29.8957 28.168C29.114 28.168 23.1646 26.1053 20.2876 25.074L23.9245 23.2283L17.0849 23.4997V18.3428L12.4165 18.7771V15.5201L9.59378 13.5116L10.8423 12.426L7.69387 10.0375L13.1765 8.62616L4.59973 4.93491L3.40552 0.537964C10.4804 3.74067 24.7062 10.1244 25.0102 10.0375C25.3902 9.92895 30.6011 9.82037 35.0526 9.60324C39.5041 9.38611 44.0633 11.286 44.0633 14.5973C44.0633 17.9085 38.201 17.2572 37.3325 20.297C36.6377 22.7289 37.2239 23.2645 37.6039 23.2283C38.6353 23.3731 40.9043 23.706 41.7291 23.8797Z" fill="black"/>
<path d="M70.1738 31.2622C66.6128 32.3044 64.2388 30.5746 63.497 29.5795C63.1532 28.7109 62.1399 26.9087 60.8371 26.6481C59.2086 26.3224 59.8054 25.074 59.48 24.7483C59.1546 24.4226 64.6912 23.2283 65.2883 22.0341C65.8854 20.8399 62.737 17.6915 61.597 17.6915C60.4571 17.6915 56.8201 14.1088 57.9601 12.426C59.1 10.7432 64.3655 12.1003 64.6912 12.426C65.0169 12.7517 68.7081 10.0375 70.1738 9.22328C71.6394 8.40904 74.3536 11.3403 75.005 11.7746C75.6564 12.2089 77.8277 9.60324 81.1933 9.22328C84.5588 8.84331 94.0584 6.12914 94.6012 6.2377C95.144 6.34627 90.6928 10.6346 88.3586 11.3403C86.0245 12.046 90.7471 12.426 92.3213 12.426C93.8955 12.426 88.1415 14.9773 85.2102 14.923C82.2789 14.8687 87.9787 17.2029 89.6072 17.0943C91.2357 16.9858 82.8218 18.7771 79.999 19.0485C77.1763 19.3199 81.7361 21.8713 82.8218 22.6312C83.9074 23.3912 79.1848 23.8797 77.122 23.8797C75.4718 23.8797 77.5201 25.9425 78.7505 26.9739C77.3754 27.9691 73.7348 30.22 70.1738 31.2622Z" fill="black"/>
<path d="M30.6201 41.2571L29.9736 38.1174L26.926 37.2863L25.3564 34.6082H23.2322L22.0319 32.1149L19.631 29.4369L17.2298 28.3287C16.6142 27.7438 15.3276 26.4818 15.106 26.1124C14.8843 25.743 12.6126 23.9269 11.5045 23.065L8.64186 23.7114L5.50202 22.6033L2.63935 25.189L1.43872 29.4369C2.91632 30.7913 5.96387 33.5001 6.33325 33.5001C6.70264 33.5001 7.04124 35.2855 7.16437 36.1781L15.106 41.2571L17.9689 44.7663L21.3857 45.7821L23.879 48.0908L25.3564 48.8296" stroke="black" stroke-opacity="0.23"/>
<path d="M55.4168 22.8773C57.5208 22.3635 57.8256 16.3634 51.0864 16.5165C44.3473 16.6697 45.2394 22.3146 47.3926 22.7061" stroke="black" stroke-opacity="0.29"/>
</svg>
