<svg width="75" height="76" viewBox="0 0 75 76" fill="none" xmlns="http://www.w3.org/2000/svg">
<path fill-rule="evenodd" clip-rule="evenodd" d="M52.882 29.8515L49.2443 16.6948C49.5179 15.7057 50.1344 14.7111 50.6695 13.8479C51.1621 13.0532 51.5856 12.37 51.6089 11.9049C51.6574 10.9349 51.1441 9.35849 50.8813 8.69156C49.8708 8.30757 47.7286 6.96969 47.2435 4.69005C46.6372 1.84052 50.4569 0.870369 54.701 0.62785C58.9451 0.385331 59.612 1.23418 60.2183 2.02237C60.4862 2.37065 60.8843 2.75444 61.2976 3.15282C61.8196 3.65601 62.3657 4.18247 62.704 4.69005C63.1762 5.39832 64.5677 6.25365 66.1053 7.19881L66.1057 7.19905C66.5424 7.46745 66.9908 7.74309 67.4333 8.02467C68.792 8.88929 68.9205 11.5154 69.0339 13.8333V13.8335C69.0875 14.9288 69.1377 15.9554 69.3128 16.6948C69.8585 18.9987 70.2829 20.6963 70.8286 22.0302C71.3743 23.364 73.9814 31.731 73.9208 33.4892C73.9106 33.7829 73.8954 34.4197 73.8743 35.3046V35.3048L73.8743 35.3056C73.7689 39.7204 73.5163 50.3062 73.0113 55.2554C72.5262 60.0087 67.7566 68.5131 65.4324 72.1711C66.6652 68.4727 69.2522 60.5544 69.7372 58.4687C70.3434 55.8617 70.2222 49.3136 69.7372 47.7979C69.3492 46.5853 68.9288 47.6564 68.7671 48.3436C68.565 49.8189 68.1123 52.9757 67.9183 53.8002C67.7243 54.6248 65.4527 58.9942 64.3411 61.0758C64.8261 58.1454 65.9054 51.9086 66.3419 50.405C66.6566 49.3209 66.6688 47.1071 66.6809 44.904C66.6897 43.2876 66.6986 41.6769 66.8269 40.5223C67.13 37.794 65.5537 37.794 65.4324 38.9459C65.3354 39.8675 62.9668 49.8795 61.7946 54.7703C62.0371 53.1737 62.5585 49.8472 62.704 49.3136C62.8859 48.6467 63.7954 34.0955 62.0978 33.4892C60.7397 33.0042 59.6726 39.7947 59.3089 43.2506L58.46 30.6396L56.6411 39.7341L55.3679 32.3979L52.882 29.8515ZM21.5953 29.8515L25.2329 16.6948C24.9593 15.7057 24.3428 14.7111 23.8078 13.848L23.8078 13.8479C23.3151 13.0532 22.8916 12.37 22.8683 11.9049C22.8198 10.9349 23.3332 9.35849 23.5959 8.69156C24.6064 8.30757 26.7487 6.96969 27.2337 4.69006C27.84 1.84052 24.0203 0.870372 19.7762 0.627853C15.5321 0.385334 14.8652 1.23419 14.2589 2.02238C13.991 2.37066 13.5929 2.75445 13.1796 3.15282C12.6577 3.65601 12.1116 4.18247 11.7732 4.69006C11.301 5.39832 9.90952 6.25366 8.3719 7.19882L8.37188 7.19883C7.93512 7.4673 7.48657 7.74302 7.04395 8.02467C5.68519 8.88929 5.55673 11.5154 5.44334 13.8333C5.38976 14.9288 5.33954 15.9554 5.16442 16.6948C4.61876 18.9987 4.19431 20.6963 3.64864 22.0302C3.10297 23.364 0.495831 31.731 0.55646 33.4892C0.566586 33.7829 0.581785 34.4197 0.602904 35.3047C0.70825 39.719 0.960904 50.3059 1.46595 55.2554C1.95099 60.0087 6.72064 68.5131 9.04483 72.1711C7.81198 68.4727 5.22504 60.5544 4.74004 58.4687C4.13378 55.8617 4.255 49.3136 4.74004 47.7979C5.12807 46.5853 5.54841 47.6564 5.71008 48.3436C5.9122 49.8189 6.36494 52.9757 6.55896 53.8002C6.75298 54.6248 9.02458 58.9942 10.1361 61.0758C9.65108 58.1454 8.57187 51.9086 8.13534 50.405C7.82059 49.3209 7.80845 47.1071 7.79636 44.904C7.7875 43.2876 7.77866 41.6769 7.65037 40.5223C7.34722 37.794 8.92357 37.794 9.04483 38.9459C9.14184 39.8675 11.5104 49.8795 12.6826 54.7703C12.4401 53.1737 11.9187 49.8472 11.7732 49.3136C11.5913 48.6467 10.6818 34.0955 12.3795 33.4892C13.7376 33.0042 14.8046 39.7947 15.1684 43.2506L16.0172 30.6396L17.8361 39.7341L19.1093 32.3979L21.5953 29.8515ZM32.8118 17.4829C32.6904 14.7343 33.2481 9.23713 36.4494 9.23719C39.6507 9.23725 40.5319 14.4514 40.5723 17.0585C41.1584 17.6042 42.5246 18.6228 43.3007 18.3317C44.0767 18.0407 45.4429 17.8871 46.029 17.8467C46.8374 18.6753 48.4906 20.3932 48.6361 20.6357C48.818 20.9388 52.0314 34.5805 50.8188 35.0656C49.8487 35.4536 47.7064 34.0551 46.7566 33.3073C47.3831 38.4406 48.6361 48.8286 48.6361 49.3136C48.6361 49.7986 48.0702 53.2343 47.7873 54.8915C48.2925 56.6902 49.3515 60.5786 49.5455 61.7427C49.6871 62.5922 49.7461 64.7228 49.7947 66.4819C49.8294 67.736 49.8589 68.8013 49.9093 69.0789C49.9555 69.3327 50.6777 69.8675 51.5448 70.5095C52.9561 71.5545 54.7511 72.8836 54.6385 73.7474C54.4692 75.0453 43.1131 74.7676 37.2878 74.6251H37.2875L37.2837 74.625C36.8516 74.6144 36.45 74.6046 36.0857 74.5963C33.3284 74.5329 28.5665 74.834 24.6145 75.0838H24.6144C21.0062 75.312 18.0731 75.4974 17.9574 75.3238C17.8226 75.1216 18.3246 74.601 18.9429 73.9598C19.4371 73.4473 20.0055 72.8579 20.3825 72.2923C21.2313 71.0191 22.444 63.6829 22.444 63.1978C22.444 62.9293 23.02 61.2298 23.5755 59.5913L23.5755 59.5912C24.0233 58.2701 24.4577 56.9886 24.566 56.5285C24.8085 55.4978 26.6274 47.6766 26.8093 45.6152C26.949 44.0322 26.6902 37.8539 26.5262 34.608C26.4854 35.3958 25.9807 36.5957 24.1416 37.127C21.4132 37.9152 22.2621 32.5191 22.8077 31.7916C23.3534 31.064 25.051 25.0617 25.051 24.3341C25.051 23.9076 25.4468 22.877 25.8355 21.8651C26.1099 21.1506 26.3807 20.4455 26.5062 19.9687C26.5444 19.8233 26.5759 19.6933 26.6045 19.5756L26.6046 19.5752C26.8019 18.7611 26.8566 18.5353 28.0219 17.8467C29.089 17.2162 31.6598 17.3414 32.8118 17.4829ZM38.8356 72.399C39.9014 70.3017 42.0125 65.9215 41.93 65.1789C41.8897 64.8167 41.7395 64.6115 41.5651 64.3733C41.2927 64.0013 40.9614 63.5488 40.8985 62.2909C40.8491 61.3038 41.8154 59.8679 42.8479 58.3335C43.973 56.6616 45.1767 54.8728 45.2305 53.4206C45.267 52.4354 45.4971 51.6309 45.7017 50.9159C46.0753 49.6096 46.3636 48.6016 45.2305 47.3352C44.0199 45.9821 43.3993 45.0224 42.7916 44.0827L42.7916 44.0825C42.5191 43.6612 42.2493 43.2439 41.93 42.7969C41.7154 42.4965 41.5008 42.2363 41.3048 41.9986L41.3047 41.9985C40.5586 41.0937 40.0816 40.5153 40.8985 39.2901C41.4124 38.5193 42.0031 37.8509 42.492 37.2977L42.492 37.2976C42.9844 36.7405 43.3736 36.3001 43.4771 35.9895C43.625 35.5458 43.5608 33.8823 43.5126 32.6342V32.6341L43.5126 32.6339C43.4936 32.1415 43.4771 31.7139 43.4771 31.4513C43.4771 31.3605 43.4781 31.2687 43.4791 31.1754L43.4791 31.1741V31.1739C43.4884 30.3141 43.499 29.3292 42.7551 27.8412C42.6438 27.6187 42.5195 27.34 42.3787 27.0245C41.4753 24.9997 39.8961 21.4602 36.7728 21.5494C33.1628 21.6526 29.8621 24.5406 29.759 26.1909C29.7061 27.0375 30.3589 28.1013 30.9655 29.0898L30.9655 29.0898C31.5414 30.0282 32.0756 30.8988 31.9249 31.4513C31.7819 31.9759 31.308 32.5446 30.8398 33.1064C30.2955 33.7596 29.759 34.4035 29.759 34.9581C29.759 35.2653 29.5668 35.7281 29.3542 36.2401C28.853 37.4472 28.2382 38.928 29.759 39.2901C31.925 39.8058 31.9249 40.4246 31.9249 41.3529C31.9249 41.8171 31.3061 42.5907 30.6356 43.4288C29.9652 44.2668 29.2432 45.1693 29.0369 45.8912C28.6244 47.3352 27.5929 52.8018 28.3149 53.9364C28.5177 54.255 28.8911 54.6792 29.3235 55.1704C30.431 56.4285 31.9249 58.1256 31.9249 59.6093C31.9249 60.8439 30.8905 62.2632 30.0598 63.4029C29.5025 64.1674 29.0369 64.8062 29.0369 65.1789C29.0369 65.9216 30.9623 69.6141 31.9249 71.3676C32.4407 72.2271 34.0084 73.9462 36.1538 73.9462C38.2992 73.9462 38.8356 72.9147 38.8356 72.399ZM39.845 30.0529C39.8449 30.2715 34.134 30.9273 33.7516 30.0529C33.3691 29.1784 35.9649 24.9376 37.2765 24.8065C38.916 24.6425 39.845 29.7796 39.845 30.0529ZM38.3896 64.2891L36.3889 72.9592L34.0849 64.2891L35.2369 37.4907H32.8723V35.3687L35.2369 34.5198L35.6613 32.6403H37.8439V34.5198L40.5723 35.0049V37.0662H37.8439L38.3896 64.2891Z" fill="black"/>
</svg>
