<svg width="99" height="68" viewBox="0 0 99 68" fill="none" xmlns="http://www.w3.org/2000/svg">
<path d="M19.3627 65.962H23.1458C22.9776 64.758 22.9775 62.1314 24.3226 61.2577C25.6677 60.3841 30.6559 58.7656 32.9818 58.0655V51.9332C32.1411 50.6731 29.9385 48.2033 27.8536 48.405C25.7686 48.6066 25.2474 49.385 25.2474 49.749C24.715 51.6532 23.5492 55.5454 23.1458 55.8814C22.7424 56.2174 21.3523 56.9175 20.7076 57.2255L13.3092 59.5776L14.8225 65.206L17.1767 66.7181L19.3627 65.962Z" fill="black"/>
<path d="M92.5875 64.1139L81.4904 64.702V58.0655C82.4711 57.1415 84.584 54.8398 85.1895 53.0252C85.7949 51.2107 84.4888 49.189 83.7601 48.405C85.6097 48.405 89.7292 48.6738 91.4105 49.749C93.5121 51.0931 90.7379 53.4453 90.822 55.8814C90.8892 57.8303 92.027 62.1818 92.5875 64.1139Z" fill="black"/>
<path fill-rule="evenodd" clip-rule="evenodd" d="M13.8986 27.9077C12.9176 26.9836 10.5016 24.0939 8.68587 19.9272C6.87014 15.7605 6.02388 11.5267 5.82771 9.93059C5.37922 12.4227 4.75134 18.0455 5.82771 20.5992C6.90409 23.153 8.18164 25.2475 8.68587 25.9756C7.64918 25.6396 5.30679 24.0939 4.23069 20.5992C3.1546 17.1046 1.87655 12.8148 1.37204 11.1067C0.811622 14.9709 0.0270397 23.2202 1.37204 25.3035C2.71703 27.3869 5.23886 30.0918 6.33165 31.1839L4.23069 33.536V41.0125L2.80071 41.7685L4.23069 47.5649C5.40741 48.3769 8.24845 50.0346 10.1989 50.1691C11.3379 50.2475 10.7154 49.3543 10.0544 48.4058C9.30058 47.3241 8.49668 46.1705 10.1989 46.3048C11.855 46.4355 12.3363 46.0469 12.8374 45.6423C13.3029 45.2664 13.7855 44.8767 15.2431 44.8767C17.6643 44.8767 19.3905 45.5488 19.951 45.8848L12.5528 52.1852H7.25642C8.34933 53.2772 11.4767 55.4278 15.2431 55.2934C19.951 55.1254 21.6324 52.0172 22.3049 50.1691C22.9775 48.3209 25.1633 46.3048 29.0305 46.3048C32.1243 46.3048 34.5231 50.2251 35.3358 52.1852L41.557 53.5293L35.3358 54.6213L34.411 59.7456C32.0571 60.6417 27.2314 62.5346 26.7607 62.9378C26.2899 63.3411 26.1722 65.85 26.1722 67.0541L47.4419 66.214L48.2826 55.7134L49.1233 49.497L47.4419 45.8848C47.9743 46.6968 49.6949 48.4385 52.3179 48.909C54.9409 49.3794 57.166 49.497 57.9506 49.497C57.8665 51.4291 58.5895 55.2934 62.1541 55.2934C63.5625 55.2934 65.1472 55.1255 66.6508 54.949C66.8656 54.9238 67.0788 54.8984 67.2896 54.8732C70.2707 54.518 72.7703 54.2202 72.6629 55.2934C72.4947 56.9735 71.9903 60.4177 69.216 60.5017C66.4417 60.5857 59.8002 62.3498 60.2205 64.2819C60.5568 65.8276 60.3606 67.1101 60.2205 67.5581L79.3044 67.0541C78.9961 64.1139 78.5646 57.9815 79.3044 56.9735C79.586 56.5898 80.0625 56.2995 80.5725 55.9889C81.7372 55.2795 83.0765 54.4637 82.6672 52.1852L82.633 51.9948C82.0616 48.8087 81.6126 46.3048 79.3044 46.3048C76.9504 46.3048 74.8487 43.7847 75.185 43.5326C75.3791 43.3872 78.2908 44.0535 81.2191 44.7237C83.3635 45.2144 85.5168 45.7072 86.6185 45.8848C89.2247 46.3048 98.3883 44.2047 97.9679 36.0562C97.6316 29.5374 95.4739 25.2195 94.437 23.8754L97.9679 20.5992L92.5875 21.9433L91.3264 19.9272V9.09054L88.2999 17.8271H86.03C86.058 15.6149 85.576 10.7706 83.4238 9.09054C81.2716 7.41043 78.3236 6.43037 77.1186 6.15036C79.2203 7.69045 83.4238 11.4091 83.4238 13.9628C83.4238 16.5166 82.8391 16.8824 82.5467 16.7461C81.4719 15.5947 78.7703 12.9726 76.5626 11.6954C74.3548 10.4182 70.3364 9.42667 68.6031 9.09054C73.7061 11.8456 83.3136 17.704 80.9199 19.0972C78.5263 20.4905 76.3205 20.1229 75.5168 19.7649L66.9461 17.8271L66.1054 14.3829L63.6674 15.2229L62.1541 12.8708L61.0612 9.93059L57.1099 11.1067L52.3179 7.91447L53.3268 3.46219L47.4419 6.15036H42.6499L40.5481 0.858032L36.5128 7.91447L33.6544 10.5186L33.0659 5.47832L29.9553 11.6954L26.7607 13.9628L24.3226 10.5186L23.9023 16.231L21.128 17.8271V20.5992L17.3448 21.9433L16.7563 26.8996V29.2518L13.8986 27.9077ZM15.8316 38.4923H11.0396L15.8316 34.3761V38.4923ZM29.9553 21.5233L33.0659 24.7995L34.411 29.6718L35.3358 35.4682C36.2045 33.452 37.8747 29.2686 37.6057 28.6637C37.3367 28.0589 35.9803 24.7715 35.3358 23.2034L29.9553 20.5992V21.5233ZM53.7472 16.399C52.2675 15.9286 45.9006 15.867 42.9021 15.895C45.7886 16.483 52.234 17.8943 54.9243 18.8351C57.6145 19.776 62.2664 22.6434 64.256 23.9595L60.8092 19.4232C59.0717 18.6111 55.2269 16.8694 53.7472 16.399ZM56.1012 47.6489C55.9331 46.3608 56.1181 43.163 58.203 40.6765C59.7013 38.8895 62.7559 37.4079 65.0819 36.2797C66.8017 35.4456 68.1232 34.8046 68.1232 34.3761C68.1232 33.5696 66.5539 31.1839 65.7693 30.0918C66.1336 31.5199 66.4923 34.3761 65.0127 34.3761C63.1631 34.3761 56.6897 37.4843 55.5127 39.0804C54.5712 40.3573 55.5127 45.3248 56.1012 47.6489ZM87.9638 39.0804C82.3815 39.618 79.7529 31.6879 79.1364 27.6557L81.4904 25.8076L82.3311 29.5878L85.1895 27.6557L86.2824 31.2679C86.4785 30.5959 87.3585 29.1678 89.3089 28.8318C91.7469 28.4117 92.7558 30.8479 93.1761 34.3761C93.2392 34.9055 93.3231 35.3668 93.3965 35.7708C93.8127 38.0594 93.8945 38.5092 87.9638 39.0804Z" fill="black"/>
</svg>
