<svg width="75" height="77" viewBox="0 0 75 77" fill="none" xmlns="http://www.w3.org/2000/svg">
<path d="M18.0554 10.1099L21.7298 10.5994L22.4034 12.4964H20.0763C19.4026 12.4964 17.9941 14.4546 17.9941 14.883C17.9941 15.3113 17.3206 17.5143 17.9941 18.3098C18.533 18.9462 18.2186 21.3899 17.9941 22.5321C18.5046 22.0834 19.6358 21.1247 20.0763 20.8799C20.5168 20.6351 22.0158 18.0038 22.7102 16.7188C22.6898 17.5143 22.5999 19.2155 22.4034 19.656C22.1579 20.2068 20.7499 22.5321 20.0763 23.1441C19.4026 23.756 17.3206 24.3679 17.3206 24.1232C17.3206 23.9273 14.4626 22.6953 13.0336 22.1038C13.1357 21.7774 13.2787 21.0145 13.0336 20.5739C12.7886 20.1334 11.9518 19.4113 11.564 19.1053V13.0472H13.0336L13.3399 16.0456C14.1975 14.5566 16.2597 13.3531 16.2597 10.5994C16.2597 7.84575 14.849 6.22881 14.0529 4.65819L13.3399 8.45769L11.564 8.82485V6.5607L9.97172 6.25473V8.45769L5.56288 8.09053L4.95037 4.29655C3.66431 5.15326 1.11668 7.71113 1.21466 11.089C1.31265 14.4669 3.74596 15.8009 4.95037 16.0456C5.35864 15.3725 6.35885 14.0263 7.09356 14.0263H9.97172V19.1053H8.931H6.54248C6.54248 20.1048 6.65269 22.3118 7.09356 23.1441C7.53442 23.9763 9.19603 24.6739 9.97172 24.9187V30.1813L7.09356 30.7932V33.6081C7.09356 35.0767 9.01233 35.2399 9.97172 35.1379V41.1961H11.564V34.6484L13.0336 34.2812C14.1156 34.0568 16.402 33.4735 16.8919 32.935C17.3818 32.3965 17.3818 30.8748 17.3206 30.1813L14.3198 28.5291L13.3399 30.1813H11.564V25.347C11.9722 25.4082 12.8377 25.5795 13.0336 25.7754C13.2786 26.0201 17.5654 28.7126 17.9941 28.8962C18.3371 29.0431 19.7293 29.1614 20.3825 29.2022L25.1592 26.9992C24.3835 28.1415 22.7464 30.4995 22.4034 30.7932C22.0605 31.0869 20.7091 31.242 20.0763 31.2828V32.935C20.0763 34.0568 20.211 36.3985 20.7499 36.7901C21.2888 37.1818 21.3011 38.4628 21.2399 39.0543L20.0763 41.6856C20.0763 43.2154 20.309 46.8993 21.2399 49.3959C22.4034 52.5168 23.9957 51.5377 25.1592 52.2108C26.3228 52.8839 26.384 55.1481 26.2003 56.8003C26.0534 58.1221 25.1592 58.8605 24.7306 59.0645C25.098 59.9824 25.8329 61.9283 25.8329 62.3689C25.8329 62.8095 25.098 67.244 24.7306 69.4061C24.2406 69.4673 23.0893 69.6386 22.4034 69.8345C21.5461 70.0792 20.7499 72.0374 20.0763 73.0777C19.4026 74.118 22.4647 76.5657 22.8321 76.5657C23.1995 76.5657 25.0368 75.709 25.8329 75.709H30.7934C31.0791 74.0772 31.6507 70.7401 31.6507 70.4464C31.6507 70.0792 30.7321 65.4898 30.7934 65.1226C30.8546 64.7554 32.4468 56.4332 32.0794 54.6586C31.7855 53.2389 31.3037 51.7825 31.0996 51.2317L36.8562 51.9049C38.6321 51.7621 42.4903 51.3419 43.7151 50.8034C45.2461 50.1303 48.5531 50.375 49.8391 50.8034C51.1252 51.2317 50.6965 55.6376 52.105 57.2287C53.2318 58.5015 56.6164 59.5948 58.1678 59.9824C58.2086 61.2062 58.2658 63.8865 58.1678 64.8166C58.0698 65.7468 56.6164 67.6927 55.9019 68.5494C55.0446 69.1002 52.8766 70.324 51.0639 70.8136C49.2512 71.3031 49.4921 74.2812 49.8391 75.709H55.9019C55.8611 75.4642 55.8039 74.8645 55.9019 74.424C56.0244 73.8732 57.3105 72.6494 57.3717 72.0374C57.4207 71.5479 58.5353 69.7937 59.0864 68.9778C59.413 68.4678 60.0785 67.2766 60.1275 66.5912C60.1765 65.9059 61.0461 62.9196 61.4748 61.5122C61.6585 62.6137 62.026 64.9513 62.026 65.4898V68.9778C61.536 69.4877 60.3847 70.5688 59.6988 70.8136C59.0129 71.0583 58.719 73.6896 58.6577 74.9747H64.5368C64.4143 74.0568 64.2429 72.1843 64.5368 72.0374C64.8308 71.8906 65.3534 70.7524 65.5779 70.2016V59.0645C65.5779 58.3301 64.0265 57.0043 63.2508 56.4332C63.1487 55.658 62.9323 53.9242 62.8833 53.1899C62.8221 52.272 63.1283 50.9258 64.1694 50.8034C65.2105 50.681 65.333 55.0869 65.5779 56.4332C65.8229 57.7794 66.864 57.7182 67.3539 58.3913C67.8438 59.0645 68.0888 62.8584 68.0888 63.2868C68.0888 63.6295 71.8857 65.6325 73.7841 66.5912C73.3759 66.2241 72.4736 65.3551 72.1306 64.8166C71.702 64.1435 72.0082 62.2465 71.6407 60.2883C71.2733 58.3302 71.8244 57.3511 71.6407 55.6376C71.457 53.9242 70.8446 50.4362 70.8446 49.3959C70.8446 48.3557 70.1709 45.4184 69.7423 43.6438C69.3993 42.2241 67.3947 39.4215 66.4353 38.1976C63.4141 36.6678 57.2125 33.4735 56.5756 32.935C55.7794 32.2618 52.2275 32.935 50.6965 32.629C49.1655 32.323 43.8376 33.6081 42.919 33.6081C42.0004 33.6081 38.1422 33.9753 37.2236 33.9753C36.305 33.9753 32.6306 33.1185 31.6507 32.935C30.8668 32.7881 29.8543 30.3853 29.4461 29.2022C29.3032 26.9992 29.0296 22.4954 29.0786 22.1038C29.1399 21.6142 29.5686 18.5546 29.936 18.0038C30.3034 17.4531 30.6709 14.0875 30.5484 13.3531C30.4259 12.6188 27.8538 10.9054 27.1802 10.5994C26.5065 10.2935 27.7926 7.23383 27.8538 6.86667C27.9151 6.49951 27.3027 4.72491 27.1802 4.29655C27.0822 3.95387 25.7104 1.50206 25.0368 0.318993C23.9345 0.359788 21.6073 0.416902 21.1174 0.318993C20.6274 0.221084 19.5251 2.44036 19.0352 3.56223L18.0554 5.09206V10.1099Z" fill="black"/>
</svg>
