<svg width="89" height="89" viewBox="0 0 89 89" fill="none" xmlns="http://www.w3.org/2000/svg">
<path fill-rule="evenodd" clip-rule="evenodd" d="M10.3657 49.0153L12.8618 48.5166C12.8031 52.4321 12.0676 60.3424 9.59574 60.6595C6.50589 61.0559 1.53792 39.3902 1.35616 32.7259C1.1744 26.0617 1.84068 17.1683 2.50711 14.9597C2.63773 14.5268 2.83345 13.708 3.08192 12.6686C4.10122 8.4046 6.00828 0.426857 7.95031 0.140444C10.3657 -0.215787 11.1337 0.567936 11.6556 2.13535C12.0732 3.38928 12.1775 4.65271 12.1775 5.12768C11.326 4.41521 9.48354 3.04729 8.92601 3.27527C8.22911 3.56026 6.74822 6.83758 6.38471 8.54749C6.0212 10.2574 5.77886 19.1503 5.5971 29.3939C5.41535 39.6374 8.82575 59.7926 9.59574 56.4778C10.2117 53.826 10.5827 51.1162 10.6911 50.0928L10.3657 49.0153ZM75.5359 18.4689H80.6451C80.1498 17.1215 79.2612 14.3612 79.6699 14.0991C80.0787 13.8369 81.4815 14.2811 82.1318 14.536L82.9679 16.6664L87.6594 12.4603L83.5253 8.03577C83.1227 9.01901 82.1501 10.9527 81.4813 10.8216C80.6451 10.6577 80.3202 9.51062 80.3202 9.07363C80.3202 8.63664 80.1806 5.68693 78.0439 5.74156C76.3346 5.78526 75.2261 8.63662 74.8856 10.0568C73.6933 9.92938 71.2346 9.28116 70.9373 7.708C70.5657 5.74156 70.5657 3.77506 71.4018 3.50194C72.0707 3.28345 72.7022 2.64614 72.9344 2.3548C70.4881 2.73717 65.5862 5.09693 65.549 11.477C65.5119 17.8571 69.6212 21.6266 71.6805 22.7138C70.9373 21.4081 69.5345 18.4908 69.8689 17.2672C70.0153 16.7317 70.025 16.1828 70.0336 15.6955C70.0496 14.7911 70.0619 14.0991 70.9373 14.0991C72.0149 14.0991 73.6469 14.3904 74.3281 14.536L75.5359 18.4689ZM7.95031 9.01906C7.95031 8.21477 9.02446 7.67365 10.2941 7.03404L10.3657 6.99796C10.9697 6.70663 12.1775 6.29877 12.1775 6.99796C12.1775 7.60896 12.512 8.08647 12.8052 8.50515C12.9314 8.68537 13.05 8.85469 13.1309 9.01906C13.2142 9.18809 13.4396 9.28913 13.7336 9.4209C14.3897 9.71495 15.3872 10.1621 15.9088 11.8595C15.9542 12.0073 15.9961 12.1423 16.0347 12.2665C16.2471 12.9503 16.3574 13.3054 16.3889 13.6674C16.4229 14.0587 16.3649 14.4579 16.2443 15.2886L16.2443 15.2887L16.2442 15.2889L16.2442 15.2891C16.1598 15.8707 16.0446 16.6638 15.9088 17.8135C15.5558 20.8025 15.3421 20.6855 14.9625 20.4775C14.7594 20.3662 14.5087 20.2288 14.1637 20.5274C13.174 21.384 12.5024 21.9103 11.295 22.7138C10.3412 23.3485 10.4595 24.2175 10.5971 25.2278C10.6337 25.4964 10.6716 25.775 10.6911 26.0618C10.784 27.4274 10.9698 29.8676 11.295 30.2374C11.6201 30.6071 12.1775 32.1385 12.1775 32.7259C12.1775 33.0291 12.623 33.7069 13.0604 34.3725C13.4706 34.9966 13.8737 35.6101 13.8962 35.8941C13.9334 36.3638 13.2221 38.339 12.8618 39.2678C12.4015 40.0247 11.4436 41.5386 11.295 41.5386C11.2385 41.5386 11.225 41.8601 11.2048 42.3383C11.1585 43.4345 11.0774 45.3536 10.3657 46.1089C9.34357 47.1936 8.22911 46.4366 8.22911 45.8162C8.22911 45.7217 8.23449 45.3058 8.2428 44.6638C8.28908 41.0868 8.42615 30.4929 8.22911 29.3939C8.07168 28.5158 8.12755 26.9473 8.17997 25.4755C8.20493 24.7746 8.22911 24.0957 8.22911 23.5236C8.22911 21.7501 8.22911 21.1455 8.92601 20.217C9.48354 19.4742 10.1181 19.0699 10.3657 18.9606C10.0561 18.469 9.33478 17.2455 8.92601 16.2841C8.62731 15.5815 8.5508 15.0283 8.47382 14.4717C8.41912 14.0762 8.36418 13.6789 8.22911 13.2251C7.9356 12.2389 7.9448 10.2735 7.94938 9.29767C7.94987 9.19248 7.95031 9.09879 7.95031 9.01906ZM34.2597 22.249C35.123 22.4474 35.7708 22.5962 35.7708 22.3899C35.7708 22.2709 35.8341 22.0301 35.9135 21.7277C36.154 20.8116 36.543 19.3303 35.7708 18.9606C34.8518 18.5206 34.0179 17.2933 33.6863 16.8053C33.6473 16.748 33.6153 16.7009 33.5909 16.6664C33.5542 16.6147 33.52 16.4321 33.4702 16.1657L33.4701 16.1656L33.4701 16.1656C33.2042 14.7448 32.4918 10.9396 28.5742 11.8595C24.9486 12.7109 23.7023 14.6902 23.0644 15.7033C22.8838 15.9903 22.7519 16.1997 22.6286 16.2841C22.5409 16.3441 22.4007 16.4341 22.2239 16.5476L22.2237 16.5477L22.2235 16.5478L22.2235 16.5478C21.2734 17.1578 19.2677 18.4453 18.6803 19.3977C18.1229 20.3015 17.3952 21.985 17.101 22.7138C18.7856 22.1782 22.4297 21.2675 23.5297 21.9103C24.6297 22.5531 26.9909 25.602 28.034 27.0461C28.034 27.0461 29.1316 22.3899 30.702 21.9103C31.5966 21.6371 33.1169 21.9865 34.2597 22.249ZM56.2122 18.4689C55.8564 18.9662 54.9959 19.6045 54.2733 20.1406C53.6466 20.6054 53.1237 20.9933 53.1237 21.1455C54.3747 20.9395 57.2347 20.804 58.667 21.9103C60.0955 23.0138 60.8247 24.9992 61.1959 26.01C61.29 26.266 61.361 26.4595 61.4147 26.5602C61.5578 26.8291 61.9786 26.1867 62.4963 25.3967C62.9388 24.7213 63.452 23.9381 63.923 23.5236C64.7405 22.8041 67.0816 22.468 68.15 22.3899C67.8248 22.139 66.998 21.5389 66.292 21.1455C65.6453 20.7852 65.0983 19.5158 64.706 18.6052L64.706 18.6052C64.5629 18.2731 64.4403 17.9887 64.341 17.8135C64.0876 17.3666 64.0502 16.4113 64.0079 15.3292C63.9881 14.8246 63.9673 14.2924 63.923 13.7713C63.7925 12.2373 62.6037 12.0914 61.0425 11.8998C60.936 11.8867 60.8277 11.8734 60.7179 11.8595C58.9992 11.641 57.7363 12.6788 57.4669 13.2251C57.2413 13.6823 57.1978 14.4456 57.1623 15.0667L57.1623 15.067L57.1623 15.0673L57.1622 15.0677L57.1622 15.0682L57.1622 15.069C57.1553 15.1891 57.1488 15.3038 57.1412 15.41C57.0948 16.0655 56.8766 17.5403 56.2122 18.4689ZM50.9553 20.5274C50.5442 20.3303 49.8898 20.6963 49.0194 21.1832C47.9233 21.7963 46.4847 22.601 44.7581 22.7138C43.7363 22.6058 41.6377 22.3899 41.4173 22.3899C41.2798 22.3899 40.8677 22.0871 40.3452 21.7033L40.3451 21.7033C39.8211 21.3183 39.1861 20.8518 38.6057 20.5274C37.808 20.0815 37.5766 20.7675 37.3331 21.4893C37.2229 21.816 37.1102 22.1501 36.9414 22.3899C36.3995 23.1592 36.0806 28.5847 36.9414 28.5442C37.63 28.5118 41.1521 28.3957 42.8271 28.3418L44.1294 26.5602L45.1173 27.7344C46.9598 28.0718 50.7876 28.6252 51.3594 28.1393C52.0743 27.532 51.8841 20.9728 50.9553 20.5274ZM49.0858 48.9544L49.0858 48.9543C48.2878 47.3528 47.1504 45.0701 43.6354 45.0241C40.7 44.9857 39.7544 47.2482 39.1814 48.6192C38.9654 49.1359 38.8024 49.526 38.6057 49.6185C37.7076 50.0411 33.621 50.6747 32.4085 50.569C31.196 50.4634 30.702 46.8195 30.702 45.8162C30.702 45.0135 32.0492 43.0173 32.7229 42.1195C32.2738 41.9258 31.241 41.4752 30.702 41.2217C30.0282 40.9049 29.9386 35.7823 30.702 34.0396C31.1789 32.9509 32.2693 33.2018 33.2505 33.4276C33.8399 33.5633 34.3899 33.6899 34.7438 33.5115C35.2169 33.2731 35.7466 32.4498 36.2363 31.6885C36.7228 30.9323 37.1699 30.2374 37.4832 30.2374C37.9861 30.2374 41.1056 29.9909 42.6025 29.8676C42.7073 31.9272 42.899 36.152 42.8271 36.5745C42.7553 36.997 38.516 38.7925 36.4053 39.6374C37.6478 39.6374 40.2674 39.5635 40.8063 39.2678C41.3452 38.9721 42.2283 38.6165 42.6025 38.4756L44.1294 41.5386C44.324 40.7817 44.7221 39.215 44.7581 39.0037C44.794 38.7924 46.1502 38.3172 46.8238 38.106L45.8807 36.5745L45.1173 30.2374C46.1053 30.2197 48.656 30.1951 50.9553 30.2374C52.8836 30.2728 54.4076 32.5191 55.4188 34.0096C55.9148 34.7405 56.2874 35.2897 56.5238 35.3071C57.0986 35.3493 58.859 33.2123 59.6673 32.1385C60.2212 33.5468 61.293 36.7118 61.1493 38.106C60.9696 39.8488 58.2752 40.8521 57.4669 40.8521C56.8202 40.8521 53.1258 39.0214 51.3594 38.106C49.6829 38.5461 46.9495 39.3946 49.4285 39.2678C52.5271 39.1094 57.5118 42.3836 57.7363 42.7005C57.9608 43.0173 57.7812 48.5095 56.5238 49.6185C55.5179 50.5058 51.3744 49.9882 49.4285 49.6185C49.3173 49.419 49.2054 49.1944 49.0858 48.9544ZM35.0133 24.0499C35.1031 24.6843 35.2288 26.1716 35.0133 27.0461C34.7438 28.1393 34.1869 30.3257 33.9459 30.6901C33.7049 31.0545 31.5432 31.4189 31.1226 31.338C30.702 31.257 29.6077 29.8804 29.6077 29.1111C29.6077 28.3418 30.5223 25.3456 30.702 25.0217C30.8458 24.7625 33.6361 24.2659 35.0133 24.0499ZM56.5238 23.5236H53.1237H52.9516C53.0089 24.6168 53.1237 26.8518 53.1237 27.0461C53.1237 27.2162 53.4106 27.8824 53.6299 28.3917C53.7239 28.6099 53.8054 28.7993 53.8467 28.9086C53.9569 29.2001 55.9126 32.0987 56.8766 33.5115C57.4734 32.7195 58.7841 30.9559 59.2523 30.2374C59.6045 29.6969 59.5952 29.0472 59.5848 28.3243C59.5779 27.8458 59.5706 27.3353 59.6673 26.8032C59.8632 25.7253 59.2713 25.3852 58.8905 25.1665C58.7993 25.1141 58.7202 25.0686 58.667 25.0217C58.6203 24.9805 58.5499 24.9102 58.4613 24.8219C58.0276 24.3892 57.1599 23.5236 56.5238 23.5236ZM47.4827 54.9421L47.4828 54.9421C47.5308 54.8501 47.5735 54.7681 47.6149 54.7001C47.7308 54.5092 47.7296 54.1485 47.7283 53.7539V53.7538C47.7257 52.9767 47.7227 52.0683 48.6133 52.0683C49.6876 52.0683 53.95 51.8254 55.947 51.7039C56.3372 52.5677 57.276 54.4329 57.9095 54.9835C58.543 55.5342 58.8851 57.0215 58.9769 57.6963C56.3602 57.7908 51.0235 58.1498 50.6103 58.83C50.0938 59.6803 47.4771 64.9843 47.0295 65.9561C46.9161 66.2024 46.7473 66.9119 46.5266 67.8398L46.5265 67.84L46.5265 67.8402L46.5264 67.8404C45.8764 70.5729 44.776 75.199 43.3111 75.471C41.5696 75.7943 40.7499 70.3155 40.5392 68.9072C40.5125 68.7284 40.4955 68.6152 40.4878 68.5878C40.4824 68.5689 40.4707 68.5262 40.4534 68.463C40.2482 67.713 39.2515 64.0706 38.6057 62.8384C38.3773 62.4025 38.0328 61.7123 37.6604 60.9662C36.8912 59.4251 36.0028 57.6452 35.7708 57.3724C35.6525 57.2332 35.2181 56.7925 34.699 56.2659L34.6988 56.2657C33.7079 55.2605 32.4085 53.9422 32.4085 53.8093C32.4085 53.7779 32.3983 53.7241 32.3851 53.6547C32.3134 53.2774 32.1545 52.4418 33.0852 52.2708C33.5625 52.1831 34.4706 52.2017 35.4296 52.2215C36.6846 52.2473 38.0269 52.2749 38.6057 52.0683C39.4926 51.7519 40.0183 53.7865 40.3498 55.07L40.35 55.0705C40.4002 55.2647 40.4459 55.4418 40.4878 55.5909C40.7426 56.4978 43.0217 56.8865 44.1294 56.9675C46.5004 56.825 47.1309 55.6165 47.4827 54.9421ZM41.9538 53.163C41.5976 52.9536 41.3197 51.0289 41.2252 50.0928C41.9876 50.7037 43.5811 51.9302 43.8563 51.9492C44.2004 51.973 46.4469 53.163 46.285 53.3773C46.1231 53.5915 44.342 53.5915 43.8563 53.5915C43.3706 53.5915 42.3991 53.4249 41.9538 53.163ZM41.3692 48.5166L46.6818 51.7039C46.8691 50.2891 46.8263 47.4294 45.1571 47.3086C43.4878 47.1878 41.9363 48.0636 41.3692 48.5166ZM49.1056 65.9561C47.7454 66.763 48.0092 69.2201 48.1068 70.1286C48.1172 70.2251 48.1256 70.3042 48.1301 70.3619C49.1675 71.2734 51.3707 73.1678 51.8841 73.4528C52.1741 73.6137 52.9319 74.3711 53.8062 75.245L53.8063 75.2451C54.867 76.3053 56.0994 77.537 56.8766 78.0838C58.2946 79.0812 60.6084 80.0787 61.1493 79.6512C61.3192 79.5169 61.6159 79.0546 61.9899 78.4718C62.8067 77.199 63.9922 75.3518 65.0311 75.0914C66.2428 74.7878 69.1711 74.4899 70.4838 74.379C70.2478 73.7136 69.776 72.2082 69.776 71.509C69.776 70.635 69.3579 68.1223 68.8005 67.0844L68.7827 67.0512C68.2073 65.9798 66.5128 62.8246 65.4097 61.5128C64.2948 60.1871 62.9942 59.6555 59.3247 59.2185C56.389 58.8689 52.93 59.5827 51.5674 59.9833C51.552 61.0576 51.4652 63.3481 51.2423 63.9162C50.9636 64.6263 50.6103 65.0633 49.1056 65.9561ZM72.2407 78.5825C71.4531 82.6435 69.7225 84.2822 68.8005 84.9946C67.8786 85.7071 65.2129 86.4908 64.0617 86.4908C63.3713 86.4908 62.2231 86.0807 61.0888 85.6756C60.3319 85.4053 59.5812 85.1372 58.9769 84.9946C58.7534 84.9419 58.507 84.8907 58.2459 84.8365C56.743 84.5244 54.752 84.1109 53.8228 82.7148C52.9504 81.4038 49.9863 78.2262 48.6133 76.8013C48.4493 77.7988 48.2195 79.9362 48.6133 80.5061C49.1056 81.2186 53.0958 83.641 53.8228 84.0684C54.5499 84.4959 56.8766 86.2058 56.8766 87.2033C56.8766 88.0012 48.0491 88.2482 43.6354 88.272C43.9014 86.4196 44.5781 82.7148 45.1571 82.7148C45.736 82.7148 45.8807 79.1049 45.8807 77.3L46.6818 72.8828C47.0035 72.2519 47.7435 71.0939 48.1301 71.509C48.2803 71.6703 48.8872 72.1945 49.6523 72.8553C51.3486 74.3205 53.8228 76.4576 53.8228 76.8013C53.8228 77.2003 56.5473 79.4374 57.9095 80.5061L59.6673 81.5036V83.2847L61.1493 83.641L61.5777 80.8624C62.0725 79.5562 63.5314 76.8441 65.4097 76.4451C67.7574 75.9464 69.0682 75.8751 69.776 75.8751C70.0004 75.8751 70.3304 75.8178 70.6764 75.7577L70.6765 75.7577C71.4215 75.6283 72.2407 75.4859 72.2407 75.8751V78.5825ZM29.6077 71.9036C30.1401 72.1267 31.9167 71.9714 33.9428 71.7942C35.5002 71.658 37.2051 71.509 38.6057 71.509L39.3337 69.4875C39.0911 68.4653 38.5143 66.1979 38.1484 65.3058C37.7825 64.4137 37.5525 64.0077 37.4832 63.9162L35.0133 65.3058C35.4773 63.757 36.1269 60.5243 35.0133 59.9833C34.329 59.6509 33.8516 58.9167 33.3842 58.1978C32.9007 57.4541 32.4278 56.7268 31.7477 56.4778C30.5789 56.05 30.6543 54.3324 30.6919 53.4745C30.6974 53.3506 30.702 53.2446 30.702 53.163C30.702 52.5168 29.6077 52.0683 27.2435 52.0683C24.8793 52.0683 24.0827 52.0683 21.2382 52.2708C19.4074 52.4011 19.1804 53.001 18.935 53.6495C18.7992 54.0086 18.6576 54.3827 18.2351 54.7001C17.7542 55.0614 16.9873 55.2762 16.2034 55.4957C15.0547 55.8174 13.8696 56.1493 13.4938 56.9675C12.9881 58.0688 12.8618 59.8877 12.8618 60.6595C13.415 61.3858 14.6477 63.054 15.1535 63.9162C15.7856 64.994 18.4725 65.3987 19.4207 65.3058C20.095 65.2397 20.1699 64.0201 20.2422 62.8442C20.2715 62.3664 20.3004 61.8958 20.3689 61.5128C20.4314 61.1634 20.4939 60.733 20.5593 60.2827C20.7419 59.0246 20.9472 57.6109 21.2382 57.3724C21.5542 57.1133 22.8976 57.2644 23.5297 57.3724C25.0311 58.2427 28.034 60.2892 28.034 61.5128V66.4209C28.034 67.7219 28.6661 71.509 29.6077 71.9036ZM21.7138 70.6639C22.3192 70.7477 26.1298 70.9812 26.3079 70.3619C26.4859 69.7426 26.9133 67.6067 26.9133 66.8947C26.9133 66.1827 26.3079 63.4727 26.1298 62.8384C25.9981 62.3693 25.0679 61.3066 24.4338 60.5821C24.2105 60.327 24.0239 60.1138 23.9218 59.9833C23.5297 59.4819 22.0343 58.3105 22.0699 59.1469C22.0927 59.682 22.0863 60.2182 22.0788 60.8531C22.0745 61.2105 22.0699 61.5992 22.0699 62.0366C22.0699 63.2511 21.5105 65.3058 21.2382 65.3058C20.9659 65.3058 20.0755 66.5178 20.0755 66.8947C20.0755 67.1962 21.1677 69.5332 21.7138 70.6639ZM14.1637 68.5878C13.174 66.1348 13.1309 64.34 13.1309 63.3349C13.4752 64.2086 14.5127 65.9561 15.9088 65.9561C17.3048 65.9561 18.0413 66.5818 18.2351 66.8947C18.2351 67.6625 18.3325 69.3321 18.7222 69.8682C19.008 70.2613 19.4243 71.1157 19.8634 72.017C20.1727 72.652 20.4934 73.3102 20.7878 73.8468C21.3576 74.8855 22.8532 76.7086 23.5297 77.4904C23.4111 76.946 23.1739 75.7798 23.1739 75.471C23.1739 75.1621 22.5803 73.1985 22.2836 72.2554C23.4826 72.1381 25.966 71.9036 26.3079 71.9036C26.7352 71.9036 27.2435 72.2135 27.4831 72.8828C27.6123 73.2436 27.9024 73.6052 28.2652 74.0573C28.5752 74.4437 28.9383 74.8962 29.2994 75.471C29.8559 76.3568 29.9632 77.3023 30.017 77.7759C30.0389 77.9691 30.0519 78.0838 30.0829 78.0838C30.1302 78.0838 30.3518 78.558 30.6327 79.1594C30.9867 79.9171 31.435 80.8766 31.7477 81.3434C32.3085 82.1806 33.3237 84.0684 33.4305 84.8194C33.516 85.4202 33.236 87.3714 33.0852 88.272L18.7222 88.6305C18.7104 88.4351 18.6937 87.8599 18.7222 87.1228C18.7494 86.4192 20.8537 84.7874 21.9419 83.9435L21.942 83.9434C22.2786 83.6824 22.518 83.4967 22.5685 83.4374C22.7394 83.2364 24.8477 82.4602 25.8805 82.0972C25.2276 81.9855 23.7722 81.7203 23.1739 81.5528C22.478 81.3579 21.813 79.3502 21.4657 78.3017C21.4397 78.2233 21.4155 78.1503 21.3932 78.0838C21.1529 77.3667 19.8309 76.0017 18.7341 74.8693L18.7341 74.8692C18.3684 74.4917 18.0278 74.14 17.7607 73.8468L17.6399 73.7144C16.5789 72.5519 15.1167 70.9499 14.1637 68.5878ZM68.8005 24.4229C67.5926 24.4776 65.3165 25.5631 64.7126 26.0617C64.4893 26.2461 64.1706 26.4399 63.8388 26.6416C63.2737 26.9851 62.6707 27.3517 62.4366 27.7344C62.065 28.3418 61.6469 30.0593 61.6469 31.338C61.6469 31.4098 61.6466 31.4882 61.6463 31.5724C61.641 32.9876 61.6297 36.0309 62.9011 36.5745C63.3505 36.7666 63.8 36.9011 64.2253 37.0284C65.0747 37.2825 65.8277 37.5079 66.292 38.106C66.9887 39.0037 67.3603 40.3767 67.1745 41.5386C67.1353 41.7839 67.0795 42.0692 67.0194 42.3767C66.7947 43.5251 66.5098 44.9821 66.8029 45.8162C67.1745 46.8735 68.2893 49.6185 69.2648 49.6185C70.2402 49.6185 71.1693 50.2367 71.9125 50.9703C72.507 51.5572 73.5847 52.6767 74.0492 53.163C74.4517 47.5524 75.1361 36.1999 74.653 35.6755C74.0492 35.02 73.2131 33.8729 72.9344 33.1628C72.6557 32.4527 72.5628 30.4877 72.5628 29.1111C72.5628 27.7344 72.4234 26.8717 71.9125 25.4608C71.5037 24.3321 69.6675 24.2986 68.8005 24.4229ZM14.1637 34.0396C14.8336 35.2986 19.4207 34.4739 19.4207 34.3101L22.0699 33.8184C21.4051 34.5468 19.6126 36.1176 17.7607 36.5745C15.9088 37.0313 15.2509 36.7648 15.1535 36.5745C14.6002 38.1236 13.3674 41.5175 12.8618 42.7005C12.2298 44.1792 14.1637 47.3086 14.1637 46.4366C14.1637 45.657 14.618 44.7869 15.0154 44.0257L15.0155 44.0256C15.0626 43.9354 15.1088 43.8468 15.1535 43.76C15.4656 43.1531 16.2565 42.8639 17.201 42.5187C17.5315 42.3978 17.8809 42.2701 18.2351 42.1195C19.6014 41.5385 20.3689 40.3187 20.7878 39.6374C20.9388 39.3918 21.3373 38.8865 21.8035 38.2953C22.6306 37.2464 23.671 35.927 23.9218 35.3071C24.1684 34.6974 25.4187 34.6115 26.5094 34.5365H26.5094C27.1528 34.4923 27.7407 34.4519 28.034 34.3101C28.8244 33.9277 28.9923 32.9444 28.9923 32.1385C28.9923 31.6685 28.0791 30.2485 27.2826 29.01C26.7135 28.1252 26.204 27.333 26.1298 27.0461C25.9517 26.3578 24.3937 25.0217 23.5297 24.4229C23.2576 24.2344 23.0951 24.0754 22.9629 23.946L22.9629 23.946C22.6755 23.6647 22.5314 23.5236 21.7138 23.5236C20.5202 23.5236 18.2351 24.0499 16.4507 25.0217C14.986 25.8193 13.6891 27.5445 12.9237 28.5626C12.7567 28.7847 12.615 28.9732 12.5024 29.1111C11.9119 29.8339 13.3063 32.4379 14.0326 33.7943C14.0793 33.8815 14.1233 33.9635 14.1637 34.0396ZM79.978 36.778C79.218 36.5646 78.4457 36.3479 78.0439 36.2219C77.3472 36.0034 76.1859 34.9655 75.9072 34.4739C75.7949 34.2759 75.4716 34.1022 75.1254 33.9164C74.6123 33.6408 74.0492 33.3384 74.0492 32.8898V31.0326C74.0492 30.9088 74.0342 30.7301 74.0171 30.5247L74.0171 30.5244C73.9737 30.005 73.916 29.3148 74.0492 28.9086C74.1978 28.4551 74.1111 26.8217 74.0492 26.0617L74.653 24.6962C74.2505 23.895 73.4546 22.2162 73.4918 21.9103C73.5382 21.528 74.8389 19.9439 75.9072 19.78C76.9756 19.6161 77.3472 19.6881 78.5549 20.1078C79.7626 20.5274 80.3664 21.1069 80.6451 21.9103C80.7396 22.1826 80.77 22.5529 80.8015 22.9362C80.863 23.6839 80.9285 24.481 81.4813 24.6962C81.8394 24.8356 82.2742 25.1061 82.6981 25.3698C83.2639 25.7218 83.8103 26.0617 84.1289 26.0617L84.1449 26.0617C84.6943 26.0615 85.1044 26.0613 85.1044 28.1393C85.1044 29.4475 84.9599 30.78 84.8511 31.7833L84.8511 31.7835C84.7854 32.3892 84.7328 32.8749 84.7328 33.1628C84.7328 33.3675 84.8259 33.5252 84.9685 33.7668C85.359 34.4281 86.1204 35.7178 86.3585 40.3187C86.6131 45.2368 85.9281 47.6102 85.4404 49.3002C85.3051 49.7688 85.1851 50.1849 85.1044 50.5881C84.7328 52.4453 83.5251 53.8093 82.2709 54.7001C81.2676 55.4127 79.3755 55.5909 78.5549 55.5909L78.3691 38.4756L81.4813 37.2051C81.0879 37.0895 80.5363 36.9347 79.978 36.778ZM78.5549 80.5061H74.3006L74.9671 55.5909L75.9072 37.2051L77.0876 38.106L78.5549 80.5061ZM45.6564 12.8102L46.8689 11.4371H52.7518L47.9467 13.9192L45.881 15.8731V19.8867C47.9467 19.517 52.2847 18.6087 53.111 17.9327C54.1439 17.0877 55.3115 15.7147 55.3115 15.1866C55.3115 15.0957 55.3195 14.7573 55.3313 14.2553C55.3883 11.8425 55.5345 5.65005 55.3115 4.99432C55.0959 4.3606 53.7547 3.00513 53.111 2.4066C53.5302 3.26917 54.1798 5.15274 53.4254 5.78646C52.9246 6.20713 51.8792 5.9576 50.5111 5.63106C49.3031 5.34272 47.8435 4.99432 46.2851 4.99432C44.6384 4.99432 42.5617 5.74642 40.8034 6.38316C39.0135 7.03139 37.5536 7.56007 37.2138 7.05389C36.6749 6.25118 36.6001 4.11415 36.6301 3.14597C35.8367 3.60365 34.2769 4.77251 34.3847 5.78646C34.4924 6.8004 35.178 8.28611 35.5073 8.90223L35.2378 15.1866L36.0462 17.299L44.354 20.5732L43.9499 15.8731L41.48 13.9192L37.8874 11.8068L43.0068 11.4371L44.354 13.2326L45.6564 12.8102Z" fill="black"/>
</svg>
