<svg width="92" height="89" viewBox="0 0 92 89" fill="none" xmlns="http://www.w3.org/2000/svg">
<path fill-rule="evenodd" clip-rule="evenodd" d="M8.03984 67.2967C5.44992 62.6542 5.75523 57.942 6.23162 56.1661L12.8951 65.1087L15.9417 66.6308V59.6861L12.1335 54.3587C11.594 54.2001 10.1722 53.883 8.80124 53.883C8.03824 53.883 7.69044 53.619 7.33773 53.3512C6.89824 53.0176 6.45112 52.6782 5.18363 52.8365C3.82977 53.0057 4.08043 51.9722 4.29149 51.1019C4.43661 50.5036 4.563 49.9825 4.13629 49.9825C3.70255 49.9825 3.70971 49.542 3.7182 49.019C3.73021 48.2793 3.7449 47.3745 2.51777 47.3188C0.423225 47.2237 0.994466 44.655 1.94693 42.6572C2.7089 41.059 3.72399 40.0886 4.13629 39.8032L1.94693 35.4271L5.18363 32.3828L8.03984 36.9493C8.34625 37.6442 9.28544 39.8032 10.329 41.372C11.3726 42.9408 9.20718 38.0613 8.65931 37.1228C8.11145 36.1843 14.1623 26.963 14.5139 26.1041C15.1994 24.4297 16.9422 23.6135 18.1481 23.8037C19.5762 24.2156 22.2882 26.2206 22.4083 25.8438C22.6662 25.0344 19.2777 24.0417 18.427 23.1549C17.5763 22.2681 20.4167 19.0609 20.4167 18.3982C20.4167 16.2102 27.6524 12.0243 30.4134 11.2633C32.6222 10.6544 36.348 8.78979 37.9348 7.93359C38.3156 6.22119 41.0004 2.79639 48.6931 2.79639C56.3858 2.79639 57.5473 8.44097 57.1665 11.2633C58.8168 12.4683 62.4029 15.1066 63.5454 16.0199C64.6878 16.9332 64.0214 21.1571 63.5454 23.1549C63.8627 23.4403 65.0115 24.2204 67.068 25.0576C69.1245 25.8948 68.5596 29.0215 68.0201 30.4802C68.5596 30.2265 70.0575 29.7191 71.7331 29.7191C73.4088 29.7191 75.2875 31.4949 76.0174 32.3828C76.3348 32.034 77.2361 31.0129 78.3024 29.7191C79.3687 28.4253 80.3335 28.5458 80.6826 28.7678V19.9204H76.3983L77.5408 15.5443L73.5421 13.7367L73.1612 11.2633H75.6366C75.8588 9.26546 76.3221 5.17472 76.3983 4.79419C76.4326 4.6225 77.0003 4.50039 77.7119 4.34733C78.9717 4.07633 80.6826 3.70832 80.6826 2.79639C80.6826 1.6548 81.8885 0.608325 82.4915 0.227783L83.634 3.55744L87.8231 4.22336C88.1087 5.42839 88.6799 8.14286 88.6799 9.36057C88.6799 10.5783 90.0128 9.86795 90.6793 9.36057V13.7367H88.6799L89.3464 18.3982L84.9669 20.5863V30.4802C86.2046 31.1144 88.6799 32.6492 88.6799 33.7147V36.093C89.1242 36.5053 90.0319 37.6342 90.108 38.8519C90.1842 40.0696 88.6165 40.5643 87.8231 40.6594C88.1087 41.3254 88.5086 42.8855 87.8231 43.7988C87.1376 44.7121 85.189 44.1793 84.3004 43.7988V49.9825H80.6826V44.655C80.1431 45.0356 78.7594 45.5683 77.5408 44.655C76.3221 43.7418 75.1923 42.9426 74.7798 42.6572C74.1768 42.467 72.4948 42.4289 70.5907 43.7988C68.2105 45.5112 64.5926 42.9426 62.6885 39.8032C61.1652 37.2917 57.8647 33.8098 56.4049 32.3828C56.4049 33.7464 55.9859 37.1395 54.3103 39.8032C52.6347 42.467 52.2792 41.4839 52.311 40.6594C52.0888 41.5473 51.6445 43.8179 51.6445 45.7966C51.6445 47.4101 53.67 49.3878 55.5277 51.2017C56.518 52.1687 57.4606 53.0891 58.0234 53.883C59.6419 56.1662 61.6412 59.0202 61.546 65.1087C61.4833 69.1176 59.2743 70.9406 57.7726 72.1799C56.9935 72.8228 56.4049 73.3086 56.4049 73.861C56.4049 75.4782 57.833 78.4274 59.2611 79.1885C59.4977 79.3146 59.763 79.4328 60.0429 79.5575C61.4519 80.1855 63.2276 80.9769 63.5454 83.7548C63.85 86.4186 61.3239 86.0063 60.0227 85.4672C59.2928 85.7209 57.5473 86.2093 56.4049 86.1332C55.2624 86.0571 54.5325 85.6575 54.3103 85.4672C53.8343 86.3234 52.6347 88.169 51.6445 88.7018C50.6028 89.2623 48.617 87.0598 47.106 85.384C46.8217 85.0687 46.5542 84.772 46.3129 84.5159C45.0943 83.2221 45.8052 80.4252 46.3129 79.1885C44.8848 79.347 41.7811 79.3026 40.791 77.8566C39.8505 76.4832 41.8234 74.8351 43.0758 73.7888C43.4717 73.4581 43.7956 73.1876 43.9328 73.0048C44.504 72.2437 46.3129 68.2481 46.9794 66.6308C47.6458 65.0136 46.9794 63.3963 46.3129 62.0644C45.7798 60.9989 46.5351 57.6883 46.9794 56.1661C46.0591 56.6418 43.6281 57.5171 41.267 57.2126C39.1796 56.9435 38.2779 55.0189 38.0091 53.7655C38.431 56.2834 39.3367 60.8478 40.1245 62.0644C40.695 62.9455 40.1636 64.25 39.6539 65.5013C39.228 66.5468 38.8172 67.5552 39.0772 68.2481C39.2875 68.8083 39.5751 69.201 39.8547 69.5827C40.3347 70.2381 40.791 70.861 40.791 72.2437C40.791 74.4318 39.6485 75.1928 39.0772 75.5734C38.6676 75.8463 38.111 77.8316 37.7236 79.2136C37.5708 79.7587 37.4443 80.2099 37.3635 80.4252C37.0779 81.1862 38.6012 82.1376 41.267 81.8522C43.8829 81.5721 43.5651 85.0481 43.3724 87.1559L43.3615 87.2748C43.2382 88.6307 38.5591 88.1099 34.4507 87.6526C32.2177 87.4041 30.1533 87.1743 29.0805 87.2748C26.0339 87.5602 20.4167 84.7062 19.7503 83.7548C19.294 83.1036 20.6226 81.9618 21.8116 80.9401C22.3593 80.4694 22.8774 80.0242 23.1777 79.6641C23.9394 78.7508 24.0663 74.844 24.0346 73.0048C25.2405 72.8462 28.0904 71.4826 29.8422 67.2967C31.594 63.1109 28.3506 60.0349 26.5099 59.0202C26.3195 56.3564 25.8435 50.8197 25.4627 49.9825C25.0818 49.1453 24.6693 37.9005 24.5106 32.3828C23.7172 32.8902 21.9591 34.0762 21.2736 34.7611C20.6543 35.38 19.2889 38.5333 18.1481 41.1681C17.7105 42.1787 17.306 43.1131 16.9893 43.7988C16.0753 45.7776 17.3701 48.7457 18.1317 49.9825L15.1803 51.029L19.7503 58.3542C20.7658 58.0688 23.33 58.183 25.4627 60.9228C28.1285 64.3476 27.0812 68.8189 25.4627 70.0556C24.1679 71.045 21.5592 70.9118 20.4167 70.7216L14.5139 77.0004C13.435 75.7002 10.6297 71.9393 8.03984 67.2967ZM48.6931 12.2931C52.575 12.1616 53.5484 10.1235 53.5484 10.0249C53.5484 9.946 49.4105 9.39135 49.6985 9.63043C49.9864 9.8695 49.5376 11.2649 48.5902 11.2649C47.6427 11.2649 47.274 10.2471 47.4186 9.63043C47.5632 9.01377 42.7379 10.0249 42.7379 10.0249C42.7379 10.0249 44.8112 12.4245 48.6931 12.2931ZM53.1693 16.4594C51.4631 15.8047 47.3846 16.8334 46.1925 16.9354C45.0004 17.0374 43.6638 17.5854 43.6638 17.5854C43.6638 17.5854 51.3318 16.9354 52.4803 17.5854C53.6287 18.2355 53.5484 19.0642 53.5484 19.0642C53.5484 19.0642 54.8755 17.1141 53.1693 16.4594ZM35.4076 32.9259H45.7931L46.5211 31.0633L46.9794 32.9259L55.0246 33.192L53.5484 32.3828C51.8066 32.5713 48.2518 32.8353 47.9678 32.3828C47.6837 31.9303 46.6659 28.0085 46.1925 26.1041L44.861 31.9503L35.4076 32.9259ZM44.5262 43.7988L38.9117 43.3885L44.0839 42.9125L44.861 41.8245L45.9894 42.9125L50.4811 43.3885L45.3769 43.7988L45.1728 42.9125L44.5262 43.7988Z" fill="black"/>
</svg>
