<svg width="97" height="76" viewBox="0 0 97 76" fill="none" xmlns="http://www.w3.org/2000/svg">
<path fill-rule="evenodd" clip-rule="evenodd" d="M27.0243 20.0135C27.8643 20.1535 29.3932 20.7863 28.7884 22.1976C28.1836 23.6089 24.6722 26.5379 22.9921 27.8259L19.2958 33.3703C18.3438 33.7903 16.4397 34.7648 16.4397 35.3024C16.4397 35.84 15.9916 38.0466 15.7676 39.0826C14.18 38.7014 10.8373 37.8359 10.1675 37.4237C9.49766 37.0115 8.55734 35.0192 8.1709 34.0746H13.1946L14.6116 30.7898L16.4397 30.1458L17.5099 27.8259L22.1471 25.3153L15.3201 26.4746V28.6644H13.1946L12.0997 32.5288H7.01163C5.18677 31.9277 1.69164 30.0685 2.30994 27.4407C3.08282 24.156 4.49972 20.6257 7.3336 22.1976C9.60071 23.4552 12.1856 22.2667 13.1946 21.5153C12.9155 20.8283 12.3831 19.2096 12.4861 18.2306C12.5892 17.2516 13.3019 15.1606 13.6454 14.2374L6.74747 8.84855L2.30994 1.54028L13.6454 11.5151L7.6857 0.404541L17.9074 10.6756C18.9279 12.0625 21.0282 14.7166 21.2652 14.2374C21.5615 13.6384 25.3638 7.41653 25.4132 7.71281C25.4626 8.00909 27.6353 12.0089 28.0797 11.5151C28.4352 11.12 32.3429 8.58519 34.2522 7.36715C33.9395 9.29297 33.6498 12.8187 34.9929 11.5151C36.3361 10.2114 39.4701 9.35881 40.8692 9.09545C39.8651 10.4781 38.2915 13.2434 40.0297 13.2434C41.7679 13.2434 45.2969 13.9061 46.8442 14.2374C46.0047 15.0747 44.4542 16.8086 44.9677 17.0457C45.4813 17.2827 46.4327 19.5147 46.8442 20.601C47.0419 22.1085 47.0175 25.3936 45.3374 26.4746C43.6573 27.5557 42.5652 31.9917 42.2292 34.0746C43.6292 33.7386 46.5974 32.7745 47.2695 31.6062C47.9415 30.4379 49.5656 27.6983 50.2937 26.4746L52.1418 29.254L53.4019 24.8858L55.754 28.6644L58.6942 29.254C59.4222 28.4421 60.7271 26.1966 60.1223 23.7097C59.5982 21.5547 58.4282 20.1088 57.6756 19.1788C57.3426 18.7673 57.0914 18.4568 57.0141 18.2306C56.8074 17.6259 54.8492 15.6799 53.8733 14.7101L53.8733 14.7101C53.6593 14.4974 53.4925 14.3317 53.4019 14.2374C52.8978 13.7131 52.3098 13.2434 51.3017 13.2434C50.4953 13.2434 50.2937 15.7782 50.2937 17.0457C48.8376 15.0439 46.547 10.6021 49.0336 8.84855C51.5201 7.09503 52.4218 6.20862 52.5618 5.98461C52.8698 6.93925 53.8387 8.84855 55.25 8.84855C57.0141 8.84855 81.7956 8.05847 84.9878 7.71281C87.5415 7.43628 92.2122 10.6457 94.2283 12.285L88.6 11.5151C91.0642 12.8075 96.0765 16.434 96.4125 20.601C96.7485 24.7681 96.0485 32.8103 95.6564 36.3105C94.9284 32.4737 92.9851 24.1431 91.0362 21.5153C88.6 18.2306 86.1639 15.8607 84.9878 17.0457C84.3103 17.7282 85.1938 18.9322 86.3056 20.4471C87.1239 21.5621 88.0658 22.8456 88.6 24.2137C89.6081 26.7953 89.6361 32.3458 89.5241 34.7984C87.1999 29.1724 82.0476 18.776 80.0315 22.1976C78.1102 25.4582 81.7324 30.5631 84.0645 33.0254C81.2913 30.2054 75.703 25.2995 73.0591 25.8098C69.6148 26.4746 70.0349 28.6854 71.547 30.1458C72.7566 31.3141 74.0671 33.2518 74.5711 34.0746L76.7553 33.3703L77.7633 39.0826L83.7277 37.4237L83.1397 40.8467H87.928L86.1639 43.9549H90.1961L87.928 47.9032H95.0684L93.3043 52.7755C94.5924 53.4525 97.0173 55.807 96.4125 59.8085C95.6564 64.8103 94.1443 69.6692 91.0362 70.9554C88.6308 71.9508 77.9773 71.4055 72.1653 71.1081H72.1652C70.4671 71.0211 69.1824 70.9554 68.6374 70.9554C68.1541 70.9554 67.5212 70.9217 66.8242 70.8846H66.8241C64.0442 70.7366 60.2448 70.5344 60.8581 72.1988C61.4716 73.8643 62.1363 75.1572 62.392 75.5954L53.4019 74.938L58.6942 66.3917L60.1223 68.5831H73.0591C73.3399 68.5831 73.7476 68.5985 74.2499 68.6176C78.3807 68.7742 88.9108 69.1733 87.928 63.2143C87.0461 57.8674 82.2962 56.6767 80.0315 56.7498C81.0675 57.7359 83.1397 60.0587 83.1397 61.4612C83.1397 62.8637 81.0675 65.3326 80.0315 66.3917L60.8581 65.8439L57.0141 64.5291L53.4019 70.9554L51.3017 68.1448L48.3673 70.9554V67.3778H46.8442L48.3673 64.5291C48.4609 63.7256 49.1789 61.9871 51.3017 61.4612C53.4246 60.9353 58.5571 62.4108 60.8581 63.2143H71.547C73.2432 62.5234 75.7812 61.0083 72.3627 60.4751C70.2504 60.1456 68.3791 60.4363 66.8811 60.6691C65.3486 60.9072 64.2067 61.0846 63.5972 60.4751C62.392 59.2698 61.1868 54.8871 62.392 53.3532C63.3562 52.126 67.3225 49.2085 69.1852 47.9032C65.6882 49.4277 58.6942 52.8053 58.6942 54.1201C58.6942 55.435 59.2602 58.4602 59.5432 59.8085L49.6821 59.0507L48.3673 54.1201L45.3374 62.4473L42.2292 69.4596L40.8692 72.7467H36.2053V74.938L33.0278 70.9554L32.0417 74.938L29.6312 70.9554H27.0243L24.8103 72.7467L24.0433 68.1448C24.8327 66.063 26.887 62.1624 28.7884 63.2143C30.6898 64.2661 33.2232 64.5291 34.2522 64.5291L36.2053 61.4612L37.8488 58.2837L42.2292 56.7498L41.4646 52.7755L40.0297 55.7637L37.301 56.7498L34.9929 49.6279V57.2976C31.3938 57.1497 23.7858 54.5761 22.1471 45.4643C20.0988 34.0746 27.9456 29.254 28.7884 29.254C29.6312 29.254 37.4177 23.7942 36.2053 22.1976C35.8941 21.7878 35.6271 21.3269 35.3614 20.8683C34.5921 19.5402 33.8335 18.2306 32.0417 18.2306C30.1133 18.2306 27.8933 19.4192 27.0243 20.0135ZM84.3997 33.3703C84.2933 33.2594 84.1814 33.1443 84.0645 33.0254C84.1797 33.147 84.2917 33.2621 84.3997 33.3703ZM16.4562 17.776H19.7071L16.7174 19.953L16.4562 17.776ZM34.4004 41.8345C33.2547 42.6246 33.5609 45.752 33.8572 47.2169C33.4128 46.0318 32.4745 42.99 32.277 40.3037C32.0795 37.6174 34.3345 34.7073 35.4867 33.588C35.3551 34.0818 34.9534 35.2274 34.4004 35.8595C33.8473 36.4916 33.9724 38.7235 34.1041 39.7605L40.4741 39.1186C38.9269 39.6947 35.546 41.0444 34.4004 41.8345ZM21.9615 52.9149L25.906 56.5306C24.5912 57.2611 21.5671 58.6782 19.9893 58.5028C18.7723 58.3676 17.6388 57.1894 16.6659 56.1781C16.0622 55.5506 15.5203 54.9873 15.0587 54.7775C14.0944 54.3393 9.76299 54.5949 7.7178 54.7775L6.84115 60.0368L3.7733 53.901L5.41677 49.847L1.14368 51.2714L3.11596 46.56L7.7178 45.5739V43.1634L3.7733 41.0816H11.9909L13.0865 46.56L16.2641 48.9704L20.7564 49.847L21.9615 52.9149ZM14.0537 49.3223H14.0538L14.1125 49.3225L11.9092 50.7913L9.90642 52.0821V49.4783C9.90648 49.3096 13.5221 49.3207 14.0537 49.3223Z" fill="black"/>
</svg>
