<svg width="99" height="72" viewBox="0 0 99 72" fill="none" xmlns="http://www.w3.org/2000/svg">
<path d="M36.523 69.9093H24.7924C24.7924 68.0649 25.4564 64.3761 28.1125 64.3761C31.4326 64.3761 31.6538 66.368 33.7564 65.4827C35.4385 64.7745 34.8999 62.753 34.4204 61.8307C31.2111 60.3552 24.7924 57.1164 24.7924 55.9655C24.7924 54.5269 24.018 48.6616 30.6579 49.215C35.9698 49.6576 39.1422 53.162 40.0644 54.8589L40.839 64.3761L37.2978 65.4827L36.523 69.9093Z" fill="black"/>
<path d="M63.9226 69.9093H75.6532C75.6532 68.0649 74.9892 64.3761 72.3331 64.3761C69.0131 64.3761 68.7919 66.368 66.6892 65.4827C65.0071 64.7746 65.5457 62.753 66.0253 61.8307C69.2346 60.3552 75.6532 57.1164 75.6532 55.9655C75.6532 54.5269 76.4277 48.6616 69.7878 49.215C64.4759 49.6576 61.3035 53.162 60.3813 54.8589L59.6066 64.3761L63.1479 65.4827L63.9226 69.9093Z" fill="black"/>
<path d="M48.1428 71.1266H38.9576V67.364L43.0522 66.2573L44.1589 52.8669L40.839 49.215L35.7484 44.6777L36.523 38.8125L40.0644 32.7259C40.0644 35.1975 40.2193 40.3176 40.839 41.0258C41.6137 41.9111 43.3842 43.6818 44.1589 44.0138C44.7786 44.2794 45.6713 45.8213 46.0402 46.5591V49.215L53.7867 49.7683V45.3417L58.324 43.1284V32.7259L60.3813 34.2752C61.0973 36.4885 62.653 41.0922 63.1479 41.8004C63.6428 42.5087 61.5097 46.227 60.3813 47.9976L56.1107 54.8589V66.2573L58.324 67.364L60.3813 71.1266H51.2414L50.3561 58.9535H49.0281L48.1428 71.1266Z" fill="black"/>
<path d="M44.9015 38.4703L42.9896 36.4819L45.628 35.3347L44.9015 32.5433L42.263 31.5491L41.8042 23.4807L45.3221 29.4842H52.2051L55.6465 25.2397L56.1107 31.5491L52.7022 32.0845V35.5642L55.2259 36.2525L52.9698 38.4703L51.6315 44.6777H47.3105L44.9015 38.4703Z" fill="black"/>
<path d="M34.5006 32.7259C34.47 32.4132 30.9444 29.6697 29.1854 28.337C29.2872 26.3359 29.4298 21.3699 29.1854 17.5155C28.88 12.6974 32.3587 7.42049 36.5268 6.50276C39.8612 5.76858 42.2246 10.9894 42.9896 13.6916C43.1169 12.0729 43.2951 8.23115 42.9896 5.81447C42.6076 2.79361 38.4005 1.41704 34.883 1.18761C31.3655 0.958178 28.3055 4.47611 27.4647 6.31157C26.792 7.77993 17.1402 13.0161 12.3983 15.4506C8.6254 16.7635 1.18662 23.2738 1.61489 38.8125C2.04317 54.3512 10.1294 60.7621 14.1189 62.0253C11.8883 57.8827 7.42711 48.7488 7.42711 45.3532C7.42711 41.1087 7.50367 35.87 11.7482 35.3347C15.1438 34.9064 16.3752 40.9423 16.5664 44.0138C17.9176 40.6109 21.0253 33.7975 22.6466 33.7669C24.2679 33.7363 26.5342 35.1562 27.4647 35.87C27.6559 37.2211 28.0459 40.0533 28.0765 40.5734C28.1071 41.0934 31.2758 42.8295 32.8563 43.6325C33.4044 41.5294 34.5771 37.2696 34.883 37.0554C35.2654 36.7878 34.5388 33.1168 34.5006 32.7259Z" fill="black"/>
<path d="M64.6877 36.4819L66.6892 42.7631L71.0628 43.1284C71.4862 40.5305 73.198 35.3347 76.6572 35.3347C80.1164 35.3347 81.6546 41.1207 81.9914 44.0138C82.8587 41.2992 84.9967 35.87 86.61 35.87C88.6266 35.87 89.2121 35.5642 92.5947 42.7631C95.3009 48.5223 90.5131 58.4588 87.7809 62.7072C89.9493 60.46 94.6634 55.3458 96.1726 52.8669C98.059 49.7684 97.4085 45.3417 97.6687 37.7275C97.9289 30.1132 92.2044 19.4481 88.4314 16.4557C84.6585 13.4634 78.4786 10.2108 74.4454 9.75543C70.4122 9.30007 67.8123 0.778367 63.712 0.583213C60.4316 0.42709 60.1247 2.64317 60.3813 3.77073C59.5616 4.13935 57.6492 5.20183 56.5563 6.50276C55.4635 7.80369 57.2794 11.8374 58.324 13.6916C58.6455 11.8808 59.7698 8.15518 61.6954 7.73886C64.1023 7.21844 64.3529 12.2924 65.8587 13.6916C67.3644 15.0908 70.0111 22.7393 70.1284 25.2397C70.2222 27.2401 68.6235 30.2795 67.8123 31.5491C66.8937 32.2479 64.9158 33.6454 64.3529 33.6454C63.79 33.6454 64.8549 35.3452 64.6877 36.4819Z" fill="black"/>
</svg>
