<svg width="99" height="64" viewBox="0 0 99 64" fill="none" xmlns="http://www.w3.org/2000/svg">
<path fill-rule="evenodd" clip-rule="evenodd" d="M56.4287 10.7254C58.3406 11.5038 59.2078 11.8569 61.9275 10.0928C64.7673 8.25073 66.5767 6.0377 68.0196 4.2728C69.2633 2.75153 70.2349 1.56322 71.3596 1.23243C72.9082 0.776939 74.8053 0.902161 77.0879 1.05283C78.386 1.13851 79.8089 1.23243 81.3632 1.23243C85.6504 1.23243 87.6512 2.23285 87.3653 3.0903C87.1367 3.77626 86.2221 5.75793 85.7934 6.66302C87.413 6.80595 90.9381 7.26329 92.0813 7.9492C93.5104 8.8066 95.2253 12.951 95.797 14.3801C96.3686 15.8092 96.9402 20.2394 96.7973 21.5256C96.683 22.5545 95.3206 24.5266 94.6537 25.3841C95.5588 26.1463 97.4261 27.8707 97.6548 28.671C97.8478 29.3467 97.7801 30.87 97.7158 32.316C97.6849 33.0109 97.6548 33.6879 97.6548 34.2444C97.6548 34.4405 97.6567 34.6271 97.6585 34.8081V34.8091C97.6725 36.211 97.6831 37.2707 96.7973 39.675C96.4759 40.5474 96.2283 41.5231 95.9833 42.4883C95.4658 44.5271 94.9602 46.5191 93.7962 47.3921C92.4243 48.421 88.9373 50.3932 87.3653 51.2506C87.937 49.107 88.4229 45.0769 85.7934 46.1059C83.7479 46.9063 83.1967 49.2009 82.6589 51.44L82.6588 51.4401C82.3324 52.7991 82.0109 54.1376 81.3632 55.1092C79.6483 57.6815 76.2184 60.6826 75.361 59.1106C74.5035 57.5386 71.3596 57.6815 71.3596 58.3961C71.3596 58.9677 68.6919 60.635 67.3581 61.3972C67.4057 59.3012 67.2152 55.1092 66.0719 55.1092C65.2348 55.1092 63.613 56.4822 62.2695 57.6197C61.3195 58.4241 60.5086 59.1106 60.2127 59.1106C59.4981 59.1106 55.3537 60.5397 53.6388 61.3972C53.4202 61.5065 53.1807 61.6343 52.9242 61.7713L52.9241 61.7714C51.168 62.709 48.6131 64.0731 46.4934 62.8262C45.5929 62.2965 44.5157 61.8846 43.4801 61.4886L43.48 61.4886C41.7217 60.8163 40.0835 60.1898 39.6338 59.1106C39.0621 57.7387 37.5853 55.8713 36.9183 55.1092C36.9659 55.4426 35.8607 56.3382 31.0589 57.2528C26.9851 58.0288 26.3346 55.7105 25.7562 53.6494C25.4824 52.6737 25.2248 51.7557 24.6279 51.2506C22.7701 49.6786 20.3408 50.5361 21.3411 52.8226C22.3415 55.1092 21.6268 56.3953 19.0544 56.1095C17.5546 55.9429 16.735 55.0475 15.6891 53.9049C14.9411 53.0879 14.0774 52.1444 12.7666 51.2506C9.62256 49.107 9.62242 46.3917 9.76533 43.8194C9.8269 42.711 8.93327 42.4251 7.93047 42.1043C6.60596 41.6806 5.09099 41.1959 5.33499 38.6746C5.76371 34.2444 8.3364 31.5292 9.76533 30.1001C11.1942 28.671 8.76481 25.8128 5.33499 28.671C1.90517 31.5292 1.47644 29.2426 1.47644 24.3837C1.47644 20.4966 4.0488 16.095 5.33499 14.3801C5.19206 14.0942 4.76329 12.8366 4.19165 10.0928C3.95929 8.97745 3.53045 8.23993 3.20985 7.68856C2.54457 6.54439 2.34535 6.20179 5.33499 4.94812C6.8685 4.30505 7.81976 3.66199 8.65705 3.09596C10.2387 2.02674 11.4137 1.23243 15.3385 1.23243C21.3411 1.23243 22.484 1.94703 25.7709 4.94812C27.0622 6.12715 27.3611 6.77679 27.5599 7.20902C27.8672 7.87699 27.9356 8.02572 31.0589 8.8066C32.941 9.27715 33.8476 9.57555 34.4225 9.76477C34.7335 9.86715 34.9475 9.93757 35.1663 9.98601C35.6485 10.0928 36.1544 10.0928 37.7753 10.0928C40.7478 10.0928 44.3495 9.23532 45.7787 8.8066C51.8864 8.87601 54.6233 9.99033 56.4287 10.7254ZM38.4265 27.853C38.7069 27.4702 39.2604 26.9639 40.1156 26.4591C39.4504 26.9719 38.8776 27.4495 38.4265 27.853ZM40.1156 26.4591C41.8706 25.423 44.896 24.3927 49.4382 24.4458C56.1935 24.5248 60.0222 25.2359 61.0921 25.5816C60.1868 23.9685 57.1318 20.7818 52.1543 20.9399C48.0741 21.0694 43.1401 24.1276 40.1156 26.4591ZM42.6733 19.1925C41.9161 19.8674 39.7303 21.1085 37.0442 19.8838C33.8342 18.1555 32.9948 13.1187 32.9948 13.1187C33.9495 13.9088 36.2045 15.8149 37.5872 17.1185C38.9698 18.4222 41.554 19.0444 42.6733 19.1925ZM58.7713 18.2239C60.9441 17.73 62.7218 14.1089 63.265 12.4464C62.3432 13.0225 59.986 14.4118 57.9318 15.3599C55.8775 16.308 52.8951 16.7096 51.6606 16.7919C51.6606 16.7919 56.5985 18.7177 58.7713 18.2239Z" fill="black"/>
</svg>
