<svg width="79" height="93" viewBox="0 0 79 93" fill="none" xmlns="http://www.w3.org/2000/svg">
<path fill-rule="evenodd" clip-rule="evenodd" d="M12.2773 42.463L10.7998 38.8518C11.8818 37.1512 14.046 33.6613 14.046 33.3062C14.046 32.8623 14.7118 31.3088 17.079 29.9032C18.9729 28.7788 19.7422 26.3277 19.8902 25.2427C20.5067 26.303 21.7544 28.5125 21.8136 28.8676C21.8644 29.1724 21.8454 30.2449 21.8286 31.1984C21.8209 31.6332 21.8136 32.0433 21.8136 32.3445C21.8136 33.1139 23.3918 34.8844 24.1809 35.6735V38.8518L42.8972 29.9032V26.2783C42.2068 25.6619 41.033 24.3549 41.8615 24.059C42.0354 23.9969 42.2196 23.9224 42.4062 23.8468C43.3315 23.4722 44.3152 23.074 44.3768 24.059C44.436 25.0059 44.4014 26.8702 44.3768 27.6839V29.3914L52.3664 25.8345C52.0211 23.8124 51.3307 19.576 51.3307 18.8066C51.3307 18.7262 51.3327 18.6226 51.3352 18.4998C51.362 17.1531 51.4349 13.4986 49.3333 12.8884C48.2864 12.5845 47.5015 12.2805 46.8803 12.0399C46.1406 11.7535 45.6328 11.5568 45.1905 11.5568C44.6119 11.5568 43.0608 11.856 42.0265 12.0555C41.6063 12.1366 41.2714 12.2012 41.1218 12.2226C40.7075 12.2818 39.3216 11.8034 38.6805 11.5568C39.4203 7.75927 39.4499 0.134646 33.65 0.0162813C27.8502 -0.102083 26.6468 8.1045 26.7701 12.2226C25.3152 12.6665 22.2871 13.421 21.8136 12.8884C21.7328 12.7974 21.6409 12.6816 21.5387 12.5528C20.8929 11.739 19.836 10.4071 18.5586 11.5568C18.0985 11.9709 17.4882 12.4207 16.8656 12.8796C15.486 13.8965 14.046 14.9579 14.046 15.7735C14.046 16.9572 11.8266 22.5055 11.5307 23.0973C11.4168 23.3251 11.0838 23.6515 10.6285 24.0976C9.90096 24.8106 8.86141 25.8294 7.90583 27.24C6.3523 29.5334 4.87257 32.7144 4.79859 33.3062C4.74053 33.7707 4.77361 37.4711 4.79053 39.3634C4.79517 39.882 4.79859 40.2648 4.79859 40.408C4.79859 40.9407 5.63709 44.5261 6.05633 46.2523L4.79859 48.0277L1.61768 49.5073L2.80139 53.798L6.94414 50.7649C8.20174 51.6773 11.3828 53.1026 14.046 51.5047C16.7092 49.9068 16.7832 48.5209 16.4872 48.0277L57.1009 32.3445C56.5338 33.4542 55.1923 35.6735 54.3638 35.6735C53.5352 35.6735 49.5799 36.8571 47.7058 37.449C48.2483 38.0408 50.443 39.2984 54.8816 39.5943C59.5787 39.9074 61.4658 37.8347 62.7871 36.3834C63.0265 36.1204 63.2474 35.8778 63.463 35.6735C64.5875 34.6082 64.622 30.6923 64.4987 28.8676L67.0139 27.6839L69.7511 34.3419L77.8147 30.643L75.1515 24.059L76.4831 23.0973L75.1515 19.7683H73.2281L69.7511 12.2226L61.9095 15.7735L64.4987 21.5438C63.8082 21.0999 61.8503 20.3453 59.5422 20.878C57.2341 21.4106 55.72 24.0097 55.2515 25.2427L18.5586 42.7753C17.9914 42.3561 16.6796 41.5029 15.9694 41.4437C15.2592 41.3845 13.2121 42.0986 12.2773 42.463ZM23.9152 45.742L45.2669 37.958C44.7803 40.3405 43.9529 45.508 44.5369 47.1189C45.1209 48.7298 46.2066 50.4749 46.6764 51.1461C47.1798 52.1949 48.2621 54.5944 48.5641 55.8026C48.6542 56.1629 48.8231 56.688 49.0246 57.3146C49.6678 59.3143 50.6435 62.3481 50.4519 64.3604C50.261 66.3647 50.3596 68.731 50.4185 70.1416C50.4372 70.591 50.4519 70.9435 50.4519 71.1563C50.4519 71.5968 49.9799 72.9182 49.508 74.2396C49.0361 75.561 48.5641 76.8825 48.5641 77.323C48.5641 77.8554 49.2536 80.5942 49.7992 82.7613C50.1564 84.1801 50.4519 85.3538 50.4519 85.5032C50.4519 85.6273 51.2952 86.0507 52.414 86.6123C54.6982 87.7591 58.1305 89.4821 57.877 90.4114C57.575 91.5188 50.7875 91.4601 47.4315 91.2923C45.7535 91.7957 42.3723 92.6515 42.2716 92.0474C42.1709 91.4433 42.9848 87.4329 43.4043 85.5032C43.0267 81.518 42.2716 73.2454 42.2716 72.0372C42.2716 70.8291 41.6843 69.0168 41.3907 68.2617L35.224 60.7107L33.7138 53.9148L32.0778 60.7107C31.071 61.6336 28.7553 63.857 27.5472 65.3672C26.037 67.2549 25.7853 71.0304 25.7853 72.0372C25.7853 72.8427 24.5386 76.9874 23.9152 78.959V83.2379C23.9152 84.2447 24.6585 87.8524 25.0302 89.5304L21.2546 92.0474L18.7375 90.4114C17.9824 90.9567 16.0695 92.0474 14.4587 92.0474H8.0404C7.83076 90.747 8.11619 88.0705 10.9351 87.7685C13.7539 87.4665 15.3817 86.7198 15.8432 86.3842L17.731 83.2379L17.1017 72.0372C16.6822 70.8207 15.8432 68.0856 15.8432 66.8774C15.8432 66.3592 15.6951 65.9447 15.5512 65.5424C15.2759 64.7723 15.0166 64.047 15.8432 62.7243C16.2784 62.028 16.7287 61.0307 17.2044 59.977C18.1043 57.9836 19.0954 55.7885 20.248 55.0475C21.6575 54.1414 23.2801 51.23 23.9152 49.8876V45.742Z" fill="black"/>
</svg>
