<svg width="98" height="65" viewBox="0 0 98 65" fill="none" xmlns="http://www.w3.org/2000/svg">
<path d="M34.7701 63.4128H26.0489L27.1598 54.8374L30.837 51.4684L36.1382 51.1007L30.837 56.2308L33.5732 58.7958L34.7701 63.4128Z" fill="black"/>
<path d="M55.0555 14.6774C54.6478 15.3569 54.1926 20.8408 54.2832 21.4298L61.633 22.1754L68.5034 23.2275C68.5034 23.2275 66.9056 18.8733 68.5034 16.0506C70.1012 13.2279 75.0651 11.9414 75.0651 11.9414H78.6439L82.4946 18.6104L81.5432 10.0486L77.8285 7.46636L69.9147 5.61185V11.4437L62.6183 7.68895C61.7906 8.20815 59.2231 8.8583 57.5853 10.4024C55.9363 11.957 55.2191 14.4047 55.0555 14.6774Z" fill="black"/>
<path d="M77.3755 59.0652L71.758 55.577L72.4376 58.7958L71.1691 59.9713L70.8067 63.4128H78.6892L77.3755 59.0652Z" fill="black"/>
<path fill-rule="evenodd" clip-rule="evenodd" d="M1.8503 23.9496L9.80364 11.9414L26.0489 3.9043L37.677 0.484253H56.4872L65.5503 1.85228L68.9703 5.44331V10.4024L62.4722 6.81132L56.4872 8.86334L53.2382 14.6774V22.0305L61.2752 23.2275C63.6122 23.1705 69.0729 23.4669 72.2193 25.1085C75.3657 26.7501 79.4584 30.6945 81.1114 32.4615L84.7024 39.3016L85.4576 42.3796C85.4576 42.3796 86.1663 43.9187 90.0046 43.9187C93.8428 43.9187 97.5275 39.3016 97.5275 39.3016C97.5275 39.3016 96.6062 44.3436 93.8428 45.2934C91.0794 46.2432 81.5432 46.9967 81.5432 46.9967L82.2455 50.0517L83.3781 47.7413L85.4576 46.9967L86.5834 57.7698H78.8884L72.2193 49.5617V43.9187L66.4053 46.9967V51.1007H68.9703L69.8253 58.7958L62.4722 64.0968L61.2752 58.7958L65.5503 56.2308L64.0112 54.1787L56.4872 52.8107V48.7067H30.837L21.0899 56.2308L19.2089 62.3868H12.1978V56.2308L19.2089 51.9557L21.0899 44.9447L26.0489 42.3796V37.4206L19.2089 41.0116L11.3428 46.9967H3.81872C2.5647 44.8877 0.261884 40.5328 1.08269 39.9856C2.1087 39.3016 3.81872 34.5136 3.81872 33.4876C3.81872 32.6667 7.12481 29.7255 8.77786 28.3575H25.023L13.0529 35.1976L8.77786 32.4615L5.87083 37.4206L4.84482 42.3796H11.3428L21.0899 35.1976L28.614 29.8965H40.7551L39.5581 26.4765L30.837 27.3315L34.7701 22.0305L32.7181 17.9264L26.0489 18.6104L19.2089 23.2275L26.0489 14.6774L21.0899 11.9414L12.1978 16.5584L1.8503 23.9496ZM41.134 43.0284C40.9165 43.0284 36.9964 41.2163 35.0635 40.3102C35.6977 41.6693 37.0477 44.4418 37.3739 44.6592C37.7816 44.931 42.1759 45.2934 42.946 45.2934C43.5621 45.2934 50.6021 42.6357 54.045 41.3069C52.0064 41.775 47.8205 42.7747 47.3856 43.0284C46.9294 43.2945 43.028 43.114 41.6241 43.049C41.355 43.0366 41.1777 43.0284 41.134 43.0284Z" fill="black"/>
</svg>
