<svg width="94" height="76" viewBox="0 0 94 76" fill="none" xmlns="http://www.w3.org/2000/svg">
<path fill-rule="evenodd" clip-rule="evenodd" d="M26.2937 13.5531L20.9249 15.7445H10.9543L10.2969 19.0315C8.98212 18.5932 6.35247 18.2645 6.35247 20.4558V25.7151C6.75422 24.5098 7.75493 22.0336 8.54382 21.7706C9.33271 21.5077 10.4795 23.8524 10.9543 25.0577H18.8432L15.4466 26.3725C15.1179 28.0525 14.4605 31.6537 14.4605 32.6179C14.4605 33.5821 15.1179 37.6214 15.4466 39.5206C16.5788 40.105 18.8432 41.5367 18.8432 42.5885C18.8432 43.6404 19.7197 45.9486 20.158 46.9712C21.1441 47.5191 23.2259 48.6586 23.6642 48.8339C24.1024 49.0092 24.5772 53.947 24.7598 56.3941L18.8432 54.641L14.4605 58.5854L13.8031 61.7629L16.5423 58.5854H18.2953V60.9959L17.0901 66.036L18.8432 68.0082V65.269L20.158 60.9959L23.6642 61.7629L23.0068 64.7212L25.5268 63.7351L27.0608 60.1194L24.212 58.5854L27.0608 56.3941V53.6549L31.4435 51.7922C32.1374 49.4182 33.5253 44.8018 33.5253 45.3277V51.7922L47.1117 52.5592C47.7691 55.0792 49.1935 60.1194 49.6317 60.1194C50.07 60.1194 54.197 61.215 56.2058 61.7629C57.1554 62.3107 59.1422 63.6693 59.4928 64.7212C59.9311 66.036 60.3694 68.2274 60.5885 69.4326C60.7638 70.3968 59.9311 72.0257 59.4928 72.7197V75.678H69.1348V68.7752C69.1348 68.427 68.5703 68.4627 67.9333 68.503C67.1671 68.5514 66.2961 68.6065 66.1765 68.0082C66.0854 67.5528 66.1646 66.9649 66.2491 66.3389V66.3388C66.3677 65.4587 66.4966 64.5034 66.1765 63.7351C65.7382 62.6832 65.4095 61.4707 65.2999 60.9959L60.5885 58.5854L59.4928 48.8339C63.2912 52.5957 72.9477 60.1194 81.1872 60.1194C90.2351 60.1194 90.0662 56.737 89.8915 53.2408L89.8915 53.2405C89.8673 52.757 89.8431 52.2714 89.8431 51.7922C89.8431 48.3868 85.2697 45.5531 83.6672 44.5601C83.4135 44.403 83.2343 44.2919 83.1595 44.232C82.7212 43.8814 78.2289 42.9903 76.0375 42.5885V37.9867C76.0375 38.6003 73.0427 40.4337 71.5453 41.2737C71.4722 40.178 71.1727 37.9867 70.5592 37.9867C69.9456 37.9867 67.3817 37.1832 66.1765 36.7814C65.8843 37.6945 65.4752 39.5206 66.1765 39.5206C66.8777 39.5206 67.1991 41.5659 67.2721 42.5885C67.6739 42.7711 68.6088 43.3555 69.1348 44.232C69.6607 45.1086 70.9609 45.3277 71.5453 45.3277L73.4079 44.232L73.9558 45.3277H81.9542C83.8899 46.4599 87.7394 49.4913 87.6517 52.5592C87.6463 52.7505 87.6419 52.9346 87.6377 53.112L87.6376 53.114C87.5575 56.4906 87.5363 57.3857 81.1872 57.4897C76.1083 57.573 72.358 54.0498 69.1191 51.007L69.1191 51.0069L69.1188 51.0067C68.0956 50.0454 67.1234 49.1321 66.1765 48.3956C63.0209 45.9413 59.0911 43.5016 57.5206 42.5885H54.6718C53.284 42.5155 50.333 42.1502 49.6317 41.2737C49.3453 40.9157 48.7079 40.4407 48.0674 39.9633C46.7478 38.9799 45.4151 37.9867 47.1117 37.9867C48.8304 37.9867 50.2943 37.4261 51.2253 37.0695L51.2253 37.0695C51.6594 36.9033 51.9776 36.7814 52.1518 36.7814C52.59 36.7814 54.0144 34.8092 54.6718 33.8231L63.4373 32.6179L59.4928 30.8648L60.5885 29.4404L76.0375 29.0021C71.874 28.1256 63.7221 26.3725 64.4234 26.3725C65.1246 26.3725 75.4532 25.496 80.5298 25.0577C76.2567 23.962 67.9953 21.7706 69.1348 21.7706C70.2743 21.7706 80.9316 19.9445 86.1178 19.0315C81.0046 18.5201 71.0413 17.3221 72.0931 16.621C73.145 15.9198 84.3647 14.2836 89.8431 13.5531C83.8169 13.407 72.4875 12.9833 75.3801 12.4574C78.9959 11.8 82.7212 10.1565 87.6517 7.30777C91.5962 5.02876 92.7284 1.75636 92.8014 0.405029C91.5962 1.42766 88.8789 3.69204 87.6517 4.56859C86.2966 5.53654 84.2573 6.16243 81.6096 6.97511L81.6091 6.97523C81.2599 7.08243 80.9001 7.19287 80.5298 7.30777C78.2159 8.02588 75.6115 7.69811 73.7744 7.4669C73.0888 7.38061 72.51 7.30777 72.0931 7.30777C70.8659 7.30777 70.5592 5.48165 70.5592 4.56859C67.1626 4.38598 59.7996 4.34946 57.5206 5.66426C55.2416 6.97907 51.3118 7.30777 49.6317 7.30777C48.0247 6.02948 43.8465 3.69204 39.9898 4.56859C35.1688 5.66426 32.5392 6.97908 32.5392 10.5948C32.5392 13.4874 36.7027 15.2332 38.7845 15.7445C39.0402 15.4158 39.3981 15.6129 38.7845 19.0315C38.5029 20.6007 39.1078 21.8006 39.6605 22.8969C40.6129 24.7859 41.4104 26.3675 37.2506 29.0021C32.6857 31.8933 30.7622 32.4599 29.7562 32.7563C29.3134 32.8868 29.0483 32.9649 28.8139 33.1658C28.2003 33.6916 25.8555 33.8231 24.7598 33.8231L28.1564 30.8648V25.7151V21.7706L24.212 20.4558L23.0068 17.1689L26.2937 13.5531ZM12.2983 17.9388H18.9453L12.6756 19.8837L12.2983 17.9388ZM41.8012 54.0595H46.2308C46.723 54.8041 47.0032 56.3992 47.0637 56.8232C47.1395 57.3533 48.1617 60.3442 48.3888 60.647C48.5186 60.8201 49.3404 61.0672 50.127 61.3039C50.7173 61.4814 51.2877 61.653 51.5312 61.7828C51.8193 61.9365 53.2084 62.4312 54.542 62.906C55.837 63.3672 57.0795 63.8097 57.2101 63.903C57.4751 64.0923 57.1723 67.0832 56.9451 67.6132C56.7634 68.0372 57.5004 68.749 57.8916 69.0519L57.7023 72.4592H49.6761C49.4994 71.9292 49.1536 70.8313 49.1839 70.6798C49.2217 70.4905 51.7205 68.9004 52.4019 68.5218C53.0834 68.1432 53.5377 66.2881 53.6513 65.7581C53.7422 65.334 51.8972 63.5875 50.9633 62.7672C49.6508 62.5526 46.9275 62.0554 46.5337 61.7828C46.3181 61.6336 45.7903 61.4045 45.2396 61.1654L45.2395 61.1654C44.5329 60.8587 43.7887 60.5357 43.6185 60.3442C43.3762 60.0716 42.306 56.0408 41.8012 54.0595ZM22.5307 53.2644C22.5307 52.3255 22.3288 49.8446 22.2657 49.2893L19.1234 48.4565L17.912 45.7305C17.2179 46.8411 15.7768 49.1077 15.5647 49.2893C15.3527 49.471 12.7505 49.365 11.4759 49.2893C11.7788 48.2166 12.3845 45.9652 12.3845 45.5412C12.3845 45.0111 11.8166 42.853 11.1351 42.0201C11.0349 41.8977 10.9314 41.7695 10.8262 41.6391C10.216 40.8832 9.54828 40.0559 9.12847 39.8621C8.73473 39.6804 7.39961 39.5088 6.78126 39.4457C7.32394 40.0009 8.44716 41.1266 8.5986 41.1872C8.7879 41.2629 9.73439 41.7172 9.88583 42.323C10.007 42.8076 9.93631 44.216 9.88583 44.8596L5.75913 41.7172C5.02715 41.6163 3.49504 41.4749 3.22245 41.7172C2.94986 41.9595 2.4779 42.5249 2.27599 42.7773L3.63885 43.1559C4.0174 43.2064 4.87295 43.3528 5.26681 43.5345C5.56731 43.6731 6.19211 44.1362 6.65059 44.476C6.94326 44.6929 7.16815 44.8596 7.19765 44.8596C7.27337 44.8596 7.61411 45.9196 7.57625 46.1089C7.54596 46.2604 4.23198 46.3992 2.57878 46.4497L1.21584 47.9641L0.912964 49.6299L2.27599 48.9484C2.25074 48.6203 2.48796 47.9641 3.63885 47.9641H6.78126C7.36173 48.7717 8.58324 50.4855 8.82557 50.8792C9.06789 51.273 9.63338 53.0625 9.88583 53.908C9.12857 54.0973 7.53076 54.4608 7.19765 54.4002C6.86454 54.3396 5.92304 53.2139 5.49392 52.6586C5.3551 53.1634 5.07747 54.2185 5.07747 54.4002C5.07747 54.6273 6.36488 56.1417 6.78126 56.2174C7.08413 56.2725 8.72902 56.2475 9.89479 56.2297C10.3318 56.2231 10.7014 56.2174 10.9078 56.2174C11.665 56.2174 13.4823 55.1574 13.2551 54.4002C13.0734 53.7944 12.2203 52.2043 11.8165 51.485H16.6246L22.5307 53.2644Z" fill="black"/>
</svg>
