<svg width="99" height="74" viewBox="0 0 99 74" fill="none" xmlns="http://www.w3.org/2000/svg">
<path fill-rule="evenodd" clip-rule="evenodd" d="M28.7245 41.4444C28.6091 41.2454 28.516 41.0847 28.1815 40.8989C27.906 40.7458 27.576 40.571 27.226 40.3855L27.2256 40.3853C26.1027 39.7904 24.7742 39.0865 24.3814 38.6446C24.088 38.3145 23.5439 37.9635 23.0228 37.6273C22.6288 37.3732 22.2479 37.1275 21.9984 36.9057C21.5346 36.4935 20.56 35.0594 20.1306 34.3938C19.7871 34.3724 18.9585 34.5871 18.3917 35.6176C17.8249 36.648 16.9963 37.7215 16.6528 38.1294C16.3308 38.3227 15.5451 38.9281 14.9783 39.804C14.2698 40.8989 11.5004 41.6718 11.1783 41.7362C10.8563 41.8006 9.11742 41.6718 8.73099 41.2854C8.62181 41.1762 8.49208 41.103 8.3592 41.028C8.02175 40.8376 7.66406 40.6359 7.57164 39.804C7.46859 38.8765 7.5287 37.743 7.57164 37.2922C7.03498 37.1419 5.89725 37.0217 5.63962 37.743C5.5042 38.1222 5.35737 38.6722 5.21352 39.211C5.0153 39.9536 4.82274 40.6749 4.67345 40.8989C4.60074 41.0079 4.37412 41.0657 4.07612 41.1417C3.31827 41.3348 2.09879 41.6456 1.77519 43.2175C1.32435 45.4074 0.809059 47.9836 1.13109 48.4989C1.38872 48.9111 3.08481 49.0571 3.90065 49.0785L6.60572 50.8819C6.58431 49.9588 6.64451 48.0223 7.05657 47.6616C7.57164 47.2108 9.1178 45.8582 10.1481 45.8582C10.4939 45.8582 10.8543 45.9888 11.2121 46.1185C11.9205 46.3752 12.6189 46.6284 13.1752 45.8582C14.0125 44.6989 14.9786 43.7328 15.365 44.1192C15.6741 44.4284 20.174 46.1802 22.3853 47.0175H16.6528C16.5026 47.9622 16.1508 49.9545 15.9447 50.3667C15.7386 50.7789 14.356 52.0842 13.6904 52.6853C13.0679 52.6638 11.7584 52.5565 11.5006 52.2989C11.2428 52.0412 10.4915 51.2469 10.1481 50.8819C9.67576 51.3113 8.80842 52.2731 9.11757 52.6853C9.31452 52.9479 9.7623 53.2774 10.1967 53.5971L10.1968 53.5971C10.6147 53.9047 11.0203 54.2032 11.1783 54.4243C11.5006 54.8751 12.1447 54.8751 13.1752 54.8751C13.5318 54.8751 14.2125 54.9677 14.9849 55.0727L14.9849 55.0728L14.985 55.0728C16.4443 55.2712 18.231 55.5142 18.7785 55.2616C19.1926 55.0704 19.969 54.1232 20.7649 53.1522C21.5784 52.1597 22.4122 51.1424 22.9006 50.8819C23.8666 50.3667 24.9616 49.3362 25.5412 48.4989C26.1209 47.6616 26.7649 47.0175 27.2802 47.0175C27.7954 47.0175 32.3683 47.5972 33.5276 48.048C34.6869 48.4989 37.8428 48.1768 38.2937 47.0175C38.6544 46.0901 39.0451 45.4288 39.1954 45.2141C40.462 45.4288 43.0726 45.8582 43.3818 45.8582C43.7682 45.8582 45.1208 47.7904 44.7987 49.0785C44.5411 50.109 43.5321 51.9124 43.0598 52.6853C42.0722 52.8141 39.9167 52.9945 39.1954 52.6853C39.1589 52.6697 39.1197 52.6527 39.0781 52.6347L38.9535 52.5806C37.9049 52.1245 35.6752 51.1548 34.4293 51.3328C33.0768 51.526 29.8564 53.6514 29.9853 55.2616C30.0883 56.5497 30.2858 58.074 30.3717 58.6751C30.8869 57.7949 31.9174 56.1117 31.9174 56.4209C31.9174 56.73 32.9909 58.7395 33.5276 59.7056C34.0214 58.9757 35.009 57.6317 35.009 58.0954C35.009 58.187 34.9993 58.341 34.9874 58.5316V58.5317V58.5318C34.9239 59.5486 34.7954 61.6039 35.7174 60.7361C36.5934 59.9117 37.7999 57.9022 38.2937 57.0005C41.4067 57.5158 47.7614 58.3917 48.2767 57.7734C48.9207 57.0005 49.6936 55.1327 49.6936 54.4243C49.6936 54.0652 50.1404 53.7722 50.6398 53.4449C51.1256 53.1264 51.6611 52.7753 51.8834 52.2989C52.1726 51.6793 52.4882 51.4306 52.9152 51.0941C53.1541 50.9058 53.4278 50.6901 53.7512 50.3667C54.6529 49.465 54.9749 49.0785 54.8461 48.048C54.7431 47.2236 57.1218 46.2447 58.3241 45.8582C58.1738 44.4413 57.8861 41.3884 57.9376 40.5125C58.0021 39.4176 58.2597 38.4515 58.8393 37.2922C59.0084 36.9541 59.1007 36.6215 59.1867 36.3119L59.1867 36.3119C59.3955 35.56 59.5665 34.944 60.7071 34.7159C62.3173 34.3938 63.6698 34.0718 64.4427 33.8786C64.9564 33.7502 65.8401 33.7925 66.7343 33.8353H66.7344H66.7344C67.1855 33.8569 67.6392 33.8786 68.0495 33.8786C69.0284 33.8786 70.6901 34.2221 71.3986 34.3938L72.2359 36.9057C70.4754 36.4763 66.8515 35.6176 66.4393 35.6176C66.0271 35.6176 63.6484 36.0469 62.5105 36.2616C62.1241 36.6695 61.2868 37.7171 61.0292 38.6446C60.8791 39.185 60.743 39.3616 60.6208 39.52C60.481 39.7015 60.3594 39.8591 60.2563 40.5125C60.2109 40.8001 60.1441 41.0734 60.0786 41.3418C59.8653 42.2152 59.665 43.0353 60.2563 44.1192C60.7484 45.0214 61.0055 45.6887 61.2105 46.2206C61.3274 46.5241 61.4274 46.7836 61.5444 47.0175C61.6539 47.2364 61.674 47.5148 61.696 47.8173C61.7385 48.4049 61.7877 49.0835 62.5105 49.5937C63.3864 50.2121 64.1636 50.7102 64.4427 50.8819L65.9884 52.2989C64.6144 52.0412 61.6346 51.5517 60.7071 51.6547C60.5286 51.6746 60.3332 51.6944 60.1286 51.7152H60.1285L60.1283 51.7152C59.0044 51.8294 57.6006 51.972 57.1648 52.2989C56.9803 52.4372 56.6884 52.5508 56.369 52.6751C55.7965 52.8979 55.1355 53.1552 54.8461 53.6514C54.6897 53.9195 54.5101 54.1333 54.3421 54.3333C54.0259 54.7097 53.7512 55.0367 53.7512 55.5835C53.7512 56.0406 53.5401 56.5744 53.3484 57.0592C53.1889 57.4627 53.0428 57.8322 53.0428 58.0954C53.0428 58.5592 54.245 59.7485 54.8461 60.2852C55.3829 59.3406 56.4692 57.5158 56.5207 57.7734C56.5722 58.031 56.9716 59.1689 57.1648 59.7056L59.3546 57.3869C59.3975 58.2457 59.638 59.9117 60.2563 59.7056C60.8746 59.4995 62.0167 58.5463 62.5105 58.0954C62.5534 57.9022 62.8969 57.6317 63.9274 58.0954C64.5194 58.3618 65.1658 58.4514 65.7541 58.5329C66.4459 58.6287 67.0573 58.7134 67.4054 59.0615C67.6557 59.3118 67.7406 59.4065 67.8114 59.4854C67.9228 59.6095 67.9991 59.6946 68.6291 60.2852C68.9534 60.5892 69.08 60.855 69.1854 61.0765C69.4151 61.5587 69.5448 61.831 71.3986 61.831C72.3896 61.831 73.2423 61.8828 74.0105 61.9296C75.3393 62.0104 76.4153 62.0758 77.5172 61.831C79.2562 61.4445 79.9002 59.2548 79.9002 58.6751C79.9002 58.2357 79.2342 57.3894 78.7996 56.8372L78.7995 56.837C78.6608 56.6607 78.5456 56.5144 78.4833 56.4209C78.442 56.3589 78.3891 56.2854 78.3294 56.2023L78.3291 56.2019C78.0164 55.7672 77.5172 55.0731 77.5172 54.4243C77.5172 54.0483 77.3039 53.6877 77.0996 53.3422C76.8839 52.9775 76.6782 52.6297 76.7443 52.2989C76.7873 52.0841 76.8445 51.8838 76.9018 51.6834C77.0163 51.2826 77.1308 50.8819 77.1308 50.3667C77.1308 49.7483 77.3884 48.3056 77.5172 47.6616C77.5816 48.1339 77.7877 49.3362 78.0969 50.3667C78.2551 50.894 78.3053 51.5942 78.3537 52.2681C78.4235 53.2403 78.4894 54.158 78.8697 54.4243C79.1145 54.5956 79.3871 54.7297 79.6488 54.8584C80.0757 55.0684 80.4735 55.2641 80.6731 55.5835C80.7332 55.6797 80.7977 55.7713 80.8639 55.8651C81.1521 56.2744 81.47 56.7256 81.5748 57.7734C81.5923 57.9478 81.6663 58.2201 81.7597 58.5633L81.7597 58.5633C82.356 60.755 83.7381 65.8349 76.1647 66.7259C71.448 67.2808 68.2813 65.5386 65.4177 63.9631C62.9634 62.6129 60.7318 61.3851 57.9376 61.831C53.7516 62.499 52.0288 63.906 50.47 65.179C49.7744 65.7472 49.1114 66.2886 48.2767 66.7259C46.7367 67.5325 45.7604 66.9615 44.6227 66.2963C43.762 65.7929 42.8089 65.2356 41.4496 65.1801C38.9249 65.0771 37.7784 68.2716 37.5208 69.8818C37.9931 68.5507 39.3499 66.056 40.9988 66.7259C41.673 66.9998 42.0922 67.5011 42.5112 68.0022C43.3729 69.0328 44.2337 70.0623 47.3106 69.1089C49.1675 68.5335 50.6315 67.6501 51.9484 66.8555C53.8743 65.6933 55.4856 64.7211 57.5512 65.1801C58.6251 65.4188 59.8649 66.3882 61.3747 67.5688C64.7545 70.2117 69.4878 73.9129 76.7443 72.8445C87.2426 71.2987 87.3714 71.1699 90.1409 66.1462C91.9291 62.9024 92.1868 59.7928 92.3356 57.9966C92.4172 57.011 92.4661 56.4209 92.7171 56.4209C93.4256 56.4209 96.7747 56.0989 97.0968 54.8751C97.4188 53.6513 98.2561 50.109 97.4832 47.6616C97.3545 47.254 97.2472 46.9125 97.1545 46.6175C96.6907 45.1409 96.5923 44.8278 96.0019 43.2175C95.8483 42.7987 95.7129 42.4706 95.5976 42.1914L95.5972 42.1905L95.5972 42.1904C95.1809 41.1822 95.0273 40.8101 95.229 39.0955C95.2936 38.5463 95.3703 38.0823 95.4379 37.6738L95.438 37.6732L95.4381 37.6729C95.6399 36.453 95.7596 35.729 95.229 34.7159C94.9908 34.2611 94.9346 33.8865 94.8842 33.5503C94.7846 32.8865 94.7076 32.3728 93.2968 31.6887C93.0375 31.563 92.7907 31.445 92.5558 31.3327L92.5554 31.3325C90.8646 30.5238 89.7889 30.0094 89.1104 29.0481C88.6419 28.3845 88.1025 26.7509 87.6642 25.4235L87.6642 25.4234L87.6641 25.423C87.3793 24.5605 87.1371 23.8273 86.9849 23.5736C86.5985 22.9295 86.3409 22.6074 84.9883 22.4142C84.6839 22.3707 84.4284 22.3403 84.1961 22.3126C83.3966 22.2174 82.8724 22.1549 81.5748 21.7057C81.2525 21.5942 80.9685 21.5065 80.717 21.4289C79.6619 21.1032 79.1818 20.955 78.8697 19.9667C78.6765 19.3549 78.6765 18.9684 78.6765 18.5176C78.6765 18.0667 78.6765 17.5515 78.4833 16.682C78.3663 16.1556 78.391 15.6587 78.4126 15.2235C78.4623 14.2209 78.4958 13.5456 76.7443 13.5905C75.7968 13.6148 75.0418 13.7582 74.4239 13.8756C73.4037 14.0694 72.7573 14.1922 72.2359 13.5905C71.566 12.8176 71.3986 12.1091 71.3986 11.8515C72.1285 10.2414 73.3179 7.24001 72.2359 8.11593C71.601 8.62988 70.9945 9.2006 70.3631 9.79477L70.3628 9.79501L70.3626 9.79519C69.6491 10.4667 68.9036 11.1682 68.0495 11.8515C66.4393 13.1396 64.958 14.1057 64.4427 14.1057C64.0305 14.1057 65.602 10.5419 66.4393 8.76001C65.28 9.0391 62.8712 9.90644 62.5105 11.143C62.0597 12.6888 61.3512 14.2346 61.0292 14.7498C60.7715 15.162 60.106 15.7803 59.8054 16.0379C59.1828 15.8662 57.9376 15.4454 57.9376 15.1362C57.9376 14.8271 58.1953 12.3453 58.3241 11.143C57.5083 11.9803 55.7221 14.1315 55.1038 16.0379C54.4855 17.9444 53.4721 20.0526 53.0428 20.8684L51.4326 19.9667C51.4111 18.6356 51.2909 16.1152 50.9818 16.682C50.5953 17.3905 49.6936 20.0311 49.436 20.8684C49.1784 21.7057 45.7004 21.7057 45.2496 21.7057C45.1016 21.7057 44.9467 21.6294 44.7894 21.5519C44.4675 21.3933 44.1355 21.2298 43.8326 21.7057L43.7051 21.9055C43.219 22.6664 42.3768 23.9844 41.9649 24.926C41.901 25.072 41.8281 25.249 41.746 25.4484L41.7458 25.4489C41.248 26.6572 40.4115 28.688 39.1954 29.6277C38.5264 30.1446 38.3169 30.4749 38.1397 30.7542C37.9416 31.0664 37.784 31.3148 37.07 31.6887C36.9839 31.7338 36.9017 31.7771 36.823 31.8185C35.6661 32.4276 35.2736 32.6343 34.4293 32.3328C33.5276 32.0107 31.9174 31.4311 31.9174 31.109C31.9174 31.016 31.7992 30.8639 31.6543 30.6775C31.2977 30.2186 30.7796 29.552 31.4666 29.0481C31.6065 28.9455 31.7315 28.8484 31.8483 28.7576C32.5383 28.2212 32.9421 27.9074 34.4293 28.0175C35.0244 28.0616 35.5064 28.2415 35.9371 28.4022C36.7651 28.7112 37.404 28.9496 38.2937 28.0175C39.6462 26.6006 39.9683 25.7633 40.3547 24.3464C40.4781 23.8939 40.5096 23.4217 40.5413 22.9445C40.6091 21.9273 40.6784 20.8874 41.6428 19.9667C41.8409 19.7777 42.0175 19.6125 42.1762 19.4643C43.1523 18.5518 43.4448 18.2783 43.8326 17.004C44.2835 15.5227 42.931 8.37357 41.6428 7.21425C40.3547 6.05494 37.5852 4.50921 36.2971 3.92955C35.2666 3.46583 34.2361 1.7612 33.8496 0.966858C33.3559 1.50359 32.2781 2.68011 31.9174 3.09231C31.7524 3.28094 31.2852 3.27967 30.7087 3.27809C29.7104 3.27537 28.3843 3.27176 27.731 4.25163C27.1681 5.09608 26.8742 5.90208 26.6709 6.4596C26.5021 6.92261 26.3958 7.21425 26.2497 7.21425C25.9277 7.21425 22.7722 6.11941 22.3853 5.86179C22.331 5.82562 22.2653 5.78437 22.1912 5.73787C21.7375 5.45314 20.9699 4.97136 20.5819 4.25163C20.3275 3.77958 20.5034 2.98 20.6244 2.42994L20.6244 2.42992L20.6244 2.4299C20.718 2.00431 20.7788 1.72812 20.5819 1.86859C20.3665 2.0223 19.9165 2.58686 19.435 3.19108C18.9076 3.85275 18.3423 4.56197 18.0057 4.83128C17.4904 5.24349 15.5582 5.69004 14.6565 5.86179C14.0769 6.01205 12.8789 6.49291 12.7243 7.21425C12.6191 7.70512 12.2658 8.17693 11.9657 8.57769C11.7145 8.91309 11.5006 9.19873 11.5006 9.40414V10.4991C11.5006 11.143 18.2633 12.56 20.5819 11.8515C22.9006 11.143 25.2192 11.143 26.2497 11.143C27.0741 11.143 21.6124 12.7747 18.7785 13.5905C17.7263 13.5476 15.8281 13.5905 16.6528 14.1057C17.2567 14.4831 17.7058 14.8605 18.0778 15.1731C18.3407 15.394 18.5652 15.5826 18.7785 15.716C19.0723 15.8995 19.7842 15.6854 20.5093 15.4674C21.0562 15.3029 21.6105 15.1362 21.9984 15.1362C22.7201 15.1362 25.1333 14.1058 26.2497 13.5905C26.0135 13.9125 25.889 14.6725 27.2802 15.1362C28.4316 15.5201 29.3853 15.3956 30.3657 15.2677C30.8661 15.2024 31.3734 15.1362 31.9174 15.1362C33.2056 15.1362 35.6745 14.1058 36.7479 13.5905C36.8982 14.0843 37.1086 15.2651 36.7479 16.0379C36.3873 16.8108 35.0519 18.464 34.4293 19.1939C34.3434 19.8165 34.1073 21.1261 33.8496 21.3837C33.5276 21.7057 32.5615 22.4142 31.4666 22.4142C30.3717 22.4142 29.4056 22.0277 28.9548 21.7057C28.785 21.5845 28.3595 21.4359 27.895 21.2736L27.895 21.2736C27.1259 21.0049 26.2497 20.6988 26.2497 20.4176C26.2497 20.0569 25.0042 17.7769 24.3814 16.682C24.0596 16.3814 23.3127 15.9605 22.9006 16.682C22.4883 17.4034 21.183 18.2278 20.5819 18.5499C20.3672 17.9917 19.8219 16.9912 19.3582 17.4549C19.1274 17.6857 19.1415 18.131 19.1568 18.6117C19.1798 19.3384 19.2055 20.1463 18.3917 20.4176C17.0396 20.8684 14.2057 21.3837 13.6904 21.3837C13.1752 21.3837 11.7578 20.8685 11.1783 20.4176C10.983 20.2656 10.7584 20.1942 10.5464 20.1267C10.1295 19.9941 9.76164 19.877 9.76164 19.1939C9.76164 18.3695 10.0193 16.5318 10.1481 15.716C9.78299 16.038 8.75657 16.8366 7.57164 17.4549C6.09047 18.2278 5.63962 20.0311 5.63962 20.8684C5.63962 21.187 5.31325 21.3378 4.91243 21.5229C4.25985 21.8244 3.40991 22.217 3.44981 23.5736C3.47345 24.3776 3.2453 25.0688 3.05546 25.6439C2.72826 26.6351 2.51487 27.2815 3.90065 27.5668C4.54181 27.6987 5.12775 27.8859 5.68919 28.0653C7.04532 28.4986 8.25852 28.8862 9.76164 28.3396C10.9344 27.9132 11.911 27.4083 12.7673 26.9657L12.7673 26.9657C13.4629 26.606 14.0791 26.2875 14.6565 26.0854C15.1515 25.9122 15.5133 25.7199 15.8078 25.5634C16.2797 25.3127 16.5786 25.1539 16.9752 25.3125C17.1565 25.3851 17.3634 25.5137 17.5843 25.6511C18.148 26.0018 18.8032 26.4093 19.3582 26.0854C19.9761 25.7247 21.6337 25.1622 22.3853 24.926C22.4923 25.8063 22.5647 27.5668 21.9984 27.5668H18.7785C17.9909 27.5668 17.7807 27.1491 17.606 26.802C17.3807 26.3542 17.2144 26.0239 15.9447 26.8583C14.9169 27.5337 14.2907 28.0484 13.8526 28.4086C13.3298 28.8384 13.0747 29.0481 12.7243 29.0481C12.2467 29.0481 10.5644 29.5441 9.51685 29.8529C9.15194 29.9605 8.86407 30.0453 8.73099 30.0786C8.52583 30.1299 8.14698 30.0586 7.76533 29.9868L7.76531 29.9868H7.7653C7.1887 29.8783 6.60572 29.7686 6.60572 30.0786C6.60572 30.5939 8.34493 32.3328 9.76164 32.3328C11.1783 32.3328 14.0119 32.1395 14.9783 31.109C15.1666 30.9083 15.3475 30.7075 15.5216 30.5144C16.2409 29.7162 16.843 29.0481 17.3616 29.0481C17.5022 29.0481 17.5845 29.0389 17.6414 29.0325H17.6414C17.6831 29.0279 17.7111 29.0247 17.7383 29.0279C17.7938 29.0344 17.8463 29.0671 18.0056 29.1664L18.0057 29.1665C18.1494 29.2561 18.3801 29.3999 18.7785 29.6277C20.1306 30.4006 24.0589 30.2073 24.3814 29.6277C24.5154 29.3869 24.5159 29.6131 24.5169 30.0753C24.5183 30.7254 24.5207 31.8426 24.8971 32.7837C25.0917 33.2701 25.1393 33.8035 25.1856 34.3218C25.2925 35.5192 25.3923 36.6359 27.2802 36.9057C28.5475 37.0867 29.6735 37.3667 30.6647 37.6133L30.6647 37.6133C31.7892 37.8929 32.7403 38.1294 33.5276 38.1294C35.009 38.1294 37.0056 38.2582 35.7174 40.8989C34.6869 43.0114 33.8496 44.6989 31.0153 43.2175C29.2032 42.2704 28.929 41.7972 28.7245 41.4444ZM19.1006 40.1261H22.1276L21.548 42.187L19.1006 40.1261ZM22.5785 20.0957L20.1954 21.577L22.9649 22.0922L22.5785 20.0957ZM29.8565 7.14988C30.6808 6.78923 31.9174 5.88323 32.4326 5.47532L32.9479 8.56686L29.8565 7.14988Z" fill="black"/>
</svg>
