<svg width="93" height="67" viewBox="0 0 93 67" fill="none" xmlns="http://www.w3.org/2000/svg">
<path fill-rule="evenodd" clip-rule="evenodd" d="M4.68169 11.5074C2.31321 13.1729 1.4287 16.438 1.2825 17.8624C3.4561 18.3718 8.27389 19.1702 10.1563 18.2877C12.0387 17.4053 13.1871 14.6497 13.526 13.3822C14.2564 12.0751 16.6682 9.73422 20.4716 10.8279C25.2259 12.1949 23.8675 14.6884 22.5603 15.5592C22.3195 15.7196 21.8856 16.0149 21.3207 16.3993L21.3206 16.3994C18.8181 18.1024 13.7439 21.5555 11.4925 22.7869C8.73287 24.2963 1.64489 30.9434 1.15106 31.6691C0.65722 32.3948 0.860564 34.6008 1.64489 36.5746C2.42922 38.5485 6.6123 42.2058 10.4177 42.351C13.3853 42.4641 17.1975 40.0787 19.7746 38.4661L19.7746 38.4661C20.5023 38.0108 21.1314 37.6171 21.6153 37.3587C23.8129 36.185 25.3284 37.7751 26.3135 39.1381C27.2986 40.501 25.8589 45.6121 25.3284 46.2178C25.0812 46.5002 24.2577 46.7496 23.3529 47.0237C22.3166 47.3376 21.1738 47.6838 20.6681 48.1487C20.1022 48.6689 19.9149 50.5272 19.767 51.9955C19.6673 52.9846 19.5855 53.7966 19.4178 53.9033C19.001 54.1683 18.0538 55.8342 17.8643 57.4621C17.7664 58.3039 17.3848 58.9534 17.0024 59.6042C16.6452 60.212 16.2874 60.8209 16.1593 61.5888C15.9472 62.8609 17.0451 64.8195 17.6207 65.6398H25.8589C26.1872 65.7281 26.8667 65.6019 26.9576 64.3904C27.0446 63.2313 25.711 62.6045 24.5708 62.0686L24.5707 62.0686C24.2213 61.9044 23.8901 61.7487 23.6234 61.5888C22.9089 61.1604 23.1975 59.8043 23.5575 58.1132C23.7702 57.1142 24.0077 55.9983 24.0781 54.8877C24.2379 52.3639 27.5542 51.3767 30.2935 50.5612L30.2937 50.5611C30.8006 50.4102 31.2878 50.2652 31.7316 50.1174C34.005 49.3602 37.3518 43.8453 38.7411 41.1825L52.0021 39.5167C54.086 40.6651 58.4584 43.0831 59.2768 43.5677C60.0952 44.0523 64.5938 45.3344 66.7409 45.9149C67.0061 46.6721 67.7714 48.179 68.7111 48.1487C69.8856 48.1108 77.8044 45.9907 77.6907 42.9619C77.5771 39.9331 71.3633 39.7438 69.1658 39.8196C66.9682 39.8953 63.1414 36.7151 63.0278 35.0871C62.9368 33.7847 67.2334 33.3329 69.3931 33.2698C69.8225 34.7464 70.9011 37.7146 71.7801 37.7751C72.8789 37.8509 84.8517 38.5323 86.0328 38.2295C87.2139 37.9266 91.5201 32.9291 91.9748 30.6532C92.4295 28.3772 88.9058 27.5763 87.7691 27.5763C87.0347 27.5763 85.6676 28.9417 84.6898 29.9182C84.1542 30.4531 83.7355 30.8713 83.6014 30.8847C83.2983 30.915 79.0925 30.743 77.0275 30.6532C76.9694 29.9662 76.8591 28.3891 76.8823 27.5763C76.9113 26.5604 78.1314 23.4835 79.4677 23.2513C80.1327 23.1358 80.9128 23.6744 81.7544 24.2555C82.6038 24.842 83.5158 25.4717 84.4351 25.5154C86.2652 25.6025 87.0786 23.4255 86.759 23.0191C86.5034 22.694 86.1684 21.2388 86.0328 20.5518C85.568 20.8034 84.3363 21.3762 83.1279 21.6549C81.6173 22.0032 81.7045 20.2035 82.605 18.0265C83.3254 16.2849 85.1904 16.8751 86.0328 17.3879L87.2819 19.7391C87.3443 19.3326 87.6885 18.5855 88.5657 18.8484C89.6622 19.1771 91.1973 16.8762 91.1973 14.2466C91.1973 12.1429 84.472 6.57687 81.1093 4.0568L79.2452 2.63243C79.2452 2.63243 76.7232 1.3176 76.0653 1.3176C75.539 1.3176 74.6033 0.952376 74.2012 0.769762L66.8545 0.112366L65.2097 1.3176H61.1526C60.0122 1.3176 59.8733 2.19415 59.9464 2.63243L58.3016 4.0568L55.0121 4.71422C54.0252 5.91946 51.9199 8.48335 51.3936 9.09693C50.8672 9.71052 49.2736 9.93695 48.5426 9.97347V15.5614C45.6551 18.6293 39.3099 25.05 37.0291 26.1895C34.7483 27.329 30.5231 27.3217 28.6955 27.1756C27.8183 28.1982 24.3752 31.383 17.6207 35.941C10.5056 40.7423 9.15274 39.4745 6.08154 36.5964C5.50826 36.0592 4.87511 35.4658 4.13343 34.8453C1.11023 32.3162 10.4839 26.0484 18.1492 20.9229C22.4389 18.0546 26.1935 15.544 26.9411 14.2466C28.9002 10.8465 24.6537 9.96552 21.1313 9.23476C20.9079 9.18841 20.6874 9.14267 20.4716 9.09693C17.5768 8.48335 13.4904 10.0831 11.8091 10.9596C10.4202 10.4483 7.05018 9.84201 4.68169 11.5074ZM46.9265 66.0184H37.2723C36.7549 66.0184 35.6746 65.8594 35.4929 65.2233C35.3105 64.5851 36.0797 61.4581 36.4686 59.8774L36.4686 59.8774L36.4687 59.8769C36.5642 59.4888 36.6367 59.194 36.6665 59.0522C36.818 58.3329 36.0986 56.2128 34.7736 56.2128C33.7135 56.2128 32.8932 53.8655 32.6155 52.6918C33.7513 51.5939 36.2273 49.1785 37.0451 48.3001C37.8629 47.4218 39.3293 44.4258 39.9603 43.0376L45.3364 42.2426C45.8664 42.9367 46.9265 44.8094 46.9265 46.7479C46.9265 49.1709 44.882 51.1774 43.9356 51.7453L43.9066 51.7627C42.942 52.3414 40.6349 53.7255 39.9603 54.8498C39.367 55.8386 39.9789 57.2865 40.447 58.3941C40.5166 58.5588 40.583 58.7159 40.6418 58.8629C41.0961 59.9987 43.4812 62.0431 45.6014 62.346C47.2975 62.5883 47.1915 64.8952 46.9265 66.0184ZM79.1539 8.3995H82.503L80.3776 10.9757L79.1539 8.3995Z" fill="black"/>
</svg>
