<svg width="89" height="84" viewBox="0 0 89 84" fill="none" xmlns="http://www.w3.org/2000/svg">
<path d="M77.9329 41.4214C77.9285 41.4218 77.924 41.4223 77.9196 41.4227C77.9246 41.4222 77.9282 41.422 77.9304 41.4218C77.9318 41.4217 77.9327 41.4216 77.9329 41.4214Z" fill="black"/>
<path fill-rule="evenodd" clip-rule="evenodd" d="M19.2403 27.0457C20.929 25.4457 24.2666 21.419 24.1067 18.1124C23.9068 13.979 20.2402 8.11234 18.3735 8.379C16.8802 8.59234 16.7735 8.46789 16.9068 8.379L12.7066 5.17901L10.9065 3.17902L9.2398 5.84566C8.57319 5.91233 7.15999 6.219 6.83999 6.91233C6.51999 7.60567 6.39558 9.20122 6.37338 9.91233L4.57349 11.2457L6.83999 12.0457C7.08437 13.1346 7.90647 15.2723 9.2398 15.1123C10.5731 14.9523 10.9065 16.8234 10.9065 17.779L11.9734 15.1123C12.7512 15.8012 14.3601 16.7657 14.5734 15.1123C14.7867 13.459 15.9067 11.8457 16.4401 11.2457C17.0622 10.9346 18.3999 10.4057 18.7734 10.779C19.2403 11.2457 22.4401 15.6457 22.3734 17.779C22.3201 19.4857 19.4178 23.6901 17.9734 25.579C16.6178 25.3123 13.6666 24.859 12.7066 25.179C11.7467 25.499 9.99544 28.2457 9.2398 29.579C9.01748 30.779 8.70624 33.3123 9.2398 33.8457C9.77335 34.379 9.46211 35.2679 9.2398 35.6457C8.99544 36.4901 8.78673 38.2457 9.90673 38.5123C10.8679 38.7412 12.269 39.2529 13.204 39.5943C13.6307 39.7501 13.9605 39.8706 14.1067 39.9123C14.4161 40.0007 15.3114 40.4407 16.1712 40.8632C16.6082 41.078 17.0364 41.2884 17.3734 41.4457C17.5826 41.5433 17.8383 41.6729 18.1249 41.8182C19.2087 42.3676 20.7329 43.1402 21.8401 43.2457C22.0961 43.2701 22.4436 43.319 22.8523 43.3765C24.6784 43.6336 27.727 44.0628 29.3067 43.2457C31.2401 42.2457 31.9734 41.9124 33.4401 41.4457C34.9067 40.979 36.7734 40.2457 37.5067 39.379C38.0934 38.6857 38.9956 36.8235 39.3734 35.979C40.3067 37.579 42.3067 40.9123 42.8401 41.4457C42.8925 41.4981 42.9499 41.5538 43.0105 41.6127C43.7201 42.3019 44.8685 43.4173 43.6401 44.6457C43.0822 45.2036 42.3725 45.6564 41.6821 46.0971C40.7224 46.7094 39.7999 47.2982 39.3734 48.1123C39.1325 48.5723 38.7693 49.1761 38.3877 49.8104C37.6079 51.1068 36.7515 52.5304 36.7067 53.1124C36.6822 53.4309 36.7298 53.7044 36.7799 53.9925C36.8661 54.4882 36.9597 55.0269 36.7067 55.9124C36.3067 57.3124 35.7734 58.3124 35.1734 58.6457C34.8936 58.8011 34.2515 58.9276 33.5849 59.0588C32.8219 59.209 32.027 59.3655 31.7067 59.579C31.1067 59.979 30.5067 60.6457 30.2401 61.3124C30.0267 61.8457 28.7734 63.0901 28.1734 63.6457L24.9067 64.8457C24.6401 65.0012 24.1067 65.379 24.1067 65.6457C24.1067 65.7054 24.081 65.9022 24.0434 66.1899C23.8713 67.5078 23.45 70.7343 24.1067 71.4457C24.7002 72.0886 24.4131 74.3459 24.2254 75.8223C24.16 76.3361 24.1067 76.7553 24.1067 76.979C24.1067 77.8457 24.1734 80.2457 25.3067 80.4457C26.4401 80.6457 35.1734 80.8457 35.1734 80.4457C35.1734 80.0457 33.1734 72.8457 31.7067 74.9124C30.5334 76.5657 29.6179 76.4013 29.3067 76.1124C29.129 75.5346 29.0001 74.2457 29.9067 73.7124C30.2265 73.5243 30.509 73.384 30.7889 73.245C31.5011 72.8914 32.1958 72.5464 33.4401 71.4457C34.1441 70.8229 34.4302 70.1671 34.6781 69.5989C35.0405 68.7683 35.3211 68.1249 36.7067 68.0457C38.5734 67.939 39.8845 67.4235 40.3067 67.179C41.1956 66.6901 43.1068 65.539 43.6401 64.8457C43.7975 64.641 43.9661 64.4364 44.1317 64.2353C44.6677 63.5846 45.1734 62.9707 45.1734 62.5124C45.1734 62.0324 42.9512 59.7346 41.8401 58.6457C40.9734 58.0457 39.4534 56.8457 40.3067 56.8457H43.6401L45.9734 61.3124C46.3956 61.2679 47.4001 61.059 48.0401 60.579C48.5465 60.1992 48.9994 59.5257 49.2975 59.0824C49.4704 58.8253 49.5911 58.6457 49.6401 58.6457C49.6811 58.6457 49.6969 58.753 49.7205 58.9133C49.7734 59.2738 49.8658 59.9021 50.3734 60.179C51.1068 60.579 52.3068 57.779 52.4401 57.3123C52.47 57.2077 52.5099 57.036 52.5592 56.8243C52.7296 56.0921 53.0114 54.8812 53.3734 54.3124C53.7468 53.7257 54.9512 52.7346 55.5068 52.3124C55.1512 53.5124 54.4268 55.9124 54.3734 55.9124C54.3322 55.9124 54.3419 56.0906 54.3554 56.3369C54.3637 56.4891 54.3734 56.6675 54.3734 56.8457C54.3734 57.3123 57.3068 57.7123 57.6401 57.7124H61.2401C61.0401 57.7568 60.7601 58.1923 61.2401 59.579C61.5023 60.3366 61.8027 60.8139 62.0635 61.2282C62.3993 61.7619 62.6692 62.1909 62.7068 62.979C62.7639 64.178 63.0165 65.7681 63.1717 66.7444L63.1718 66.7454C63.1978 66.9087 63.221 67.0548 63.2401 67.179C63.3468 67.8724 63.2845 69.7346 63.2401 70.579L60.7734 73.3124C60.929 73.8901 61.2401 75.1924 61.2401 75.779C61.2401 76.5124 63.5734 77.9124 63.9068 77.8457C63.9962 77.8278 64.2058 77.6946 64.4709 77.5261C65.1937 77.0668 66.3296 76.345 66.5734 76.979C66.9068 77.8457 67.8401 79.2457 68.1734 79.6457C68.3077 79.8068 68.8099 79.7083 69.4359 79.5855C70.3637 79.4034 71.5634 79.168 72.2401 79.6457C73.3734 80.4457 75.9734 80.4457 76.9734 80.4457C77.7734 80.4457 79.7512 79.9124 80.6401 79.6457C80.5734 77.9346 80.2668 74.6724 79.5734 75.3124C79.1154 75.7351 78.6016 75.078 78.1204 74.4627C77.6911 73.9137 77.2878 73.398 76.9734 73.7124C76.3068 74.379 74.4401 74.1124 74.1068 73.7124C73.8401 73.3924 72.2623 71.4901 71.5068 70.579C70.929 70.1346 69.9468 69.1257 70.6401 68.6457C71.2088 68.252 71.5479 65.3895 71.8268 63.0345C71.9729 61.8008 72.1026 60.7062 72.2401 60.179C72.5601 58.9524 72.729 57.7568 72.7734 57.3123L70.6401 56.5124L73.3734 55.4457C73.5734 54.8679 73.8534 53.4857 73.3734 52.579C72.931 51.7434 71.4739 50.6179 70.4717 49.8437C70.1146 49.5679 69.8152 49.3366 69.6401 49.179C69.3025 48.8752 68.2809 48.4516 67.2421 48.0209C66.2298 47.6012 65.2012 47.1747 64.7734 46.8457C64.6214 46.7288 64.4387 46.5852 64.2385 46.4279C63.2971 45.6884 61.9699 44.6457 61.6401 44.6457C61.5168 44.6457 61.2352 44.5444 60.889 44.4198C60.1119 44.1402 59.0091 43.7434 58.6401 44.1123C58.2283 44.5242 56.5445 45.0552 55.5531 45.3679L55.5516 45.3684C55.2598 45.4604 55.0281 45.5335 54.9068 45.579C54.4801 45.739 52.8179 46.1346 52.0401 46.3123L51.5068 48.1123C51.5068 47.2901 51.2801 45.7123 50.3734 45.979C49.4668 46.2457 47.4179 46.0901 46.5068 45.979L51.5068 44.1123L52.4401 38.5123L53.8401 44.1123C54.3734 43.6457 55.5868 42.7123 56.1734 42.7123C56.7601 42.7123 57.7512 41.8679 58.1734 41.4457C58.2179 39.3346 58.3734 34.939 58.6401 34.2457C58.9734 33.379 59.9068 31.979 60.7734 32.9123C61.0493 33.2095 61.3793 33.6215 61.7289 34.058C62.4774 34.9926 63.316 36.0397 63.9068 36.3123C64.5844 36.6251 65.914 38.1604 66.8124 39.1977L66.8151 39.2009C67.0644 39.4887 67.2808 39.7386 67.4401 39.9123C67.6874 40.1821 67.9498 40.6414 68.2504 41.1675C68.8413 42.2015 69.5797 43.4938 70.6401 44.1123C72.104 44.9663 73.847 45.5412 74.8988 45.8881C74.9965 45.9204 75.0884 45.9507 75.1734 45.979C75.4762 46.0799 75.6689 46.2175 75.8405 46.3399C76.2356 46.6219 76.5183 46.8237 77.7734 46.3123C79.5734 45.579 82.234 42.979 83.4174 41.4457C84.2745 40.3352 84.2781 40.0007 84.3272 35.4052C84.346 33.6554 84.3713 31.2879 84.4529 28.0245C84.6818 18.8677 83.0509 13.9554 82.2327 11.491C81.9935 10.7705 81.8237 10.2592 81.7903 9.91233C81.6423 8.379 79.8401 5.84566 76.9734 5.84566C74.1068 5.84566 70.6401 17.2609 70.6401 21.22V32.9123C70.0623 31.579 68.7601 28.539 68.1734 27.0457C67.5868 25.5523 67.4401 22.5396 67.4401 21.22C66.8401 20.6283 65.4668 19.504 64.7734 19.7407C64.0801 19.9774 62.129 23.7315 61.2401 25.579C60.7068 25.7416 59.4401 26.2627 58.6401 27.0457C57.8401 27.8287 56.6623 28.5176 56.1734 28.7641L55.5068 33.8457L42.8401 32.9123L40.8872 30.1589C41.9215 31.33 43.2811 32.4975 44.3537 32.4975C45.1717 32.4975 46.6643 32.5772 48.3412 32.6667C50.4907 32.7814 52.943 32.9123 54.6657 32.9123C54.6584 32.7676 54.7499 32.3391 54.8636 31.8068C55.0986 30.7066 55.4284 29.1628 55.1768 28.7641C54.7101 28.0245 50.3734 25.579 49.3499 26.0226C48.3264 26.4662 46.1537 26.7713 44.3537 25.179C43.1989 24.1576 42.9029 22.9007 42.7089 22.0774C42.6005 21.6173 42.524 21.2925 42.3474 21.22C42.2741 21.1898 42.1153 21.0745 41.8866 20.9083C40.5788 19.9579 36.9821 17.3441 33.9648 19.4801C32.4267 20.569 31.7067 24.1123 31.7067 25.579C31.7067 25.9579 31.7796 26.4128 31.8575 26.8996C32.0812 28.2971 32.3469 29.9573 31.0523 30.835C30.679 31.0881 30.3493 31.3279 30.046 31.5486C28.9307 32.3598 28.1711 32.9123 26.9104 32.9123C25.6275 32.9123 22.9956 33.5346 21.8401 33.8457L19.2403 30.835L20.8455 28.7641L19.2403 27.0457ZM79.0225 10.2934C77.5825 10.1625 76.0479 11.1872 74.9235 13.4865C73.7907 15.8032 72.9589 19.594 72.9239 25.5275C72.8802 32.92 73.7082 37.2378 74.7227 39.7279C75.2313 40.9762 75.8011 41.8011 76.3655 42.3178C76.9159 42.8218 77.5219 43.0814 78.0658 43.032C79.4255 42.9084 80.2571 42.337 80.8432 41.6556C81.1072 41.3487 81.3173 41.0239 81.4881 40.7598L81.5074 40.7299C81.6943 40.4411 81.8289 40.2391 81.9745 40.0831C82.279 39.7568 82.2613 39.2455 81.9351 38.9411C81.6088 38.6366 81.0976 38.6543 80.7931 38.9805C80.5374 39.2545 80.3302 39.5748 80.1596 39.8383L80.1508 39.8519C79.9659 40.1376 79.8082 40.3808 79.6181 40.6018C79.2777 40.9975 78.8223 41.3376 77.9329 41.4214C77.933 41.4214 77.9329 41.4215 77.9329 41.4214C77.933 41.4211 77.9313 41.4207 77.9278 41.4199C77.8966 41.4129 77.7293 41.3755 77.4568 41.126C77.119 40.8167 76.6671 40.2177 76.2192 39.1182C75.3208 36.9129 74.4967 32.8397 74.5398 25.5371C74.5742 19.7146 75.3948 16.2013 76.3752 14.1964C77.3641 12.1741 78.4035 11.8598 78.8762 11.9028C79.5115 11.9605 79.9291 12.3266 80.2157 12.748C80.3591 12.9589 80.4584 13.1695 80.5215 13.3284C80.5527 13.4068 80.5739 13.47 80.5867 13.5106C80.5931 13.5309 80.5972 13.5454 80.5994 13.5531L80.601 13.5592C80.7111 13.9895 81.1483 14.2506 81.5798 14.1427C82.0127 14.0345 82.2759 13.5958 82.1677 13.1629L81.3838 13.3589C82.1677 13.1629 82.1677 13.1632 82.1677 13.1629L82.1673 13.1615L82.1669 13.1599L82.1659 13.1562L82.1634 13.1463L82.1556 13.1177C82.1492 13.0948 82.1403 13.0642 82.1286 13.0271C82.1054 12.953 82.0709 12.8517 82.0233 12.7318C81.9288 12.4939 81.7781 12.1719 81.552 11.8394C81.0995 11.1739 80.2999 10.4096 79.0225 10.2934Z" fill="black"/>
<path d="M10.4535 39.9865C10.3983 40.0786 10.2869 40.3212 10.1751 40.576C10.0504 40.8603 9.8925 41.236 9.73531 41.6435C9.57863 42.0496 9.4193 42.4958 9.2941 42.9192C9.17275 43.3295 9.06782 43.7692 9.0476 44.1442C8.96724 45.6353 9.95452 46.9691 11.0144 47.8684C11.2465 48.0653 11.5265 48.276 11.7997 48.4814L11.935 48.5832C12.2607 48.829 12.5819 49.0761 12.8712 49.3328C13.4948 49.8859 13.7738 50.3174 13.7954 50.6411C13.8394 51.3019 13.8477 51.9884 13.7338 52.5638C13.6184 53.1474 13.4099 53.4635 13.1512 53.6103C12.5815 53.9336 11.9781 54.5362 11.4937 55.0806C10.991 55.6455 10.541 56.2349 10.2754 56.612L11.5966 57.5424C11.8319 57.2084 12.2442 56.6681 12.7009 56.1549C13.1759 55.6211 13.6291 55.1971 13.9488 55.0157C14.8018 54.5316 15.1641 53.6609 15.3191 52.8774C15.4757 52.0857 15.4539 51.2249 15.4078 50.5336C15.3392 49.5053 14.5817 48.6899 13.9435 48.1238C13.602 47.8209 13.2359 47.5404 12.9081 47.2932L12.7649 47.1853C12.4882 46.9771 12.2526 46.7997 12.0599 46.6362C11.1368 45.853 10.6218 44.9634 10.6612 44.2312C10.671 44.0504 10.7313 43.7577 10.8437 43.3774C10.9523 43.0102 11.0954 42.6077 11.243 42.2251C11.39 41.8439 11.5383 41.4909 11.6549 41.2251C11.7416 41.0275 11.7994 40.9043 11.8252 40.8494C11.8379 40.8222 11.8428 40.8118 11.8394 40.8174L10.4535 39.9865Z" fill="black"/>
<path fill-rule="evenodd" clip-rule="evenodd" d="M38.4624 17.0778C39.2632 17.6401 40.9363 18.8361 41.2225 19.1223C42.1597 19.5312 44.0341 20.4206 44.0341 20.7068C44.0341 21.0646 44.3919 22.8536 44.6986 23.1091C44.7689 23.1677 44.901 23.3016 45.0703 23.4731C45.6394 24.0496 46.6283 25.0514 47.1009 25.0514C47.3852 25.0514 47.9438 24.9417 48.5174 24.829C49.1817 24.6984 49.866 24.564 50.1677 24.5914C50.6391 24.6343 52.2243 25.6472 53.2063 26.2747C53.3954 26.3955 53.5624 26.5023 53.6945 26.5848C54.5123 27.096 55.739 27.096 56.4546 26.9426C57.1702 26.7893 59.0614 25.3581 59.4192 25.0514C59.487 24.9933 59.6155 24.8892 59.7792 24.7565C60.479 24.1896 61.8215 23.102 61.8215 22.8536C61.8215 22.5469 61.8215 21.3713 62.2304 21.1157C62.5194 20.9351 63.0127 19.733 63.4215 18.7369C63.5911 18.3237 63.7461 17.9459 63.866 17.6911C64.1154 17.1613 64.7069 16.9355 65.2 16.7473C65.5156 16.6268 65.7909 16.5218 65.9105 16.3622C66.0818 16.1339 65.4086 15.571 64.7182 14.9938C64.172 14.5372 63.6151 14.0715 63.4571 13.7554C63.3507 13.5426 63.2036 13.3388 63.0669 13.1494C62.744 12.7021 62.4791 12.3353 62.946 12.1198C63.6104 11.8131 65.1438 10.3309 65.6039 8.59299C65.9719 7.2027 60.1348 5.04915 57.1702 4.14616C58.0732 4.69137 60.0632 5.9658 60.7992 6.70183C61.7193 7.62186 61.8215 8.08188 61.8215 9.30859C61.8215 10.5353 58.3458 10.7398 57.1702 10.6375C55.9946 10.5353 54.6657 9.87084 53.6945 9.30859C52.8795 8.83673 51.3084 8.90488 50.5222 8.93899C50.3717 8.94552 50.2499 8.9508 50.1677 8.9508C49.6566 8.9508 45.6186 9.76861 44.6986 10.3309C43.7786 10.8931 43.0119 10.7398 41.2225 8.59299C39.791 6.87558 42.739 4.91285 44.3919 4.14616C43.8297 3.94171 42.3372 3.65548 40.8651 4.14616C39.3063 4.66576 38.8478 5.66219 37.9983 7.50836C37.845 7.8415 37.679 8.20232 37.4915 8.59299C36.518 10.6211 38.8921 11.5226 39.9138 11.9105C40.1795 12.0114 40.3538 12.0776 40.3538 12.1198C40.3538 12.1686 40.3596 12.261 40.3671 12.3796C40.3909 12.7585 40.4316 13.4051 40.3538 13.7554C40.2516 14.2155 39.4847 15.1866 38.4624 16.3622C37.6446 17.3027 38.1217 17.2311 38.4624 17.0778ZM45.7721 13.8577H50.5257L51.65 15.4422L52.2122 16.9245L50.8322 17.9467L47.5098 16.5156L46.8454 15.4422L45.7721 13.8577ZM56.5135 16.72C55.9513 16.0556 54.7142 14.5324 54.2644 13.7555H59.2224C59.1543 14.2837 58.9873 15.3911 58.8646 15.5955C58.7464 15.7927 58.0809 16.6586 57.7122 17.1383C57.603 17.2804 57.5196 17.3889 57.4846 17.4356C57.3619 17.5992 56.7861 17.0267 56.5135 16.72Z" fill="black"/>
</svg>
