<svg width="87" height="90" viewBox="0 0 87 90" fill="none" xmlns="http://www.w3.org/2000/svg">
<path d="M36.4594 2.91106C36.5896 1.56545 42.0197 0.306645 47.2326 0.740715C52.4455 1.17479 56.1466 6.019 56.3551 6.81769C56.5334 7.50049 59.3125 8.95484 61.4962 10.0976C62.5054 10.6257 63.3875 11.0873 63.8268 11.3754C64.8102 12.0202 66.5107 13.3383 67.5141 14.116C67.9291 14.4376 68.225 14.6669 68.3012 14.7177C68.441 14.8109 67.8058 15.004 67.1064 15.2165C66.5019 15.4002 65.8496 15.5985 65.6079 15.7595C65.2147 16.0215 65.6372 17.1231 65.9244 17.8722C66.018 18.1162 66.0972 18.3228 66.1292 18.4507C66.2334 18.8674 65.8251 20.3028 65.6079 20.9683C64.1889 19.5938 60.9945 16.6277 59.5697 15.7595C57.7886 14.6743 54.6175 12.7644 53.1839 12.0265C51.7504 11.2886 49.7521 10.7243 49.2309 10.6809C49.0851 10.6688 48.6301 10.789 47.9723 10.9629C46.2782 11.4107 43.239 12.2141 40.6731 12.0265C37.111 11.7661 36.4594 10.2468 35.9817 9.03144C35.6312 8.13974 35.9821 5.98635 36.2452 4.37117C36.3408 3.78485 36.4247 3.26943 36.4594 2.91106Z" fill="black"/>
<path fill-rule="evenodd" clip-rule="evenodd" d="M38.19 18.3745C38.2786 18.2712 38.3617 18.1559 38.4505 18.0327C39.1175 17.1072 40.1025 15.7405 46.11 15.7365C52.9172 15.7319 55.5197 20.1734 55.5197 20.8365C55.5197 21.6654 57.5438 23.6296 59.3752 23.6296C61.2066 23.6296 62.556 26.1338 62.7488 29.6805C62.853 31.5975 62.2251 32.657 61.6869 33.5652C61.2294 34.3373 60.8366 35.0001 61.0138 35.9873C61.2795 37.4681 62.4152 36.6649 63.5057 35.8937C63.9974 35.546 64.4799 35.2047 64.8693 35.0823C65.8718 34.7671 66.5722 32.4526 66.7971 31.3347C66.7971 30.2753 66.6814 28.0408 66.2188 27.5785C65.7561 27.1162 66.026 25.521 66.2188 24.7813C66.4115 24.1727 66.7971 22.8591 66.7971 22.4738C66.7971 22.0886 71.231 22.3133 73.4479 22.4738V20.0076H69.1104C67.8597 20.0076 67.9479 19.5457 68.0851 18.8267C68.1594 18.4375 68.2481 17.9729 68.1465 17.4655C67.9989 16.7278 68.9821 16.7686 70.1852 16.8185C71.3382 16.8663 72.6931 16.9225 73.4479 16.3098C74.2145 15.6874 74.8858 16.4929 75.5684 17.3119C76.2591 18.1405 76.9613 18.983 77.7854 18.3745C79.0962 17.4066 79.4239 20.3831 79.4239 21.9923C80.0023 22.3454 81.1589 23.3976 81.1589 24.7813C81.1589 25.937 80.7285 27.3993 80.4142 28.4673C80.2581 28.9974 80.1306 29.4305 80.0987 29.6805C80.0513 30.0506 81.4684 31.3599 82.9231 32.7039C84.4305 34.0967 85.9784 35.5267 85.9784 35.9873C85.9784 36.8787 84.3889 37.7607 83.5121 38.2472L83.4723 38.2693C82.7783 38.6546 79.9701 35.0449 78.6528 33.1918C78.0103 33.4075 76.6094 33.8389 76.1468 33.8389C75.5684 33.8389 75.0865 35.0823 75.0865 36.6862C75.0865 38.2902 74.6045 39.1022 73.4479 40.1956C72.7782 40.8287 72.3347 41.439 71.8181 42.1499C71.4424 42.6668 71.028 43.2371 70.4598 43.908C69.1104 45.5014 67.9538 46.0708 66.7971 46.5523C66.1365 46.8274 65.6332 46.6312 65.0715 46.4123C64.6497 46.248 64.1951 46.0708 63.6163 46.0708C62.4721 46.0708 60.8429 45.3091 59.8449 44.8426C59.666 44.7589 59.5071 44.6846 59.3752 44.6261C58.6812 44.3179 57.2868 42.9566 56.6763 42.3145L52.9172 35.9873L53.3991 39.1022C52.9814 39.4667 51.8184 40.3882 50.5075 41.1588C49.6744 41.6484 49.2399 42.1152 48.8114 42.5756C48.3971 43.0207 47.9884 43.4599 47.2303 43.908L47.083 43.9949C45.6633 44.8329 45.3025 45.0459 45.3025 46.0708C45.3025 47.1302 45.3025 48.6495 44.435 49.2776C43.741 49.7801 40.2903 49.0682 38.6517 48.6495C40.1618 49.2357 43.1434 50.5259 42.9892 50.9966C42.7964 51.585 44.435 53.5487 46.11 53.5487C47.0072 53.5487 47.2646 53.7797 47.7102 54.1793C48.0965 54.5258 48.6242 54.9991 49.8328 55.5587C51.7111 56.4283 52.0831 58.074 52.4346 59.629C52.5701 60.2285 52.7026 60.8145 52.9172 61.3373C53.6883 63.2162 52.1461 65.2372 49.8328 65.7341C48.3879 66.0444 48.0335 67.201 47.6657 68.4011C47.4446 69.1225 47.2188 69.8597 46.7483 70.4382C45.4953 71.9792 45.3025 73.4239 46.11 73.4239C46.9175 73.4239 48.7725 73.4239 50.5075 75.1576C51.4361 76.0855 51.8401 77.0685 52.1332 77.7819C52.3878 78.4014 52.5588 78.8175 52.9172 78.8175C53.6883 78.8175 54.7486 78.8175 55.5197 78.3359C55.9987 78.0368 56.3289 78.7411 56.7183 79.5716C56.9557 80.078 57.2152 80.6314 57.5438 81.0327C58.4113 82.0922 57.6402 83.3443 56.6763 83.8259C55.9052 84.2111 54.7486 83.9864 54.2666 83.8259C53.7847 84.4037 52.6858 85.5595 52.1461 85.5595H47.2303C45.9152 85.5595 45.4972 85.0216 45.089 84.4963C44.8988 84.2516 44.7107 84.0095 44.435 83.8259C44.1118 83.6105 43.6948 83.4086 43.254 83.195C42.5119 82.8356 41.702 82.4433 41.1578 81.8996C40.6373 81.3795 40.3597 80.9287 40.1376 80.5681C39.9896 80.3277 39.8662 80.1274 39.712 79.9733C39.6353 79.8966 39.5288 79.7437 39.3898 79.544C38.8305 78.7405 37.7448 77.1807 35.9528 76.7949C34.4783 76.4775 34.4451 76.0764 34.3729 75.2055C34.3356 74.7551 34.2879 74.179 34.0251 73.4239C33.4082 71.6518 36.0171 68.833 37.3987 67.6451L41.1578 63.9852L45.3025 61.9654H42.0253C42.1217 61.4187 42.0831 60.1519 41.1578 59.4584C40.2325 58.765 37.6236 57.9934 36.4348 57.6943L31.1015 57.0506V61.9654C31.1015 63.3166 32.0009 65.2372 32.5793 65.7341C33.1576 66.2309 33.1576 69.5714 33.1576 70.4382C33.1576 70.8405 33.033 71.471 32.8995 72.1467C32.7453 72.927 32.5793 73.7677 32.5793 74.3871C32.5793 75.2681 30.8992 76.0371 29.9295 76.481C29.6271 76.6194 29.3937 76.7262 29.3021 76.7949C28.9936 77.0261 25.6882 78.2396 24.074 78.8175C25.1842 78.657 27.6507 78.3359 28.6351 78.3359C29.2321 78.3359 29.4522 78.7212 29.7039 79.162C29.9712 79.6298 30.2742 80.1602 31.1015 80.3585C32.1713 80.6151 32.4716 81.1705 32.9797 82.1101C33.2347 82.5817 33.542 83.15 34.0251 83.8259C35.154 85.405 35.3427 85.9274 35.6464 86.7681C35.7317 87.0042 35.8261 87.2654 35.9528 87.5821C36.4155 88.7379 33.8966 89.4121 32.5793 89.6047L31.1015 86.9079C29.8692 87.8068 27.1729 89.6047 26.2463 89.6047C25.3196 89.6047 24.9005 87.8068 24.8067 86.9079C24.5625 87.3895 23.7895 88.4104 22.6513 88.6415C21.8504 88.8042 21.1781 88.3259 20.4743 87.8252C19.9279 87.4365 19.3625 87.0342 18.7031 86.9079C17.4962 86.6767 17.0269 85.9127 16.943 85.5595C17.2364 83.9864 17.8231 80.6668 17.8231 79.9733V71.9792C18.1164 71.4656 19.0048 70.2648 20.2117 69.5714C21.7204 68.7045 22.6513 67.0672 22.6513 65.7341C22.6513 64.6747 23.199 62.1877 23.7026 59.9012C23.8328 59.3104 23.96 58.7327 24.074 58.1967C24.4536 56.4126 24.2675 54.0765 24.1437 52.5215C24.0864 51.8017 24.0424 51.2493 24.074 50.9966C24.1739 50.1979 24.4737 49.0664 24.8067 48.2011C25.1398 47.3358 25.706 45.1726 25.9058 43.908C26.0657 42.8963 25.706 38.9426 25.5062 37.0922L27.4046 35.9873L31.1015 36.6862L27.8042 32.3931C27.1048 32.6261 25.666 33.112 25.5062 33.1918C25.3463 33.2717 25.9329 34.4854 26.2463 35.0823C24.6119 35.5429 20.8153 36.5898 18.7031 37.0922C17.2829 37.4301 17.3906 38.4586 17.5194 39.6889C17.6301 40.7458 17.7563 41.9516 16.943 42.9965C15.259 45.1599 16.5673 48.3584 16.9038 49.181C16.919 49.2181 16.9322 49.2504 16.943 49.2776C17.1442 49.7801 19.206 52.3344 20.2117 53.5487L18.7031 56.438C18.4936 57.6524 18.0242 60.4579 17.8231 61.9654C17.5823 63.7696 15.6128 64.5373 12.9078 65.5917L12.5429 65.7341C10.2297 66.6386 9.90281 65.3572 10.0285 64.6035C11.0762 63.766 13.3726 61.9403 14.1772 61.3373C14.9818 60.7343 13.842 58.6574 13.1715 57.6943C12.3334 58.3642 10.5315 60.0308 10.0285 61.3373C9.66236 62.2884 9.25366 62.1317 8.47954 61.8349C7.92439 61.6221 7.18131 61.3373 6.13122 61.3373C4.11971 61.3373 3.03004 58.9086 2.73664 57.6943C3.23959 57.9874 4.97462 58.4982 7.89122 58.1967C10.8078 57.8953 9.10647 54.9724 7.89122 53.5487C6.42446 54.2187 3.3401 55.5587 2.73664 55.5587C1.98233 55.5587 0.222282 49.7801 0.599439 50.4082C0.901164 50.9107 3.15584 51.9575 4.24547 52.4181C4.95784 51.9994 6.68431 50.6594 7.89122 48.6495C9.39985 46.137 10.2801 41.3634 10.6572 39.1022C11.0344 36.841 13.1714 32.9467 15.4344 29.6805C16.9917 27.4327 18.6088 26.4939 19.8755 25.7584C20.4494 25.4252 20.9514 25.1338 21.3433 24.7813C22.6005 23.6507 25.8693 21.6407 28.6351 20.0076C30.8478 18.7012 35.927 18.3745 38.19 18.3745ZM52.2469 23.826C52.4089 24.2581 52.7221 25.0933 52.3597 25.3348C51.9839 25.5852 50.4543 25.4391 49.7364 25.3348C49.6907 24.6632 49.654 23.3199 49.8733 23.3199C50.0925 23.3199 51.492 23.4894 52.1642 23.5742C52.1642 23.6055 52.1989 23.6981 52.2469 23.826ZM42.9235 22.8895C43.199 23.0211 43.8699 23.2406 44.3988 23.4136C44.7345 23.5234 45.0129 23.6145 45.0965 23.6525C44.7048 24.3306 43.8744 25.7222 43.6865 25.863C43.4515 26.0391 42.7859 25.4327 42.5901 25.237C42.4998 25.1467 41.9549 25.2023 41.3943 25.2595C40.7403 25.3262 40.0649 25.395 40.0649 25.237C40.0649 25.1605 40.0569 25.0161 40.0472 24.8403C40.0196 24.342 39.978 23.5912 40.0649 23.4177C40.159 23.2299 40.1041 21.957 40.0649 21.344C40.3129 21.4614 40.8598 21.7431 41.0634 21.9309C41.27 22.1215 42.0698 22.4924 42.6046 22.7405C42.7288 22.798 42.8386 22.849 42.9235 22.8895ZM42.0633 28.4344V32.6882C42.0633 33.6045 42.7538 32.8419 43.2971 32.2419C43.5002 32.0176 43.6827 31.816 43.8009 31.7333C44.0962 31.5268 44.9935 31.601 45.8245 31.6697C46.2161 31.7021 46.593 31.7333 46.8852 31.7333C47.7024 31.7333 49.5656 32.1165 50.2572 32.2587C50.3375 32.2753 50.4021 32.2885 50.4473 32.2976C50.7948 32.367 49.4627 30.5613 48.7531 29.6497L46.5377 30.1706L46.3205 28.4344H42.0633Z" fill="black"/>
</svg>
