<svg width="98" height="78" viewBox="0 0 98 78" fill="none" xmlns="http://www.w3.org/2000/svg">
<path d="M56.6875 18.8711L49.2862 20.7028C49.4951 19.528 49.9676 17.0452 50.1869 16.5126C50.461 15.8469 52.4582 15.1029 53.0848 14.5546C53.7114 14.0064 56.9225 14.9071 57.7152 15.1029C58.5079 15.2987 62.7018 14.5546 63.2273 14.5546C63.7529 14.5546 66.5168 11.4609 66.6343 11.2651C66.7518 11.0693 66.556 13.9979 66.321 14.5546C66.086 15.1114 65.342 15.3579 64.7418 15.3579C64.1416 15.3579 63.2665 15.5728 62.9924 15.6903C62.7182 15.8078 60.6036 17.5112 60.0945 17.5112C59.6872 17.5112 58.3386 17.0282 57.7152 16.7868L56.6875 18.8711Z" fill="black"/>
<path d="M58.1365 62.2911C57.8624 61.9778 59.0372 60.803 59.2721 59.5499C59.9509 59.6151 60.5879 60.248 61.1518 60.6907C61.8567 61.2441 62.405 62.761 62.7018 63.1526C62.9986 63.5442 65.0679 67.0687 65.4595 67.3773C65.8511 67.6859 65.0679 67.891 64.0497 68.2435C63.0315 68.5959 63.1098 68.87 63.1098 69.1906C63.1098 69.5112 62.17 71.5721 61.9742 72.2506C61.8176 72.7934 61.3607 74.4412 61.1518 75.1972C58.4889 75.2942 53.1631 75.43 53.1631 75.1972C53.1631 74.9063 53.7505 73.2706 54.1813 72.2506C54.612 71.2306 56.061 70.5148 56.6952 70.0057C57.3294 69.4966 58.4106 68.7134 59.2721 68.2435C60.1337 67.7736 60.9952 66.3638 61.3418 65.904C61.6884 65.4442 61.3418 64.6016 60.6427 63.9773C59.9437 63.3531 58.4106 62.6044 58.1365 62.2911Z" fill="black"/>
<path d="M32.4005 23.1933H33.8015L32.7821 24.5378L32.4005 23.1933Z" fill="black"/>
<path fill-rule="evenodd" clip-rule="evenodd" d="M28.5879 36.6284C27.772 35.7217 24.8481 32.5484 23.4881 31.0751L18.1614 29.8284L15.5549 27.7884L13.9685 29.8284C13.1751 29.8662 11.271 30.1684 10.0017 31.0751C8.73236 31.9817 5.3174 32.964 3.76858 33.3417C3.50419 33.1906 2.86206 33.1151 2.40873 34.0217C1.84207 35.155 1.61548 36.9684 1.61548 38.555C1.61548 39.8243 3.50429 41.1994 4.4487 41.7283C5.09091 40.8594 6.51135 39.167 7.05534 39.3483C7.27489 39.4215 7.58894 39.601 7.95555 39.8106C8.72444 40.25 9.72449 40.8216 10.5686 40.8216C11.2068 40.8216 12.2011 40.4356 13.1718 40.0587C14.0974 39.6994 15.0016 39.3483 15.5549 39.3483C15.672 39.3483 15.7926 39.3459 15.9156 39.3435C16.9843 39.3221 18.2321 39.2971 18.8419 40.8216C19.1819 41.6717 19.4653 42.2383 19.7203 42.7484C19.9752 43.2583 20.2019 43.7117 20.4286 44.335C20.7045 45.0937 20.9384 45.9365 21.1815 46.812C21.3377 47.375 21.4978 47.9517 21.6752 48.5283C21.8693 49.1591 21.9804 49.6653 22.0973 50.198C22.2534 50.9095 22.4199 51.6684 22.8085 52.8349C23.4881 54.8749 24.1685 55.8949 25.0752 56.3482C25.8005 56.7109 27.7192 56.8771 28.5879 56.9149C27.7192 57.0282 25.8005 57.4815 25.0752 58.3882C24.9003 58.6068 24.7507 58.7874 24.6151 58.9513C24.0474 59.6369 23.7233 60.0283 22.8085 61.6748C22.4047 62.4018 21.9864 63.0136 21.6153 63.5565C20.945 64.537 20.4286 65.2924 20.4286 66.0948C20.4286 66.5286 20.2776 66.8939 20.1332 67.243C19.8628 67.8971 19.6158 68.4947 20.4286 69.3814C20.8442 69.8348 21.1464 70.2883 21.4233 70.7039C21.9771 71.5349 22.4302 72.2148 23.4881 72.4414C24.3583 72.6278 24.5129 72.6098 24.9793 72.5555C25.3636 72.5108 25.9596 72.4414 27.3418 72.4414H32.7818C33.5973 72.4414 30.3257 68.2103 28.5879 66.0948H24.2819C24.0552 65.1881 24.3499 63.3295 27.3418 63.1481C28.7561 63.0624 29.8787 62.8308 30.7279 62.6557C32.1244 62.3676 32.7818 62.232 32.7818 63.1481C32.7818 63.9523 33.0855 64.689 33.3614 65.3581C33.5909 65.9149 33.8012 66.4249 33.8012 66.8881C33.8012 67.1913 33.7211 67.3744 33.6532 67.5295C33.4928 67.8962 33.4005 68.1072 34.5951 69.3814C35.282 70.1142 35.7284 70.8284 36.1212 71.4568C36.7003 72.3836 37.1629 73.1237 38.1084 73.4614L38.2191 73.5009C39.7533 74.049 40.9709 74.484 42.1884 74.5947C42.6614 74.6377 43.363 74.8765 44.0576 75.113C45.1936 75.4998 46.3113 75.8803 46.3817 75.388C46.495 74.5947 45.9283 67.3414 43.435 67.5681C43.0103 67.6067 42.5723 67.6519 42.1358 67.697C40.0101 67.9163 37.9178 68.1322 37.5417 67.5681C37.0884 66.8881 36.4084 65.1881 36.4084 64.1681V60.8815L39.2417 63.1481C39.8084 63.4126 41.191 63.7828 42.1884 63.1481C42.6855 62.8317 42.8943 62.2089 43.1094 61.5672C43.4337 60.5999 43.7723 59.5896 45.135 59.5215C46.5312 59.4517 47.5404 59.4679 48.9572 59.4906C49.8405 59.5048 50.8822 59.5215 52.275 59.5215H56.6949C57.3857 59.5215 57.6977 59.0553 57.9861 58.6243C58.502 57.8533 58.9425 57.1952 61.3415 59.5215C62.9302 61.062 63.8849 62.4798 64.6401 63.6012C65.6626 65.1198 66.3191 66.0948 67.6881 66.0948C68.6126 66.0948 69.4515 65.9751 70.1518 65.8752C71.2545 65.7179 72.0135 65.6096 72.2214 66.0948C72.3381 66.367 72.7083 66.786 73.1718 67.3106C74.059 68.3148 75.2881 69.7058 75.7347 71.1947C75.8332 71.5228 75.9339 71.8745 76.0378 72.237C76.6515 74.379 77.3721 76.8941 78.3414 77.088C79.4747 77.3147 86.728 77.8813 86.6146 77.088C86.524 76.4534 84.4613 72.8947 83.4413 71.1947C82.7991 71.2703 81.3787 71.2174 80.8347 70.4014C80.5894 70.0334 80.6096 69.7539 80.6345 69.4086C80.6787 68.7968 80.7378 67.9784 79.3614 66.0948C77.5124 63.5646 77.0839 62.0371 76.8563 61.2254C76.8188 61.0918 76.7868 60.9776 76.7547 60.8815C76.6535 60.5779 75.9648 60.5002 75.1325 60.4063C74.1009 60.29 72.8487 60.1488 72.2214 59.5215C71.9981 59.2981 71.8143 59.1408 71.6641 59.0122C71.0523 58.4883 70.9971 58.4411 71.0881 56.3482C71.1788 54.2629 71.1259 51.7771 71.0881 50.7949C72.297 50.7949 74.9188 50.9989 75.7347 51.8149C75.9354 52.0155 76.1272 52.4222 76.3715 52.9401C77.3693 55.0553 79.2422 59.0255 86.1613 58.3882C94.2072 57.6471 94.7372 56.6094 95.4188 55.2749C95.4668 55.1808 95.5156 55.0853 95.5679 54.9882C95.8085 54.5414 96.1012 54.0738 96.3733 53.639C96.9985 52.6401 97.515 51.8149 97.0412 51.8149C96.9736 51.8149 96.879 51.8127 96.7605 51.8098C95.6871 51.7844 92.6456 51.7122 89.7879 52.8349C87.1806 53.8592 86.18 52.3586 85.0887 50.722C84.8519 50.3668 84.6108 50.0052 84.348 49.6616C82.9831 47.8768 82.3964 47.7454 81.1461 47.4654C81.0467 47.4431 80.9432 47.42 80.8347 47.3949C80.314 47.2748 79.7368 47.3103 79.0679 47.3515C77.844 47.4268 76.3133 47.521 74.2614 46.7149C71.3462 45.5697 70.6309 45.5722 68.3372 45.5802C68.1341 45.5809 67.9186 45.5816 67.6881 45.5816C66.5571 45.5816 65.7511 45.7803 65.1044 45.9397C64.1311 46.1796 63.5186 46.3306 62.7015 45.5816C61.3415 44.335 59.4149 41.1617 61.3415 40.255C62.8829 39.5297 64.2504 39.3483 64.7415 39.3483C63.3815 38.9705 61.0695 38.0563 62.7015 37.4217C63.7564 37.0115 64.6901 37.2376 65.5339 37.442C66.3218 37.6329 67.0314 37.8047 67.6881 37.4217C68.1912 37.1283 68.4307 36.7573 68.6646 36.3948C69.0631 35.7773 69.4457 35.1845 71.0881 35.0417C73.1734 34.8604 74.0725 33.8328 74.2614 33.3417C72.1459 32.5862 68.5495 31.0751 71.0881 31.0751H75.7347C78.3414 31.0751 80.1547 30.9616 81.4014 29.8284C82.3987 28.9218 83.7813 28.0906 84.348 27.7884L76.7547 28.3551L85.1413 25.9751L79.3614 25.2952C80.948 24.6908 84.3253 23.3686 85.1413 22.9152C85.5049 22.7132 85.9694 22.5544 86.4576 22.3875C87.339 22.0861 88.2979 21.7582 88.8813 21.1018C88.9943 20.9747 89.1426 20.8122 89.3117 20.6271C90.4983 19.3274 92.7069 16.9084 90.9213 17.702C90.2464 18.0019 89.3111 18.4755 88.3245 18.975C86.3289 19.9854 84.1239 21.1018 83.4413 21.1018C82.6254 21.1018 80.3814 21.4041 79.3614 21.5552C79.3614 20.9508 79.7694 19.6059 81.4014 19.0619C82.2245 18.7875 83.0477 18.7161 83.8485 18.6467C85.0323 18.544 86.1673 18.4456 87.1813 17.702C87.9954 17.105 88.6535 16.3521 89.2303 15.6922C89.8581 14.9739 90.3897 14.3658 90.9213 14.1886C91.9413 13.8486 93.1879 12.602 93.5279 12.0353C93.7999 11.582 94.5479 10.0331 94.8879 9.31534C94.4346 8.40869 93.5279 6.68607 93.5279 7.04873C93.5279 7.50206 90.5813 10.562 88.8813 12.0353C87.5213 13.214 84.688 14.8687 83.4413 15.5487C83.1391 15.0198 82.716 13.8487 83.4413 13.3954L83.6401 13.2716C84.4662 12.7582 85.2165 12.2918 86.1613 11.242C86.7054 10.6375 87.3785 10.1297 88.0602 9.61542C88.6564 9.16561 89.2592 8.71085 89.7879 8.18207C90.6946 7.2754 93.5657 2.74212 94.8879 0.588806C92.999 2.74214 88.8133 7.27546 87.1813 8.18207C86.3683 8.63369 85.3754 9.28332 84.3101 9.9803C82.7021 11.0323 80.9292 12.1922 79.3614 12.942C76.7547 14.1886 73.2414 15.5486 71.0881 16.342C70.176 16.678 68.6743 16.7294 67.1858 16.7803C65.1601 16.8496 63.1588 16.918 62.7015 17.702C62.1079 18.7196 61.6411 18.8489 59.924 19.3244C59.3466 19.4843 58.6276 19.6834 57.7149 19.9686C56.1957 20.4433 54.2389 20.9181 52.4195 21.3595C49.8956 21.9719 47.636 22.5201 47.175 22.9152C47.0168 23.0508 42.817 24.8711 42.5668 25.0463C40.8442 25.4996 40.2995 25.2952 39.8084 25.2952C39.5062 24.1997 39.0831 21.9179 39.8084 21.5552C40.0526 21.4331 40.2146 21.3274 40.3786 21.2205C40.8232 20.9304 41.2822 20.631 43.435 19.9686C45.7923 19.2432 46.3817 18.1553 46.3817 17.702C44.5683 17.8531 40.6017 18.3366 39.2417 19.0619C38.7781 19.3092 38.4915 19.489 38.283 19.6198C38.0923 19.7395 37.9671 19.8181 37.8315 19.8697C37.572 19.9686 37.2748 19.9686 36.4084 19.9686H31.8751L30.6285 22.9152H34.5951L33.8012 25.2952L35.5018 25.9751V27.7884C34.3684 28.015 31.8071 28.3322 30.6285 27.7884C29.4498 27.2445 27.0396 25.0685 25.9818 24.0486L24.2819 22.1219C24.2441 21.4041 24.3499 19.9686 25.0752 19.9686C25.5033 19.9686 27.8008 18.6802 30.2264 17.3199C32.9383 15.7992 35.8102 14.1886 36.4084 14.1886C36.7715 14.1886 37.5417 14.0607 38.5887 13.8867C40.8096 13.5178 44.2756 12.942 47.7417 12.942H55.6749C50.6883 12.3375 40.1937 11.31 38.1084 12.0353C37.0007 12.4206 35.6474 12.724 34.3877 13.0065C32.6831 13.3887 31.1498 13.7324 30.6285 14.1886C29.9031 14.8233 26.6241 16.7953 25.0752 17.702C22.9974 17.4753 18.8419 17.43 18.8419 19.0619C18.8419 20.6939 19.8997 23.0663 20.4286 24.0486L22.8085 22.9152C23.2619 24.0108 24.3499 26.3607 25.0752 26.9952C25.8005 27.6297 26.5863 28.1662 26.8885 28.3551V31.0751C27.455 31.604 28.5879 32.7977 28.5879 33.3417C28.5879 34.0217 30.9685 35.0417 32.7818 35.0417C33.6884 35.0417 34.5951 34.5317 35.2751 34.1492C35.9551 33.7667 36.4084 33.5117 36.4084 34.0217C36.4084 34.5183 36.677 35.0686 36.9527 35.6333C37.2433 36.2287 37.5417 36.8401 37.5417 37.4217C37.5417 38.555 37.3151 39.6884 36.4084 40.255C35.6831 40.7083 34.3681 40.8216 33.8012 40.8216C33.4839 40.4514 32.5493 39.7602 31.539 39.013C30.3847 38.1594 29.1318 37.2328 28.5879 36.6284ZM47.7417 34.0217C48.3083 33.0017 47.7417 31.0751 47.175 29.8284C47.0222 29.4921 46.8941 29.1394 46.764 28.7814C46.4119 27.8118 46.0455 26.8029 45.135 25.9751C45.1012 25.9444 45.0902 26.0446 45.0804 26.1347C45.0719 26.212 45.0643 26.2818 45.0437 26.2553C45.1087 26.4687 45.3237 26.9053 45.602 27.4705C46.3596 29.0091 47.5864 31.5006 47.5355 33.0386L45.135 38.555C45.815 37.3839 47.2883 34.8377 47.7417 34.0217ZM12.5314 33.7768V32.5509L12.0206 32.1934L15.5549 31.5294L12.5314 33.7768Z" fill="black"/>
</svg>
