<svg width="88" height="83" viewBox="0 0 88 83" fill="none" xmlns="http://www.w3.org/2000/svg">
<path fill-rule="evenodd" clip-rule="evenodd" d="M1.19289 47.2992C0.0803009 32.7443 9.19564 24.8195 19.3422 24.8195C24.2415 24.8195 32.1726 25.4243 39.9504 26.0173C48.2808 26.6525 56.4353 27.2742 60.5001 27.1252C68.3601 26.837 73.6477 26.4047 73.3619 18.9115C73.0761 11.4183 64.7874 8.53625 60.5001 8.24805C57.0703 8.01749 50.3059 8.15199 47.3525 8.24805C47.4477 9.83309 47.1238 13.4355 45.0659 15.1647C42.4936 17.3262 35.7768 20.3523 32.6328 21.2169C30.1176 21.9085 27.3928 22.0815 26.3448 22.0815L24.7729 16.3175L27.7739 17.9026L30.2034 15.1647H33.2045L36.9201 13.5796L38.9208 9.97707C38.0357 9.50539 36.2807 8.60784 36.3412 8.79108C36.4018 8.97432 35.4831 10.4199 35.0162 11.1198L32.6328 8.4475L30.7759 11.387L29.1858 8.24805H26.8764L26.3448 11.1198V12.036C25.7522 10.9543 24.4458 8.79108 23.9612 8.79108C23.3554 8.79108 21.0081 9.13465 20.8945 9.28735C20.8037 9.40951 21.7906 10.5599 22.2953 11.1198C21.3362 10.229 19.1681 8.4475 18.1687 8.4475C16.9193 8.4475 15.6321 8.82925 15.9349 9.78363C16.1164 10.3554 16.3386 10.6257 16.6505 11.0051C16.8591 11.2589 17.1079 11.5615 17.4115 12.036C18.0172 12.9827 19.7335 13.4595 20.5159 13.5796C19.254 13.776 16.571 14.0509 15.9349 13.5796C15.2989 13.1082 13.9536 10.9815 13.3605 9.97707C12.4392 9.36541 10.6119 7.8138 10.6725 6.50057C10.7482 4.85904 11.0889 2.49212 14.0041 2.68299C16.9193 2.87387 20.9324 2.53027 21.4246 1.95764C21.9168 1.38502 23.7733 0.392427 25.0591 0.277902C25.7697 0.214605 27.2792 0.734376 28.6664 1.21204C29.7891 1.59863 30.8317 1.95764 31.3059 1.95764C31.9695 1.95764 35.214 1.61357 37.6413 1.35616C39.0919 1.20232 40.2506 1.07944 40.3922 1.07944C40.7708 1.07944 45.9576 1.72877 47.737 1.95764C49.5164 2.18652 57.0883 2.26322 58.1105 1.95764C58.3868 1.87505 58.8512 1.73112 59.387 1.56504C60.8336 1.11665 62.801 0.506816 62.9944 0.506816C63.0255 0.506816 63.1324 0.502076 63.2959 0.494823C64.5246 0.440325 68.9518 0.243951 68.484 0.850392C68.06 1.40011 67.1716 2.75915 66.7804 3.36995C70.9071 3.2427 79.1226 3.06455 78.9711 3.36995C78.8197 3.67535 77.4694 5.0242 76.8131 5.66045C80.3593 7.31471 87.4063 12.7763 87.2245 21.3886C86.9974 32.154 80.5612 39.14 66.9318 39.1018C59.9569 39.0823 52.6846 38.3029 46.3428 37.6233C40.2921 36.9749 35.0884 36.4172 31.7981 36.6968C25.0591 37.2694 19.683 37.8039 18.888 43.7974C18.0929 49.7908 21.576 51.7759 25.2863 49.9435C26.3769 49.4049 27.4413 48.3451 28.6796 47.1122C31.6539 44.1509 35.6312 40.191 43.3831 40.0562C54.3624 39.8653 61.1771 39.9798 64.0545 41.3923C64.2769 41.5015 64.517 41.6144 64.7703 41.7334C67.793 43.1542 72.6919 45.4567 71.8535 52.9594C70.9449 61.0907 67.2347 64.641 61.48 64.5646C59.5865 64.5395 56.8241 63.8242 53.8698 63.0591C47.8452 61.4991 41.0226 59.7324 39.1429 63.1903C36.3412 68.3439 33.8425 73.9175 40.6951 74.8719C47.5477 75.8262 52.2423 75.1391 53.0373 73.9938C53.103 73.8992 53.1876 73.7741 53.289 73.624C54.4153 71.9574 57.6227 67.2116 60.1928 66.9314C62.4341 66.6871 63.7263 68.9166 64.0923 70.0618C63.6001 69.5274 62.3205 68.5195 61.1393 68.7639C60.6953 68.8557 60.2514 69.8966 59.6315 71.3501C58.1896 74.7307 55.7957 80.3434 50.2357 81.438C42.2852 83.0032 33.2368 81.6289 29.678 78.1549C26.1192 74.681 24.7562 71.1689 26.0813 67.6568C27.4064 64.1447 30.9652 57.0441 32.8582 55.9752C34.7511 54.9063 37.4013 53.7992 38.8021 53.8374C39.3683 53.8528 41.1094 53.9743 43.1057 54.1135C46.0489 54.3188 49.5468 54.5627 50.6522 54.5627C52.5073 54.5627 58.9434 54.0283 58.6784 52.6158C58.4134 51.2033 56.6718 48.4929 55.0817 49.3709C54.6071 49.633 54.3653 50.0583 54.1044 50.5169C53.4914 51.5948 52.7737 52.8568 48.6835 52.6158C46.122 52.4649 44.1816 52.1297 42.5992 51.8564C40.5797 51.5075 39.143 51.2594 37.7421 51.6232C35.2433 52.2722 30.9273 54.3337 29.3751 56.2424C28.9243 56.7968 28.5629 57.1869 28.2566 57.5176C27.5082 58.3254 27.0888 58.7782 26.4978 60.4035C25.8314 62.2359 25.261 65.2899 25.0591 66.5879C22.7623 66.5624 17.4948 66.4504 14.7991 66.2061C12.1035 65.9618 2.30549 61.8542 1.19289 47.2992ZM21.5763 5.35505H28.3153V2.9118L21.5763 5.35505Z" fill="black"/>
</svg>
