<svg width="103" height="100" viewBox="0 0 103 100" fill="none" xmlns="http://www.w3.org/2000/svg">
<path fill-rule="evenodd" clip-rule="evenodd" d="M2.81521 97.8038C8.01281 95.6809 24.6012 91.435 49.374 91.435C74.1468 91.435 91.76 97.145 97.4701 100C99.7395 98.3895 103.839 92.6209 102.082 82.4306C101.096 76.7096 97.9384 70.6341 94.6997 65.2787L78.1031 34.9683C76.4462 32.1038 74.973 29.4467 74.1907 27.5265C72.2581 22.7828 70.8965 15.1547 70.4572 11.9337C69.3497 12.5763 67.0417 14.1524 66.6693 15.316C66.2039 16.7705 63.7021 19.6214 61.7239 18.6905C59.7458 17.7596 59.0476 17.3523 60.3858 15.8978C61.4563 14.7342 63.4306 13.4736 64.2839 12.9887C63.896 12.6371 62.7596 11.9337 61.3167 11.9337C59.8738 11.9337 57.8452 14.5764 57.0113 15.8978V12.6396C57.0113 10.6848 58.0197 8.52818 58.524 7.69425C59.5906 7.46153 61.7239 6.56554 61.7239 4.84338C61.7239 3.12122 59.9785 1.06161 59.1058 0.24707C59.61 1.77917 60.2578 4.84338 58.8149 4.84338C57.9867 4.84338 57.4038 4.51215 56.7734 4.15389C56.0309 3.73194 55.2225 3.27249 53.8695 3.27249C52.5063 3.27249 51.575 3.87707 50.7272 4.42738C50.0192 4.88703 49.3694 5.30883 48.575 5.30883C47.1787 5.30883 47.7605 2.16705 48.2259 0.596163C46.9847 1.54645 44.5489 3.81939 44.7351 5.30883C44.9212 6.79827 47.3726 7.51971 48.575 7.69425C48.7883 8.74151 49.2848 11.1968 49.5641 12.6396C49.8434 14.0825 49.3314 15.9948 49.0405 16.7705C48.2453 15.0251 46.271 11.4178 44.7351 10.9524C43.1991 10.4869 41.7678 11.4127 41.2442 11.9337C42.8733 12.1884 45.9103 13.3378 45.026 15.8978C43.9205 19.0977 40.8951 18.6905 39.6151 17.2941C38.9885 16.6106 38.5432 15.174 38.1289 13.8378C37.697 12.4445 37.2988 11.1603 36.7643 10.9524C35.9264 10.6266 34.8637 10.4676 34.437 10.4288C35.6006 12.1354 37.4508 16.1771 35.5424 18.6905C35.1439 19.2154 34.4421 20.0837 33.5398 21.2002C30.9065 24.4583 27.444 31.2972 23.931 36.4335L9.35407 57.8329C5.64466 63.0876 1.91042 68.5273 0.910739 71.812C0.0158389 74.7523 0.699356 79.1994 1.48592 84.3168C2.13121 88.5152 2.84585 93.1648 2.81521 97.8038ZM50.3727 7.16389H55.8594V8.94818H53.8695V14.1226H52.3354V8.94818H50.3727V7.16389Z" fill="black"/>
<path d="M25.8055 43.2273H18.9746V61.7506H13.4879V43.2273H6.78198V38.9911H25.8055V43.2273Z" fill="white"/>
<path d="M33.9808 61.7506H28.5098V38.9911H33.9808V61.7506Z" fill="white"/>
<path d="M55.1927 43.2273H48.3618V61.7506H42.8751V43.2273H36.1692V38.9911H55.1927V43.2273Z" fill="white"/>
<path d="M68.5733 57.4988H61.0545L59.7415 61.7506H53.8797L62.2269 38.9911H67.3853L75.795 61.7506H69.902L68.5733 57.4988ZM62.3676 53.2627H67.2602L64.8061 45.3688L62.3676 53.2627Z" fill="white"/>
<path d="M96.4755 61.7506H91.0201L82.9543 47.5885V61.7506H77.4676V38.9911H82.9543L91.0045 53.1533V38.9911H96.4755V61.7506Z" fill="white"/>
<path d="M25.8055 43.7273H26.3055V43.2273V38.9911V38.4911H25.8055H6.78198H6.28198V38.9911V43.2273V43.7273H6.78198H12.9879V61.7506V62.2506H13.4879H18.9746H19.4746V61.7506V43.7273H25.8055ZM33.9808 62.2506H34.4808V61.7506V38.9911V38.4911H33.9808H28.5098H28.0098V38.9911V61.7506V62.2506H28.5098H33.9808ZM55.1927 43.7273H55.6927V43.2273V38.9911V38.4911H55.1927H36.1692H35.6692V38.9911V43.2273V43.7273H36.1692H42.3751V61.7506V62.2506H42.8751H48.3618H48.8618V61.7506V43.7273H55.1927ZM59.7415 62.2506H60.1104L60.2192 61.8982L61.4234 57.9988H68.2057L69.4247 61.8998L69.5344 62.2506H69.902H75.795H76.5128L76.2641 61.5773L67.8543 38.8178L67.7336 38.4911H67.3853H62.2269H61.8777L61.7575 38.819L53.4103 61.5785L53.1637 62.2506H53.8797H59.7415ZM96.4755 62.2506H96.9755V61.7506V38.9911V38.4911H96.4755H91.0045H90.5045V38.9911V51.2619L83.389 38.7441L83.2452 38.4911H82.9543H77.4676H76.9676V38.9911V61.7506V62.2506H77.4676H82.9543H83.4543V61.7506V49.4767L90.5856 61.9981L90.7295 62.2506H91.0201H96.4755ZM66.5812 52.7627H63.0454L64.8076 47.0579L66.5812 52.7627Z" fill="white" stroke="black"/>
<path d="M22.2302 81.943L23.3113 81.7321L26.6951 77.0299L23.3992 72.4508L22.3269 72.2311V70.6842H27.24V72.2311L26.1941 72.3453L28.1716 75.483L30.158 72.3453L29.1296 72.2311V70.6842H34.0603V72.2311L32.988 72.4508L29.6921 77.0299L33.1462 81.7233L34.28 81.943V83.4811H29.2439V81.943L30.2634 81.8375L28.2068 78.6031L26.1414 81.8375L27.1697 81.943V83.4811H22.2302V81.943Z" fill="white"/>
<path d="M78.5689 77.6471H79.6588V79.7125H78.5689V82.4811H76.0816V79.7125H71.8453L71.7311 78.1041L76.0729 69.6842H78.5689V77.6471ZM74.148 77.6471H76.0816V73.3668L76.0289 73.4635L74.148 77.6471Z" fill="white"/>
<path d="M59.0136 73.6733C59.0136 75.4361 58.6277 76.8748 57.8559 77.9896C57.0841 79.1045 56.0884 79.6619 54.8688 79.6619C54.2971 79.6619 53.7635 79.5332 53.2681 79.276C52.7726 79.0092 52.2009 78.5089 51.553 77.7753C50.9718 76.9844 50.4191 76.589 49.8951 76.589C49.4949 76.589 49.1661 76.8367 48.9089 77.3322C48.6612 77.8181 48.5373 78.4184 48.5373 79.133L45.5502 79.0902C45.5502 77.3274 45.9313 75.903 46.6936 74.8167C47.4558 73.7305 48.4515 73.1874 49.6807 73.1874C50.3095 73.1874 50.886 73.3446 51.4101 73.6591C51.9436 73.964 52.4772 74.4308 53.0108 75.0597C53.5634 75.8601 54.1113 76.2603 54.6544 76.2603C55.0451 76.2603 55.3786 76.0125 55.6549 75.5171C55.9312 75.0216 56.0694 74.407 56.0694 73.6733H59.0136Z" fill="white"/>
</svg>
