<svg width="103" height="100" viewBox="0 0 103 100" fill="none" xmlns="http://www.w3.org/2000/svg">
<path fill-rule="evenodd" clip-rule="evenodd" d="M2.81545 97.8038C8.01306 95.6809 24.6015 91.435 49.3742 91.435C74.147 91.435 91.7603 97.145 97.4703 100C99.7397 98.3895 103.839 92.6209 102.082 82.4306C101.096 76.7096 97.9387 70.6341 94.6999 65.2787L78.1034 34.9683C76.4464 32.1038 74.9732 29.4467 74.191 27.5265C72.2583 22.7828 70.8967 15.1547 70.4575 11.9337C69.35 12.5763 67.0419 14.1524 66.6696 15.316C66.2041 16.7705 63.7024 19.6214 61.7242 18.6905C59.746 17.7596 59.0479 17.3523 60.386 15.8978C61.4566 14.7342 63.4308 13.4736 64.2842 12.9887C63.8963 12.6371 62.7598 11.9337 61.3169 11.9337C59.874 11.9337 57.8454 14.5764 57.0115 15.8978V12.6396C57.0115 10.6848 58.02 8.52818 58.5242 7.69425C59.5909 7.46153 61.7242 6.56554 61.7242 4.84338C61.7242 3.12122 59.9787 1.06161 59.106 0.24707C59.6103 1.77917 60.258 4.84338 58.8151 4.84338C57.9869 4.84338 57.4041 4.51215 56.7737 4.15389C56.0312 3.73194 55.2227 3.27249 53.8697 3.27249C52.5066 3.27249 51.5752 3.87707 50.7275 4.42738C50.0194 4.88703 49.3696 5.30883 48.5753 5.30883C47.1789 5.30883 47.7607 2.16705 48.2262 0.596163C46.985 1.54645 44.5491 3.81939 44.7353 5.30883C44.9215 6.79827 47.3728 7.51971 48.5753 7.69425C48.7886 8.74151 49.2851 11.1968 49.5643 12.6396C49.8436 14.0825 49.3316 15.9948 49.0407 16.7705C48.2456 15.0251 46.2713 11.4178 44.7353 10.9524C43.1993 10.4869 41.7681 11.4127 41.2444 11.9337C42.8735 12.1884 45.9106 13.3378 45.0262 15.8978C43.9208 19.0977 40.8953 18.6905 39.6154 17.2941C38.9888 16.6106 38.5434 15.174 38.1292 13.8378C37.6972 12.4445 37.2991 11.1603 36.7645 10.9524C35.9267 10.6266 34.8639 10.4676 34.4372 10.4288C35.6009 12.1354 37.451 16.1771 35.5427 18.6905C35.1442 19.2154 34.4424 20.0837 33.54 21.2002C30.9068 24.4583 27.4442 31.2972 23.9312 36.4335L9.35432 57.8329C5.6449 63.0876 1.91067 68.5273 0.910983 71.812C0.0160831 74.7523 0.6996 79.1994 1.48616 84.3168C2.13145 88.5152 2.8461 93.1648 2.81545 97.8038ZM50.3729 7.16389H55.8596V8.94818H53.8697V14.1226H52.3356V8.94818H50.3729V7.16389Z" fill="black"/>
</svg>
