<svg width="72" height="87" viewBox="0 0 72 87" fill="none" xmlns="http://www.w3.org/2000/svg">
<path fill-rule="evenodd" clip-rule="evenodd" d="M10.7609 10.7333C11.2408 10.2533 17.8401 4.37415 21.3198 4.25414H26.7188C27.4867 4.25414 29.9984 4.81409 31.1582 5.09406L32.958 0.894613C35.6776 0.854619 41.6688 0.798626 43.8765 0.894613C46.0842 0.9906 47.276 3.17429 47.596 4.25414V12.1731L50.2357 14.8127L48.1959 15.4127V16.9725L43.8765 16.0126L39.917 18.5322C42.4367 18.7722 47.62 19.3001 48.1959 19.4921C48.7719 19.6841 48.8358 24.8514 48.7958 27.411H43.1566C42.5567 28.1309 40.7569 30.0267 38.3572 31.8505C36.6827 33.1231 36.8778 33.3488 37.3769 33.926C37.7719 34.3828 38.3572 35.0597 38.3572 36.6498C38.3572 37.6503 38.4036 38.4654 38.4422 39.144V39.144C38.5424 40.907 38.5903 41.7493 37.6373 42.529C36.3175 43.6089 36.0776 46.9684 36.0776 49.3681C36.0776 50.8736 36.6915 51.4818 37.3268 52.1112C37.7041 52.485 38.089 52.8663 38.3572 53.4475C38.7692 54.3402 39.8886 55.4294 40.7707 56.2877L40.7707 56.2877L40.7708 56.2878C41.43 56.9292 41.9568 57.4417 41.9568 57.647C41.9568 57.7817 42.0986 58.1718 42.3054 58.7403C42.835 60.1966 43.7902 62.8233 43.8765 65.326C43.962 67.8063 43.5598 68.2137 42.8872 68.8951C42.6162 69.1696 42.3013 69.4885 41.9568 70.0053C41.2696 71.036 40.1497 72.4602 39.3405 73.4891C38.7367 74.2569 38.306 74.8047 38.3572 74.8047C38.41 74.8047 38.9489 75.4067 39.608 76.1429L39.6081 76.143L39.6082 76.1431C40.4493 77.0827 41.4859 78.2406 41.9568 78.6442C42.6287 79.2201 44.7964 79.3641 45.7962 79.3641H51.6755C53.2113 79.3641 52.3154 83.4435 51.6755 85.4832H43.1566L37.6373 84.0434L36.0776 79.3641L33.6779 77.2044L28.7585 76.1245L29.4784 72.285C30.0384 71.3251 31.1582 69.0454 31.1582 67.6056C31.1582 66.1658 30.4383 64.5261 30.0784 63.8861C29.6384 62.8863 28.7585 60.6946 28.7585 59.9267C28.7585 59.1588 26.7588 57.0471 25.7589 56.0872C25.519 57.367 25.183 59.9267 25.7589 59.9267C26.2664 59.9267 27.072 62.0135 27.8395 64.0015C28.1607 64.8337 28.4753 65.6486 28.7585 66.2858C29.3116 67.5303 28.2314 69.0934 27.2165 70.562C26.4701 71.6422 25.7589 72.6713 25.7589 73.4849C25.7589 75.4046 25.7589 76.7244 26.7188 77.9243C27.2859 78.6331 27.518 78.4625 27.8356 78.2289C28.0556 78.0671 28.3167 77.8752 28.7585 77.9243C29.3519 77.9902 30.1987 78.2734 31.1599 78.5949L31.1599 78.5949C31.948 78.8585 32.813 79.1478 33.6779 79.3641C35.1785 79.7392 35.5794 81.7273 35.8549 83.0932C35.9318 83.4747 35.999 83.8077 36.0776 84.0434C36.3655 84.9073 35.4776 85.9232 34.9977 86.3231L25.7589 85.4832C21.4795 85.5232 12.8007 85.5792 12.3207 85.4832C12.2147 85.462 11.9548 85.4221 11.5988 85.3673L11.5982 85.3672C9.94067 85.1123 6.20145 84.5372 6.20145 84.0434V80.8039C6.20145 80.4484 6.6528 79.5986 7.17346 78.6184C7.88299 77.2825 8.72123 75.7043 8.72123 74.8047C8.72123 73.2449 8.72123 72.765 9.6811 71.5651C10.641 70.3653 11.6008 67.4857 11.6008 65.326V59.9267C11.6008 58.7096 9.84775 57.7118 8.27939 56.819L8.27928 56.8189C7.83761 56.5675 7.41059 56.3245 7.04151 56.0872C5.36179 55.0073 4.04186 51.8878 3.56192 50.208C3.17798 48.8642 3.7219 45.4086 4.04186 43.8488C4.76172 45.4486 6.36946 48.7922 7.04151 49.3681C7.88158 50.088 9.6811 51.1679 11.6008 51.8878C13.1366 52.4637 15.9203 51.6478 17.1201 51.1679L21.9195 46.9684C22.9593 45.9286 25.183 43.5849 25.7589 42.529C26.3349 41.4732 25.519 39.5294 25.039 38.6895C24.3991 38.1296 22.8793 36.9378 21.9195 36.6498C21.207 36.4361 20.8753 35.207 20.5475 33.9926C20.3233 33.1618 20.1009 32.3378 19.7597 31.8505C19.0878 30.8906 19.4798 28.4909 19.7597 27.411C19.3598 27.691 18.2719 28.5149 17.1201 29.5708C16.0477 30.5538 16.24 31.4703 16.408 32.2707C16.4655 32.5448 16.5202 32.8054 16.5202 33.0503C16.5202 34.0102 17.4801 35.21 18.5599 35.9299C19.6398 36.6498 21.3198 37.9696 21.9195 38.6895C22.5191 39.4094 24.0792 41.3292 24.0792 42.529C24.0792 43.4889 21.7595 45.0887 20.5996 45.7686C19.3598 46.9684 16.5202 49.5361 15.0804 50.208C13.6406 50.8799 10.241 49.928 8.72123 49.3681L7.04151 43.8488C5.72172 42.489 2.84214 39.5534 1.88215 38.6895C0.682157 37.6097 1.40221 32.8103 1.88215 30.8906C2.22034 29.5378 3.98839 27.2913 5.17114 25.7885L5.17116 25.7885C5.66684 25.1587 6.05971 24.6595 6.20145 24.4114C6.68138 23.5716 7.04151 20.452 7.04151 18.5322C7.04151 16.6125 10.2811 11.2132 10.7609 10.7333ZM39.4327 10.1698H44.7092C44.7092 10.7844 44.6711 12.0325 44.5185 12.1088C44.366 12.1851 41.0644 10.8479 39.4327 10.1698ZM42.2535 30.4628C42.0083 31.3521 41.3706 33.333 40.7818 34.1425C40.1931 34.952 39.9232 37.4235 39.8619 38.5581C40.1685 39.4166 40.7818 41.281 40.7818 41.8697C40.7818 42.3057 40.3298 43.2584 39.923 44.1155C39.6432 44.7051 39.3849 45.2495 39.3099 45.5494C39.1259 46.2853 39.3102 49.229 40.7818 49.781C41.9592 50.2225 44.2159 51.6208 45.1971 52.2647L48.3248 53.0927L50.9926 53.8286L49.5207 62.5678H52.6484L54.4882 54.7485C55.6535 55.4844 58.1311 56.8275 58.7198 56.3124C59.4558 55.6684 60.6517 53.9206 60.2837 53.0927C59.9157 52.2647 59.3638 50.1489 60.2837 50.5169C61.2036 50.8849 63.0434 50.5169 62.8594 49.781C62.7892 49.5002 62.4244 49.1926 62.046 48.8736C61.4326 48.3565 60.7836 47.8092 61.2956 47.2972C61.5769 47.0159 61.8476 46.809 62.0824 46.6294C62.5386 46.2806 62.8594 46.0353 62.8594 45.5494C62.8594 44.9606 61.8169 43.4643 61.2956 42.7897L59.2718 39.9379L62.2155 28.347H66.8151C68.1029 28.347 70.2187 27.6111 69.9428 26.5992C69.6668 25.5873 70.5867 21.2637 70.8627 20.5278C71.1387 19.7919 70.4027 17.1241 69.9428 16.5721C69.5748 16.1306 67.7043 15.4683 66.8151 15.1923V11.6046H64.4233L63.5954 13.6284L58.7198 14.0884C58.4132 14.4257 57.6895 15.3946 57.248 16.5721C57.0594 17.0749 56.8172 17.6099 56.5837 18.1257C56.1335 19.12 55.7156 20.0432 55.7761 20.5278C55.799 20.7104 55.8218 20.9723 55.8488 21.2825C55.9308 22.2227 56.0514 23.6071 56.3281 24.5754C56.527 25.2717 57.3713 25.8873 58.105 26.4223C58.7283 26.8768 59.2718 27.2731 59.2718 27.6111C59.2718 28.1999 57.3093 35.5837 56.3281 39.202H52.6484L50.5326 40.9498V38.0061C49.1528 37.6381 46.3562 36.7734 46.209 36.2583C46.1415 36.0217 46.1111 35.5742 46.077 35.0707C46.0182 34.2034 45.9481 33.17 45.6571 32.7626C45.2891 32.2475 43.2347 31.0148 42.2535 30.4628Z" fill="black"/>
</svg>
