<svg width="87" height="80" viewBox="0 0 87 80" fill="none" xmlns="http://www.w3.org/2000/svg">
<path fill-rule="evenodd" clip-rule="evenodd" d="M21.133 24.8999L18.0635 27.1773C17.1393 26.9133 15.1524 26.4049 14.5979 26.4841C14.2523 26.5335 14.0544 26.9768 13.7465 27.6667C13.4368 28.3603 13.0159 29.3033 12.2216 30.3458C10.9542 32.0093 10.1092 31.9631 9.8451 31.732L8.85495 29.5537L6.37947 28.4645C5.68637 27.7384 4.22094 26.0089 3.90409 24.8999C3.50802 23.5136 5.58737 22.2264 6.37947 21.9294C7.17158 21.6323 8.65703 20.5431 9.8451 19.2559C10.6487 18.3852 11.7695 17.4693 12.5333 16.8451L12.5333 16.8451L12.5333 16.845C12.8987 16.5464 13.1824 16.3146 13.3106 16.1864C13.6274 15.8696 13.4426 14.4042 13.3106 13.7111L1.62659 0.0466919L16.083 11.6316C16.7101 10.9055 18.1228 9.75033 18.7565 10.9385C18.9143 11.2344 19.0525 11.5225 19.1828 11.7941C19.7064 12.8856 20.1023 13.7111 21.133 13.7111C22.1627 13.7111 23.9384 13.381 24.6975 13.2159C24.9285 13.546 25.5886 14.4041 26.3808 15.1963C27.1729 15.9884 28.1631 16.8465 28.5591 17.1766C29.1532 17.9687 30.3811 19.7906 30.5395 20.7412C30.5932 21.0636 30.8001 21.5611 31.0592 22.1841C31.7548 23.8568 32.8268 26.4345 32.3218 28.9596C31.7673 31.732 30.9025 34.9336 30.5395 36.1878C31.9587 37.211 35.2329 39.2177 36.9756 39.0593C37.7886 38.9854 38.9051 38.8149 40.0471 38.6406C41.9647 38.3478 43.9542 38.044 44.6989 38.1681C45.8871 38.3662 50.8379 38.9603 52.0261 38.1681C52.8659 37.6083 55.0412 37.8398 56.7691 38.0237C57.4859 38.1 58.1257 38.1681 58.5612 38.1681C59.8736 38.1681 63.6597 40.5646 64.8649 41.3275C65.0237 41.428 65.1377 41.5001 65.1953 41.5347C65.3306 41.6158 65.813 41.7118 66.451 41.8386C68.1486 42.1761 70.9475 42.7325 71.2354 43.8121C71.3997 44.4286 71.8371 45.4033 72.3208 46.4813C73.0024 48.0005 73.7762 49.725 74.0078 50.9413C74.4039 53.0207 76.4832 55.8921 77.4734 55.5951C77.6429 55.5443 77.7978 55.505 77.9423 55.4684C78.6417 55.2913 79.0942 55.1768 79.7508 54.1098C80.5429 52.8226 81.137 51.0403 81.137 50.3472V47.3767L82.1272 50.3472C82.2592 50.8423 82.6421 52.2879 83.1174 54.1098C83.6587 57.1257 82.1466 56.9407 81.4583 56.8565C81.2653 56.8329 81.137 56.8172 81.137 56.8823C81.137 57.1199 78.6946 57.9715 77.4734 58.3676C78.3646 58.7636 80.3449 59.4369 81.137 58.9617C81.9292 58.4864 84.7676 56.5192 86.0879 55.5951C85.4938 56.8823 84.1868 59.5558 83.7115 59.9518C83.2362 60.3479 81.4671 60.777 80.642 60.942L83.7115 61.8331C83.0184 62.5263 81.5331 63.9917 81.137 64.3086C80.8005 64.5778 79.503 64.481 78.3022 64.3914C77.7366 64.3492 77.1925 64.3086 76.7803 64.3086C75.4931 64.3086 74.6019 63.7145 72.9186 61.8331C72.3977 61.2509 72 60.9057 71.6963 60.6421C71.0187 60.054 70.8086 59.8717 70.7403 58.3676C70.6868 57.1904 70.5176 56.0422 70.3734 55.0634L70.3734 55.0633L70.3734 55.0631C70.2507 54.2309 70.1462 53.5212 70.1462 53.0207C70.1462 52.9198 70.1487 52.7825 70.1518 52.618V52.618C70.1817 51.0058 70.2599 46.7863 68.4629 48.7629C66.4826 50.9413 65.8885 54.2089 65.8885 54.902C65.8885 55.1067 65.7675 55.6396 65.615 56.3119C65.251 57.916 64.7069 60.314 65.1953 60.942C65.8885 61.8331 66.6806 62.9223 66.7796 65.7938C66.8407 67.5651 66.4873 69.2233 66.2076 70.5361C66.0338 71.3516 65.8885 72.0337 65.8885 72.527C65.8885 73.5567 65.4264 75.7945 65.1953 76.7847C64.4032 76.8837 62.7793 77.2005 62.6209 77.6758C62.4625 78.1511 61.8948 79.3921 61.6307 79.9532H55.4917C55.5247 78.1379 55.9472 74.4083 57.373 74.0122C58.7989 73.6161 60.8056 72.4609 61.6307 71.9329V67.9722C61.6307 67.8161 61.7606 67.66 61.8964 67.4968C62.2775 67.0386 62.7057 66.5239 60.4425 65.7938C57.9869 65.0017 55.4587 62.8233 54.5015 61.8331L53.0163 58.3676C53.2143 60.1829 53.9867 64.0115 55.4917 64.8036C56.9968 65.5958 57.373 66.3879 57.373 66.685L56.1848 69.7545L54.5015 75.7945L52.0261 76.7847V78.567L44.6989 77.6758C44.5669 76.9497 44.5999 75.2004 45.7881 74.0122C47.2733 72.527 49.4517 71.9329 50.0458 71.9329C50.6399 71.9329 53.0163 70.8437 53.0163 69.7545V65.7938C53.0163 65.5298 52.7192 64.8631 51.531 64.3086C50.0458 63.6154 49.0556 61.9322 48.8576 60.942C48.6992 60.1499 48.4615 59.2917 48.3625 58.9617L53.0163 56.8823H46.7782C46.2501 57.3774 44.7583 58.3676 43.0156 58.3676C42.1209 58.3676 41.0424 58.568 39.9929 58.7631L39.9928 58.7631C38.4871 59.0429 37.041 59.3117 36.2825 58.9617C35.2527 58.4864 32.3548 56.5192 31.0346 55.5951V58.9617H24.1034C23.4063 58.9617 22.4885 58.7579 21.603 58.5613L21.603 58.5613C20.3503 58.2832 19.1625 58.0195 18.7565 58.3676C18.5911 58.5094 18.4256 58.6173 18.2791 58.713C17.8116 59.0181 17.5359 59.198 18.0635 59.9518C18.3331 60.337 18.8574 60.7521 19.3975 61.1798C20.2458 61.8514 21.133 62.5539 21.133 63.2194V71.2397C19.6807 71.2067 16.4989 70.507 15.3899 67.9722L13.3106 63.2194V59.9518C13.3106 59.6254 13.2352 59.2451 13.159 58.8606C13.0042 58.0791 12.846 57.2805 13.3106 56.8823C13.8651 56.407 14.9278 55.3641 15.3899 54.902L22.4201 54.1098C20.7698 53.2847 17.0534 51.674 15.3899 51.8325C14.4914 51.918 13.6483 51.7078 12.9646 51.5373C12.066 51.3132 11.4427 51.1577 11.3302 51.8325C11.1718 52.783 10.2741 54.7369 9.8451 55.5951L11.3302 59.4567C11.3963 60.5459 11.1918 62.8233 9.8451 63.2194C8.49838 63.6154 5.32329 63.7805 3.90409 63.8135V56.8823L6.37947 54.1098C6.74253 52.0635 7.94393 47.852 9.8451 47.3767C11.7463 46.9014 14.3338 46.7826 15.3899 46.7826L19.3506 47.3767L16.083 45.3964C15.852 43.5811 15.3899 39.7722 15.3899 39.0593C15.3899 38.6627 15.5272 37.7172 15.6795 36.6676C15.8695 35.3585 16.083 33.8877 16.083 33.1183C16.083 32.5888 15.8952 32.1749 15.7348 31.8213C15.4753 31.2493 15.2875 30.8354 16.083 30.3458C16.562 30.0511 17.0135 29.8934 17.4376 29.7453L17.4376 29.7453C18.1533 29.4954 18.791 29.2727 19.3506 28.4645C20.0635 27.4348 20.8359 25.659 21.133 24.8999ZM14.4593 17.7198V19.932L16.3096 18.7254L14.4593 17.7198ZM43.8461 32.3113C42.9281 32.7936 41.8726 33.2706 41.0945 33.357C40.6997 33.4008 40.2149 33.4652 39.655 33.5395L39.654 33.5396L39.6536 33.5397C38.0554 33.7518 35.8457 34.045 33.3708 34.1753L33.2966 32.7664C35.7091 32.6394 37.8188 32.3594 39.412 32.148H39.4121C39.9932 32.0709 40.5055 32.0029 40.9388 31.9548C41.4179 31.9016 42.254 31.554 43.1899 31.0624C44.0912 30.5888 44.978 30.0403 45.5145 29.6826L46.2971 30.8565C45.7278 31.2361 44.7985 31.8109 43.8461 32.3113ZM43.9107 28.0046C44.2349 27.7885 44.3225 27.3505 44.1064 27.0264C43.8903 26.7022 43.4523 26.6146 43.1281 26.8307C43.0021 26.9148 42.8302 27.0074 42.6524 27.077C42.4664 27.1499 42.3236 27.1779 42.2422 27.1779C41.9288 27.1779 41.6321 27.2304 41.3998 27.2715L41.3961 27.2722C41.144 27.3168 40.9608 27.3489 40.7821 27.3526C40.746 27.3534 40.7007 27.352 40.6324 27.3488L40.6029 27.3475L40.6027 27.3475C40.5453 27.3447 40.4733 27.3413 40.4025 27.3402C40.2432 27.3378 39.9933 27.3428 39.7447 27.4371C39.5691 27.5037 39.4112 27.5884 39.2883 27.656L39.2142 27.697C39.1177 27.7504 39.0451 27.7906 38.969 27.8261C38.9149 27.8513 38.8466 27.8663 38.6666 27.8925L38.6404 27.8963C38.4877 27.9182 38.231 27.955 37.9807 28.0728C37.8618 28.1288 37.8098 28.1487 37.7354 28.1658C36.8709 28.3639 35.9892 28.4594 35.0648 28.5595L35.0647 28.5595L35.0646 28.5595L35.0645 28.5595L35.0644 28.5595L35.0643 28.5596L35.0642 28.5596L35.0639 28.5596L35.0636 28.5596L35.0614 28.5599C34.83 28.5849 34.5959 28.6103 34.3588 28.6376C33.9717 28.6822 33.6942 29.0322 33.7388 29.4192C33.7834 29.8062 34.1333 30.0838 34.5203 30.0392C34.7355 30.0144 34.9549 29.9907 35.1774 29.9667L35.1774 29.9667L35.1775 29.9667L35.1775 29.9667L35.1776 29.9667L35.1776 29.9666L35.1777 29.9666L35.1779 29.9666L35.1781 29.9666L35.179 29.9665C36.1108 29.8659 37.0969 29.7595 38.0506 29.541C38.2709 29.4905 38.4293 29.4209 38.5814 29.3494C38.6245 29.3291 38.6831 29.3158 38.8699 29.2886L38.8895 29.2857C39.047 29.263 39.3066 29.2254 39.5656 29.1046C39.6905 29.0463 39.815 28.9772 39.9132 28.9226L39.9133 28.9226L39.9134 28.9226L39.9135 28.9225L39.9684 28.8921C40.0854 28.8277 40.1692 28.785 40.245 28.7563L40.2425 28.7573C40.2426 28.7577 40.277 28.7493 40.3805 28.7509C40.4272 28.7516 40.4733 28.7538 40.531 28.7565L40.5677 28.7582C40.636 28.7613 40.7234 28.765 40.8115 28.7632C41.1036 28.7571 41.3841 28.7072 41.6055 28.6679L41.642 28.6614L41.6662 28.6572C41.5008 28.7463 41.3652 28.8442 41.2578 28.9217C41.2245 28.9458 41.1938 28.9679 41.1658 28.9872C41.1301 29.0119 41.0282 29.0521 40.7818 29.0817C40.691 29.0926 40.6009 29.1002 40.4991 29.1088L40.4133 29.1162C40.2846 29.1274 40.1333 29.1417 39.9874 29.1677C39.16 29.3152 38.4296 29.524 37.6442 29.8467C37.3052 29.9861 36.9872 30.1546 36.7026 30.3059L36.6867 30.3144L36.6866 30.3144C36.3989 30.4674 36.1447 30.6026 35.8841 30.7132C35.3608 30.9354 34.798 31.0215 34.148 31.121C33.9798 31.1468 33.8058 31.1734 33.6251 31.2035C33.2408 31.2676 32.9812 31.631 33.0453 32.0153C33.1093 32.3996 33.4728 32.6592 33.857 32.5951C33.9911 32.5728 34.1335 32.5514 34.2819 32.529C34.9461 32.429 35.7317 32.3106 36.4354 32.0119C36.7539 31.8767 37.0565 31.7157 37.3286 31.571L37.3286 31.571L37.365 31.5516C37.6561 31.3968 37.9153 31.2606 38.1805 31.1517C38.8695 30.8685 39.5029 30.6871 40.235 30.5566C40.3125 30.5428 40.408 30.5328 40.5354 30.5217L40.6062 30.5157C40.7105 30.5069 40.832 30.4966 40.9498 30.4825C41.2256 30.4494 41.6279 30.3823 41.9668 30.1486C42.0242 30.1091 42.0734 30.0746 42.1163 30.0446L42.1169 30.0442L42.1169 30.0442C42.3286 29.8962 42.3872 29.8553 42.5155 29.831C42.8265 29.7721 43.0552 29.6978 43.3316 29.5793C43.6897 29.4258 43.8556 29.0111 43.7021 28.653C43.6345 28.4952 43.5161 28.3747 43.3742 28.3024C43.5717 28.2116 43.7562 28.1076 43.9107 28.0046ZM41.9528 25.1056C42.169 25.4297 42.0814 25.8677 41.7572 26.0838C41.5996 26.1889 41.4408 26.2374 41.2894 26.254C41.2241 26.2612 41.1666 26.2616 41.1294 26.2615L41.0787 26.2609L41.0425 26.2605C40.9491 26.2605 40.8698 26.2808 40.7102 26.3215C40.6563 26.3353 40.5932 26.3514 40.5173 26.3699L40.5063 26.3725L40.5061 26.3726C40.1962 26.448 39.8601 26.5297 39.5285 26.596C38.083 26.8851 36.6705 27.1576 35.1213 27.2488C34.7323 27.2716 34.3985 26.9749 34.3756 26.586C34.3528 26.1971 34.6495 25.8632 35.0384 25.8404C36.4787 25.7556 37.8037 25.5022 39.2518 25.2126C39.5539 25.1522 39.8655 25.0764 40.1838 24.999C40.2086 24.993 40.2384 24.9851 40.2724 24.9761L40.2724 24.9761C40.4525 24.9285 40.7508 24.8497 41.0425 24.8497C41.0577 24.8497 41.0719 24.8498 41.0843 24.85C41.3917 24.7158 41.7603 24.8168 41.9528 25.1056ZM34.6141 23.4527C34.2245 23.4527 33.9087 23.7685 33.9087 24.1581C33.9087 24.5477 34.2245 24.8635 34.6141 24.8635H39.0959C39.4854 24.8635 39.8013 24.5477 39.8013 24.1581C39.8013 23.7685 39.4854 23.4527 39.0959 23.4527H34.6141ZM38.9431 20.2651C39.3252 20.3415 39.5729 20.7132 39.4965 21.0952C39.424 21.4579 39.2128 21.7416 39.0029 21.9455C38.7887 22.1534 38.5317 22.3218 38.2802 22.4528C37.7945 22.7057 37.2002 22.8846 36.7418 22.8846C36.1825 22.8846 35.6382 22.7976 35.1419 22.7074C35.0353 22.688 34.9315 22.6686 34.83 22.6496L34.83 22.6496C34.4414 22.577 34.0858 22.5105 33.7266 22.4734C33.3391 22.4333 33.0575 22.0866 33.0976 21.6991C33.1376 21.3116 33.4843 21.0299 33.8718 21.07C34.2942 21.1137 34.7221 21.1939 35.1164 21.2677L35.1165 21.2677L35.1166 21.2678C35.2113 21.2855 35.3041 21.3029 35.3944 21.3193C35.8794 21.4075 36.3179 21.4737 36.7418 21.4737C36.9043 21.4737 37.2724 21.3869 37.6285 21.2015C37.7978 21.1133 37.9315 21.0193 38.0201 20.9333C38.0926 20.8629 38.1107 20.8219 38.1135 20.8156L38.1138 20.8147C38.1919 20.4349 38.5624 20.189 38.9431 20.2651ZM32.9278 19.2063C32.5397 19.1732 32.1982 19.4611 32.1651 19.8493C32.1321 20.2375 32.42 20.579 32.8082 20.612C32.9908 20.6276 33.1962 20.6361 33.3812 20.6437L33.3813 20.6437L33.3814 20.6437L33.3816 20.6438L33.3817 20.6438L33.3819 20.6438C33.4767 20.6477 33.5662 20.6514 33.6445 20.6557C33.9037 20.67 34.1231 20.693 34.3202 20.7422C34.6278 20.8191 34.8796 20.8474 35.1962 20.8474C35.5858 20.8474 35.9016 20.5316 35.9016 20.142C35.9016 19.7524 35.5858 19.4366 35.1962 19.4366C34.9857 19.4366 34.8494 19.4203 34.6624 19.3735C34.3346 19.2916 34.0097 19.2629 33.7223 19.247C33.599 19.2402 33.4902 19.2359 33.388 19.2318H33.388H33.3879H33.3879C33.2286 19.2254 33.0852 19.2197 32.9278 19.2063ZM31.7256 17.2656C31.8355 16.8918 32.2276 16.6779 32.6014 16.7879C32.6659 16.8068 32.7375 16.8265 32.8143 16.8476L32.8144 16.8476C33.1265 16.9334 33.5244 17.0427 33.8803 17.2242C33.9033 17.2359 33.9333 17.2495 33.9865 17.2732L33.9919 17.2756C34.0381 17.2963 34.1009 17.3243 34.1636 17.3556C34.2734 17.4104 34.495 17.5271 34.6546 17.7398C34.8883 18.0515 34.8252 18.4937 34.5135 18.7274C34.2188 18.9485 33.8074 18.904 33.5658 18.635C33.5575 18.6303 33.5468 18.6246 33.533 18.6177C33.5001 18.6012 33.4634 18.5848 33.4115 18.5616L33.4059 18.5591C33.3609 18.539 33.2986 18.5112 33.2395 18.4811C33.0237 18.3711 32.8087 18.3114 32.5212 18.2316C32.4244 18.2047 32.3194 18.1755 32.2033 18.1414C31.8295 18.0314 31.6156 17.6393 31.7256 17.2656ZM31.0743 14.87C30.8628 14.5428 30.4262 14.4489 30.0989 14.6604C29.7717 14.8718 29.6778 15.3085 29.8893 15.6357C30.116 15.9866 30.3759 16.2559 30.7451 16.4137C31.0563 16.5467 31.3961 16.5726 31.6737 16.5938L31.7082 16.5964C32.0966 16.6263 32.4357 16.3356 32.4656 15.9472C32.4955 15.5588 32.2048 15.2196 31.8164 15.1898C31.4722 15.1633 31.3683 15.1458 31.2997 15.1165L31.2989 15.1161C31.2747 15.1058 31.2083 15.0774 31.0743 14.87ZM33.64 34.9772C33.2505 34.9688 32.9279 35.2777 32.9195 35.6672C32.911 36.0567 33.2199 36.3793 33.6094 36.3877C34.0347 36.397 34.4582 36.4195 34.8945 36.4428L35.0932 36.4533C35.5952 36.4797 36.1131 36.5043 36.6384 36.5043H38.1064C38.496 36.5043 38.8119 36.1885 38.8119 35.7989C38.8119 35.4093 38.496 35.0935 38.1064 35.0935H36.6384C36.1535 35.0935 35.6679 35.0708 35.1673 35.0445L34.9717 35.0341C34.537 35.0109 34.0894 34.987 33.64 34.9772Z" fill="black"/>
</svg>
