<svg width="88" height="65" viewBox="0 0 88 65" fill="none" xmlns="http://www.w3.org/2000/svg">
<path fill-rule="evenodd" clip-rule="evenodd" d="M46.1126 0.6091C51.7332 0.71216 57.6072 4.94584 59.8417 7.04978C61.7754 8.3379 65.8233 11.0301 66.5452 11.4938C67.0662 11.8284 68.0382 13.0646 68.8909 14.149L68.891 14.1491L68.8911 14.1492C69.5154 14.9431 70.0757 15.6557 70.3481 15.8734C70.5182 16.0094 70.9712 16.3114 71.5506 16.6977C73.1666 17.775 75.766 19.508 75.9558 20.1243C76.2136 20.9615 77.6961 23.6022 78.2762 23.7954C78.8563 23.9886 81.3057 27.7242 81.3057 28.1751C81.3057 28.4095 81.7762 28.8877 82.246 29.3652C82.6798 29.8061 83.113 30.2464 83.1749 30.4937C83.2117 30.641 83.3961 30.7357 83.6422 30.862C84.2568 31.1775 85.2559 31.6904 85.3019 33.714C85.317 34.3751 85.304 35.1203 85.2907 35.8792C85.2471 38.3739 85.2009 41.0177 86.1399 41.314C87.3645 41.7004 86.6555 47.5614 85.6887 48.0767C84.9152 48.4889 82.4444 49.4936 81.3057 49.9444L80.7255 47.1106C80.0595 46.7885 78.6372 46.3377 78.2762 47.1106C77.9153 47.8834 78.7704 49.3218 79.2431 49.9444C78.8348 50.9105 77.6059 52.7783 75.9558 52.5207C73.8932 52.1987 69.1879 47.2394 69.059 46.5309C68.9301 45.8224 64.676 43.4394 64.0314 43.3106C63.6065 43.2257 61.7811 43.6445 60.494 43.9399C59.8286 44.0926 59.307 44.2123 59.1972 44.2123C59.0496 44.2123 58.5369 43.9015 57.9811 43.5646C57.3235 43.166 56.6057 42.7309 56.3611 42.7309C55.9099 42.7309 50.689 45.9512 50.689 46.5309C50.689 47.1106 50.2378 51.297 49.6577 52.5207C49.2387 53.4046 49.425 54.6919 49.5608 55.6298C49.613 55.9904 49.6577 56.2993 49.6577 56.5139V59.7986C49.8296 59.8845 50.5085 60.2624 51.8492 61.0868C53.1899 61.9112 54.1696 63.8777 54.4919 64.7579H40.2471C39.7099 64.1353 38.5067 62.6196 37.9911 61.5376C37.3466 60.1854 37.3466 56.1938 37.3466 55.6126V55.6122C37.3466 55.0325 36.2507 51.2326 36.0574 50.5885C36.0136 50.4426 35.9433 50.2307 35.8601 49.9796L35.8601 49.9795C35.5759 49.1219 35.1404 47.808 35.0905 47.1106C35.0389 46.3892 35.7136 43.8902 36.0574 42.7309C35.0905 44.8349 32.9248 48.8495 31.9966 48.0767C31.285 47.4841 29.4338 47.5457 28.0194 47.5928C27.1277 47.6225 26.4096 47.6464 26.26 47.497C25.9507 47.1878 24.8419 45.1784 24.3263 44.2123L19.041 50.5885V58.8969C19.041 59.3856 20.139 59.931 21.1449 60.4307C21.9951 60.853 22.7794 61.2426 22.7794 61.5376V64.7579H12.0797C10.7475 64.6935 8.01886 64.0881 7.76104 62.1817C7.51485 60.3613 7.64478 57.7893 7.71986 56.303C7.74307 55.8436 7.76104 55.4879 7.76104 55.2902C7.76104 55.0688 7.62588 54.8745 7.43419 54.5988C6.90084 53.8318 5.92981 52.4354 6.2143 48.0767C6.60104 42.1513 5.89218 40.6699 5.37653 39.7682L5.35521 39.731C4.80976 38.7776 2.92538 35.484 2.79819 33.0056C2.75721 32.207 2.40357 31.4996 2.06238 30.8171C1.33033 29.3528 0.655608 28.0031 3.24956 26.1141C6.64739 23.6396 6.3402 22.3991 6.23621 21.9791C6.22381 21.9291 6.2143 21.8907 6.2143 21.8632C6.2143 21.6056 9.69532 18.1277 11.1134 17.6124C12.5314 17.0972 15.303 15.5514 16.721 14.6497C17.0536 14.4383 17.6235 14.0923 18.307 13.6773L18.3071 13.6772L18.3072 13.6772L18.3073 13.6771L18.3073 13.6771C20.5387 12.3223 23.9804 10.2327 24.3263 9.69042C24.6947 9.11268 27.1202 7.59267 28.597 6.66719C28.9311 6.45777 29.2167 6.2788 29.4189 6.14807C30.2955 5.58129 34.6828 2.99215 36.7669 1.76843L40.2471 0.6091H46.1126ZM21.3852 57.7464C21.3783 58.0151 21.3738 58.19 21.3738 58.231C21.3738 58.496 22.8504 59.5561 23.0397 59.6318C23.1911 59.6923 24.1376 61.0957 24.5919 61.7898L34.0565 61.9791C33.7789 60.5783 32.9437 57.8221 31.8231 58.0038C30.4223 58.231 29.8165 55.9594 29.8165 55.5051C29.8165 55.1416 29.337 51.0124 29.0972 48.9932H26.1063C25.652 48.9932 24.5793 48.0846 24.0997 47.6303L21.3738 51.492C21.5338 52.004 21.4232 56.277 21.3852 57.7463V57.7464ZM56.1288 45.548L52.835 48.3118C52.9864 50.1543 53.2894 53.9831 53.2894 54.5586C53.2894 55.034 53.554 56.0055 53.7334 56.6643L53.7335 56.6644L53.7335 56.6644L53.7335 56.6645C53.8256 57.0025 53.8952 57.2582 53.8952 57.3223C53.8952 57.4738 53.1884 58.6474 52.835 59.2153L55.1824 61.5626C56.4823 61.5879 59.3015 61.6232 60.1799 61.5626C61.2778 61.4869 63.398 59.6696 63.1708 59.2153C63.0469 58.9675 62.923 58.179 62.7991 57.3906C62.6958 56.7335 62.5926 56.0764 62.4893 55.7323C62.3363 55.2222 63.1108 54.1455 63.7022 53.3232C63.9888 52.9247 64.2324 52.586 64.3066 52.4006C64.5337 51.8327 64.5337 48.9554 64.3066 48.6147C64.2459 48.5236 64.1257 48.2622 63.9721 47.9281C63.5507 47.0117 62.8777 45.548 62.4893 45.548C62.2555 45.548 61.6903 45.7543 61.0763 45.9783L61.0763 45.9783C60.2982 46.2622 59.4417 46.5747 59.082 46.5324C58.5671 46.4718 56.8987 45.8509 56.1288 45.548ZM78.0256 34.8733H80.6018L80.0866 37.5784H78.0256V34.8733ZM20.034 29.7245C19.876 29.606 18.1905 27.667 17.3675 26.7123C18.7172 27.2719 21.7426 28.5492 23.0462 29.1813C24.3498 29.8133 22.8981 32.5062 22.0092 33.7736C21.9598 33.1811 21.8413 31.907 21.7623 31.5515C21.6636 31.1071 20.2315 29.8726 20.034 29.7245ZM34.1438 37.8706C34.1939 37.3398 34.2635 36.604 34.5109 36.1588C34.8895 35.4773 36.1389 34.1901 36.8961 33.8494C37.6533 33.5086 40.2656 32.2593 40.417 32.07C40.5684 31.8807 37.1232 31.8807 36.0631 32.4865C35.7042 32.6916 35.1715 32.9662 34.621 33.25C33.546 33.8042 32.403 34.3934 32.3529 34.5687C32.2923 34.7807 32.3277 38.2663 32.3529 39.9826L34.0565 38.4682C34.0959 38.3763 34.1171 38.1524 34.1438 37.8706Z" fill="black"/>
</svg>
