<svg width="89" height="78" viewBox="0 0 89 78" fill="none" xmlns="http://www.w3.org/2000/svg">
<path fill-rule="evenodd" clip-rule="evenodd" d="M25.569 13.7089L24.1063 13.628C24.1174 13.4277 24.123 13.2258 24.123 13.0225C24.123 12.8191 24.1174 12.6173 24.1063 12.417L25.569 12.3361C25.5816 12.5633 25.5879 12.7922 25.5879 13.0225C25.5879 13.2528 25.5816 13.4817 25.569 13.7089ZM25.4169 10.9721L23.9724 11.2158C23.9048 10.8155 23.8152 10.4228 23.7048 10.039L25.1127 9.63406C25.2382 10.0705 25.3401 10.517 25.4169 10.9721ZM24.6596 8.33912L23.3064 8.90027C23.1515 8.5269 22.9762 8.16401 22.7818 7.81302L24.0633 7.10326C24.2842 7.5021 24.4835 7.91458 24.6596 8.33912ZM23.3322 5.94203L22.1382 6.79076C21.9044 6.46184 21.6525 6.14653 21.384 5.84631L22.476 4.86978C22.7808 5.21056 23.0667 5.56852 23.3322 5.94203ZM21.5058 3.89951L20.5292 4.9915C20.229 4.72302 19.9137 4.47116 19.5848 4.23736L20.4335 3.04333C20.807 3.30882 21.165 3.59476 21.5058 3.89951ZM19.2723 2.3122L18.5625 3.59372C18.2115 3.39932 17.8487 3.22402 17.4753 3.06919L18.0364 1.71599C18.461 1.89204 18.8735 2.0913 19.2723 2.3122ZM16.7415 1.26288L16.3366 2.67074C15.9528 2.56036 15.5601 2.47073 15.1597 2.40318L15.4035 0.95866C15.8585 1.03544 16.305 1.13733 16.7415 1.26288ZM14.0394 0.806527L13.9586 2.26923C13.7583 2.25816 13.5564 2.25254 13.3531 2.25254C13.1497 2.25254 12.9478 2.25816 12.7476 2.26923L12.6667 0.806527C12.8939 0.793963 13.1227 0.787598 13.3531 0.787598C13.5834 0.787598 13.8122 0.793963 14.0394 0.806527ZM11.3026 0.95866L11.5464 2.40318C11.146 2.47073 10.7533 2.56036 10.3696 2.67074L9.96463 1.26288C10.4011 1.13733 10.8476 1.03544 11.3026 0.95866ZM8.66969 1.71599L9.23084 3.06919C8.85746 3.22402 8.49458 3.39932 8.14359 3.59372L7.43382 2.3122C7.83266 2.0913 8.24514 1.89204 8.66969 1.71599ZM6.2726 3.04333L7.12132 4.23736C6.7924 4.47116 6.4771 4.72302 6.17687 4.9915L5.20035 3.89951C5.54113 3.59476 5.89909 3.30882 6.2726 3.04333ZM4.23007 4.86978L5.32206 5.84631C5.05359 6.14653 4.80173 6.46184 4.56793 6.79076L3.3739 5.94203C3.63939 5.56852 3.92532 5.21056 4.23007 4.86978ZM2.64277 7.10326L3.92428 7.81302C3.72989 8.16401 3.55459 8.5269 3.39976 8.90027L2.04655 8.33912C2.22261 7.91458 2.42187 7.5021 2.64277 7.10326ZM1.59344 9.63406L3.00131 10.039C2.89092 10.4228 2.8013 10.8155 2.73375 11.2158L1.28923 10.9721C1.366 10.517 1.4679 10.0705 1.59344 9.63406ZM1.13709 12.3361C1.12453 12.5633 1.11816 12.7922 1.11816 13.0225C1.11816 13.2528 1.12453 13.4817 1.13709 13.7089L2.5998 13.628C2.58872 13.4277 2.5831 13.2258 2.5831 13.0225C2.5831 12.8191 2.58872 12.6173 2.5998 12.417L1.13709 12.3361ZM1.28923 15.0729L2.73375 14.8292C2.8013 15.2295 2.89092 15.6222 3.00131 16.006L1.59344 16.4109C1.4679 15.9744 1.366 15.5279 1.28923 15.0729ZM2.04655 17.7059L3.39976 17.1447C3.55459 17.5181 3.72989 17.881 3.92428 18.232L2.64277 18.9417C2.42187 18.5429 2.22261 18.1304 2.04655 17.7059ZM3.3739 20.103L4.56793 19.2542C4.80173 19.5831 5.05359 19.8984 5.32206 20.1987L4.23007 21.1752C3.92532 20.8344 3.63939 20.4765 3.3739 20.103ZM5.20035 22.1455L6.17687 21.0535C6.4771 21.322 6.7924 21.5738 7.12132 21.8076L6.2726 23.0016C5.89909 22.7362 5.54113 22.4502 5.20035 22.1455ZM7.43382 23.7328L8.14359 22.4513C8.49458 22.6457 8.85746 22.821 9.23084 22.9758L8.66969 24.329C8.24514 24.1529 7.83266 23.9537 7.43382 23.7328ZM9.96463 24.7821L10.3696 23.3742C10.7533 23.4846 11.146 23.5742 11.5464 23.6418L11.3026 25.0863C10.8476 25.0095 10.4011 24.9076 9.96463 24.7821ZM12.6667 25.2385L12.7476 23.7757C12.9478 23.7868 13.1497 23.7924 13.3531 23.7924C13.5564 23.7924 13.7583 23.7868 13.9586 23.7757L14.0394 25.2385C13.8122 25.251 13.5834 25.2574 13.3531 25.2574C13.1227 25.2574 12.8939 25.251 12.6667 25.2385ZM20.4335 23.0016L19.5848 21.8076C19.9137 21.5738 20.229 21.322 20.5292 21.0535L21.5058 22.1455C21.165 22.4502 20.807 22.7362 20.4335 23.0016ZM22.476 21.1752L21.384 20.1987C21.6525 19.8984 21.9044 19.5831 22.1382 19.2542L23.3322 20.103C23.0667 20.4765 22.7808 20.8344 22.476 21.1752ZM24.0633 18.9417L22.7818 18.232C22.9762 17.881 23.1515 17.5181 23.3064 17.1447L24.6596 17.7059C24.4835 18.1304 24.2842 18.5429 24.0633 18.9417ZM25.1127 16.4109L23.7048 16.006C23.8152 15.6222 23.9048 15.2295 23.9724 14.8292L25.4169 15.0729C25.3401 15.5279 25.2382 15.9744 25.1127 16.4109ZM41.6803 19.0436V11.3999C41.6803 10.4344 39.7135 6.79581 38.7301 5.09721L42.7531 6.17005L47.1784 11.3999L50.1286 14.082L44.6305 14.7525L48.1171 16.6299V19.9824C48.6088 19.9823 49.9677 19.7945 51.4696 19.0436C52.1452 18.7058 52.6992 18.2639 53.1567 17.899L53.1567 17.8989L53.1568 17.8989C53.9705 17.2497 54.4788 16.8443 54.8221 17.7027C55.2512 18.7754 56.8783 20.3846 57.6382 21.0552L64.3432 19.0436L67.1632 17.3786C67.8774 16.4602 71.2398 14.3512 73.2258 13.1055L73.226 13.1053C73.85 12.714 74.338 12.4078 74.5654 12.2507C74.9676 11.9725 75.1245 11.6077 75.2962 11.2082C75.4541 10.841 75.6245 10.4444 76.0099 10.059C76.5734 9.49551 77.6335 9.63306 78.1056 10.3196C78.642 12.4653 77.2617 13.6453 76.3462 13.8598C76.0099 13.2805 75.3807 13.3234 74.8443 13.8598C74.6476 14.0565 74.2106 14.3345 73.6964 14.6616C72.8081 15.2267 71.6896 15.9382 71.1823 16.6299C70.3815 17.7219 68.6344 19.9824 68.6344 19.9824C68.0086 24.8547 66.5157 35.3234 65.5501 38.22C64.8333 40.3706 63.7379 37.5536 62.6013 34.6304C61.8243 32.6322 61.0281 30.5844 60.3202 30.0399C58.9256 28.9671 56.0737 27.2685 54.8221 26.5533V33.7947V38.22L42.7531 39.6951H54.8221V42.3771C54.8221 42.5596 54.8089 42.6598 54.7875 42.7012C54.9678 43.2768 55.2368 44.1918 55.6267 45.5955C57.6382 52.8369 59.2474 56.4576 60.3202 58.2009C60.9637 59.2466 61.3177 61.8362 61.6138 64.0018L61.6138 64.0019L61.6138 64.002L61.6138 64.0021C61.8113 65.4467 61.983 66.7027 62.1976 67.1856L62.2436 67.2889C62.8577 68.665 65.095 73.6788 63.1363 75.768C61.1248 77.9136 54.8221 77.109 53.6152 76.8408C52.4083 76.5726 44.7646 75.768 42.7531 75.768C41.1439 75.768 38.6854 76.4832 37.6573 76.8408C35.8693 76.1256 32.0519 74.9098 31.0864 75.768C30.1209 76.6263 27.1975 76.8408 25.8565 76.8408L27.734 72.4155L22.9064 76.8408L18.2128 75.768C17.6317 74.6505 16.8181 72.4155 18.2128 72.4155C19.6932 72.4155 23.6875 69.8048 25.2694 68.7708L25.2714 68.7695L25.2716 68.7694C25.5515 68.5865 25.7556 68.453 25.8565 68.3925C26.0762 68.2607 26.3103 68.2729 26.5918 68.2875C27.1694 68.3174 27.9467 68.3577 29.209 67.1856C30.3486 66.1274 31.34 64.4763 32.1831 63.072L32.1832 63.072L32.1832 63.0718L32.1834 63.0716C32.7291 62.1626 33.2128 61.3571 33.6343 60.8829C34.2734 60.1639 34.7222 57.8267 35.1223 55.7427C35.3938 54.3285 35.643 53.0309 35.914 52.4346C36.4504 51.2545 37.2997 45.2379 37.6573 42.3771H43.8259C41.4121 41.6172 36.7991 39.9097 37.6573 39.1587C38.5155 38.4077 38.0149 35.8062 37.6573 34.5993C37.3891 35.6721 36.5309 38.0859 35.2435 39.1587C33.6343 40.4997 33.6343 43.0476 33.6343 45.5955C33.6343 47.6338 26.4823 39.114 22.9064 34.5993C22.057 34.3311 20.1438 33.7947 19.2856 33.7947C18.4273 33.7947 17.2294 32.8113 16.7377 32.3196C16.4695 32.0514 16.0941 31.4345 16.7377 31.1127C17.3813 30.7908 17.9893 27.3132 18.2128 25.6146C19.062 25.8828 20.975 26.6606 21.8334 27.6261C22.6918 28.5916 22.191 29.6376 21.8334 30.0399C24.3813 30.5316 29.7991 31.22 31.0864 30.0399C31.4827 29.6766 31.8953 29.2807 32.3021 28.8904C33.5471 27.696 34.7382 26.5533 35.2435 26.5533C35.914 26.5533 37.6573 24.2736 37.6573 23.6031C37.6573 23.0667 37.2102 21.681 36.9867 21.0552H44.6305L41.6803 19.0436ZM23.4425 37.8176C23.4424 38.8904 28.0019 54.8037 30.2817 62.6262L29.2089 64.2354L20.8946 35.2698C21.7439 35.6721 23.4425 36.7449 23.4425 37.8176ZM16.1912 25.2574C15.5888 22.7707 14.3285 17.7139 14.1061 17.3802C13.8978 17.0678 13.1438 16.7035 12.5641 16.4235L12.5641 16.4235L12.5641 16.4235C12.3699 16.3296 12.1952 16.2452 12.0673 16.1754C11.5576 15.8974 10.5382 15.1097 10.4918 14.2756C10.4617 13.7328 10.4708 13.1705 10.4808 12.5501V12.5501V12.5501C10.4862 12.2172 10.4918 11.8676 10.4918 11.4954C10.4918 10.6428 10.7698 7.71131 10.9088 6.35212L12.0673 7.83487C12.2526 8.06655 12.5676 8.64112 12.3452 9.08595C12.1536 9.4693 12.909 10.0729 13.503 10.5475C13.7706 10.7613 14.0054 10.9489 14.1061 11.0784C14.4304 11.4954 15.0327 14.0902 14.5694 14.2756C14.1987 14.4239 14.9092 15.6039 15.3108 16.1754L16.9789 24.2843L16.1912 25.2574ZM87.0892 13.628L88.552 13.7089C88.5645 13.4817 88.5709 13.2528 88.5709 13.0225C88.5709 12.7922 88.5645 12.5633 88.552 12.3361L87.0892 12.417C87.1003 12.6173 87.1059 12.8191 87.1059 13.0225C87.1059 13.2258 87.1003 13.4277 87.0892 13.628ZM86.9553 11.2158L88.3998 10.9721C88.323 10.517 88.2211 10.0705 88.0956 9.63406L86.6877 10.039C86.7981 10.4228 86.8877 10.8155 86.9553 11.2158ZM86.2893 8.90027L87.6425 8.33912C87.4664 7.91458 87.2672 7.5021 87.0463 7.10326L85.7648 7.81302C85.9592 8.16401 86.1345 8.5269 86.2893 8.90027ZM85.1211 6.79076L86.3151 5.94203C86.0497 5.56852 85.7637 5.21056 85.459 4.86978L84.367 5.84631C84.6355 6.14653 84.8873 6.46184 85.1211 6.79076ZM83.5122 4.9915L84.4887 3.89951C84.1479 3.59476 83.79 3.30882 83.4165 3.04333L82.5677 4.23736C82.8966 4.47116 83.2119 4.72302 83.5122 4.9915ZM81.5455 3.59372L82.2552 2.3122C81.8564 2.0913 81.4439 1.89204 81.0194 1.71599L80.4582 3.06919C80.8316 3.22402 81.1945 3.39932 81.5455 3.59372ZM79.3195 2.67074L79.7244 1.26288C79.2879 1.13733 78.8414 1.03544 78.3864 0.95866L78.1427 2.40318C78.543 2.47073 78.9357 2.56036 79.3195 2.67074ZM76.9415 2.26923L77.0224 0.806527C76.7952 0.793963 76.5663 0.787598 76.336 0.787598C76.1056 0.787598 75.8768 0.793963 75.6496 0.806527L75.7305 2.26923C75.9308 2.25816 76.1326 2.25254 76.336 2.25254C76.5393 2.25254 76.7412 2.25816 76.9415 2.26923ZM74.5293 2.40318L74.2856 0.95866C73.8305 1.03544 73.384 1.13733 72.9476 1.26288L73.3525 2.67074C73.7363 2.56036 74.129 2.47073 74.5293 2.40318ZM72.2138 3.06919L71.6526 1.71599C71.2281 1.89204 70.8156 2.0913 70.4167 2.3122L71.1265 3.59372C71.4775 3.39932 71.8404 3.22402 72.2138 3.06919ZM70.1042 4.23736L69.2555 3.04333C68.882 3.30882 68.5241 3.59476 68.1833 3.89951L69.1598 4.9915C69.46 4.72302 69.7753 4.47116 70.1042 4.23736ZM68.305 5.84631L67.213 4.86978C66.9082 5.21056 66.6223 5.56852 66.3568 5.94203L67.5509 6.79076C67.7847 6.46184 68.0365 6.14653 68.305 5.84631ZM66.9072 7.81302L65.6257 7.10326C65.4048 7.5021 65.2055 7.91458 65.0295 8.33912L66.3827 8.90027C66.5375 8.5269 66.7128 8.16401 66.9072 7.81302ZM65.9842 10.039L64.5764 9.63406C64.4508 10.0705 64.3489 10.517 64.2722 10.9721L65.7167 11.2158C65.7842 10.8155 65.8738 10.4228 65.9842 10.039ZM64.1011 13.0225C64.1011 12.7922 64.1075 12.5633 64.12 12.3361L65.5827 12.417C65.5716 12.6173 65.566 12.8191 65.566 13.0225C65.566 13.2258 65.5716 13.4277 65.5827 13.628L64.12 13.7089C64.1075 13.4817 64.1011 13.2528 64.1011 13.0225ZM65.7167 14.8292L64.2722 15.0729C64.3489 15.5279 64.4508 15.9744 64.5764 16.4109L65.9842 16.006C65.8738 15.6222 65.7842 15.2295 65.7167 14.8292ZM71.1265 22.4513L70.4167 23.7328C70.8156 23.9537 71.2281 24.1529 71.6526 24.329L72.2138 22.9758C71.8404 22.821 71.4775 22.6457 71.1265 22.4513ZM73.3525 23.3742L72.9476 24.7821C73.384 24.9076 73.8305 25.0095 74.2856 25.0863L74.5293 23.6418C74.129 23.5742 73.7363 23.4846 73.3525 23.3742ZM75.7305 23.7757L75.6496 25.2385C75.8768 25.251 76.1057 25.2574 76.336 25.2574C76.5663 25.2574 76.7952 25.251 77.0224 25.2385L76.9415 23.7757C76.7412 23.7868 76.5393 23.7924 76.336 23.7924C76.1326 23.7924 75.9308 23.7868 75.7305 23.7757ZM78.1427 23.6418L78.3864 25.0863C78.8414 25.0095 79.2879 24.9076 79.7244 24.7821L79.3195 23.3742C78.9357 23.4846 78.543 23.5742 78.1427 23.6418ZM80.4582 22.9758L81.0194 24.329C81.4439 24.1529 81.8564 23.9537 82.2552 23.7328L81.5455 22.4513C81.1945 22.6457 80.8316 22.821 80.4582 22.9758ZM82.5677 21.8076L83.4165 23.0016C83.79 22.7362 84.1479 22.4502 84.4887 22.1455L83.5122 21.0535C83.2119 21.322 82.8966 21.5738 82.5677 21.8076ZM84.367 20.1987L85.459 21.1752C85.7637 20.8344 86.0497 20.4765 86.3152 20.103L85.1211 19.2542C84.8873 19.5831 84.6355 19.8984 84.367 20.1987ZM85.7648 18.232L87.0463 18.9417C87.2672 18.5429 87.4664 18.1304 87.6425 17.7059L86.2893 17.1447C86.1345 17.5181 85.9592 17.881 85.7648 18.232ZM86.6877 16.006L88.0956 16.4109C88.2211 15.9744 88.323 15.5279 88.3998 15.0729L86.9553 14.8292C86.8877 15.2295 86.7981 15.6222 86.6877 16.006Z" fill="black"/>
</svg>
