<svg width="94" height="70" viewBox="0 0 94 70" fill="none" xmlns="http://www.w3.org/2000/svg">
<path fill-rule="evenodd" clip-rule="evenodd" d="M14.0397 10.8478C19.0843 14.7364 19.5483 16.5783 19.77 17.4582C19.7874 17.5271 19.8032 17.5902 19.8197 17.6478C20.8019 17.9639 23.333 17.8913 25.5996 15.0719C27.3014 12.2525 31.3709 13.0799 33.1929 13.8461C32.5565 13.6066 30.895 13.5165 29.3396 15.0719C27.7842 16.6273 27.6404 18.3419 27.7628 19.0048C29.4143 19.1569 32.9931 19.4611 34.0964 19.4611C34.6464 19.4611 35.107 18.9986 35.6609 18.4424C36.4957 17.6041 37.5424 16.5531 39.4262 16.5531C41.933 16.5531 44.0001 19.3794 44.7203 20.7925C44.3458 20.1966 43.0552 19.0048 40.8896 19.0048C38.1825 19.0048 37.7228 20.1285 37.7228 21.6608C37.7228 22.8766 39.4188 22.776 40.9935 22.6826C41.4034 22.6582 41.8051 22.6344 42.1665 22.6344C43.5663 22.6344 45.3051 26.7525 45.9994 28.8116C45.6242 28.037 44.4956 26.4877 42.9837 26.4877C41.0939 26.4877 40.4167 26.4877 39.4262 28.0965C38.4356 29.7053 39.4262 29.8877 41.7068 30.2928C43.5313 30.6169 44.1199 34.0866 44.1861 35.781C43.5299 35.2241 41.8574 34.1104 40.4167 34.1104C38.6159 34.1104 37.2729 34.3076 37.2729 37.2542C37.2729 40.2008 43.1661 39.1809 45.9994 37.2542C48.2661 35.7129 49.2861 29.4343 49.5127 26.4877V15.9478C49.0216 15.7211 47.6314 14.9051 45.9994 13.4545C45.2449 12.7838 45.1726 11.7721 45.1 10.7576C44.9764 9.02912 44.8522 7.29258 41.3528 7.22117C36.9102 7.1305 38.2173 12.17 39.4262 14.7011C38.2173 13.8322 35.7995 11.3465 35.7995 8.35449C35.7995 4.61452 37.2729 2.23451 44.1861 2.23451C49.7167 2.23451 50.8727 3.59452 50.7594 4.27453L61.526 2.80121C61.526 2.09192 62.5233 0.67334 66.5126 0.67334C69.0061 0.67334 71.4524 1.28327 73.2869 1.74065C74.3873 2.01503 75.2676 2.23451 75.8059 2.23451C74.4081 2.53676 71.2046 3.52658 69.5726 5.0679C68.6886 5.90281 71.827 6.14181 75.9812 6.45815C81.4133 6.87181 88.5823 7.41772 90.7657 9.6012C93.8484 12.6838 93.5613 20.0278 93.0324 23.3144C91.9368 19.3856 88.5444 11.5278 83.7391 11.5278C77.7325 11.5278 76.5992 12.4345 75.8059 13.4545C75.2837 14.1258 76.3325 14.7971 77.8859 15.7914C78.6928 16.308 79.6359 16.9116 80.5658 17.6478C82.7418 19.3705 83.588 24.2589 83.7391 26.4877C81.3214 23.5411 75.3752 17.6478 70.9326 17.6478C65.3793 17.6478 65.6059 21.7278 69.0059 23.3144C71.7259 24.5837 73.4636 27.8477 73.9925 29.321C71.1781 27.9799 64.7446 26.1024 61.526 29.321C58.3073 32.5397 58.8249 36.7065 59.486 38.3876C60.9215 37.0276 65.8326 34.3076 73.9925 34.3076C84.1924 34.3076 88.6124 40.3143 89.7457 45.8675C90.6524 50.3102 88.7635 53.8386 87.7057 55.0475C87.8946 57.163 88.0004 61.8021 86.9124 63.4341C85.8244 65.066 83.5125 64.5674 82.4925 64.1141C79.9614 64.5296 73.8339 65.3607 69.5726 65.3607C65.3113 65.3607 63.1882 61.0541 62.6593 58.9008C63.4526 59.5052 65.3339 61.0541 66.5126 62.4141C67.6913 63.7741 71.9903 62.9807 73.9925 62.4141C73.8792 60.7896 74.0832 57.2688 75.8059 56.1808C76.7181 55.6046 78.3015 55.0895 79.9357 54.5579C82.1591 53.8346 84.4766 53.0806 85.3258 52.1008C86.7991 50.4008 88.2724 41.3342 74.8992 41.3342C62.2678 41.3342 58.635 52.4561 57.8888 54.7405C57.845 54.8746 57.8112 54.9783 57.786 55.0475C57.6129 55.5236 57.4728 55.851 57.3531 56.1306C57.1595 56.583 57.0194 56.9104 56.8794 57.5408C56.698 58.3568 56.2749 60.4496 56.086 61.3941C50.9105 61.1674 40.4462 60.7141 39.9928 60.7141C39.4262 60.7141 39.4262 63.2074 39.4262 64.6807C39.4262 65.8015 42.5087 66.5944 43.7344 66.9096C44.1199 67.0088 44.3217 67.0607 44.1861 67.0607C44.0701 67.0607 43.8068 67.0987 43.4419 67.1514C42.0247 67.356 39.0754 67.7817 37.2729 67.0607C35.3366 66.2862 35.6333 63.8577 35.7609 62.8129C35.7827 62.6346 35.7995 62.4967 35.7995 62.4141C35.7995 61.8474 33.1929 62.8674 33.1929 65.3607C33.1929 67.3554 34.9307 69.0629 35.7995 69.6673C34.9307 69.4784 32.8529 69.0327 31.4929 68.7607C29.9719 68.4565 29.9932 66.6099 30.0146 64.7633C30.0171 64.546 30.0196 64.3288 30.0196 64.1141C30.0196 62.0741 33.1929 58.9008 34.6662 58.3341C35.5393 57.9983 33.8651 58.2595 32.1438 58.5281C30.9606 58.7127 29.7551 58.9008 29.3396 58.9008C28.9491 58.9008 28.8576 58.6848 28.7662 58.4692C28.6189 58.1215 28.4718 57.7745 27.0729 58.3341C24.8063 59.2408 23.8996 59.3541 22.7663 58.9008C21.633 58.4474 19.8197 59.0141 21.0663 61.3941C22.0636 63.2981 23.9752 64.0007 24.8063 64.1141C24.1263 64.7563 22.585 66.0634 21.8597 66.154C20.953 66.2674 17.213 63.5474 17.213 60.7141C17.213 58.9421 18.2325 58.0124 19.3013 57.0378C19.9415 56.454 20.5993 55.8541 21.0663 55.0475C21.8469 53.6992 20.4947 54.0394 18.7346 54.4822C17.6837 54.7465 16.4875 55.0475 15.513 55.0475C13.4277 55.0475 14.1908 57.2386 14.833 58.3341C14.3419 57.8808 13.3597 56.5888 13.3597 55.0475C13.3597 54.5624 13.1873 54.0844 13.0233 53.63C12.536 52.2795 12.1235 51.1363 16.533 50.6275C21.2887 50.0788 22.0591 52.113 22.4771 53.2166C22.5771 53.4806 22.6569 53.6914 22.7663 53.8008C23.333 54.3675 25.5996 50.6275 22.7663 49.7208C20.4997 48.9955 19.1775 48.8142 18.7997 48.8142C18.7997 48.3231 19.593 47.3182 22.7663 47.2275C25.9396 47.1369 26.9596 52.403 27.0729 55.0475H34.6662C34.9307 54.7075 35.5275 53.6421 35.7995 52.1008C35.9496 51.2504 33.9801 49.7819 31.5867 47.9972C28.5575 45.7384 24.8493 42.9733 23.8996 40.3143C23.0481 37.93 25.04 36.7969 27.4114 35.4479C29.7744 34.1038 32.5141 32.5452 33.1929 29.321C34.4289 23.4499 33.4182 23.2892 30.331 22.7982C30.0214 22.749 29.6908 22.6964 29.3396 22.6344C26.257 22.0904 23.673 22.8611 22.7663 23.3144C23.1441 23.3144 24.2396 23.9491 25.5996 26.4877C26.8289 28.7823 25.6286 29.5362 24.6982 30.1206C24.3419 30.3444 24.0252 30.5433 23.8996 30.7943C23.5952 31.4032 23.0352 31.6032 21.6019 32.1151C20.9008 32.3654 19.9909 32.6904 18.7997 33.1743C16.7381 34.0118 15.4822 34.2634 14.6573 34.4286C14.031 34.5541 13.6532 34.6298 13.3597 34.8743C12.8158 35.3276 13.1331 37.4054 13.3597 38.3876L10.6397 34.3076C11.433 33.8921 13.6091 32.9477 15.9664 32.4943C18.3237 32.041 18.8375 30.1899 18.7997 29.321C18.573 29.5099 17.689 29.8877 15.9664 29.8877C14.2437 29.8877 13.9641 30.4921 14.0397 30.7943C12.9063 31.3232 10.141 32.245 8.14644 31.701C6.67441 31.2995 6.94058 31.9252 7.40558 33.0182C7.72817 33.7765 8.14644 34.7597 8.14644 35.781C8.14644 37.7756 9.8086 38.3498 10.6397 38.3876C10.6397 38.9165 9.68769 39.5436 5.87973 37.8209C1.11978 35.6676 1.34642 31.8143 1.57309 29.321C1.75442 27.3264 7.69304 24.4855 10.6397 23.3144C10.2619 22.03 9.57435 19.0984 9.84635 17.6478C10.1237 16.1684 12.7395 18.0081 14.1244 18.982C14.437 19.2019 14.6869 19.3776 14.833 19.4611C15.6263 19.9144 16.6463 18.6678 17.213 17.6478C17.6663 16.8318 9.84636 9.97894 5.87973 6.6545C6.78639 6.6545 9.6877 7.49316 14.0397 10.8478ZM19.8197 22.3248C19.2841 22.3248 14.2605 22.7654 14.0397 23.0399C13.863 23.2595 13.5128 25.2085 13.3597 26.1556H17.8539L16.533 24.9297L19.8197 22.3248ZM49.8532 58.1226H41.5904L41.1596 54.324C42.3605 54.6764 45.0756 55.397 46.3288 55.4596C47.5819 55.5223 49.2005 57.261 49.8532 58.1226Z" fill="black"/>
</svg>
